<svg xmlns="http://www.w3.org/2000/svg" xmlns:xlink="http://www.w3.org/1999/xlink" version="1.1" width="5486" height="1365" style="width: 5486px; height: 1365px; background: #ffffff" viewBox="0 0 5486 1365"><style id="v-3" type="text/css">        .joint-element .scalable * {            vector-effect: non-scaling-stroke;        }    </style><defs joint-selector="defs"><marker id="v-21252848929" orient="auto" overflow="visible" markerUnits="userSpaceOnUse"><path id="v-65" stroke="#444444" fill="#444444" transform="rotate(180)" d="M 20 -10 0 0 20 10 Z"></path></marker><marker id="v-2-1424592063" orient="auto" overflow="visible" markerUnits="userSpaceOnUse"><path id="v-533" stroke="#6b7280" fill="#6b7280" transform="rotate(180)" d="M 20 -10 0 0 20 10 Z"></path></marker></defs><g joint-selector="layers"  transform="matrix(1,0,0,1,0,0)"><g  style="pointer-events: none;"></g><g ></g><g  style="user-select: none;"><!--z-index:0--><!--z-index:1--><!--z-index:2--><!--z-index:3--><!--z-index:4--><!--z-index:5--><!--z-index:6--><!--z-index:7--><!--z-index:8--><!--z-index:9--><!--z-index:10--><!--z-index:11--><!--z-index:12--><!--z-index:13--><!--z-index:14--><!--z-index:15--><!--z-index:16--><!--z-index:17--><g   id="j_63"  transform="translate(20,1321)"><g id="v-844"><text  id="v-845" font-size="24px" xml:space="preserve" y="0.8em" font-weight="normal" text-anchor="start" fill="#444444" pointer-events="none" display="block" font-family="Tahoma, Verdana, Helvetica, Arial"><tspan dy="0" >lunedì 13 luglio 2026 alle ore 00:51 Ora legale dell’Europa centrale</tspan></text></g></g><!--z-index:18--><g   id="j_62"  transform="translate(20,1287)"><g id="v-842"><text  id="v-843" font-size="24px" xml:space="preserve" y="0.8em" font-weight="normal" text-anchor="start" fill="#444444" pointer-events="none" display="block" font-family="Tahoma, Verdana, Helvetica, Arial"><tspan dy="0" >Implemented JSON Admin Control Plane routes consumed by the browser application and mounted by the bootstrap admin server. Catalog and capacity behavior is backed by configured ports; operational reports explicitly remain unavailable when no matching real provider is configured. Frontend and generated documentation assets are handed off to bootstrap-application static resources.</tspan></text></g></g><!--z-index:19--><g   id="j_61"  transform="translate(20,1241)"><g id="v-840"><text  id="v-841" font-size="36px" xml:space="preserve" y="0.8em" font-weight="normal" text-anchor="start" fill="#444444" pointer-events="none" display="block" font-family="Tahoma, Verdana, Helvetica, Arial"><tspan dy="0" >C3 Component: admin-api-adapter</tspan></text></g></g><!--z-index:20--><g   id="j_64"  transform="translate(862,380)" style=""><g  id="v-849" style="opacity: 1;"><rect  x="0" y="160" width="400" height="240" rx="70" id="v-851" stroke-width="2" pointer-events="visiblePainted" fill="#ffffff" stroke="#e6e6e6" stroke-dasharray="" style="fill: rgb(255, 255, 255); stroke: rgb(230, 230, 230);"></rect><circle  cx="200" cy="88.88888888888889" r="88.88888888888889" id="v-850" stroke-width="2" pointer-events="visiblePainted" fill="#ffffff" stroke="#e6e6e6" stroke-dasharray="" style="fill: rgb(255, 255, 255); stroke: rgb(230, 230, 230);"></circle><line  x1="80" y1="266.6666666666667" x2="80" y2="400" id="v-857" stroke="#e6e6e6" stroke-width="1" stroke-dasharray="" style="stroke: rgb(230, 230, 230);"></line><line  x1="320" y1="266.6666666666667" x2="320" y2="400" id="v-858" stroke="#e6e6e6" stroke-width="1" stroke-dasharray="" style="stroke: rgb(230, 230, 230);"></line><text  id="v-852" font-size="33.599999999999994px" xml:space="preserve" y="188.10000000000002" font-weight="bold" text-anchor="middle" pointer-events="visible" font-family="Tahoma, Verdana, Helvetica, Arial" fill="#444444" dominant-baseline="hanging" transform="matrix(1,0,0,1,200,0)" style="fill: rgb(68, 68, 68);"><tspan dy="0" >Administrator</tspan></text><text  id="v-853" font-size="16.799999999999997px" xml:space="preserve" y="229.70000000000002" text-anchor="middle" font-family="Tahoma, Verdana, Helvetica, Arial" fill="#444444" dominant-baseline="hanging" transform="matrix(1,0,0,1,200,0)" style="display: block; fill: rgb(68, 68, 68);"><tspan dy="0" >[Person]</tspan></text><text  id="v-854" font-size="24px" xml:space="preserve" y="261.5" text-anchor="middle" font-family="Tahoma, Verdana, Helvetica, Arial" fill="#444444" dominant-baseline="hanging" transform="matrix(1,0,0,1,200,0)" style="display: block; fill: rgb(68, 68, 68);"><tspan dy="0" >Operator using the bundled</tspan><tspan dy="1.2em" x="0" >Magrathea admin UI, generated</tspan><tspan dy="1.2em" x="0" >documentation, and JSON</tspan><tspan dy="1.2em" x="0" >management API.</tspan></text><g  id="v-855" font-weight="normal" text-anchor="middle" color="#444444" transform="matrix(1,0,0,1,197.5,368)" display="none" style="fill: rgb(68, 68, 68);"><g ></g><g ></g><g ></g><g ></g></g><image  id="v-856"></image></g></g><!--z-index:21--><g   id="j_66"  transform="translate(1602,280)" style="; opacity: 1;"><g id="v-875"><rect  id="v-876" width="3020" height="834" rx="20" ry="20" stroke-width="2" pointer-events="none" stroke="#0f5eaa" fill="#ffffff" opacity="1" stroke-dasharray=""></rect><text  id="v-877" font-size="33.599999999999994px" xml:space="preserve" y="795" font-weight="bold" text-anchor="start" pointer-events="visible" font-family="Tahoma, Verdana, Helvetica, Arial" fill="#1168bd" transform="matrix(1,0,0,1,15,0)"><tspan dy="0" >Magrathea ObjectStore</tspan></text><text  id="v-878" font-size="16.799999999999997px" xml:space="preserve" y="819" font-weight="normal" text-anchor="start" pointer-events="visible" font-family="Tahoma, Verdana, Helvetica, Arial" fill="#1168bd" transform="matrix(1,0,0,1,15,0)"><tspan dy="0" >[Software System]</tspan></text><image  id="v-879" pointer-events="visible"></image></g></g><!--z-index:22--><g   id="j_65"  transform="translate(1652,465)" style=""><g  id="v-868" style="opacity: 1;"><rect  id="v-869" rx="20" ry="20" stroke-width="2" pointer-events="visiblePainted" fill="#438dd5" stroke="#3c7fc0" stroke-dasharray="" width="450" height="300" style="fill: rgb(67, 141, 213); stroke: rgb(60, 127, 192);"></rect><text  id="v-870" font-size="33.599999999999994px" xml:space="preserve" y="-95.97999999999999" font-weight="bold" text-anchor="middle" pointer-events="visible" font-family="Tahoma, Verdana, Helvetica, Arial" fill="#ffffff" dominant-baseline="hanging" transform="matrix(1,0,0,1,225,0)" style="fill: rgb(255, 255, 255);"><tspan dy="0" >bootstrap-application</tspan></text><text  id="v-871" font-size="16.799999999999997px" xml:space="preserve" y="-54.379999999999995" text-anchor="middle" font-family="Tahoma, Verdana, Helvetica, Arial" fill="#ffffff" dominant-baseline="hanging" transform="matrix(1,0,0,1,225,0)" style="display: block; fill: rgb(255, 255, 255);"><tspan dy="0" >[Container: Spring Boot 4 WebFlux, Reactor Netty,</tspan><tspan dy="1.2em" x="0" >Maven resources/exec/antrun, Node.js/Vite]</tspan></text><text  id="v-872" font-size="24px" xml:space="preserve" y="-2.4200000000000017" text-anchor="middle" font-family="Tahoma, Verdana, Helvetica, Arial" fill="#ffffff" dominant-baseline="hanging" transform="matrix(1,0,0,1,225,0)" style="display: block; fill: rgb(255, 255, 255);"><tspan dy="0" >Executable Spring Boot</tspan><tspan dy="1.2em" x="0" >application/fat JAR that composes</tspan><tspan dy="1.2em" x="0" >the S3 API, admin API, object-store</tspan><tspan dy="1.2em" x="0" >capabilities, and selectable</tspan><tspan dy="1.2em" x="0" >persistence backends. It owns the</tspan><tspan dy="1.2em" x="0" >static asset handoff: during</tspan><tspan dy="1.2em" x="0" >generate-resources it builds/copies</tspan><tspan dy="1.2em" x="0" >magrathea-ui dist assets plus</tspan><tspan dy="1.2em" x="0" >generated docs/reports/C4 and</tspan><tspan dy="1.2em" x="0" >arc42 images into</tspan><tspan dy="1.2em" x="0" >bootstrap-application classpath</tspan><tspan dy="1.2em" x="0" >static resources, while</tspan><tspan dy="1.2em" x="0" >admin-api-adapter supplies only</tspan><tspan dy="1.2em" x="0" >admin API routes.</tspan></text><g  id="v-873" color="#ffffff" transform="matrix(1,0,0,1,210,268)" display="none" style="fill: rgb(255, 255, 255);"><g  transform="translate(5 0)"><svg xmlns="http://www.w3.org/2000/svg" width="20" height="20" fill="currentColor" viewBox="0 0 16 16"><path fill-rule="evenodd" d="M6.5 12a5.5 5.5 0 1 0 0-11 5.5 5.5 0 0 0 0 11zM13 6.5a6.5 6.5 0 1 1-13 0 6.5 6.5 0 0 1 13 0z"></path><path d="M10.344 11.742c.03.04.062.078.098.115l3.85 3.85a1 1 0 0 0 1.415-1.414l-3.85-3.85a1.007 1.007 0 0 0-.115-.1 6.538 6.538 0 0 1-1.398 1.4z"></path><path fill-rule="evenodd" d="M6.5 3a.5.5 0 0 1 .5.5V6h2.5a.5.5 0 0 1 0 1H7v2.5a.5.5 0 0 1-1 0V7H3.5a.5.5 0 0 1 0-1H6V3.5a.5.5 0 0 1 .5-.5z"></path></svg></g><g ></g><g ></g><g ></g></g><image  id="v-874"></image></g></g><!--z-index:23--><g   id="j_67"  transform="translate(2442,330)" style=""><g  id="v-889" style="opacity: 1;"><rect  id="v-890" rx="20" ry="20" stroke-width="2" pointer-events="visiblePainted" fill="#438dd5" stroke="#3c7fc0" stroke-dasharray="" width="450" height="300" style="fill: rgb(67, 141, 213); stroke: rgb(60, 127, 192);"></rect><text  id="v-891" font-size="33.599999999999994px" xml:space="preserve" y="-87.33999999999997" font-weight="bold" text-anchor="middle" pointer-events="visible" font-family="Tahoma, Verdana, Helvetica, Arial" fill="#ffffff" dominant-baseline="hanging" transform="matrix(1,0,0,1,225,0)" style="fill: rgb(255, 255, 255);"><tspan dy="0" >Object Storage Admin</tspan><tspan dy="1.2em" x="0" >Browser Application</tspan></text><text  id="v-892" font-size="16.799999999999997px" xml:space="preserve" y="-5.4199999999999875" text-anchor="middle" font-family="Tahoma, Verdana, Helvetica, Arial" fill="#ffffff" dominant-baseline="hanging" transform="matrix(1,0,0,1,225,0)" style="display: block; fill: rgb(255, 255, 255);"><tspan dy="0" >[Container: Vue 3, TypeScript, JavaScript, Vue</tspan><tspan dy="1.2em" x="0" >Router, Vite]</tspan></text><text  id="v-893" font-size="24px" xml:space="preserve" y="46.54000000000002" text-anchor="middle" font-family="Tahoma, Verdana, Helvetica, Arial" fill="#ffffff" dominant-baseline="hanging" transform="matrix(1,0,0,1,225,0)" style="display: block; fill: rgb(255, 255, 255);"><tspan dy="0" >Browser runtime for the</tspan><tspan dy="1.2em" x="0" >independently built Object Storage</tspan><tspan dy="1.2em" x="0" >product composition. The deployed</tspan><tspan dy="1.2em" x="0" >static distribution composes the</tspan><tspan dy="1.2em" x="0" >product-neutral Product Shell with</tspan><tspan dy="1.2em" x="0" >the Object Storage Product</tspan><tspan dy="1.2em" x="0" >Extension and application-owned</tspan><tspan dy="1.2em" x="0" >browser adapters. It calls the Admin</tspan><tspan dy="1.2em" x="0" >Control Plane and, only when a</tspan><tspan dy="1.2em" x="0" >separate endpoint and in-memory</tspan><tspan dy="1.2em" x="0" >signer are configured, the S3 Data</tspan><tspan dy="1.2em" x="0" >Plane for HeadObject diagnostics.</tspan></text><g  id="v-894" color="#ffffff" transform="matrix(1,0,0,1,210,268)" display="none" style="fill: rgb(255, 255, 255);"><g  transform="translate(5 0)"><svg xmlns="http://www.w3.org/2000/svg" width="20" height="20" fill="currentColor" viewBox="0 0 16 16"><path fill-rule="evenodd" d="M6.5 12a5.5 5.5 0 1 0 0-11 5.5 5.5 0 0 0 0 11zM13 6.5a6.5 6.5 0 1 1-13 0 6.5 6.5 0 0 1 13 0z"></path><path d="M10.344 11.742c.03.04.062.078.098.115l3.85 3.85a1 1 0 0 0 1.415-1.414l-3.85-3.85a1.007 1.007 0 0 0-.115-.1 6.538 6.538 0 0 1-1.398 1.4z"></path><path fill-rule="evenodd" d="M6.5 3a.5.5 0 0 1 .5.5V6h2.5a.5.5 0 0 1 0 1H7v2.5a.5.5 0 0 1-1 0V7H3.5a.5.5 0 0 1 0-1H6V3.5a.5.5 0 0 1 .5-.5z"></path></svg></g><g ></g><g ></g><g ></g></g><image  id="v-895"></image></g></g><!--z-index:24--><g   id="j_69"  transform="translate(3232,506)" style="; opacity: 1;"><g id="v-909"><rect  id="v-910" width="550" height="479" rx="20" ry="20" stroke-width="2" pointer-events="none" stroke="#3c7fc0" fill="#ffffff" opacity="1" stroke-dasharray=""></rect><text  id="v-911" font-size="33.599999999999994px" xml:space="preserve" y="440" font-weight="bold" text-anchor="start" pointer-events="visible" font-family="Tahoma, Verdana, Helvetica, Arial" fill="#438dd5" transform="matrix(1,0,0,1,15,0)"><tspan dy="0" >admin-api-adapter</tspan></text><text  id="v-912" font-size="16.799999999999997px" xml:space="preserve" y="464" font-weight="normal" text-anchor="start" pointer-events="visible" font-family="Tahoma, Verdana, Helvetica, Arial" fill="#438dd5" transform="matrix(1,0,0,1,15,0)"><tspan dy="0" >[Container]</tspan></text><image  id="v-913" pointer-events="visible"></image></g></g><!--z-index:25--><g   id="j_70"  transform="translate(4122,330)" style=""><g  id="v-920" style="opacity: 1;"><rect  id="v-921" rx="20" ry="20" stroke-width="2" pointer-events="visiblePainted" fill="#438dd5" stroke="#3c7fc0" stroke-dasharray="" width="450" height="300" style="fill: rgb(67, 141, 213); stroke: rgb(60, 127, 192);"></rect><text  id="v-922" font-size="33.599999999999994px" xml:space="preserve" y="-57.099999999999966" font-weight="bold" text-anchor="middle" pointer-events="visible" font-family="Tahoma, Verdana, Helvetica, Arial" fill="#ffffff" dominant-baseline="hanging" transform="matrix(1,0,0,1,225,0)" style="fill: rgb(255, 255, 255);"><tspan dy="0" >storage-engine</tspan></text><text  id="v-923" font-size="16.799999999999997px" xml:space="preserve" y="-15.499999999999972" text-anchor="middle" font-family="Tahoma, Verdana, Helvetica, Arial" fill="#ffffff" dominant-baseline="hanging" transform="matrix(1,0,0,1,225,0)" style="display: block; fill: rgb(255, 255, 255);"><tspan dy="0" >[Container: Java 21, domain-driven]</tspan></text><text  id="v-924" font-size="24px" xml:space="preserve" y="16.300000000000026" text-anchor="middle" font-family="Tahoma, Verdana, Helvetica, Arial" fill="#ffffff" dominant-baseline="hanging" transform="matrix(1,0,0,1,225,0)" style="display: block; fill: rgb(255, 255, 255);"><tspan dy="0" >Storage Engine bounded context:</tspan><tspan dy="1.2em" x="0" >persistence pipeline, virtual devices,</tspan><tspan dy="1.2em" x="0" >storage policies, optional</tspan><tspan dy="1.2em" x="0" >deduplication, erasure coding,</tspan><tspan dy="1.2em" x="0" >content-addressed storage, and</tspan><tspan dy="1.2em" x="0" >manifest management.</tspan><tspan dy="1.2em" x="0" >MINIO_STANDARD is modeled as</tspan><tspan dy="1.2em" x="0" >STANDARD with dedup disabled,</tspan><tspan dy="1.2em" x="0" >EC enabled (4 data / 2 parity),</tspan><tspan dy="1.2em" x="0" >replication factor 1, compression</tspan><tspan dy="1.2em" x="0" >disabled, and encryption disabled by</tspan><tspan dy="1.2em" x="0" >default.</tspan></text><g  id="v-925" color="#ffffff" transform="matrix(1,0,0,1,210,268)" display="none" style="fill: rgb(255, 255, 255);"><g  transform="translate(5 0)"><svg xmlns="http://www.w3.org/2000/svg" width="20" height="20" fill="currentColor" viewBox="0 0 16 16"><path fill-rule="evenodd" d="M6.5 12a5.5 5.5 0 1 0 0-11 5.5 5.5 0 0 0 0 11zM13 6.5a6.5 6.5 0 1 1-13 0 6.5 6.5 0 0 1 13 0z"></path><path d="M10.344 11.742c.03.04.062.078.098.115l3.85 3.85a1 1 0 0 0 1.415-1.414l-3.85-3.85a1.007 1.007 0 0 0-.115-.1 6.538 6.538 0 0 1-1.398 1.4z"></path><path fill-rule="evenodd" d="M6.5 3a.5.5 0 0 1 .5.5V6h2.5a.5.5 0 0 1 0 1H7v2.5a.5.5 0 0 1-1 0V7H3.5a.5.5 0 0 1 0-1H6V3.5a.5.5 0 0 1 .5-.5z"></path></svg></g><g ></g><g ></g><g ></g></g><image  id="v-926"></image></g></g><!--z-index:26--><g   id="j_68"  transform="translate(3282,556)" style=""><g  id="v-902" style="opacity: 1;"><rect  id="v-903" rx="20" ry="20" stroke-width="2" pointer-events="visiblePainted" fill="#85bbf0" stroke="#78a8d8" stroke-dasharray="" width="450" height="300" style="fill: rgb(133, 187, 240); stroke: rgb(120, 168, 216);"></rect><text  id="v-904" font-size="33.599999999999994px" xml:space="preserve" y="-23.97999999999999" font-weight="bold" text-anchor="middle" pointer-events="visible" font-family="Tahoma, Verdana, Helvetica, Arial" fill="#000000" dominant-baseline="hanging" transform="matrix(1,0,0,1,225,0)" style="fill: rgb(0, 0, 0);"><tspan dy="0" >AdminRouter</tspan></text><text  id="v-905" font-size="16.799999999999997px" xml:space="preserve" y="17.620000000000005" text-anchor="middle" font-family="Tahoma, Verdana, Helvetica, Arial" fill="#000000" dominant-baseline="hanging" transform="matrix(1,0,0,1,225,0)" style="display: block; fill: rgb(0, 0, 0);"><tspan dy="0" >[Component: Spring @Configuration,</tspan><tspan dy="1.2em" x="0" >RouterFunction]</tspan></text><text  id="v-906" font-size="24px" xml:space="preserve" y="69.58" text-anchor="middle" font-family="Tahoma, Verdana, Helvetica, Arial" fill="#000000" dominant-baseline="hanging" transform="matrix(1,0,0,1,225,0)" style="display: block; fill: rgb(0, 0, 0);"><tspan dy="0" >Defines the /admin JSON route</tspan><tspan dy="1.2em" x="0" >families. Catalog and capacity</tspan><tspan dy="1.2em" x="0" >routes use configured</tspan><tspan dy="1.2em" x="0" >storage-engine ports; backend</tspan><tspan dy="1.2em" x="0" >status uses its configured provider;</tspan><tspan dy="1.2em" x="0" >operational report routes return</tspan><tspan dy="1.2em" x="0" >explicit provider-not-configured</tspan><tspan dy="1.2em" x="0" >responses when no matching real</tspan><tspan dy="1.2em" x="0" >provider exists.</tspan></text><g  id="v-907" color="#000000" transform="matrix(1,0,0,1,222.5,268)" display="none" style="fill: rgb(0, 0, 0);"><g ></g><g ></g><g ></g><g ></g></g><image  id="v-908"></image></g></g><!--z-index:27--><g   id="j_71"  style="opacity: 1;"><path fill="none" cursor="pointer" stroke="transparent" stroke-linecap="round" joint-selector="wrapper" id="v-941" stroke-width="10" stroke-linejoin="round" d="M 2892 477.97 L 3222 480 C 3228.6666666666665 480 3234.6666666666665 482 3240 486 L 3288.7 525.9"></path><path fill="none" pointer-events="none" joint-selector="line" id="v-940" stroke="#444444" stroke-width="2" stroke-linejoin="round" stroke-dasharray="8 8" d="M 2892 477.97 L 3222 480 C 3228.6666666666665 480 3234.6666666666665 482 3240 486 L 3288.7 525.9" marker-end="url(#v-21252848929)"></path><g id="v-930" ><g id="v-931"  label-idx="0" cursor="move" transform="matrix(1,0,0,1,3044.21044921875,465.5063171386719)" style="cursor: default;"><rect joint-selector="rect" id="v-935" fill="#ffffff" rx="3" ry="3" x="-98.54600524902344" y="-43.82221984863281" width="197.63572692871094" height="85.37777709960938" pointer-events="none"  style="display: block;"></rect><text joint-selector="text" id="v-934" font-size="24px" xml:space="preserve" fill="#444444" text-anchor="middle" pointer-events="none" font-family="Tahoma, Verdana, Helvetica, Arial" font-weight="normal"  style="display: block;"><tspan dy="-0.8999999999999999em" >Calls implemented</tspan><tspan dy="1.2em" x="0" >Admin Control</tspan><tspan dy="1.2em" x="0" >Plane routes</tspan></text></g><g id="v-932"  label-idx="1" cursor="move" transform="matrix(1,0,0,1,3044.21044921875,524.706298828125)" style="cursor: default;"><rect joint-selector="rect" id="v-937" fill="#ffffff" rx="3" ry="3" x="-51.193572998046875" y="-8.848888397216797" width="103.286865234375" height="16.66666603088379"  pointer-events="none" style="display: block;"></rect><text joint-selector="text" id="v-936" font-size="16.799999999999997px" xml:space="preserve" fill="#444444" text-anchor="middle" pointer-events="none" font-family="Tahoma, Verdana, Helvetica, Arial" font-weight="normal"  style="display: block;"><tspan dy="0.3em" >[HTTP/JSON]</tspan></text></g><g id="v-933"  label-idx="2" cursor="move" transform="matrix(1,0,0,1,3088.13525390625,533.4380493164062)" style="cursor: default;"><rect joint-selector="rect" id="v-939" fill="#ffffff" rx="3" ry="3" x="0" y="0" width="0" height="0"  display="none"></rect><text joint-selector="text" id="v-938" fill="#000000" font-size="14" text-anchor="middle" text-vertical-anchor="middle" pointer-events="none"></text></g></g></g><!--z-index:28--><g   id="j_72"  style="opacity: 1;"><path fill="none" cursor="pointer" stroke="transparent" stroke-linecap="round" joint-selector="wrapper" id="v-956" stroke-width="10" stroke-linejoin="round" d="M 1262 598.97 L 1422 614 C 1428.6666666666665 614.7333333333333 1435.3333333333333 615.0666666666666 1442 615 L 1652 613.38"></path><path fill="none" pointer-events="none" joint-selector="line" id="v-955" stroke="#444444" stroke-width="2" stroke-linejoin="round" stroke-dasharray="8 8" d="M 1262 598.97 L 1422 614 C 1428.6666666666665 614.7333333333333 1435.3333333333333 615.0666666666666 1442 615 L 1652 613.38" marker-end="url(#v-21252848929)"></path><g id="v-945" ><g id="v-946"  label-idx="0" cursor="move" transform="matrix(1,0,0,1,1432,601.4000244140625)" style="cursor: default;"><rect joint-selector="rect" id="v-950" fill="#ffffff" rx="3" ry="3" x="-95.24739074707031" y="-72.6222152709961" width="191.03782653808594" height="142.977783203125" pointer-events="none"  style="display: block;"></rect><text joint-selector="text" id="v-949" font-size="24px" xml:space="preserve" fill="#444444" text-anchor="middle" pointer-events="none" font-family="Tahoma, Verdana, Helvetica, Arial" font-weight="normal"  style="display: block;"><tspan dy="-2.1em" >Loads bundled</tspan><tspan dy="1.2em" x="0" >admin UI and</tspan><tspan dy="1.2em" x="0" >generated</tspan><tspan dy="1.2em" x="0" >documentation on</tspan><tspan dy="1.2em" x="0" >the admin port</tspan></text></g><g id="v-947"  label-idx="1" cursor="move" transform="matrix(1,0,0,1,1432,689.4000244140625)" style="cursor: default;"><rect joint-selector="rect" id="v-952" fill="#ffffff" rx="3" ry="3" x="-26.54079818725586" y="-8.848888397216797" width="53.950836181640625" height="16.66666603088379"  pointer-events="none" style="display: block;"></rect><text joint-selector="text" id="v-951" font-size="16.799999999999997px" xml:space="preserve" fill="#444444" text-anchor="middle" pointer-events="none" font-family="Tahoma, Verdana, Helvetica, Arial" font-weight="normal"  style="display: block;"><tspan dy="0.3em" >[HTTP]</tspan></text></g><g id="v-948"  label-idx="2" cursor="move" transform="matrix(1,0,0,1,1446.6324462890625,697.8871459960938)" style="cursor: default;"><rect joint-selector="rect" id="v-954" fill="#ffffff" rx="3" ry="3" x="0" y="0" width="0" height="0"  display="none"></rect><text joint-selector="text" id="v-953" fill="#000000" font-size="14" text-anchor="middle" text-vertical-anchor="middle" pointer-events="none"></text></g></g></g><!--z-index:29--><g   id="j_73"  style="opacity: 1;"><path fill="none" cursor="pointer" stroke="transparent" stroke-linecap="round" joint-selector="wrapper" id="v-974" stroke-width="10" stroke-linejoin="round" d="M 1262 453.78 L 1424 352 C 1429.3333333333333 348.3333333333333 1435.3333333333333 346.66666666666663 1442 347 L 2262 347 C 2268.6666666666665 346.66666666666663 2275 347.66666666666663 2281 350 L 2442 402.5"></path><path fill="none" pointer-events="none" joint-selector="line" id="v-973" stroke="#444444" stroke-width="2" stroke-linejoin="round" stroke-dasharray="8 8" d="M 1262 453.78 L 1424 352 C 1429.3333333333333 348.3333333333333 1435.3333333333333 346.66666666666663 1442 347 L 2262 347 C 2268.6666666666665 346.66666666666663 2275 347.66666666666663 2281 350 L 2442 402.5" marker-end="url(#v-21252848929)"></path><g id="v-963" ><g id="v-964"  label-idx="0" cursor="move" transform="matrix(1,0,0,1,1877.02685546875,333.6000061035156)" style="cursor: default;"><rect joint-selector="rect" id="v-968" fill="#ffffff" rx="3" ry="3" x="-85.24304962158203" y="-58.22222137451172" width="172.12269592285156" height="114.17778015136719" pointer-events="none"  style="display: block;"></rect><text joint-selector="text" id="v-967" font-size="24px" xml:space="preserve" fill="#444444" text-anchor="middle" pointer-events="none" font-family="Tahoma, Verdana, Helvetica, Arial" font-weight="normal"  style="display: block;"><tspan dy="-1.4999999999999998em" >Uses the Object</tspan><tspan dy="1.2em" x="0" >Storage</tspan><tspan dy="1.2em" x="0" >administration</tspan><tspan dy="1.2em" x="0" >experience</tspan></text></g><g id="v-965"  label-idx="1" cursor="move" transform="matrix(1,0,0,1,1877.02685546875,407.20001220703125)" style="cursor: default;"><rect joint-selector="rect" id="v-970" fill="#ffffff" rx="3" ry="3" x="-76.3671875" y="-8.848888397216797" width="153.6045379638672" height="16.66666603088379"  pointer-events="none" style="display: block;"></rect><text joint-selector="text" id="v-969" font-size="16.799999999999997px" xml:space="preserve" fill="#444444" text-anchor="middle" pointer-events="none" font-family="Tahoma, Verdana, Helvetica, Arial" font-weight="normal"  style="display: block;"><tspan dy="0.3em" >[Browser interaction]</tspan></text></g><g id="v-966"  label-idx="2" cursor="move" transform="matrix(1,0,0,1,1831.18798828125,415.6000061035156)" style="cursor: default;"><rect joint-selector="rect" id="v-972" fill="#ffffff" rx="3" ry="3" x="0" y="0" width="0" height="0"  display="none"></rect><text joint-selector="text" id="v-971" fill="#000000" font-size="14" text-anchor="middle" text-vertical-anchor="middle" pointer-events="none"></text></g></g></g><!--z-index:30--><g   id="j_74"  style="opacity: 1;"><path fill="none" cursor="pointer" stroke="transparent" stroke-linecap="round" joint-selector="wrapper" id="v-989" stroke-width="10" stroke-linejoin="round" d="M 1262 707.08 L 1424 810 C 1429.3333333333333 813.4 1435.3333333333333 815.0666666666666 1442 815 L 3222 815 C 3228.6666666666665 815.0666666666666 3235 813.7333333333333 3241 811 L 3282 794.65"></path><path fill="none" pointer-events="none" joint-selector="line" id="v-988" stroke="#444444" stroke-width="2" stroke-linejoin="round" stroke-dasharray="8 8" d="M 1262 707.08 L 1424 810 C 1429.3333333333333 813.4 1435.3333333333333 815.0666666666666 1442 815 L 3222 815 C 3228.6666666666665 815.0666666666666 3235 813.7333333333333 3241 811 L 3282 794.65" marker-end="url(#v-21252848929)"></path><g id="v-978" ><g id="v-979"  label-idx="0" cursor="move" transform="matrix(1,0,0,1,2272.14892578125,801.5999755859375)" style="cursor: default;"><rect joint-selector="rect" id="v-983" fill="#ffffff" rx="3" ry="3" x="-69.921875" y="-43.82221984863281" width="141.51966857910156" height="85.37777709960938" pointer-events="none"  style="display: block;"></rect><text joint-selector="text" id="v-982" font-size="24px" xml:space="preserve" fill="#444444" text-anchor="middle" pointer-events="none" font-family="Tahoma, Verdana, Helvetica, Arial" font-weight="normal"  style="display: block;"><tspan dy="-0.8999999999999999em" >Calls admin</tspan><tspan dy="1.2em" x="0" >management</tspan><tspan dy="1.2em" x="0" >endpoints</tspan></text></g><g id="v-980"  label-idx="1" cursor="move" transform="matrix(1,0,0,1,2272.14892578125,860.7999877929688)" style="cursor: default;"><rect joint-selector="rect" id="v-985" fill="#ffffff" rx="3" ry="3" x="-51.193572998046875" y="-8.848888397216797" width="103.286865234375" height="16.66666603088379"  pointer-events="none" style="display: block;"></rect><text joint-selector="text" id="v-984" font-size="16.799999999999997px" xml:space="preserve" fill="#444444" text-anchor="middle" pointer-events="none" font-family="Tahoma, Verdana, Helvetica, Arial" font-weight="normal"  style="display: block;"><tspan dy="0.3em" >[HTTP/JSON]</tspan></text></g><g id="v-981"  label-idx="2" cursor="move" transform="matrix(1,0,0,1,2248.41796875,869.2000122070312)" style="cursor: default;"><rect joint-selector="rect" id="v-987" fill="#ffffff" rx="3" ry="3" x="0" y="0" width="0" height="0"  display="none"></rect><text joint-selector="text" id="v-986" fill="#000000" font-size="14" text-anchor="middle" text-vertical-anchor="middle" pointer-events="none"></text></g></g></g><!--z-index:31--><g   id="j_75"  style="opacity: 1;"><path fill="none" cursor="pointer" stroke="transparent" stroke-linecap="round" joint-selector="wrapper" id="v-1007" stroke-width="10" stroke-linejoin="round" d="M 2102 798.73 L 2264 934 C 2269.333333333333 938.0666666666666 2275.333333333333 940.0666666666666 2282 940 L 3222 940 C 3228.6666666666665 940.0666666666666 3234.6666666666665 938.0666666666666 3240 934 L 3302.37 879.33"></path><path fill="none" pointer-events="none" joint-selector="line" id="v-1006" stroke="#444444" stroke-width="2" stroke-linejoin="round" stroke-dasharray="8 8" d="M 2102 798.73 L 2264 934 C 2269.333333333333 938.0666666666666 2275.333333333333 940.0666666666666 2282 940 L 3222 940 C 3228.6666666666665 940.0666666666666 3234.6666666666665 938.0666666666666 3240 934 L 3302.37 879.33" marker-end="url(#v-21252848929)"></path><g id="v-996" ><g id="v-997"  label-idx="0" cursor="move" transform="matrix(1,0,0,1,2676.949462890625,926.5999755859375)" style="cursor: default;"><rect joint-selector="rect" id="v-1001" fill="#ffffff" rx="3" ry="3" x="-97.89495849609375" y="-43.82221984863281" width="195.7899169921875" height="85.37777709960938" pointer-events="none"  style="display: block;"></rect><text joint-selector="text" id="v-1000" font-size="24px" xml:space="preserve" fill="#444444" text-anchor="middle" pointer-events="none" font-family="Tahoma, Verdana, Helvetica, Arial" font-weight="normal"  style="display: block;"><tspan dy="-0.8999999999999999em" >Mounts admin API</tspan><tspan dy="1.2em" x="0" >routes on the</tspan><tspan dy="1.2em" x="0" >admin server</tspan></text></g><g id="v-998"  label-idx="1" cursor="move" transform="matrix(1,0,0,1,2676.949462890625,985.7999877929688)" style="cursor: default;"><rect joint-selector="rect" id="v-1003" fill="#ffffff" rx="3" ry="3" x="-61.935760498046875" y="-8.848888397216797" width="124.75225067138672" height="16.66666603088379"  pointer-events="none" style="display: block;"></rect><text joint-selector="text" id="v-1002" font-size="16.799999999999997px" xml:space="preserve" fill="#444444" text-anchor="middle" pointer-events="none" font-family="Tahoma, Verdana, Helvetica, Arial" font-weight="normal"  style="display: block;"><tspan dy="0.3em" >[RouterFunction]</tspan></text></g><g id="v-999"  label-idx="2" cursor="move" transform="matrix(1,0,0,1,2677.944580078125,994.2000122070312)" style="cursor: default;"><rect joint-selector="rect" id="v-1005" fill="#ffffff" rx="3" ry="3" x="0" y="0" width="0" height="0"  display="none"></rect><text joint-selector="text" id="v-1004" fill="#000000" font-size="14" text-anchor="middle" text-vertical-anchor="middle" pointer-events="none"></text></g></g></g><!--z-index:32--><g   id="j_76"  style="opacity: 1;"><path fill="none" cursor="pointer" stroke="transparent" stroke-linecap="round" joint-selector="wrapper" id="v-1025" stroke-width="10" stroke-linejoin="round" d="M 2102 613.6 L 2262 615 C 2268.6666666666665 615.0666666666666 2275 614.0666666666666 2281 612 L 2442 555.5"></path><path fill="none" pointer-events="none" joint-selector="line" id="v-1024" stroke="#444444" stroke-width="2" stroke-linejoin="round" stroke-dasharray="8 8" d="M 2102 613.6 L 2262 615 C 2268.6666666666665 615.0666666666666 2275 614.0666666666666 2281 612 L 2442 555.5" marker-end="url(#v-21252848929)"></path><g id="v-1014" ><g id="v-1015"  label-idx="0" cursor="move" transform="matrix(1,0,0,1,2272.083740234375,600.8462524414062)" style="cursor: default;"><rect joint-selector="rect" id="v-1019" fill="#ffffff" rx="3" ry="3" x="-95.22569274902344" y="-72.6222152709961" width="190.99102783203125" height="142.977783203125" pointer-events="none"  style="display: block;"></rect><text joint-selector="text" id="v-1018" font-size="24px" xml:space="preserve" fill="#444444" text-anchor="middle" pointer-events="none" font-family="Tahoma, Verdana, Helvetica, Arial" font-weight="normal"  style="display: block;"><tspan dy="-2.1em" >Delivers the built</tspan><tspan dy="1.2em" x="0" >Object Storage</tspan><tspan dy="1.2em" x="0" >Admin distribution</tspan><tspan dy="1.2em" x="0" >and bundled</tspan><tspan dy="1.2em" x="0" >documentation</tspan></text></g><g id="v-1016"  label-idx="1" cursor="move" transform="matrix(1,0,0,1,2272.083740234375,688.8462524414062)" style="cursor: default;"><rect joint-selector="rect" id="v-1021" fill="#ffffff" rx="3" ry="3" x="-74.95659637451172" y="-8.848888397216797" width="150.7823028564453" height="16.66666603088379"  pointer-events="none" style="display: block;"></rect><text joint-selector="text" id="v-1020" font-size="16.799999999999997px" xml:space="preserve" fill="#444444" text-anchor="middle" pointer-events="none" font-family="Tahoma, Verdana, Helvetica, Arial" font-weight="normal"  style="display: block;"><tspan dy="0.3em" >[HTTP static assets]</tspan></text></g><g id="v-1017"  label-idx="2" cursor="move" transform="matrix(1,0,0,1,2266.83447265625,696.2496948242188)" style="cursor: default;"><rect joint-selector="rect" id="v-1023" fill="#ffffff" rx="3" ry="3" x="0" y="0" width="0" height="0"  display="none"></rect><text joint-selector="text" id="v-1022" fill="#000000" font-size="14" text-anchor="middle" text-vertical-anchor="middle" pointer-events="none"></text></g></g></g><!--z-index:33--><g   id="j_77"  style="opacity: 1;"><path fill="none" cursor="pointer" stroke="transparent" stroke-linecap="round" joint-selector="wrapper" id="v-1043" stroke-width="10" stroke-linejoin="round" d="M 2102 389.4 L 2265 229 C 2269.6666666666665 224 2275.333333333333 221.66666666666666 2282 222 L 3942 222 C 3948.6666666666665 221.66666666666666 3954.6666666666665 223.33333333333331 3960 227 L 4122 331.3"></path><path fill="none" pointer-events="none" joint-selector="line" id="v-1042" stroke="#444444" stroke-width="2" stroke-linejoin="round" stroke-dasharray="8 8" d="M 2102 389.4 L 2265 229 C 2269.6666666666665 224 2275.333333333333 221.66666666666666 2282 222 L 3942 222 C 3948.6666666666665 221.66666666666666 3954.6666666666665 223.33333333333331 3960 227 L 4122 331.3" marker-end="url(#v-21252848929)"></path><g id="v-1032" ><g id="v-1033"  label-idx="0" cursor="move" transform="matrix(1,0,0,1,3113.85205078125,208.60000610351562)" style="cursor: default;"><rect joint-selector="rect" id="v-1037" fill="#ffffff" rx="3" ry="3" x="-99.21875" y="-72.6222152709961" width="198.98104858398438" height="142.977783203125" pointer-events="none"  style="display: block;"></rect><text joint-selector="text" id="v-1036" font-size="24px" xml:space="preserve" fill="#444444" text-anchor="middle" pointer-events="none" font-family="Tahoma, Verdana, Helvetica, Arial" font-weight="normal"  style="display: block;"><tspan dy="-2.1em" >Selects Storage</tspan><tspan dy="1.2em" x="0" >Engine-backed</tspan><tspan dy="1.2em" x="0" >repositories for the</tspan><tspan dy="1.2em" x="0" >storage-engine</tspan><tspan dy="1.2em" x="0" >profile</tspan></text></g><g id="v-1034"  label-idx="1" cursor="move" transform="matrix(1,0,0,1,3113.85205078125,296.6000061035156)" style="cursor: default;"><rect joint-selector="rect" id="v-1039" fill="#ffffff" rx="3" ry="3" x="-97.78645324707031" y="-8.848888397216797" width="196.45350646972656" height="16.66666603088379"  pointer-events="none" style="display: block;"></rect><text joint-selector="text" id="v-1038" font-size="16.799999999999997px" xml:space="preserve" fill="#444444" text-anchor="middle" pointer-events="none" font-family="Tahoma, Verdana, Helvetica, Arial" font-weight="normal"  style="display: block;"><tspan dy="0.3em" >[Spring profiles/properties]</tspan></text></g><g id="v-1035"  label-idx="2" cursor="move" transform="matrix(1,0,0,1,3083.994384765625,305)" style="cursor: default;"><rect joint-selector="rect" id="v-1041" fill="#ffffff" rx="3" ry="3" x="-4.547473508864641e-13" y="0" width="0" height="0"  display="none"></rect><text joint-selector="text" id="v-1040" fill="#000000" font-size="14" text-anchor="middle" text-vertical-anchor="middle" pointer-events="none"></text></g></g></g><!--z-index:34--><g   id="j_78"  style="opacity: 1;"><path fill="none" cursor="pointer" stroke="transparent" stroke-linecap="round" joint-selector="wrapper" id="v-1058" stroke-width="10" stroke-linejoin="round" d="M 3732 704.63 L 3942 707 C 3948.6666666666665 706.7333333333333 3955 705.0666666666666 3961 702 L 4122 607.62"></path><path fill="none" pointer-events="none" joint-selector="line" id="v-1057" stroke="#444444" stroke-width="2" stroke-linejoin="round" stroke-dasharray="8 8" d="M 3732 704.63 L 3942 707 C 3948.6666666666665 706.7333333333333 3955 705.0666666666666 3961 702 L 4122 607.62" marker-end="url(#v-21252848929)"></path><g id="v-1047" ><g id="v-1048"  label-idx="0" cursor="move" transform="matrix(1,0,0,1,3952.15771484375,692.0406494140625)" style="cursor: default;"><rect joint-selector="rect" id="v-1052" fill="#ffffff" rx="3" ry="3" x="-91.23263549804688" y="-58.22222137451172" width="183.0010223388672" height="114.17778015136719" pointer-events="none"  style="display: block;"></rect><text joint-selector="text" id="v-1051" font-size="24px" xml:space="preserve" fill="#444444" text-anchor="middle" pointer-events="none" font-family="Tahoma, Verdana, Helvetica, Arial" font-weight="normal"  style="display: block;"><tspan dy="-1.4999999999999998em" >Uses storage</tspan><tspan dy="1.2em" x="0" >policy value</tspan><tspan dy="1.2em" x="0" >objects for admin</tspan><tspan dy="1.2em" x="0" >request mapping</tspan></text></g><g id="v-1049"  label-idx="1" cursor="move" transform="matrix(1,0,0,1,3952.15771484375,765.640625)" style="cursor: default;"><rect joint-selector="rect" id="v-1054" fill="#ffffff" rx="3" ry="3" x="-41.449649810791016" y="-8.848888397216797" width="83.76841735839844" height="16.66666603088379"  pointer-events="none" style="display: block;"></rect><text joint-selector="text" id="v-1053" font-size="16.799999999999997px" xml:space="preserve" fill="#444444" text-anchor="middle" pointer-events="none" font-family="Tahoma, Verdana, Helvetica, Arial" font-weight="normal"  style="display: block;"><tspan dy="0.3em" >[Java calls]</tspan></text></g><g id="v-1050"  label-idx="2" cursor="move" transform="matrix(1,0,0,1,3930.206298828125,775.5797729492188)" style="cursor: default;"><rect joint-selector="rect" id="v-1056" fill="#ffffff" rx="3" ry="3" x="0" y="0" width="0" height="0"  display="none"></rect><text joint-selector="text" id="v-1055" fill="#000000" font-size="14" text-anchor="middle" text-vertical-anchor="middle" pointer-events="none"></text></g></g></g><!--z-index:35--><!--z-index:36--><!--z-index:37--><!--z-index:38--><!--z-index:39--><!--z-index:40--><!--z-index:41--><!--z-index:42--><!--z-index:43--><!--z-index:44--><!--z-index:45--><!--z-index:46--><!--z-index:47--><!--z-index:48--><!--z-index:49--><!--z-index:50--><!--z-index:51--><!--z-index:52--><!--z-index:53--><!--z-index:54--><!--z-index:55--><!--z-index:56--><!--z-index:57--><!--z-index:58--><!--z-index:59--><!--z-index:60--><!--z-index:61--><!--z-index:62--><!--z-index:63--><!--z-index:64--><!--z-index:65--><!--z-index:66--><!--z-index:67--><!--z-index:68--><!--z-index:69--><!--z-index:70--><!--z-index:71--><!--z-index:72--><!--z-index:73--><!--z-index:74--><!--z-index:75--><!--z-index:76--><!--z-index:77--><!--z-index:78--><!--z-index:79--><!--z-index:80--><!--z-index:81--><!--z-index:82--><!--z-index:83--><!--z-index:84--><!--z-index:85--><!--z-index:86--><!--z-index:87--></g><g  style="user-select: none;"></g><g ></g><g  display="none"></g></g></svg>