<svg xmlns="http://www.w3.org/2000/svg" xmlns:xlink="http://www.w3.org/1999/xlink" version="1.1" width="5256" height="1444" style="width: 5256px; height: 1444px; background: #ffffff" viewBox="0 0 5256 1444"><style id="v-3" type="text/css">        .joint-element .scalable * {            vector-effect: non-scaling-stroke;        }    </style><defs joint-selector="defs"><marker id="v-21252848929" orient="auto" overflow="visible" markerUnits="userSpaceOnUse"><path id="v-65" stroke="#444444" fill="#444444" transform="rotate(180)" d="M 20 -10 0 0 20 10 Z"></path></marker></defs><g joint-selector="layers"  transform="matrix(1,0,0,1,0,0)"><g  style="pointer-events: none;"></g><g ></g><g  style="user-select: none;"><!--z-index:0--><!--z-index:1--><!--z-index:2--><!--z-index:3--><!--z-index:4--><!--z-index:5--><!--z-index:6--><!--z-index:7--><!--z-index:8--><!--z-index:9--><!--z-index:10--><!--z-index:11--><!--z-index:12--><!--z-index:13--><!--z-index:14--><!--z-index:15--><!--z-index:16--><!--z-index:17--><g   id="j_58"  transform="translate(20,1400)"><g id="v-754"><text  id="v-755" font-size="24px" xml:space="preserve" y="0.8em" font-weight="normal" text-anchor="start" fill="#444444" pointer-events="none" display="block" font-family="Tahoma, Verdana, Helvetica, Arial"><tspan dy="0" >lunedì 13 luglio 2026 alle ore 23:17 Ora legale dell’Europa centrale</tspan></text></g></g><!--z-index:18--><g   id="j_57"  transform="translate(20,1366)"><g id="v-752"><text  id="v-753" font-size="24px" xml:space="preserve" y="0.8em" font-weight="normal" text-anchor="start" fill="#444444" pointer-events="none" display="block" font-family="Tahoma, Verdana, Helvetica, Arial"><tspan dy="0" >JSON Admin Control Plane routes consumed by the browser application and mounted by the bootstrap admin server. Catalog and capacity behavior is backed by configured ports; operational reports return provider-not-configured when no matching provider is configured. Frontend and generated documentation assets are handed off to bootstrap-application static resources.</tspan></text></g></g><!--z-index:19--><g   id="j_56"  transform="translate(20,1320)"><g id="v-750"><text  id="v-751" font-size="36px" xml:space="preserve" y="0.8em" font-weight="normal" text-anchor="start" fill="#444444" pointer-events="none" display="block" font-family="Tahoma, Verdana, Helvetica, Arial"><tspan dy="0" >C3 Component: admin-api-adapter</tspan></text></g></g><!--z-index:20--><g   id="j_59"  transform="translate(748,396)" style=""><g  id="v-759" style="opacity: 1;"><rect  x="0" y="160" width="400" height="240" rx="70" id="v-761" stroke-width="2" pointer-events="visiblePainted" fill="#ffffff" stroke="#e6e6e6" stroke-dasharray="" style="fill: rgb(255, 255, 255); stroke: rgb(230, 230, 230);"></rect><circle  cx="200" cy="88.88888888888889" r="88.88888888888889" id="v-760" stroke-width="2" pointer-events="visiblePainted" fill="#ffffff" stroke="#e6e6e6" stroke-dasharray="" style="fill: rgb(255, 255, 255); stroke: rgb(230, 230, 230);"></circle><line  x1="80" y1="266.6666666666667" x2="80" y2="400" id="v-767" stroke="#e6e6e6" stroke-width="1" stroke-dasharray="" style="stroke: rgb(230, 230, 230);"></line><line  x1="320" y1="266.6666666666667" x2="320" y2="400" id="v-768" stroke="#e6e6e6" stroke-width="1" stroke-dasharray="" style="stroke: rgb(230, 230, 230);"></line><text  id="v-762" font-size="33.599999999999994px" xml:space="preserve" y="188.10000000000002" font-weight="bold" text-anchor="middle" pointer-events="visible" font-family="Tahoma, Verdana, Helvetica, Arial" fill="#444444" dominant-baseline="hanging" transform="matrix(1,0,0,1,200,0)" style="fill: rgb(68, 68, 68);"><tspan dy="0" >Administrator</tspan></text><text  id="v-763" font-size="16.799999999999997px" xml:space="preserve" y="229.70000000000002" text-anchor="middle" font-family="Tahoma, Verdana, Helvetica, Arial" fill="#444444" dominant-baseline="hanging" transform="matrix(1,0,0,1,200,0)" style="display: block; fill: rgb(68, 68, 68);"><tspan dy="0" >[Person]</tspan></text><text  id="v-764" font-size="24px" xml:space="preserve" y="261.5" text-anchor="middle" font-family="Tahoma, Verdana, Helvetica, Arial" fill="#444444" dominant-baseline="hanging" transform="matrix(1,0,0,1,200,0)" style="display: block; fill: rgb(68, 68, 68);"><tspan dy="0" >Operator using the bundled</tspan><tspan dy="1.2em" x="0" >Magrathea admin UI, generated</tspan><tspan dy="1.2em" x="0" >documentation, and JSON</tspan><tspan dy="1.2em" x="0" >management API.</tspan></text><g  id="v-765" font-weight="normal" text-anchor="middle" color="#444444" transform="matrix(1,0,0,1,197.5,368)" display="none" style="fill: rgb(68, 68, 68);"><g ></g><g ></g><g ></g><g ></g></g><image  id="v-766"></image></g></g><!--z-index:21--><g   id="j_61"  transform="translate(1488,197)" style="; opacity: 1;"><g id="v-785"><rect  id="v-786" width="3020" height="996" rx="20" ry="20" stroke-width="2" pointer-events="none" stroke="#0f5eaa" fill="#ffffff" opacity="1" stroke-dasharray=""></rect><text  id="v-787" font-size="33.599999999999994px" xml:space="preserve" y="957" font-weight="bold" text-anchor="start" pointer-events="visible" font-family="Tahoma, Verdana, Helvetica, Arial" fill="#1168bd" transform="matrix(1,0,0,1,15,0)"><tspan dy="0" >Magrathea ObjectStore</tspan></text><text  id="v-788" font-size="16.799999999999997px" xml:space="preserve" y="981" font-weight="normal" text-anchor="start" pointer-events="visible" font-family="Tahoma, Verdana, Helvetica, Arial" fill="#1168bd" transform="matrix(1,0,0,1,15,0)"><tspan dy="0" >[Software System]</tspan></text><image  id="v-789" pointer-events="visible"></image></g></g><!--z-index:22--><g   id="j_60"  transform="translate(1538,422)" style=""><g  id="v-778" style="opacity: 1;"><rect  id="v-779" rx="20" ry="20" stroke-width="2" pointer-events="visiblePainted" fill="#438dd5" stroke="#3c7fc0" stroke-dasharray="" width="450" height="300" style="fill: rgb(67, 141, 213); stroke: rgb(60, 127, 192);"></rect><text  id="v-780" font-size="33.599999999999994px" xml:space="preserve" y="-95.97999999999999" font-weight="bold" text-anchor="middle" pointer-events="visible" font-family="Tahoma, Verdana, Helvetica, Arial" fill="#ffffff" dominant-baseline="hanging" transform="matrix(1,0,0,1,225,0)" style="fill: rgb(255, 255, 255);"><tspan dy="0" >bootstrap-application</tspan></text><text  id="v-781" font-size="16.799999999999997px" xml:space="preserve" y="-54.379999999999995" text-anchor="middle" font-family="Tahoma, Verdana, Helvetica, Arial" fill="#ffffff" dominant-baseline="hanging" transform="matrix(1,0,0,1,225,0)" style="display: block; fill: rgb(255, 255, 255);"><tspan dy="0" >[Container: Spring Boot 4 WebFlux, Reactor Netty,</tspan><tspan dy="1.2em" x="0" >Maven resources/exec/antrun, Node.js/Vite]</tspan></text><text  id="v-782" font-size="24px" xml:space="preserve" y="-2.4200000000000017" text-anchor="middle" font-family="Tahoma, Verdana, Helvetica, Arial" fill="#ffffff" dominant-baseline="hanging" transform="matrix(1,0,0,1,225,0)" style="display: block; fill: rgb(255, 255, 255);"><tspan dy="0" >Executable Spring Boot</tspan><tspan dy="1.2em" x="0" >application/fat JAR that composes</tspan><tspan dy="1.2em" x="0" >the S3 API, admin API, object-store</tspan><tspan dy="1.2em" x="0" >capabilities, and selectable</tspan><tspan dy="1.2em" x="0" >persistence backends. It owns the</tspan><tspan dy="1.2em" x="0" >static asset handoff: during</tspan><tspan dy="1.2em" x="0" >generate-resources it builds/copies</tspan><tspan dy="1.2em" x="0" >magrathea-ui dist assets plus</tspan><tspan dy="1.2em" x="0" >generated docs/reports/C4 and</tspan><tspan dy="1.2em" x="0" >arc42 images into</tspan><tspan dy="1.2em" x="0" >bootstrap-application classpath</tspan><tspan dy="1.2em" x="0" >static resources, while</tspan><tspan dy="1.2em" x="0" >admin-api-adapter supplies only</tspan><tspan dy="1.2em" x="0" >admin API routes.</tspan></text><g  id="v-783" color="#ffffff" transform="matrix(1,0,0,1,210,268)" display="none" style="fill: rgb(255, 255, 255);"><g  transform="translate(5 0)"><svg xmlns="http://www.w3.org/2000/svg" width="20" height="20" fill="currentColor" viewBox="0 0 16 16"><path fill-rule="evenodd" d="M6.5 12a5.5 5.5 0 1 0 0-11 5.5 5.5 0 0 0 0 11zM13 6.5a6.5 6.5 0 1 1-13 0 6.5 6.5 0 0 1 13 0z"></path><path d="M10.344 11.742c.03.04.062.078.098.115l3.85 3.85a1 1 0 0 0 1.415-1.414l-3.85-3.85a1.007 1.007 0 0 0-.115-.1 6.538 6.538 0 0 1-1.398 1.4z"></path><path fill-rule="evenodd" d="M6.5 3a.5.5 0 0 1 .5.5V6h2.5a.5.5 0 0 1 0 1H7v2.5a.5.5 0 0 1-1 0V7H3.5a.5.5 0 0 1 0-1H6V3.5a.5.5 0 0 1 .5-.5z"></path></svg></g><g ></g><g ></g><g ></g></g><image  id="v-784"></image></g></g><!--z-index:23--><g   id="j_62"  transform="translate(2328,764)" style=""><g  id="v-799" style="opacity: 1;"><rect  id="v-800" rx="20" ry="20" stroke-width="2" pointer-events="visiblePainted" fill="#438dd5" stroke="#3c7fc0" stroke-dasharray="" width="450" height="300" style="fill: rgb(67, 141, 213); stroke: rgb(60, 127, 192);"></rect><text  id="v-801" font-size="33.599999999999994px" xml:space="preserve" y="-87.33999999999997" font-weight="bold" text-anchor="middle" pointer-events="visible" font-family="Tahoma, Verdana, Helvetica, Arial" fill="#ffffff" dominant-baseline="hanging" transform="matrix(1,0,0,1,225,0)" style="fill: rgb(255, 255, 255);"><tspan dy="0" >Object Storage Admin</tspan><tspan dy="1.2em" x="0" >Browser Application</tspan></text><text  id="v-802" font-size="16.799999999999997px" xml:space="preserve" y="-5.4199999999999875" text-anchor="middle" font-family="Tahoma, Verdana, Helvetica, Arial" fill="#ffffff" dominant-baseline="hanging" transform="matrix(1,0,0,1,225,0)" style="display: block; fill: rgb(255, 255, 255);"><tspan dy="0" >[Container: Vue 3, TypeScript, JavaScript, Vue</tspan><tspan dy="1.2em" x="0" >Router, Vite]</tspan></text><text  id="v-803" font-size="24px" xml:space="preserve" y="46.54000000000002" text-anchor="middle" font-family="Tahoma, Verdana, Helvetica, Arial" fill="#ffffff" dominant-baseline="hanging" transform="matrix(1,0,0,1,225,0)" style="display: block; fill: rgb(255, 255, 255);"><tspan dy="0" >Browser runtime for the</tspan><tspan dy="1.2em" x="0" >independently built Object Storage</tspan><tspan dy="1.2em" x="0" >product composition. The deployed</tspan><tspan dy="1.2em" x="0" >static distribution composes the</tspan><tspan dy="1.2em" x="0" >product-neutral Product Shell with</tspan><tspan dy="1.2em" x="0" >the Object Storage Product</tspan><tspan dy="1.2em" x="0" >Extension and application-owned</tspan><tspan dy="1.2em" x="0" >browser adapters. It calls the Admin</tspan><tspan dy="1.2em" x="0" >Control Plane and, only when a</tspan><tspan dy="1.2em" x="0" >separate endpoint and in-memory</tspan><tspan dy="1.2em" x="0" >signer are configured, the S3 Data</tspan><tspan dy="1.2em" x="0" >Plane for HeadObject diagnostics.</tspan></text><g  id="v-804" color="#ffffff" transform="matrix(1,0,0,1,210,268)" display="none" style="fill: rgb(255, 255, 255);"><g  transform="translate(5 0)"><svg xmlns="http://www.w3.org/2000/svg" width="20" height="20" fill="currentColor" viewBox="0 0 16 16"><path fill-rule="evenodd" d="M6.5 12a5.5 5.5 0 1 0 0-11 5.5 5.5 0 0 0 0 11zM13 6.5a6.5 6.5 0 1 1-13 0 6.5 6.5 0 0 1 13 0z"></path><path d="M10.344 11.742c.03.04.062.078.098.115l3.85 3.85a1 1 0 0 0 1.415-1.414l-3.85-3.85a1.007 1.007 0 0 0-.115-.1 6.538 6.538 0 0 1-1.398 1.4z"></path><path fill-rule="evenodd" d="M6.5 3a.5.5 0 0 1 .5.5V6h2.5a.5.5 0 0 1 0 1H7v2.5a.5.5 0 0 1-1 0V7H3.5a.5.5 0 0 1 0-1H6V3.5a.5.5 0 0 1 .5-.5z"></path></svg></g><g ></g><g ></g><g ></g></g><image  id="v-805"></image></g></g><!--z-index:24--><g   id="j_64"  transform="translate(3118,372)" style="; opacity: 1;"><g id="v-819"><rect  id="v-820" width="550" height="479" rx="20" ry="20" stroke-width="2" pointer-events="none" stroke="#3c7fc0" fill="#ffffff" opacity="1" stroke-dasharray=""></rect><text  id="v-821" font-size="33.599999999999994px" xml:space="preserve" y="440" font-weight="bold" text-anchor="start" pointer-events="visible" font-family="Tahoma, Verdana, Helvetica, Arial" fill="#438dd5" transform="matrix(1,0,0,1,15,0)"><tspan dy="0" >admin-api-adapter</tspan></text><text  id="v-822" font-size="16.799999999999997px" xml:space="preserve" y="464" font-weight="normal" text-anchor="start" pointer-events="visible" font-family="Tahoma, Verdana, Helvetica, Arial" fill="#438dd5" transform="matrix(1,0,0,1,15,0)"><tspan dy="0" >[Container]</tspan></text><image  id="v-823" pointer-events="visible"></image></g></g><!--z-index:25--><g   id="j_65"  transform="translate(4008,247)" style=""><g  id="v-830" style="opacity: 1;"><rect  id="v-831" rx="20" ry="20" stroke-width="2" pointer-events="visiblePainted" fill="#438dd5" stroke="#3c7fc0" stroke-dasharray="" width="450" height="300" style="fill: rgb(67, 141, 213); stroke: rgb(60, 127, 192);"></rect><text  id="v-832" font-size="33.599999999999994px" xml:space="preserve" y="-57.099999999999966" font-weight="bold" text-anchor="middle" pointer-events="visible" font-family="Tahoma, Verdana, Helvetica, Arial" fill="#ffffff" dominant-baseline="hanging" transform="matrix(1,0,0,1,225,0)" style="fill: rgb(255, 255, 255);"><tspan dy="0" >storage-engine</tspan></text><text  id="v-833" font-size="16.799999999999997px" xml:space="preserve" y="-15.499999999999972" text-anchor="middle" font-family="Tahoma, Verdana, Helvetica, Arial" fill="#ffffff" dominant-baseline="hanging" transform="matrix(1,0,0,1,225,0)" style="display: block; fill: rgb(255, 255, 255);"><tspan dy="0" >[Container: Java 21, domain-driven]</tspan></text><text  id="v-834" font-size="24px" xml:space="preserve" y="16.300000000000026" text-anchor="middle" font-family="Tahoma, Verdana, Helvetica, Arial" fill="#ffffff" dominant-baseline="hanging" transform="matrix(1,0,0,1,225,0)" style="display: block; fill: rgb(255, 255, 255);"><tspan dy="0" >Storage Engine bounded context:</tspan><tspan dy="1.2em" x="0" >persistence pipeline, virtual devices,</tspan><tspan dy="1.2em" x="0" >storage policies, optional</tspan><tspan dy="1.2em" x="0" >deduplication, erasure coding,</tspan><tspan dy="1.2em" x="0" >content-addressed storage, and</tspan><tspan dy="1.2em" x="0" >manifest management.</tspan><tspan dy="1.2em" x="0" >MINIO_STANDARD is modeled as</tspan><tspan dy="1.2em" x="0" >STANDARD with dedup disabled,</tspan><tspan dy="1.2em" x="0" >EC enabled (4 data / 2 parity),</tspan><tspan dy="1.2em" x="0" >replication factor 1, compression</tspan><tspan dy="1.2em" x="0" >disabled, and encryption disabled by</tspan><tspan dy="1.2em" x="0" >default.</tspan></text><g  id="v-835" color="#ffffff" transform="matrix(1,0,0,1,210,268)" display="none" style="fill: rgb(255, 255, 255);"><g  transform="translate(5 0)"><svg xmlns="http://www.w3.org/2000/svg" width="20" height="20" fill="currentColor" viewBox="0 0 16 16"><path fill-rule="evenodd" d="M6.5 12a5.5 5.5 0 1 0 0-11 5.5 5.5 0 0 0 0 11zM13 6.5a6.5 6.5 0 1 1-13 0 6.5 6.5 0 0 1 13 0z"></path><path d="M10.344 11.742c.03.04.062.078.098.115l3.85 3.85a1 1 0 0 0 1.415-1.414l-3.85-3.85a1.007 1.007 0 0 0-.115-.1 6.538 6.538 0 0 1-1.398 1.4z"></path><path fill-rule="evenodd" d="M6.5 3a.5.5 0 0 1 .5.5V6h2.5a.5.5 0 0 1 0 1H7v2.5a.5.5 0 0 1-1 0V7H3.5a.5.5 0 0 1 0-1H6V3.5a.5.5 0 0 1 .5-.5z"></path></svg></g><g ></g><g ></g><g ></g></g><image  id="v-836"></image></g></g><!--z-index:26--><g   id="j_63"  transform="translate(3168,422)" style=""><g  id="v-812" style="opacity: 1;"><rect  id="v-813" rx="20" ry="20" stroke-width="2" pointer-events="visiblePainted" fill="#85bbf0" stroke="#78a8d8" stroke-dasharray="" width="450" height="300" style="fill: rgb(133, 187, 240); stroke: rgb(120, 168, 216);"></rect><text  id="v-814" font-size="33.599999999999994px" xml:space="preserve" y="-23.97999999999999" font-weight="bold" text-anchor="middle" pointer-events="visible" font-family="Tahoma, Verdana, Helvetica, Arial" fill="#000000" dominant-baseline="hanging" transform="matrix(1,0,0,1,225,0)" style="fill: rgb(0, 0, 0);"><tspan dy="0" >AdminRouter</tspan></text><text  id="v-815" font-size="16.799999999999997px" xml:space="preserve" y="17.620000000000005" text-anchor="middle" font-family="Tahoma, Verdana, Helvetica, Arial" fill="#000000" dominant-baseline="hanging" transform="matrix(1,0,0,1,225,0)" style="display: block; fill: rgb(0, 0, 0);"><tspan dy="0" >[Component: Spring @Configuration,</tspan><tspan dy="1.2em" x="0" >RouterFunction]</tspan></text><text  id="v-816" font-size="24px" xml:space="preserve" y="69.58" text-anchor="middle" font-family="Tahoma, Verdana, Helvetica, Arial" fill="#000000" dominant-baseline="hanging" transform="matrix(1,0,0,1,225,0)" style="display: block; fill: rgb(0, 0, 0);"><tspan dy="0" >Defines the /admin JSON route</tspan><tspan dy="1.2em" x="0" >families. Catalog and capacity</tspan><tspan dy="1.2em" x="0" >routes use configured</tspan><tspan dy="1.2em" x="0" >storage-engine ports; backend</tspan><tspan dy="1.2em" x="0" >status uses its configured provider;</tspan><tspan dy="1.2em" x="0" >operational report routes return</tspan><tspan dy="1.2em" x="0" >explicit provider-not-configured</tspan><tspan dy="1.2em" x="0" >responses when no matching real</tspan><tspan dy="1.2em" x="0" >provider exists.</tspan></text><g  id="v-817" color="#000000" transform="matrix(1,0,0,1,222.5,268)" display="none" style="fill: rgb(0, 0, 0);"><g ></g><g ></g><g ></g><g ></g></g><image  id="v-818"></image></g></g><!--z-index:27--><g   id="j_66"  style="opacity: 1;"><path fill="none" cursor="pointer" stroke="transparent" stroke-linecap="round" joint-selector="wrapper" id="v-851" stroke-width="10" stroke-linejoin="round" d="M 1148 583.43 L 1308 573 C 1314.6666666666665 572.8333333333333 1321.3333333333333 572.8333333333333 1328 573 L 1538 570.71"></path><path fill="none" pointer-events="none" joint-selector="line" id="v-850" stroke="#444444" stroke-width="2" stroke-linejoin="round" stroke-dasharray="8 8" d="M 1148 583.43 L 1308 573 C 1314.6666666666665 572.8333333333333 1321.3333333333333 572.8333333333333 1328 573 L 1538 570.71" marker-end="url(#v-21252848929)"></path><g id="v-840" ><g id="v-841"  label-idx="0" cursor="move" transform="matrix(1,0,0,1,1318,559.4749755859375)" style="cursor: default;"><rect joint-selector="rect" id="v-845" fill="#ffffff" rx="3" ry="3" x="-95.24739074707031" y="-72.6222152709961" width="191.03782653808594" height="142.977783203125" pointer-events="none"  style="display: block;"></rect><text joint-selector="text" id="v-844" font-size="24px" xml:space="preserve" fill="#444444" text-anchor="middle" pointer-events="none" font-family="Tahoma, Verdana, Helvetica, Arial" font-weight="normal"  style="display: block;"><tspan dy="-2.1em" >Loads bundled</tspan><tspan dy="1.2em" x="0" >admin UI and</tspan><tspan dy="1.2em" x="0" >generated</tspan><tspan dy="1.2em" x="0" >documentation on</tspan><tspan dy="1.2em" x="0" >the admin port</tspan></text></g><g id="v-842"  label-idx="1" cursor="move" transform="matrix(1,0,0,1,1318,647.4749755859375)" style="cursor: default;"><rect joint-selector="rect" id="v-847" fill="#ffffff" rx="3" ry="3" x="-26.54079818725586" y="-8.848888397216797" width="53.950836181640625" height="16.66666603088379"  pointer-events="none" style="display: block;"></rect><text joint-selector="text" id="v-846" font-size="16.799999999999997px" xml:space="preserve" fill="#444444" text-anchor="middle" pointer-events="none" font-family="Tahoma, Verdana, Helvetica, Arial" font-weight="normal"  style="display: block;"><tspan dy="0.3em" >[HTTP]</tspan></text></g><g id="v-843"  label-idx="2" cursor="move" transform="matrix(1,0,0,1,1332.8345947265625,655.8382568359375)" style="cursor: default;"><rect joint-selector="rect" id="v-849" fill="#ffffff" rx="3" ry="3" x="0" y="0" width="0" height="0"  display="none"></rect><text joint-selector="text" id="v-848" fill="#000000" font-size="14" text-anchor="middle" text-vertical-anchor="middle" pointer-events="none"></text></g></g></g><!--z-index:28--><g   id="j_67"  style="opacity: 1;"><path fill="none" cursor="pointer" stroke="transparent" stroke-linecap="round" joint-selector="wrapper" id="v-869" stroke-width="10" stroke-linejoin="round" d="M 1148 728.62 L 1310 836 C 1315.3333333333333 839.5666666666665 1321.3333333333333 841.2333333333331 1328 841 L 2148 841 C 2154.6666666666665 841.2333333333331 2161.333333333333 841.8999999999999 2168 843 L 2328 871.16"></path><path fill="none" pointer-events="none" joint-selector="line" id="v-868" stroke="#444444" stroke-width="2" stroke-linejoin="round" stroke-dasharray="8 8" d="M 1148 728.62 L 1310 836 C 1315.3333333333333 839.5666666666665 1321.3333333333333 841.2333333333331 1328 841 L 2148 841 C 2154.6666666666665 841.2333333333331 2161.333333333333 841.8999999999999 2168 843 L 2328 871.16" marker-end="url(#v-21252848929)"></path><g id="v-858" ><g id="v-859"  label-idx="0" cursor="move" transform="matrix(1,0,0,1,1763.059326171875,827.5999755859375)" style="cursor: default;"><rect joint-selector="rect" id="v-863" fill="#ffffff" rx="3" ry="3" x="-85.24304962158203" y="-58.22222137451172" width="172.12269592285156" height="114.17778015136719" pointer-events="none"  style="display: block;"></rect><text joint-selector="text" id="v-862" font-size="24px" xml:space="preserve" fill="#444444" text-anchor="middle" pointer-events="none" font-family="Tahoma, Verdana, Helvetica, Arial" font-weight="normal"  style="display: block;"><tspan dy="-1.4999999999999998em" >Uses the Object</tspan><tspan dy="1.2em" x="0" >Storage</tspan><tspan dy="1.2em" x="0" >administration</tspan><tspan dy="1.2em" x="0" >experience</tspan></text></g><g id="v-860"  label-idx="1" cursor="move" transform="matrix(1,0,0,1,1763.059326171875,901.2000122070312)" style="cursor: default;"><rect joint-selector="rect" id="v-865" fill="#ffffff" rx="3" ry="3" x="-76.3671875" y="-8.848888397216797" width="153.6045379638672" height="16.66666603088379"  pointer-events="none" style="display: block;"></rect><text joint-selector="text" id="v-864" font-size="16.799999999999997px" xml:space="preserve" fill="#444444" text-anchor="middle" pointer-events="none" font-family="Tahoma, Verdana, Helvetica, Arial" font-weight="normal"  style="display: block;"><tspan dy="0.3em" >[Browser interaction]</tspan></text></g><g id="v-861"  label-idx="2" cursor="move" transform="matrix(1,0,0,1,1712.6097412109375,909.5999755859375)" style="cursor: default;"><rect joint-selector="rect" id="v-867" fill="#ffffff" rx="3" ry="3" x="0" y="0" width="0" height="0"  display="none"></rect><text joint-selector="text" id="v-866" fill="#000000" font-size="14" text-anchor="middle" text-vertical-anchor="middle" pointer-events="none"></text></g></g></g><!--z-index:29--><g   id="j_68"  style="opacity: 1;"><path fill="none" cursor="pointer" stroke="transparent" stroke-linecap="round" joint-selector="wrapper" id="v-884" stroke-width="10" stroke-linejoin="round" d="M 1148 475.32 L 1309 378 C 1315 374.5 1321.3333333333333 372.8333333333333 1328 373 L 3108 373 C 3114.6666666666665 372.8333333333333 3120.6666666666665 374.8333333333333 3126 379 L 3168 408.36"></path><path fill="none" pointer-events="none" joint-selector="line" id="v-883" stroke="#444444" stroke-width="2" stroke-linejoin="round" stroke-dasharray="8 8" d="M 1148 475.32 L 1309 378 C 1315 374.5 1321.3333333333333 372.8333333333333 1328 373 L 3108 373 C 3114.6666666666665 372.8333333333333 3120.6666666666665 374.8333333333333 3126 379 L 3168 408.36" marker-end="url(#v-21252848929)"></path><g id="v-873" ><g id="v-874"  label-idx="0" cursor="move" transform="matrix(1,0,0,1,2146.15673828125,359.6000061035156)" style="cursor: default;"><rect joint-selector="rect" id="v-878" fill="#ffffff" rx="3" ry="3" x="-69.921875" y="-43.82221984863281" width="141.51966857910156" height="85.37777709960938" pointer-events="none"  style="display: block;"></rect><text joint-selector="text" id="v-877" font-size="24px" xml:space="preserve" fill="#444444" text-anchor="middle" pointer-events="none" font-family="Tahoma, Verdana, Helvetica, Arial" font-weight="normal"  style="display: block;"><tspan dy="-0.8999999999999999em" >Calls admin</tspan><tspan dy="1.2em" x="0" >management</tspan><tspan dy="1.2em" x="0" >endpoints</tspan></text></g><g id="v-875"  label-idx="1" cursor="move" transform="matrix(1,0,0,1,2146.15673828125,418.79998779296875)" style="cursor: default;"><rect joint-selector="rect" id="v-880" fill="#ffffff" rx="3" ry="3" x="-51.193572998046875" y="-8.848888397216797" width="103.286865234375" height="16.66666603088379"  pointer-events="none" style="display: block;"></rect><text joint-selector="text" id="v-879" font-size="16.799999999999997px" xml:space="preserve" fill="#444444" text-anchor="middle" pointer-events="none" font-family="Tahoma, Verdana, Helvetica, Arial" font-weight="normal"  style="display: block;"><tspan dy="0.3em" >[HTTP/JSON]</tspan></text></g><g id="v-876"  label-idx="2" cursor="move" transform="matrix(1,0,0,1,2139.289794921875,427.20001220703125)" style="cursor: default;"><rect joint-selector="rect" id="v-882" fill="#ffffff" rx="3" ry="3" x="-4.547473508864641e-13" y="0" width="0" height="0"  display="none"></rect><text joint-selector="text" id="v-881" fill="#000000" font-size="14" text-anchor="middle" text-vertical-anchor="middle" pointer-events="none"></text></g></g></g><!--z-index:30--><g   id="j_69"  style="opacity: 1;"><path fill="none" cursor="pointer" stroke="transparent" stroke-linecap="round" joint-selector="wrapper" id="v-902" stroke-width="10" stroke-linejoin="round" d="M 1988 568.62 L 3168 568.62"></path><path fill="none" pointer-events="none" joint-selector="line" id="v-901" stroke="#444444" stroke-width="2" stroke-linejoin="round" stroke-dasharray="8 8" d="M 1988 568.62 L 3168 568.62" marker-end="url(#v-21252848929)"></path><g id="v-891" ><g id="v-892"  label-idx="0" cursor="move" transform="matrix(1,0,0,1,2553,555.219970703125)" style="cursor: default;"><rect joint-selector="rect" id="v-896" fill="#ffffff" rx="3" ry="3" x="-97.89495849609375" y="-43.82221984863281" width="195.7899169921875" height="85.37777709960938" pointer-events="none"  style="display: block;"></rect><text joint-selector="text" id="v-895" font-size="24px" xml:space="preserve" fill="#444444" text-anchor="middle" pointer-events="none" font-family="Tahoma, Verdana, Helvetica, Arial" font-weight="normal"  style="display: block;"><tspan dy="-0.8999999999999999em" >Mounts admin API</tspan><tspan dy="1.2em" x="0" >routes on the</tspan><tspan dy="1.2em" x="0" >admin server</tspan></text></g><g id="v-893"  label-idx="1" cursor="move" transform="matrix(1,0,0,1,2553,614.4199829101562)" style="cursor: default;"><rect joint-selector="rect" id="v-898" fill="#ffffff" rx="3" ry="3" x="-61.935760498046875" y="-8.848888397216797" width="124.75225067138672" height="16.66666603088379"  pointer-events="none" style="display: block;"></rect><text joint-selector="text" id="v-897" font-size="16.799999999999997px" xml:space="preserve" fill="#444444" text-anchor="middle" pointer-events="none" font-family="Tahoma, Verdana, Helvetica, Arial" font-weight="normal"  style="display: block;"><tspan dy="0.3em" >[RouterFunction]</tspan></text></g><g id="v-894"  label-idx="2" cursor="move" transform="matrix(1,0,0,1,2568,622.8200073242188)" style="cursor: default;"><rect joint-selector="rect" id="v-900" fill="#ffffff" rx="3" ry="3" x="0" y="0" width="0" height="0"  display="none"></rect><text joint-selector="text" id="v-899" fill="#000000" font-size="14" text-anchor="middle" text-vertical-anchor="middle" pointer-events="none"></text></g></g></g><!--z-index:31--><g   id="j_70"  style="opacity: 1;"><path fill="none" cursor="pointer" stroke="transparent" stroke-linecap="round" joint-selector="wrapper" id="v-920" stroke-width="10" stroke-linejoin="round" d="M 1988 799.73 L 2151 967 C 2155.6666666666665 971.8999999999999 2161.333333333333 973.8999999999999 2168 973 L 2328 946.92"></path><path fill="none" pointer-events="none" joint-selector="line" id="v-919" stroke="#444444" stroke-width="2" stroke-linejoin="round" stroke-dasharray="8 8" d="M 1988 799.73 L 2151 967 C 2155.6666666666665 971.8999999999999 2161.333333333333 973.8999999999999 2168 973 L 2328 946.92" marker-end="url(#v-21252848929)"></path><g id="v-909" ><g id="v-910"  label-idx="0" cursor="move" transform="matrix(1,0,0,1,2193.998046875,955.3623046875)" style="cursor: default;"><rect joint-selector="rect" id="v-914" fill="#ffffff" rx="3" ry="3" x="-95.22569274902344" y="-72.6222152709961" width="190.99102783203125" height="142.977783203125" pointer-events="none"  style="display: block;"></rect><text joint-selector="text" id="v-913" font-size="24px" xml:space="preserve" fill="#444444" text-anchor="middle" pointer-events="none" font-family="Tahoma, Verdana, Helvetica, Arial" font-weight="normal"  style="display: block;"><tspan dy="-2.1em" >Delivers the built</tspan><tspan dy="1.2em" x="0" >Object Storage</tspan><tspan dy="1.2em" x="0" >Admin distribution</tspan><tspan dy="1.2em" x="0" >and bundled</tspan><tspan dy="1.2em" x="0" >documentation</tspan></text></g><g id="v-911"  label-idx="1" cursor="move" transform="matrix(1,0,0,1,2193.998046875,1043.3623046875)" style="cursor: default;"><rect joint-selector="rect" id="v-916" fill="#ffffff" rx="3" ry="3" x="-74.95659637451172" y="-8.848888397216797" width="150.7823028564453" height="16.66666603088379"  pointer-events="none" style="display: block;"></rect><text joint-selector="text" id="v-915" font-size="16.799999999999997px" xml:space="preserve" fill="#444444" text-anchor="middle" pointer-events="none" font-family="Tahoma, Verdana, Helvetica, Arial" font-weight="normal"  style="display: block;"><tspan dy="0.3em" >[HTTP static assets]</tspan></text></g><g id="v-912"  label-idx="2" cursor="move" transform="matrix(1,0,0,1,2122.62255859375,1031.1412353515625)" style="cursor: default;"><rect joint-selector="rect" id="v-918" fill="#ffffff" rx="3" ry="3" x="0" y="0" width="0" height="0"  display="none"></rect><text joint-selector="text" id="v-917" fill="#000000" font-size="14" text-anchor="middle" text-vertical-anchor="middle" pointer-events="none"></text></g></g></g><!--z-index:32--><g   id="j_71"  style="opacity: 1;"><path fill="none" cursor="pointer" stroke="transparent" stroke-linecap="round" joint-selector="wrapper" id="v-938" stroke-width="10" stroke-linejoin="round" d="M 1988 370.89 L 2150 228 C 2155.333333333333 223.66666666666666 2161.333333333333 221.66666666666666 2168 222 L 3828 222 C 3834.6666666666665 221.66666666666666 3841 222.66666666666666 3847 225 L 4008 295.58"></path><path fill="none" pointer-events="none" joint-selector="line" id="v-937" stroke="#444444" stroke-width="2" stroke-linejoin="round" stroke-dasharray="8 8" d="M 1988 370.89 L 2150 228 C 2155.333333333333 223.66666666666666 2161.333333333333 221.66666666666666 2168 222 L 3828 222 C 3834.6666666666665 221.66666666666666 3841 222.66666666666666 3847 225 L 4008 295.58" marker-end="url(#v-21252848929)"></path><g id="v-927" ><g id="v-928"  label-idx="0" cursor="move" transform="matrix(1,0,0,1,2985.91259765625,208.60000610351562)" style="cursor: default;"><rect joint-selector="rect" id="v-932" fill="#ffffff" rx="3" ry="3" x="-99.21875" y="-72.6222152709961" width="198.98104858398438" height="142.977783203125" pointer-events="none"  style="display: block;"></rect><text joint-selector="text" id="v-931" font-size="24px" xml:space="preserve" fill="#444444" text-anchor="middle" pointer-events="none" font-family="Tahoma, Verdana, Helvetica, Arial" font-weight="normal"  style="display: block;"><tspan dy="-2.1em" >Selects Storage</tspan><tspan dy="1.2em" x="0" >Engine-backed</tspan><tspan dy="1.2em" x="0" >repositories for the</tspan><tspan dy="1.2em" x="0" >storage-engine</tspan><tspan dy="1.2em" x="0" >profile</tspan></text></g><g id="v-929"  label-idx="1" cursor="move" transform="matrix(1,0,0,1,2985.91259765625,296.6000061035156)" style="cursor: default;"><rect joint-selector="rect" id="v-934" fill="#ffffff" rx="3" ry="3" x="-97.78645324707031" y="-8.848888397216797" width="196.45350646972656" height="16.66666603088379"  pointer-events="none" style="display: block;"></rect><text joint-selector="text" id="v-933" font-size="16.799999999999997px" xml:space="preserve" fill="#444444" text-anchor="middle" pointer-events="none" font-family="Tahoma, Verdana, Helvetica, Arial" font-weight="normal"  style="display: block;"><tspan dy="0.3em" >[Spring profiles/properties]</tspan></text></g><g id="v-930"  label-idx="2" cursor="move" transform="matrix(1,0,0,1,2967.86474609375,305)" style="cursor: default;"><rect joint-selector="rect" id="v-936" fill="#ffffff" rx="3" ry="3" x="0" y="0" width="0" height="0"  display="none"></rect><text joint-selector="text" id="v-935" fill="#000000" font-size="14" text-anchor="middle" text-vertical-anchor="middle" pointer-events="none"></text></g></g></g><!--z-index:33--><g   id="j_72"  style="opacity: 1;"><path fill="none" cursor="pointer" stroke="transparent" stroke-linecap="round" joint-selector="wrapper" id="v-953" stroke-width="10" stroke-linejoin="round" d="M 3618 570.71 L 3828 573 C 3834.6666666666665 572.8333333333333 3841 571.5 3847 569 L 4008 495.66"></path><path fill="none" pointer-events="none" joint-selector="line" id="v-952" stroke="#444444" stroke-width="2" stroke-linejoin="round" stroke-dasharray="8 8" d="M 3618 570.71 L 3828 573 C 3834.6666666666665 572.8333333333333 3841 571.5 3847 569 L 4008 495.66" marker-end="url(#v-21252848929)"></path><g id="v-942" ><g id="v-943"  label-idx="0" cursor="move" transform="matrix(1,0,0,1,3838.19482421875,558.3793334960938)" style="cursor: default;"><rect joint-selector="rect" id="v-947" fill="#ffffff" rx="3" ry="3" x="-91.23263549804688" y="-58.22222137451172" width="183.0010223388672" height="114.17778015136719" pointer-events="none"  style="display: block;"></rect><text joint-selector="text" id="v-946" font-size="24px" xml:space="preserve" fill="#444444" text-anchor="middle" pointer-events="none" font-family="Tahoma, Verdana, Helvetica, Arial" font-weight="normal"  style="display: block;"><tspan dy="-1.4999999999999998em" >Uses storage</tspan><tspan dy="1.2em" x="0" >policy value</tspan><tspan dy="1.2em" x="0" >objects for admin</tspan><tspan dy="1.2em" x="0" >request mapping</tspan></text></g><g id="v-944"  label-idx="1" cursor="move" transform="matrix(1,0,0,1,3838.19482421875,631.9793090820312)" style="cursor: default;"><rect joint-selector="rect" id="v-949" fill="#ffffff" rx="3" ry="3" x="-41.449649810791016" y="-8.848888397216797" width="83.76841735839844" height="16.66666603088379"  pointer-events="none" style="display: block;"></rect><text joint-selector="text" id="v-948" font-size="16.799999999999997px" xml:space="preserve" fill="#444444" text-anchor="middle" pointer-events="none" font-family="Tahoma, Verdana, Helvetica, Arial" font-weight="normal"  style="display: block;"><tspan dy="0.3em" >[Java calls]</tspan></text></g><g id="v-945"  label-idx="2" cursor="move" transform="matrix(1,0,0,1,3811.216552734375,641.5260009765625)" style="cursor: default;"><rect joint-selector="rect" id="v-951" fill="#ffffff" rx="3" ry="3" x="0" y="0" width="0" height="0"  display="none"></rect><text joint-selector="text" id="v-950" fill="#000000" font-size="14" text-anchor="middle" text-vertical-anchor="middle" pointer-events="none"></text></g></g></g><!--z-index:34--><g   id="j_73"  style="opacity: 1;"><path fill="none" cursor="pointer" stroke="transparent" stroke-linecap="round" joint-selector="wrapper" id="v-968" stroke-width="10" stroke-linejoin="round" d="M 2778 912.2 L 3108 915 C 3114.6666666666665 914.7333333333332 3120 912.0666666666666 3124 907 L 3252.54 745.33"></path><path fill="none" pointer-events="none" joint-selector="line" id="v-967" stroke="#444444" stroke-width="2" stroke-linejoin="round" stroke-dasharray="8 8" d="M 2778 912.2 L 3108 915 C 3114.6666666666665 914.7333333333332 3120 912.0666666666666 3124 907 L 3252.54 745.33" marker-end="url(#v-21252848929)"></path><g id="v-957" ><g id="v-958"  label-idx="0" cursor="move" transform="matrix(1,0,0,1,2938.95556640625,900.1657104492188)" style="cursor: default;"><rect joint-selector="rect" id="v-962" fill="#ffffff" rx="3" ry="3" x="-72.59114074707031" y="-43.82221984863281" width="145.7299041748047" height="85.37777709960938" pointer-events="none"  style="display: block;"></rect><text joint-selector="text" id="v-961" font-size="24px" xml:space="preserve" fill="#444444" text-anchor="middle" pointer-events="none" font-family="Tahoma, Verdana, Helvetica, Arial" font-weight="normal"  style="display: block;"><tspan dy="-0.8999999999999999em" >Calls Admin</tspan><tspan dy="1.2em" x="0" >Control Plane</tspan><tspan dy="1.2em" x="0" >routes</tspan></text></g><g id="v-959"  label-idx="1" cursor="move" transform="matrix(1,0,0,1,2938.95556640625,959.3656616210938)" style="cursor: default;"><rect joint-selector="rect" id="v-964" fill="#ffffff" rx="3" ry="3" x="-51.193572998046875" y="-8.848888397216797" width="103.286865234375" height="16.66666603088379"  pointer-events="none" style="display: block;"></rect><text joint-selector="text" id="v-963" font-size="16.799999999999997px" xml:space="preserve" fill="#444444" text-anchor="middle" pointer-events="none" font-family="Tahoma, Verdana, Helvetica, Arial" font-weight="normal"  style="display: block;"><tspan dy="0.3em" >[HTTP/JSON]</tspan></text></g><g id="v-960"  label-idx="2" cursor="move" transform="matrix(1,0,0,1,3045.516357421875,968.7546997070312)" style="cursor: default;"><rect joint-selector="rect" id="v-966" fill="#ffffff" rx="3" ry="3" x="0" y="0" width="0" height="0"  display="none"></rect><text joint-selector="text" id="v-965" fill="#000000" font-size="14" text-anchor="middle" text-vertical-anchor="middle" pointer-events="none"></text></g></g></g><!--z-index:35--><!--z-index:36--><!--z-index:37--><!--z-index:38--><!--z-index:39--><!--z-index:40--><!--z-index:41--><!--z-index:42--><!--z-index:43--><!--z-index:44--><!--z-index:45--><!--z-index:46--><!--z-index:47--><!--z-index:48--><!--z-index:49--><!--z-index:50--><!--z-index:51--><!--z-index:52--><!--z-index:53--><!--z-index:54--><!--z-index:55--><!--z-index:56--><!--z-index:57--><!--z-index:58--><!--z-index:59--><!--z-index:60--><!--z-index:61--><!--z-index:62--><!--z-index:63--><!--z-index:64--><!--z-index:65--><!--z-index:66--><!--z-index:67--><!--z-index:68--><!--z-index:69--><!--z-index:70--><!--z-index:71--><!--z-index:72--><!--z-index:73--><!--z-index:74--><!--z-index:75--><!--z-index:76--><!--z-index:77--></g><g  style="user-select: none;"></g><g ></g><g  display="none"></g></g></svg>