<svg xmlns="http://www.w3.org/2000/svg" xmlns:xlink="http://www.w3.org/1999/xlink" version="1.1" width="5674" height="2935" style="width: 5674px; height: 2935px; background: #ffffff" viewBox="0 0 5674 2935"><style id="v-3" type="text/css">        .joint-element .scalable * {            vector-effect: non-scaling-stroke;        }    </style><defs joint-selector="defs"><marker id="v-21252848929" orient="auto" overflow="visible" markerUnits="userSpaceOnUse"><path id="v-65" stroke="#444444" fill="#444444" transform="rotate(180)" d="M 20 -10 0 0 20 10 Z"></path></marker><marker id="v-2-1424592063" orient="auto" overflow="visible" markerUnits="userSpaceOnUse"><path id="v-2343" stroke="#6b7280" fill="#6b7280" transform="rotate(180)" d="M 20 -10 0 0 20 10 Z"></path></marker></defs><g joint-selector="layers"  transform="matrix(1,0,0,1,0,0)"><g  style="pointer-events: none;"></g><g ></g><g  style="user-select: none;"><!--z-index:0--><!--z-index:1--><!--z-index:2--><!--z-index:3--><!--z-index:4--><!--z-index:5--><!--z-index:6--><!--z-index:7--><!--z-index:8--><!--z-index:9--><!--z-index:10--><!--z-index:11--><!--z-index:12--><!--z-index:13--><!--z-index:14--><!--z-index:15--><!--z-index:16--><!--z-index:17--><!--z-index:18--><!--z-index:19--><!--z-index:20--><g   id="j_459"  transform="translate(20,2891)"><g id="v-6391"><text  id="v-6392" font-size="24px" xml:space="preserve" y="0.8em" font-weight="normal" text-anchor="start" fill="#444444" pointer-events="none" display="block" font-family="Tahoma, Verdana, Helvetica, Arial"><tspan dy="0" >lunedì 13 luglio 2026 alle ore 23:17 Ora legale dell’Europa centrale</tspan></text></g></g><!--z-index:21--><g   id="j_458"  transform="translate(20,2857)"><g id="v-6389"><text  id="v-6390" font-size="24px" xml:space="preserve" y="0.8em" font-weight="normal" text-anchor="start" fill="#444444" pointer-events="none" display="block" font-family="Tahoma, Verdana, Helvetica, Arial"><tspan dy="0" >All three JVMs stop and discard process memory, then restart from their original non-empty roots. Each node recovers its stable UUID, Ratis state, immutable replicas, and committed bucket/object-reference generations. Reordered seeds do not rewrite persisted membership. An exact-byte GET proceeds through B after recovery; rolling upgrades and membership changes are outside this runtime flow.</tspan></text></g></g><!--z-index:22--><g   id="j_457"  transform="translate(20,2811)"><g id="v-6387"><text  id="v-6388" font-size="36px" xml:space="preserve" y="0.8em" font-weight="normal" text-anchor="start" fill="#444444" pointer-events="none" display="block" font-family="Tahoma, Verdana, Helvetica, Arial"><tspan dy="0" >Runtime: Complete A/B/C Restart Recovery</tspan></text></g></g><!--z-index:23--><g   id="j_460"  transform="translate(2662,142)" style=""><g  id="v-6396" style="opacity: 1;"><rect  x="0" y="160" width="400" height="240" rx="70" id="v-6398" stroke-width="2" pointer-events="visiblePainted" fill="#ffffff" stroke="#e6e6e6" stroke-dasharray="" style="fill: rgb(255, 255, 255); stroke: rgb(230, 230, 230);"></rect><circle  cx="200" cy="88.88888888888889" r="88.88888888888889" id="v-6397" stroke-width="2" pointer-events="visiblePainted" fill="#ffffff" stroke="#e6e6e6" stroke-dasharray="" style="fill: rgb(255, 255, 255); stroke: rgb(230, 230, 230);"></circle><line  x1="80" y1="266.6666666666667" x2="80" y2="400" id="v-6404" stroke="#e6e6e6" stroke-width="1" stroke-dasharray="" style="stroke: rgb(230, 230, 230);"></line><line  x1="320" y1="266.6666666666667" x2="320" y2="400" id="v-6405" stroke="#e6e6e6" stroke-width="1" stroke-dasharray="" style="stroke: rgb(230, 230, 230);"></line><text  id="v-6399" font-size="33.599999999999994px" xml:space="preserve" y="188.10000000000002" font-weight="bold" text-anchor="middle" pointer-events="visible" font-family="Tahoma, Verdana, Helvetica, Arial" fill="#444444" dominant-baseline="hanging" transform="matrix(1,0,0,1,200,0)" style="fill: rgb(68, 68, 68);"><tspan dy="0" >User</tspan></text><text  id="v-6400" font-size="16.799999999999997px" xml:space="preserve" y="229.70000000000002" text-anchor="middle" font-family="Tahoma, Verdana, Helvetica, Arial" fill="#444444" dominant-baseline="hanging" transform="matrix(1,0,0,1,200,0)" style="display: block; fill: rgb(68, 68, 68);"><tspan dy="0" >[Person]</tspan></text><text  id="v-6401" font-size="24px" xml:space="preserve" y="261.5" text-anchor="middle" font-family="Tahoma, Verdana, Helvetica, Arial" fill="#444444" dominant-baseline="hanging" transform="matrix(1,0,0,1,200,0)" style="display: block; fill: rgb(68, 68, 68);"><tspan dy="0" >End user or automated client</tspan><tspan dy="1.2em" x="0" >using AWS CLI, SDK, curl, or</tspan><tspan dy="1.2em" x="0" >another S3-compatible HTTP</tspan><tspan dy="1.2em" x="0" >client.</tspan></text><g  id="v-6402" font-weight="normal" text-anchor="middle" color="#444444" transform="matrix(1,0,0,1,197.5,368)" display="none" style="fill: rgb(68, 68, 68);"><g ></g><g ></g><g ></g><g ></g></g><image  id="v-6403"></image></g></g><!--z-index:24--><g   id="j_463"  transform="translate(1647,592)" style="; opacity: 1;"><g id="v-6427"><rect  id="v-6428" width="2380" height="1901" rx="20" ry="20" stroke-width="2" pointer-events="none" stroke="#0f5eaa" fill="#ffffff" opacity="1" stroke-dasharray=""></rect><text  id="v-6429" font-size="33.599999999999994px" xml:space="preserve" y="1862" font-weight="bold" text-anchor="start" pointer-events="visible" font-family="Tahoma, Verdana, Helvetica, Arial" fill="#1168bd" transform="matrix(1,0,0,1,15,0)"><tspan dy="0" >Magrathea ObjectStore</tspan></text><text  id="v-6430" font-size="16.799999999999997px" xml:space="preserve" y="1886" font-weight="normal" text-anchor="start" pointer-events="visible" font-family="Tahoma, Verdana, Helvetica, Arial" fill="#1168bd" transform="matrix(1,0,0,1,15,0)"><tspan dy="0" >[Software System]</tspan></text><image  id="v-6431" pointer-events="visible"></image></g></g><!--z-index:25--><g   id="j_462"  transform="translate(3427,642)" style="; opacity: 1;"><g id="v-6422"><rect  id="v-6423" width="550" height="479" rx="20" ry="20" stroke-width="2" pointer-events="none" stroke="#3c7fc0" fill="#ffffff" opacity="1" stroke-dasharray=""></rect><text  id="v-6424" font-size="33.599999999999994px" xml:space="preserve" y="440" font-weight="bold" text-anchor="start" pointer-events="visible" font-family="Tahoma, Verdana, Helvetica, Arial" fill="#438dd5" transform="matrix(1,0,0,1,15,0)"><tspan dy="0" >s3-reactive-api-adapter</tspan></text><text  id="v-6425" font-size="16.799999999999997px" xml:space="preserve" y="464" font-weight="normal" text-anchor="start" pointer-events="visible" font-family="Tahoma, Verdana, Helvetica, Arial" fill="#438dd5" transform="matrix(1,0,0,1,15,0)"><tspan dy="0" >[Container]</tspan></text><image  id="v-6426" pointer-events="visible"></image></g></g><!--z-index:26--><g   id="j_465"  transform="translate(1697,1488)" style="; opacity: 1;"><g id="v-6448"><rect  id="v-6449" width="550" height="479" rx="20" ry="20" stroke-width="2" pointer-events="none" stroke="#3c7fc0" fill="#ffffff" opacity="1" stroke-dasharray=""></rect><text  id="v-6450" font-size="33.599999999999994px" xml:space="preserve" y="440" font-weight="bold" text-anchor="start" pointer-events="visible" font-family="Tahoma, Verdana, Helvetica, Arial" fill="#438dd5" transform="matrix(1,0,0,1,15,0)"><tspan dy="0" >storage-engine</tspan></text><text  id="v-6451" font-size="16.799999999999997px" xml:space="preserve" y="464" font-weight="normal" text-anchor="start" pointer-events="visible" font-family="Tahoma, Verdana, Helvetica, Arial" fill="#438dd5" transform="matrix(1,0,0,1,15,0)"><tspan dy="0" >[Container]</tspan></text><image  id="v-6452" pointer-events="visible"></image></g></g><!--z-index:27--><g   id="j_467"  transform="translate(2587,1092)" style="; opacity: 1;"><g id="v-6469"><rect  id="v-6470" width="1390" height="1272" rx="20" ry="20" stroke-width="2" pointer-events="none" stroke="#22543d" fill="#ffffff" opacity="1" stroke-dasharray=""></rect><text  id="v-6471" font-size="33.599999999999994px" xml:space="preserve" y="1233" font-weight="bold" text-anchor="start" pointer-events="visible" font-family="Tahoma, Verdana, Helvetica, Arial" fill="#438dd5" transform="matrix(1,0,0,1,15,0)"><tspan dy="0" >Cluster Node Runtime</tspan></text><text  id="v-6472" font-size="16.799999999999997px" xml:space="preserve" y="1257" font-weight="normal" text-anchor="start" pointer-events="visible" font-family="Tahoma, Verdana, Helvetica, Arial" fill="#438dd5" transform="matrix(1,0,0,1,15,0)"><tspan dy="0" >[Container]</tspan></text><image  id="v-6473" pointer-events="visible"></image></g></g><!--z-index:28--><g   id="j_461"  transform="translate(3477,692)" style=""><g  id="v-6415" style="opacity: 1;"><rect  id="v-6416" rx="20" ry="20" stroke-width="2" pointer-events="visiblePainted" fill="#85bbf0" stroke="#78a8d8" stroke-dasharray="" width="450" height="300" style="fill: rgb(133, 187, 240); stroke: rgb(120, 168, 216);"></rect><text  id="v-6417" font-size="33.599999999999994px" xml:space="preserve" y="37.94000000000001" font-weight="bold" text-anchor="middle" pointer-events="visible" font-family="Tahoma, Verdana, Helvetica, Arial" fill="#000000" dominant-baseline="hanging" transform="matrix(1,0,0,1,225,0)" style="fill: rgb(0, 0, 0);"><tspan dy="0" >S3ObjectOperationsHand</tspan><tspan dy="1.2em" x="0" >ler</tspan></text><text  id="v-6418" font-size="16.799999999999997px" xml:space="preserve" y="119.86" text-anchor="middle" font-family="Tahoma, Verdana, Helvetica, Arial" fill="#000000" dominant-baseline="hanging" transform="matrix(1,0,0,1,225,0)" style="display: block; fill: rgb(0, 0, 0);"><tspan dy="0" >[Component: Java WebFlux handler]</tspan></text><text  id="v-6419" font-size="24px" xml:space="preserve" y="151.66" text-anchor="middle" font-family="Tahoma, Verdana, Helvetica, Arial" fill="#000000" dominant-baseline="hanging" transform="matrix(1,0,0,1,225,0)" style="display: block; fill: rgb(0, 0, 0);"><tspan dy="0" >Handles object operations: put, get,</tspan><tspan dy="1.2em" x="0" >head, delete, copy, multi-delete,</tspan><tspan dy="1.2em" x="0" >rename, torrent, restore, select, and</tspan><tspan dy="1.2em" x="0" >Object Lambda response.</tspan></text><g  id="v-6420" color="#000000" transform="matrix(1,0,0,1,222.5,268)" display="none" style="fill: rgb(0, 0, 0);"><g ></g><g ></g><g ></g><g ></g></g><image  id="v-6421"></image></g></g><!--z-index:29--><g   id="j_464"  transform="translate(1747,1538)" style=""><g  id="v-6441" style="opacity: 1;"><rect  id="v-6442" rx="20" ry="20" stroke-width="2" pointer-events="visiblePainted" fill="#85bbf0" stroke="#78a8d8" stroke-dasharray="" width="450" height="300" style="fill: rgb(133, 187, 240); stroke: rgb(120, 168, 216);"></rect><text  id="v-6443" font-size="33.599999999999994px" xml:space="preserve" y="-114.69999999999993" font-weight="bold" text-anchor="middle" pointer-events="visible" font-family="Tahoma, Verdana, Helvetica, Arial" fill="#000000" dominant-baseline="hanging" transform="matrix(1,0,0,1,225,0)" style="fill: rgb(0, 0, 0);"><tspan dy="0" >object-</tspan><tspan dy="1.2em" x="0" >store-</tspan><tspan dy="1.2em" x="0" >reactive-</tspan><tspan dy="1.2em" x="0" >repository-</tspan><tspan dy="1.2em" x="0" >storage-</tspan><tspan dy="1.2em" x="0" >engine-infrastructure</tspan></text><text  id="v-6444" font-size="16.799999999999997px" xml:space="preserve" y="128.50000000000003" text-anchor="middle" font-family="Tahoma, Verdana, Helvetica, Arial" fill="#000000" dominant-baseline="hanging" transform="matrix(1,0,0,1,225,0)" style="display: block; fill: rgb(0, 0, 0);"><tspan dy="0" >[Component: Spring @Repository, Reactor]</tspan></text><text  id="v-6445" font-size="24px" xml:space="preserve" y="160.3" text-anchor="middle" font-family="Tahoma, Verdana, Helvetica, Arial" fill="#000000" dominant-baseline="hanging" transform="matrix(1,0,0,1,225,0)" style="display: block; fill: rgb(0, 0, 0);"><tspan dy="0" >Anti-Corruption Layer + adapter:</tspan><tspan dy="1.2em" x="0" >implements Object Store repository</tspan><tspan dy="1.2em" x="0" >interfaces using the Storage Engine</tspan><tspan dy="1.2em" x="0" >backend. Contains ObjectStoreToSt</tspan><tspan dy="1.2em" x="0" >orageEngineTranslator, StorageEngi</tspan><tspan dy="1.2em" x="0" >neReactiveS3ObjectRepository, Stor</tspan><tspan dy="1.2em" x="0" >ageEngineReactiveBucketRepositor</tspan><tspan dy="1.2em" x="0" >y, StorageEngineReactiveMultipartU</tspan><tspan dy="1.2em" x="0" >ploadRepository.</tspan></text><g  id="v-6446" color="#000000" transform="matrix(1,0,0,1,222.5,268)" display="none" style="fill: rgb(0, 0, 0);"><g ></g><g ></g><g ></g><g ></g></g><image  id="v-6447"></image></g></g><!--z-index:30--><g   id="j_466"  transform="translate(2637,1538)" style=""><g  id="v-6462" style="opacity: 1;"><rect  id="v-6463" rx="20" ry="20" stroke-width="2" pointer-events="visiblePainted" fill="#85bbf0" stroke="#78a8d8" stroke-dasharray="" width="450" height="300" style="fill: rgb(133, 187, 240); stroke: rgb(120, 168, 216);"></rect><text  id="v-6464" font-size="33.599999999999994px" xml:space="preserve" y="-62.859999999999985" font-weight="bold" text-anchor="middle" pointer-events="visible" font-family="Tahoma, Verdana, Helvetica, Arial" fill="#000000" dominant-baseline="hanging" transform="matrix(1,0,0,1,225,0)" style="fill: rgb(0, 0, 0);"><tspan dy="0" >storage-</tspan><tspan dy="1.2em" x="0" >engine-cluster-application</tspan></text><text  id="v-6465" font-size="16.799999999999997px" xml:space="preserve" y="19.060000000000002" text-anchor="middle" font-family="Tahoma, Verdana, Helvetica, Arial" fill="#000000" dominant-baseline="hanging" transform="matrix(1,0,0,1,225,0)" style="display: block; fill: rgb(0, 0, 0);"><tspan dy="0" >[Component: Java 21 application module]</tspan></text><text  id="v-6466" font-size="24px" xml:space="preserve" y="50.86" text-anchor="middle" font-family="Tahoma, Verdana, Helvetica, Arial" fill="#000000" dominant-baseline="hanging" transform="matrix(1,0,0,1,225,0)" style="display: block; fill: rgb(0, 0, 0);"><tspan dy="0" >Transport-neutral CreateBucket and</tspan><tspan dy="1.2em" x="0" >whole-object write/read</tspan><tspan dy="1.2em" x="0" >coordination, pure storage</tspan><tspan dy="1.2em" x="0" >placement, authoritative metadata</tspan><tspan dy="1.2em" x="0" >and local-artifact ports,</tspan><tspan dy="1.2em" x="0" >acknowledgement fencing,</tspan><tspan dy="1.2em" x="0" >replica-transfer/read ports, and</tspan><tspan dy="1.2em" x="0" >bounded repair use cases.</tspan><tspan dy="1.2em" x="0" >Reactor-facing where needed;</tspan><tspan dy="1.2em" x="0" >contains no Ratis, protobuf,</tspan><tspan dy="1.2em" x="0" >generated-stub, or gRPC types.</tspan></text><g  id="v-6467" color="#000000" transform="matrix(1,0,0,1,222.5,268)" display="none" style="fill: rgb(0, 0, 0);"><g ></g><g ></g><g ></g><g ></g></g><image  id="v-6468"></image></g></g><!--z-index:31--><g   id="j_468"  transform="translate(3477,1142)" style=""><g  id="v-6483" style="opacity: 1;"><rect  id="v-6484" rx="20" ry="20" stroke-width="2" pointer-events="visiblePainted" fill="#85bbf0" stroke="#78a8d8" stroke-dasharray="" width="450" height="300" style="fill: rgb(133, 187, 240); stroke: rgb(120, 168, 216);"></rect><text  id="v-6485" font-size="33.599999999999994px" xml:space="preserve" y="-163.65999999999997" font-weight="bold" text-anchor="middle" pointer-events="visible" font-family="Tahoma, Verdana, Helvetica, Arial" fill="#000000" dominant-baseline="hanging" transform="matrix(1,0,0,1,225,0)" style="fill: rgb(0, 0, 0);"><tspan dy="0" >cluster-</tspan><tspan dy="1.2em" x="0" >control-ratis-infrastructure</tspan></text><text  id="v-6486" font-size="16.799999999999997px" xml:space="preserve" y="-81.73999999999998" text-anchor="middle" font-family="Tahoma, Verdana, Helvetica, Arial" fill="#000000" dominant-baseline="hanging" transform="matrix(1,0,0,1,225,0)" style="display: block; fill: rgb(0, 0, 0);"><tspan dy="0" >[Component: Apache Ratis 3.2.2, ratis-grpc]</tspan></text><text  id="v-6487" font-size="24px" xml:space="preserve" y="-49.93999999999998" text-anchor="middle" font-family="Tahoma, Verdana, Helvetica, Arial" fill="#000000" dominant-baseline="hanging" transform="matrix(1,0,0,1,225,0)" style="display: block; fill: rgb(0, 0, 0);"><tspan dy="0" >Deterministic Ratis state machine</tspan><tspan dy="1.2em" x="0" >and adapter for bucket/object</tspan><tspan dy="1.2em" x="0" >references plus canonical repair</tspan><tspan dy="1.2em" x="0" >jobs, lifecycle transitions, command</tspan><tspan dy="1.2em" x="0" >deduplication, process-session and</tspan><tspan dy="1.2em" x="0" >claim-generation fences, and</tspan><tspan dy="1.2em" x="0" >generation obsolescence. It uses a</tspan><tspan dy="1.2em" x="0" >fixed A/B/C bootstrap manifest,</tspan><tspan dy="1.2em" x="0" >stable UUID identity recovery,</tspan><tspan dy="1.2em" x="0" >persisted log/snapshots, and</tspan><tspan dy="1.2em" x="0" >identity-bound control mTLS.</tspan><tspan dy="1.2em" x="0" >Snapshot version 2 persists repair</tspan><tspan dy="1.2em" x="0" >state and migrates version 1 with an</tspan><tspan dy="1.2em" x="0" >empty job map. The state machine</tspan><tspan dy="1.2em" x="0" >performs no filesystem or</tspan><tspan dy="1.2em" x="0" >replica-network side effects;</tspan><tspan dy="1.2em" x="0" >dynamic membership is outside its</tspan><tspan dy="1.2em" x="0" >fixed-node control scope.</tspan></text><g  id="v-6488" color="#000000" transform="matrix(1,0,0,1,222.5,268)" display="none" style="fill: rgb(0, 0, 0);"><g ></g><g ></g><g ></g><g ></g></g><image  id="v-6489"></image></g></g><!--z-index:32--><g   id="j_469"  transform="translate(3477,1935)" style=""><g  id="v-6499" style="opacity: 1;"><rect  id="v-6500" rx="20" ry="20" stroke-width="2" pointer-events="visiblePainted" fill="#85bbf0" stroke="#78a8d8" stroke-dasharray="" width="450" height="300" style="fill: rgb(133, 187, 240); stroke: rgb(120, 168, 216);"></rect><text  id="v-6501" font-size="33.599999999999994px" xml:space="preserve" y="-48.45999999999998" font-weight="bold" text-anchor="middle" pointer-events="visible" font-family="Tahoma, Verdana, Helvetica, Arial" fill="#000000" dominant-baseline="hanging" transform="matrix(1,0,0,1,225,0)" style="fill: rgb(0, 0, 0);"><tspan dy="0" >cluster-</tspan><tspan dy="1.2em" x="0" >data-grpc-infrastructure</tspan></text><text  id="v-6502" font-size="16.799999999999997px" xml:space="preserve" y="33.46000000000001" text-anchor="middle" font-family="Tahoma, Verdana, Helvetica, Arial" fill="#000000" dominant-baseline="hanging" transform="matrix(1,0,0,1,225,0)" style="display: block; fill: rgb(0, 0, 0);"><tspan dy="0" >[Component: grpc-java 1.82.2, grpc-netty-shaded]</tspan></text><text  id="v-6503" font-size="24px" xml:space="preserve" y="65.26" text-anchor="middle" font-family="Tahoma, Verdana, Helvetica, Arial" fill="#000000" dominant-baseline="hanging" transform="matrix(1,0,0,1,225,0)" style="display: block; fill: rgb(0, 0, 0);"><tspan dy="0" >Independent replica gRPC</tspan><tspan dy="1.2em" x="0" >server/clients and filesystem artifact</tspan><tspan dy="1.2em" x="0" >adapter: peer identity checks,</tspan><tspan dy="1.2em" x="0" >bounded 64 KiB manual-flow-control</tspan><tspan dy="1.2em" x="0" >reads, deadlines/cancellation,</tspan><tspan dy="1.2em" x="0" >token-specific repair staging,</tspan><tspan dy="1.2em" x="0" >incremental length/SHA-256</tspan><tspan dy="1.2em" x="0" >verification, file fsync, atomic</tspan><tspan dy="1.2em" x="0" >replacement, and strict</tspan><tspan dy="1.2em" x="0" >parent-directory fsync.</tspan></text><g  id="v-6504" color="#000000" transform="matrix(1,0,0,1,222.5,268)" display="none" style="fill: rgb(0, 0, 0);"><g ></g><g ></g><g ></g><g ></g></g><image  id="v-6505"></image></g></g><!--z-index:33--><g   id="j_470"  style="opacity: 1;"><path fill="none" cursor="pointer" stroke="transparent" stroke-linecap="round" joint-selector="wrapper" id="v-6520" stroke-width="10" stroke-linejoin="round" d="M 3020 542 L 3251 834 C 3254.9999999999995 839.3333333333333 3260.333333333333 841.9999999999999 3267 842 L 3477 842"></path><path fill="none" pointer-events="none" joint-selector="line" id="v-6519" stroke="#444444" stroke-width="2" stroke-linejoin="round" stroke-dasharray="8 8" d="M 3020 542 L 3251 834 C 3254.9999999999995 839.3333333333333 3260.333333333333 841.9999999999999 3267 842 L 3477 842" marker-end="url(#v-21252848929)"></path><g id="v-6509" ><g id="v-6510"  label-idx="0" cursor="move" transform="matrix(1,0,0,1,3257.84423828125,826.5211181640625)" style="cursor: default;"><rect joint-selector="rect" id="v-6514" fill="#ffffff" rx="3" ry="3" x="-93.9236068725586" y="-72.6222152709961" width="188.37059020996094" height="142.977783203125" pointer-events="none"  style="display: block;"></rect><text joint-selector="text" id="v-6513" font-size="24px" xml:space="preserve" fill="#444444" text-anchor="middle" pointer-events="none" font-family="Tahoma, Verdana, Helvetica, Arial" font-weight="normal"  style="display: block;"><tspan dy="-2.1em" >1: 1. Before</tspan><tspan dy="1.2em" x="0" >restart, address a</tspan><tspan dy="1.2em" x="0" >consensus-</tspan><tspan dy="1.2em" x="0" >committed whole</tspan><tspan dy="1.2em" x="0" >object through S3</tspan></text></g><g id="v-6511"  label-idx="1" cursor="move" transform="matrix(1,0,0,1,3257.84423828125,914.5211181640625)" style="cursor: default;"><rect joint-selector="rect" id="v-6516" fill="#ffffff" rx="3" ry="3" x="-26.54079818725586" y="-8.848888397216797" width="53.950836181640625" height="16.66666603088379"  pointer-events="none" style="display: block;"></rect><text joint-selector="text" id="v-6515" font-size="16.799999999999997px" xml:space="preserve" fill="#444444" text-anchor="middle" pointer-events="none" font-family="Tahoma, Verdana, Helvetica, Arial" font-weight="normal"  style="display: block;"><tspan dy="0.3em" >[HTTP]</tspan></text></g><g id="v-6512"  label-idx="2" cursor="move" transform="matrix(1,0,0,1,3196.41650390625,860.6434936523438)" style="cursor: default;"><rect joint-selector="rect" id="v-6518" fill="#ffffff" rx="3" ry="3" x="0" y="0" width="0" height="0"  display="none"></rect><text joint-selector="text" id="v-6517" fill="#000000" font-size="14" text-anchor="middle" text-vertical-anchor="middle" pointer-events="none"></text></g></g></g><!--z-index:34--><g   id="j_471"  style="opacity: 1;"><path fill="none" cursor="pointer" stroke="transparent" stroke-linecap="round" joint-selector="wrapper" id="v-6538" stroke-width="10" stroke-linejoin="round" d="M 3477 1527.79 L 3477 1528 C 3477 1527.8577777777778 3477 1531.191111111111 3477 1538 L 3477 1539 C 3477 1545.822222222222 3480.333333333333 1549.4888888888886 3487 1550 L 3692 1570 C 3698.6666666666665 1570.4533333333331 3705.333333333333 1570.4533333333331 3712 1570 L 3917 1550 C 3923.6666666666665 1549.4888888888886 3927 1545.822222222222 3927 1539 L 3927 1538 C 3927 1531.191111111111 3927 1527.8577777777778 3927 1528 L 3927 1527.79"></path><path fill="none" pointer-events="none" joint-selector="line" id="v-6537" stroke="#444444" stroke-width="2" stroke-linejoin="round" stroke-dasharray="8 8" d="M 3477 1527.79 L 3477 1528 C 3477 1527.8577777777778 3477 1531.191111111111 3477 1538 L 3477 1539 C 3477 1545.822222222222 3480.333333333333 1549.4888888888886 3487 1550 L 3692 1570 C 3698.6666666666665 1570.4533333333331 3705.333333333333 1570.4533333333331 3712 1570 L 3917 1550 C 3923.6666666666665 1549.4888888888886 3927 1545.822222222222 3927 1539 L 3927 1538 C 3927 1531.191111111111 3927 1527.8577777777778 3927 1528 L 3927 1527.79" marker-end="url(#v-21252848929)"></path><g id="v-6527" ><g id="v-6528"  label-idx="0" cursor="move" transform="matrix(1,0,0,1,3702,1546.8599853515625)" style="cursor: default;"><rect joint-selector="rect" id="v-6532" fill="#ffffff" rx="3" ry="3" x="-94.55294799804688" y="-58.22222137451172" width="189.4246368408203" height="114.17778015136719" pointer-events="none"  style="display: block;"></rect><text joint-selector="text" id="v-6531" font-size="24px" xml:space="preserve" fill="#444444" text-anchor="middle" pointer-events="none" font-family="Tahoma, Verdana, Helvetica, Arial" font-weight="normal"  style="display: block;"><tspan dy="-1.4999999999999998em" >2: 2. Stop all</tspan><tspan dy="1.2em" x="0" >A/B/C voters after</tspan><tspan dy="1.2em" x="0" >persisted log and</tspan><tspan dy="1.2em" x="0" >snapshots</tspan></text></g><g id="v-6529"  label-idx="1" cursor="move" transform="matrix(1,0,0,1,3702,1630.5400390625)" style="cursor: default;"><rect joint-selector="rect" id="v-6534" fill="#ffffff" rx="3" ry="3" x="-92.1657943725586" y="-18.92888832092285" width="184.3315887451172" height="36.82666778564453"  pointer-events="none" style="display: block;"></rect><text joint-selector="text" id="v-6533" font-size="16.799999999999997px" xml:space="preserve" fill="#444444" text-anchor="middle" pointer-events="none" font-family="Tahoma, Verdana, Helvetica, Arial" font-weight="normal"  style="display: block;"><tspan dy="-0.3em" >[Ratis gRPC/HTTP2 with</tspan><tspan dy="1.2em" x="0" >mTLS]</tspan></text></g><g id="v-6530"  label-idx="2" cursor="move" transform="matrix(1,0,0,1,3692,1649.02001953125)" style="cursor: default;"><rect joint-selector="rect" id="v-6536" fill="#ffffff" rx="3" ry="3" x="0" y="0" width="0" height="0"  display="none"></rect><text joint-selector="text" id="v-6535" fill="#000000" font-size="14" text-anchor="middle" text-vertical-anchor="middle" pointer-events="none"></text></g></g></g><!--z-index:35--><g   id="j_472"  style="opacity: 1;"><path fill="none" cursor="pointer" stroke="transparent" stroke-linecap="round" joint-selector="wrapper" id="v-6556" stroke-width="10" stroke-linejoin="round" d="M 3527.14 2282.81 L 3484 2333 C 3479.333333333333 2338.0044444444443 3477 2344.0044444444443 3477 2351 L 3477 2357 C 3477 2363.502222222222 3480.333333333333 2367.1688888888884 3487 2368 L 3692 2392 C 3698.6666666666665 2392.6666666666665 3705.333333333333 2392.6666666666665 3712 2392 L 3917 2368 C 3923.6666666666665 2367.1688888888884 3927 2363.502222222222 3927 2357 L 3927 2351 C 3927 2344.0044444444443 3924.6666666666665 2338.0044444444443 3920 2333 L 3876.86 2282.81"></path><path fill="none" pointer-events="none" joint-selector="line" id="v-6555" stroke="#444444" stroke-width="2" stroke-linejoin="round" stroke-dasharray="8 8" d="M 3527.14 2282.81 L 3484 2333 C 3479.333333333333 2338.0044444444443 3477 2344.0044444444443 3477 2351 L 3477 2357 C 3477 2363.502222222222 3480.333333333333 2367.1688888888884 3487 2368 L 3692 2392 C 3698.6666666666665 2392.6666666666665 3705.333333333333 2392.6666666666665 3712 2392 L 3917 2368 C 3923.6666666666665 2367.1688888888884 3927 2363.502222222222 3927 2357 L 3927 2351 C 3927 2344.0044444444443 3924.6666666666665 2338.0044444444443 3920 2333 L 3876.86 2282.81" marker-end="url(#v-21252848929)"></path><g id="v-6545" ><g id="v-6546"  label-idx="0" cursor="move" transform="matrix(1,0,0,1,3702,2369.02001953125)" style="cursor: default;"><rect joint-selector="rect" id="v-6550" fill="#ffffff" rx="3" ry="3" x="-96.57117462158203" y="-87.02222442626953" width="193.14234924316406" height="171.7777862548828" pointer-events="none"  style="display: block;"></rect><text joint-selector="text" id="v-6549" font-size="24px" xml:space="preserve" fill="#444444" text-anchor="middle" pointer-events="none" font-family="Tahoma, Verdana, Helvetica, Arial" font-weight="normal"  style="display: block;"><tspan dy="-2.7em" >3: 3. Stop all</tspan><tspan dy="1.2em" x="0" >A/B/C replica</tspan><tspan dy="1.2em" x="0" >servers with</tspan><tspan dy="1.2em" x="0" >published artifacts</tspan><tspan dy="1.2em" x="0" >on independent</tspan><tspan dy="1.2em" x="0" >roots</tspan></text></g><g id="v-6547"  label-idx="1" cursor="move" transform="matrix(1,0,0,1,3702,2481.5)" style="cursor: default;"><rect joint-selector="rect" id="v-6552" fill="#ffffff" rx="3" ry="3" x="-96.8532943725586" y="-18.92888832092285" width="195.46473693847656" height="36.82666778564453"  pointer-events="none" style="display: block;"></rect><text joint-selector="text" id="v-6551" font-size="16.799999999999997px" xml:space="preserve" fill="#444444" text-anchor="middle" pointer-events="none" font-family="Tahoma, Verdana, Helvetica, Arial" font-weight="normal"  style="display: block;"><tspan dy="-0.3em" >[Application gRPC/HTTP2</tspan><tspan dy="1.2em" x="0" >streaming with mTLS]</tspan></text></g><g id="v-6548"  label-idx="2" cursor="move" transform="matrix(1,0,0,1,3692,2499.97998046875)" style="cursor: default;"><rect joint-selector="rect" id="v-6554" fill="#ffffff" rx="3" ry="3" x="0" y="0" width="0" height="0"  display="none"></rect><text joint-selector="text" id="v-6553" fill="#000000" font-size="14" text-anchor="middle" text-vertical-anchor="middle" pointer-events="none"></text></g></g></g><!--z-index:36--><g   id="j_473"  style="opacity: 1;"><path fill="none" cursor="pointer" stroke="transparent" stroke-linecap="round" joint-selector="wrapper" id="v-6574" stroke-width="10" stroke-linejoin="round" d="M 3518.06 1605.01 L 3482 1667 C 3478.6666666666665 1672.7511111111112 3477 1679.0844444444444 3477 1686 L 3477 1724 C 3477 1730.6888888888889 3480.333333333333 1735.0222222222221 3487 1737 L 3692 1790 C 3698.6666666666665 1791.6266666666666 3705.333333333333 1791.6266666666666 3712 1790 L 3917 1737 C 3923.6666666666665 1735.0222222222221 3927 1730.6888888888889 3927 1724 L 3927 1686 C 3927 1679.0844444444444 3925.333333333333 1672.7511111111112 3922 1667 L 3885.94 1605.01"></path><path fill="none" pointer-events="none" joint-selector="line" id="v-6573" stroke="#444444" stroke-width="2" stroke-linejoin="round" stroke-dasharray="8 8" d="M 3518.06 1605.01 L 3482 1667 C 3478.6666666666665 1672.7511111111112 3477 1679.0844444444444 3477 1686 L 3477 1724 C 3477 1730.6888888888889 3480.333333333333 1735.0222222222221 3487 1737 L 3692 1790 C 3698.6666666666665 1791.6266666666666 3705.333333333333 1791.6266666666666 3712 1790 L 3917 1737 C 3923.6666666666665 1735.0222222222221 3927 1730.6888888888889 3927 1724 L 3927 1686 C 3927 1679.0844444444444 3925.333333333333 1672.7511111111112 3922 1667 L 3885.94 1605.01" marker-end="url(#v-21252848929)"></path><g id="v-6563" ><g id="v-6564"  label-idx="0" cursor="move" transform="matrix(1,0,0,1,3702,1767.739990234375)" style="cursor: default;"><rect joint-selector="rect" id="v-6568" fill="#ffffff" rx="3" ry="3" x="-94.55294799804688" y="-72.6222152709961" width="189.6691131591797" height="142.977783203125" pointer-events="none"  style="display: block;"></rect><text joint-selector="text" id="v-6567" font-size="24px" xml:space="preserve" fill="#444444" text-anchor="middle" pointer-events="none" font-family="Tahoma, Verdana, Helvetica, Arial" font-weight="normal"  style="display: block;"><tspan dy="-2.1em" >4: 4. Restart each</tspan><tspan dy="1.2em" x="0" >voter from its</tspan><tspan dy="1.2em" x="0" >stable UUID and</tspan><tspan dy="1.2em" x="0" >non-empty Ratis</tspan><tspan dy="1.2em" x="0" >root</tspan></text></g><g id="v-6565"  label-idx="1" cursor="move" transform="matrix(1,0,0,1,3702,1865.8199462890625)" style="cursor: default;"><rect joint-selector="rect" id="v-6570" fill="#ffffff" rx="3" ry="3" x="-92.1657943725586" y="-18.92888832092285" width="184.3315887451172" height="36.82666778564453"  pointer-events="none" style="display: block;"></rect><text joint-selector="text" id="v-6569" font-size="16.799999999999997px" xml:space="preserve" fill="#444444" text-anchor="middle" pointer-events="none" font-family="Tahoma, Verdana, Helvetica, Arial" font-weight="normal"  style="display: block;"><tspan dy="-0.3em" >[Ratis gRPC/HTTP2 with</tspan><tspan dy="1.2em" x="0" >mTLS]</tspan></text></g><g id="v-6566"  label-idx="2" cursor="move" transform="matrix(1,0,0,1,3692,1884.300048828125)" style="cursor: default;"><rect joint-selector="rect" id="v-6572" fill="#ffffff" rx="3" ry="3" x="0" y="0" width="0" height="0"  display="none"></rect><text joint-selector="text" id="v-6571" fill="#000000" font-size="14" text-anchor="middle" text-vertical-anchor="middle" pointer-events="none"></text></g></g></g><!--z-index:37--><g   id="j_474"  style="opacity: 1;"><path fill="none" cursor="pointer" stroke="transparent" stroke-linecap="round" joint-selector="wrapper" id="v-6592" stroke-width="10" stroke-linejoin="round" d="M 3590.7 2282.81 L 3482 2480 C 3478.6666666666665 2485.5644444444442 3477 2491.5644444444442 3477 2498 L 3477 2542 C 3477 2548.3688888888887 3480.333333333333 2552.3688888888887 3487 2554 L 3692 2612 C 3698.6666666666665 2613.84 3705.333333333333 2613.84 3712 2612 L 3917 2554 C 3923.6666666666665 2552.3688888888887 3927 2548.3688888888887 3927 2542 L 3927 2498 C 3927 2491.5644444444442 3925.333333333333 2485.5644444444442 3922 2480 L 3813.3 2282.81"></path><path fill="none" pointer-events="none" joint-selector="line" id="v-6591" stroke="#444444" stroke-width="2" stroke-linejoin="round" stroke-dasharray="8 8" d="M 3590.7 2282.81 L 3482 2480 C 3478.6666666666665 2485.5644444444442 3477 2491.5644444444442 3477 2498 L 3477 2542 C 3477 2548.3688888888887 3480.333333333333 2552.3688888888887 3487 2554 L 3692 2612 C 3698.6666666666665 2613.84 3705.333333333333 2613.84 3712 2612 L 3917 2554 C 3923.6666666666665 2552.3688888888887 3927 2548.3688888888887 3927 2542 L 3927 2498 C 3927 2491.5644444444442 3925.333333333333 2485.5644444444442 3922 2480 L 3813.3 2282.81" marker-end="url(#v-21252848929)"></path><g id="v-6581" ><g id="v-6582"  label-idx="0" cursor="move" transform="matrix(1,0,0,1,3702,2589.89990234375)" style="cursor: default;"><rect joint-selector="rect" id="v-6586" fill="#ffffff" rx="3" ry="3" x="-99.1970443725586" y="-43.82221984863281" width="198.3940887451172" height="85.37777709960938" pointer-events="none"  style="display: block;"></rect><text joint-selector="text" id="v-6585" font-size="24px" xml:space="preserve" fill="#444444" text-anchor="middle" pointer-events="none" font-family="Tahoma, Verdana, Helvetica, Arial" font-weight="normal"  style="display: block;"><tspan dy="-0.8999999999999999em" >5: 5. Restart each</tspan><tspan dy="1.2em" x="0" >replica server from</tspan><tspan dy="1.2em" x="0" >its object root</tspan></text></g><g id="v-6583"  label-idx="1" cursor="move" transform="matrix(1,0,0,1,3702,2659.179931640625)" style="cursor: default;"><rect joint-selector="rect" id="v-6588" fill="#ffffff" rx="3" ry="3" x="-96.8532943725586" y="-18.92888832092285" width="195.46473693847656" height="36.82666778564453"  pointer-events="none" style="display: block;"></rect><text joint-selector="text" id="v-6587" font-size="16.799999999999997px" xml:space="preserve" fill="#444444" text-anchor="middle" pointer-events="none" font-family="Tahoma, Verdana, Helvetica, Arial" font-weight="normal"  style="display: block;"><tspan dy="-0.3em" >[Application gRPC/HTTP2</tspan><tspan dy="1.2em" x="0" >streaming with mTLS]</tspan></text></g><g id="v-6584"  label-idx="2" cursor="move" transform="matrix(1,0,0,1,3692,2677.659912109375)" style="cursor: default;"><rect joint-selector="rect" id="v-6590" fill="#ffffff" rx="3" ry="3" x="0" y="0" width="0" height="0"  display="none"></rect><text joint-selector="text" id="v-6589" fill="#000000" font-size="14" text-anchor="middle" text-vertical-anchor="middle" pointer-events="none"></text></g></g></g><!--z-index:38--><g   id="j_475"  style="opacity: 1;"><path fill="none" cursor="pointer" stroke="transparent" stroke-linecap="round" joint-selector="wrapper" id="v-6610" stroke-width="10" stroke-linejoin="round" d="M 2197 1684.62 L 2637 1684.62"></path><path fill="none" pointer-events="none" joint-selector="line" id="v-6609" stroke="#444444" stroke-width="2" stroke-linejoin="round" stroke-dasharray="8 8" d="M 2197 1684.62 L 2637 1684.62" marker-end="url(#v-21252848929)"></path><g id="v-6599" ><g id="v-6600"  label-idx="0" cursor="move" transform="matrix(1,0,0,1,2417,1671.219970703125)" style="cursor: default;"><rect joint-selector="rect" id="v-6604" fill="#ffffff" rx="3" ry="3" x="-99.24044799804688" y="-72.6222152709961" width="198.79505920410156" height="142.977783203125" pointer-events="none"  style="display: block;"></rect><text joint-selector="text" id="v-6603" font-size="24px" xml:space="preserve" fill="#444444" text-anchor="middle" pointer-events="none" font-family="Tahoma, Verdana, Helvetica, Arial" font-weight="normal"  style="display: block;"><tspan dy="-2.1em" >6: 6. Node B</tspan><tspan dy="1.2em" x="0" >requests the</tspan><tspan dy="1.2em" x="0" >committed object</tspan><tspan dy="1.2em" x="0" >through the cluster</tspan><tspan dy="1.2em" x="0" >profile</tspan></text></g><g id="v-6601"  label-idx="1" cursor="move" transform="matrix(1,0,0,1,2417,1759.219970703125)" style="cursor: default;"><rect joint-selector="rect" id="v-6606" fill="#ffffff" rx="3" ry="3" x="-82.87760162353516" y="-8.848888397216797" width="166.63592529296875" height="16.66666603088379"  pointer-events="none" style="display: block;"></rect><text joint-selector="text" id="v-6605" font-size="16.799999999999997px" xml:space="preserve" fill="#444444" text-anchor="middle" pointer-events="none" font-family="Tahoma, Verdana, Helvetica, Arial" font-weight="normal"  style="display: block;"><tspan dy="0.3em" >[In-process Java calls]</tspan></text></g><g id="v-6602"  label-idx="2" cursor="move" transform="matrix(1,0,0,1,2407,1767.6199951171875)" style="cursor: default;"><rect joint-selector="rect" id="v-6608" fill="#ffffff" rx="3" ry="3" x="0" y="0" width="0" height="0"  display="none"></rect><text joint-selector="text" id="v-6607" fill="#000000" font-size="14" text-anchor="middle" text-vertical-anchor="middle" pointer-events="none"></text></g></g></g><!--z-index:39--><g   id="j_476"  style="opacity: 1;"><path fill="none" cursor="pointer" stroke="transparent" stroke-linecap="round" joint-selector="wrapper" id="v-6628" stroke-width="10" stroke-linejoin="round" d="M 3078.91 1469.02 L 3250 1299 C 3254.666666666666 1294.3333333333333 3260.333333333333 1292 3267 1292 L 3477 1290.33"></path><path fill="none" pointer-events="none" joint-selector="line" id="v-6627" stroke="#444444" stroke-width="2" stroke-linejoin="round" stroke-dasharray="8 8" d="M 3078.91 1469.02 L 3250 1299 C 3254.666666666666 1294.3333333333333 3260.333333333333 1292 3267 1292 L 3477 1290.33" marker-end="url(#v-21252848929)"></path><g id="v-6617" ><g id="v-6618"  label-idx="0" cursor="move" transform="matrix(1,0,0,1,3294.986328125,1268.2974853515625)" style="cursor: default;"><rect joint-selector="rect" id="v-6622" fill="#ffffff" rx="3" ry="3" x="-91.90538024902344" y="-72.6222152709961" width="185.45887756347656" height="142.977783203125" pointer-events="none"  style="display: block;"></rect><text joint-selector="text" id="v-6621" font-size="24px" xml:space="preserve" fill="#444444" text-anchor="middle" pointer-events="none" font-family="Tahoma, Verdana, Helvetica, Arial" font-weight="normal"  style="display: block;"><tspan dy="-2.1em" >7: 7. Resolve</tspan><tspan dy="1.2em" x="0" >recovered bucket</tspan><tspan dy="1.2em" x="0" >and</tspan><tspan dy="1.2em" x="0" >object-reference</tspan><tspan dy="1.2em" x="0" >generations</tspan></text></g><g id="v-6619"  label-idx="1" cursor="move" transform="matrix(1,0,0,1,3294.986328125,1366.37744140625)" style="cursor: default;"><rect joint-selector="rect" id="v-6624" fill="#ffffff" rx="3" ry="3" x="-93.75" y="-18.92888832092285" width="187.5" height="36.82666778564453"  pointer-events="none" style="display: block;"></rect><text joint-selector="text" id="v-6623" font-size="16.799999999999997px" xml:space="preserve" fill="#444444" text-anchor="middle" pointer-events="none" font-family="Tahoma, Verdana, Helvetica, Arial" font-weight="normal"  style="display: block;"><tspan dy="-0.3em" >[Transport-neutral control</tspan><tspan dy="1.2em" x="0" >ports]</tspan></text></g><g id="v-6620"  label-idx="2" cursor="move" transform="matrix(1,0,0,1,3235.6376953125,1396.4150390625)" style="cursor: default;"><rect joint-selector="rect" id="v-6626" fill="#ffffff" rx="3" ry="3" x="-4.547473508864641e-13" y="0" width="0" height="0"  display="none"></rect><text joint-selector="text" id="v-6625" fill="#000000" font-size="14" text-anchor="middle" text-vertical-anchor="middle" pointer-events="none"></text></g></g></g><!--z-index:40--><g   id="j_477"  style="opacity: 1;"><path fill="none" cursor="pointer" stroke="transparent" stroke-linecap="round" joint-selector="wrapper" id="v-6646" stroke-width="10" stroke-linejoin="round" d="M 3074.42 1900.21 L 3250 2078 C 3254.666666666666 2083.0133333333333 3260.333333333333 2085.3466666666664 3267 2085 L 3477 2083.59"></path><path fill="none" pointer-events="none" joint-selector="line" id="v-6645" stroke="#444444" stroke-width="2" stroke-linejoin="round" stroke-dasharray="8 8" d="M 3074.42 1900.21 L 3250 2078 C 3254.666666666666 2083.0133333333333 3260.333333333333 2085.3466666666664 3267 2085 L 3477 2083.59" marker-end="url(#v-21252848929)"></path><g id="v-6635" ><g id="v-6636"  label-idx="0" cursor="move" transform="matrix(1,0,0,1,3291.575927734375,2061.35498046875)" style="cursor: default;"><rect joint-selector="rect" id="v-6640" fill="#ffffff" rx="3" ry="3" x="-95.22569274902344" y="-58.22222137451172" width="190.45138549804688" height="114.17778015136719" pointer-events="none"  style="display: block;"></rect><text joint-selector="text" id="v-6639" font-size="24px" xml:space="preserve" fill="#444444" text-anchor="middle" pointer-events="none" font-family="Tahoma, Verdana, Helvetica, Arial" font-weight="normal"  style="display: block;"><tspan dy="-1.4999999999999998em" >8: 8. Validate</tspan><tspan dy="1.2em" x="0" >length and</tspan><tspan dy="1.2em" x="0" >checksum and</tspan><tspan dy="1.2em" x="0" >return exact bytes</tspan></text></g><g id="v-6637"  label-idx="1" cursor="move" transform="matrix(1,0,0,1,3291.575927734375,2145.034912109375)" style="cursor: default;"><rect joint-selector="rect" id="v-6642" fill="#ffffff" rx="3" ry="3" x="-93.27256774902344" y="-18.92888832092285" width="188.33053588867188" height="36.82666778564453"  pointer-events="none" style="display: block;"></rect><text joint-selector="text" id="v-6641" font-size="16.799999999999997px" xml:space="preserve" fill="#444444" text-anchor="middle" pointer-events="none" font-family="Tahoma, Verdana, Helvetica, Arial" font-weight="normal"  style="display: block;"><tspan dy="-0.3em" >[Transport-neutral replica</tspan><tspan dy="1.2em" x="0" >ports]</tspan></text></g><g id="v-6638"  label-idx="2" cursor="move" transform="matrix(1,0,0,1,3232.677734375,2149.265625)" style="cursor: default;"><rect joint-selector="rect" id="v-6644" fill="#ffffff" rx="3" ry="3" x="-4.547473508864641e-13" y="0" width="0" height="0"  display="none"></rect><text joint-selector="text" id="v-6643" fill="#000000" font-size="14" text-anchor="middle" text-vertical-anchor="middle" pointer-events="none"></text></g></g></g><!--z-index:41--><!--z-index:42--><!--z-index:43--><!--z-index:44--><!--z-index:45--><!--z-index:46--><!--z-index:47--><!--z-index:48--><!--z-index:49--><!--z-index:50--><!--z-index:51--><!--z-index:52--><!--z-index:53--><!--z-index:54--><!--z-index:55--><!--z-index:56--><!--z-index:57--><!--z-index:58--><!--z-index:59--><!--z-index:60--><!--z-index:61--><!--z-index:62--><!--z-index:63--><!--z-index:64--><!--z-index:65--><!--z-index:66--><!--z-index:67--><!--z-index:68--><!--z-index:69--><!--z-index:70--><!--z-index:71--><!--z-index:72--><!--z-index:73--><!--z-index:74--><!--z-index:75--><!--z-index:76--><!--z-index:77--><!--z-index:78--><!--z-index:79--><!--z-index:80--><!--z-index:81--><!--z-index:82--><!--z-index:83--><!--z-index:84--><!--z-index:85--><!--z-index:86--><!--z-index:87--><!--z-index:88--><!--z-index:89--><!--z-index:90--><!--z-index:91--><!--z-index:92--><!--z-index:93--><!--z-index:94--><!--z-index:95--></g><g  style="user-select: none;"></g><g ></g><g  display="none"></g></g></svg>