<svg xmlns="http://www.w3.org/2000/svg" xmlns:xlink="http://www.w3.org/1999/xlink" version="1.1" width="4992" height="2935" style="width: 4992px; height: 2935px; background: #ffffff" viewBox="0 0 4992 2935"><style id="v-3" type="text/css">        .joint-element .scalable * {            vector-effect: non-scaling-stroke;        }    </style><defs joint-selector="defs"><marker id="v-21252848929" orient="auto" overflow="visible" markerUnits="userSpaceOnUse"><path id="v-65" stroke="#444444" fill="#444444" transform="rotate(180)" d="M 20 -10 0 0 20 10 Z"></path></marker><marker id="v-2-1424592063" orient="auto" overflow="visible" markerUnits="userSpaceOnUse"><path id="v-1954" stroke="#6b7280" fill="#6b7280" transform="rotate(180)" d="M 20 -10 0 0 20 10 Z"></path></marker></defs><g joint-selector="layers"  transform="matrix(1,0,0,1,0,0)"><g  style="pointer-events: none;"></g><g ></g><g  style="user-select: none;"><!--z-index:0--><!--z-index:1--><!--z-index:2--><!--z-index:3--><!--z-index:4--><!--z-index:5--><!--z-index:6--><!--z-index:7--><!--z-index:8--><!--z-index:9--><!--z-index:10--><!--z-index:11--><!--z-index:12--><!--z-index:13--><!--z-index:14--><!--z-index:15--><!--z-index:16--><!--z-index:17--><!--z-index:18--><!--z-index:19--><!--z-index:20--><g   id="j_406"  transform="translate(20,2891)"><g id="v-5572"><text  id="v-5573" font-size="24px" xml:space="preserve" y="0.8em" font-weight="normal" text-anchor="start" fill="#444444" pointer-events="none" display="block" font-family="Tahoma, Verdana, Helvetica, Arial"><tspan dy="0" >lunedì 13 luglio 2026 alle ore 13:59 Ora legale dell’Europa centrale</tspan></text></g></g><!--z-index:21--><g   id="j_405"  transform="translate(20,2857)"><g id="v-5570"><text  id="v-5571" font-size="24px" xml:space="preserve" y="0.8em" font-weight="normal" text-anchor="start" fill="#444444" pointer-events="none" display="block" font-family="Tahoma, Verdana, Helvetica, Arial"><tspan dy="0" >IMPLEMENTED AND VALIDATED FOR THE FIRST-SLICE RESTART PROOF. All three JVMs stop and discard process memory, then restart from their original non-empty roots. Each node recovers its stable UUID, Ratis state, immutable replicas, and committed bucket/object-reference generations. Reordered seeds do not rewrite persisted membership. An exact-byte GET through B verifies recovery; rolling upgrade and membership change are outside this proof.</tspan></text></g></g><!--z-index:22--><g   id="j_404"  transform="translate(20,2811)"><g id="v-5568"><text  id="v-5569" font-size="36px" xml:space="preserve" y="0.8em" font-weight="normal" text-anchor="start" fill="#444444" pointer-events="none" display="block" font-family="Tahoma, Verdana, Helvetica, Arial"><tspan dy="0" >Runtime: Complete A/B/C Restart Recovery</tspan></text></g></g><!--z-index:23--><g   id="j_407"  transform="translate(2320,142)" style=""><g  id="v-5577" style="opacity: 1;"><rect  x="0" y="160" width="400" height="240" rx="70" id="v-5579" stroke-width="2" pointer-events="visiblePainted" fill="#ffffff" stroke="#e6e6e6" stroke-dasharray="" style="fill: rgb(255, 255, 255); stroke: rgb(230, 230, 230);"></rect><circle  cx="200" cy="88.88888888888889" r="88.88888888888889" id="v-5578" stroke-width="2" pointer-events="visiblePainted" fill="#ffffff" stroke="#e6e6e6" stroke-dasharray="" style="fill: rgb(255, 255, 255); stroke: rgb(230, 230, 230);"></circle><line  x1="80" y1="266.6666666666667" x2="80" y2="400" id="v-5585" stroke="#e6e6e6" stroke-width="1" stroke-dasharray="" style="stroke: rgb(230, 230, 230);"></line><line  x1="320" y1="266.6666666666667" x2="320" y2="400" id="v-5586" stroke="#e6e6e6" stroke-width="1" stroke-dasharray="" style="stroke: rgb(230, 230, 230);"></line><text  id="v-5580" font-size="33.599999999999994px" xml:space="preserve" y="188.10000000000002" font-weight="bold" text-anchor="middle" pointer-events="visible" font-family="Tahoma, Verdana, Helvetica, Arial" fill="#444444" dominant-baseline="hanging" transform="matrix(1,0,0,1,200,0)" style="fill: rgb(68, 68, 68);"><tspan dy="0" >User</tspan></text><text  id="v-5581" font-size="16.799999999999997px" xml:space="preserve" y="229.70000000000002" text-anchor="middle" font-family="Tahoma, Verdana, Helvetica, Arial" fill="#444444" dominant-baseline="hanging" transform="matrix(1,0,0,1,200,0)" style="display: block; fill: rgb(68, 68, 68);"><tspan dy="0" >[Person]</tspan></text><text  id="v-5582" font-size="24px" xml:space="preserve" y="261.5" text-anchor="middle" font-family="Tahoma, Verdana, Helvetica, Arial" fill="#444444" dominant-baseline="hanging" transform="matrix(1,0,0,1,200,0)" style="display: block; fill: rgb(68, 68, 68);"><tspan dy="0" >End user or automated client</tspan><tspan dy="1.2em" x="0" >using AWS CLI, SDK, curl, or</tspan><tspan dy="1.2em" x="0" >another S3-compatible HTTP</tspan><tspan dy="1.2em" x="0" >client.</tspan></text><g  id="v-5583" font-weight="normal" text-anchor="middle" color="#444444" transform="matrix(1,0,0,1,197.5,368)" display="none" style="fill: rgb(68, 68, 68);"><g ></g><g ></g><g ></g><g ></g></g><image  id="v-5584"></image></g></g><!--z-index:24--><g   id="j_410"  transform="translate(1305,592)" style="; opacity: 1;"><g id="v-5608"><rect  id="v-5609" width="2380" height="1901" rx="20" ry="20" stroke-width="2" pointer-events="none" stroke="#0f5eaa" fill="#ffffff" opacity="1" stroke-dasharray=""></rect><text  id="v-5610" font-size="33.599999999999994px" xml:space="preserve" y="1862" font-weight="bold" text-anchor="start" pointer-events="visible" font-family="Tahoma, Verdana, Helvetica, Arial" fill="#1168bd" transform="matrix(1,0,0,1,15,0)"><tspan dy="0" >Magrathea ObjectStore</tspan></text><text  id="v-5611" font-size="16.799999999999997px" xml:space="preserve" y="1886" font-weight="normal" text-anchor="start" pointer-events="visible" font-family="Tahoma, Verdana, Helvetica, Arial" fill="#1168bd" transform="matrix(1,0,0,1,15,0)"><tspan dy="0" >[Software System]</tspan></text><image  id="v-5612" pointer-events="visible"></image></g></g><!--z-index:25--><g   id="j_409"  transform="translate(3085,642)" style="; opacity: 1;"><g id="v-5603"><rect  id="v-5604" width="550" height="479" rx="20" ry="20" stroke-width="2" pointer-events="none" stroke="#3c7fc0" fill="#ffffff" opacity="1" stroke-dasharray=""></rect><text  id="v-5605" font-size="33.599999999999994px" xml:space="preserve" y="440" font-weight="bold" text-anchor="start" pointer-events="visible" font-family="Tahoma, Verdana, Helvetica, Arial" fill="#438dd5" transform="matrix(1,0,0,1,15,0)"><tspan dy="0" >s3-reactive-api-adapter</tspan></text><text  id="v-5606" font-size="16.799999999999997px" xml:space="preserve" y="464" font-weight="normal" text-anchor="start" pointer-events="visible" font-family="Tahoma, Verdana, Helvetica, Arial" fill="#438dd5" transform="matrix(1,0,0,1,15,0)"><tspan dy="0" >[Container]</tspan></text><image  id="v-5607" pointer-events="visible"></image></g></g><!--z-index:26--><g   id="j_412"  transform="translate(1355,1488)" style="; opacity: 1;"><g id="v-5629"><rect  id="v-5630" width="550" height="479" rx="20" ry="20" stroke-width="2" pointer-events="none" stroke="#3c7fc0" fill="#ffffff" opacity="1" stroke-dasharray=""></rect><text  id="v-5631" font-size="33.599999999999994px" xml:space="preserve" y="440" font-weight="bold" text-anchor="start" pointer-events="visible" font-family="Tahoma, Verdana, Helvetica, Arial" fill="#438dd5" transform="matrix(1,0,0,1,15,0)"><tspan dy="0" >storage-engine</tspan></text><text  id="v-5632" font-size="16.799999999999997px" xml:space="preserve" y="464" font-weight="normal" text-anchor="start" pointer-events="visible" font-family="Tahoma, Verdana, Helvetica, Arial" fill="#438dd5" transform="matrix(1,0,0,1,15,0)"><tspan dy="0" >[Container]</tspan></text><image  id="v-5633" pointer-events="visible"></image></g></g><!--z-index:27--><g   id="j_414"  transform="translate(2245,1092)" style="; opacity: 1;"><g id="v-5650"><rect  id="v-5651" width="1390" height="1272" rx="20" ry="20" stroke-width="2" pointer-events="none" stroke="#22543d" fill="#ffffff" opacity="1" stroke-dasharray=""></rect><text  id="v-5652" font-size="33.599999999999994px" xml:space="preserve" y="1233" font-weight="bold" text-anchor="start" pointer-events="visible" font-family="Tahoma, Verdana, Helvetica, Arial" fill="#438dd5" transform="matrix(1,0,0,1,15,0)"><tspan dy="0" >Cluster Node Runtime</tspan></text><text  id="v-5653" font-size="16.799999999999997px" xml:space="preserve" y="1257" font-weight="normal" text-anchor="start" pointer-events="visible" font-family="Tahoma, Verdana, Helvetica, Arial" fill="#438dd5" transform="matrix(1,0,0,1,15,0)"><tspan dy="0" >[Container]</tspan></text><image  id="v-5654" pointer-events="visible"></image></g></g><!--z-index:28--><g   id="j_408"  transform="translate(3135,692)" style=""><g  id="v-5596" style="opacity: 1;"><rect  id="v-5597" rx="20" ry="20" stroke-width="2" pointer-events="visiblePainted" fill="#85bbf0" stroke="#78a8d8" stroke-dasharray="" width="450" height="300" style="fill: rgb(133, 187, 240); stroke: rgb(120, 168, 216);"></rect><text  id="v-5598" font-size="33.599999999999994px" xml:space="preserve" y="37.94000000000001" font-weight="bold" text-anchor="middle" pointer-events="visible" font-family="Tahoma, Verdana, Helvetica, Arial" fill="#000000" dominant-baseline="hanging" transform="matrix(1,0,0,1,225,0)" style="fill: rgb(0, 0, 0);"><tspan dy="0" >S3ObjectOperationsHand</tspan><tspan dy="1.2em" x="0" >ler</tspan></text><text  id="v-5599" font-size="16.799999999999997px" xml:space="preserve" y="119.86" text-anchor="middle" font-family="Tahoma, Verdana, Helvetica, Arial" fill="#000000" dominant-baseline="hanging" transform="matrix(1,0,0,1,225,0)" style="display: block; fill: rgb(0, 0, 0);"><tspan dy="0" >[Component: Java WebFlux handler]</tspan></text><text  id="v-5600" font-size="24px" xml:space="preserve" y="151.66" text-anchor="middle" font-family="Tahoma, Verdana, Helvetica, Arial" fill="#000000" dominant-baseline="hanging" transform="matrix(1,0,0,1,225,0)" style="display: block; fill: rgb(0, 0, 0);"><tspan dy="0" >Handles object operations: put, get,</tspan><tspan dy="1.2em" x="0" >head, delete, copy, multi-delete,</tspan><tspan dy="1.2em" x="0" >rename, torrent, restore, select, and</tspan><tspan dy="1.2em" x="0" >Object Lambda response.</tspan></text><g  id="v-5601" color="#000000" transform="matrix(1,0,0,1,222.5,268)" display="none" style="fill: rgb(0, 0, 0);"><g ></g><g ></g><g ></g><g ></g></g><image  id="v-5602"></image></g></g><!--z-index:29--><g   id="j_411"  transform="translate(1405,1538)" style=""><g  id="v-5622" style="opacity: 1;"><rect  id="v-5623" rx="20" ry="20" stroke-width="2" pointer-events="visiblePainted" fill="#85bbf0" stroke="#78a8d8" stroke-dasharray="" width="450" height="300" style="fill: rgb(133, 187, 240); stroke: rgb(120, 168, 216);"></rect><text  id="v-5624" font-size="33.599999999999994px" xml:space="preserve" y="-114.69999999999993" font-weight="bold" text-anchor="middle" pointer-events="visible" font-family="Tahoma, Verdana, Helvetica, Arial" fill="#000000" dominant-baseline="hanging" transform="matrix(1,0,0,1,225,0)" style="fill: rgb(0, 0, 0);"><tspan dy="0" >object-</tspan><tspan dy="1.2em" x="0" >store-</tspan><tspan dy="1.2em" x="0" >reactive-</tspan><tspan dy="1.2em" x="0" >repository-</tspan><tspan dy="1.2em" x="0" >storage-</tspan><tspan dy="1.2em" x="0" >engine-infrastructure</tspan></text><text  id="v-5625" font-size="16.799999999999997px" xml:space="preserve" y="128.50000000000003" text-anchor="middle" font-family="Tahoma, Verdana, Helvetica, Arial" fill="#000000" dominant-baseline="hanging" transform="matrix(1,0,0,1,225,0)" style="display: block; fill: rgb(0, 0, 0);"><tspan dy="0" >[Component: Spring @Repository, Reactor]</tspan></text><text  id="v-5626" font-size="24px" xml:space="preserve" y="160.3" text-anchor="middle" font-family="Tahoma, Verdana, Helvetica, Arial" fill="#000000" dominant-baseline="hanging" transform="matrix(1,0,0,1,225,0)" style="display: block; fill: rgb(0, 0, 0);"><tspan dy="0" >Anti-Corruption Layer + adapter:</tspan><tspan dy="1.2em" x="0" >implements Object Store repository</tspan><tspan dy="1.2em" x="0" >interfaces using the Storage Engine</tspan><tspan dy="1.2em" x="0" >backend. Contains ObjectStoreToSt</tspan><tspan dy="1.2em" x="0" >orageEngineTranslator, StorageEngi</tspan><tspan dy="1.2em" x="0" >neReactiveS3ObjectRepository, Stor</tspan><tspan dy="1.2em" x="0" >ageEngineReactiveBucketRepositor</tspan><tspan dy="1.2em" x="0" >y, StorageEngineReactiveMultipartU</tspan><tspan dy="1.2em" x="0" >ploadRepository.</tspan></text><g  id="v-5627" color="#000000" transform="matrix(1,0,0,1,222.5,268)" display="none" style="fill: rgb(0, 0, 0);"><g ></g><g ></g><g ></g><g ></g></g><image  id="v-5628"></image></g></g><!--z-index:30--><g   id="j_413"  transform="translate(2295,1538)" style=""><g  id="v-5643" style="opacity: 1;"><rect  id="v-5644" rx="20" ry="20" stroke-width="2" pointer-events="visiblePainted" fill="#85bbf0" stroke="#78a8d8" stroke-dasharray="" width="450" height="300" style="fill: rgb(133, 187, 240); stroke: rgb(120, 168, 216);"></rect><text  id="v-5645" font-size="33.599999999999994px" xml:space="preserve" y="-48.45999999999998" font-weight="bold" text-anchor="middle" pointer-events="visible" font-family="Tahoma, Verdana, Helvetica, Arial" fill="#000000" dominant-baseline="hanging" transform="matrix(1,0,0,1,225,0)" style="fill: rgb(0, 0, 0);"><tspan dy="0" >storage-</tspan><tspan dy="1.2em" x="0" >engine-cluster-application</tspan></text><text  id="v-5646" font-size="16.799999999999997px" xml:space="preserve" y="33.46000000000001" text-anchor="middle" font-family="Tahoma, Verdana, Helvetica, Arial" fill="#000000" dominant-baseline="hanging" transform="matrix(1,0,0,1,225,0)" style="display: block; fill: rgb(0, 0, 0);"><tspan dy="0" >[Component: Java 21 application module]</tspan></text><text  id="v-5647" font-size="24px" xml:space="preserve" y="65.26" text-anchor="middle" font-family="Tahoma, Verdana, Helvetica, Arial" fill="#000000" dominant-baseline="hanging" transform="matrix(1,0,0,1,225,0)" style="display: block; fill: rgb(0, 0, 0);"><tspan dy="0" >Implemented transport-neutral</tspan><tspan dy="1.2em" x="0" >CreateBucket, whole-object</tspan><tspan dy="1.2em" x="0" >write/read coordination, PA-6</tspan><tspan dy="1.2em" x="0" >placement, authoritative metadata</tspan><tspan dy="1.2em" x="0" >ports, local-artifact ports,</tspan><tspan dy="1.2em" x="0" >acknowledgement fencing, and</tspan><tspan dy="1.2em" x="0" >replica-transfer ports. Reactor-facing</tspan><tspan dy="1.2em" x="0" >where needed; contains no Ratis,</tspan><tspan dy="1.2em" x="0" >protobuf, generated-stub, or gRPC</tspan><tspan dy="1.2em" x="0" >types.</tspan></text><g  id="v-5648" color="#000000" transform="matrix(1,0,0,1,222.5,268)" display="none" style="fill: rgb(0, 0, 0);"><g ></g><g ></g><g ></g><g ></g></g><image  id="v-5649"></image></g></g><!--z-index:31--><g   id="j_415"  transform="translate(3135,1142)" style=""><g  id="v-5664" style="opacity: 1;"><rect  id="v-5665" rx="20" ry="20" stroke-width="2" pointer-events="visiblePainted" fill="#85bbf0" stroke="#78a8d8" stroke-dasharray="" width="450" height="300" style="fill: rgb(133, 187, 240); stroke: rgb(120, 168, 216);"></rect><text  id="v-5666" font-size="33.599999999999994px" xml:space="preserve" y="-34.059999999999974" font-weight="bold" text-anchor="middle" pointer-events="visible" font-family="Tahoma, Verdana, Helvetica, Arial" fill="#000000" dominant-baseline="hanging" transform="matrix(1,0,0,1,225,0)" style="fill: rgb(0, 0, 0);"><tspan dy="0" >cluster-</tspan><tspan dy="1.2em" x="0" >control-ratis-infrastructure</tspan></text><text  id="v-5667" font-size="16.799999999999997px" xml:space="preserve" y="47.860000000000014" text-anchor="middle" font-family="Tahoma, Verdana, Helvetica, Arial" fill="#000000" dominant-baseline="hanging" transform="matrix(1,0,0,1,225,0)" style="display: block; fill: rgb(0, 0, 0);"><tspan dy="0" >[Component: Apache Ratis 3.2.2, ratis-grpc]</tspan></text><text  id="v-5668" font-size="24px" xml:space="preserve" y="79.66000000000001" text-anchor="middle" font-family="Tahoma, Verdana, Helvetica, Arial" fill="#000000" dominant-baseline="hanging" transform="matrix(1,0,0,1,225,0)" style="display: block; fill: rgb(0, 0, 0);"><tspan dy="0" >Implemented embedded Ratis</tspan><tspan dy="1.2em" x="0" >lifecycle, deterministic</tspan><tspan dy="1.2em" x="0" >bucket/object-reference generation</tspan><tspan dy="1.2em" x="0" >state machine, fixed A/B/C bootstrap</tspan><tspan dy="1.2em" x="0" >manifest, stable UUID identity</tspan><tspan dy="1.2em" x="0" >recovery, persisted log/snapshots,</tspan><tspan dy="1.2em" x="0" >and identity-bound control mTLS.</tspan><tspan dy="1.2em" x="0" >Dynamic membership is future</tspan><tspan dy="1.2em" x="0" >scope.</tspan></text><g  id="v-5669" color="#000000" transform="matrix(1,0,0,1,222.5,268)" display="none" style="fill: rgb(0, 0, 0);"><g ></g><g ></g><g ></g><g ></g></g><image  id="v-5670"></image></g></g><!--z-index:32--><g   id="j_416"  transform="translate(3135,1935)" style=""><g  id="v-5680" style="opacity: 1;"><rect  id="v-5681" rx="20" ry="20" stroke-width="2" pointer-events="visiblePainted" fill="#85bbf0" stroke="#78a8d8" stroke-dasharray="" width="450" height="300" style="fill: rgb(133, 187, 240); stroke: rgb(120, 168, 216);"></rect><text  id="v-5682" font-size="33.599999999999994px" xml:space="preserve" y="-5.259999999999991" font-weight="bold" text-anchor="middle" pointer-events="visible" font-family="Tahoma, Verdana, Helvetica, Arial" fill="#000000" dominant-baseline="hanging" transform="matrix(1,0,0,1,225,0)" style="fill: rgb(0, 0, 0);"><tspan dy="0" >cluster-</tspan><tspan dy="1.2em" x="0" >data-grpc-infrastructure</tspan></text><text  id="v-5683" font-size="16.799999999999997px" xml:space="preserve" y="76.66" text-anchor="middle" font-family="Tahoma, Verdana, Helvetica, Arial" fill="#000000" dominant-baseline="hanging" transform="matrix(1,0,0,1,225,0)" style="display: block; fill: rgb(0, 0, 0);"><tspan dy="0" >[Component: grpc-java 1.82.2, grpc-netty-shaded]</tspan></text><text  id="v-5684" font-size="24px" xml:space="preserve" y="108.46" text-anchor="middle" font-family="Tahoma, Verdana, Helvetica, Arial" fill="#000000" dominant-baseline="hanging" transform="matrix(1,0,0,1,225,0)" style="display: block; fill: rgb(0, 0, 0);"><tspan dy="0" >Implemented independent replica</tspan><tspan dy="1.2em" x="0" >gRPC server/clients, peer identity</tspan><tspan dy="1.2em" x="0" >checks, bounded 64 KiB framing</tspan><tspan dy="1.2em" x="0" >and manual flow control,</tspan><tspan dy="1.2em" x="0" >deadlines/cancellation, checksum</tspan><tspan dy="1.2em" x="0" >validation, durable local artifacts,</tspan><tspan dy="1.2em" x="0" >and replica acknowledgements.</tspan></text><g  id="v-5685" color="#000000" transform="matrix(1,0,0,1,222.5,268)" display="none" style="fill: rgb(0, 0, 0);"><g ></g><g ></g><g ></g><g ></g></g><image  id="v-5686"></image></g></g><!--z-index:33--><g   id="j_417"  style="opacity: 1;"><path fill="none" cursor="pointer" stroke="transparent" stroke-linecap="round" joint-selector="wrapper" id="v-5701" stroke-width="10" stroke-linejoin="round" d="M 2678 542 L 2909 834 C 2913 839.3333333333333 2918.333333333333 841.9999999999999 2925 842 L 3135 842"></path><path fill="none" pointer-events="none" joint-selector="line" id="v-5700" stroke="#444444" stroke-width="2" stroke-linejoin="round" stroke-dasharray="8 8" d="M 2678 542 L 2909 834 C 2913 839.3333333333333 2918.333333333333 841.9999999999999 2925 842 L 3135 842" marker-end="url(#v-21252848929)"></path><g id="v-5690" ><g id="v-5691"  label-idx="0" cursor="move" transform="matrix(1,0,0,1,2915.84423828125,826.5211181640625)" style="cursor: default;"><rect joint-selector="rect" id="v-5695" fill="#ffffff" rx="3" ry="3" x="-93.79814147949219" y="-71.97164916992188" width="188.98683166503906" height="142.9349822998047" pointer-events="none"  style="display: block;"></rect><text joint-selector="text" id="v-5694" font-size="24px" xml:space="preserve" fill="#444444" text-anchor="middle" pointer-events="none" font-family="Tahoma, Verdana, Helvetica, Arial" font-weight="normal"  style="display: block;"><tspan dy="-2.1em" >1: 1. Before</tspan><tspan dy="1.2em" x="0" >restart, address a</tspan><tspan dy="1.2em" x="0" >consensus-</tspan><tspan dy="1.2em" x="0" >committed whole</tspan><tspan dy="1.2em" x="0" >object through S3</tspan></text></g><g id="v-5692"  label-idx="1" cursor="move" transform="matrix(1,0,0,1,2915.84423828125,914.5211181640625)" style="cursor: default;"><rect joint-selector="rect" id="v-5697" fill="#ffffff" rx="3" ry="3" x="-26.531200408935547" y="-10.368319511413574" width="54.5674934387207" height="18.48998260498047"  pointer-events="none" style="display: block;"></rect><text joint-selector="text" id="v-5696" font-size="16.799999999999997px" xml:space="preserve" fill="#444444" text-anchor="middle" pointer-events="none" font-family="Tahoma, Verdana, Helvetica, Arial" font-weight="normal"  style="display: block;"><tspan dy="0.3em" >[HTTP]</tspan></text></g><g id="v-5693"  label-idx="2" cursor="move" transform="matrix(1,0,0,1,2854.41650390625,860.6434936523438)" style="cursor: default;"><rect joint-selector="rect" id="v-5699" fill="#ffffff" rx="3" ry="3" x="0" y="1.1368683772161603e-13" width="0" height="0"  display="none"></rect><text joint-selector="text" id="v-5698" fill="#000000" font-size="14" text-anchor="middle" text-vertical-anchor="middle" pointer-events="none"></text></g></g></g><!--z-index:34--><g   id="j_418"  style="opacity: 1;"><path fill="none" cursor="pointer" stroke="transparent" stroke-linecap="round" joint-selector="wrapper" id="v-5719" stroke-width="10" stroke-linejoin="round" d="M 3184.23 1475.46 L 3142 1521 C 3137.333333333333 1525.5244444444443 3135 1531.191111111111 3135 1538 L 3135 1539 C 3135 1545.822222222222 3138.333333333333 1549.4888888888886 3145 1550 L 3350 1570 C 3356.6666666666665 1570.4533333333331 3363.333333333333 1570.4533333333331 3370 1570 L 3575 1550 C 3581.6666666666665 1549.4888888888886 3585 1545.822222222222 3585 1539 L 3585 1538 C 3585 1531.191111111111 3582.6666666666665 1525.5244444444443 3578 1521 L 3535.77 1475.46"></path><path fill="none" pointer-events="none" joint-selector="line" id="v-5718" stroke="#444444" stroke-width="2" stroke-linejoin="round" stroke-dasharray="8 8" d="M 3184.23 1475.46 L 3142 1521 C 3137.333333333333 1525.5244444444443 3135 1531.191111111111 3135 1538 L 3135 1539 C 3135 1545.822222222222 3138.333333333333 1549.4888888888886 3145 1550 L 3350 1570 C 3356.6666666666665 1570.4533333333331 3363.333333333333 1570.4533333333331 3370 1570 L 3575 1550 C 3581.6666666666665 1549.4888888888886 3585 1545.822222222222 3585 1539 L 3585 1538 C 3585 1531.191111111111 3582.6666666666665 1525.5244444444443 3578 1521 L 3535.77 1475.46" marker-end="url(#v-21252848929)"></path><g id="v-5708" ><g id="v-5709"  label-idx="0" cursor="move" transform="matrix(1,0,0,1,3360,1546.8599853515625)" style="cursor: default;"><rect joint-selector="rect" id="v-5713" fill="#ffffff" rx="3" ry="3" x="-94.44818115234375" y="-57.57164764404297" width="190.1303253173828" height="114.13497161865234" pointer-events="none"  style="display: block;"></rect><text joint-selector="text" id="v-5712" font-size="24px" xml:space="preserve" fill="#444444" text-anchor="middle" pointer-events="none" font-family="Tahoma, Verdana, Helvetica, Arial" font-weight="normal"  style="display: block;"><tspan dy="-1.4999999999999998em" >2: 2. Stop all</tspan><tspan dy="1.2em" x="0" >A/B/C voters after</tspan><tspan dy="1.2em" x="0" >persisted log and</tspan><tspan dy="1.2em" x="0" >snapshots</tspan></text></g><g id="v-5710"  label-idx="1" cursor="move" transform="matrix(1,0,0,1,3360,1630.5400390625)" style="cursor: default;"><rect joint-selector="rect" id="v-5715" fill="#ffffff" rx="3" ry="3" x="-92.1850814819336" y="-20.448318481445312" width="184.3701629638672" height="38.64998245239258"  pointer-events="none" style="display: block;"></rect><text joint-selector="text" id="v-5714" font-size="16.799999999999997px" xml:space="preserve" fill="#444444" text-anchor="middle" pointer-events="none" font-family="Tahoma, Verdana, Helvetica, Arial" font-weight="normal"  style="display: block;"><tspan dy="-0.3em" >[Ratis gRPC/HTTP2 with</tspan><tspan dy="1.2em" x="0" >mTLS]</tspan></text></g><g id="v-5711"  label-idx="2" cursor="move" transform="matrix(1,0,0,1,3350,1649.02001953125)" style="cursor: default;"><rect joint-selector="rect" id="v-5717" fill="#ffffff" rx="3" ry="3" x="4.547473508864641e-13" y="0" width="0" height="0"  display="none"></rect><text joint-selector="text" id="v-5716" fill="#000000" font-size="14" text-anchor="middle" text-vertical-anchor="middle" pointer-events="none"></text></g></g></g><!--z-index:35--><g   id="j_419"  style="opacity: 1;"><path fill="none" cursor="pointer" stroke="transparent" stroke-linecap="round" joint-selector="wrapper" id="v-5737" stroke-width="10" stroke-linejoin="round" d="M 3222.65 2239.66 L 3142 2333 C 3137.333333333333 2338.0044444444443 3135 2344.0044444444443 3135 2351 L 3135 2357 C 3135 2363.502222222222 3138.333333333333 2367.1688888888884 3145 2368 L 3350 2392 C 3356.6666666666665 2392.6666666666665 3363.333333333333 2392.6666666666665 3370 2392 L 3575 2368 C 3581.6666666666665 2367.1688888888884 3585 2363.502222222222 3585 2357 L 3585 2351 C 3585 2344.0044444444443 3582.6666666666665 2338.0044444444443 3578 2333 L 3497.35 2239.66"></path><path fill="none" pointer-events="none" joint-selector="line" id="v-5736" stroke="#444444" stroke-width="2" stroke-linejoin="round" stroke-dasharray="8 8" d="M 3222.65 2239.66 L 3142 2333 C 3137.333333333333 2338.0044444444443 3135 2344.0044444444443 3135 2351 L 3135 2357 C 3135 2363.502222222222 3138.333333333333 2367.1688888888884 3145 2368 L 3350 2392 C 3356.6666666666665 2392.6666666666665 3363.333333333333 2392.6666666666665 3370 2392 L 3575 2368 C 3581.6666666666665 2367.1688888888884 3585 2363.502222222222 3585 2357 L 3585 2351 C 3585 2344.0044444444443 3582.6666666666665 2338.0044444444443 3578 2333 L 3497.35 2239.66" marker-end="url(#v-21252848929)"></path><g id="v-5726" ><g id="v-5727"  label-idx="0" cursor="move" transform="matrix(1,0,0,1,3360,2369.02001953125)" style="cursor: default;"><rect joint-selector="rect" id="v-5731" fill="#ffffff" rx="3" ry="3" x="-96.44644927978516" y="-86.37165069580078" width="193.2471160888672" height="171.7349853515625" pointer-events="none"  style="display: block;"></rect><text joint-selector="text" id="v-5730" font-size="24px" xml:space="preserve" fill="#444444" text-anchor="middle" pointer-events="none" font-family="Tahoma, Verdana, Helvetica, Arial" font-weight="normal"  style="display: block;"><tspan dy="-2.7em" >3: 3. Stop all</tspan><tspan dy="1.2em" x="0" >A/B/C replica</tspan><tspan dy="1.2em" x="0" >servers with</tspan><tspan dy="1.2em" x="0" >published artifacts</tspan><tspan dy="1.2em" x="0" >on independent</tspan><tspan dy="1.2em" x="0" >roots</tspan></text></g><g id="v-5728"  label-idx="1" cursor="move" transform="matrix(1,0,0,1,3360,2481.5)" style="cursor: default;"><rect joint-selector="rect" id="v-5733" fill="#ffffff" rx="3" ry="3" x="-96.85572814941406" y="-20.448318481445312" width="193.71145629882812" height="38.64998245239258"  pointer-events="none" style="display: block;"></rect><text joint-selector="text" id="v-5732" font-size="16.799999999999997px" xml:space="preserve" fill="#444444" text-anchor="middle" pointer-events="none" font-family="Tahoma, Verdana, Helvetica, Arial" font-weight="normal"  style="display: block;"><tspan dy="-0.3em" >[Application gRPC/HTTP2</tspan><tspan dy="1.2em" x="0" >streaming with mTLS]</tspan></text></g><g id="v-5729"  label-idx="2" cursor="move" transform="matrix(1,0,0,1,3350,2499.97998046875)" style="cursor: default;"><rect joint-selector="rect" id="v-5735" fill="#ffffff" rx="3" ry="3" x="4.547473508864641e-13" y="0" width="0" height="0"  display="none"></rect><text joint-selector="text" id="v-5734" fill="#000000" font-size="14" text-anchor="middle" text-vertical-anchor="middle" pointer-events="none"></text></g></g></g><!--z-index:36--><g   id="j_420"  style="opacity: 1;"><path fill="none" cursor="pointer" stroke="transparent" stroke-linecap="round" joint-selector="wrapper" id="v-5755" stroke-width="10" stroke-linejoin="round" d="M 3251.37 1475.46 L 3140 1667 C 3136.6666666666665 1672.7511111111112 3135 1679.0844444444444 3135 1686 L 3135 1724 C 3135 1730.6888888888889 3138.333333333333 1735.0222222222221 3145 1737 L 3350 1790 C 3356.6666666666665 1791.6266666666666 3363.333333333333 1791.6266666666666 3370 1790 L 3575 1737 C 3581.6666666666665 1735.0222222222221 3585 1730.6888888888889 3585 1724 L 3585 1686 C 3585 1679.0844444444444 3583.333333333333 1672.7511111111112 3580 1667 L 3468.63 1475.46"></path><path fill="none" pointer-events="none" joint-selector="line" id="v-5754" stroke="#444444" stroke-width="2" stroke-linejoin="round" stroke-dasharray="8 8" d="M 3251.37 1475.46 L 3140 1667 C 3136.6666666666665 1672.7511111111112 3135 1679.0844444444444 3135 1686 L 3135 1724 C 3135 1730.6888888888889 3138.333333333333 1735.0222222222221 3145 1737 L 3350 1790 C 3356.6666666666665 1791.6266666666666 3363.333333333333 1791.6266666666666 3370 1790 L 3575 1737 C 3581.6666666666665 1735.0222222222221 3585 1730.6888888888889 3585 1724 L 3585 1686 C 3585 1679.0844444444444 3583.333333333333 1672.7511111111112 3580 1667 L 3468.63 1475.46" marker-end="url(#v-21252848929)"></path><g id="v-5744" ><g id="v-5745"  label-idx="0" cursor="move" transform="matrix(1,0,0,1,3360,1767.739990234375)" style="cursor: default;"><rect joint-selector="rect" id="v-5749" fill="#ffffff" rx="3" ry="3" x="-94.44818115234375" y="-71.97164916992188" width="188.8963623046875" height="142.9349822998047" pointer-events="none"  style="display: block;"></rect><text joint-selector="text" id="v-5748" font-size="24px" xml:space="preserve" fill="#444444" text-anchor="middle" pointer-events="none" font-family="Tahoma, Verdana, Helvetica, Arial" font-weight="normal"  style="display: block;"><tspan dy="-2.1em" >4: 4. Restart each</tspan><tspan dy="1.2em" x="0" >voter from its</tspan><tspan dy="1.2em" x="0" >stable UUID and</tspan><tspan dy="1.2em" x="0" >non-empty Ratis</tspan><tspan dy="1.2em" x="0" >root</tspan></text></g><g id="v-5746"  label-idx="1" cursor="move" transform="matrix(1,0,0,1,3360,1865.8199462890625)" style="cursor: default;"><rect joint-selector="rect" id="v-5751" fill="#ffffff" rx="3" ry="3" x="-92.1850814819336" y="-20.448318481445312" width="184.3701629638672" height="38.64998245239258"  pointer-events="none" style="display: block;"></rect><text joint-selector="text" id="v-5750" font-size="16.799999999999997px" xml:space="preserve" fill="#444444" text-anchor="middle" pointer-events="none" font-family="Tahoma, Verdana, Helvetica, Arial" font-weight="normal"  style="display: block;"><tspan dy="-0.3em" >[Ratis gRPC/HTTP2 with</tspan><tspan dy="1.2em" x="0" >mTLS]</tspan></text></g><g id="v-5747"  label-idx="2" cursor="move" transform="matrix(1,0,0,1,3350,1884.300048828125)" style="cursor: default;"><rect joint-selector="rect" id="v-5753" fill="#ffffff" rx="3" ry="3" x="4.547473508864641e-13" y="0" width="0" height="0"  display="none"></rect><text joint-selector="text" id="v-5752" fill="#000000" font-size="14" text-anchor="middle" text-vertical-anchor="middle" pointer-events="none"></text></g></g></g><!--z-index:37--><g   id="j_421"  style="opacity: 1;"><path fill="none" cursor="pointer" stroke="transparent" stroke-linecap="round" joint-selector="wrapper" id="v-5773" stroke-width="10" stroke-linejoin="round" d="M 3272.57 2239.66 L 3140 2480 C 3136.6666666666665 2485.5644444444442 3135 2491.5644444444442 3135 2498 L 3135 2542 C 3135 2548.3688888888887 3138.333333333333 2552.3688888888887 3145 2554 L 3350 2612 C 3356.6666666666665 2613.84 3363.333333333333 2613.84 3370 2612 L 3575 2554 C 3581.6666666666665 2552.3688888888887 3585 2548.3688888888887 3585 2542 L 3585 2498 C 3585 2491.5644444444442 3583.333333333333 2485.5644444444442 3580 2480 L 3447.43 2239.66"></path><path fill="none" pointer-events="none" joint-selector="line" id="v-5772" stroke="#444444" stroke-width="2" stroke-linejoin="round" stroke-dasharray="8 8" d="M 3272.57 2239.66 L 3140 2480 C 3136.6666666666665 2485.5644444444442 3135 2491.5644444444442 3135 2498 L 3135 2542 C 3135 2548.3688888888887 3138.333333333333 2552.3688888888887 3145 2554 L 3350 2612 C 3356.6666666666665 2613.84 3363.333333333333 2613.84 3370 2612 L 3575 2554 C 3581.6666666666665 2552.3688888888887 3585 2548.3688888888887 3585 2542 L 3585 2498 C 3585 2491.5644444444442 3583.333333333333 2485.5644444444442 3580 2480 L 3447.43 2239.66" marker-end="url(#v-21252848929)"></path><g id="v-5762" ><g id="v-5763"  label-idx="0" cursor="move" transform="matrix(1,0,0,1,3360,2589.89990234375)" style="cursor: default;"><rect joint-selector="rect" id="v-5767" fill="#ffffff" rx="3" ry="3" x="-99.0947494506836" y="-43.17164611816406" width="198.1894989013672" height="85.33497619628906" pointer-events="none"  style="display: block;"></rect><text joint-selector="text" id="v-5766" font-size="24px" xml:space="preserve" fill="#444444" text-anchor="middle" pointer-events="none" font-family="Tahoma, Verdana, Helvetica, Arial" font-weight="normal"  style="display: block;"><tspan dy="-0.8999999999999999em" >5: 5. Restart each</tspan><tspan dy="1.2em" x="0" >replica server from</tspan><tspan dy="1.2em" x="0" >its object root</tspan></text></g><g id="v-5764"  label-idx="1" cursor="move" transform="matrix(1,0,0,1,3360,2659.179931640625)" style="cursor: default;"><rect joint-selector="rect" id="v-5769" fill="#ffffff" rx="3" ry="3" x="-96.85572814941406" y="-20.448318481445312" width="193.71145629882812" height="38.64998245239258"  pointer-events="none" style="display: block;"></rect><text joint-selector="text" id="v-5768" font-size="16.799999999999997px" xml:space="preserve" fill="#444444" text-anchor="middle" pointer-events="none" font-family="Tahoma, Verdana, Helvetica, Arial" font-weight="normal"  style="display: block;"><tspan dy="-0.3em" >[Application gRPC/HTTP2</tspan><tspan dy="1.2em" x="0" >streaming with mTLS]</tspan></text></g><g id="v-5765"  label-idx="2" cursor="move" transform="matrix(1,0,0,1,3350,2677.659912109375)" style="cursor: default;"><rect joint-selector="rect" id="v-5771" fill="#ffffff" rx="3" ry="3" x="4.547473508864641e-13" y="0" width="0" height="0"  display="none"></rect><text joint-selector="text" id="v-5770" fill="#000000" font-size="14" text-anchor="middle" text-vertical-anchor="middle" pointer-events="none"></text></g></g></g><!--z-index:38--><g   id="j_422"  style="opacity: 1;"><path fill="none" cursor="pointer" stroke="transparent" stroke-linecap="round" joint-selector="wrapper" id="v-5791" stroke-width="10" stroke-linejoin="round" d="M 1855 1684.62 L 2295 1684.62"></path><path fill="none" pointer-events="none" joint-selector="line" id="v-5790" stroke="#444444" stroke-width="2" stroke-linejoin="round" stroke-dasharray="8 8" d="M 1855 1684.62 L 2295 1684.62" marker-end="url(#v-21252848929)"></path><g id="v-5780" ><g id="v-5781"  label-idx="0" cursor="move" transform="matrix(1,0,0,1,2075,1671.219970703125)" style="cursor: default;"><rect joint-selector="rect" id="v-5785" fill="#ffffff" rx="3" ry="3" x="-99.11882781982422" y="-71.97164916992188" width="199.49014282226562" height="142.9349822998047" pointer-events="none"  style="display: block;"></rect><text joint-selector="text" id="v-5784" font-size="24px" xml:space="preserve" fill="#444444" text-anchor="middle" pointer-events="none" font-family="Tahoma, Verdana, Helvetica, Arial" font-weight="normal"  style="display: block;"><tspan dy="-2.1em" >6: 6. Node B</tspan><tspan dy="1.2em" x="0" >requests the</tspan><tspan dy="1.2em" x="0" >committed object</tspan><tspan dy="1.2em" x="0" >through the cluster</tspan><tspan dy="1.2em" x="0" >profile</tspan></text></g><g id="v-5782"  label-idx="1" cursor="move" transform="matrix(1,0,0,1,2075,1759.219970703125)" style="cursor: default;"><rect joint-selector="rect" id="v-5787" fill="#ffffff" rx="3" ry="3" x="-82.8919448852539" y="-10.368319511413574" width="167.2732696533203" height="18.48998260498047"  pointer-events="none" style="display: block;"></rect><text joint-selector="text" id="v-5786" font-size="16.799999999999997px" xml:space="preserve" fill="#444444" text-anchor="middle" pointer-events="none" font-family="Tahoma, Verdana, Helvetica, Arial" font-weight="normal"  style="display: block;"><tspan dy="0.3em" >[In-process Java calls]</tspan></text></g><g id="v-5783"  label-idx="2" cursor="move" transform="matrix(1,0,0,1,2065,1767.6199951171875)" style="cursor: default;"><rect joint-selector="rect" id="v-5789" fill="#ffffff" rx="3" ry="3" x="0" y="2.2737367544323206e-13" width="0" height="0"  display="none"></rect><text joint-selector="text" id="v-5788" fill="#000000" font-size="14" text-anchor="middle" text-vertical-anchor="middle" pointer-events="none"></text></g></g></g><!--z-index:39--><g   id="j_423"  style="opacity: 1;"><path fill="none" cursor="pointer" stroke="transparent" stroke-linecap="round" joint-selector="wrapper" id="v-5809" stroke-width="10" stroke-linejoin="round" d="M 2722.46 1483.38 L 2908 1299 C 2912.6666666666665 1294.3333333333333 2918.333333333333 1292 2925 1292 L 3135 1290.33"></path><path fill="none" pointer-events="none" joint-selector="line" id="v-5808" stroke="#444444" stroke-width="2" stroke-linejoin="round" stroke-dasharray="8 8" d="M 2722.46 1483.38 L 2908 1299 C 2912.6666666666665 1294.3333333333333 2918.333333333333 1292 2925 1292 L 3135 1290.33" marker-end="url(#v-21252848929)"></path><g id="v-5798" ><g id="v-5799"  label-idx="0" cursor="move" transform="matrix(1,0,0,1,2945.098876953125,1268.360107421875)" style="cursor: default;"><rect joint-selector="rect" id="v-5803" fill="#ffffff" rx="3" ry="3" x="-91.79987335205078" y="-71.97164916992188" width="186.1690216064453" height="142.9349822998047" pointer-events="none"  style="display: block;"></rect><text joint-selector="text" id="v-5802" font-size="24px" xml:space="preserve" fill="#444444" text-anchor="middle" pointer-events="none" font-family="Tahoma, Verdana, Helvetica, Arial" font-weight="normal"  style="display: block;"><tspan dy="-2.1em" >7: 7. Resolve</tspan><tspan dy="1.2em" x="0" >recovered bucket</tspan><tspan dy="1.2em" x="0" >and</tspan><tspan dy="1.2em" x="0" >object-reference</tspan><tspan dy="1.2em" x="0" >generations</tspan></text></g><g id="v-5800"  label-idx="1" cursor="move" transform="matrix(1,0,0,1,2945.098876953125,1366.440185546875)" style="cursor: default;"><rect joint-selector="rect" id="v-5805" fill="#ffffff" rx="3" ry="3" x="-93.7740707397461" y="-20.448318481445312" width="187.5481414794922" height="38.64998245239258"  pointer-events="none" style="display: block;"></rect><text joint-selector="text" id="v-5804" font-size="16.799999999999997px" xml:space="preserve" fill="#444444" text-anchor="middle" pointer-events="none" font-family="Tahoma, Verdana, Helvetica, Arial" font-weight="normal"  style="display: block;"><tspan dy="-0.3em" >[Transport-neutral control</tspan><tspan dy="1.2em" x="0" >ports]</tspan></text></g><g id="v-5801"  label-idx="2" cursor="move" transform="matrix(1,0,0,1,2886.41259765625,1403.594970703125)" style="cursor: default;"><rect joint-selector="rect" id="v-5807" fill="#ffffff" rx="3" ry="3" x="-4.547473508864641e-13" y="0" width="0" height="0"  display="none"></rect><text joint-selector="text" id="v-5806" fill="#000000" font-size="14" text-anchor="middle" text-vertical-anchor="middle" pointer-events="none"></text></g></g></g><!--z-index:40--><g   id="j_424"  style="opacity: 1;"><path fill="none" cursor="pointer" stroke="transparent" stroke-linecap="round" joint-selector="wrapper" id="v-5827" stroke-width="10" stroke-linejoin="round" d="M 2718.28 1885.86 L 2908 2078 C 2912.6666666666665 2083.0133333333333 2918.333333333333 2085.3466666666664 2925 2085 L 3135 2083.59"></path><path fill="none" pointer-events="none" joint-selector="line" id="v-5826" stroke="#444444" stroke-width="2" stroke-linejoin="round" stroke-dasharray="8 8" d="M 2718.28 1885.86 L 2908 2078 C 2912.6666666666665 2083.0133333333333 2918.333333333333 2085.3466666666664 2925 2085 L 3135 2083.59" marker-end="url(#v-21252848929)"></path><g id="v-5816" ><g id="v-5817"  label-idx="0" cursor="move" transform="matrix(1,0,0,1,2941.77587890625,2061.407470703125)" style="cursor: default;"><rect joint-selector="rect" id="v-5821" fill="#ffffff" rx="3" ry="3" x="-95.12229919433594" y="-57.57164764404297" width="190.5711669921875" height="114.13497161865234" pointer-events="none"  style="display: block;"></rect><text joint-selector="text" id="v-5820" font-size="24px" xml:space="preserve" fill="#444444" text-anchor="middle" pointer-events="none" font-family="Tahoma, Verdana, Helvetica, Arial" font-weight="normal"  style="display: block;"><tspan dy="-1.4999999999999998em" >8: 8. Validate</tspan><tspan dy="1.2em" x="0" >length and</tspan><tspan dy="1.2em" x="0" >checksum and</tspan><tspan dy="1.2em" x="0" >return exact bytes</tspan></text></g><g id="v-5818"  label-idx="1" cursor="move" transform="matrix(1,0,0,1,2941.77587890625,2145.08740234375)" style="cursor: default;"><rect joint-selector="rect" id="v-5823" fill="#ffffff" rx="3" ry="3" x="-93.29255676269531" y="-20.448318481445312" width="189.57809448242188" height="38.64998245239258"  pointer-events="none" style="display: block;"></rect><text joint-selector="text" id="v-5822" font-size="16.799999999999997px" xml:space="preserve" fill="#444444" text-anchor="middle" pointer-events="none" font-family="Tahoma, Verdana, Helvetica, Arial" font-weight="normal"  style="display: block;"><tspan dy="-0.3em" >[Transport-neutral replica</tspan><tspan dy="1.2em" x="0" >ports]</tspan></text></g><g id="v-5819"  label-idx="2" cursor="move" transform="matrix(1,0,0,1,2883.600830078125,2142.09716796875)" style="cursor: default;"><rect joint-selector="rect" id="v-5825" fill="#ffffff" rx="3" ry="3" x="0" y="0" width="0" height="0"  display="none"></rect><text joint-selector="text" id="v-5824" fill="#000000" font-size="14" text-anchor="middle" text-vertical-anchor="middle" pointer-events="none"></text></g></g></g><!--z-index:41--><!--z-index:42--><!--z-index:43--><!--z-index:44--><!--z-index:45--><!--z-index:46--><!--z-index:47--><!--z-index:48--><!--z-index:49--><!--z-index:50--><!--z-index:51--><!--z-index:52--><!--z-index:53--><!--z-index:54--><!--z-index:55--><!--z-index:56--><!--z-index:57--><!--z-index:58--><!--z-index:59--><!--z-index:60--><!--z-index:61--><!--z-index:62--><!--z-index:63--><!--z-index:64--><!--z-index:65--><!--z-index:66--><!--z-index:67--><!--z-index:68--><!--z-index:69--><!--z-index:70--><!--z-index:71--><!--z-index:72--><!--z-index:73--><!--z-index:74--><!--z-index:75--><!--z-index:76--><!--z-index:77--><!--z-index:78--><!--z-index:79--><!--z-index:80--><!--z-index:81--><!--z-index:82--><!--z-index:83--><!--z-index:84--><!--z-index:85--><!--z-index:86--><!--z-index:87--><!--z-index:88--><!--z-index:89--><!--z-index:90--><!--z-index:91--><!--z-index:92--><!--z-index:93--><!--z-index:94--><!--z-index:95--></g><g  style="user-select: none;"></g><g ></g><g  display="none"></g></g></svg>