<svg xmlns="http://www.w3.org/2000/svg" xmlns:xlink="http://www.w3.org/1999/xlink" version="1.1" width="4060" height="1229" style="width: 4060px; height: 1229px; background: #ffffff" viewBox="0 0 4060 1229"><style id="v-3" type="text/css">        .joint-element .scalable * {            vector-effect: non-scaling-stroke;        }    </style><defs joint-selector="defs"><marker id="v-21252848929" orient="auto" overflow="visible" markerUnits="userSpaceOnUse"><path id="v-52" stroke="#444444" fill="#444444" transform="rotate(180)" d="M 20 -10 0 0 20 10 Z"></path></marker></defs><g joint-selector="layers"  transform="matrix(1,0,0,1,0,0)"><g  style="pointer-events: none;"></g><g ></g><g  style="user-select: none;"><!--z-index:0--><!--z-index:1--><!--z-index:2--><!--z-index:3--><!--z-index:4--><!--z-index:5--><!--z-index:6--><!--z-index:7--><!--z-index:8--><!--z-index:9--><!--z-index:10--><!--z-index:11--><!--z-index:12--><!--z-index:13--><!--z-index:14--><!--z-index:15--><g   id="j_15"  transform="translate(20,1185)"><g id="v-104"><text  id="v-105" font-size="24px" xml:space="preserve" y="0.8em" font-weight="normal" text-anchor="start" fill="#444444" pointer-events="none" display="block" font-family="Tahoma, Verdana, Helvetica, Arial"><tspan dy="0" >lunedì 25 maggio 2026 alle ore 00:20 Ora legale dell’Europa centrale</tspan></text></g></g><!--z-index:16--><g   id="j_14"  transform="translate(20,1151)"><g id="v-102"><text  id="v-103" font-size="24px" xml:space="preserve" y="0.8em" font-weight="normal" text-anchor="start" fill="#444444" pointer-events="none" display="block" font-family="Tahoma, Verdana, Helvetica, Arial"><tspan dy="0" >s3-reactive-api-adapter exposes the S3 API, reactive-object-store and reactive-bucket-management implement core reactive capabilities, reactive-repository-application provides CQS interfaces, and reactive-infrastructure persists state reactively in-process.</tspan></text></g></g><!--z-index:17--><g   id="j_13"  transform="translate(20,1105)"><g id="v-100"><text  id="v-101" font-size="36px" xml:space="preserve" y="0.8em" font-weight="normal" text-anchor="start" fill="#444444" pointer-events="none" display="block" font-family="Tahoma, Verdana, Helvetica, Arial"><tspan dy="0" >C2 Container: Magrathea ObjectStorage</tspan></text></g></g><!--z-index:18--><g   id="j_16"  transform="translate(200,317)" style=""><g  id="v-109" style="opacity: 1;"><rect  x="0" y="160" width="400" height="240" rx="70" id="v-111" stroke-width="2" pointer-events="visiblePainted" fill="#ffffff" stroke="#e6e6e6" stroke-dasharray="" style="fill: rgb(255, 255, 255); stroke: rgb(230, 230, 230);"></rect><circle  cx="200" cy="88.88888888888889" r="88.88888888888889" id="v-110" stroke-width="2" pointer-events="visiblePainted" fill="#ffffff" stroke="#e6e6e6" stroke-dasharray="" style="fill: rgb(255, 255, 255); stroke: rgb(230, 230, 230);"></circle><line  x1="80" y1="266.6666666666667" x2="80" y2="400" id="v-117" stroke="#e6e6e6" stroke-width="1" stroke-dasharray="" style="stroke: rgb(230, 230, 230);"></line><line  x1="320" y1="266.6666666666667" x2="320" y2="400" id="v-118" stroke="#e6e6e6" stroke-width="1" stroke-dasharray="" style="stroke: rgb(230, 230, 230);"></line><text  id="v-112" font-size="33.599999999999994px" xml:space="preserve" y="188.10000000000002" font-weight="bold" text-anchor="middle" pointer-events="visible" font-family="Tahoma, Verdana, Helvetica, Arial" fill="#444444" dominant-baseline="hanging" transform="matrix(1,0,0,1,200,0)" style="fill: rgb(68, 68, 68);"><tspan dy="0" >User</tspan></text><text  id="v-113" font-size="16.799999999999997px" xml:space="preserve" y="229.70000000000002" text-anchor="middle" font-family="Tahoma, Verdana, Helvetica, Arial" fill="#444444" dominant-baseline="hanging" transform="matrix(1,0,0,1,200,0)" style="display: block; fill: rgb(68, 68, 68);"><tspan dy="0" >[Person]</tspan></text><text  id="v-114" font-size="24px" xml:space="preserve" y="261.5" text-anchor="middle" font-family="Tahoma, Verdana, Helvetica, Arial" fill="#444444" dominant-baseline="hanging" transform="matrix(1,0,0,1,200,0)" style="display: block; fill: rgb(68, 68, 68);"><tspan dy="0" >End user or automated client</tspan><tspan dy="1.2em" x="0" >using AWS CLI, SDK, curl, or</tspan><tspan dy="1.2em" x="0" >another S3-compatible HTTP</tspan><tspan dy="1.2em" x="0" >client.</tspan></text><g  id="v-115" font-weight="normal" text-anchor="middle" color="#444444" transform="matrix(1,0,0,1,197.5,368)" display="none" style="fill: rgb(68, 68, 68);"><g ></g><g ></g><g ></g><g ></g></g><image  id="v-116"></image></g></g><!--z-index:19--><g   id="j_18"  transform="translate(940,142)" style="; opacity: 1;"><g id="v-135"><rect  id="v-136" width="2920" height="829" rx="20" ry="20" stroke-width="2" pointer-events="none" stroke="#0f5eaa" fill="#ffffff" opacity="1" stroke-dasharray=""></rect><text  id="v-137" font-size="33.599999999999994px" xml:space="preserve" y="790" font-weight="bold" text-anchor="start" pointer-events="visible" font-family="Tahoma, Verdana, Helvetica, Arial" fill="#1168bd" transform="matrix(1,0,0,1,15,0)"><tspan dy="0" >Magrathea ObjectStorage</tspan></text><text  id="v-138" font-size="16.799999999999997px" xml:space="preserve" y="814" font-weight="normal" text-anchor="start" pointer-events="visible" font-family="Tahoma, Verdana, Helvetica, Arial" fill="#1168bd" transform="matrix(1,0,0,1,15,0)"><tspan dy="0" >[Software System]</tspan></text><image  id="v-139" pointer-events="visible"></image></g></g><!--z-index:20--><g   id="j_17"  transform="translate(990,367)" style=""><g  id="v-128" style="opacity: 1;"><rect  id="v-129" rx="20" ry="20" stroke-width="2" pointer-events="visiblePainted" fill="#438dd5" stroke="#3c7fc0" stroke-dasharray="" width="450" height="300" style="fill: rgb(67, 141, 213); stroke: rgb(60, 127, 192);"></rect><text  id="v-130" font-size="33.599999999999994px" xml:space="preserve" y="33.620000000000005" font-weight="bold" text-anchor="middle" pointer-events="visible" font-family="Tahoma, Verdana, Helvetica, Arial" fill="#ffffff" dominant-baseline="hanging" transform="matrix(1,0,0,1,225,0)" style="fill: rgb(255, 255, 255);"><tspan dy="0" >s3-reactive-api-adapter</tspan></text><text  id="v-131" font-size="16.799999999999997px" xml:space="preserve" y="75.22" text-anchor="middle" font-family="Tahoma, Verdana, Helvetica, Arial" fill="#ffffff" dominant-baseline="hanging" transform="matrix(1,0,0,1,225,0)" style="display: block; fill: rgb(255, 255, 255);"><tspan dy="0" >[Container: Spring Boot 4 WebFlux, RouterFunction,</tspan><tspan dy="1.2em" x="0" >Java 21, Jackson XML]</tspan></text><text  id="v-132" font-size="24px" xml:space="preserve" y="127.17999999999999" text-anchor="middle" font-family="Tahoma, Verdana, Helvetica, Arial" fill="#ffffff" dominant-baseline="hanging" transform="matrix(1,0,0,1,225,0)" style="display: block; fill: rgb(255, 255, 255);"><tspan dy="0" >HTTP adapter that exposes the</tspan><tspan dy="1.2em" x="0" >S3-compatible REST API and</tspan><tspan dy="1.2em" x="0" >translates HTTP/XML/binary</tspan><tspan dy="1.2em" x="0" >requests into reactive application</tspan><tspan dy="1.2em" x="0" >use cases.</tspan></text><g  id="v-133" color="#ffffff" transform="matrix(1,0,0,1,210,268)" display="none" style="fill: rgb(255, 255, 255);"><g  transform="translate(5 0)"><svg xmlns="http://www.w3.org/2000/svg" width="20" height="20" fill="currentColor" viewBox="0 0 16 16"><path fill-rule="evenodd" d="M6.5 12a5.5 5.5 0 1 0 0-11 5.5 5.5 0 0 0 0 11zM13 6.5a6.5 6.5 0 1 1-13 0 6.5 6.5 0 0 1 13 0z"></path><path d="M10.344 11.742c.03.04.062.078.098.115l3.85 3.85a1 1 0 0 0 1.415-1.414l-3.85-3.85a1.007 1.007 0 0 0-.115-.1 6.538 6.538 0 0 1-1.398 1.4z"></path><path fill-rule="evenodd" d="M6.5 3a.5.5 0 0 1 .5.5V6h2.5a.5.5 0 0 1 0 1H7v2.5a.5.5 0 0 1-1 0V7H3.5a.5.5 0 0 1 0-1H6V3.5a.5.5 0 0 1 .5-.5z"></path></svg></g><g ></g><g ></g><g ></g></g><image  id="v-134"></image></g></g><!--z-index:21--><g   id="j_19"  transform="translate(1780,192)" style=""><g  id="v-149" style="opacity: 1;"><rect  id="v-150" rx="20" ry="20" stroke-width="2" pointer-events="visiblePainted" fill="#438dd5" stroke="#3c7fc0" stroke-dasharray="" width="450" height="300" style="fill: rgb(67, 141, 213); stroke: rgb(60, 127, 192);"></rect><text  id="v-151" font-size="33.599999999999994px" xml:space="preserve" y="33.620000000000005" font-weight="bold" text-anchor="middle" pointer-events="visible" font-family="Tahoma, Verdana, Helvetica, Arial" fill="#ffffff" dominant-baseline="hanging" transform="matrix(1,0,0,1,225,0)" style="fill: rgb(255, 255, 255);"><tspan dy="0" >reactive-object-store</tspan></text><text  id="v-152" font-size="16.799999999999997px" xml:space="preserve" y="75.22" text-anchor="middle" font-family="Tahoma, Verdana, Helvetica, Arial" fill="#ffffff" dominant-baseline="hanging" transform="matrix(1,0,0,1,225,0)" style="display: block; fill: rgb(255, 255, 255);"><tspan dy="0" >[Container: Java 21 reactive application/domain</tspan><tspan dy="1.2em" x="0" >services]</tspan></text><text  id="v-153" font-size="24px" xml:space="preserve" y="127.17999999999999" text-anchor="middle" font-family="Tahoma, Verdana, Helvetica, Arial" fill="#ffffff" dominant-baseline="hanging" transform="matrix(1,0,0,1,225,0)" style="display: block; fill: rgb(255, 255, 255);"><tspan dy="0" >Reactive object storage capability:</tspan><tspan dy="1.2em" x="0" >object upload, download, metadata</tspan><tspan dy="1.2em" x="0" >lookup, deletion and multipart object</tspan><tspan dy="1.2em" x="0" >workflows using reactive services</tspan><tspan dy="1.2em" x="0" >and domain aggregates.</tspan></text><g  id="v-154" color="#ffffff" transform="matrix(1,0,0,1,210,268)" display="none" style="fill: rgb(255, 255, 255);"><g  transform="translate(5 0)"><svg xmlns="http://www.w3.org/2000/svg" width="20" height="20" fill="currentColor" viewBox="0 0 16 16"><path fill-rule="evenodd" d="M6.5 12a5.5 5.5 0 1 0 0-11 5.5 5.5 0 0 0 0 11zM13 6.5a6.5 6.5 0 1 1-13 0 6.5 6.5 0 0 1 13 0z"></path><path d="M10.344 11.742c.03.04.062.078.098.115l3.85 3.85a1 1 0 0 0 1.415-1.414l-3.85-3.85a1.007 1.007 0 0 0-.115-.1 6.538 6.538 0 0 1-1.398 1.4z"></path><path fill-rule="evenodd" d="M6.5 3a.5.5 0 0 1 .5.5V6h2.5a.5.5 0 0 1 0 1H7v2.5a.5.5 0 0 1-1 0V7H3.5a.5.5 0 0 1 0-1H6V3.5a.5.5 0 0 1 .5-.5z"></path></svg></g><g ></g><g ></g><g ></g></g><image  id="v-155"></image></g></g><!--z-index:22--><g   id="j_20"  transform="translate(1780,542)" style=""><g  id="v-165" style="opacity: 1;"><rect  id="v-166" rx="20" ry="20" stroke-width="2" pointer-events="visiblePainted" fill="#438dd5" stroke="#3c7fc0" stroke-dasharray="" width="450" height="300" style="fill: rgb(67, 141, 213); stroke: rgb(60, 127, 192);"></rect><text  id="v-167" font-size="33.599999999999994px" xml:space="preserve" y="13.460000000000008" font-weight="bold" text-anchor="middle" pointer-events="visible" font-family="Tahoma, Verdana, Helvetica, Arial" fill="#ffffff" dominant-baseline="hanging" transform="matrix(1,0,0,1,225,0)" style="fill: rgb(255, 255, 255);"><tspan dy="0" >reactive-</tspan><tspan dy="1.2em" x="0" >bucket-management</tspan></text><text  id="v-168" font-size="16.799999999999997px" xml:space="preserve" y="95.38" text-anchor="middle" font-family="Tahoma, Verdana, Helvetica, Arial" fill="#ffffff" dominant-baseline="hanging" transform="matrix(1,0,0,1,225,0)" style="display: block; fill: rgb(255, 255, 255);"><tspan dy="0" >[Container: Java 21 reactive application/domain</tspan><tspan dy="1.2em" x="0" >services]</tspan></text><text  id="v-169" font-size="24px" xml:space="preserve" y="147.34" text-anchor="middle" font-family="Tahoma, Verdana, Helvetica, Arial" fill="#ffffff" dominant-baseline="hanging" transform="matrix(1,0,0,1,225,0)" style="display: block; fill: rgb(255, 255, 255);"><tspan dy="0" >Reactive bucket management</tspan><tspan dy="1.2em" x="0" >capability: bucket lifecycle,</tspan><tspan dy="1.2em" x="0" >metadata, configuration,</tspan><tspan dy="1.2em" x="0" >CORS/versioning and bucket-level</tspan><tspan dy="1.2em" x="0" >operations.</tspan></text><g  id="v-170" color="#ffffff" transform="matrix(1,0,0,1,210,268)" display="none" style="fill: rgb(255, 255, 255);"><g  transform="translate(5 0)"><svg xmlns="http://www.w3.org/2000/svg" width="20" height="20" fill="currentColor" viewBox="0 0 16 16"><path fill-rule="evenodd" d="M6.5 12a5.5 5.5 0 1 0 0-11 5.5 5.5 0 0 0 0 11zM13 6.5a6.5 6.5 0 1 1-13 0 6.5 6.5 0 0 1 13 0z"></path><path d="M10.344 11.742c.03.04.062.078.098.115l3.85 3.85a1 1 0 0 0 1.415-1.414l-3.85-3.85a1.007 1.007 0 0 0-.115-.1 6.538 6.538 0 0 1-1.398 1.4z"></path><path fill-rule="evenodd" d="M6.5 3a.5.5 0 0 1 .5.5V6h2.5a.5.5 0 0 1 0 1H7v2.5a.5.5 0 0 1-1 0V7H3.5a.5.5 0 0 1 0-1H6V3.5a.5.5 0 0 1 .5-.5z"></path></svg></g><g ></g><g ></g><g ></g></g><image  id="v-171"></image></g></g><!--z-index:23--><g   id="j_21"  transform="translate(2570,367)" style=""><g  id="v-181" style="opacity: 1;"><rect  id="v-182" rx="20" ry="20" stroke-width="2" pointer-events="visiblePainted" fill="#438dd5" stroke="#3c7fc0" stroke-dasharray="" width="450" height="300" style="fill: rgb(67, 141, 213); stroke: rgb(60, 127, 192);"></rect><text  id="v-183" font-size="33.599999999999994px" xml:space="preserve" y="-19.659999999999968" font-weight="bold" text-anchor="middle" pointer-events="visible" font-family="Tahoma, Verdana, Helvetica, Arial" fill="#ffffff" dominant-baseline="hanging" transform="matrix(1,0,0,1,225,0)" style="fill: rgb(255, 255, 255);"><tspan dy="0" >reactive-</tspan><tspan dy="1.2em" x="0" >repository-application</tspan></text><text  id="v-184" font-size="16.799999999999997px" xml:space="preserve" y="62.26000000000002" text-anchor="middle" font-family="Tahoma, Verdana, Helvetica, Arial" fill="#ffffff" dominant-baseline="hanging" transform="matrix(1,0,0,1,225,0)" style="display: block; fill: rgb(255, 255, 255);"><tspan dy="0" >[Container: Java 21 CQS interfaces]</tspan></text><text  id="v-185" font-size="24px" xml:space="preserve" y="94.06000000000002" text-anchor="middle" font-family="Tahoma, Verdana, Helvetica, Arial" fill="#ffffff" dominant-baseline="hanging" transform="matrix(1,0,0,1,225,0)" style="display: block; fill: rgb(255, 255, 255);"><tspan dy="0" >Command/Query repository</tspan><tspan dy="1.2em" x="0" >interfaces:</tspan><tspan dy="1.2em" x="0" >BucketCommandRepository,</tspan><tspan dy="1.2em" x="0" >BucketQueryRepository,</tspan><tspan dy="1.2em" x="0" >S3ObjectCommandRepository,</tspan><tspan dy="1.2em" x="0" >S3ObjectQueryRepository, Multipart</tspan><tspan dy="1.2em" x="0" >UploadCommandRepository,</tspan><tspan dy="1.2em" x="0" >MultipartUploadQueryRepository.</tspan></text><g  id="v-186" color="#ffffff" transform="matrix(1,0,0,1,210,268)" display="none" style="fill: rgb(255, 255, 255);"><g  transform="translate(5 0)"><svg xmlns="http://www.w3.org/2000/svg" width="20" height="20" fill="currentColor" viewBox="0 0 16 16"><path fill-rule="evenodd" d="M6.5 12a5.5 5.5 0 1 0 0-11 5.5 5.5 0 0 0 0 11zM13 6.5a6.5 6.5 0 1 1-13 0 6.5 6.5 0 0 1 13 0z"></path><path d="M10.344 11.742c.03.04.062.078.098.115l3.85 3.85a1 1 0 0 0 1.415-1.414l-3.85-3.85a1.007 1.007 0 0 0-.115-.1 6.538 6.538 0 0 1-1.398 1.4z"></path><path fill-rule="evenodd" d="M6.5 3a.5.5 0 0 1 .5.5V6h2.5a.5.5 0 0 1 0 1H7v2.5a.5.5 0 0 1-1 0V7H3.5a.5.5 0 0 1 0-1H6V3.5a.5.5 0 0 1 .5-.5z"></path></svg></g><g ></g><g ></g><g ></g></g><image  id="v-187"></image></g></g><!--z-index:24--><g   id="j_22"  transform="translate(3360,367)" style=""><g  id="v-197" style="opacity: 1;"><path  d="M 0,30 a 225,30 0,0,0 450 0 a 225,30 0,0,0 -450 0 l 0,240 a 225,30 0,0,0 450 0 l 0,-240" id="v-198" stroke-width="2" pointer-events="visiblePainted" fill="#438dd5" stroke="#3c7fc0" stroke-dasharray="" style="fill: rgb(67, 141, 213); stroke: rgb(60, 127, 192);"></path><rect  id="v-199" stroke-width="0" pointer-events="visiblePainted" fill="none" stroke="none" width="450" height="270" x="0" y="30"></rect><text  id="v-200" font-size="33.599999999999994px" xml:space="preserve" y="58.70000000000002" font-weight="bold" text-anchor="middle" pointer-events="visible" font-family="Tahoma, Verdana, Helvetica, Arial" fill="#ffffff" dominant-baseline="hanging" transform="matrix(1,0,0,1,225,0)" style="fill: rgb(255, 255, 255);"><tspan dy="0" >reactive-infrastructure</tspan></text><text  id="v-201" font-size="16.799999999999997px" xml:space="preserve" y="100.30000000000001" text-anchor="middle" font-family="Tahoma, Verdana, Helvetica, Arial" fill="#ffffff" dominant-baseline="hanging" transform="matrix(1,0,0,1,225,0)" style="display: block; fill: rgb(255, 255, 255);"><tspan dy="0" >[Container: Java 21, Reactor, ConcurrentHashMap]</tspan></text><text  id="v-202" font-size="24px" xml:space="preserve" y="132.10000000000002" text-anchor="middle" font-family="Tahoma, Verdana, Helvetica, Arial" fill="#ffffff" dominant-baseline="hanging" transform="matrix(1,0,0,1,225,0)" style="display: block; fill: rgb(255, 255, 255);"><tspan dy="0" >Reactive in-memory persistence: In</tspan><tspan dy="1.2em" x="0" >MemoryReactiveBucketRepository, I</tspan><tspan dy="1.2em" x="0" >nMemoryReactiveS3ObjectReposito</tspan><tspan dy="1.2em" x="0" >ry, InMemoryReactiveMultipartUploa</tspan><tspan dy="1.2em" x="0" >dRepository.</tspan></text><g  id="v-203" font-weight="normal" text-anchor="middle" color="#ffffff" transform="matrix(1,0,0,1,210,268)" display="none" style="fill: rgb(255, 255, 255);"><g  transform="translate(5 0)"><svg xmlns="http://www.w3.org/2000/svg" width="20" height="20" fill="currentColor" viewBox="0 0 16 16"><path fill-rule="evenodd" d="M6.5 12a5.5 5.5 0 1 0 0-11 5.5 5.5 0 0 0 0 11zM13 6.5a6.5 6.5 0 1 1-13 0 6.5 6.5 0 0 1 13 0z"></path><path d="M10.344 11.742c.03.04.062.078.098.115l3.85 3.85a1 1 0 0 0 1.415-1.414l-3.85-3.85a1.007 1.007 0 0 0-.115-.1 6.538 6.538 0 0 1-1.398 1.4z"></path><path fill-rule="evenodd" d="M6.5 3a.5.5 0 0 1 .5.5V6h2.5a.5.5 0 0 1 0 1H7v2.5a.5.5 0 0 1-1 0V7H3.5a.5.5 0 0 1 0-1H6V3.5a.5.5 0 0 1 .5-.5z"></path></svg></g><g ></g><g ></g><g ></g></g><image  id="v-204"></image></g></g><!--z-index:25--><g   id="j_23"  style="opacity: 1;"><path fill="none" cursor="pointer" stroke="transparent" stroke-linecap="round" joint-selector="wrapper" id="v-219" stroke-width="10" stroke-linejoin="round" d="M 600 517 L 990 517"></path><path fill="none" pointer-events="none" joint-selector="line" id="v-218" stroke="#444444" stroke-width="2" stroke-linejoin="round" stroke-dasharray="8 8" d="M 600 517 L 990 517" marker-end="url(#v-21252848929)"></path><g id="v-208" ><g id="v-209"  label-idx="0" cursor="move" transform="matrix(1,0,0,1,770,503.6000061035156)" style="cursor: default;"><rect joint-selector="rect" id="v-213" fill="#ffffff" rx="3" ry="3" x="-90.58159637451172" y="-43.82221984863281" width="182.81503295898438" height="85.37777709960938" pointer-events="none"  style="display: block;"></rect><text joint-selector="text" id="v-212" font-size="24px" xml:space="preserve" fill="#444444" text-anchor="middle" pointer-events="none" font-family="Tahoma, Verdana, Helvetica, Arial" font-weight="normal"  style="display: block;"><tspan dy="-0.8999999999999999em" >Sends S3 bucket</tspan><tspan dy="1.2em" x="0" >operations</tspan><tspan dy="1.2em" x="0" >requests</tspan></text></g><g id="v-210"  label-idx="1" cursor="move" transform="matrix(1,0,0,1,770,562.7999877929688)" style="cursor: default;"><rect joint-selector="rect" id="v-215" fill="#ffffff" rx="3" ry="3" x="-26.54079818725586" y="-8.848888397216797" width="53.950836181640625" height="16.66666603088379"  pointer-events="none" style="display: block;"></rect><text joint-selector="text" id="v-214" font-size="16.799999999999997px" xml:space="preserve" fill="#444444" text-anchor="middle" pointer-events="none" font-family="Tahoma, Verdana, Helvetica, Arial" font-weight="normal"  style="display: block;"><tspan dy="0.3em" >[HTTP]</tspan></text></g><g id="v-211"  label-idx="2" cursor="move" transform="matrix(1,0,0,1,785,571.2000122070312)" style="cursor: default;"><rect joint-selector="rect" id="v-217" fill="#ffffff" rx="3" ry="3" x="2.2737367544323206e-13" y="0" width="0" height="0"  display="none"></rect><text joint-selector="text" id="v-216" fill="#000000" font-size="14" text-anchor="middle" text-vertical-anchor="middle" pointer-events="none"></text></g></g></g><!--z-index:26--><g   id="j_24"  style="opacity: 1;"><path fill="none" cursor="pointer" stroke="transparent" stroke-linecap="round" joint-selector="wrapper" id="v-237" stroke-width="10" stroke-linejoin="round" d="M 1440 616.68 L 1601 688 C 1607 690.6666666666666 1613.3333333333333 692 1620 692 L 1780 692"></path><path fill="none" pointer-events="none" joint-selector="line" id="v-236" stroke="#444444" stroke-width="2" stroke-linejoin="round" stroke-dasharray="8 8" d="M 1440 616.68 L 1601 688 C 1607 690.6666666666666 1613.3333333333333 692 1620 692 L 1780 692" marker-end="url(#v-21252848929)"></path><g id="v-226" ><g id="v-227"  label-idx="0" cursor="move" transform="matrix(1,0,0,1,1610.212890625,677.5921630859375)" style="cursor: default;"><rect joint-selector="rect" id="v-231" fill="#ffffff" rx="3" ry="3" x="-87.890625" y="-43.82221984863281" width="175.78125" height="85.37777709960938" pointer-events="none"  style="display: block;"></rect><text joint-selector="text" id="v-230" font-size="24px" xml:space="preserve" fill="#444444" text-anchor="middle" pointer-events="none" font-family="Tahoma, Verdana, Helvetica, Arial" font-weight="normal"  style="display: block;"><tspan dy="-0.8999999999999999em" >Calls bucket</tspan><tspan dy="1.2em" x="0" >lifecycle and</tspan><tspan dy="1.2em" x="0" >listing use cases</tspan></text></g><g id="v-228"  label-idx="1" cursor="move" transform="matrix(1,0,0,1,1610.212890625,736.7921752929688)" style="cursor: default;"><rect joint-selector="rect" id="v-233" fill="#ffffff" rx="3" ry="3" x="-70.3125" y="-8.848888397216797" width="141.48936462402344" height="16.66666603088379"  pointer-events="none" style="display: block;"></rect><text joint-selector="text" id="v-232" font-size="16.799999999999997px" xml:space="preserve" fill="#444444" text-anchor="middle" pointer-events="none" font-family="Tahoma, Verdana, Helvetica, Arial" font-weight="normal"  style="display: block;"><tspan dy="0.3em" >[Java service calls]</tspan></text></g><g id="v-229"  label-idx="2" cursor="move" transform="matrix(1,0,0,1,1592.5897216796875,742.8722534179688)" style="cursor: default;"><rect joint-selector="rect" id="v-235" fill="#ffffff" rx="3" ry="3" x="0" y="0" width="0" height="0"  display="none"></rect><text joint-selector="text" id="v-234" fill="#000000" font-size="14" text-anchor="middle" text-vertical-anchor="middle" pointer-events="none"></text></g></g></g><!--z-index:27--><g   id="j_25"  style="opacity: 1;"><path fill="none" cursor="pointer" stroke="transparent" stroke-linecap="round" joint-selector="wrapper" id="v-255" stroke-width="10" stroke-linejoin="round" d="M 1440 417.32 L 1601 346 C 1607 343.3333333333333 1613.3333333333333 342 1620 342 L 1780 342"></path><path fill="none" pointer-events="none" joint-selector="line" id="v-254" stroke="#444444" stroke-width="2" stroke-linejoin="round" stroke-dasharray="8 8" d="M 1440 417.32 L 1601 346 C 1607 343.3333333333333 1613.3333333333333 342 1620 342 L 1780 342" marker-end="url(#v-21252848929)"></path><g id="v-244" ><g id="v-245"  label-idx="0" cursor="move" transform="matrix(1,0,0,1,1610.212890625,329.6078186035156)" style="cursor: default;"><rect joint-selector="rect" id="v-249" fill="#ffffff" rx="3" ry="3" x="-95.8767318725586" y="-29.42222023010254" width="192.31295776367188" height="56.57777786254883" pointer-events="none"  style="display: block;"></rect><text joint-selector="text" id="v-248" font-size="24px" xml:space="preserve" fill="#444444" text-anchor="middle" pointer-events="none" font-family="Tahoma, Verdana, Helvetica, Arial" font-weight="normal"  style="display: block;"><tspan dy="-0.3em" >Calls object listing</tspan><tspan dy="1.2em" x="0" >use cases</tspan></text></g><g id="v-246"  label-idx="1" cursor="move" transform="matrix(1,0,0,1,1610.212890625,374.4078369140625)" style="cursor: default;"><rect joint-selector="rect" id="v-251" fill="#ffffff" rx="3" ry="3" x="-70.3125" y="-8.848888397216797" width="141.48936462402344" height="16.66666603088379"  pointer-events="none" style="display: block;"></rect><text joint-selector="text" id="v-250" font-size="16.799999999999997px" xml:space="preserve" fill="#444444" text-anchor="middle" pointer-events="none" font-family="Tahoma, Verdana, Helvetica, Arial" font-weight="normal"  style="display: block;"><tspan dy="0.3em" >[Java service calls]</tspan></text></g><g id="v-247"  label-idx="2" cursor="move" transform="matrix(1,0,0,1,1592.5897216796875,385.1277770996094)" style="cursor: default;"><rect joint-selector="rect" id="v-253" fill="#ffffff" rx="3" ry="3" x="0" y="0" width="0" height="0"  display="none"></rect><text joint-selector="text" id="v-252" fill="#000000" font-size="14" text-anchor="middle" text-vertical-anchor="middle" pointer-events="none"></text></g></g></g><!--z-index:28--><g   id="j_26"  style="opacity: 1;"><path fill="none" cursor="pointer" stroke="transparent" stroke-linecap="round" joint-selector="wrapper" id="v-273" stroke-width="10" stroke-linejoin="round" d="M 2230 342 L 2390 342 C 2396.6666666666665 342 2403 343.3333333333333 2409 346 L 2570 415.86"></path><path fill="none" pointer-events="none" joint-selector="line" id="v-272" stroke="#444444" stroke-width="2" stroke-linejoin="round" stroke-dasharray="8 8" d="M 2230 342 L 2390 342 C 2396.6666666666665 342 2403 343.3333333333333 2409 346 L 2570 415.86" marker-end="url(#v-21252848929)"></path><g id="v-262" ><g id="v-263"  label-idx="0" cursor="move" transform="matrix(1,0,0,1,2399.527099609375,329.5536804199219)" style="cursor: default;"><rect joint-selector="rect" id="v-267" fill="#ffffff" rx="3" ry="3" x="-81.90103912353516" y="-58.22222137451172" width="164.3303680419922" height="114.17778015136719" pointer-events="none"  style="display: block;"></rect><text joint-selector="text" id="v-266" font-size="24px" xml:space="preserve" fill="#444444" text-anchor="middle" pointer-events="none" font-family="Tahoma, Verdana, Helvetica, Arial" font-weight="normal"  style="display: block;"><tspan dy="-1.4999999999999998em" >CQS command</tspan><tspan dy="1.2em" x="0" >interface for</tspan><tspan dy="1.2em" x="0" >S3Object</tspan><tspan dy="1.2em" x="0" >persistence</tspan></text></g><g id="v-264"  label-idx="1" cursor="move" transform="matrix(1,0,0,1,2399.527099609375,403.1536865234375)" style="cursor: default;"><rect joint-selector="rect" id="v-269" fill="#ffffff" rx="3" ry="3" x="-64.2578125" y="-8.848888397216797" width="129.4069061279297" height="16.66666603088379"  pointer-events="none" style="display: block;"></rect><text joint-selector="text" id="v-268" font-size="16.799999999999997px" xml:space="preserve" fill="#444444" text-anchor="middle" pointer-events="none" font-family="Tahoma, Verdana, Helvetica, Arial" font-weight="normal"  style="display: block;"><tspan dy="0.3em" >[Implemented by]</tspan></text></g><g id="v-265"  label-idx="2" cursor="move" transform="matrix(1,0,0,1,2397.1259765625,413.8147277832031)" style="cursor: default;"><rect joint-selector="rect" id="v-271" fill="#ffffff" rx="3" ry="3" x="0" y="0" width="0" height="0"  display="none"></rect><text joint-selector="text" id="v-270" fill="#000000" font-size="14" text-anchor="middle" text-vertical-anchor="middle" pointer-events="none"></text></g></g></g><!--z-index:29--><g   id="j_27"  style="opacity: 1;"><path fill="none" cursor="pointer" stroke="transparent" stroke-linecap="round" joint-selector="wrapper" id="v-291" stroke-width="10" stroke-linejoin="round" d="M 2230 692 L 2390 692 C 2396.6666666666665 692 2403 690.6666666666666 2409 688 L 2570 615.23"></path><path fill="none" pointer-events="none" joint-selector="line" id="v-290" stroke="#444444" stroke-width="2" stroke-linejoin="round" stroke-dasharray="8 8" d="M 2230 692 L 2390 692 C 2396.6666666666665 692 2403 690.6666666666666 2409 688 L 2570 615.23" marker-end="url(#v-21252848929)"></path><g id="v-280" ><g id="v-281"  label-idx="0" cursor="move" transform="matrix(1,0,0,1,2400.083740234375,677.5284423828125)" style="cursor: default;"><rect joint-selector="rect" id="v-285" fill="#ffffff" rx="3" ry="3" x="-81.90103912353516" y="-58.22222137451172" width="164.3303680419922" height="114.17778015136719" pointer-events="none"  style="display: block;"></rect><text joint-selector="text" id="v-284" font-size="24px" xml:space="preserve" fill="#444444" text-anchor="middle" pointer-events="none" font-family="Tahoma, Verdana, Helvetica, Arial" font-weight="normal"  style="display: block;"><tspan dy="-1.4999999999999998em" >CQS command</tspan><tspan dy="1.2em" x="0" >interface for</tspan><tspan dy="1.2em" x="0" >Bucket</tspan><tspan dy="1.2em" x="0" >persistence</tspan></text></g><g id="v-282"  label-idx="1" cursor="move" transform="matrix(1,0,0,1,2400.083740234375,751.1284790039062)" style="cursor: default;"><rect joint-selector="rect" id="v-287" fill="#ffffff" rx="3" ry="3" x="-64.2578125" y="-8.848888397216797" width="129.4069061279297" height="16.66666603088379"  pointer-events="none" style="display: block;"></rect><text joint-selector="text" id="v-286" font-size="16.799999999999997px" xml:space="preserve" fill="#444444" text-anchor="middle" pointer-events="none" font-family="Tahoma, Verdana, Helvetica, Arial" font-weight="normal"  style="display: block;"><tspan dy="0.3em" >[Implemented by]</tspan></text></g><g id="v-283"  label-idx="2" cursor="move" transform="matrix(1,0,0,1,2397.658447265625,757.1716918945312)" style="cursor: default;"><rect joint-selector="rect" id="v-289" fill="#ffffff" rx="3" ry="3" x="-4.547473508864641e-13" y="0" width="0" height="0"  display="none"></rect><text joint-selector="text" id="v-288" fill="#000000" font-size="14" text-anchor="middle" text-vertical-anchor="middle" pointer-events="none"></text></g></g></g><!--z-index:30--><g   id="j_28"  style="opacity: 1;"><path fill="none" cursor="pointer" stroke="transparent" stroke-linecap="round" joint-selector="wrapper" id="v-306" stroke-width="10" stroke-linejoin="round" d="M 3020 514.58 L 3360 516.04"></path><path fill="none" pointer-events="none" joint-selector="line" id="v-305" stroke="#444444" stroke-width="2" stroke-linejoin="round" stroke-dasharray="8 8" d="M 3020 514.58 L 3360 516.04" marker-end="url(#v-21252848929)"></path><g id="v-295" ><g id="v-296"  label-idx="0" cursor="move" transform="matrix(1,0,0,1,3190,501.9100036621094)" style="cursor: default;"><rect joint-selector="rect" id="v-300" fill="#ffffff" rx="3" ry="3" x="-85.24304962158203" y="-15.022221565246582" width="172.36717224121094" height="27.77777671813965" pointer-events="none"  style="display: block;"></rect><text joint-selector="text" id="v-299" font-size="24px" xml:space="preserve" fill="#444444" text-anchor="middle" pointer-events="none" font-family="Tahoma, Verdana, Helvetica, Arial" font-weight="normal"  style="display: block;"><tspan dy="0.3em" >Implemented by</tspan></text></g><g id="v-297"  label-idx="1" cursor="move" transform="matrix(1,0,0,1,3190,532.3099975585938)" style="cursor: default;"><rect joint-selector="rect" id="v-302" fill="#ffffff" rx="3" ry="3" x="-47.96006774902344" y="-8.848888397216797" width="96.7998046875" height="16.66666603088379"  pointer-events="none" style="display: block;"></rect><text joint-selector="text" id="v-301" font-size="16.799999999999997px" xml:space="preserve" fill="#444444" text-anchor="middle" pointer-events="none" font-family="Tahoma, Verdana, Helvetica, Arial" font-weight="normal"  style="display: block;"><tspan dy="0.3em" >[Implements]</tspan></text></g><g id="v-298"  label-idx="2" cursor="move" transform="matrix(1,0,0,1,3180,540.7100219726562)" style="cursor: default;"><rect joint-selector="rect" id="v-304" fill="#ffffff" rx="3" ry="3" x="0" y="0" width="0" height="0"  display="none"></rect><text joint-selector="text" id="v-303" fill="#000000" font-size="14" text-anchor="middle" text-vertical-anchor="middle" pointer-events="none"></text></g></g></g><!--z-index:31--></g><g  style="user-select: none;"></g><g ></g><g  display="none"></g></g></svg>