<svg xmlns="http://www.w3.org/2000/svg" xmlns:xlink="http://www.w3.org/1999/xlink" version="1.1" width="4060" height="1148" style="width: 4060px; height: 1148px; background: #ffffff" viewBox="0 0 4060 1148"><style id="v-3" type="text/css">        .joint-element .scalable * {            vector-effect: non-scaling-stroke;        }    </style><defs joint-selector="defs"><marker id="v-21252848929" orient="auto" overflow="visible" markerUnits="userSpaceOnUse"><path id="v-52" stroke="#444444" fill="#444444" transform="rotate(180)" d="M 20 -10 0 0 20 10 Z"></path></marker></defs><g joint-selector="layers"  transform="matrix(1,0,0,1,0,0)"><g  style="pointer-events: none;"></g><g ></g><g  style="user-select: none;"><!--z-index:0--><!--z-index:1--><!--z-index:2--><!--z-index:3--><!--z-index:4--><!--z-index:5--><!--z-index:6--><!--z-index:7--><!--z-index:8--><!--z-index:9--><!--z-index:10--><!--z-index:11--><!--z-index:12--><!--z-index:13--><!--z-index:14--><g   id="j_15"  transform="translate(20,1104)"><g id="v-104"><text  id="v-105" font-size="24px" xml:space="preserve" y="0.8em" font-weight="normal" text-anchor="start" fill="#444444" pointer-events="none" display="block" font-family="Tahoma, Verdana, Helvetica, Arial"><tspan dy="0" >domenica 24 maggio 2026 alle ore 01:57 Ora legale dell’Europa centrale</tspan></text></g></g><!--z-index:15--><g   id="j_14"  transform="translate(20,1070)"><g id="v-102"><text  id="v-103" font-size="24px" xml:space="preserve" y="0.8em" font-weight="normal" text-anchor="start" fill="#444444" pointer-events="none" display="block" font-family="Tahoma, Verdana, Helvetica, Arial"><tspan dy="0" >s3-api-adapter exposes the S3 API, object-store and bucket-managment implement core capabilities, and in-memory-repository persists state in-process.</tspan></text></g></g><!--z-index:16--><g   id="j_13"  transform="translate(20,1024)"><g id="v-100"><text  id="v-101" font-size="36px" xml:space="preserve" y="0.8em" font-weight="normal" text-anchor="start" fill="#444444" pointer-events="none" display="block" font-family="Tahoma, Verdana, Helvetica, Arial"><tspan dy="0" >C2 Container: Magrathea ObjectStorage</tspan></text></g></g><!--z-index:17--><g   id="j_16"  transform="translate(200,285)" style=""><g  id="v-109" style="opacity: 1;"><rect  x="0" y="160" width="400" height="240" rx="70" id="v-111" stroke-width="2" pointer-events="visiblePainted" fill="#ffffff" stroke="#e6e6e6" stroke-dasharray="" style="fill: rgb(255, 255, 255); stroke: rgb(230, 230, 230);"></rect><circle  cx="200" cy="88.88888888888889" r="88.88888888888889" id="v-110" stroke-width="2" pointer-events="visiblePainted" fill="#ffffff" stroke="#e6e6e6" stroke-dasharray="" style="fill: rgb(255, 255, 255); stroke: rgb(230, 230, 230);"></circle><line  x1="80" y1="266.6666666666667" x2="80" y2="400" id="v-117" stroke="#e6e6e6" stroke-width="1" stroke-dasharray="" style="stroke: rgb(230, 230, 230);"></line><line  x1="320" y1="266.6666666666667" x2="320" y2="400" id="v-118" stroke="#e6e6e6" stroke-width="1" stroke-dasharray="" style="stroke: rgb(230, 230, 230);"></line><text  id="v-112" font-size="33.599999999999994px" xml:space="preserve" y="188.10000000000002" font-weight="bold" text-anchor="middle" pointer-events="visible" font-family="Tahoma, Verdana, Helvetica, Arial" fill="#444444" dominant-baseline="hanging" transform="matrix(1,0,0,1,200,0)" style="fill: rgb(68, 68, 68);"><tspan dy="0" >User</tspan></text><text  id="v-113" font-size="16.799999999999997px" xml:space="preserve" y="229.70000000000002" text-anchor="middle" font-family="Tahoma, Verdana, Helvetica, Arial" fill="#444444" dominant-baseline="hanging" transform="matrix(1,0,0,1,200,0)" style="display: block; fill: rgb(68, 68, 68);"><tspan dy="0" >[Person]</tspan></text><text  id="v-114" font-size="24px" xml:space="preserve" y="261.5" text-anchor="middle" font-family="Tahoma, Verdana, Helvetica, Arial" fill="#444444" dominant-baseline="hanging" transform="matrix(1,0,0,1,200,0)" style="display: block; fill: rgb(68, 68, 68);"><tspan dy="0" >End user or automated client</tspan><tspan dy="1.2em" x="0" >using AWS CLI, SDK, curl, or</tspan><tspan dy="1.2em" x="0" >another S3-compatible HTTP</tspan><tspan dy="1.2em" x="0" >client.</tspan></text><g  id="v-115" font-weight="normal" text-anchor="middle" color="#444444" transform="matrix(1,0,0,1,197.5,368)" display="none" style="fill: rgb(68, 68, 68);"><g ></g><g ></g><g ></g><g ></g></g><image  id="v-116"></image></g></g><!--z-index:18--><g   id="j_18"  transform="translate(940,143)" style="; opacity: 1;"><g id="v-132"><rect  id="v-133" width="2920" height="748" rx="20" ry="20" stroke-width="2" pointer-events="none" stroke="#0f5eaa" fill="#ffffff" opacity="1" stroke-dasharray=""></rect><text  id="v-134" font-size="33.599999999999994px" xml:space="preserve" y="709" font-weight="bold" text-anchor="start" pointer-events="visible" font-family="Tahoma, Verdana, Helvetica, Arial" fill="#1168bd" transform="matrix(1,0,0,1,15,0)"><tspan dy="0" >Magrathea ObjectStorage</tspan></text><text  id="v-135" font-size="16.799999999999997px" xml:space="preserve" y="733" font-weight="normal" text-anchor="start" pointer-events="visible" font-family="Tahoma, Verdana, Helvetica, Arial" fill="#1168bd" transform="matrix(1,0,0,1,15,0)"><tspan dy="0" >[Software System]</tspan></text><image  id="v-136" pointer-events="visible"></image></g></g><!--z-index:19--><g   id="j_17"  transform="translate(990,335)" style=""><g  id="v-125" style="opacity: 1;"><rect  id="v-126" rx="20" ry="20" stroke-width="2" pointer-events="visiblePainted" fill="#438dd5" stroke="#3c7fc0" stroke-dasharray="" width="450" height="300" style="fill: rgb(67, 141, 213); stroke: rgb(60, 127, 192);"></rect><text  id="v-127" font-size="33.599999999999994px" xml:space="preserve" y="48.02000000000001" font-weight="bold" text-anchor="middle" pointer-events="visible" font-family="Tahoma, Verdana, Helvetica, Arial" fill="#ffffff" dominant-baseline="hanging" transform="matrix(1,0,0,1,225,0)" style="fill: rgb(255, 255, 255);"><tspan dy="0" >s3-api-adapter</tspan></text><text  id="v-128" font-size="16.799999999999997px" xml:space="preserve" y="89.62" text-anchor="middle" font-family="Tahoma, Verdana, Helvetica, Arial" fill="#ffffff" dominant-baseline="hanging" transform="matrix(1,0,0,1,225,0)" style="display: block; fill: rgb(255, 255, 255);"><tspan dy="0" >[Container: Spring Boot 4 WebFlux, RouterFunction,</tspan><tspan dy="1.2em" x="0" >Java 21, Jackson XML]</tspan></text><text  id="v-129" font-size="24px" xml:space="preserve" y="141.57999999999998" text-anchor="middle" font-family="Tahoma, Verdana, Helvetica, Arial" fill="#ffffff" dominant-baseline="hanging" transform="matrix(1,0,0,1,225,0)" style="display: block; fill: rgb(255, 255, 255);"><tspan dy="0" >HTTP adapter that exposes the</tspan><tspan dy="1.2em" x="0" >S3-compatible REST API and</tspan><tspan dy="1.2em" x="0" >translates HTTP/XML/binary</tspan><tspan dy="1.2em" x="0" >requests into application use cases.</tspan></text><g  id="v-130" color="#ffffff" transform="matrix(1,0,0,1,210,268)" display="none" style="fill: rgb(255, 255, 255);"><g  transform="translate(5 0)"><svg xmlns="http://www.w3.org/2000/svg" width="20" height="20" fill="currentColor" viewBox="0 0 16 16"><path fill-rule="evenodd" d="M6.5 12a5.5 5.5 0 1 0 0-11 5.5 5.5 0 0 0 0 11zM13 6.5a6.5 6.5 0 1 1-13 0 6.5 6.5 0 0 1 13 0z"></path><path d="M10.344 11.742c.03.04.062.078.098.115l3.85 3.85a1 1 0 0 0 1.415-1.414l-3.85-3.85a1.007 1.007 0 0 0-.115-.1 6.538 6.538 0 0 1-1.398 1.4z"></path><path fill-rule="evenodd" d="M6.5 3a.5.5 0 0 1 .5.5V6h2.5a.5.5 0 0 1 0 1H7v2.5a.5.5 0 0 1-1 0V7H3.5a.5.5 0 0 1 0-1H6V3.5a.5.5 0 0 1 .5-.5z"></path></svg></g><g ></g><g ></g><g ></g></g><image  id="v-131"></image></g></g><!--z-index:20--><g   id="j_19"  transform="translate(1780,462)" style=""><g  id="v-143" style="opacity: 1;"><rect  id="v-144" rx="20" ry="20" stroke-width="2" pointer-events="visiblePainted" fill="#438dd5" stroke="#3c7fc0" stroke-dasharray="" width="450" height="300" style="fill: rgb(67, 141, 213); stroke: rgb(60, 127, 192);"></rect><text  id="v-145" font-size="33.599999999999994px" xml:space="preserve" y="58.10000000000001" font-weight="bold" text-anchor="middle" pointer-events="visible" font-family="Tahoma, Verdana, Helvetica, Arial" fill="#ffffff" dominant-baseline="hanging" transform="matrix(1,0,0,1,225,0)" style="fill: rgb(255, 255, 255);"><tspan dy="0" >object-store</tspan></text><text  id="v-146" font-size="16.799999999999997px" xml:space="preserve" y="99.7" text-anchor="middle" font-family="Tahoma, Verdana, Helvetica, Arial" fill="#ffffff" dominant-baseline="hanging" transform="matrix(1,0,0,1,225,0)" style="display: block; fill: rgb(255, 255, 255);"><tspan dy="0" >[Container: Java 21 application/domain services]</tspan></text><text  id="v-147" font-size="24px" xml:space="preserve" y="131.5" text-anchor="middle" font-family="Tahoma, Verdana, Helvetica, Arial" fill="#ffffff" dominant-baseline="hanging" transform="matrix(1,0,0,1,225,0)" style="display: block; fill: rgb(255, 255, 255);"><tspan dy="0" >Object storage capability: object</tspan><tspan dy="1.2em" x="0" >upload, download, metadata lookup,</tspan><tspan dy="1.2em" x="0" >deletion and multipart object</tspan><tspan dy="1.2em" x="0" >workflows.</tspan></text><g  id="v-148" color="#ffffff" transform="matrix(1,0,0,1,210,268)" display="none" style="fill: rgb(255, 255, 255);"><g  transform="translate(5 0)"><svg xmlns="http://www.w3.org/2000/svg" width="20" height="20" fill="currentColor" viewBox="0 0 16 16"><path fill-rule="evenodd" d="M6.5 12a5.5 5.5 0 1 0 0-11 5.5 5.5 0 0 0 0 11zM13 6.5a6.5 6.5 0 1 1-13 0 6.5 6.5 0 0 1 13 0z"></path><path d="M10.344 11.742c.03.04.062.078.098.115l3.85 3.85a1 1 0 0 0 1.415-1.414l-3.85-3.85a1.007 1.007 0 0 0-.115-.1 6.538 6.538 0 0 1-1.398 1.4z"></path><path fill-rule="evenodd" d="M6.5 3a.5.5 0 0 1 .5.5V6h2.5a.5.5 0 0 1 0 1H7v2.5a.5.5 0 0 1-1 0V7H3.5a.5.5 0 0 1 0-1H6V3.5a.5.5 0 0 1 .5-.5z"></path></svg></g><g ></g><g ></g><g ></g></g><image  id="v-149"></image></g></g><!--z-index:21--><g   id="j_20"  transform="translate(2570,193)" style=""><g  id="v-159" style="opacity: 1;"><rect  id="v-160" rx="20" ry="20" stroke-width="2" pointer-events="visiblePainted" fill="#438dd5" stroke="#3c7fc0" stroke-dasharray="" width="450" height="300" style="fill: rgb(67, 141, 213); stroke: rgb(60, 127, 192);"></rect><text  id="v-161" font-size="33.599999999999994px" xml:space="preserve" y="58.10000000000001" font-weight="bold" text-anchor="middle" pointer-events="visible" font-family="Tahoma, Verdana, Helvetica, Arial" fill="#ffffff" dominant-baseline="hanging" transform="matrix(1,0,0,1,225,0)" style="fill: rgb(255, 255, 255);"><tspan dy="0" >bucket-managment</tspan></text><text  id="v-162" font-size="16.799999999999997px" xml:space="preserve" y="99.7" text-anchor="middle" font-family="Tahoma, Verdana, Helvetica, Arial" fill="#ffffff" dominant-baseline="hanging" transform="matrix(1,0,0,1,225,0)" style="display: block; fill: rgb(255, 255, 255);"><tspan dy="0" >[Container: Java 21 application/domain services]</tspan></text><text  id="v-163" font-size="24px" xml:space="preserve" y="131.5" text-anchor="middle" font-family="Tahoma, Verdana, Helvetica, Arial" fill="#ffffff" dominant-baseline="hanging" transform="matrix(1,0,0,1,225,0)" style="display: block; fill: rgb(255, 255, 255);"><tspan dy="0" >Bucket management capability:</tspan><tspan dy="1.2em" x="0" >bucket lifecycle, metadata,</tspan><tspan dy="1.2em" x="0" >configuration, CORS/versioning and</tspan><tspan dy="1.2em" x="0" >bucket-level operations.</tspan></text><g  id="v-164" color="#ffffff" transform="matrix(1,0,0,1,210,268)" display="none" style="fill: rgb(255, 255, 255);"><g  transform="translate(5 0)"><svg xmlns="http://www.w3.org/2000/svg" width="20" height="20" fill="currentColor" viewBox="0 0 16 16"><path fill-rule="evenodd" d="M6.5 12a5.5 5.5 0 1 0 0-11 5.5 5.5 0 0 0 0 11zM13 6.5a6.5 6.5 0 1 1-13 0 6.5 6.5 0 0 1 13 0z"></path><path d="M10.344 11.742c.03.04.062.078.098.115l3.85 3.85a1 1 0 0 0 1.415-1.414l-3.85-3.85a1.007 1.007 0 0 0-.115-.1 6.538 6.538 0 0 1-1.398 1.4z"></path><path fill-rule="evenodd" d="M6.5 3a.5.5 0 0 1 .5.5V6h2.5a.5.5 0 0 1 0 1H7v2.5a.5.5 0 0 1-1 0V7H3.5a.5.5 0 0 1 0-1H6V3.5a.5.5 0 0 1 .5-.5z"></path></svg></g><g ></g><g ></g><g ></g></g><image  id="v-165"></image></g></g><!--z-index:22--><g   id="j_21"  transform="translate(3360,335)" style=""><g  id="v-175" style="opacity: 1;"><path  d="M 0,30 a 225,30 0,0,0 450 0 a 225,30 0,0,0 -450 0 l 0,240 a 225,30 0,0,0 450 0 l 0,-240" id="v-176" stroke-width="2" pointer-events="visiblePainted" fill="#438dd5" stroke="#3c7fc0" stroke-dasharray="" style="fill: rgb(67, 141, 213); stroke: rgb(60, 127, 192);"></path><rect  id="v-177" stroke-width="0" pointer-events="visiblePainted" fill="none" stroke="none" width="450" height="270" x="0" y="30"></rect><text  id="v-178" font-size="33.599999999999994px" xml:space="preserve" y="44.30000000000001" font-weight="bold" text-anchor="middle" pointer-events="visible" font-family="Tahoma, Verdana, Helvetica, Arial" fill="#ffffff" dominant-baseline="hanging" transform="matrix(1,0,0,1,225,0)" style="fill: rgb(255, 255, 255);"><tspan dy="0" >in-memory-repository</tspan></text><text  id="v-179" font-size="16.799999999999997px" xml:space="preserve" y="85.9" text-anchor="middle" font-family="Tahoma, Verdana, Helvetica, Arial" fill="#ffffff" dominant-baseline="hanging" transform="matrix(1,0,0,1,225,0)" style="display: block; fill: rgb(255, 255, 255);"><tspan dy="0" >[Container: Java 21, ConcurrentHashMap]</tspan></text><text  id="v-180" font-size="24px" xml:space="preserve" y="117.7" text-anchor="middle" font-family="Tahoma, Verdana, Helvetica, Arial" fill="#ffffff" dominant-baseline="hanging" transform="matrix(1,0,0,1,225,0)" style="display: block; fill: rgb(255, 255, 255);"><tspan dy="0" >In-process repository</tspan><tspan dy="1.2em" x="0" >implementation for bucket metadata,</tspan><tspan dy="1.2em" x="0" >object metadata/content and</tspan><tspan dy="1.2em" x="0" >multipart upload state. It is not an</tspan><tspan dy="1.2em" x="0" >external database and is reset when</tspan><tspan dy="1.2em" x="0" >the process stops.</tspan></text><g  id="v-181" font-weight="normal" text-anchor="middle" color="#ffffff" transform="matrix(1,0,0,1,210,268)" display="none" style="fill: rgb(255, 255, 255);"><g  transform="translate(5 0)"><svg xmlns="http://www.w3.org/2000/svg" width="20" height="20" fill="currentColor" viewBox="0 0 16 16"><path fill-rule="evenodd" d="M6.5 12a5.5 5.5 0 1 0 0-11 5.5 5.5 0 0 0 0 11zM13 6.5a6.5 6.5 0 1 1-13 0 6.5 6.5 0 0 1 13 0z"></path><path d="M10.344 11.742c.03.04.062.078.098.115l3.85 3.85a1 1 0 0 0 1.415-1.414l-3.85-3.85a1.007 1.007 0 0 0-.115-.1 6.538 6.538 0 0 1-1.398 1.4z"></path><path fill-rule="evenodd" d="M6.5 3a.5.5 0 0 1 .5.5V6h2.5a.5.5 0 0 1 0 1H7v2.5a.5.5 0 0 1-1 0V7H3.5a.5.5 0 0 1 0-1H6V3.5a.5.5 0 0 1 .5-.5z"></path></svg></g><g ></g><g ></g><g ></g></g><image  id="v-182"></image></g></g><!--z-index:23--><g   id="j_22"  style="opacity: 1;"><path fill="none" cursor="pointer" stroke="transparent" stroke-linecap="round" joint-selector="wrapper" id="v-197" stroke-width="10" stroke-linejoin="round" d="M 600 485 L 990 485"></path><path fill="none" pointer-events="none" joint-selector="line" id="v-196" stroke="#444444" stroke-width="2" stroke-linejoin="round" stroke-dasharray="8 8" d="M 600 485 L 990 485" marker-end="url(#v-21252848929)"></path><g id="v-186" ><g id="v-187"  label-idx="0" cursor="move" transform="matrix(1,0,0,1,770,471.6000061035156)" style="cursor: default;"><rect joint-selector="rect" id="v-191" fill="#ffffff" rx="3" ry="3" x="-90.58159637451172" y="-43.82221984863281" width="182.81503295898438" height="85.37777709960938" pointer-events="none"  style="display: block;"></rect><text joint-selector="text" id="v-190" font-size="24px" xml:space="preserve" fill="#444444" text-anchor="middle" pointer-events="none" font-family="Tahoma, Verdana, Helvetica, Arial" font-weight="normal"  style="display: block;"><tspan dy="-0.8999999999999999em" >Sends S3 bucket</tspan><tspan dy="1.2em" x="0" >operations</tspan><tspan dy="1.2em" x="0" >requests</tspan></text></g><g id="v-188"  label-idx="1" cursor="move" transform="matrix(1,0,0,1,770,530.7999877929688)" style="cursor: default;"><rect joint-selector="rect" id="v-193" fill="#ffffff" rx="3" ry="3" x="-26.54079818725586" y="-8.848888397216797" width="53.950836181640625" height="16.66666603088379"  pointer-events="none" style="display: block;"></rect><text joint-selector="text" id="v-192" font-size="16.799999999999997px" xml:space="preserve" fill="#444444" text-anchor="middle" pointer-events="none" font-family="Tahoma, Verdana, Helvetica, Arial" font-weight="normal"  style="display: block;"><tspan dy="0.3em" >[HTTP]</tspan></text></g><g id="v-189"  label-idx="2" cursor="move" transform="matrix(1,0,0,1,785,539.2000122070312)" style="cursor: default;"><rect joint-selector="rect" id="v-195" fill="#ffffff" rx="3" ry="3" x="2.2737367544323206e-13" y="0" width="0" height="0"  display="none"></rect><text joint-selector="text" id="v-194" fill="#000000" font-size="14" text-anchor="middle" text-vertical-anchor="middle" pointer-events="none"></text></g></g></g><!--z-index:24--><g   id="j_23"  style="opacity: 1;"><path fill="none" cursor="pointer" stroke="transparent" stroke-linecap="round" joint-selector="wrapper" id="v-215" stroke-width="10" stroke-linejoin="round" d="M 1440 375.95 L 1601 298 C 1607 295.04 1613.3333333333333 293.7066666666667 1620 294 L 2390 294 C 2396.6666666666665 293.7066666666667 2403.333333333333 294.04 2410 295 L 2570 314.84"></path><path fill="none" pointer-events="none" joint-selector="line" id="v-214" stroke="#444444" stroke-width="2" stroke-linejoin="round" stroke-dasharray="8 8" d="M 1440 375.95 L 1601 298 C 1607 295.04 1613.3333333333333 293.7066666666667 1620 294 L 2390 294 C 2396.6666666666665 293.7066666666667 2403.333333333333 294.04 2410 295 L 2570 314.84" marker-end="url(#v-21252848929)"></path><g id="v-204" ><g id="v-205"  label-idx="0" cursor="move" transform="matrix(1,0,0,1,2005.16455078125,280.6000061035156)" style="cursor: default;"><rect joint-selector="rect" id="v-209" fill="#ffffff" rx="3" ry="3" x="-87.890625" y="-43.82221984863281" width="175.78125" height="85.37777709960938" pointer-events="none"  style="display: block;"></rect><text joint-selector="text" id="v-208" font-size="24px" xml:space="preserve" fill="#444444" text-anchor="middle" pointer-events="none" font-family="Tahoma, Verdana, Helvetica, Arial" font-weight="normal"  style="display: block;"><tspan dy="-0.8999999999999999em" >Calls bucket</tspan><tspan dy="1.2em" x="0" >lifecycle and</tspan><tspan dy="1.2em" x="0" >listing use cases</tspan></text></g><g id="v-206"  label-idx="1" cursor="move" transform="matrix(1,0,0,1,2005.16455078125,339.79998779296875)" style="cursor: default;"><rect joint-selector="rect" id="v-211" fill="#ffffff" rx="3" ry="3" x="-70.3125" y="-8.848888397216797" width="141.48936462402344" height="16.66666603088379"  pointer-events="none" style="display: block;"></rect><text joint-selector="text" id="v-210" font-size="16.799999999999997px" xml:space="preserve" fill="#444444" text-anchor="middle" pointer-events="none" font-family="Tahoma, Verdana, Helvetica, Arial" font-weight="normal"  style="display: block;"><tspan dy="0.3em" >[Java service calls]</tspan></text></g><g id="v-207"  label-idx="2" cursor="move" transform="matrix(1,0,0,1,1986.3880615234375,348.20001220703125)" style="cursor: default;"><rect joint-selector="rect" id="v-213" fill="#ffffff" rx="3" ry="3" x="0" y="0" width="0" height="0"  display="none"></rect><text joint-selector="text" id="v-212" fill="#000000" font-size="14" text-anchor="middle" text-vertical-anchor="middle" pointer-events="none"></text></g></g></g><!--z-index:25--><g   id="j_24"  style="opacity: 1;"><path fill="none" cursor="pointer" stroke="transparent" stroke-linecap="round" joint-selector="wrapper" id="v-233" stroke-width="10" stroke-linejoin="round" d="M 1440 557.4 L 1600 609 C 1606.6666666666665 611.0666666666666 1613.3333333333333 612.0666666666666 1620 612 L 1780 612.06"></path><path fill="none" pointer-events="none" joint-selector="line" id="v-232" stroke="#444444" stroke-width="2" stroke-linejoin="round" stroke-dasharray="8 8" d="M 1440 557.4 L 1600 609 C 1606.6666666666665 611.0666666666666 1613.3333333333333 612.0666666666666 1620 612 L 1780 612.06" marker-end="url(#v-21252848929)"></path><g id="v-222" ><g id="v-223"  label-idx="0" cursor="move" transform="matrix(1,0,0,1,1610.1171875,597.91748046875)" style="cursor: default;"><rect joint-selector="rect" id="v-227" fill="#ffffff" rx="3" ry="3" x="-95.8767318725586" y="-29.42222023010254" width="192.31295776367188" height="56.57777786254883" pointer-events="none"  style="display: block;"></rect><text joint-selector="text" id="v-226" font-size="24px" xml:space="preserve" fill="#444444" text-anchor="middle" pointer-events="none" font-family="Tahoma, Verdana, Helvetica, Arial" font-weight="normal"  style="display: block;"><tspan dy="-0.3em" >Calls object listing</tspan><tspan dy="1.2em" x="0" >use cases</tspan></text></g><g id="v-224"  label-idx="1" cursor="move" transform="matrix(1,0,0,1,1610.1171875,642.7174682617188)" style="cursor: default;"><rect joint-selector="rect" id="v-229" fill="#ffffff" rx="3" ry="3" x="-70.3125" y="-8.848888397216797" width="141.48936462402344" height="16.66666603088379"  pointer-events="none" style="display: block;"></rect><text joint-selector="text" id="v-228" font-size="16.799999999999997px" xml:space="preserve" fill="#444444" text-anchor="middle" pointer-events="none" font-family="Tahoma, Verdana, Helvetica, Arial" font-weight="normal"  style="display: block;"><tspan dy="0.3em" >[Java service calls]</tspan></text></g><g id="v-225"  label-idx="2" cursor="move" transform="matrix(1,0,0,1,1595.8984375,650.3501586914062)" style="cursor: default;"><rect joint-selector="rect" id="v-231" fill="#ffffff" rx="3" ry="3" x="0" y="0" width="0" height="0"  display="none"></rect><text joint-selector="text" id="v-230" fill="#000000" font-size="14" text-anchor="middle" text-vertical-anchor="middle" pointer-events="none"></text></g></g></g><!--z-index:26--><g   id="j_25"  style="opacity: 1;"><path fill="none" cursor="pointer" stroke="transparent" stroke-linecap="round" joint-selector="wrapper" id="v-251" stroke-width="10" stroke-linejoin="round" d="M 2230 531.46 L 2391 474 C 2397 471.73333333333335 2403.333333333333 469.73333333333335 2410 468 L 2570 415.68"></path><path fill="none" pointer-events="none" joint-selector="line" id="v-250" stroke="#444444" stroke-width="2" stroke-linejoin="round" stroke-dasharray="8 8" d="M 2230 531.46 L 2391 474 C 2397 471.73333333333335 2403.333333333333 469.73333333333335 2410 468 L 2570 415.68" marker-end="url(#v-21252848929)"></path><g id="v-240" ><g id="v-241"  label-idx="0" cursor="move" transform="matrix(1,0,0,1,2400.138671875,447.3551940917969)" style="cursor: default;"><rect joint-selector="rect" id="v-245" fill="#ffffff" rx="3" ry="3" x="-87.02256774902344" y="-29.42222023010254" width="175.69931030273438" height="56.57777786254883" pointer-events="none"  style="display: block;"></rect><text joint-selector="text" id="v-244" font-size="24px" xml:space="preserve" fill="#444444" text-anchor="middle" pointer-events="none" font-family="Tahoma, Verdana, Helvetica, Arial" font-weight="normal"  style="display: block;"><tspan dy="-0.3em" >Validates bucket</tspan><tspan dy="1.2em" x="0" >existence</tspan></text></g><g id="v-242"  label-idx="1" cursor="move" transform="matrix(1,0,0,1,2400.138671875,502.23516845703125)" style="cursor: default;"><rect joint-selector="rect" id="v-247" fill="#ffffff" rx="3" ry="3" x="-74.04513549804688" y="-18.92888832092285" width="148.09027099609375" height="36.82666778564453"  pointer-events="none" style="display: block;"></rect><text joint-selector="text" id="v-246" font-size="16.799999999999997px" xml:space="preserve" fill="#444444" text-anchor="middle" pointer-events="none" font-family="Tahoma, Verdana, Helvetica, Arial" font-weight="normal"  style="display: block;"><tspan dy="-0.3em" >[Bucket lookup/read</tspan><tspan dy="1.2em" x="0" >collaboration]</tspan></text></g><g id="v-243"  label-idx="2" cursor="move" transform="matrix(1,0,0,1,2389.177001953125,521.0223999023438)" style="cursor: default;"><rect joint-selector="rect" id="v-249" fill="#ffffff" rx="3" ry="3" x="-4.547473508864641e-13" y="0" width="0" height="0"  display="none"></rect><text joint-selector="text" id="v-248" fill="#000000" font-size="14" text-anchor="middle" text-vertical-anchor="middle" pointer-events="none"></text></g></g></g><!--z-index:27--><g   id="j_26"  style="opacity: 1;"><path fill="none" cursor="pointer" stroke="transparent" stroke-linecap="round" joint-selector="wrapper" id="v-269" stroke-width="10" stroke-linejoin="round" d="M 2230 640.5 L 2390 661 C 2396.6666666666665 661.6933333333333 2403.333333333333 662.0266666666666 2410 662 L 3180 662 C 3186.6666666666665 662.0266666666666 3193 660.6933333333333 3199 658 L 3360 585.85"></path><path fill="none" pointer-events="none" joint-selector="line" id="v-268" stroke="#444444" stroke-width="2" stroke-linejoin="round" stroke-dasharray="8 8" d="M 2230 640.5 L 2390 661 C 2396.6666666666665 661.6933333333333 2403.333333333333 662.0266666666666 2410 662 L 3180 662 C 3186.6666666666665 662.0266666666666 3193 660.6933333333333 3199 658 L 3360 585.85" marker-end="url(#v-21252848929)"></path><g id="v-258" ><g id="v-259"  label-idx="0" cursor="move" transform="matrix(1,0,0,1,2794.8564453125,648.5999755859375)" style="cursor: default;"><rect joint-selector="rect" id="v-263" fill="#ffffff" rx="3" ry="3" x="-88.58506774902344" y="-72.6222152709961" width="177.17013549804688" height="142.977783203125" pointer-events="none"  style="display: block;"></rect><text joint-selector="text" id="v-262" font-size="24px" xml:space="preserve" fill="#444444" text-anchor="middle" pointer-events="none" font-family="Tahoma, Verdana, Helvetica, Arial" font-weight="normal"  style="display: block;"><tspan dy="-2.1em" >Reads/writes</tspan><tspan dy="1.2em" x="0" >object metadata,</tspan><tspan dy="1.2em" x="0" >bytes and</tspan><tspan dy="1.2em" x="0" >multipart upload</tspan><tspan dy="1.2em" x="0" >state</tspan></text></g><g id="v-260"  label-idx="1" cursor="move" transform="matrix(1,0,0,1,2794.8564453125,736.5999755859375)" style="cursor: default;"><rect joint-selector="rect" id="v-265" fill="#ffffff" rx="3" ry="3" x="-83.35503387451172" y="-8.848888397216797" width="167.57667541503906" height="16.66666603088379"  pointer-events="none" style="display: block;"></rect><text joint-selector="text" id="v-264" font-size="16.799999999999997px" xml:space="preserve" fill="#444444" text-anchor="middle" pointer-events="none" font-family="Tahoma, Verdana, Helvetica, Arial" font-weight="normal"  style="display: block;"><tspan dy="0.3em" >[Repository interfaces]</tspan></text></g><g id="v-261"  label-idx="2" cursor="move" transform="matrix(1,0,0,1,2792.324951171875,745)" style="cursor: default;"><rect joint-selector="rect" id="v-267" fill="#ffffff" rx="3" ry="3" x="0" y="0" width="0" height="0"  display="none"></rect><text joint-selector="text" id="v-266" fill="#000000" font-size="14" text-anchor="middle" text-vertical-anchor="middle" pointer-events="none"></text></g></g></g><!--z-index:28--><g   id="j_27"  style="opacity: 1;"><path fill="none" cursor="pointer" stroke="transparent" stroke-linecap="round" joint-selector="wrapper" id="v-287" stroke-width="10" stroke-linejoin="round" d="M 3020 343.28 L 3180 343 C 3186.6666666666665 343.3333333333333 3193 344.66666666666663 3199 347 L 3360 404.4"></path><path fill="none" pointer-events="none" joint-selector="line" id="v-286" stroke="#444444" stroke-width="2" stroke-linejoin="round" stroke-dasharray="8 8" d="M 3020 343.28 L 3180 343 C 3186.6666666666665 343.3333333333333 3193 344.66666666666663 3199 347 L 3360 404.4" marker-end="url(#v-21252848929)"></path><g id="v-276" ><g id="v-277"  label-idx="0" cursor="move" transform="matrix(1,0,0,1,3189.82421875,330.86566162109375)" style="cursor: default;"><rect joint-selector="rect" id="v-281" fill="#ffffff" rx="3" ry="3" x="-91.92707824707031" y="-43.82221984863281" width="184.38143920898438" height="85.37777709960938" pointer-events="none"  style="display: block;"></rect><text joint-selector="text" id="v-280" font-size="24px" xml:space="preserve" fill="#444444" text-anchor="middle" pointer-events="none" font-family="Tahoma, Verdana, Helvetica, Arial" font-weight="normal"  style="display: block;"><tspan dy="-0.8999999999999999em" >Reads/writes</tspan><tspan dy="1.2em" x="0" >bucket metadata</tspan><tspan dy="1.2em" x="0" >and configuration</tspan></text></g><g id="v-278"  label-idx="1" cursor="move" transform="matrix(1,0,0,1,3189.82421875,390.065673828125)" style="cursor: default;"><rect joint-selector="rect" id="v-283" fill="#ffffff" rx="3" ry="3" x="-83.35503387451172" y="-8.848888397216797" width="167.57667541503906" height="16.66666603088379"  pointer-events="none" style="display: block;"></rect><text joint-selector="text" id="v-282" font-size="16.799999999999997px" xml:space="preserve" fill="#444444" text-anchor="middle" pointer-events="none" font-family="Tahoma, Verdana, Helvetica, Arial" font-weight="normal"  style="display: block;"><tspan dy="0.3em" >[Repository interfaces]</tspan></text></g><g id="v-279"  label-idx="2" cursor="move" transform="matrix(1,0,0,1,3184.942626953125,399.7901306152344)" style="cursor: default;"><rect joint-selector="rect" id="v-285" fill="#ffffff" rx="3" ry="3" x="0" y="0" width="0" height="0"  display="none"></rect><text joint-selector="text" id="v-284" fill="#000000" font-size="14" text-anchor="middle" text-vertical-anchor="middle" pointer-events="none"></text></g></g></g><!--z-index:29--></g><g  style="user-select: none;"></g><g ></g><g  display="none"></g></g></svg>