<svg xmlns="http://www.w3.org/2000/svg" xmlns:xlink="http://www.w3.org/1999/xlink" version="1.1" width="6750" height="1161" style="width: 6750px; height: 1161px; background: #ffffff" viewBox="0 0 6750 1161"><style id="v-3" type="text/css">        .joint-element .scalable * {            vector-effect: non-scaling-stroke;        }    </style><defs joint-selector="defs"><marker id="v-21252848929" orient="auto" overflow="visible" markerUnits="userSpaceOnUse"><path id="v-65" stroke="#444444" fill="#444444" transform="rotate(180)" d="M 20 -10 0 0 20 10 Z"></path></marker><marker id="v-2-1424592063" orient="auto" overflow="visible" markerUnits="userSpaceOnUse"><path id="v-2343" stroke="#6b7280" fill="#6b7280" transform="rotate(180)" d="M 20 -10 0 0 20 10 Z"></path></marker></defs><g joint-selector="layers"  transform="matrix(1,0,0,1,0,0)"><g  style="pointer-events: none;"></g><g ></g><g  style="user-select: none;"><!--z-index:-4--><!--z-index:-3--><!--z-index:-2--><!--z-index:-1--><!--z-index:0--><!--z-index:1--><!--z-index:2--><!--z-index:3--><!--z-index:4--><!--z-index:5--><!--z-index:6--><!--z-index:7--><!--z-index:8--><!--z-index:9--><!--z-index:10--><!--z-index:11--><!--z-index:12--><!--z-index:13--><!--z-index:14--><g   id="j_835"  transform="translate(200,245)" style=""><g  id="v-11302" style="opacity: 1;"><rect  id="v-11303" width="6350" height="658" rx="10" ry="10" stroke-width="2" pointer-events="none" stroke="#22543d" stroke-dasharray="" fill="#2f855a" opacity="1" style="stroke: rgb(34, 84, 61);"></rect><text  id="v-11304" font-size="33.599999999999994px" xml:space="preserve" y="619" font-weight="bold" text-anchor="start" pointer-events="visible" font-family="Tahoma, Verdana, Helvetica, Arial" fill="#ffffff" transform="matrix(1,0,0,1,15,0)" style="fill: rgb(255, 255, 255);"><tspan dy="0" >Isolated acceptance environment</tspan></text><text  id="v-11305" font-size="16.799999999999997px" xml:space="preserve" y="643" font-weight="normal" text-anchor="start" pointer-events="visible" font-family="Tahoma, Verdana, Helvetica, Arial" fill="#ffffff" transform="matrix(1,0,0,1,15,0)" style="display: block; fill: rgb(255, 255, 255);"><tspan dy="0" >[Deployment Node: Isolated real-process test environment]</tspan></text><text  id="v-11306" font-size="40px" xml:space="preserve" display="none" y="643" font-weight="normal" fill="#ffffff" text-anchor="end" pointer-events="visible" font-family="Tahoma, Verdana, Helvetica, Arial" transform="matrix(1,0,0,1,6335,0)"><tspan dy="0" style="fill-opacity: 0; stroke-opacity: 0;" >-</tspan></text><image  id="v-11307" pointer-events="visible"></image></g></g><!--z-index:15--><g   id="j_836"  transform="translate(250,295)" style=""><g  id="v-11308" style="opacity: 1;"><rect  id="v-11309" width="2050" height="479" rx="10" ry="10" stroke-width="2" pointer-events="none" stroke="#22543d" stroke-dasharray="" fill="#2f855a" opacity="1" style="stroke: rgb(34, 84, 61);"></rect><text  id="v-11310" font-size="33.599999999999994px" xml:space="preserve" y="440" font-weight="bold" text-anchor="start" pointer-events="visible" font-family="Tahoma, Verdana, Helvetica, Arial" fill="#ffffff" transform="matrix(1,0,0,1,15,0)" style="fill: rgb(255, 255, 255);"><tspan dy="0" >Acceptance node A</tspan></text><text  id="v-11311" font-size="16.799999999999997px" xml:space="preserve" y="464" font-weight="normal" text-anchor="start" pointer-events="visible" font-family="Tahoma, Verdana, Helvetica, Arial" fill="#ffffff" transform="matrix(1,0,0,1,15,0)" style="display: block; fill: rgb(255, 255, 255);"><tspan dy="0" >[Deployment Node: Java 21 child JVM]</tspan></text><text  id="v-11312" font-size="40px" xml:space="preserve" display="none" y="464" font-weight="normal" fill="#ffffff" text-anchor="end" pointer-events="visible" font-family="Tahoma, Verdana, Helvetica, Arial" transform="matrix(1,0,0,1,2035,0)"><tspan dy="0" style="fill-opacity: 0; stroke-opacity: 0;" >-</tspan></text><image  id="v-11313" pointer-events="visible"></image></g></g><!--z-index:16--><g   id="j_837"  transform="translate(2350,295)" style=""><g  id="v-11314" style="opacity: 1;"><rect  id="v-11315" width="2050" height="479" rx="10" ry="10" stroke-width="2" pointer-events="none" stroke="#22543d" stroke-dasharray="" fill="#2f855a" opacity="1" style="stroke: rgb(34, 84, 61);"></rect><text  id="v-11316" font-size="33.599999999999994px" xml:space="preserve" y="440" font-weight="bold" text-anchor="start" pointer-events="visible" font-family="Tahoma, Verdana, Helvetica, Arial" fill="#ffffff" transform="matrix(1,0,0,1,15,0)" style="fill: rgb(255, 255, 255);"><tspan dy="0" >Acceptance node B</tspan></text><text  id="v-11317" font-size="16.799999999999997px" xml:space="preserve" y="464" font-weight="normal" text-anchor="start" pointer-events="visible" font-family="Tahoma, Verdana, Helvetica, Arial" fill="#ffffff" transform="matrix(1,0,0,1,15,0)" style="display: block; fill: rgb(255, 255, 255);"><tspan dy="0" >[Deployment Node: Java 21 child JVM]</tspan></text><text  id="v-11318" font-size="40px" xml:space="preserve" display="none" y="464" font-weight="normal" fill="#ffffff" text-anchor="end" pointer-events="visible" font-family="Tahoma, Verdana, Helvetica, Arial" transform="matrix(1,0,0,1,2035,0)"><tspan dy="0" style="fill-opacity: 0; stroke-opacity: 0;" >-</tspan></text><image  id="v-11319" pointer-events="visible"></image></g></g><!--z-index:17--><g   id="j_838"  transform="translate(4450,295)" style=""><g  id="v-11320" style="opacity: 1;"><rect  id="v-11321" width="2050" height="479" rx="10" ry="10" stroke-width="2" pointer-events="none" stroke="#22543d" stroke-dasharray="" fill="#2f855a" opacity="1" style="stroke: rgb(34, 84, 61);"></rect><text  id="v-11322" font-size="33.599999999999994px" xml:space="preserve" y="440" font-weight="bold" text-anchor="start" pointer-events="visible" font-family="Tahoma, Verdana, Helvetica, Arial" fill="#ffffff" transform="matrix(1,0,0,1,15,0)" style="fill: rgb(255, 255, 255);"><tspan dy="0" >Acceptance node C</tspan></text><text  id="v-11323" font-size="16.799999999999997px" xml:space="preserve" y="464" font-weight="normal" text-anchor="start" pointer-events="visible" font-family="Tahoma, Verdana, Helvetica, Arial" fill="#ffffff" transform="matrix(1,0,0,1,15,0)" style="display: block; fill: rgb(255, 255, 255);"><tspan dy="0" >[Deployment Node: Java 21 child JVM]</tspan></text><text  id="v-11324" font-size="40px" xml:space="preserve" display="none" y="464" font-weight="normal" fill="#ffffff" text-anchor="end" pointer-events="visible" font-family="Tahoma, Verdana, Helvetica, Arial" transform="matrix(1,0,0,1,2035,0)"><tspan dy="0" style="fill-opacity: 0; stroke-opacity: 0;" >-</tspan></text><image  id="v-11325" pointer-events="visible"></image></g></g><!--z-index:18--><g   id="j_823"  transform="translate(300,345)" style=""><g  id="v-11128" style="opacity: 1;"><rect  id="v-11129" rx="20" ry="20" stroke-width="2" pointer-events="visiblePainted" fill="#438dd5" stroke="#3c7fc0" stroke-dasharray="" width="450" height="300" style="fill: rgb(67, 141, 213); stroke: rgb(60, 127, 192);"></rect><text  id="v-11130" font-size="33.599999999999994px" xml:space="preserve" y="-95.97999999999999" font-weight="bold" text-anchor="middle" pointer-events="visible" font-family="Tahoma, Verdana, Helvetica, Arial" fill="#ffffff" dominant-baseline="hanging" transform="matrix(1,0,0,1,225,0)" style="fill: rgb(255, 255, 255);"><tspan dy="0" >bootstrap-application</tspan></text><text  id="v-11131" font-size="16.799999999999997px" xml:space="preserve" y="-54.379999999999995" text-anchor="middle" font-family="Tahoma, Verdana, Helvetica, Arial" fill="#ffffff" dominant-baseline="hanging" transform="matrix(1,0,0,1,225,0)" style="display: block; fill: rgb(255, 255, 255);"><tspan dy="0" >[Container: Spring Boot 4 WebFlux, Reactor Netty,</tspan><tspan dy="1.2em" x="0" >Maven resources/exec/antrun, Node.js/Vite]</tspan></text><text  id="v-11132" font-size="24px" xml:space="preserve" y="-2.4200000000000017" text-anchor="middle" font-family="Tahoma, Verdana, Helvetica, Arial" fill="#ffffff" dominant-baseline="hanging" transform="matrix(1,0,0,1,225,0)" style="display: block; fill: rgb(255, 255, 255);"><tspan dy="0" >Executable Spring Boot</tspan><tspan dy="1.2em" x="0" >application/fat JAR that composes</tspan><tspan dy="1.2em" x="0" >the S3 API, admin API, object-store</tspan><tspan dy="1.2em" x="0" >capabilities, and selectable</tspan><tspan dy="1.2em" x="0" >persistence backends. It owns the</tspan><tspan dy="1.2em" x="0" >static asset handoff: during</tspan><tspan dy="1.2em" x="0" >generate-resources it builds/copies</tspan><tspan dy="1.2em" x="0" >magrathea-ui dist assets plus</tspan><tspan dy="1.2em" x="0" >generated docs/reports/C4 and</tspan><tspan dy="1.2em" x="0" >arc42 images into</tspan><tspan dy="1.2em" x="0" >bootstrap-application classpath</tspan><tspan dy="1.2em" x="0" >static resources, while</tspan><tspan dy="1.2em" x="0" >admin-api-adapter supplies only</tspan><tspan dy="1.2em" x="0" >admin API routes.</tspan></text><g  id="v-11133" color="#ffffff" transform="matrix(1,0,0,1,210,268)" display="none" style="fill: rgb(255, 255, 255);"><g  transform="translate(5 0)"><svg xmlns="http://www.w3.org/2000/svg" width="20" height="20" fill="currentColor" viewBox="0 0 16 16"><path fill-rule="evenodd" d="M6.5 12a5.5 5.5 0 1 0 0-11 5.5 5.5 0 0 0 0 11zM13 6.5a6.5 6.5 0 1 1-13 0 6.5 6.5 0 0 1 13 0z"></path><path d="M10.344 11.742c.03.04.062.078.098.115l3.85 3.85a1 1 0 0 0 1.415-1.414l-3.85-3.85a1.007 1.007 0 0 0-.115-.1 6.538 6.538 0 0 1-1.398 1.4z"></path><path fill-rule="evenodd" d="M6.5 3a.5.5 0 0 1 .5.5V6h2.5a.5.5 0 0 1 0 1H7v2.5a.5.5 0 0 1-1 0V7H3.5a.5.5 0 0 1 0-1H6V3.5a.5.5 0 0 1 .5-.5z"></path></svg></g><g ></g><g ></g><g ></g></g><image  id="v-11134"></image></g></g><!--z-index:19--><g   id="j_824"  transform="translate(800,345)" style=""><g  id="v-11144" style="opacity: 1;"><rect  id="v-11145" rx="20" ry="20" stroke-width="2" pointer-events="visiblePainted" fill="#438dd5" stroke="#3c7fc0" stroke-dasharray="" width="450" height="300" style="fill: rgb(67, 141, 213); stroke: rgb(60, 127, 192);"></rect><text  id="v-11146" font-size="33.599999999999994px" xml:space="preserve" y="33.620000000000005" font-weight="bold" text-anchor="middle" pointer-events="visible" font-family="Tahoma, Verdana, Helvetica, Arial" fill="#ffffff" dominant-baseline="hanging" transform="matrix(1,0,0,1,225,0)" style="fill: rgb(255, 255, 255);"><tspan dy="0" >s3-reactive-api-adapter</tspan></text><text  id="v-11147" font-size="16.799999999999997px" xml:space="preserve" y="75.22" text-anchor="middle" font-family="Tahoma, Verdana, Helvetica, Arial" fill="#ffffff" dominant-baseline="hanging" transform="matrix(1,0,0,1,225,0)" style="display: block; fill: rgb(255, 255, 255);"><tspan dy="0" >[Container: Spring Boot 4 WebFlux, RouterFunction,</tspan><tspan dy="1.2em" x="0" >Java 21, Jackson XML]</tspan></text><text  id="v-11148" font-size="24px" xml:space="preserve" y="127.17999999999999" text-anchor="middle" font-family="Tahoma, Verdana, Helvetica, Arial" fill="#ffffff" dominant-baseline="hanging" transform="matrix(1,0,0,1,225,0)" style="display: block; fill: rgb(255, 255, 255);"><tspan dy="0" >HTTP adapter that exposes the</tspan><tspan dy="1.2em" x="0" >S3-compatible REST API and</tspan><tspan dy="1.2em" x="0" >translates HTTP/XML/binary</tspan><tspan dy="1.2em" x="0" >requests into reactive application</tspan><tspan dy="1.2em" x="0" >use cases.</tspan></text><g  id="v-11149" color="#ffffff" transform="matrix(1,0,0,1,210,268)" display="none" style="fill: rgb(255, 255, 255);"><g  transform="translate(5 0)"><svg xmlns="http://www.w3.org/2000/svg" width="20" height="20" fill="currentColor" viewBox="0 0 16 16"><path fill-rule="evenodd" d="M6.5 12a5.5 5.5 0 1 0 0-11 5.5 5.5 0 0 0 0 11zM13 6.5a6.5 6.5 0 1 1-13 0 6.5 6.5 0 0 1 13 0z"></path><path d="M10.344 11.742c.03.04.062.078.098.115l3.85 3.85a1 1 0 0 0 1.415-1.414l-3.85-3.85a1.007 1.007 0 0 0-.115-.1 6.538 6.538 0 0 1-1.398 1.4z"></path><path fill-rule="evenodd" d="M6.5 3a.5.5 0 0 1 .5.5V6h2.5a.5.5 0 0 1 0 1H7v2.5a.5.5 0 0 1-1 0V7H3.5a.5.5 0 0 1 0-1H6V3.5a.5.5 0 0 1 .5-.5z"></path></svg></g><g ></g><g ></g><g ></g></g><image  id="v-11150"></image></g></g><!--z-index:20--><g   id="j_825"  transform="translate(1300,345)" style=""><g  id="v-11157" style="opacity: 1;"><rect  id="v-11158" rx="20" ry="20" stroke-width="2" pointer-events="visiblePainted" fill="#438dd5" stroke="#3c7fc0" stroke-dasharray="" width="450" height="300" style="fill: rgb(67, 141, 213); stroke: rgb(60, 127, 192);"></rect><text  id="v-11159" font-size="33.599999999999994px" xml:space="preserve" y="-57.099999999999966" font-weight="bold" text-anchor="middle" pointer-events="visible" font-family="Tahoma, Verdana, Helvetica, Arial" fill="#ffffff" dominant-baseline="hanging" transform="matrix(1,0,0,1,225,0)" style="fill: rgb(255, 255, 255);"><tspan dy="0" >storage-engine</tspan></text><text  id="v-11160" font-size="16.799999999999997px" xml:space="preserve" y="-15.499999999999972" text-anchor="middle" font-family="Tahoma, Verdana, Helvetica, Arial" fill="#ffffff" dominant-baseline="hanging" transform="matrix(1,0,0,1,225,0)" style="display: block; fill: rgb(255, 255, 255);"><tspan dy="0" >[Container: Java 21, domain-driven]</tspan></text><text  id="v-11161" font-size="24px" xml:space="preserve" y="16.300000000000026" text-anchor="middle" font-family="Tahoma, Verdana, Helvetica, Arial" fill="#ffffff" dominant-baseline="hanging" transform="matrix(1,0,0,1,225,0)" style="display: block; fill: rgb(255, 255, 255);"><tspan dy="0" >Storage Engine bounded context:</tspan><tspan dy="1.2em" x="0" >persistence pipeline, virtual devices,</tspan><tspan dy="1.2em" x="0" >storage policies, optional</tspan><tspan dy="1.2em" x="0" >deduplication, erasure coding,</tspan><tspan dy="1.2em" x="0" >content-addressed storage, and</tspan><tspan dy="1.2em" x="0" >manifest management.</tspan><tspan dy="1.2em" x="0" >MINIO_STANDARD is modeled as</tspan><tspan dy="1.2em" x="0" >STANDARD with dedup disabled,</tspan><tspan dy="1.2em" x="0" >EC enabled (4 data / 2 parity),</tspan><tspan dy="1.2em" x="0" >replication factor 1, compression</tspan><tspan dy="1.2em" x="0" >disabled, and encryption disabled by</tspan><tspan dy="1.2em" x="0" >default.</tspan></text><g  id="v-11162" color="#ffffff" transform="matrix(1,0,0,1,210,268)" display="none" style="fill: rgb(255, 255, 255);"><g  transform="translate(5 0)"><svg xmlns="http://www.w3.org/2000/svg" width="20" height="20" fill="currentColor" viewBox="0 0 16 16"><path fill-rule="evenodd" d="M6.5 12a5.5 5.5 0 1 0 0-11 5.5 5.5 0 0 0 0 11zM13 6.5a6.5 6.5 0 1 1-13 0 6.5 6.5 0 0 1 13 0z"></path><path d="M10.344 11.742c.03.04.062.078.098.115l3.85 3.85a1 1 0 0 0 1.415-1.414l-3.85-3.85a1.007 1.007 0 0 0-.115-.1 6.538 6.538 0 0 1-1.398 1.4z"></path><path fill-rule="evenodd" d="M6.5 3a.5.5 0 0 1 .5.5V6h2.5a.5.5 0 0 1 0 1H7v2.5a.5.5 0 0 1-1 0V7H3.5a.5.5 0 0 1 0-1H6V3.5a.5.5 0 0 1 .5-.5z"></path></svg></g><g ></g><g ></g><g ></g></g><image  id="v-11163"></image></g></g><!--z-index:21--><g   id="j_826"  transform="translate(1800,345)" style=""><g  id="v-11173" style="opacity: 1;"><rect  id="v-11174" rx="20" ry="20" stroke-width="2" pointer-events="visiblePainted" fill="#2f855a" stroke="#22543d" stroke-dasharray="" width="450" height="300" style="fill: rgb(47, 133, 90); stroke: rgb(34, 84, 61);"></rect><text  id="v-11175" font-size="33.599999999999994px" xml:space="preserve" y="-196.77999999999997" font-weight="bold" text-anchor="middle" pointer-events="visible" font-family="Tahoma, Verdana, Helvetica, Arial" fill="#ffffff" dominant-baseline="hanging" transform="matrix(1,0,0,1,225,0)" style="fill: rgb(255, 255, 255);"><tspan dy="0" >Cluster Node Runtime</tspan></text><text  id="v-11176" font-size="16.799999999999997px" xml:space="preserve" y="-155.17999999999998" text-anchor="middle" font-family="Tahoma, Verdana, Helvetica, Arial" fill="#ffffff" dominant-baseline="hanging" transform="matrix(1,0,0,1,225,0)" style="display: block; fill: rgb(255, 255, 255);"><tspan dy="0" >[Container: Java 21, Apache Ratis 3.2.2, grpc-java</tspan><tspan dy="1.2em" x="0" >1.82.2, protobuf 3.25.8, mTLS]</tspan></text><text  id="v-11177" font-size="24px" xml:space="preserve" y="-103.21999999999998" text-anchor="middle" font-family="Tahoma, Verdana, Helvetica, Arial" fill="#ffffff" dominant-baseline="hanging" transform="matrix(1,0,0,1,225,0)" style="display: block; fill: rgb(255, 255, 255);"><tspan dy="0" >Fixed A/B/C voter/storage runtime</tspan><tspan dy="1.2em" x="0" >for unconditional CreateBucket,</tspan><tspan dy="1.2em" x="0" >single-part whole-object PUT/GET,</tspan><tspan dy="1.2em" x="0" >and bounded repair of a missing or</tspan><tspan dy="1.2em" x="0" >corrupt replica named by the current</tspan><tspan dy="1.2em" x="0" >committed generation. Each JVM</tspan><tspan dy="1.2em" x="0" >co-locates one Ratis voter, one</tspan><tspan dy="1.2em" x="0" >replica data server, a request-facing</tspan><tspan dy="1.2em" x="0" >repair coordinator, a process-local</tspan><tspan dy="1.2em" x="0" >scheduler, and a fenced worker.</tspan><tspan dy="1.2em" x="0" >Ratis owns durable repair identity,</tspan><tspan dy="1.2em" x="0" >lifecycle, claims, results, and</tspan><tspan dy="1.2em" x="0" >snapshot recovery; verified</tspan><tspan dy="1.2em" x="0" >whole-object bytes remain on the</tspan><tspan dy="1.2em" x="0" >direct replica path. It exposes no</tspan><tspan dy="1.2em" x="0" >separate object API and excludes</tspan><tspan dy="1.2em" x="0" >dynamic membership, clustered</tspan><tspan dy="1.2em" x="0" >multipart/versioning, erasure coding,</tspan><tspan dy="1.2em" x="0" >rebalance, broad or periodic</tspan><tspan dy="1.2em" x="0" >anti-entropy discovery, and</tspan><tspan dy="1.2em" x="0" >automated orphan cleanup.</tspan></text><g  id="v-11178" color="#ffffff" transform="matrix(1,0,0,1,210,268)" display="none" style="fill: rgb(255, 255, 255);"><g  transform="translate(5 0)"><svg xmlns="http://www.w3.org/2000/svg" width="20" height="20" fill="currentColor" viewBox="0 0 16 16"><path fill-rule="evenodd" d="M6.5 12a5.5 5.5 0 1 0 0-11 5.5 5.5 0 0 0 0 11zM13 6.5a6.5 6.5 0 1 1-13 0 6.5 6.5 0 0 1 13 0z"></path><path d="M10.344 11.742c.03.04.062.078.098.115l3.85 3.85a1 1 0 0 0 1.415-1.414l-3.85-3.85a1.007 1.007 0 0 0-.115-.1 6.538 6.538 0 0 1-1.398 1.4z"></path><path fill-rule="evenodd" d="M6.5 3a.5.5 0 0 1 .5.5V6h2.5a.5.5 0 0 1 0 1H7v2.5a.5.5 0 0 1-1 0V7H3.5a.5.5 0 0 1 0-1H6V3.5a.5.5 0 0 1 .5-.5z"></path></svg></g><g ></g><g ></g><g ></g></g><image  id="v-11179"></image></g></g><!--z-index:22--><g   id="j_827"  transform="translate(2400,345)" style=""><g  id="v-11189" style="opacity: 1;"><rect  id="v-11190" rx="20" ry="20" stroke-width="2" pointer-events="visiblePainted" fill="#438dd5" stroke="#3c7fc0" stroke-dasharray="" width="450" height="300" style="fill: rgb(67, 141, 213); stroke: rgb(60, 127, 192);"></rect><text  id="v-11191" font-size="33.599999999999994px" xml:space="preserve" y="-95.97999999999999" font-weight="bold" text-anchor="middle" pointer-events="visible" font-family="Tahoma, Verdana, Helvetica, Arial" fill="#ffffff" dominant-baseline="hanging" transform="matrix(1,0,0,1,225,0)" style="fill: rgb(255, 255, 255);"><tspan dy="0" >bootstrap-application</tspan></text><text  id="v-11192" font-size="16.799999999999997px" xml:space="preserve" y="-54.379999999999995" text-anchor="middle" font-family="Tahoma, Verdana, Helvetica, Arial" fill="#ffffff" dominant-baseline="hanging" transform="matrix(1,0,0,1,225,0)" style="display: block; fill: rgb(255, 255, 255);"><tspan dy="0" >[Container: Spring Boot 4 WebFlux, Reactor Netty,</tspan><tspan dy="1.2em" x="0" >Maven resources/exec/antrun, Node.js/Vite]</tspan></text><text  id="v-11193" font-size="24px" xml:space="preserve" y="-2.4200000000000017" text-anchor="middle" font-family="Tahoma, Verdana, Helvetica, Arial" fill="#ffffff" dominant-baseline="hanging" transform="matrix(1,0,0,1,225,0)" style="display: block; fill: rgb(255, 255, 255);"><tspan dy="0" >Executable Spring Boot</tspan><tspan dy="1.2em" x="0" >application/fat JAR that composes</tspan><tspan dy="1.2em" x="0" >the S3 API, admin API, object-store</tspan><tspan dy="1.2em" x="0" >capabilities, and selectable</tspan><tspan dy="1.2em" x="0" >persistence backends. It owns the</tspan><tspan dy="1.2em" x="0" >static asset handoff: during</tspan><tspan dy="1.2em" x="0" >generate-resources it builds/copies</tspan><tspan dy="1.2em" x="0" >magrathea-ui dist assets plus</tspan><tspan dy="1.2em" x="0" >generated docs/reports/C4 and</tspan><tspan dy="1.2em" x="0" >arc42 images into</tspan><tspan dy="1.2em" x="0" >bootstrap-application classpath</tspan><tspan dy="1.2em" x="0" >static resources, while</tspan><tspan dy="1.2em" x="0" >admin-api-adapter supplies only</tspan><tspan dy="1.2em" x="0" >admin API routes.</tspan></text><g  id="v-11194" color="#ffffff" transform="matrix(1,0,0,1,210,268)" display="none" style="fill: rgb(255, 255, 255);"><g  transform="translate(5 0)"><svg xmlns="http://www.w3.org/2000/svg" width="20" height="20" fill="currentColor" viewBox="0 0 16 16"><path fill-rule="evenodd" d="M6.5 12a5.5 5.5 0 1 0 0-11 5.5 5.5 0 0 0 0 11zM13 6.5a6.5 6.5 0 1 1-13 0 6.5 6.5 0 0 1 13 0z"></path><path d="M10.344 11.742c.03.04.062.078.098.115l3.85 3.85a1 1 0 0 0 1.415-1.414l-3.85-3.85a1.007 1.007 0 0 0-.115-.1 6.538 6.538 0 0 1-1.398 1.4z"></path><path fill-rule="evenodd" d="M6.5 3a.5.5 0 0 1 .5.5V6h2.5a.5.5 0 0 1 0 1H7v2.5a.5.5 0 0 1-1 0V7H3.5a.5.5 0 0 1 0-1H6V3.5a.5.5 0 0 1 .5-.5z"></path></svg></g><g ></g><g ></g><g ></g></g><image  id="v-11195"></image></g></g><!--z-index:23--><g   id="j_828"  transform="translate(2900,345)" style=""><g  id="v-11205" style="opacity: 1;"><rect  id="v-11206" rx="20" ry="20" stroke-width="2" pointer-events="visiblePainted" fill="#438dd5" stroke="#3c7fc0" stroke-dasharray="" width="450" height="300" style="fill: rgb(67, 141, 213); stroke: rgb(60, 127, 192);"></rect><text  id="v-11207" font-size="33.599999999999994px" xml:space="preserve" y="33.620000000000005" font-weight="bold" text-anchor="middle" pointer-events="visible" font-family="Tahoma, Verdana, Helvetica, Arial" fill="#ffffff" dominant-baseline="hanging" transform="matrix(1,0,0,1,225,0)" style="fill: rgb(255, 255, 255);"><tspan dy="0" >s3-reactive-api-adapter</tspan></text><text  id="v-11208" font-size="16.799999999999997px" xml:space="preserve" y="75.22" text-anchor="middle" font-family="Tahoma, Verdana, Helvetica, Arial" fill="#ffffff" dominant-baseline="hanging" transform="matrix(1,0,0,1,225,0)" style="display: block; fill: rgb(255, 255, 255);"><tspan dy="0" >[Container: Spring Boot 4 WebFlux, RouterFunction,</tspan><tspan dy="1.2em" x="0" >Java 21, Jackson XML]</tspan></text><text  id="v-11209" font-size="24px" xml:space="preserve" y="127.17999999999999" text-anchor="middle" font-family="Tahoma, Verdana, Helvetica, Arial" fill="#ffffff" dominant-baseline="hanging" transform="matrix(1,0,0,1,225,0)" style="display: block; fill: rgb(255, 255, 255);"><tspan dy="0" >HTTP adapter that exposes the</tspan><tspan dy="1.2em" x="0" >S3-compatible REST API and</tspan><tspan dy="1.2em" x="0" >translates HTTP/XML/binary</tspan><tspan dy="1.2em" x="0" >requests into reactive application</tspan><tspan dy="1.2em" x="0" >use cases.</tspan></text><g  id="v-11210" color="#ffffff" transform="matrix(1,0,0,1,210,268)" display="none" style="fill: rgb(255, 255, 255);"><g  transform="translate(5 0)"><svg xmlns="http://www.w3.org/2000/svg" width="20" height="20" fill="currentColor" viewBox="0 0 16 16"><path fill-rule="evenodd" d="M6.5 12a5.5 5.5 0 1 0 0-11 5.5 5.5 0 0 0 0 11zM13 6.5a6.5 6.5 0 1 1-13 0 6.5 6.5 0 0 1 13 0z"></path><path d="M10.344 11.742c.03.04.062.078.098.115l3.85 3.85a1 1 0 0 0 1.415-1.414l-3.85-3.85a1.007 1.007 0 0 0-.115-.1 6.538 6.538 0 0 1-1.398 1.4z"></path><path fill-rule="evenodd" d="M6.5 3a.5.5 0 0 1 .5.5V6h2.5a.5.5 0 0 1 0 1H7v2.5a.5.5 0 0 1-1 0V7H3.5a.5.5 0 0 1 0-1H6V3.5a.5.5 0 0 1 .5-.5z"></path></svg></g><g ></g><g ></g><g ></g></g><image  id="v-11211"></image></g></g><!--z-index:24--><g   id="j_829"  transform="translate(3400,345)" style=""><g  id="v-11218" style="opacity: 1;"><rect  id="v-11219" rx="20" ry="20" stroke-width="2" pointer-events="visiblePainted" fill="#438dd5" stroke="#3c7fc0" stroke-dasharray="" width="450" height="300" style="fill: rgb(67, 141, 213); stroke: rgb(60, 127, 192);"></rect><text  id="v-11220" font-size="33.599999999999994px" xml:space="preserve" y="-57.099999999999966" font-weight="bold" text-anchor="middle" pointer-events="visible" font-family="Tahoma, Verdana, Helvetica, Arial" fill="#ffffff" dominant-baseline="hanging" transform="matrix(1,0,0,1,225,0)" style="fill: rgb(255, 255, 255);"><tspan dy="0" >storage-engine</tspan></text><text  id="v-11221" font-size="16.799999999999997px" xml:space="preserve" y="-15.499999999999972" text-anchor="middle" font-family="Tahoma, Verdana, Helvetica, Arial" fill="#ffffff" dominant-baseline="hanging" transform="matrix(1,0,0,1,225,0)" style="display: block; fill: rgb(255, 255, 255);"><tspan dy="0" >[Container: Java 21, domain-driven]</tspan></text><text  id="v-11222" font-size="24px" xml:space="preserve" y="16.300000000000026" text-anchor="middle" font-family="Tahoma, Verdana, Helvetica, Arial" fill="#ffffff" dominant-baseline="hanging" transform="matrix(1,0,0,1,225,0)" style="display: block; fill: rgb(255, 255, 255);"><tspan dy="0" >Storage Engine bounded context:</tspan><tspan dy="1.2em" x="0" >persistence pipeline, virtual devices,</tspan><tspan dy="1.2em" x="0" >storage policies, optional</tspan><tspan dy="1.2em" x="0" >deduplication, erasure coding,</tspan><tspan dy="1.2em" x="0" >content-addressed storage, and</tspan><tspan dy="1.2em" x="0" >manifest management.</tspan><tspan dy="1.2em" x="0" >MINIO_STANDARD is modeled as</tspan><tspan dy="1.2em" x="0" >STANDARD with dedup disabled,</tspan><tspan dy="1.2em" x="0" >EC enabled (4 data / 2 parity),</tspan><tspan dy="1.2em" x="0" >replication factor 1, compression</tspan><tspan dy="1.2em" x="0" >disabled, and encryption disabled by</tspan><tspan dy="1.2em" x="0" >default.</tspan></text><g  id="v-11223" color="#ffffff" transform="matrix(1,0,0,1,210,268)" display="none" style="fill: rgb(255, 255, 255);"><g  transform="translate(5 0)"><svg xmlns="http://www.w3.org/2000/svg" width="20" height="20" fill="currentColor" viewBox="0 0 16 16"><path fill-rule="evenodd" d="M6.5 12a5.5 5.5 0 1 0 0-11 5.5 5.5 0 0 0 0 11zM13 6.5a6.5 6.5 0 1 1-13 0 6.5 6.5 0 0 1 13 0z"></path><path d="M10.344 11.742c.03.04.062.078.098.115l3.85 3.85a1 1 0 0 0 1.415-1.414l-3.85-3.85a1.007 1.007 0 0 0-.115-.1 6.538 6.538 0 0 1-1.398 1.4z"></path><path fill-rule="evenodd" d="M6.5 3a.5.5 0 0 1 .5.5V6h2.5a.5.5 0 0 1 0 1H7v2.5a.5.5 0 0 1-1 0V7H3.5a.5.5 0 0 1 0-1H6V3.5a.5.5 0 0 1 .5-.5z"></path></svg></g><g ></g><g ></g><g ></g></g><image  id="v-11224"></image></g></g><!--z-index:25--><g   id="j_830"  transform="translate(3900,345)" style=""><g  id="v-11234" style="opacity: 1;"><rect  id="v-11235" rx="20" ry="20" stroke-width="2" pointer-events="visiblePainted" fill="#2f855a" stroke="#22543d" stroke-dasharray="" width="450" height="300" style="fill: rgb(47, 133, 90); stroke: rgb(34, 84, 61);"></rect><text  id="v-11236" font-size="33.599999999999994px" xml:space="preserve" y="-196.77999999999997" font-weight="bold" text-anchor="middle" pointer-events="visible" font-family="Tahoma, Verdana, Helvetica, Arial" fill="#ffffff" dominant-baseline="hanging" transform="matrix(1,0,0,1,225,0)" style="fill: rgb(255, 255, 255);"><tspan dy="0" >Cluster Node Runtime</tspan></text><text  id="v-11237" font-size="16.799999999999997px" xml:space="preserve" y="-155.17999999999998" text-anchor="middle" font-family="Tahoma, Verdana, Helvetica, Arial" fill="#ffffff" dominant-baseline="hanging" transform="matrix(1,0,0,1,225,0)" style="display: block; fill: rgb(255, 255, 255);"><tspan dy="0" >[Container: Java 21, Apache Ratis 3.2.2, grpc-java</tspan><tspan dy="1.2em" x="0" >1.82.2, protobuf 3.25.8, mTLS]</tspan></text><text  id="v-11238" font-size="24px" xml:space="preserve" y="-103.21999999999998" text-anchor="middle" font-family="Tahoma, Verdana, Helvetica, Arial" fill="#ffffff" dominant-baseline="hanging" transform="matrix(1,0,0,1,225,0)" style="display: block; fill: rgb(255, 255, 255);"><tspan dy="0" >Fixed A/B/C voter/storage runtime</tspan><tspan dy="1.2em" x="0" >for unconditional CreateBucket,</tspan><tspan dy="1.2em" x="0" >single-part whole-object PUT/GET,</tspan><tspan dy="1.2em" x="0" >and bounded repair of a missing or</tspan><tspan dy="1.2em" x="0" >corrupt replica named by the current</tspan><tspan dy="1.2em" x="0" >committed generation. Each JVM</tspan><tspan dy="1.2em" x="0" >co-locates one Ratis voter, one</tspan><tspan dy="1.2em" x="0" >replica data server, a request-facing</tspan><tspan dy="1.2em" x="0" >repair coordinator, a process-local</tspan><tspan dy="1.2em" x="0" >scheduler, and a fenced worker.</tspan><tspan dy="1.2em" x="0" >Ratis owns durable repair identity,</tspan><tspan dy="1.2em" x="0" >lifecycle, claims, results, and</tspan><tspan dy="1.2em" x="0" >snapshot recovery; verified</tspan><tspan dy="1.2em" x="0" >whole-object bytes remain on the</tspan><tspan dy="1.2em" x="0" >direct replica path. It exposes no</tspan><tspan dy="1.2em" x="0" >separate object API and excludes</tspan><tspan dy="1.2em" x="0" >dynamic membership, clustered</tspan><tspan dy="1.2em" x="0" >multipart/versioning, erasure coding,</tspan><tspan dy="1.2em" x="0" >rebalance, broad or periodic</tspan><tspan dy="1.2em" x="0" >anti-entropy discovery, and</tspan><tspan dy="1.2em" x="0" >automated orphan cleanup.</tspan></text><g  id="v-11239" color="#ffffff" transform="matrix(1,0,0,1,210,268)" display="none" style="fill: rgb(255, 255, 255);"><g  transform="translate(5 0)"><svg xmlns="http://www.w3.org/2000/svg" width="20" height="20" fill="currentColor" viewBox="0 0 16 16"><path fill-rule="evenodd" d="M6.5 12a5.5 5.5 0 1 0 0-11 5.5 5.5 0 0 0 0 11zM13 6.5a6.5 6.5 0 1 1-13 0 6.5 6.5 0 0 1 13 0z"></path><path d="M10.344 11.742c.03.04.062.078.098.115l3.85 3.85a1 1 0 0 0 1.415-1.414l-3.85-3.85a1.007 1.007 0 0 0-.115-.1 6.538 6.538 0 0 1-1.398 1.4z"></path><path fill-rule="evenodd" d="M6.5 3a.5.5 0 0 1 .5.5V6h2.5a.5.5 0 0 1 0 1H7v2.5a.5.5 0 0 1-1 0V7H3.5a.5.5 0 0 1 0-1H6V3.5a.5.5 0 0 1 .5-.5z"></path></svg></g><g ></g><g ></g><g ></g></g><image  id="v-11240"></image></g></g><!--z-index:26--><g   id="j_831"  transform="translate(4500,345)" style=""><g  id="v-11250" style="opacity: 1;"><rect  id="v-11251" rx="20" ry="20" stroke-width="2" pointer-events="visiblePainted" fill="#438dd5" stroke="#3c7fc0" stroke-dasharray="" width="450" height="300" style="fill: rgb(67, 141, 213); stroke: rgb(60, 127, 192);"></rect><text  id="v-11252" font-size="33.599999999999994px" xml:space="preserve" y="-95.97999999999999" font-weight="bold" text-anchor="middle" pointer-events="visible" font-family="Tahoma, Verdana, Helvetica, Arial" fill="#ffffff" dominant-baseline="hanging" transform="matrix(1,0,0,1,225,0)" style="fill: rgb(255, 255, 255);"><tspan dy="0" >bootstrap-application</tspan></text><text  id="v-11253" font-size="16.799999999999997px" xml:space="preserve" y="-54.379999999999995" text-anchor="middle" font-family="Tahoma, Verdana, Helvetica, Arial" fill="#ffffff" dominant-baseline="hanging" transform="matrix(1,0,0,1,225,0)" style="display: block; fill: rgb(255, 255, 255);"><tspan dy="0" >[Container: Spring Boot 4 WebFlux, Reactor Netty,</tspan><tspan dy="1.2em" x="0" >Maven resources/exec/antrun, Node.js/Vite]</tspan></text><text  id="v-11254" font-size="24px" xml:space="preserve" y="-2.4200000000000017" text-anchor="middle" font-family="Tahoma, Verdana, Helvetica, Arial" fill="#ffffff" dominant-baseline="hanging" transform="matrix(1,0,0,1,225,0)" style="display: block; fill: rgb(255, 255, 255);"><tspan dy="0" >Executable Spring Boot</tspan><tspan dy="1.2em" x="0" >application/fat JAR that composes</tspan><tspan dy="1.2em" x="0" >the S3 API, admin API, object-store</tspan><tspan dy="1.2em" x="0" >capabilities, and selectable</tspan><tspan dy="1.2em" x="0" >persistence backends. It owns the</tspan><tspan dy="1.2em" x="0" >static asset handoff: during</tspan><tspan dy="1.2em" x="0" >generate-resources it builds/copies</tspan><tspan dy="1.2em" x="0" >magrathea-ui dist assets plus</tspan><tspan dy="1.2em" x="0" >generated docs/reports/C4 and</tspan><tspan dy="1.2em" x="0" >arc42 images into</tspan><tspan dy="1.2em" x="0" >bootstrap-application classpath</tspan><tspan dy="1.2em" x="0" >static resources, while</tspan><tspan dy="1.2em" x="0" >admin-api-adapter supplies only</tspan><tspan dy="1.2em" x="0" >admin API routes.</tspan></text><g  id="v-11255" color="#ffffff" transform="matrix(1,0,0,1,210,268)" display="none" style="fill: rgb(255, 255, 255);"><g  transform="translate(5 0)"><svg xmlns="http://www.w3.org/2000/svg" width="20" height="20" fill="currentColor" viewBox="0 0 16 16"><path fill-rule="evenodd" d="M6.5 12a5.5 5.5 0 1 0 0-11 5.5 5.5 0 0 0 0 11zM13 6.5a6.5 6.5 0 1 1-13 0 6.5 6.5 0 0 1 13 0z"></path><path d="M10.344 11.742c.03.04.062.078.098.115l3.85 3.85a1 1 0 0 0 1.415-1.414l-3.85-3.85a1.007 1.007 0 0 0-.115-.1 6.538 6.538 0 0 1-1.398 1.4z"></path><path fill-rule="evenodd" d="M6.5 3a.5.5 0 0 1 .5.5V6h2.5a.5.5 0 0 1 0 1H7v2.5a.5.5 0 0 1-1 0V7H3.5a.5.5 0 0 1 0-1H6V3.5a.5.5 0 0 1 .5-.5z"></path></svg></g><g ></g><g ></g><g ></g></g><image  id="v-11256"></image></g></g><!--z-index:27--><g   id="j_832"  transform="translate(5000,345)" style=""><g  id="v-11266" style="opacity: 1;"><rect  id="v-11267" rx="20" ry="20" stroke-width="2" pointer-events="visiblePainted" fill="#438dd5" stroke="#3c7fc0" stroke-dasharray="" width="450" height="300" style="fill: rgb(67, 141, 213); stroke: rgb(60, 127, 192);"></rect><text  id="v-11268" font-size="33.599999999999994px" xml:space="preserve" y="33.620000000000005" font-weight="bold" text-anchor="middle" pointer-events="visible" font-family="Tahoma, Verdana, Helvetica, Arial" fill="#ffffff" dominant-baseline="hanging" transform="matrix(1,0,0,1,225,0)" style="fill: rgb(255, 255, 255);"><tspan dy="0" >s3-reactive-api-adapter</tspan></text><text  id="v-11269" font-size="16.799999999999997px" xml:space="preserve" y="75.22" text-anchor="middle" font-family="Tahoma, Verdana, Helvetica, Arial" fill="#ffffff" dominant-baseline="hanging" transform="matrix(1,0,0,1,225,0)" style="display: block; fill: rgb(255, 255, 255);"><tspan dy="0" >[Container: Spring Boot 4 WebFlux, RouterFunction,</tspan><tspan dy="1.2em" x="0" >Java 21, Jackson XML]</tspan></text><text  id="v-11270" font-size="24px" xml:space="preserve" y="127.17999999999999" text-anchor="middle" font-family="Tahoma, Verdana, Helvetica, Arial" fill="#ffffff" dominant-baseline="hanging" transform="matrix(1,0,0,1,225,0)" style="display: block; fill: rgb(255, 255, 255);"><tspan dy="0" >HTTP adapter that exposes the</tspan><tspan dy="1.2em" x="0" >S3-compatible REST API and</tspan><tspan dy="1.2em" x="0" >translates HTTP/XML/binary</tspan><tspan dy="1.2em" x="0" >requests into reactive application</tspan><tspan dy="1.2em" x="0" >use cases.</tspan></text><g  id="v-11271" color="#ffffff" transform="matrix(1,0,0,1,210,268)" display="none" style="fill: rgb(255, 255, 255);"><g  transform="translate(5 0)"><svg xmlns="http://www.w3.org/2000/svg" width="20" height="20" fill="currentColor" viewBox="0 0 16 16"><path fill-rule="evenodd" d="M6.5 12a5.5 5.5 0 1 0 0-11 5.5 5.5 0 0 0 0 11zM13 6.5a6.5 6.5 0 1 1-13 0 6.5 6.5 0 0 1 13 0z"></path><path d="M10.344 11.742c.03.04.062.078.098.115l3.85 3.85a1 1 0 0 0 1.415-1.414l-3.85-3.85a1.007 1.007 0 0 0-.115-.1 6.538 6.538 0 0 1-1.398 1.4z"></path><path fill-rule="evenodd" d="M6.5 3a.5.5 0 0 1 .5.5V6h2.5a.5.5 0 0 1 0 1H7v2.5a.5.5 0 0 1-1 0V7H3.5a.5.5 0 0 1 0-1H6V3.5a.5.5 0 0 1 .5-.5z"></path></svg></g><g ></g><g ></g><g ></g></g><image  id="v-11272"></image></g></g><!--z-index:28--><g   id="j_833"  transform="translate(5500,345)" style=""><g  id="v-11279" style="opacity: 1;"><rect  id="v-11280" rx="20" ry="20" stroke-width="2" pointer-events="visiblePainted" fill="#438dd5" stroke="#3c7fc0" stroke-dasharray="" width="450" height="300" style="fill: rgb(67, 141, 213); stroke: rgb(60, 127, 192);"></rect><text  id="v-11281" font-size="33.599999999999994px" xml:space="preserve" y="-57.099999999999966" font-weight="bold" text-anchor="middle" pointer-events="visible" font-family="Tahoma, Verdana, Helvetica, Arial" fill="#ffffff" dominant-baseline="hanging" transform="matrix(1,0,0,1,225,0)" style="fill: rgb(255, 255, 255);"><tspan dy="0" >storage-engine</tspan></text><text  id="v-11282" font-size="16.799999999999997px" xml:space="preserve" y="-15.499999999999972" text-anchor="middle" font-family="Tahoma, Verdana, Helvetica, Arial" fill="#ffffff" dominant-baseline="hanging" transform="matrix(1,0,0,1,225,0)" style="display: block; fill: rgb(255, 255, 255);"><tspan dy="0" >[Container: Java 21, domain-driven]</tspan></text><text  id="v-11283" font-size="24px" xml:space="preserve" y="16.300000000000026" text-anchor="middle" font-family="Tahoma, Verdana, Helvetica, Arial" fill="#ffffff" dominant-baseline="hanging" transform="matrix(1,0,0,1,225,0)" style="display: block; fill: rgb(255, 255, 255);"><tspan dy="0" >Storage Engine bounded context:</tspan><tspan dy="1.2em" x="0" >persistence pipeline, virtual devices,</tspan><tspan dy="1.2em" x="0" >storage policies, optional</tspan><tspan dy="1.2em" x="0" >deduplication, erasure coding,</tspan><tspan dy="1.2em" x="0" >content-addressed storage, and</tspan><tspan dy="1.2em" x="0" >manifest management.</tspan><tspan dy="1.2em" x="0" >MINIO_STANDARD is modeled as</tspan><tspan dy="1.2em" x="0" >STANDARD with dedup disabled,</tspan><tspan dy="1.2em" x="0" >EC enabled (4 data / 2 parity),</tspan><tspan dy="1.2em" x="0" >replication factor 1, compression</tspan><tspan dy="1.2em" x="0" >disabled, and encryption disabled by</tspan><tspan dy="1.2em" x="0" >default.</tspan></text><g  id="v-11284" color="#ffffff" transform="matrix(1,0,0,1,210,268)" display="none" style="fill: rgb(255, 255, 255);"><g  transform="translate(5 0)"><svg xmlns="http://www.w3.org/2000/svg" width="20" height="20" fill="currentColor" viewBox="0 0 16 16"><path fill-rule="evenodd" d="M6.5 12a5.5 5.5 0 1 0 0-11 5.5 5.5 0 0 0 0 11zM13 6.5a6.5 6.5 0 1 1-13 0 6.5 6.5 0 0 1 13 0z"></path><path d="M10.344 11.742c.03.04.062.078.098.115l3.85 3.85a1 1 0 0 0 1.415-1.414l-3.85-3.85a1.007 1.007 0 0 0-.115-.1 6.538 6.538 0 0 1-1.398 1.4z"></path><path fill-rule="evenodd" d="M6.5 3a.5.5 0 0 1 .5.5V6h2.5a.5.5 0 0 1 0 1H7v2.5a.5.5 0 0 1-1 0V7H3.5a.5.5 0 0 1 0-1H6V3.5a.5.5 0 0 1 .5-.5z"></path></svg></g><g ></g><g ></g><g ></g></g><image  id="v-11285"></image></g></g><!--z-index:29--><g   id="j_834"  transform="translate(6000,345)" style=""><g  id="v-11295" style="opacity: 1;"><rect  id="v-11296" rx="20" ry="20" stroke-width="2" pointer-events="visiblePainted" fill="#2f855a" stroke="#22543d" stroke-dasharray="" width="450" height="300" style="fill: rgb(47, 133, 90); stroke: rgb(34, 84, 61);"></rect><text  id="v-11297" font-size="33.599999999999994px" xml:space="preserve" y="-196.77999999999997" font-weight="bold" text-anchor="middle" pointer-events="visible" font-family="Tahoma, Verdana, Helvetica, Arial" fill="#ffffff" dominant-baseline="hanging" transform="matrix(1,0,0,1,225,0)" style="fill: rgb(255, 255, 255);"><tspan dy="0" >Cluster Node Runtime</tspan></text><text  id="v-11298" font-size="16.799999999999997px" xml:space="preserve" y="-155.17999999999998" text-anchor="middle" font-family="Tahoma, Verdana, Helvetica, Arial" fill="#ffffff" dominant-baseline="hanging" transform="matrix(1,0,0,1,225,0)" style="display: block; fill: rgb(255, 255, 255);"><tspan dy="0" >[Container: Java 21, Apache Ratis 3.2.2, grpc-java</tspan><tspan dy="1.2em" x="0" >1.82.2, protobuf 3.25.8, mTLS]</tspan></text><text  id="v-11299" font-size="24px" xml:space="preserve" y="-103.21999999999998" text-anchor="middle" font-family="Tahoma, Verdana, Helvetica, Arial" fill="#ffffff" dominant-baseline="hanging" transform="matrix(1,0,0,1,225,0)" style="display: block; fill: rgb(255, 255, 255);"><tspan dy="0" >Fixed A/B/C voter/storage runtime</tspan><tspan dy="1.2em" x="0" >for unconditional CreateBucket,</tspan><tspan dy="1.2em" x="0" >single-part whole-object PUT/GET,</tspan><tspan dy="1.2em" x="0" >and bounded repair of a missing or</tspan><tspan dy="1.2em" x="0" >corrupt replica named by the current</tspan><tspan dy="1.2em" x="0" >committed generation. Each JVM</tspan><tspan dy="1.2em" x="0" >co-locates one Ratis voter, one</tspan><tspan dy="1.2em" x="0" >replica data server, a request-facing</tspan><tspan dy="1.2em" x="0" >repair coordinator, a process-local</tspan><tspan dy="1.2em" x="0" >scheduler, and a fenced worker.</tspan><tspan dy="1.2em" x="0" >Ratis owns durable repair identity,</tspan><tspan dy="1.2em" x="0" >lifecycle, claims, results, and</tspan><tspan dy="1.2em" x="0" >snapshot recovery; verified</tspan><tspan dy="1.2em" x="0" >whole-object bytes remain on the</tspan><tspan dy="1.2em" x="0" >direct replica path. It exposes no</tspan><tspan dy="1.2em" x="0" >separate object API and excludes</tspan><tspan dy="1.2em" x="0" >dynamic membership, clustered</tspan><tspan dy="1.2em" x="0" >multipart/versioning, erasure coding,</tspan><tspan dy="1.2em" x="0" >rebalance, broad or periodic</tspan><tspan dy="1.2em" x="0" >anti-entropy discovery, and</tspan><tspan dy="1.2em" x="0" >automated orphan cleanup.</tspan></text><g  id="v-11300" color="#ffffff" transform="matrix(1,0,0,1,210,268)" display="none" style="fill: rgb(255, 255, 255);"><g  transform="translate(5 0)"><svg xmlns="http://www.w3.org/2000/svg" width="20" height="20" fill="currentColor" viewBox="0 0 16 16"><path fill-rule="evenodd" d="M6.5 12a5.5 5.5 0 1 0 0-11 5.5 5.5 0 0 0 0 11zM13 6.5a6.5 6.5 0 1 1-13 0 6.5 6.5 0 0 1 13 0z"></path><path d="M10.344 11.742c.03.04.062.078.098.115l3.85 3.85a1 1 0 0 0 1.415-1.414l-3.85-3.85a1.007 1.007 0 0 0-.115-.1 6.538 6.538 0 0 1-1.398 1.4z"></path><path fill-rule="evenodd" d="M6.5 3a.5.5 0 0 1 .5.5V6h2.5a.5.5 0 0 1 0 1H7v2.5a.5.5 0 0 1-1 0V7H3.5a.5.5 0 0 1 0-1H6V3.5a.5.5 0 0 1 .5-.5z"></path></svg></g><g ></g><g ></g><g ></g></g><image  id="v-11301"></image></g></g><!--z-index:30--><g   id="j_822"  transform="translate(20,1117)"><g id="v-11117"><text  id="v-11118" font-size="24px" xml:space="preserve" y="0.8em" font-weight="normal" text-anchor="start" fill="#444444" pointer-events="none" display="block" font-family="Tahoma, Verdana, Helvetica, Arial"><tspan dy="0" >lunedì 13 luglio 2026 alle ore 23:17 Ora legale dell’Europa centrale</tspan></text></g></g><!--z-index:31--><g   id="j_821"  transform="translate(20,1083)"><g id="v-11115"><text  id="v-11116" font-size="24px" xml:space="preserve" y="0.8em" font-weight="normal" text-anchor="start" fill="#444444" pointer-events="none" display="block" font-family="Tahoma, Verdana, Helvetica, Arial"><tspan dy="0" >Real child JVMs run isolated A/B/C roots with ephemeral test-local CA/certificate/trust fixtures. Node A is the initial S3 coordinator, node B is the surviving read and repair target, and node C is a surviving voter and named repair source. WebTestClient and AWS CLI drive the existing S3 endpoint. The ephemeral PKI is test-only; production certificate enrollment, custody, rotation, revocation, and expiry monitoring are outside this topology.</tspan></text></g></g><!--z-index:32--><g   id="j_820"  transform="translate(20,1037)"><g id="v-11113"><text  id="v-11114" font-size="36px" xml:space="preserve" y="0.8em" font-weight="normal" text-anchor="start" fill="#444444" pointer-events="none" display="block" font-family="Tahoma, Verdana, Helvetica, Arial"><tspan dy="0" >Deployment: Isolated Real-Process A/B/C Acceptance Topology</tspan></text></g></g><!--z-index:33--><!--z-index:34--><!--z-index:35--><!--z-index:36--><!--z-index:37--><!--z-index:38--><!--z-index:39--><!--z-index:40--><!--z-index:41--><!--z-index:42--><!--z-index:43--><!--z-index:44--><!--z-index:45--><!--z-index:46--><!--z-index:47--><!--z-index:48--><!--z-index:49--><!--z-index:50--><!--z-index:51--><!--z-index:52--><!--z-index:53--><!--z-index:54--><!--z-index:55--><!--z-index:56--><!--z-index:57--><!--z-index:58--><!--z-index:59--><!--z-index:60--><!--z-index:61--><!--z-index:62--><!--z-index:63--><!--z-index:64--><!--z-index:65--><!--z-index:66--><!--z-index:67--><!--z-index:68--><!--z-index:69--><!--z-index:70--><!--z-index:71--><!--z-index:72--><!--z-index:73--><!--z-index:74--><!--z-index:75--><!--z-index:76--><!--z-index:77--><!--z-index:78--><!--z-index:79--><!--z-index:80--><!--z-index:81--><!--z-index:82--><!--z-index:83--><!--z-index:84--><!--z-index:85--><!--z-index:86--><!--z-index:87--><!--z-index:88--><!--z-index:89--><!--z-index:90--><!--z-index:91--><!--z-index:92--><!--z-index:93--><!--z-index:94--><!--z-index:95--></g><g  style="user-select: none;"></g><g ></g><g  display="none"></g></g></svg>