<svg xmlns="http://www.w3.org/2000/svg" xmlns:xlink="http://www.w3.org/1999/xlink" version="1.1" width="6750" height="1060" style="width: 6750px; height: 1060px; background: #ffffff" viewBox="0 0 6750 1060"><style id="v-3" type="text/css">        .joint-element .scalable * {            vector-effect: non-scaling-stroke;        }    </style><defs joint-selector="defs"><marker id="v-21252848929" orient="auto" overflow="visible" markerUnits="userSpaceOnUse"><path id="v-65" stroke="#444444" fill="#444444" transform="rotate(180)" d="M 20 -10 0 0 20 10 Z"></path></marker><marker id="v-2-1424592063" orient="auto" overflow="visible" markerUnits="userSpaceOnUse"><path id="v-1954" stroke="#6b7280" fill="#6b7280" transform="rotate(180)" d="M 20 -10 0 0 20 10 Z"></path></marker></defs><g joint-selector="layers"  transform="matrix(1,0,0,1,0,0)"><g  style="pointer-events: none;"></g><g ></g><g  style="user-select: none;"><!--z-index:-4--><!--z-index:-3--><!--z-index:-2--><!--z-index:-1--><!--z-index:0--><!--z-index:1--><!--z-index:2--><!--z-index:3--><!--z-index:4--><!--z-index:5--><!--z-index:6--><!--z-index:7--><!--z-index:8--><!--z-index:9--><!--z-index:10--><!--z-index:11--><!--z-index:12--><!--z-index:13--><!--z-index:14--><g   id="j_695"  transform="translate(199,145)" style=""><g  id="v-9220" style="opacity: 1;"><rect  id="v-9221" width="6350" height="658" rx="10" ry="10" stroke-width="2" pointer-events="none" stroke="#22543d" stroke-dasharray="" fill="#2f855a" opacity="1" style="stroke: rgb(34, 84, 61);"></rect><text  id="v-9222" font-size="33.599999999999994px" xml:space="preserve" y="619" font-weight="bold" text-anchor="start" pointer-events="visible" font-family="Tahoma, Verdana, Helvetica, Arial" fill="#ffffff" transform="matrix(1,0,0,1,15,0)" style="fill: rgb(255, 255, 255);"><tspan dy="0" >Independent failure domains</tspan></text><text  id="v-9223" font-size="16.799999999999997px" xml:space="preserve" y="643" font-weight="normal" text-anchor="start" pointer-events="visible" font-family="Tahoma, Verdana, Helvetica, Arial" fill="#ffffff" transform="matrix(1,0,0,1,15,0)" style="display: block; fill: rgb(255, 255, 255);"><tspan dy="0" >[Deployment Node: Deployment infrastructure]</tspan></text><text  id="v-9224" font-size="40px" xml:space="preserve" display="none" y="643" font-weight="normal" fill="#ffffff" text-anchor="end" pointer-events="visible" font-family="Tahoma, Verdana, Helvetica, Arial" transform="matrix(1,0,0,1,6335,0)"><tspan dy="0" style="fill-opacity: 0; stroke-opacity: 0;" >-</tspan></text><image  id="v-9225" pointer-events="visible"></image></g></g><!--z-index:15--><g   id="j_696"  transform="translate(249,195)" style=""><g  id="v-9226" style="opacity: 1;"><rect  id="v-9227" width="2050" height="479" rx="10" ry="10" stroke-width="2" pointer-events="none" stroke="#22543d" stroke-dasharray="" fill="#2f855a" opacity="1" style="stroke: rgb(34, 84, 61);"></rect><text  id="v-9228" font-size="33.599999999999994px" xml:space="preserve" y="440" font-weight="bold" text-anchor="start" pointer-events="visible" font-family="Tahoma, Verdana, Helvetica, Arial" fill="#ffffff" transform="matrix(1,0,0,1,15,0)" style="fill: rgb(255, 255, 255);"><tspan dy="0" >Node A JVM</tspan></text><text  id="v-9229" font-size="16.799999999999997px" xml:space="preserve" y="464" font-weight="normal" text-anchor="start" pointer-events="visible" font-family="Tahoma, Verdana, Helvetica, Arial" fill="#ffffff" transform="matrix(1,0,0,1,15,0)" style="display: block; fill: rgb(255, 255, 255);"><tspan dy="0" >[Deployment Node: Java 21 JVM]</tspan></text><text  id="v-9230" font-size="40px" xml:space="preserve" display="none" y="464" font-weight="normal" fill="#ffffff" text-anchor="end" pointer-events="visible" font-family="Tahoma, Verdana, Helvetica, Arial" transform="matrix(1,0,0,1,2035,0)"><tspan dy="0" style="fill-opacity: 0; stroke-opacity: 0;" >-</tspan></text><image  id="v-9231" pointer-events="visible"></image></g></g><!--z-index:16--><g   id="j_697"  transform="translate(2349,195)" style=""><g  id="v-9232" style="opacity: 1;"><rect  id="v-9233" width="2050" height="479" rx="10" ry="10" stroke-width="2" pointer-events="none" stroke="#22543d" stroke-dasharray="" fill="#2f855a" opacity="1" style="stroke: rgb(34, 84, 61);"></rect><text  id="v-9234" font-size="33.599999999999994px" xml:space="preserve" y="440" font-weight="bold" text-anchor="start" pointer-events="visible" font-family="Tahoma, Verdana, Helvetica, Arial" fill="#ffffff" transform="matrix(1,0,0,1,15,0)" style="fill: rgb(255, 255, 255);"><tspan dy="0" >Node B JVM</tspan></text><text  id="v-9235" font-size="16.799999999999997px" xml:space="preserve" y="464" font-weight="normal" text-anchor="start" pointer-events="visible" font-family="Tahoma, Verdana, Helvetica, Arial" fill="#ffffff" transform="matrix(1,0,0,1,15,0)" style="display: block; fill: rgb(255, 255, 255);"><tspan dy="0" >[Deployment Node: Java 21 JVM]</tspan></text><text  id="v-9236" font-size="40px" xml:space="preserve" display="none" y="464" font-weight="normal" fill="#ffffff" text-anchor="end" pointer-events="visible" font-family="Tahoma, Verdana, Helvetica, Arial" transform="matrix(1,0,0,1,2035,0)"><tspan dy="0" style="fill-opacity: 0; stroke-opacity: 0;" >-</tspan></text><image  id="v-9237" pointer-events="visible"></image></g></g><!--z-index:17--><g   id="j_698"  transform="translate(4449,195)" style=""><g  id="v-9238" style="opacity: 1;"><rect  id="v-9239" width="2050" height="479" rx="10" ry="10" stroke-width="2" pointer-events="none" stroke="#22543d" stroke-dasharray="" fill="#2f855a" opacity="1" style="stroke: rgb(34, 84, 61);"></rect><text  id="v-9240" font-size="33.599999999999994px" xml:space="preserve" y="440" font-weight="bold" text-anchor="start" pointer-events="visible" font-family="Tahoma, Verdana, Helvetica, Arial" fill="#ffffff" transform="matrix(1,0,0,1,15,0)" style="fill: rgb(255, 255, 255);"><tspan dy="0" >Node C JVM</tspan></text><text  id="v-9241" font-size="16.799999999999997px" xml:space="preserve" y="464" font-weight="normal" text-anchor="start" pointer-events="visible" font-family="Tahoma, Verdana, Helvetica, Arial" fill="#ffffff" transform="matrix(1,0,0,1,15,0)" style="display: block; fill: rgb(255, 255, 255);"><tspan dy="0" >[Deployment Node: Java 21 JVM]</tspan></text><text  id="v-9242" font-size="40px" xml:space="preserve" display="none" y="464" font-weight="normal" fill="#ffffff" text-anchor="end" pointer-events="visible" font-family="Tahoma, Verdana, Helvetica, Arial" transform="matrix(1,0,0,1,2035,0)"><tspan dy="0" style="fill-opacity: 0; stroke-opacity: 0;" >-</tspan></text><image  id="v-9243" pointer-events="visible"></image></g></g><!--z-index:18--><g   id="j_683"  transform="translate(299,245)" style=""><g  id="v-9046" style="opacity: 1;"><rect  id="v-9047" rx="20" ry="20" stroke-width="2" pointer-events="visiblePainted" fill="#438dd5" stroke="#3c7fc0" stroke-dasharray="" width="450" height="300" style="fill: rgb(67, 141, 213); stroke: rgb(60, 127, 192);"></rect><text  id="v-9048" font-size="33.599999999999994px" xml:space="preserve" y="-95.97999999999999" font-weight="bold" text-anchor="middle" pointer-events="visible" font-family="Tahoma, Verdana, Helvetica, Arial" fill="#ffffff" dominant-baseline="hanging" transform="matrix(1,0,0,1,225,0)" style="fill: rgb(255, 255, 255);"><tspan dy="0" >bootstrap-application</tspan></text><text  id="v-9049" font-size="16.799999999999997px" xml:space="preserve" y="-54.379999999999995" text-anchor="middle" font-family="Tahoma, Verdana, Helvetica, Arial" fill="#ffffff" dominant-baseline="hanging" transform="matrix(1,0,0,1,225,0)" style="display: block; fill: rgb(255, 255, 255);"><tspan dy="0" >[Container: Spring Boot 4 WebFlux, Reactor Netty,</tspan><tspan dy="1.2em" x="0" >Maven resources/exec/antrun, Node.js/Vite]</tspan></text><text  id="v-9050" font-size="24px" xml:space="preserve" y="-2.4200000000000017" text-anchor="middle" font-family="Tahoma, Verdana, Helvetica, Arial" fill="#ffffff" dominant-baseline="hanging" transform="matrix(1,0,0,1,225,0)" style="display: block; fill: rgb(255, 255, 255);"><tspan dy="0" >Executable Spring Boot</tspan><tspan dy="1.2em" x="0" >application/fat JAR that composes</tspan><tspan dy="1.2em" x="0" >the S3 API, admin API, object-store</tspan><tspan dy="1.2em" x="0" >capabilities, and selectable</tspan><tspan dy="1.2em" x="0" >persistence backends. It owns the</tspan><tspan dy="1.2em" x="0" >static asset handoff: during</tspan><tspan dy="1.2em" x="0" >generate-resources it builds/copies</tspan><tspan dy="1.2em" x="0" >magrathea-ui dist assets plus</tspan><tspan dy="1.2em" x="0" >generated docs/reports/C4 and</tspan><tspan dy="1.2em" x="0" >arc42 images into</tspan><tspan dy="1.2em" x="0" >bootstrap-application classpath</tspan><tspan dy="1.2em" x="0" >static resources, while</tspan><tspan dy="1.2em" x="0" >admin-api-adapter supplies only</tspan><tspan dy="1.2em" x="0" >admin API routes.</tspan></text><g  id="v-9051" color="#ffffff" transform="matrix(1,0,0,1,210,268)" display="none" style="fill: rgb(255, 255, 255);"><g  transform="translate(5 0)"><svg xmlns="http://www.w3.org/2000/svg" width="20" height="20" fill="currentColor" viewBox="0 0 16 16"><path fill-rule="evenodd" d="M6.5 12a5.5 5.5 0 1 0 0-11 5.5 5.5 0 0 0 0 11zM13 6.5a6.5 6.5 0 1 1-13 0 6.5 6.5 0 0 1 13 0z"></path><path d="M10.344 11.742c.03.04.062.078.098.115l3.85 3.85a1 1 0 0 0 1.415-1.414l-3.85-3.85a1.007 1.007 0 0 0-.115-.1 6.538 6.538 0 0 1-1.398 1.4z"></path><path fill-rule="evenodd" d="M6.5 3a.5.5 0 0 1 .5.5V6h2.5a.5.5 0 0 1 0 1H7v2.5a.5.5 0 0 1-1 0V7H3.5a.5.5 0 0 1 0-1H6V3.5a.5.5 0 0 1 .5-.5z"></path></svg></g><g ></g><g ></g><g ></g></g><image  id="v-9052"></image></g></g><!--z-index:19--><g   id="j_684"  transform="translate(799,245)" style=""><g  id="v-9062" style="opacity: 1;"><rect  id="v-9063" rx="20" ry="20" stroke-width="2" pointer-events="visiblePainted" fill="#438dd5" stroke="#3c7fc0" stroke-dasharray="" width="450" height="300" style="fill: rgb(67, 141, 213); stroke: rgb(60, 127, 192);"></rect><text  id="v-9064" font-size="33.599999999999994px" xml:space="preserve" y="33.620000000000005" font-weight="bold" text-anchor="middle" pointer-events="visible" font-family="Tahoma, Verdana, Helvetica, Arial" fill="#ffffff" dominant-baseline="hanging" transform="matrix(1,0,0,1,225,0)" style="fill: rgb(255, 255, 255);"><tspan dy="0" >s3-reactive-api-adapter</tspan></text><text  id="v-9065" font-size="16.799999999999997px" xml:space="preserve" y="75.22" text-anchor="middle" font-family="Tahoma, Verdana, Helvetica, Arial" fill="#ffffff" dominant-baseline="hanging" transform="matrix(1,0,0,1,225,0)" style="display: block; fill: rgb(255, 255, 255);"><tspan dy="0" >[Container: Spring Boot 4 WebFlux, RouterFunction,</tspan><tspan dy="1.2em" x="0" >Java 21, Jackson XML]</tspan></text><text  id="v-9066" font-size="24px" xml:space="preserve" y="127.17999999999999" text-anchor="middle" font-family="Tahoma, Verdana, Helvetica, Arial" fill="#ffffff" dominant-baseline="hanging" transform="matrix(1,0,0,1,225,0)" style="display: block; fill: rgb(255, 255, 255);"><tspan dy="0" >HTTP adapter that exposes the</tspan><tspan dy="1.2em" x="0" >S3-compatible REST API and</tspan><tspan dy="1.2em" x="0" >translates HTTP/XML/binary</tspan><tspan dy="1.2em" x="0" >requests into reactive application</tspan><tspan dy="1.2em" x="0" >use cases.</tspan></text><g  id="v-9067" color="#ffffff" transform="matrix(1,0,0,1,210,268)" display="none" style="fill: rgb(255, 255, 255);"><g  transform="translate(5 0)"><svg xmlns="http://www.w3.org/2000/svg" width="20" height="20" fill="currentColor" viewBox="0 0 16 16"><path fill-rule="evenodd" d="M6.5 12a5.5 5.5 0 1 0 0-11 5.5 5.5 0 0 0 0 11zM13 6.5a6.5 6.5 0 1 1-13 0 6.5 6.5 0 0 1 13 0z"></path><path d="M10.344 11.742c.03.04.062.078.098.115l3.85 3.85a1 1 0 0 0 1.415-1.414l-3.85-3.85a1.007 1.007 0 0 0-.115-.1 6.538 6.538 0 0 1-1.398 1.4z"></path><path fill-rule="evenodd" d="M6.5 3a.5.5 0 0 1 .5.5V6h2.5a.5.5 0 0 1 0 1H7v2.5a.5.5 0 0 1-1 0V7H3.5a.5.5 0 0 1 0-1H6V3.5a.5.5 0 0 1 .5-.5z"></path></svg></g><g ></g><g ></g><g ></g></g><image  id="v-9068"></image></g></g><!--z-index:20--><g   id="j_685"  transform="translate(1299,245)" style=""><g  id="v-9075" style="opacity: 1;"><rect  id="v-9076" rx="20" ry="20" stroke-width="2" pointer-events="visiblePainted" fill="#438dd5" stroke="#3c7fc0" stroke-dasharray="" width="450" height="300" style="fill: rgb(67, 141, 213); stroke: rgb(60, 127, 192);"></rect><text  id="v-9077" font-size="33.599999999999994px" xml:space="preserve" y="-57.099999999999966" font-weight="bold" text-anchor="middle" pointer-events="visible" font-family="Tahoma, Verdana, Helvetica, Arial" fill="#ffffff" dominant-baseline="hanging" transform="matrix(1,0,0,1,225,0)" style="fill: rgb(255, 255, 255);"><tspan dy="0" >storage-engine</tspan></text><text  id="v-9078" font-size="16.799999999999997px" xml:space="preserve" y="-15.499999999999972" text-anchor="middle" font-family="Tahoma, Verdana, Helvetica, Arial" fill="#ffffff" dominant-baseline="hanging" transform="matrix(1,0,0,1,225,0)" style="display: block; fill: rgb(255, 255, 255);"><tspan dy="0" >[Container: Java 21, domain-driven]</tspan></text><text  id="v-9079" font-size="24px" xml:space="preserve" y="16.300000000000026" text-anchor="middle" font-family="Tahoma, Verdana, Helvetica, Arial" fill="#ffffff" dominant-baseline="hanging" transform="matrix(1,0,0,1,225,0)" style="display: block; fill: rgb(255, 255, 255);"><tspan dy="0" >Storage Engine bounded context:</tspan><tspan dy="1.2em" x="0" >persistence pipeline, virtual devices,</tspan><tspan dy="1.2em" x="0" >storage policies, optional</tspan><tspan dy="1.2em" x="0" >deduplication, erasure coding,</tspan><tspan dy="1.2em" x="0" >content-addressed storage, and</tspan><tspan dy="1.2em" x="0" >manifest management.</tspan><tspan dy="1.2em" x="0" >MINIO_STANDARD is modeled as</tspan><tspan dy="1.2em" x="0" >STANDARD with dedup disabled,</tspan><tspan dy="1.2em" x="0" >EC enabled (4 data / 2 parity),</tspan><tspan dy="1.2em" x="0" >replication factor 1, compression</tspan><tspan dy="1.2em" x="0" >disabled, and encryption disabled by</tspan><tspan dy="1.2em" x="0" >default.</tspan></text><g  id="v-9080" color="#ffffff" transform="matrix(1,0,0,1,210,268)" display="none" style="fill: rgb(255, 255, 255);"><g  transform="translate(5 0)"><svg xmlns="http://www.w3.org/2000/svg" width="20" height="20" fill="currentColor" viewBox="0 0 16 16"><path fill-rule="evenodd" d="M6.5 12a5.5 5.5 0 1 0 0-11 5.5 5.5 0 0 0 0 11zM13 6.5a6.5 6.5 0 1 1-13 0 6.5 6.5 0 0 1 13 0z"></path><path d="M10.344 11.742c.03.04.062.078.098.115l3.85 3.85a1 1 0 0 0 1.415-1.414l-3.85-3.85a1.007 1.007 0 0 0-.115-.1 6.538 6.538 0 0 1-1.398 1.4z"></path><path fill-rule="evenodd" d="M6.5 3a.5.5 0 0 1 .5.5V6h2.5a.5.5 0 0 1 0 1H7v2.5a.5.5 0 0 1-1 0V7H3.5a.5.5 0 0 1 0-1H6V3.5a.5.5 0 0 1 .5-.5z"></path></svg></g><g ></g><g ></g><g ></g></g><image  id="v-9081"></image></g></g><!--z-index:21--><g   id="j_686"  transform="translate(1799,245)" style=""><g  id="v-9091" style="opacity: 1;"><rect  id="v-9092" rx="20" ry="20" stroke-width="2" pointer-events="visiblePainted" fill="#2f855a" stroke="#22543d" stroke-dasharray="" width="450" height="300" style="fill: rgb(47, 133, 90); stroke: rgb(34, 84, 61);"></rect><text  id="v-9093" font-size="33.599999999999994px" xml:space="preserve" y="-81.57999999999998" font-weight="bold" text-anchor="middle" pointer-events="visible" font-family="Tahoma, Verdana, Helvetica, Arial" fill="#ffffff" dominant-baseline="hanging" transform="matrix(1,0,0,1,225,0)" style="fill: rgb(255, 255, 255);"><tspan dy="0" >Cluster Node Runtime</tspan></text><text  id="v-9094" font-size="16.799999999999997px" xml:space="preserve" y="-39.97999999999999" text-anchor="middle" font-family="Tahoma, Verdana, Helvetica, Arial" fill="#ffffff" dominant-baseline="hanging" transform="matrix(1,0,0,1,225,0)" style="display: block; fill: rgb(255, 255, 255);"><tspan dy="0" >[Container: Java 21, Apache Ratis 3.2.2, grpc-java</tspan><tspan dy="1.2em" x="0" >1.82.2, protobuf 3.25.8, mTLS]</tspan></text><text  id="v-9095" font-size="24px" xml:space="preserve" y="11.980000000000004" text-anchor="middle" font-family="Tahoma, Verdana, Helvetica, Arial" fill="#ffffff" dominant-baseline="hanging" transform="matrix(1,0,0,1,225,0)" style="display: block; fill: rgb(255, 255, 255);"><tspan dy="0" >Implemented and validated only for</tspan><tspan dy="1.2em" x="0" >the bounded EP-10 first slice: one</tspan><tspan dy="1.2em" x="0" >co-located voter/storage runtime,</tspan><tspan dy="1.2em" x="0" >instantiated as fixed nodes A, B, and</tspan><tspan dy="1.2em" x="0" >C. Each JVM owns one Ratis voter</tspan><tspan dy="1.2em" x="0" >and one independent replica data</tspan><tspan dy="1.2em" x="0" >server. Consensus orders bucket</tspan><tspan dy="1.2em" x="0" >and immutable</tspan><tspan dy="1.2em" x="0" >whole-object-reference generations;</tspan><tspan dy="1.2em" x="0" >direct N=3/W=2 replication has no</tspan><tspan dy="1.2em" x="0" >degraded writes. Internal only; not</tspan><tspan dy="1.2em" x="0" >an object API and not a</tspan><tspan dy="1.2em" x="0" >production-readiness claim.</tspan></text><g  id="v-9096" color="#ffffff" transform="matrix(1,0,0,1,210,268)" display="none" style="fill: rgb(255, 255, 255);"><g  transform="translate(5 0)"><svg xmlns="http://www.w3.org/2000/svg" width="20" height="20" fill="currentColor" viewBox="0 0 16 16"><path fill-rule="evenodd" d="M6.5 12a5.5 5.5 0 1 0 0-11 5.5 5.5 0 0 0 0 11zM13 6.5a6.5 6.5 0 1 1-13 0 6.5 6.5 0 0 1 13 0z"></path><path d="M10.344 11.742c.03.04.062.078.098.115l3.85 3.85a1 1 0 0 0 1.415-1.414l-3.85-3.85a1.007 1.007 0 0 0-.115-.1 6.538 6.538 0 0 1-1.398 1.4z"></path><path fill-rule="evenodd" d="M6.5 3a.5.5 0 0 1 .5.5V6h2.5a.5.5 0 0 1 0 1H7v2.5a.5.5 0 0 1-1 0V7H3.5a.5.5 0 0 1 0-1H6V3.5a.5.5 0 0 1 .5-.5z"></path></svg></g><g ></g><g ></g><g ></g></g><image  id="v-9097"></image></g></g><!--z-index:22--><g   id="j_687"  transform="translate(2399,245)" style=""><g  id="v-9107" style="opacity: 1;"><rect  id="v-9108" rx="20" ry="20" stroke-width="2" pointer-events="visiblePainted" fill="#438dd5" stroke="#3c7fc0" stroke-dasharray="" width="450" height="300" style="fill: rgb(67, 141, 213); stroke: rgb(60, 127, 192);"></rect><text  id="v-9109" font-size="33.599999999999994px" xml:space="preserve" y="-95.97999999999999" font-weight="bold" text-anchor="middle" pointer-events="visible" font-family="Tahoma, Verdana, Helvetica, Arial" fill="#ffffff" dominant-baseline="hanging" transform="matrix(1,0,0,1,225,0)" style="fill: rgb(255, 255, 255);"><tspan dy="0" >bootstrap-application</tspan></text><text  id="v-9110" font-size="16.799999999999997px" xml:space="preserve" y="-54.379999999999995" text-anchor="middle" font-family="Tahoma, Verdana, Helvetica, Arial" fill="#ffffff" dominant-baseline="hanging" transform="matrix(1,0,0,1,225,0)" style="display: block; fill: rgb(255, 255, 255);"><tspan dy="0" >[Container: Spring Boot 4 WebFlux, Reactor Netty,</tspan><tspan dy="1.2em" x="0" >Maven resources/exec/antrun, Node.js/Vite]</tspan></text><text  id="v-9111" font-size="24px" xml:space="preserve" y="-2.4200000000000017" text-anchor="middle" font-family="Tahoma, Verdana, Helvetica, Arial" fill="#ffffff" dominant-baseline="hanging" transform="matrix(1,0,0,1,225,0)" style="display: block; fill: rgb(255, 255, 255);"><tspan dy="0" >Executable Spring Boot</tspan><tspan dy="1.2em" x="0" >application/fat JAR that composes</tspan><tspan dy="1.2em" x="0" >the S3 API, admin API, object-store</tspan><tspan dy="1.2em" x="0" >capabilities, and selectable</tspan><tspan dy="1.2em" x="0" >persistence backends. It owns the</tspan><tspan dy="1.2em" x="0" >static asset handoff: during</tspan><tspan dy="1.2em" x="0" >generate-resources it builds/copies</tspan><tspan dy="1.2em" x="0" >magrathea-ui dist assets plus</tspan><tspan dy="1.2em" x="0" >generated docs/reports/C4 and</tspan><tspan dy="1.2em" x="0" >arc42 images into</tspan><tspan dy="1.2em" x="0" >bootstrap-application classpath</tspan><tspan dy="1.2em" x="0" >static resources, while</tspan><tspan dy="1.2em" x="0" >admin-api-adapter supplies only</tspan><tspan dy="1.2em" x="0" >admin API routes.</tspan></text><g  id="v-9112" color="#ffffff" transform="matrix(1,0,0,1,210,268)" display="none" style="fill: rgb(255, 255, 255);"><g  transform="translate(5 0)"><svg xmlns="http://www.w3.org/2000/svg" width="20" height="20" fill="currentColor" viewBox="0 0 16 16"><path fill-rule="evenodd" d="M6.5 12a5.5 5.5 0 1 0 0-11 5.5 5.5 0 0 0 0 11zM13 6.5a6.5 6.5 0 1 1-13 0 6.5 6.5 0 0 1 13 0z"></path><path d="M10.344 11.742c.03.04.062.078.098.115l3.85 3.85a1 1 0 0 0 1.415-1.414l-3.85-3.85a1.007 1.007 0 0 0-.115-.1 6.538 6.538 0 0 1-1.398 1.4z"></path><path fill-rule="evenodd" d="M6.5 3a.5.5 0 0 1 .5.5V6h2.5a.5.5 0 0 1 0 1H7v2.5a.5.5 0 0 1-1 0V7H3.5a.5.5 0 0 1 0-1H6V3.5a.5.5 0 0 1 .5-.5z"></path></svg></g><g ></g><g ></g><g ></g></g><image  id="v-9113"></image></g></g><!--z-index:23--><g   id="j_688"  transform="translate(2899,245)" style=""><g  id="v-9123" style="opacity: 1;"><rect  id="v-9124" rx="20" ry="20" stroke-width="2" pointer-events="visiblePainted" fill="#438dd5" stroke="#3c7fc0" stroke-dasharray="" width="450" height="300" style="fill: rgb(67, 141, 213); stroke: rgb(60, 127, 192);"></rect><text  id="v-9125" font-size="33.599999999999994px" xml:space="preserve" y="33.620000000000005" font-weight="bold" text-anchor="middle" pointer-events="visible" font-family="Tahoma, Verdana, Helvetica, Arial" fill="#ffffff" dominant-baseline="hanging" transform="matrix(1,0,0,1,225,0)" style="fill: rgb(255, 255, 255);"><tspan dy="0" >s3-reactive-api-adapter</tspan></text><text  id="v-9126" font-size="16.799999999999997px" xml:space="preserve" y="75.22" text-anchor="middle" font-family="Tahoma, Verdana, Helvetica, Arial" fill="#ffffff" dominant-baseline="hanging" transform="matrix(1,0,0,1,225,0)" style="display: block; fill: rgb(255, 255, 255);"><tspan dy="0" >[Container: Spring Boot 4 WebFlux, RouterFunction,</tspan><tspan dy="1.2em" x="0" >Java 21, Jackson XML]</tspan></text><text  id="v-9127" font-size="24px" xml:space="preserve" y="127.17999999999999" text-anchor="middle" font-family="Tahoma, Verdana, Helvetica, Arial" fill="#ffffff" dominant-baseline="hanging" transform="matrix(1,0,0,1,225,0)" style="display: block; fill: rgb(255, 255, 255);"><tspan dy="0" >HTTP adapter that exposes the</tspan><tspan dy="1.2em" x="0" >S3-compatible REST API and</tspan><tspan dy="1.2em" x="0" >translates HTTP/XML/binary</tspan><tspan dy="1.2em" x="0" >requests into reactive application</tspan><tspan dy="1.2em" x="0" >use cases.</tspan></text><g  id="v-9128" color="#ffffff" transform="matrix(1,0,0,1,210,268)" display="none" style="fill: rgb(255, 255, 255);"><g  transform="translate(5 0)"><svg xmlns="http://www.w3.org/2000/svg" width="20" height="20" fill="currentColor" viewBox="0 0 16 16"><path fill-rule="evenodd" d="M6.5 12a5.5 5.5 0 1 0 0-11 5.5 5.5 0 0 0 0 11zM13 6.5a6.5 6.5 0 1 1-13 0 6.5 6.5 0 0 1 13 0z"></path><path d="M10.344 11.742c.03.04.062.078.098.115l3.85 3.85a1 1 0 0 0 1.415-1.414l-3.85-3.85a1.007 1.007 0 0 0-.115-.1 6.538 6.538 0 0 1-1.398 1.4z"></path><path fill-rule="evenodd" d="M6.5 3a.5.5 0 0 1 .5.5V6h2.5a.5.5 0 0 1 0 1H7v2.5a.5.5 0 0 1-1 0V7H3.5a.5.5 0 0 1 0-1H6V3.5a.5.5 0 0 1 .5-.5z"></path></svg></g><g ></g><g ></g><g ></g></g><image  id="v-9129"></image></g></g><!--z-index:24--><g   id="j_689"  transform="translate(3399,245)" style=""><g  id="v-9136" style="opacity: 1;"><rect  id="v-9137" rx="20" ry="20" stroke-width="2" pointer-events="visiblePainted" fill="#438dd5" stroke="#3c7fc0" stroke-dasharray="" width="450" height="300" style="fill: rgb(67, 141, 213); stroke: rgb(60, 127, 192);"></rect><text  id="v-9138" font-size="33.599999999999994px" xml:space="preserve" y="-57.099999999999966" font-weight="bold" text-anchor="middle" pointer-events="visible" font-family="Tahoma, Verdana, Helvetica, Arial" fill="#ffffff" dominant-baseline="hanging" transform="matrix(1,0,0,1,225,0)" style="fill: rgb(255, 255, 255);"><tspan dy="0" >storage-engine</tspan></text><text  id="v-9139" font-size="16.799999999999997px" xml:space="preserve" y="-15.499999999999972" text-anchor="middle" font-family="Tahoma, Verdana, Helvetica, Arial" fill="#ffffff" dominant-baseline="hanging" transform="matrix(1,0,0,1,225,0)" style="display: block; fill: rgb(255, 255, 255);"><tspan dy="0" >[Container: Java 21, domain-driven]</tspan></text><text  id="v-9140" font-size="24px" xml:space="preserve" y="16.300000000000026" text-anchor="middle" font-family="Tahoma, Verdana, Helvetica, Arial" fill="#ffffff" dominant-baseline="hanging" transform="matrix(1,0,0,1,225,0)" style="display: block; fill: rgb(255, 255, 255);"><tspan dy="0" >Storage Engine bounded context:</tspan><tspan dy="1.2em" x="0" >persistence pipeline, virtual devices,</tspan><tspan dy="1.2em" x="0" >storage policies, optional</tspan><tspan dy="1.2em" x="0" >deduplication, erasure coding,</tspan><tspan dy="1.2em" x="0" >content-addressed storage, and</tspan><tspan dy="1.2em" x="0" >manifest management.</tspan><tspan dy="1.2em" x="0" >MINIO_STANDARD is modeled as</tspan><tspan dy="1.2em" x="0" >STANDARD with dedup disabled,</tspan><tspan dy="1.2em" x="0" >EC enabled (4 data / 2 parity),</tspan><tspan dy="1.2em" x="0" >replication factor 1, compression</tspan><tspan dy="1.2em" x="0" >disabled, and encryption disabled by</tspan><tspan dy="1.2em" x="0" >default.</tspan></text><g  id="v-9141" color="#ffffff" transform="matrix(1,0,0,1,210,268)" display="none" style="fill: rgb(255, 255, 255);"><g  transform="translate(5 0)"><svg xmlns="http://www.w3.org/2000/svg" width="20" height="20" fill="currentColor" viewBox="0 0 16 16"><path fill-rule="evenodd" d="M6.5 12a5.5 5.5 0 1 0 0-11 5.5 5.5 0 0 0 0 11zM13 6.5a6.5 6.5 0 1 1-13 0 6.5 6.5 0 0 1 13 0z"></path><path d="M10.344 11.742c.03.04.062.078.098.115l3.85 3.85a1 1 0 0 0 1.415-1.414l-3.85-3.85a1.007 1.007 0 0 0-.115-.1 6.538 6.538 0 0 1-1.398 1.4z"></path><path fill-rule="evenodd" d="M6.5 3a.5.5 0 0 1 .5.5V6h2.5a.5.5 0 0 1 0 1H7v2.5a.5.5 0 0 1-1 0V7H3.5a.5.5 0 0 1 0-1H6V3.5a.5.5 0 0 1 .5-.5z"></path></svg></g><g ></g><g ></g><g ></g></g><image  id="v-9142"></image></g></g><!--z-index:25--><g   id="j_690"  transform="translate(3899,245)" style=""><g  id="v-9152" style="opacity: 1;"><rect  id="v-9153" rx="20" ry="20" stroke-width="2" pointer-events="visiblePainted" fill="#2f855a" stroke="#22543d" stroke-dasharray="" width="450" height="300" style="fill: rgb(47, 133, 90); stroke: rgb(34, 84, 61);"></rect><text  id="v-9154" font-size="33.599999999999994px" xml:space="preserve" y="-81.57999999999998" font-weight="bold" text-anchor="middle" pointer-events="visible" font-family="Tahoma, Verdana, Helvetica, Arial" fill="#ffffff" dominant-baseline="hanging" transform="matrix(1,0,0,1,225,0)" style="fill: rgb(255, 255, 255);"><tspan dy="0" >Cluster Node Runtime</tspan></text><text  id="v-9155" font-size="16.799999999999997px" xml:space="preserve" y="-39.97999999999999" text-anchor="middle" font-family="Tahoma, Verdana, Helvetica, Arial" fill="#ffffff" dominant-baseline="hanging" transform="matrix(1,0,0,1,225,0)" style="display: block; fill: rgb(255, 255, 255);"><tspan dy="0" >[Container: Java 21, Apache Ratis 3.2.2, grpc-java</tspan><tspan dy="1.2em" x="0" >1.82.2, protobuf 3.25.8, mTLS]</tspan></text><text  id="v-9156" font-size="24px" xml:space="preserve" y="11.980000000000004" text-anchor="middle" font-family="Tahoma, Verdana, Helvetica, Arial" fill="#ffffff" dominant-baseline="hanging" transform="matrix(1,0,0,1,225,0)" style="display: block; fill: rgb(255, 255, 255);"><tspan dy="0" >Implemented and validated only for</tspan><tspan dy="1.2em" x="0" >the bounded EP-10 first slice: one</tspan><tspan dy="1.2em" x="0" >co-located voter/storage runtime,</tspan><tspan dy="1.2em" x="0" >instantiated as fixed nodes A, B, and</tspan><tspan dy="1.2em" x="0" >C. Each JVM owns one Ratis voter</tspan><tspan dy="1.2em" x="0" >and one independent replica data</tspan><tspan dy="1.2em" x="0" >server. Consensus orders bucket</tspan><tspan dy="1.2em" x="0" >and immutable</tspan><tspan dy="1.2em" x="0" >whole-object-reference generations;</tspan><tspan dy="1.2em" x="0" >direct N=3/W=2 replication has no</tspan><tspan dy="1.2em" x="0" >degraded writes. Internal only; not</tspan><tspan dy="1.2em" x="0" >an object API and not a</tspan><tspan dy="1.2em" x="0" >production-readiness claim.</tspan></text><g  id="v-9157" color="#ffffff" transform="matrix(1,0,0,1,210,268)" display="none" style="fill: rgb(255, 255, 255);"><g  transform="translate(5 0)"><svg xmlns="http://www.w3.org/2000/svg" width="20" height="20" fill="currentColor" viewBox="0 0 16 16"><path fill-rule="evenodd" d="M6.5 12a5.5 5.5 0 1 0 0-11 5.5 5.5 0 0 0 0 11zM13 6.5a6.5 6.5 0 1 1-13 0 6.5 6.5 0 0 1 13 0z"></path><path d="M10.344 11.742c.03.04.062.078.098.115l3.85 3.85a1 1 0 0 0 1.415-1.414l-3.85-3.85a1.007 1.007 0 0 0-.115-.1 6.538 6.538 0 0 1-1.398 1.4z"></path><path fill-rule="evenodd" d="M6.5 3a.5.5 0 0 1 .5.5V6h2.5a.5.5 0 0 1 0 1H7v2.5a.5.5 0 0 1-1 0V7H3.5a.5.5 0 0 1 0-1H6V3.5a.5.5 0 0 1 .5-.5z"></path></svg></g><g ></g><g ></g><g ></g></g><image  id="v-9158"></image></g></g><!--z-index:26--><g   id="j_691"  transform="translate(4499,245)" style=""><g  id="v-9168" style="opacity: 1;"><rect  id="v-9169" rx="20" ry="20" stroke-width="2" pointer-events="visiblePainted" fill="#438dd5" stroke="#3c7fc0" stroke-dasharray="" width="450" height="300" style="fill: rgb(67, 141, 213); stroke: rgb(60, 127, 192);"></rect><text  id="v-9170" font-size="33.599999999999994px" xml:space="preserve" y="-95.97999999999999" font-weight="bold" text-anchor="middle" pointer-events="visible" font-family="Tahoma, Verdana, Helvetica, Arial" fill="#ffffff" dominant-baseline="hanging" transform="matrix(1,0,0,1,225,0)" style="fill: rgb(255, 255, 255);"><tspan dy="0" >bootstrap-application</tspan></text><text  id="v-9171" font-size="16.799999999999997px" xml:space="preserve" y="-54.379999999999995" text-anchor="middle" font-family="Tahoma, Verdana, Helvetica, Arial" fill="#ffffff" dominant-baseline="hanging" transform="matrix(1,0,0,1,225,0)" style="display: block; fill: rgb(255, 255, 255);"><tspan dy="0" >[Container: Spring Boot 4 WebFlux, Reactor Netty,</tspan><tspan dy="1.2em" x="0" >Maven resources/exec/antrun, Node.js/Vite]</tspan></text><text  id="v-9172" font-size="24px" xml:space="preserve" y="-2.4200000000000017" text-anchor="middle" font-family="Tahoma, Verdana, Helvetica, Arial" fill="#ffffff" dominant-baseline="hanging" transform="matrix(1,0,0,1,225,0)" style="display: block; fill: rgb(255, 255, 255);"><tspan dy="0" >Executable Spring Boot</tspan><tspan dy="1.2em" x="0" >application/fat JAR that composes</tspan><tspan dy="1.2em" x="0" >the S3 API, admin API, object-store</tspan><tspan dy="1.2em" x="0" >capabilities, and selectable</tspan><tspan dy="1.2em" x="0" >persistence backends. It owns the</tspan><tspan dy="1.2em" x="0" >static asset handoff: during</tspan><tspan dy="1.2em" x="0" >generate-resources it builds/copies</tspan><tspan dy="1.2em" x="0" >magrathea-ui dist assets plus</tspan><tspan dy="1.2em" x="0" >generated docs/reports/C4 and</tspan><tspan dy="1.2em" x="0" >arc42 images into</tspan><tspan dy="1.2em" x="0" >bootstrap-application classpath</tspan><tspan dy="1.2em" x="0" >static resources, while</tspan><tspan dy="1.2em" x="0" >admin-api-adapter supplies only</tspan><tspan dy="1.2em" x="0" >admin API routes.</tspan></text><g  id="v-9173" color="#ffffff" transform="matrix(1,0,0,1,210,268)" display="none" style="fill: rgb(255, 255, 255);"><g  transform="translate(5 0)"><svg xmlns="http://www.w3.org/2000/svg" width="20" height="20" fill="currentColor" viewBox="0 0 16 16"><path fill-rule="evenodd" d="M6.5 12a5.5 5.5 0 1 0 0-11 5.5 5.5 0 0 0 0 11zM13 6.5a6.5 6.5 0 1 1-13 0 6.5 6.5 0 0 1 13 0z"></path><path d="M10.344 11.742c.03.04.062.078.098.115l3.85 3.85a1 1 0 0 0 1.415-1.414l-3.85-3.85a1.007 1.007 0 0 0-.115-.1 6.538 6.538 0 0 1-1.398 1.4z"></path><path fill-rule="evenodd" d="M6.5 3a.5.5 0 0 1 .5.5V6h2.5a.5.5 0 0 1 0 1H7v2.5a.5.5 0 0 1-1 0V7H3.5a.5.5 0 0 1 0-1H6V3.5a.5.5 0 0 1 .5-.5z"></path></svg></g><g ></g><g ></g><g ></g></g><image  id="v-9174"></image></g></g><!--z-index:27--><g   id="j_692"  transform="translate(4999,245)" style=""><g  id="v-9184" style="opacity: 1;"><rect  id="v-9185" rx="20" ry="20" stroke-width="2" pointer-events="visiblePainted" fill="#438dd5" stroke="#3c7fc0" stroke-dasharray="" width="450" height="300" style="fill: rgb(67, 141, 213); stroke: rgb(60, 127, 192);"></rect><text  id="v-9186" font-size="33.599999999999994px" xml:space="preserve" y="33.620000000000005" font-weight="bold" text-anchor="middle" pointer-events="visible" font-family="Tahoma, Verdana, Helvetica, Arial" fill="#ffffff" dominant-baseline="hanging" transform="matrix(1,0,0,1,225,0)" style="fill: rgb(255, 255, 255);"><tspan dy="0" >s3-reactive-api-adapter</tspan></text><text  id="v-9187" font-size="16.799999999999997px" xml:space="preserve" y="75.22" text-anchor="middle" font-family="Tahoma, Verdana, Helvetica, Arial" fill="#ffffff" dominant-baseline="hanging" transform="matrix(1,0,0,1,225,0)" style="display: block; fill: rgb(255, 255, 255);"><tspan dy="0" >[Container: Spring Boot 4 WebFlux, RouterFunction,</tspan><tspan dy="1.2em" x="0" >Java 21, Jackson XML]</tspan></text><text  id="v-9188" font-size="24px" xml:space="preserve" y="127.17999999999999" text-anchor="middle" font-family="Tahoma, Verdana, Helvetica, Arial" fill="#ffffff" dominant-baseline="hanging" transform="matrix(1,0,0,1,225,0)" style="display: block; fill: rgb(255, 255, 255);"><tspan dy="0" >HTTP adapter that exposes the</tspan><tspan dy="1.2em" x="0" >S3-compatible REST API and</tspan><tspan dy="1.2em" x="0" >translates HTTP/XML/binary</tspan><tspan dy="1.2em" x="0" >requests into reactive application</tspan><tspan dy="1.2em" x="0" >use cases.</tspan></text><g  id="v-9189" color="#ffffff" transform="matrix(1,0,0,1,210,268)" display="none" style="fill: rgb(255, 255, 255);"><g  transform="translate(5 0)"><svg xmlns="http://www.w3.org/2000/svg" width="20" height="20" fill="currentColor" viewBox="0 0 16 16"><path fill-rule="evenodd" d="M6.5 12a5.5 5.5 0 1 0 0-11 5.5 5.5 0 0 0 0 11zM13 6.5a6.5 6.5 0 1 1-13 0 6.5 6.5 0 0 1 13 0z"></path><path d="M10.344 11.742c.03.04.062.078.098.115l3.85 3.85a1 1 0 0 0 1.415-1.414l-3.85-3.85a1.007 1.007 0 0 0-.115-.1 6.538 6.538 0 0 1-1.398 1.4z"></path><path fill-rule="evenodd" d="M6.5 3a.5.5 0 0 1 .5.5V6h2.5a.5.5 0 0 1 0 1H7v2.5a.5.5 0 0 1-1 0V7H3.5a.5.5 0 0 1 0-1H6V3.5a.5.5 0 0 1 .5-.5z"></path></svg></g><g ></g><g ></g><g ></g></g><image  id="v-9190"></image></g></g><!--z-index:28--><g   id="j_693"  transform="translate(5499,245)" style=""><g  id="v-9197" style="opacity: 1;"><rect  id="v-9198" rx="20" ry="20" stroke-width="2" pointer-events="visiblePainted" fill="#438dd5" stroke="#3c7fc0" stroke-dasharray="" width="450" height="300" style="fill: rgb(67, 141, 213); stroke: rgb(60, 127, 192);"></rect><text  id="v-9199" font-size="33.599999999999994px" xml:space="preserve" y="-57.099999999999966" font-weight="bold" text-anchor="middle" pointer-events="visible" font-family="Tahoma, Verdana, Helvetica, Arial" fill="#ffffff" dominant-baseline="hanging" transform="matrix(1,0,0,1,225,0)" style="fill: rgb(255, 255, 255);"><tspan dy="0" >storage-engine</tspan></text><text  id="v-9200" font-size="16.799999999999997px" xml:space="preserve" y="-15.499999999999972" text-anchor="middle" font-family="Tahoma, Verdana, Helvetica, Arial" fill="#ffffff" dominant-baseline="hanging" transform="matrix(1,0,0,1,225,0)" style="display: block; fill: rgb(255, 255, 255);"><tspan dy="0" >[Container: Java 21, domain-driven]</tspan></text><text  id="v-9201" font-size="24px" xml:space="preserve" y="16.300000000000026" text-anchor="middle" font-family="Tahoma, Verdana, Helvetica, Arial" fill="#ffffff" dominant-baseline="hanging" transform="matrix(1,0,0,1,225,0)" style="display: block; fill: rgb(255, 255, 255);"><tspan dy="0" >Storage Engine bounded context:</tspan><tspan dy="1.2em" x="0" >persistence pipeline, virtual devices,</tspan><tspan dy="1.2em" x="0" >storage policies, optional</tspan><tspan dy="1.2em" x="0" >deduplication, erasure coding,</tspan><tspan dy="1.2em" x="0" >content-addressed storage, and</tspan><tspan dy="1.2em" x="0" >manifest management.</tspan><tspan dy="1.2em" x="0" >MINIO_STANDARD is modeled as</tspan><tspan dy="1.2em" x="0" >STANDARD with dedup disabled,</tspan><tspan dy="1.2em" x="0" >EC enabled (4 data / 2 parity),</tspan><tspan dy="1.2em" x="0" >replication factor 1, compression</tspan><tspan dy="1.2em" x="0" >disabled, and encryption disabled by</tspan><tspan dy="1.2em" x="0" >default.</tspan></text><g  id="v-9202" color="#ffffff" transform="matrix(1,0,0,1,210,268)" display="none" style="fill: rgb(255, 255, 255);"><g  transform="translate(5 0)"><svg xmlns="http://www.w3.org/2000/svg" width="20" height="20" fill="currentColor" viewBox="0 0 16 16"><path fill-rule="evenodd" d="M6.5 12a5.5 5.5 0 1 0 0-11 5.5 5.5 0 0 0 0 11zM13 6.5a6.5 6.5 0 1 1-13 0 6.5 6.5 0 0 1 13 0z"></path><path d="M10.344 11.742c.03.04.062.078.098.115l3.85 3.85a1 1 0 0 0 1.415-1.414l-3.85-3.85a1.007 1.007 0 0 0-.115-.1 6.538 6.538 0 0 1-1.398 1.4z"></path><path fill-rule="evenodd" d="M6.5 3a.5.5 0 0 1 .5.5V6h2.5a.5.5 0 0 1 0 1H7v2.5a.5.5 0 0 1-1 0V7H3.5a.5.5 0 0 1 0-1H6V3.5a.5.5 0 0 1 .5-.5z"></path></svg></g><g ></g><g ></g><g ></g></g><image  id="v-9203"></image></g></g><!--z-index:29--><g   id="j_694"  transform="translate(5999,245)" style=""><g  id="v-9213" style="opacity: 1;"><rect  id="v-9214" rx="20" ry="20" stroke-width="2" pointer-events="visiblePainted" fill="#2f855a" stroke="#22543d" stroke-dasharray="" width="450" height="300" style="fill: rgb(47, 133, 90); stroke: rgb(34, 84, 61);"></rect><text  id="v-9215" font-size="33.599999999999994px" xml:space="preserve" y="-81.57999999999998" font-weight="bold" text-anchor="middle" pointer-events="visible" font-family="Tahoma, Verdana, Helvetica, Arial" fill="#ffffff" dominant-baseline="hanging" transform="matrix(1,0,0,1,225,0)" style="fill: rgb(255, 255, 255);"><tspan dy="0" >Cluster Node Runtime</tspan></text><text  id="v-9216" font-size="16.799999999999997px" xml:space="preserve" y="-39.97999999999999" text-anchor="middle" font-family="Tahoma, Verdana, Helvetica, Arial" fill="#ffffff" dominant-baseline="hanging" transform="matrix(1,0,0,1,225,0)" style="display: block; fill: rgb(255, 255, 255);"><tspan dy="0" >[Container: Java 21, Apache Ratis 3.2.2, grpc-java</tspan><tspan dy="1.2em" x="0" >1.82.2, protobuf 3.25.8, mTLS]</tspan></text><text  id="v-9217" font-size="24px" xml:space="preserve" y="11.980000000000004" text-anchor="middle" font-family="Tahoma, Verdana, Helvetica, Arial" fill="#ffffff" dominant-baseline="hanging" transform="matrix(1,0,0,1,225,0)" style="display: block; fill: rgb(255, 255, 255);"><tspan dy="0" >Implemented and validated only for</tspan><tspan dy="1.2em" x="0" >the bounded EP-10 first slice: one</tspan><tspan dy="1.2em" x="0" >co-located voter/storage runtime,</tspan><tspan dy="1.2em" x="0" >instantiated as fixed nodes A, B, and</tspan><tspan dy="1.2em" x="0" >C. Each JVM owns one Ratis voter</tspan><tspan dy="1.2em" x="0" >and one independent replica data</tspan><tspan dy="1.2em" x="0" >server. Consensus orders bucket</tspan><tspan dy="1.2em" x="0" >and immutable</tspan><tspan dy="1.2em" x="0" >whole-object-reference generations;</tspan><tspan dy="1.2em" x="0" >direct N=3/W=2 replication has no</tspan><tspan dy="1.2em" x="0" >degraded writes. Internal only; not</tspan><tspan dy="1.2em" x="0" >an object API and not a</tspan><tspan dy="1.2em" x="0" >production-readiness claim.</tspan></text><g  id="v-9218" color="#ffffff" transform="matrix(1,0,0,1,210,268)" display="none" style="fill: rgb(255, 255, 255);"><g  transform="translate(5 0)"><svg xmlns="http://www.w3.org/2000/svg" width="20" height="20" fill="currentColor" viewBox="0 0 16 16"><path fill-rule="evenodd" d="M6.5 12a5.5 5.5 0 1 0 0-11 5.5 5.5 0 0 0 0 11zM13 6.5a6.5 6.5 0 1 1-13 0 6.5 6.5 0 0 1 13 0z"></path><path d="M10.344 11.742c.03.04.062.078.098.115l3.85 3.85a1 1 0 0 0 1.415-1.414l-3.85-3.85a1.007 1.007 0 0 0-.115-.1 6.538 6.538 0 0 1-1.398 1.4z"></path><path fill-rule="evenodd" d="M6.5 3a.5.5 0 0 1 .5.5V6h2.5a.5.5 0 0 1 0 1H7v2.5a.5.5 0 0 1-1 0V7H3.5a.5.5 0 0 1 0-1H6V3.5a.5.5 0 0 1 .5-.5z"></path></svg></g><g ></g><g ></g><g ></g></g><image  id="v-9219"></image></g></g><!--z-index:30--><g   id="j_682"  transform="translate(20,1016)"><g id="v-9035"><text  id="v-9036" font-size="24px" xml:space="preserve" y="0.8em" font-weight="normal" text-anchor="start" fill="#444444" pointer-events="none" display="block" font-family="Tahoma, Verdana, Helvetica, Arial"><tspan dy="0" >lunedì 13 luglio 2026 alle ore 13:59 Ora legale dell’Europa centrale</tspan></text></g></g><!--z-index:31--><g   id="j_681"  transform="translate(20,982)"><g id="v-9033"><text  id="v-9034" font-size="24px" xml:space="preserve" y="0.8em" font-weight="normal" text-anchor="start" fill="#444444" pointer-events="none" display="block" font-family="Tahoma, Verdana, Helvetica, Arial"><tspan dy="0" >IMPLEMENTED FIRST-SLICE TOPOLOGY; NOT A PRODUCTION-READINESS CLAIM. Three co-located voter/storage JVMs use an identical static manifest, stable UUID identities, and independent identity, Ratis, object, temporary, and runtime roots. Each JVM owns one Ratis voter and one replica data server. Control and direct replica links require identity-bound mutual TLS. Fixed bootstrap supports no add, promote, demote, replace, or remove operation; production PKI and operational readiness remain outside this slice.</tspan></text></g></g><!--z-index:32--><g   id="j_680"  transform="translate(20,936)"><g id="v-9031"><text  id="v-9032" font-size="36px" xml:space="preserve" y="0.8em" font-weight="normal" text-anchor="start" fill="#444444" pointer-events="none" display="block" font-family="Tahoma, Verdana, Helvetica, Arial"><tspan dy="0" >Deployment: Bounded Fixed A/B/C Runtime Baseline</tspan></text></g></g><!--z-index:33--><!--z-index:34--><!--z-index:35--><!--z-index:36--><!--z-index:37--><!--z-index:38--><!--z-index:39--><!--z-index:40--><!--z-index:41--><!--z-index:42--><!--z-index:43--><!--z-index:44--><!--z-index:45--><!--z-index:46--><!--z-index:47--><!--z-index:48--><!--z-index:49--><!--z-index:50--><!--z-index:51--><!--z-index:52--><!--z-index:53--><!--z-index:54--><!--z-index:55--><!--z-index:56--><!--z-index:57--><!--z-index:58--><!--z-index:59--><!--z-index:60--><!--z-index:61--><!--z-index:62--><!--z-index:63--><!--z-index:64--><!--z-index:65--><!--z-index:66--><!--z-index:67--><!--z-index:68--><!--z-index:69--><!--z-index:70--><!--z-index:71--><!--z-index:72--><!--z-index:73--><!--z-index:74--><!--z-index:75--><!--z-index:76--><!--z-index:77--><!--z-index:78--><!--z-index:79--><!--z-index:80--><!--z-index:81--><!--z-index:82--><!--z-index:83--><!--z-index:84--><!--z-index:85--><!--z-index:86--><!--z-index:87--><!--z-index:88--><!--z-index:89--><!--z-index:90--><!--z-index:91--><!--z-index:92--><!--z-index:93--><!--z-index:94--><!--z-index:95--></g><g  style="user-select: none;"></g><g ></g><g  display="none"></g></g></svg>