<svg xmlns="http://www.w3.org/2000/svg" xmlns:xlink="http://www.w3.org/1999/xlink" version="1.1" width="9144" height="1161" style="width: 9144px; height: 1161px; background: #ffffff" viewBox="0 0 9144 1161"><style id="v-3" type="text/css">        .joint-element .scalable * {            vector-effect: non-scaling-stroke;        }    </style><defs joint-selector="defs"><marker id="v-21252848929" orient="auto" overflow="visible" markerUnits="userSpaceOnUse"><path id="v-65" stroke="#444444" fill="#444444" transform="rotate(180)" d="M 20 -10 0 0 20 10 Z"></path></marker><marker id="v-2-1424592063" orient="auto" overflow="visible" markerUnits="userSpaceOnUse"><path id="v-2343" stroke="#6b7280" fill="#6b7280" transform="rotate(180)" d="M 20 -10 0 0 20 10 Z"></path></marker></defs><g joint-selector="layers"  transform="matrix(1,0,0,1,0,0)"><g  style="pointer-events: none;"></g><g ></g><g  style="user-select: none;"><!--z-index:-4--><!--z-index:-3--><!--z-index:-2--><!--z-index:-1--><!--z-index:0--><!--z-index:1--><!--z-index:2--><!--z-index:3--><!--z-index:4--><!--z-index:5--><!--z-index:6--><!--z-index:7--><!--z-index:8--><!--z-index:9--><!--z-index:10--><!--z-index:11--><!--z-index:12--><!--z-index:13--><!--z-index:14--><g   id="j_854"  transform="translate(1397,245)" style=""><g  id="v-11521" style="opacity: 1;"><rect  id="v-11522" width="6350" height="658" rx="10" ry="10" stroke-width="2" pointer-events="none" stroke="#22543d" stroke-dasharray="" fill="#2f855a" opacity="1" style="stroke: rgb(34, 84, 61);"></rect><text  id="v-11523" font-size="33.599999999999994px" xml:space="preserve" y="619" font-weight="bold" text-anchor="start" pointer-events="visible" font-family="Tahoma, Verdana, Helvetica, Arial" fill="#ffffff" transform="matrix(1,0,0,1,15,0)" style="fill: rgb(255, 255, 255);"><tspan dy="0" >Independent failure domains</tspan></text><text  id="v-11524" font-size="16.799999999999997px" xml:space="preserve" y="643" font-weight="normal" text-anchor="start" pointer-events="visible" font-family="Tahoma, Verdana, Helvetica, Arial" fill="#ffffff" transform="matrix(1,0,0,1,15,0)" style="display: block; fill: rgb(255, 255, 255);"><tspan dy="0" >[Deployment Node: Deployment infrastructure]</tspan></text><text  id="v-11525" font-size="40px" xml:space="preserve" display="none" y="643" font-weight="normal" fill="#ffffff" text-anchor="end" pointer-events="visible" font-family="Tahoma, Verdana, Helvetica, Arial" transform="matrix(1,0,0,1,6335,0)"><tspan dy="0" style="fill-opacity: 0; stroke-opacity: 0;" >-</tspan></text><image  id="v-11526" pointer-events="visible"></image></g></g><!--z-index:15--><g   id="j_855"  transform="translate(1447,295)" style=""><g  id="v-11527" style="opacity: 1;"><rect  id="v-11528" width="2050" height="479" rx="10" ry="10" stroke-width="2" pointer-events="none" stroke="#22543d" stroke-dasharray="" fill="#2f855a" opacity="1" style="stroke: rgb(34, 84, 61);"></rect><text  id="v-11529" font-size="33.599999999999994px" xml:space="preserve" y="440" font-weight="bold" text-anchor="start" pointer-events="visible" font-family="Tahoma, Verdana, Helvetica, Arial" fill="#ffffff" transform="matrix(1,0,0,1,15,0)" style="fill: rgb(255, 255, 255);"><tspan dy="0" >Node A JVM</tspan></text><text  id="v-11530" font-size="16.799999999999997px" xml:space="preserve" y="464" font-weight="normal" text-anchor="start" pointer-events="visible" font-family="Tahoma, Verdana, Helvetica, Arial" fill="#ffffff" transform="matrix(1,0,0,1,15,0)" style="display: block; fill: rgb(255, 255, 255);"><tspan dy="0" >[Deployment Node: Java 21 JVM]</tspan></text><text  id="v-11531" font-size="40px" xml:space="preserve" display="none" y="464" font-weight="normal" fill="#ffffff" text-anchor="end" pointer-events="visible" font-family="Tahoma, Verdana, Helvetica, Arial" transform="matrix(1,0,0,1,2035,0)"><tspan dy="0" style="fill-opacity: 0; stroke-opacity: 0;" >-</tspan></text><image  id="v-11532" pointer-events="visible"></image></g></g><!--z-index:16--><g   id="j_856"  transform="translate(3547,295)" style=""><g  id="v-11533" style="opacity: 1;"><rect  id="v-11534" width="2050" height="479" rx="10" ry="10" stroke-width="2" pointer-events="none" stroke="#22543d" stroke-dasharray="" fill="#2f855a" opacity="1" style="stroke: rgb(34, 84, 61);"></rect><text  id="v-11535" font-size="33.599999999999994px" xml:space="preserve" y="440" font-weight="bold" text-anchor="start" pointer-events="visible" font-family="Tahoma, Verdana, Helvetica, Arial" fill="#ffffff" transform="matrix(1,0,0,1,15,0)" style="fill: rgb(255, 255, 255);"><tspan dy="0" >Node B JVM</tspan></text><text  id="v-11536" font-size="16.799999999999997px" xml:space="preserve" y="464" font-weight="normal" text-anchor="start" pointer-events="visible" font-family="Tahoma, Verdana, Helvetica, Arial" fill="#ffffff" transform="matrix(1,0,0,1,15,0)" style="display: block; fill: rgb(255, 255, 255);"><tspan dy="0" >[Deployment Node: Java 21 JVM]</tspan></text><text  id="v-11537" font-size="40px" xml:space="preserve" display="none" y="464" font-weight="normal" fill="#ffffff" text-anchor="end" pointer-events="visible" font-family="Tahoma, Verdana, Helvetica, Arial" transform="matrix(1,0,0,1,2035,0)"><tspan dy="0" style="fill-opacity: 0; stroke-opacity: 0;" >-</tspan></text><image  id="v-11538" pointer-events="visible"></image></g></g><!--z-index:17--><g   id="j_857"  transform="translate(5647,295)" style=""><g  id="v-11539" style="opacity: 1;"><rect  id="v-11540" width="2050" height="479" rx="10" ry="10" stroke-width="2" pointer-events="none" stroke="#22543d" stroke-dasharray="" fill="#2f855a" opacity="1" style="stroke: rgb(34, 84, 61);"></rect><text  id="v-11541" font-size="33.599999999999994px" xml:space="preserve" y="440" font-weight="bold" text-anchor="start" pointer-events="visible" font-family="Tahoma, Verdana, Helvetica, Arial" fill="#ffffff" transform="matrix(1,0,0,1,15,0)" style="fill: rgb(255, 255, 255);"><tspan dy="0" >Node C JVM</tspan></text><text  id="v-11542" font-size="16.799999999999997px" xml:space="preserve" y="464" font-weight="normal" text-anchor="start" pointer-events="visible" font-family="Tahoma, Verdana, Helvetica, Arial" fill="#ffffff" transform="matrix(1,0,0,1,15,0)" style="display: block; fill: rgb(255, 255, 255);"><tspan dy="0" >[Deployment Node: Java 21 JVM]</tspan></text><text  id="v-11543" font-size="40px" xml:space="preserve" display="none" y="464" font-weight="normal" fill="#ffffff" text-anchor="end" pointer-events="visible" font-family="Tahoma, Verdana, Helvetica, Arial" transform="matrix(1,0,0,1,2035,0)"><tspan dy="0" style="fill-opacity: 0; stroke-opacity: 0;" >-</tspan></text><image  id="v-11544" pointer-events="visible"></image></g></g><!--z-index:18--><g   id="j_842"  transform="translate(1497,345)" style=""><g  id="v-11347" style="opacity: 1;"><rect  id="v-11348" rx="20" ry="20" stroke-width="2" pointer-events="visiblePainted" fill="#438dd5" stroke="#3c7fc0" stroke-dasharray="" width="450" height="300" style="fill: rgb(67, 141, 213); stroke: rgb(60, 127, 192);"></rect><text  id="v-11349" font-size="33.599999999999994px" xml:space="preserve" y="-95.97999999999999" font-weight="bold" text-anchor="middle" pointer-events="visible" font-family="Tahoma, Verdana, Helvetica, Arial" fill="#ffffff" dominant-baseline="hanging" transform="matrix(1,0,0,1,225,0)" style="fill: rgb(255, 255, 255);"><tspan dy="0" >bootstrap-application</tspan></text><text  id="v-11350" font-size="16.799999999999997px" xml:space="preserve" y="-54.379999999999995" text-anchor="middle" font-family="Tahoma, Verdana, Helvetica, Arial" fill="#ffffff" dominant-baseline="hanging" transform="matrix(1,0,0,1,225,0)" style="display: block; fill: rgb(255, 255, 255);"><tspan dy="0" >[Container: Spring Boot 4 WebFlux, Reactor Netty,</tspan><tspan dy="1.2em" x="0" >Maven resources/exec/antrun, Node.js/Vite]</tspan></text><text  id="v-11351" font-size="24px" xml:space="preserve" y="-2.4200000000000017" text-anchor="middle" font-family="Tahoma, Verdana, Helvetica, Arial" fill="#ffffff" dominant-baseline="hanging" transform="matrix(1,0,0,1,225,0)" style="display: block; fill: rgb(255, 255, 255);"><tspan dy="0" >Executable Spring Boot</tspan><tspan dy="1.2em" x="0" >application/fat JAR that composes</tspan><tspan dy="1.2em" x="0" >the S3 API, admin API, object-store</tspan><tspan dy="1.2em" x="0" >capabilities, and selectable</tspan><tspan dy="1.2em" x="0" >persistence backends. It owns the</tspan><tspan dy="1.2em" x="0" >static asset handoff: during</tspan><tspan dy="1.2em" x="0" >generate-resources it builds/copies</tspan><tspan dy="1.2em" x="0" >magrathea-ui dist assets plus</tspan><tspan dy="1.2em" x="0" >generated docs/reports/C4 and</tspan><tspan dy="1.2em" x="0" >arc42 images into</tspan><tspan dy="1.2em" x="0" >bootstrap-application classpath</tspan><tspan dy="1.2em" x="0" >static resources, while</tspan><tspan dy="1.2em" x="0" >admin-api-adapter supplies only</tspan><tspan dy="1.2em" x="0" >admin API routes.</tspan></text><g  id="v-11352" color="#ffffff" transform="matrix(1,0,0,1,210,268)" display="none" style="fill: rgb(255, 255, 255);"><g  transform="translate(5 0)"><svg xmlns="http://www.w3.org/2000/svg" width="20" height="20" fill="currentColor" viewBox="0 0 16 16"><path fill-rule="evenodd" d="M6.5 12a5.5 5.5 0 1 0 0-11 5.5 5.5 0 0 0 0 11zM13 6.5a6.5 6.5 0 1 1-13 0 6.5 6.5 0 0 1 13 0z"></path><path d="M10.344 11.742c.03.04.062.078.098.115l3.85 3.85a1 1 0 0 0 1.415-1.414l-3.85-3.85a1.007 1.007 0 0 0-.115-.1 6.538 6.538 0 0 1-1.398 1.4z"></path><path fill-rule="evenodd" d="M6.5 3a.5.5 0 0 1 .5.5V6h2.5a.5.5 0 0 1 0 1H7v2.5a.5.5 0 0 1-1 0V7H3.5a.5.5 0 0 1 0-1H6V3.5a.5.5 0 0 1 .5-.5z"></path></svg></g><g ></g><g ></g><g ></g></g><image  id="v-11353"></image></g></g><!--z-index:19--><g   id="j_843"  transform="translate(1997,345)" style=""><g  id="v-11363" style="opacity: 1;"><rect  id="v-11364" rx="20" ry="20" stroke-width="2" pointer-events="visiblePainted" fill="#438dd5" stroke="#3c7fc0" stroke-dasharray="" width="450" height="300" style="fill: rgb(67, 141, 213); stroke: rgb(60, 127, 192);"></rect><text  id="v-11365" font-size="33.599999999999994px" xml:space="preserve" y="33.620000000000005" font-weight="bold" text-anchor="middle" pointer-events="visible" font-family="Tahoma, Verdana, Helvetica, Arial" fill="#ffffff" dominant-baseline="hanging" transform="matrix(1,0,0,1,225,0)" style="fill: rgb(255, 255, 255);"><tspan dy="0" >s3-reactive-api-adapter</tspan></text><text  id="v-11366" font-size="16.799999999999997px" xml:space="preserve" y="75.22" text-anchor="middle" font-family="Tahoma, Verdana, Helvetica, Arial" fill="#ffffff" dominant-baseline="hanging" transform="matrix(1,0,0,1,225,0)" style="display: block; fill: rgb(255, 255, 255);"><tspan dy="0" >[Container: Spring Boot 4 WebFlux, RouterFunction,</tspan><tspan dy="1.2em" x="0" >Java 21, Jackson XML]</tspan></text><text  id="v-11367" font-size="24px" xml:space="preserve" y="127.17999999999999" text-anchor="middle" font-family="Tahoma, Verdana, Helvetica, Arial" fill="#ffffff" dominant-baseline="hanging" transform="matrix(1,0,0,1,225,0)" style="display: block; fill: rgb(255, 255, 255);"><tspan dy="0" >HTTP adapter that exposes the</tspan><tspan dy="1.2em" x="0" >S3-compatible REST API and</tspan><tspan dy="1.2em" x="0" >translates HTTP/XML/binary</tspan><tspan dy="1.2em" x="0" >requests into reactive application</tspan><tspan dy="1.2em" x="0" >use cases.</tspan></text><g  id="v-11368" color="#ffffff" transform="matrix(1,0,0,1,210,268)" display="none" style="fill: rgb(255, 255, 255);"><g  transform="translate(5 0)"><svg xmlns="http://www.w3.org/2000/svg" width="20" height="20" fill="currentColor" viewBox="0 0 16 16"><path fill-rule="evenodd" d="M6.5 12a5.5 5.5 0 1 0 0-11 5.5 5.5 0 0 0 0 11zM13 6.5a6.5 6.5 0 1 1-13 0 6.5 6.5 0 0 1 13 0z"></path><path d="M10.344 11.742c.03.04.062.078.098.115l3.85 3.85a1 1 0 0 0 1.415-1.414l-3.85-3.85a1.007 1.007 0 0 0-.115-.1 6.538 6.538 0 0 1-1.398 1.4z"></path><path fill-rule="evenodd" d="M6.5 3a.5.5 0 0 1 .5.5V6h2.5a.5.5 0 0 1 0 1H7v2.5a.5.5 0 0 1-1 0V7H3.5a.5.5 0 0 1 0-1H6V3.5a.5.5 0 0 1 .5-.5z"></path></svg></g><g ></g><g ></g><g ></g></g><image  id="v-11369"></image></g></g><!--z-index:20--><g   id="j_844"  transform="translate(2497,345)" style=""><g  id="v-11376" style="opacity: 1;"><rect  id="v-11377" rx="20" ry="20" stroke-width="2" pointer-events="visiblePainted" fill="#438dd5" stroke="#3c7fc0" stroke-dasharray="" width="450" height="300" style="fill: rgb(67, 141, 213); stroke: rgb(60, 127, 192);"></rect><text  id="v-11378" font-size="33.599999999999994px" xml:space="preserve" y="-57.099999999999966" font-weight="bold" text-anchor="middle" pointer-events="visible" font-family="Tahoma, Verdana, Helvetica, Arial" fill="#ffffff" dominant-baseline="hanging" transform="matrix(1,0,0,1,225,0)" style="fill: rgb(255, 255, 255);"><tspan dy="0" >storage-engine</tspan></text><text  id="v-11379" font-size="16.799999999999997px" xml:space="preserve" y="-15.499999999999972" text-anchor="middle" font-family="Tahoma, Verdana, Helvetica, Arial" fill="#ffffff" dominant-baseline="hanging" transform="matrix(1,0,0,1,225,0)" style="display: block; fill: rgb(255, 255, 255);"><tspan dy="0" >[Container: Java 21, domain-driven]</tspan></text><text  id="v-11380" font-size="24px" xml:space="preserve" y="16.300000000000026" text-anchor="middle" font-family="Tahoma, Verdana, Helvetica, Arial" fill="#ffffff" dominant-baseline="hanging" transform="matrix(1,0,0,1,225,0)" style="display: block; fill: rgb(255, 255, 255);"><tspan dy="0" >Storage Engine bounded context:</tspan><tspan dy="1.2em" x="0" >persistence pipeline, virtual devices,</tspan><tspan dy="1.2em" x="0" >storage policies, optional</tspan><tspan dy="1.2em" x="0" >deduplication, erasure coding,</tspan><tspan dy="1.2em" x="0" >content-addressed storage, and</tspan><tspan dy="1.2em" x="0" >manifest management.</tspan><tspan dy="1.2em" x="0" >MINIO_STANDARD is modeled as</tspan><tspan dy="1.2em" x="0" >STANDARD with dedup disabled,</tspan><tspan dy="1.2em" x="0" >EC enabled (4 data / 2 parity),</tspan><tspan dy="1.2em" x="0" >replication factor 1, compression</tspan><tspan dy="1.2em" x="0" >disabled, and encryption disabled by</tspan><tspan dy="1.2em" x="0" >default.</tspan></text><g  id="v-11381" color="#ffffff" transform="matrix(1,0,0,1,210,268)" display="none" style="fill: rgb(255, 255, 255);"><g  transform="translate(5 0)"><svg xmlns="http://www.w3.org/2000/svg" width="20" height="20" fill="currentColor" viewBox="0 0 16 16"><path fill-rule="evenodd" d="M6.5 12a5.5 5.5 0 1 0 0-11 5.5 5.5 0 0 0 0 11zM13 6.5a6.5 6.5 0 1 1-13 0 6.5 6.5 0 0 1 13 0z"></path><path d="M10.344 11.742c.03.04.062.078.098.115l3.85 3.85a1 1 0 0 0 1.415-1.414l-3.85-3.85a1.007 1.007 0 0 0-.115-.1 6.538 6.538 0 0 1-1.398 1.4z"></path><path fill-rule="evenodd" d="M6.5 3a.5.5 0 0 1 .5.5V6h2.5a.5.5 0 0 1 0 1H7v2.5a.5.5 0 0 1-1 0V7H3.5a.5.5 0 0 1 0-1H6V3.5a.5.5 0 0 1 .5-.5z"></path></svg></g><g ></g><g ></g><g ></g></g><image  id="v-11382"></image></g></g><!--z-index:21--><g   id="j_845"  transform="translate(2997,345)" style=""><g  id="v-11392" style="opacity: 1;"><rect  id="v-11393" rx="20" ry="20" stroke-width="2" pointer-events="visiblePainted" fill="#2f855a" stroke="#22543d" stroke-dasharray="" width="450" height="300" style="fill: rgb(47, 133, 90); stroke: rgb(34, 84, 61);"></rect><text  id="v-11394" font-size="33.599999999999994px" xml:space="preserve" y="-196.77999999999997" font-weight="bold" text-anchor="middle" pointer-events="visible" font-family="Tahoma, Verdana, Helvetica, Arial" fill="#ffffff" dominant-baseline="hanging" transform="matrix(1,0,0,1,225,0)" style="fill: rgb(255, 255, 255);"><tspan dy="0" >Cluster Node Runtime</tspan></text><text  id="v-11395" font-size="16.799999999999997px" xml:space="preserve" y="-155.17999999999998" text-anchor="middle" font-family="Tahoma, Verdana, Helvetica, Arial" fill="#ffffff" dominant-baseline="hanging" transform="matrix(1,0,0,1,225,0)" style="display: block; fill: rgb(255, 255, 255);"><tspan dy="0" >[Container: Java 21, Apache Ratis 3.2.2, grpc-java</tspan><tspan dy="1.2em" x="0" >1.82.2, protobuf 3.25.8, mTLS]</tspan></text><text  id="v-11396" font-size="24px" xml:space="preserve" y="-103.21999999999998" text-anchor="middle" font-family="Tahoma, Verdana, Helvetica, Arial" fill="#ffffff" dominant-baseline="hanging" transform="matrix(1,0,0,1,225,0)" style="display: block; fill: rgb(255, 255, 255);"><tspan dy="0" >Fixed A/B/C voter/storage runtime</tspan><tspan dy="1.2em" x="0" >for unconditional CreateBucket,</tspan><tspan dy="1.2em" x="0" >single-part whole-object PUT/GET,</tspan><tspan dy="1.2em" x="0" >and bounded repair of a missing or</tspan><tspan dy="1.2em" x="0" >corrupt replica named by the current</tspan><tspan dy="1.2em" x="0" >committed generation. Each JVM</tspan><tspan dy="1.2em" x="0" >co-locates one Ratis voter, one</tspan><tspan dy="1.2em" x="0" >replica data server, a request-facing</tspan><tspan dy="1.2em" x="0" >repair coordinator, a process-local</tspan><tspan dy="1.2em" x="0" >scheduler, and a fenced worker.</tspan><tspan dy="1.2em" x="0" >Ratis owns durable repair identity,</tspan><tspan dy="1.2em" x="0" >lifecycle, claims, results, and</tspan><tspan dy="1.2em" x="0" >snapshot recovery; verified</tspan><tspan dy="1.2em" x="0" >whole-object bytes remain on the</tspan><tspan dy="1.2em" x="0" >direct replica path. It exposes no</tspan><tspan dy="1.2em" x="0" >separate object API and excludes</tspan><tspan dy="1.2em" x="0" >dynamic membership, clustered</tspan><tspan dy="1.2em" x="0" >multipart/versioning, erasure coding,</tspan><tspan dy="1.2em" x="0" >rebalance, broad or periodic</tspan><tspan dy="1.2em" x="0" >anti-entropy discovery, and</tspan><tspan dy="1.2em" x="0" >automated orphan cleanup.</tspan></text><g  id="v-11397" color="#ffffff" transform="matrix(1,0,0,1,210,268)" display="none" style="fill: rgb(255, 255, 255);"><g  transform="translate(5 0)"><svg xmlns="http://www.w3.org/2000/svg" width="20" height="20" fill="currentColor" viewBox="0 0 16 16"><path fill-rule="evenodd" d="M6.5 12a5.5 5.5 0 1 0 0-11 5.5 5.5 0 0 0 0 11zM13 6.5a6.5 6.5 0 1 1-13 0 6.5 6.5 0 0 1 13 0z"></path><path d="M10.344 11.742c.03.04.062.078.098.115l3.85 3.85a1 1 0 0 0 1.415-1.414l-3.85-3.85a1.007 1.007 0 0 0-.115-.1 6.538 6.538 0 0 1-1.398 1.4z"></path><path fill-rule="evenodd" d="M6.5 3a.5.5 0 0 1 .5.5V6h2.5a.5.5 0 0 1 0 1H7v2.5a.5.5 0 0 1-1 0V7H3.5a.5.5 0 0 1 0-1H6V3.5a.5.5 0 0 1 .5-.5z"></path></svg></g><g ></g><g ></g><g ></g></g><image  id="v-11398"></image></g></g><!--z-index:22--><g   id="j_846"  transform="translate(3597,345)" style=""><g  id="v-11408" style="opacity: 1;"><rect  id="v-11409" rx="20" ry="20" stroke-width="2" pointer-events="visiblePainted" fill="#438dd5" stroke="#3c7fc0" stroke-dasharray="" width="450" height="300" style="fill: rgb(67, 141, 213); stroke: rgb(60, 127, 192);"></rect><text  id="v-11410" font-size="33.599999999999994px" xml:space="preserve" y="-95.97999999999999" font-weight="bold" text-anchor="middle" pointer-events="visible" font-family="Tahoma, Verdana, Helvetica, Arial" fill="#ffffff" dominant-baseline="hanging" transform="matrix(1,0,0,1,225,0)" style="fill: rgb(255, 255, 255);"><tspan dy="0" >bootstrap-application</tspan></text><text  id="v-11411" font-size="16.799999999999997px" xml:space="preserve" y="-54.379999999999995" text-anchor="middle" font-family="Tahoma, Verdana, Helvetica, Arial" fill="#ffffff" dominant-baseline="hanging" transform="matrix(1,0,0,1,225,0)" style="display: block; fill: rgb(255, 255, 255);"><tspan dy="0" >[Container: Spring Boot 4 WebFlux, Reactor Netty,</tspan><tspan dy="1.2em" x="0" >Maven resources/exec/antrun, Node.js/Vite]</tspan></text><text  id="v-11412" font-size="24px" xml:space="preserve" y="-2.4200000000000017" text-anchor="middle" font-family="Tahoma, Verdana, Helvetica, Arial" fill="#ffffff" dominant-baseline="hanging" transform="matrix(1,0,0,1,225,0)" style="display: block; fill: rgb(255, 255, 255);"><tspan dy="0" >Executable Spring Boot</tspan><tspan dy="1.2em" x="0" >application/fat JAR that composes</tspan><tspan dy="1.2em" x="0" >the S3 API, admin API, object-store</tspan><tspan dy="1.2em" x="0" >capabilities, and selectable</tspan><tspan dy="1.2em" x="0" >persistence backends. It owns the</tspan><tspan dy="1.2em" x="0" >static asset handoff: during</tspan><tspan dy="1.2em" x="0" >generate-resources it builds/copies</tspan><tspan dy="1.2em" x="0" >magrathea-ui dist assets plus</tspan><tspan dy="1.2em" x="0" >generated docs/reports/C4 and</tspan><tspan dy="1.2em" x="0" >arc42 images into</tspan><tspan dy="1.2em" x="0" >bootstrap-application classpath</tspan><tspan dy="1.2em" x="0" >static resources, while</tspan><tspan dy="1.2em" x="0" >admin-api-adapter supplies only</tspan><tspan dy="1.2em" x="0" >admin API routes.</tspan></text><g  id="v-11413" color="#ffffff" transform="matrix(1,0,0,1,210,268)" display="none" style="fill: rgb(255, 255, 255);"><g  transform="translate(5 0)"><svg xmlns="http://www.w3.org/2000/svg" width="20" height="20" fill="currentColor" viewBox="0 0 16 16"><path fill-rule="evenodd" d="M6.5 12a5.5 5.5 0 1 0 0-11 5.5 5.5 0 0 0 0 11zM13 6.5a6.5 6.5 0 1 1-13 0 6.5 6.5 0 0 1 13 0z"></path><path d="M10.344 11.742c.03.04.062.078.098.115l3.85 3.85a1 1 0 0 0 1.415-1.414l-3.85-3.85a1.007 1.007 0 0 0-.115-.1 6.538 6.538 0 0 1-1.398 1.4z"></path><path fill-rule="evenodd" d="M6.5 3a.5.5 0 0 1 .5.5V6h2.5a.5.5 0 0 1 0 1H7v2.5a.5.5 0 0 1-1 0V7H3.5a.5.5 0 0 1 0-1H6V3.5a.5.5 0 0 1 .5-.5z"></path></svg></g><g ></g><g ></g><g ></g></g><image  id="v-11414"></image></g></g><!--z-index:23--><g   id="j_847"  transform="translate(4097,345)" style=""><g  id="v-11424" style="opacity: 1;"><rect  id="v-11425" rx="20" ry="20" stroke-width="2" pointer-events="visiblePainted" fill="#438dd5" stroke="#3c7fc0" stroke-dasharray="" width="450" height="300" style="fill: rgb(67, 141, 213); stroke: rgb(60, 127, 192);"></rect><text  id="v-11426" font-size="33.599999999999994px" xml:space="preserve" y="33.620000000000005" font-weight="bold" text-anchor="middle" pointer-events="visible" font-family="Tahoma, Verdana, Helvetica, Arial" fill="#ffffff" dominant-baseline="hanging" transform="matrix(1,0,0,1,225,0)" style="fill: rgb(255, 255, 255);"><tspan dy="0" >s3-reactive-api-adapter</tspan></text><text  id="v-11427" font-size="16.799999999999997px" xml:space="preserve" y="75.22" text-anchor="middle" font-family="Tahoma, Verdana, Helvetica, Arial" fill="#ffffff" dominant-baseline="hanging" transform="matrix(1,0,0,1,225,0)" style="display: block; fill: rgb(255, 255, 255);"><tspan dy="0" >[Container: Spring Boot 4 WebFlux, RouterFunction,</tspan><tspan dy="1.2em" x="0" >Java 21, Jackson XML]</tspan></text><text  id="v-11428" font-size="24px" xml:space="preserve" y="127.17999999999999" text-anchor="middle" font-family="Tahoma, Verdana, Helvetica, Arial" fill="#ffffff" dominant-baseline="hanging" transform="matrix(1,0,0,1,225,0)" style="display: block; fill: rgb(255, 255, 255);"><tspan dy="0" >HTTP adapter that exposes the</tspan><tspan dy="1.2em" x="0" >S3-compatible REST API and</tspan><tspan dy="1.2em" x="0" >translates HTTP/XML/binary</tspan><tspan dy="1.2em" x="0" >requests into reactive application</tspan><tspan dy="1.2em" x="0" >use cases.</tspan></text><g  id="v-11429" color="#ffffff" transform="matrix(1,0,0,1,210,268)" display="none" style="fill: rgb(255, 255, 255);"><g  transform="translate(5 0)"><svg xmlns="http://www.w3.org/2000/svg" width="20" height="20" fill="currentColor" viewBox="0 0 16 16"><path fill-rule="evenodd" d="M6.5 12a5.5 5.5 0 1 0 0-11 5.5 5.5 0 0 0 0 11zM13 6.5a6.5 6.5 0 1 1-13 0 6.5 6.5 0 0 1 13 0z"></path><path d="M10.344 11.742c.03.04.062.078.098.115l3.85 3.85a1 1 0 0 0 1.415-1.414l-3.85-3.85a1.007 1.007 0 0 0-.115-.1 6.538 6.538 0 0 1-1.398 1.4z"></path><path fill-rule="evenodd" d="M6.5 3a.5.5 0 0 1 .5.5V6h2.5a.5.5 0 0 1 0 1H7v2.5a.5.5 0 0 1-1 0V7H3.5a.5.5 0 0 1 0-1H6V3.5a.5.5 0 0 1 .5-.5z"></path></svg></g><g ></g><g ></g><g ></g></g><image  id="v-11430"></image></g></g><!--z-index:24--><g   id="j_848"  transform="translate(4597,345)" style=""><g  id="v-11437" style="opacity: 1;"><rect  id="v-11438" rx="20" ry="20" stroke-width="2" pointer-events="visiblePainted" fill="#438dd5" stroke="#3c7fc0" stroke-dasharray="" width="450" height="300" style="fill: rgb(67, 141, 213); stroke: rgb(60, 127, 192);"></rect><text  id="v-11439" font-size="33.599999999999994px" xml:space="preserve" y="-57.099999999999966" font-weight="bold" text-anchor="middle" pointer-events="visible" font-family="Tahoma, Verdana, Helvetica, Arial" fill="#ffffff" dominant-baseline="hanging" transform="matrix(1,0,0,1,225,0)" style="fill: rgb(255, 255, 255);"><tspan dy="0" >storage-engine</tspan></text><text  id="v-11440" font-size="16.799999999999997px" xml:space="preserve" y="-15.499999999999972" text-anchor="middle" font-family="Tahoma, Verdana, Helvetica, Arial" fill="#ffffff" dominant-baseline="hanging" transform="matrix(1,0,0,1,225,0)" style="display: block; fill: rgb(255, 255, 255);"><tspan dy="0" >[Container: Java 21, domain-driven]</tspan></text><text  id="v-11441" font-size="24px" xml:space="preserve" y="16.300000000000026" text-anchor="middle" font-family="Tahoma, Verdana, Helvetica, Arial" fill="#ffffff" dominant-baseline="hanging" transform="matrix(1,0,0,1,225,0)" style="display: block; fill: rgb(255, 255, 255);"><tspan dy="0" >Storage Engine bounded context:</tspan><tspan dy="1.2em" x="0" >persistence pipeline, virtual devices,</tspan><tspan dy="1.2em" x="0" >storage policies, optional</tspan><tspan dy="1.2em" x="0" >deduplication, erasure coding,</tspan><tspan dy="1.2em" x="0" >content-addressed storage, and</tspan><tspan dy="1.2em" x="0" >manifest management.</tspan><tspan dy="1.2em" x="0" >MINIO_STANDARD is modeled as</tspan><tspan dy="1.2em" x="0" >STANDARD with dedup disabled,</tspan><tspan dy="1.2em" x="0" >EC enabled (4 data / 2 parity),</tspan><tspan dy="1.2em" x="0" >replication factor 1, compression</tspan><tspan dy="1.2em" x="0" >disabled, and encryption disabled by</tspan><tspan dy="1.2em" x="0" >default.</tspan></text><g  id="v-11442" color="#ffffff" transform="matrix(1,0,0,1,210,268)" display="none" style="fill: rgb(255, 255, 255);"><g  transform="translate(5 0)"><svg xmlns="http://www.w3.org/2000/svg" width="20" height="20" fill="currentColor" viewBox="0 0 16 16"><path fill-rule="evenodd" d="M6.5 12a5.5 5.5 0 1 0 0-11 5.5 5.5 0 0 0 0 11zM13 6.5a6.5 6.5 0 1 1-13 0 6.5 6.5 0 0 1 13 0z"></path><path d="M10.344 11.742c.03.04.062.078.098.115l3.85 3.85a1 1 0 0 0 1.415-1.414l-3.85-3.85a1.007 1.007 0 0 0-.115-.1 6.538 6.538 0 0 1-1.398 1.4z"></path><path fill-rule="evenodd" d="M6.5 3a.5.5 0 0 1 .5.5V6h2.5a.5.5 0 0 1 0 1H7v2.5a.5.5 0 0 1-1 0V7H3.5a.5.5 0 0 1 0-1H6V3.5a.5.5 0 0 1 .5-.5z"></path></svg></g><g ></g><g ></g><g ></g></g><image  id="v-11443"></image></g></g><!--z-index:25--><g   id="j_849"  transform="translate(5097,345)" style=""><g  id="v-11453" style="opacity: 1;"><rect  id="v-11454" rx="20" ry="20" stroke-width="2" pointer-events="visiblePainted" fill="#2f855a" stroke="#22543d" stroke-dasharray="" width="450" height="300" style="fill: rgb(47, 133, 90); stroke: rgb(34, 84, 61);"></rect><text  id="v-11455" font-size="33.599999999999994px" xml:space="preserve" y="-196.77999999999997" font-weight="bold" text-anchor="middle" pointer-events="visible" font-family="Tahoma, Verdana, Helvetica, Arial" fill="#ffffff" dominant-baseline="hanging" transform="matrix(1,0,0,1,225,0)" style="fill: rgb(255, 255, 255);"><tspan dy="0" >Cluster Node Runtime</tspan></text><text  id="v-11456" font-size="16.799999999999997px" xml:space="preserve" y="-155.17999999999998" text-anchor="middle" font-family="Tahoma, Verdana, Helvetica, Arial" fill="#ffffff" dominant-baseline="hanging" transform="matrix(1,0,0,1,225,0)" style="display: block; fill: rgb(255, 255, 255);"><tspan dy="0" >[Container: Java 21, Apache Ratis 3.2.2, grpc-java</tspan><tspan dy="1.2em" x="0" >1.82.2, protobuf 3.25.8, mTLS]</tspan></text><text  id="v-11457" font-size="24px" xml:space="preserve" y="-103.21999999999998" text-anchor="middle" font-family="Tahoma, Verdana, Helvetica, Arial" fill="#ffffff" dominant-baseline="hanging" transform="matrix(1,0,0,1,225,0)" style="display: block; fill: rgb(255, 255, 255);"><tspan dy="0" >Fixed A/B/C voter/storage runtime</tspan><tspan dy="1.2em" x="0" >for unconditional CreateBucket,</tspan><tspan dy="1.2em" x="0" >single-part whole-object PUT/GET,</tspan><tspan dy="1.2em" x="0" >and bounded repair of a missing or</tspan><tspan dy="1.2em" x="0" >corrupt replica named by the current</tspan><tspan dy="1.2em" x="0" >committed generation. Each JVM</tspan><tspan dy="1.2em" x="0" >co-locates one Ratis voter, one</tspan><tspan dy="1.2em" x="0" >replica data server, a request-facing</tspan><tspan dy="1.2em" x="0" >repair coordinator, a process-local</tspan><tspan dy="1.2em" x="0" >scheduler, and a fenced worker.</tspan><tspan dy="1.2em" x="0" >Ratis owns durable repair identity,</tspan><tspan dy="1.2em" x="0" >lifecycle, claims, results, and</tspan><tspan dy="1.2em" x="0" >snapshot recovery; verified</tspan><tspan dy="1.2em" x="0" >whole-object bytes remain on the</tspan><tspan dy="1.2em" x="0" >direct replica path. It exposes no</tspan><tspan dy="1.2em" x="0" >separate object API and excludes</tspan><tspan dy="1.2em" x="0" >dynamic membership, clustered</tspan><tspan dy="1.2em" x="0" >multipart/versioning, erasure coding,</tspan><tspan dy="1.2em" x="0" >rebalance, broad or periodic</tspan><tspan dy="1.2em" x="0" >anti-entropy discovery, and</tspan><tspan dy="1.2em" x="0" >automated orphan cleanup.</tspan></text><g  id="v-11458" color="#ffffff" transform="matrix(1,0,0,1,210,268)" display="none" style="fill: rgb(255, 255, 255);"><g  transform="translate(5 0)"><svg xmlns="http://www.w3.org/2000/svg" width="20" height="20" fill="currentColor" viewBox="0 0 16 16"><path fill-rule="evenodd" d="M6.5 12a5.5 5.5 0 1 0 0-11 5.5 5.5 0 0 0 0 11zM13 6.5a6.5 6.5 0 1 1-13 0 6.5 6.5 0 0 1 13 0z"></path><path d="M10.344 11.742c.03.04.062.078.098.115l3.85 3.85a1 1 0 0 0 1.415-1.414l-3.85-3.85a1.007 1.007 0 0 0-.115-.1 6.538 6.538 0 0 1-1.398 1.4z"></path><path fill-rule="evenodd" d="M6.5 3a.5.5 0 0 1 .5.5V6h2.5a.5.5 0 0 1 0 1H7v2.5a.5.5 0 0 1-1 0V7H3.5a.5.5 0 0 1 0-1H6V3.5a.5.5 0 0 1 .5-.5z"></path></svg></g><g ></g><g ></g><g ></g></g><image  id="v-11459"></image></g></g><!--z-index:26--><g   id="j_850"  transform="translate(5697,345)" style=""><g  id="v-11469" style="opacity: 1;"><rect  id="v-11470" rx="20" ry="20" stroke-width="2" pointer-events="visiblePainted" fill="#438dd5" stroke="#3c7fc0" stroke-dasharray="" width="450" height="300" style="fill: rgb(67, 141, 213); stroke: rgb(60, 127, 192);"></rect><text  id="v-11471" font-size="33.599999999999994px" xml:space="preserve" y="-95.97999999999999" font-weight="bold" text-anchor="middle" pointer-events="visible" font-family="Tahoma, Verdana, Helvetica, Arial" fill="#ffffff" dominant-baseline="hanging" transform="matrix(1,0,0,1,225,0)" style="fill: rgb(255, 255, 255);"><tspan dy="0" >bootstrap-application</tspan></text><text  id="v-11472" font-size="16.799999999999997px" xml:space="preserve" y="-54.379999999999995" text-anchor="middle" font-family="Tahoma, Verdana, Helvetica, Arial" fill="#ffffff" dominant-baseline="hanging" transform="matrix(1,0,0,1,225,0)" style="display: block; fill: rgb(255, 255, 255);"><tspan dy="0" >[Container: Spring Boot 4 WebFlux, Reactor Netty,</tspan><tspan dy="1.2em" x="0" >Maven resources/exec/antrun, Node.js/Vite]</tspan></text><text  id="v-11473" font-size="24px" xml:space="preserve" y="-2.4200000000000017" text-anchor="middle" font-family="Tahoma, Verdana, Helvetica, Arial" fill="#ffffff" dominant-baseline="hanging" transform="matrix(1,0,0,1,225,0)" style="display: block; fill: rgb(255, 255, 255);"><tspan dy="0" >Executable Spring Boot</tspan><tspan dy="1.2em" x="0" >application/fat JAR that composes</tspan><tspan dy="1.2em" x="0" >the S3 API, admin API, object-store</tspan><tspan dy="1.2em" x="0" >capabilities, and selectable</tspan><tspan dy="1.2em" x="0" >persistence backends. It owns the</tspan><tspan dy="1.2em" x="0" >static asset handoff: during</tspan><tspan dy="1.2em" x="0" >generate-resources it builds/copies</tspan><tspan dy="1.2em" x="0" >magrathea-ui dist assets plus</tspan><tspan dy="1.2em" x="0" >generated docs/reports/C4 and</tspan><tspan dy="1.2em" x="0" >arc42 images into</tspan><tspan dy="1.2em" x="0" >bootstrap-application classpath</tspan><tspan dy="1.2em" x="0" >static resources, while</tspan><tspan dy="1.2em" x="0" >admin-api-adapter supplies only</tspan><tspan dy="1.2em" x="0" >admin API routes.</tspan></text><g  id="v-11474" color="#ffffff" transform="matrix(1,0,0,1,210,268)" display="none" style="fill: rgb(255, 255, 255);"><g  transform="translate(5 0)"><svg xmlns="http://www.w3.org/2000/svg" width="20" height="20" fill="currentColor" viewBox="0 0 16 16"><path fill-rule="evenodd" d="M6.5 12a5.5 5.5 0 1 0 0-11 5.5 5.5 0 0 0 0 11zM13 6.5a6.5 6.5 0 1 1-13 0 6.5 6.5 0 0 1 13 0z"></path><path d="M10.344 11.742c.03.04.062.078.098.115l3.85 3.85a1 1 0 0 0 1.415-1.414l-3.85-3.85a1.007 1.007 0 0 0-.115-.1 6.538 6.538 0 0 1-1.398 1.4z"></path><path fill-rule="evenodd" d="M6.5 3a.5.5 0 0 1 .5.5V6h2.5a.5.5 0 0 1 0 1H7v2.5a.5.5 0 0 1-1 0V7H3.5a.5.5 0 0 1 0-1H6V3.5a.5.5 0 0 1 .5-.5z"></path></svg></g><g ></g><g ></g><g ></g></g><image  id="v-11475"></image></g></g><!--z-index:27--><g   id="j_851"  transform="translate(6197,345)" style=""><g  id="v-11485" style="opacity: 1;"><rect  id="v-11486" rx="20" ry="20" stroke-width="2" pointer-events="visiblePainted" fill="#438dd5" stroke="#3c7fc0" stroke-dasharray="" width="450" height="300" style="fill: rgb(67, 141, 213); stroke: rgb(60, 127, 192);"></rect><text  id="v-11487" font-size="33.599999999999994px" xml:space="preserve" y="33.620000000000005" font-weight="bold" text-anchor="middle" pointer-events="visible" font-family="Tahoma, Verdana, Helvetica, Arial" fill="#ffffff" dominant-baseline="hanging" transform="matrix(1,0,0,1,225,0)" style="fill: rgb(255, 255, 255);"><tspan dy="0" >s3-reactive-api-adapter</tspan></text><text  id="v-11488" font-size="16.799999999999997px" xml:space="preserve" y="75.22" text-anchor="middle" font-family="Tahoma, Verdana, Helvetica, Arial" fill="#ffffff" dominant-baseline="hanging" transform="matrix(1,0,0,1,225,0)" style="display: block; fill: rgb(255, 255, 255);"><tspan dy="0" >[Container: Spring Boot 4 WebFlux, RouterFunction,</tspan><tspan dy="1.2em" x="0" >Java 21, Jackson XML]</tspan></text><text  id="v-11489" font-size="24px" xml:space="preserve" y="127.17999999999999" text-anchor="middle" font-family="Tahoma, Verdana, Helvetica, Arial" fill="#ffffff" dominant-baseline="hanging" transform="matrix(1,0,0,1,225,0)" style="display: block; fill: rgb(255, 255, 255);"><tspan dy="0" >HTTP adapter that exposes the</tspan><tspan dy="1.2em" x="0" >S3-compatible REST API and</tspan><tspan dy="1.2em" x="0" >translates HTTP/XML/binary</tspan><tspan dy="1.2em" x="0" >requests into reactive application</tspan><tspan dy="1.2em" x="0" >use cases.</tspan></text><g  id="v-11490" color="#ffffff" transform="matrix(1,0,0,1,210,268)" display="none" style="fill: rgb(255, 255, 255);"><g  transform="translate(5 0)"><svg xmlns="http://www.w3.org/2000/svg" width="20" height="20" fill="currentColor" viewBox="0 0 16 16"><path fill-rule="evenodd" d="M6.5 12a5.5 5.5 0 1 0 0-11 5.5 5.5 0 0 0 0 11zM13 6.5a6.5 6.5 0 1 1-13 0 6.5 6.5 0 0 1 13 0z"></path><path d="M10.344 11.742c.03.04.062.078.098.115l3.85 3.85a1 1 0 0 0 1.415-1.414l-3.85-3.85a1.007 1.007 0 0 0-.115-.1 6.538 6.538 0 0 1-1.398 1.4z"></path><path fill-rule="evenodd" d="M6.5 3a.5.5 0 0 1 .5.5V6h2.5a.5.5 0 0 1 0 1H7v2.5a.5.5 0 0 1-1 0V7H3.5a.5.5 0 0 1 0-1H6V3.5a.5.5 0 0 1 .5-.5z"></path></svg></g><g ></g><g ></g><g ></g></g><image  id="v-11491"></image></g></g><!--z-index:28--><g   id="j_852"  transform="translate(6697,345)" style=""><g  id="v-11498" style="opacity: 1;"><rect  id="v-11499" rx="20" ry="20" stroke-width="2" pointer-events="visiblePainted" fill="#438dd5" stroke="#3c7fc0" stroke-dasharray="" width="450" height="300" style="fill: rgb(67, 141, 213); stroke: rgb(60, 127, 192);"></rect><text  id="v-11500" font-size="33.599999999999994px" xml:space="preserve" y="-57.099999999999966" font-weight="bold" text-anchor="middle" pointer-events="visible" font-family="Tahoma, Verdana, Helvetica, Arial" fill="#ffffff" dominant-baseline="hanging" transform="matrix(1,0,0,1,225,0)" style="fill: rgb(255, 255, 255);"><tspan dy="0" >storage-engine</tspan></text><text  id="v-11501" font-size="16.799999999999997px" xml:space="preserve" y="-15.499999999999972" text-anchor="middle" font-family="Tahoma, Verdana, Helvetica, Arial" fill="#ffffff" dominant-baseline="hanging" transform="matrix(1,0,0,1,225,0)" style="display: block; fill: rgb(255, 255, 255);"><tspan dy="0" >[Container: Java 21, domain-driven]</tspan></text><text  id="v-11502" font-size="24px" xml:space="preserve" y="16.300000000000026" text-anchor="middle" font-family="Tahoma, Verdana, Helvetica, Arial" fill="#ffffff" dominant-baseline="hanging" transform="matrix(1,0,0,1,225,0)" style="display: block; fill: rgb(255, 255, 255);"><tspan dy="0" >Storage Engine bounded context:</tspan><tspan dy="1.2em" x="0" >persistence pipeline, virtual devices,</tspan><tspan dy="1.2em" x="0" >storage policies, optional</tspan><tspan dy="1.2em" x="0" >deduplication, erasure coding,</tspan><tspan dy="1.2em" x="0" >content-addressed storage, and</tspan><tspan dy="1.2em" x="0" >manifest management.</tspan><tspan dy="1.2em" x="0" >MINIO_STANDARD is modeled as</tspan><tspan dy="1.2em" x="0" >STANDARD with dedup disabled,</tspan><tspan dy="1.2em" x="0" >EC enabled (4 data / 2 parity),</tspan><tspan dy="1.2em" x="0" >replication factor 1, compression</tspan><tspan dy="1.2em" x="0" >disabled, and encryption disabled by</tspan><tspan dy="1.2em" x="0" >default.</tspan></text><g  id="v-11503" color="#ffffff" transform="matrix(1,0,0,1,210,268)" display="none" style="fill: rgb(255, 255, 255);"><g  transform="translate(5 0)"><svg xmlns="http://www.w3.org/2000/svg" width="20" height="20" fill="currentColor" viewBox="0 0 16 16"><path fill-rule="evenodd" d="M6.5 12a5.5 5.5 0 1 0 0-11 5.5 5.5 0 0 0 0 11zM13 6.5a6.5 6.5 0 1 1-13 0 6.5 6.5 0 0 1 13 0z"></path><path d="M10.344 11.742c.03.04.062.078.098.115l3.85 3.85a1 1 0 0 0 1.415-1.414l-3.85-3.85a1.007 1.007 0 0 0-.115-.1 6.538 6.538 0 0 1-1.398 1.4z"></path><path fill-rule="evenodd" d="M6.5 3a.5.5 0 0 1 .5.5V6h2.5a.5.5 0 0 1 0 1H7v2.5a.5.5 0 0 1-1 0V7H3.5a.5.5 0 0 1 0-1H6V3.5a.5.5 0 0 1 .5-.5z"></path></svg></g><g ></g><g ></g><g ></g></g><image  id="v-11504"></image></g></g><!--z-index:29--><g   id="j_853"  transform="translate(7197,345)" style=""><g  id="v-11514" style="opacity: 1;"><rect  id="v-11515" rx="20" ry="20" stroke-width="2" pointer-events="visiblePainted" fill="#2f855a" stroke="#22543d" stroke-dasharray="" width="450" height="300" style="fill: rgb(47, 133, 90); stroke: rgb(34, 84, 61);"></rect><text  id="v-11516" font-size="33.599999999999994px" xml:space="preserve" y="-196.77999999999997" font-weight="bold" text-anchor="middle" pointer-events="visible" font-family="Tahoma, Verdana, Helvetica, Arial" fill="#ffffff" dominant-baseline="hanging" transform="matrix(1,0,0,1,225,0)" style="fill: rgb(255, 255, 255);"><tspan dy="0" >Cluster Node Runtime</tspan></text><text  id="v-11517" font-size="16.799999999999997px" xml:space="preserve" y="-155.17999999999998" text-anchor="middle" font-family="Tahoma, Verdana, Helvetica, Arial" fill="#ffffff" dominant-baseline="hanging" transform="matrix(1,0,0,1,225,0)" style="display: block; fill: rgb(255, 255, 255);"><tspan dy="0" >[Container: Java 21, Apache Ratis 3.2.2, grpc-java</tspan><tspan dy="1.2em" x="0" >1.82.2, protobuf 3.25.8, mTLS]</tspan></text><text  id="v-11518" font-size="24px" xml:space="preserve" y="-103.21999999999998" text-anchor="middle" font-family="Tahoma, Verdana, Helvetica, Arial" fill="#ffffff" dominant-baseline="hanging" transform="matrix(1,0,0,1,225,0)" style="display: block; fill: rgb(255, 255, 255);"><tspan dy="0" >Fixed A/B/C voter/storage runtime</tspan><tspan dy="1.2em" x="0" >for unconditional CreateBucket,</tspan><tspan dy="1.2em" x="0" >single-part whole-object PUT/GET,</tspan><tspan dy="1.2em" x="0" >and bounded repair of a missing or</tspan><tspan dy="1.2em" x="0" >corrupt replica named by the current</tspan><tspan dy="1.2em" x="0" >committed generation. Each JVM</tspan><tspan dy="1.2em" x="0" >co-locates one Ratis voter, one</tspan><tspan dy="1.2em" x="0" >replica data server, a request-facing</tspan><tspan dy="1.2em" x="0" >repair coordinator, a process-local</tspan><tspan dy="1.2em" x="0" >scheduler, and a fenced worker.</tspan><tspan dy="1.2em" x="0" >Ratis owns durable repair identity,</tspan><tspan dy="1.2em" x="0" >lifecycle, claims, results, and</tspan><tspan dy="1.2em" x="0" >snapshot recovery; verified</tspan><tspan dy="1.2em" x="0" >whole-object bytes remain on the</tspan><tspan dy="1.2em" x="0" >direct replica path. It exposes no</tspan><tspan dy="1.2em" x="0" >separate object API and excludes</tspan><tspan dy="1.2em" x="0" >dynamic membership, clustered</tspan><tspan dy="1.2em" x="0" >multipart/versioning, erasure coding,</tspan><tspan dy="1.2em" x="0" >rebalance, broad or periodic</tspan><tspan dy="1.2em" x="0" >anti-entropy discovery, and</tspan><tspan dy="1.2em" x="0" >automated orphan cleanup.</tspan></text><g  id="v-11519" color="#ffffff" transform="matrix(1,0,0,1,210,268)" display="none" style="fill: rgb(255, 255, 255);"><g  transform="translate(5 0)"><svg xmlns="http://www.w3.org/2000/svg" width="20" height="20" fill="currentColor" viewBox="0 0 16 16"><path fill-rule="evenodd" d="M6.5 12a5.5 5.5 0 1 0 0-11 5.5 5.5 0 0 0 0 11zM13 6.5a6.5 6.5 0 1 1-13 0 6.5 6.5 0 0 1 13 0z"></path><path d="M10.344 11.742c.03.04.062.078.098.115l3.85 3.85a1 1 0 0 0 1.415-1.414l-3.85-3.85a1.007 1.007 0 0 0-.115-.1 6.538 6.538 0 0 1-1.398 1.4z"></path><path fill-rule="evenodd" d="M6.5 3a.5.5 0 0 1 .5.5V6h2.5a.5.5 0 0 1 0 1H7v2.5a.5.5 0 0 1-1 0V7H3.5a.5.5 0 0 1 0-1H6V3.5a.5.5 0 0 1 .5-.5z"></path></svg></g><g ></g><g ></g><g ></g></g><image  id="v-11520"></image></g></g><!--z-index:30--><g   id="j_841"  transform="translate(20,1117)"><g id="v-11336"><text  id="v-11337" font-size="24px" xml:space="preserve" y="0.8em" font-weight="normal" text-anchor="start" fill="#444444" pointer-events="none" display="block" font-family="Tahoma, Verdana, Helvetica, Arial"><tspan dy="0" >lunedì 13 luglio 2026 alle ore 23:17 Ora legale dell’Europa centrale</tspan></text></g></g><!--z-index:31--><g   id="j_840"  transform="translate(20,1083)"><g id="v-11334"><text  id="v-11335" font-size="24px" xml:space="preserve" y="0.8em" font-weight="normal" text-anchor="start" fill="#444444" pointer-events="none" display="block" font-family="Tahoma, Verdana, Helvetica, Arial"><tspan dy="0" >Each JVM co-locates ClusterNodeRuntime SmartLifecycle composition, one Ratis voter, one replica server/client set, one request-facing repair coordinator, one process-local bounded scheduler, and one fenced worker. The lifecycle starts scheduling after control and data services and stops it before transport shutdown. Ratis replicates repair metadata and state only; direct mTLS gRPC and token-specific filesystem staging carry verified whole-object bytes. The topology excludes broad anti-entropy, rebalance, automated orphan cleanup, dynamic membership, erasure coding, clustered multipart/versioning, and broader partition handling.</tspan></text></g></g><!--z-index:32--><g   id="j_839"  transform="translate(20,1037)"><g id="v-11332"><text  id="v-11333" font-size="36px" xml:space="preserve" y="0.8em" font-weight="normal" text-anchor="start" fill="#444444" pointer-events="none" display="block" font-family="Tahoma, Verdana, Helvetica, Arial"><tspan dy="0" >Deployment: Fixed A/B/C Runtime with Bounded Repair</tspan></text></g></g><!--z-index:33--><!--z-index:34--><!--z-index:35--><!--z-index:36--><!--z-index:37--><!--z-index:38--><!--z-index:39--><!--z-index:40--><!--z-index:41--><!--z-index:42--><!--z-index:43--><!--z-index:44--><!--z-index:45--><!--z-index:46--><!--z-index:47--><!--z-index:48--><!--z-index:49--><!--z-index:50--><!--z-index:51--><!--z-index:52--><!--z-index:53--><!--z-index:54--><!--z-index:55--><!--z-index:56--><!--z-index:57--><!--z-index:58--><!--z-index:59--><!--z-index:60--><!--z-index:61--><!--z-index:62--><!--z-index:63--><!--z-index:64--><!--z-index:65--><!--z-index:66--><!--z-index:67--><!--z-index:68--><!--z-index:69--><!--z-index:70--><!--z-index:71--><!--z-index:72--><!--z-index:73--><!--z-index:74--><!--z-index:75--><!--z-index:76--><!--z-index:77--><!--z-index:78--><!--z-index:79--><!--z-index:80--><!--z-index:81--><!--z-index:82--><!--z-index:83--><!--z-index:84--><!--z-index:85--><!--z-index:86--><!--z-index:87--><!--z-index:88--><!--z-index:89--><!--z-index:90--><!--z-index:91--><!--z-index:92--><!--z-index:93--><!--z-index:94--><!--z-index:95--></g><g  style="user-select: none;"></g><g ></g><g  display="none"></g></g></svg>