<svg xmlns="http://www.w3.org/2000/svg" xmlns:xlink="http://www.w3.org/1999/xlink" version="1.1" width="2630" height="1823" style="width: 2630px; height: 1823px; background: #ffffff" viewBox="0 0 2630 1823"><style id="v-3" type="text/css">        .joint-element .scalable * {            vector-effect: non-scaling-stroke;        }    </style><defs joint-selector="defs"><marker id="v-21252848929" orient="auto" overflow="visible" markerUnits="userSpaceOnUse"><path id="v-52" stroke="#444444" fill="#444444" transform="rotate(180)" d="M 20 -10 0 0 20 10 Z"></path></marker></defs><g joint-selector="layers"  transform="matrix(1,0,0,1,0,0)"><g  style="pointer-events: none;"></g><g ></g><g  style="user-select: none;"><!--z-index:0--><!--z-index:1--><!--z-index:2--><!--z-index:3--><!--z-index:4--><!--z-index:5--><!--z-index:6--><!--z-index:7--><!--z-index:8--><!--z-index:9--><!--z-index:10--><!--z-index:11--><!--z-index:12--><!--z-index:13--><!--z-index:14--><g   id="j_92"  transform="translate(20,1779)"><g id="v-1153"><text  id="v-1154" font-size="24px" xml:space="preserve" y="0.8em" font-weight="normal" text-anchor="start" fill="#444444" pointer-events="none" display="block" font-family="Tahoma, Verdana, Helvetica, Arial"><tspan dy="0" >domenica 24 maggio 2026 alle ore 01:57 Ora legale dell’Europa centrale</tspan></text></g></g><!--z-index:15--><g   id="j_91"  transform="translate(20,1745)"><g id="v-1151"><text  id="v-1152" font-size="24px" xml:space="preserve" y="0.8em" font-weight="normal" text-anchor="start" fill="#444444" pointer-events="none" display="block" font-family="Tahoma, Verdana, Helvetica, Arial"><tspan dy="0" >Repository adapters used by the application capabilities. Internal ConcurrentHashMap structures are intentionally not shown as C4 components.</tspan></text></g></g><!--z-index:16--><g   id="j_90"  transform="translate(20,1699)"><g id="v-1149"><text  id="v-1150" font-size="36px" xml:space="preserve" y="0.8em" font-weight="normal" text-anchor="start" fill="#444444" pointer-events="none" display="block" font-family="Tahoma, Verdana, Helvetica, Arial"><tspan dy="0" >C3 Component: in-memory-repository</tspan></text></g></g><!--z-index:17--><g   id="j_94"  transform="translate(200,142)" style="; opacity: 1;"><g id="v-1168"><rect  id="v-1169" width="2230" height="1423" rx="20" ry="20" stroke-width="2" pointer-events="none" stroke="#0f5eaa" fill="#ffffff" opacity="1" stroke-dasharray=""></rect><text  id="v-1170" font-size="33.599999999999994px" xml:space="preserve" y="1384" font-weight="bold" text-anchor="start" pointer-events="visible" font-family="Tahoma, Verdana, Helvetica, Arial" fill="#1168bd" transform="matrix(1,0,0,1,15,0)"><tspan dy="0" >Magrathea ObjectStorage</tspan></text><text  id="v-1171" font-size="16.799999999999997px" xml:space="preserve" y="1408" font-weight="normal" text-anchor="start" pointer-events="visible" font-family="Tahoma, Verdana, Helvetica, Arial" fill="#1168bd" transform="matrix(1,0,0,1,15,0)"><tspan dy="0" >[Software System]</tspan></text><image  id="v-1172" pointer-events="visible"></image></g></g><!--z-index:18--><g   id="j_93"  transform="translate(250,592)" style=""><g  id="v-1161" style="opacity: 1;"><rect  id="v-1162" rx="20" ry="20" stroke-width="2" pointer-events="visiblePainted" fill="#438dd5" stroke="#3c7fc0" stroke-dasharray="" width="450" height="300" style="fill: rgb(67, 141, 213); stroke: rgb(60, 127, 192);"></rect><text  id="v-1163" font-size="33.599999999999994px" xml:space="preserve" y="58.10000000000001" font-weight="bold" text-anchor="middle" pointer-events="visible" font-family="Tahoma, Verdana, Helvetica, Arial" fill="#ffffff" dominant-baseline="hanging" transform="matrix(1,0,0,1,225,0)" style="fill: rgb(255, 255, 255);"><tspan dy="0" >object-store</tspan></text><text  id="v-1164" font-size="16.799999999999997px" xml:space="preserve" y="99.7" text-anchor="middle" font-family="Tahoma, Verdana, Helvetica, Arial" fill="#ffffff" dominant-baseline="hanging" transform="matrix(1,0,0,1,225,0)" style="display: block; fill: rgb(255, 255, 255);"><tspan dy="0" >[Container: Java 21 application/domain services]</tspan></text><text  id="v-1165" font-size="24px" xml:space="preserve" y="131.5" text-anchor="middle" font-family="Tahoma, Verdana, Helvetica, Arial" fill="#ffffff" dominant-baseline="hanging" transform="matrix(1,0,0,1,225,0)" style="display: block; fill: rgb(255, 255, 255);"><tspan dy="0" >Object storage capability: object</tspan><tspan dy="1.2em" x="0" >upload, download, metadata lookup,</tspan><tspan dy="1.2em" x="0" >deletion and multipart object</tspan><tspan dy="1.2em" x="0" >workflows.</tspan></text><g  id="v-1166" color="#ffffff" transform="matrix(1,0,0,1,210,268)" display="none" style="fill: rgb(255, 255, 255);"><g  transform="translate(5 0)"><svg xmlns="http://www.w3.org/2000/svg" width="20" height="20" fill="currentColor" viewBox="0 0 16 16"><path fill-rule="evenodd" d="M6.5 12a5.5 5.5 0 1 0 0-11 5.5 5.5 0 0 0 0 11zM13 6.5a6.5 6.5 0 1 1-13 0 6.5 6.5 0 0 1 13 0z"></path><path d="M10.344 11.742c.03.04.062.078.098.115l3.85 3.85a1 1 0 0 0 1.415-1.414l-3.85-3.85a1.007 1.007 0 0 0-.115-.1 6.538 6.538 0 0 1-1.398 1.4z"></path><path fill-rule="evenodd" d="M6.5 3a.5.5 0 0 1 .5.5V6h2.5a.5.5 0 0 1 0 1H7v2.5a.5.5 0 0 1-1 0V7H3.5a.5.5 0 0 1 0-1H6V3.5a.5.5 0 0 1 .5-.5z"></path></svg></g><g ></g><g ></g><g ></g></g><image  id="v-1167"></image></g></g><!--z-index:19--><g   id="j_95"  transform="translate(1040,192)" style=""><g  id="v-1182" style="opacity: 1;"><rect  id="v-1183" rx="20" ry="20" stroke-width="2" pointer-events="visiblePainted" fill="#438dd5" stroke="#3c7fc0" stroke-dasharray="" width="450" height="300" style="fill: rgb(67, 141, 213); stroke: rgb(60, 127, 192);"></rect><text  id="v-1184" font-size="33.599999999999994px" xml:space="preserve" y="58.10000000000001" font-weight="bold" text-anchor="middle" pointer-events="visible" font-family="Tahoma, Verdana, Helvetica, Arial" fill="#ffffff" dominant-baseline="hanging" transform="matrix(1,0,0,1,225,0)" style="fill: rgb(255, 255, 255);"><tspan dy="0" >bucket-managment</tspan></text><text  id="v-1185" font-size="16.799999999999997px" xml:space="preserve" y="99.7" text-anchor="middle" font-family="Tahoma, Verdana, Helvetica, Arial" fill="#ffffff" dominant-baseline="hanging" transform="matrix(1,0,0,1,225,0)" style="display: block; fill: rgb(255, 255, 255);"><tspan dy="0" >[Container: Java 21 application/domain services]</tspan></text><text  id="v-1186" font-size="24px" xml:space="preserve" y="131.5" text-anchor="middle" font-family="Tahoma, Verdana, Helvetica, Arial" fill="#ffffff" dominant-baseline="hanging" transform="matrix(1,0,0,1,225,0)" style="display: block; fill: rgb(255, 255, 255);"><tspan dy="0" >Bucket management capability:</tspan><tspan dy="1.2em" x="0" >bucket lifecycle, metadata,</tspan><tspan dy="1.2em" x="0" >configuration, CORS/versioning and</tspan><tspan dy="1.2em" x="0" >bucket-level operations.</tspan></text><g  id="v-1187" color="#ffffff" transform="matrix(1,0,0,1,210,268)" display="none" style="fill: rgb(255, 255, 255);"><g  transform="translate(5 0)"><svg xmlns="http://www.w3.org/2000/svg" width="20" height="20" fill="currentColor" viewBox="0 0 16 16"><path fill-rule="evenodd" d="M6.5 12a5.5 5.5 0 1 0 0-11 5.5 5.5 0 0 0 0 11zM13 6.5a6.5 6.5 0 1 1-13 0 6.5 6.5 0 0 1 13 0z"></path><path d="M10.344 11.742c.03.04.062.078.098.115l3.85 3.85a1 1 0 0 0 1.415-1.414l-3.85-3.85a1.007 1.007 0 0 0-.115-.1 6.538 6.538 0 0 1-1.398 1.4z"></path><path fill-rule="evenodd" d="M6.5 3a.5.5 0 0 1 .5.5V6h2.5a.5.5 0 0 1 0 1H7v2.5a.5.5 0 0 1-1 0V7H3.5a.5.5 0 0 1 0-1H6V3.5a.5.5 0 0 1 .5-.5z"></path></svg></g><g ></g><g ></g><g ></g></g><image  id="v-1188"></image></g></g><!--z-index:20--><g   id="j_97"  transform="translate(1830,254)" style="; opacity: 1;"><g id="v-1205"><rect  id="v-1206" width="550" height="1182" rx="0" ry="0" stroke-width="2" pointer-events="none" stroke="#3c7fc0" fill="#ffffff" opacity="1" stroke-dasharray=""></rect><text  id="v-1207" font-size="33.599999999999994px" xml:space="preserve" y="1143" font-weight="bold" text-anchor="start" pointer-events="visible" font-family="Tahoma, Verdana, Helvetica, Arial" fill="#438dd5" transform="matrix(1,0,0,1,15,0)"><tspan dy="0" >in-memory-repository</tspan></text><text  id="v-1208" font-size="16.799999999999997px" xml:space="preserve" y="1167" font-weight="normal" text-anchor="start" pointer-events="visible" font-family="Tahoma, Verdana, Helvetica, Arial" fill="#438dd5" transform="matrix(1,0,0,1,15,0)"><tspan dy="0" >[Container]</tspan></text><image  id="v-1209" pointer-events="visible"></image></g></g><!--z-index:21--><g   id="j_96"  transform="translate(1880,304)" style=""><g  id="v-1198" style="opacity: 1;"><rect  id="v-1199" rx="20" ry="20" stroke-width="2" pointer-events="visiblePainted" fill="#85bbf0" stroke="#78a8d8" stroke-dasharray="" width="450" height="300" style="fill: rgb(133, 187, 240); stroke: rgb(120, 168, 216);"></rect><text  id="v-1200" font-size="33.599999999999994px" xml:space="preserve" y="23.54000000000002" font-weight="bold" text-anchor="middle" pointer-events="visible" font-family="Tahoma, Verdana, Helvetica, Arial" fill="#000000" dominant-baseline="hanging" transform="matrix(1,0,0,1,225,0)" style="fill: rgb(0, 0, 0);"><tspan dy="0" >InMemoryBucketReposito</tspan><tspan dy="1.2em" x="0" >ry</tspan></text><text  id="v-1201" font-size="16.799999999999997px" xml:space="preserve" y="105.46000000000001" text-anchor="middle" font-family="Tahoma, Verdana, Helvetica, Arial" fill="#000000" dominant-baseline="hanging" transform="matrix(1,0,0,1,225,0)" style="display: block; fill: rgb(0, 0, 0);"><tspan dy="0" >[Component: Spring @Repository]</tspan></text><text  id="v-1202" font-size="24px" xml:space="preserve" y="137.26" text-anchor="middle" font-family="Tahoma, Verdana, Helvetica, Arial" fill="#000000" dominant-baseline="hanging" transform="matrix(1,0,0,1,225,0)" style="display: block; fill: rgb(0, 0, 0);"><tspan dy="0" >In-memory implementation of</tspan><tspan dy="1.2em" x="0" >BucketRepository. Internally stores</tspan><tspan dy="1.2em" x="0" >bucket aggregates and bucket</tspan><tspan dy="1.2em" x="0" >configuration in</tspan><tspan dy="1.2em" x="0" >ConcurrentHashMap structures.</tspan></text><g  id="v-1203" color="#000000" transform="matrix(1,0,0,1,222.5,268)" display="none" style="fill: rgb(0, 0, 0);"><g ></g><g ></g><g ></g><g ></g></g><image  id="v-1204"></image></g></g><!--z-index:22--><g   id="j_98"  transform="translate(1880,657)" style=""><g  id="v-1219" style="opacity: 1;"><rect  id="v-1220" rx="20" ry="20" stroke-width="2" pointer-events="visiblePainted" fill="#85bbf0" stroke="#78a8d8" stroke-dasharray="" width="450" height="300" style="fill: rgb(133, 187, 240); stroke: rgb(120, 168, 216);"></rect><text  id="v-1221" font-size="33.599999999999994px" xml:space="preserve" y="23.54000000000002" font-weight="bold" text-anchor="middle" pointer-events="visible" font-family="Tahoma, Verdana, Helvetica, Arial" fill="#000000" dominant-baseline="hanging" transform="matrix(1,0,0,1,225,0)" style="fill: rgb(0, 0, 0);"><tspan dy="0" >InMemoryObjectReposito</tspan><tspan dy="1.2em" x="0" >ry</tspan></text><text  id="v-1222" font-size="16.799999999999997px" xml:space="preserve" y="105.46000000000001" text-anchor="middle" font-family="Tahoma, Verdana, Helvetica, Arial" fill="#000000" dominant-baseline="hanging" transform="matrix(1,0,0,1,225,0)" style="display: block; fill: rgb(0, 0, 0);"><tspan dy="0" >[Component: Spring @Repository]</tspan></text><text  id="v-1223" font-size="24px" xml:space="preserve" y="137.26" text-anchor="middle" font-family="Tahoma, Verdana, Helvetica, Arial" fill="#000000" dominant-baseline="hanging" transform="matrix(1,0,0,1,225,0)" style="display: block; fill: rgb(0, 0, 0);"><tspan dy="0" >In-memory implementation of</tspan><tspan dy="1.2em" x="0" >S3ObjectRepository. Internally</tspan><tspan dy="1.2em" x="0" >stores object metadata and raw</tspan><tspan dy="1.2em" x="0" >object bytes in ConcurrentHashMap</tspan><tspan dy="1.2em" x="0" >structures.</tspan></text><g  id="v-1224" color="#000000" transform="matrix(1,0,0,1,222.5,268)" display="none" style="fill: rgb(0, 0, 0);"><g ></g><g ></g><g ></g><g ></g></g><image  id="v-1225"></image></g></g><!--z-index:23--><g   id="j_99"  transform="translate(1880,1007)" style=""><g  id="v-1235" style="opacity: 1;"><rect  id="v-1236" rx="20" ry="20" stroke-width="2" pointer-events="visiblePainted" fill="#85bbf0" stroke="#78a8d8" stroke-dasharray="" width="450" height="300" style="fill: rgb(133, 187, 240); stroke: rgb(120, 168, 216);"></rect><text  id="v-1237" font-size="33.599999999999994px" xml:space="preserve" y="23.54000000000002" font-weight="bold" text-anchor="middle" pointer-events="visible" font-family="Tahoma, Verdana, Helvetica, Arial" fill="#000000" dominant-baseline="hanging" transform="matrix(1,0,0,1,225,0)" style="fill: rgb(0, 0, 0);"><tspan dy="0" >InMemoryMultipartUpload</tspan><tspan dy="1.2em" x="0" >Repository</tspan></text><text  id="v-1238" font-size="16.799999999999997px" xml:space="preserve" y="105.46000000000001" text-anchor="middle" font-family="Tahoma, Verdana, Helvetica, Arial" fill="#000000" dominant-baseline="hanging" transform="matrix(1,0,0,1,225,0)" style="display: block; fill: rgb(0, 0, 0);"><tspan dy="0" >[Component: Spring @Repository]</tspan></text><text  id="v-1239" font-size="24px" xml:space="preserve" y="137.26" text-anchor="middle" font-family="Tahoma, Verdana, Helvetica, Arial" fill="#000000" dominant-baseline="hanging" transform="matrix(1,0,0,1,225,0)" style="display: block; fill: rgb(0, 0, 0);"><tspan dy="0" >In-memory implementation of</tspan><tspan dy="1.2em" x="0" >MultipartUploadRepository.</tspan><tspan dy="1.2em" x="0" >Internally stores multipart upload</tspan><tspan dy="1.2em" x="0" >sessions in a ConcurrentHashMap</tspan><tspan dy="1.2em" x="0" >structure.</tspan></text><g  id="v-1240" color="#000000" transform="matrix(1,0,0,1,222.5,268)" display="none" style="fill: rgb(0, 0, 0);"><g ></g><g ></g><g ></g><g ></g></g><image  id="v-1241"></image></g></g><!--z-index:24--><g   id="j_100"  style="opacity: 1;"><path fill="none" cursor="pointer" stroke="transparent" stroke-linecap="round" joint-selector="wrapper" id="v-1259" stroke-width="10" stroke-linejoin="round" d="M 623.13 592 L 863 349 C 867.6666666666666 344.3333333333333 873.3333333333333 342 880 342 L 1040 342"></path><path fill="none" pointer-events="none" joint-selector="line" id="v-1258" stroke="#444444" stroke-width="2" stroke-linejoin="round" stroke-dasharray="8 8" d="M 623.13 592 L 863 349 C 867.6666666666666 344.3333333333333 873.3333333333333 342 880 342 L 1040 342" marker-end="url(#v-21252848929)"></path><g id="v-1248" ><g id="v-1249"  label-idx="0" cursor="move" transform="matrix(1,0,0,1,870.6836547851562,320.2974548339844)" style="cursor: default;"><rect joint-selector="rect" id="v-1253" fill="#ffffff" rx="3" ry="3" x="-87.02256774902344" y="-29.42222023010254" width="175.69931030273438" height="56.57777786254883" pointer-events="none"  style="display: block;"></rect><text joint-selector="text" id="v-1252" font-size="24px" xml:space="preserve" fill="#444444" text-anchor="middle" pointer-events="none" font-family="Tahoma, Verdana, Helvetica, Arial" font-weight="normal"  style="display: block;"><tspan dy="-0.3em" >Validates bucket</tspan><tspan dy="1.2em" x="0" >existence</tspan></text></g><g id="v-1250"  label-idx="1" cursor="move" transform="matrix(1,0,0,1,870.6836547851562,375.1774597167969)" style="cursor: default;"><rect joint-selector="rect" id="v-1255" fill="#ffffff" rx="3" ry="3" x="-74.04513549804688" y="-18.92888832092285" width="148.09027099609375" height="36.82666778564453"  pointer-events="none" style="display: block;"></rect><text joint-selector="text" id="v-1254" font-size="16.799999999999997px" xml:space="preserve" fill="#444444" text-anchor="middle" pointer-events="none" font-family="Tahoma, Verdana, Helvetica, Arial" font-weight="normal"  style="display: block;"><tspan dy="-0.3em" >[Bucket lookup/read</tspan><tspan dy="1.2em" x="0" >collaboration]</tspan></text></g><g id="v-1251"  label-idx="2" cursor="move" transform="matrix(1,0,0,1,795.9028930664062,456.7221374511719)" style="cursor: default;"><rect joint-selector="rect" id="v-1257" fill="#ffffff" rx="3" ry="3" x="0" y="0" width="0" height="0"  display="none"></rect><text joint-selector="text" id="v-1256" fill="#000000" font-size="14" text-anchor="middle" text-vertical-anchor="middle" pointer-events="none"></text></g></g></g><!--z-index:25--><g   id="j_101"  style="opacity: 1;"><path fill="none" cursor="pointer" stroke="transparent" stroke-linecap="round" joint-selector="wrapper" id="v-1277" stroke-width="10" stroke-linejoin="round" d="M 700 779.14 L 860 806 C 866.6666666666666 806.8 873.3333333333333 807.1333333333333 880 807 L 1880 807.04"></path><path fill="none" pointer-events="none" joint-selector="line" id="v-1276" stroke="#444444" stroke-width="2" stroke-linejoin="round" stroke-dasharray="8 8" d="M 700 779.14 L 860 806 C 866.6666666666666 806.8 873.3333333333333 807.1333333333333 880 807 L 1880 807.04" marker-end="url(#v-21252848929)"></path><g id="v-1266" ><g id="v-1267"  label-idx="0" cursor="move" transform="matrix(1,0,0,1,1264.9964599609375,793.6154174804688)" style="cursor: default;"><rect joint-selector="rect" id="v-1271" fill="#ffffff" rx="3" ry="3" x="-77.9079818725586" y="-43.82221984863281" width="157.464599609375" height="85.37777709960938" pointer-events="none"  style="display: block;"></rect><text joint-selector="text" id="v-1270" font-size="24px" xml:space="preserve" fill="#444444" text-anchor="middle" pointer-events="none" font-family="Tahoma, Verdana, Helvetica, Arial" font-weight="normal"  style="display: block;"><tspan dy="-0.8999999999999999em" >Persists object</tspan><tspan dy="1.2em" x="0" >metadata and</tspan><tspan dy="1.2em" x="0" >bytes</tspan></text></g><g id="v-1268"  label-idx="1" cursor="move" transform="matrix(1,0,0,1,1264.9964599609375,852.8154296875)" style="cursor: default;"><rect joint-selector="rect" id="v-1273" fill="#ffffff" rx="3" ry="3" x="-83.35503387451172" y="-8.848888397216797" width="167.57667541503906" height="16.66666603088379"  pointer-events="none" style="display: block;"></rect><text joint-selector="text" id="v-1272" font-size="16.799999999999997px" xml:space="preserve" fill="#444444" text-anchor="middle" pointer-events="none" font-family="Tahoma, Verdana, Helvetica, Arial" font-weight="normal"  style="display: block;"><tspan dy="0.3em" >[Repository interfaces]</tspan></text></g><g id="v-1269"  label-idx="2" cursor="move" transform="matrix(1,0,0,1,1278.8604736328125,861.2163696289062)" style="cursor: default;"><rect joint-selector="rect" id="v-1275" fill="#ffffff" rx="3" ry="3" x="0" y="0" width="0" height="0"  display="none"></rect><text joint-selector="text" id="v-1274" fill="#000000" font-size="14" text-anchor="middle" text-vertical-anchor="middle" pointer-events="none"></text></g></g></g><!--z-index:26--><g   id="j_102"  style="opacity: 1;"><path fill="none" cursor="pointer" stroke="transparent" stroke-linecap="round" joint-selector="wrapper" id="v-1295" stroke-width="10" stroke-linejoin="round" d="M 617.7 892 L 863 1150 C 867.6666666666666 1154.8 873.3333333333333 1157.1333333333332 880 1157 L 1880 1157.04"></path><path fill="none" pointer-events="none" joint-selector="line" id="v-1294" stroke="#444444" stroke-width="2" stroke-linejoin="round" stroke-dasharray="8 8" d="M 617.7 892 L 863 1150 C 867.6666666666666 1154.8 873.3333333333333 1157.1333333333332 880 1157 L 1880 1157.04" marker-end="url(#v-21252848929)"></path><g id="v-1284" ><g id="v-1285"  label-idx="0" cursor="move" transform="matrix(1,0,0,1,1265.3172607421875,1143.6153564453125)" style="cursor: default;"><rect joint-selector="rect" id="v-1289" fill="#ffffff" rx="3" ry="3" x="-91.86197662353516" y="-29.42222023010254" width="185.400390625" height="56.57777786254883" pointer-events="none"  style="display: block;"></rect><text joint-selector="text" id="v-1288" font-size="24px" xml:space="preserve" fill="#444444" text-anchor="middle" pointer-events="none" font-family="Tahoma, Verdana, Helvetica, Arial" font-weight="normal"  style="display: block;"><tspan dy="-0.3em" >Persists multipart</tspan><tspan dy="1.2em" x="0" >upload state</tspan></text></g><g id="v-1286"  label-idx="1" cursor="move" transform="matrix(1,0,0,1,1265.3172607421875,1188.4154052734375)" style="cursor: default;"><rect joint-selector="rect" id="v-1291" fill="#ffffff" rx="3" ry="3" x="-83.35503387451172" y="-8.848888397216797" width="167.57667541503906" height="16.66666603088379"  pointer-events="none" style="display: block;"></rect><text joint-selector="text" id="v-1290" font-size="16.799999999999997px" xml:space="preserve" fill="#444444" text-anchor="middle" pointer-events="none" font-family="Tahoma, Verdana, Helvetica, Arial" font-weight="normal"  style="display: block;"><tspan dy="0.3em" >[Repository interfaces]</tspan></text></g><g id="v-1287"  label-idx="2" cursor="move" transform="matrix(1,0,0,1,1182.5272216796875,1196.8125)" style="cursor: default;"><rect joint-selector="rect" id="v-1293" fill="#ffffff" rx="3" ry="3" x="2.2737367544323206e-13" y="0" width="0" height="0"  display="none"></rect><text joint-selector="text" id="v-1292" fill="#000000" font-size="14" text-anchor="middle" text-vertical-anchor="middle" pointer-events="none"></text></g></g></g><!--z-index:27--><g   id="j_103"  style="opacity: 1;"><path fill="none" cursor="pointer" stroke="transparent" stroke-linecap="round" joint-selector="wrapper" id="v-1313" stroke-width="10" stroke-linejoin="round" d="M 1490 342 L 1820 342 C 1826.6666666666665 342 1833 343.3333333333333 1839 346 L 1880 362.36"></path><path fill="none" pointer-events="none" joint-selector="line" id="v-1312" stroke="#444444" stroke-width="2" stroke-linejoin="round" stroke-dasharray="8 8" d="M 1490 342 L 1820 342 C 1826.6666666666665 342 1833 343.3333333333333 1839 346 L 1880 362.36" marker-end="url(#v-21252848929)"></path><g id="v-1302" ><g id="v-1303"  label-idx="0" cursor="move" transform="matrix(1,0,0,1,1659.856201171875,328.6000061035156)" style="cursor: default;"><rect joint-selector="rect" id="v-1307" fill="#ffffff" rx="3" ry="3" x="-99.21875" y="-29.42222023010254" width="198.4375" height="56.57777786254883" pointer-events="none"  style="display: block;"></rect><text joint-selector="text" id="v-1306" font-size="24px" xml:space="preserve" fill="#444444" text-anchor="middle" pointer-events="none" font-family="Tahoma, Verdana, Helvetica, Arial" font-weight="normal"  style="display: block;"><tspan dy="-0.3em" >Persists and reads</tspan><tspan dy="1.2em" x="0" >bucket aggregate</tspan></text></g><g id="v-1304"  label-idx="1" cursor="move" transform="matrix(1,0,0,1,1659.856201171875,373.3999938964844)" style="cursor: default;"><rect joint-selector="rect" id="v-1309" fill="#ffffff" rx="3" ry="3" x="-83.35503387451172" y="-8.848888397216797" width="167.57667541503906" height="16.66666603088379"  pointer-events="none" style="display: block;"></rect><text joint-selector="text" id="v-1308" font-size="16.799999999999997px" xml:space="preserve" fill="#444444" text-anchor="middle" pointer-events="none" font-family="Tahoma, Verdana, Helvetica, Arial" font-weight="normal"  style="display: block;"><tspan dy="0.3em" >[Repository interfaces]</tspan></text></g><g id="v-1305"  label-idx="2" cursor="move" transform="matrix(1,0,0,1,1676.851318359375,381.79998779296875)" style="cursor: default;"><rect joint-selector="rect" id="v-1311" fill="#ffffff" rx="3" ry="3" x="0" y="0" width="0" height="0"  display="none"></rect><text joint-selector="text" id="v-1310" fill="#000000" font-size="14" text-anchor="middle" text-vertical-anchor="middle" pointer-events="none"></text></g></g></g><!--z-index:28--><g   id="j_104"  style="opacity: 1;"><path fill="none" cursor="pointer" stroke="transparent" stroke-linecap="round" joint-selector="wrapper" id="v-1328" stroke-width="10" stroke-linejoin="round" d="M 700 642.54 L 861 571 C 867 568.5999999999999 873.3333333333333 567.2666666666667 880 567 L 1820 567 C 1826.6666666666665 567.2666666666667 1833 566.2666666666667 1839 564 L 1880 546.78"></path><path fill="none" pointer-events="none" joint-selector="line" id="v-1327" stroke="#444444" stroke-width="2" stroke-linejoin="round" stroke-dasharray="8 8" d="M 700 642.54 L 861 571 C 867 568.5999999999999 873.3333333333333 567.2666666666667 880 567 L 1820 567 C 1826.6666666666665 567.2666666666667 1833 566.2666666666667 1839 564 L 1880 546.78" marker-end="url(#v-21252848929)"></path><g id="v-1317" ><g id="v-1318"  label-idx="0" cursor="move" transform="matrix(1,0,0,1,1265.03271484375,553.5999755859375)" style="cursor: default;"><rect joint-selector="rect" id="v-1322" fill="#ffffff" rx="3" ry="3" x="-85.24304962158203" y="-15.022221565246582" width="172.36717224121094" height="27.77777671813965" pointer-events="none"  style="display: block;"></rect><text joint-selector="text" id="v-1321" font-size="24px" xml:space="preserve" fill="#444444" text-anchor="middle" pointer-events="none" font-family="Tahoma, Verdana, Helvetica, Arial" font-weight="normal"  style="display: block;"><tspan dy="0.3em" >Implemented by</tspan></text></g><g id="v-1319"  label-idx="1" cursor="move" transform="matrix(1,0,0,1,1265.03271484375,584)" style="cursor: default;"><rect joint-selector="rect" id="v-1324" fill="#ffffff" rx="3" ry="3" x="-47.96006774902344" y="-8.848888397216797" width="96.7998046875" height="16.66666603088379"  pointer-events="none" style="display: block;"></rect><text joint-selector="text" id="v-1323" font-size="16.799999999999997px" xml:space="preserve" fill="#444444" text-anchor="middle" pointer-events="none" font-family="Tahoma, Verdana, Helvetica, Arial" font-weight="normal"  style="display: block;"><tspan dy="0.3em" >[Implements]</tspan></text></g><g id="v-1320"  label-idx="2" cursor="move" transform="matrix(1,0,0,1,1274.074951171875,592.4000244140625)" style="cursor: default;"><rect joint-selector="rect" id="v-1326" fill="#ffffff" rx="3" ry="3" x="2.2737367544323206e-13" y="0" width="0" height="0"  display="none"></rect><text joint-selector="text" id="v-1325" fill="#000000" font-size="14" text-anchor="middle" text-vertical-anchor="middle" pointer-events="none"></text></g></g></g><!--z-index:29--><!--z-index:30--><!--z-index:31--><!--z-index:32--><!--z-index:33--><!--z-index:34--><!--z-index:35--><!--z-index:36--><!--z-index:37--><!--z-index:38--><!--z-index:39--><!--z-index:40--><!--z-index:41--><!--z-index:42--><!--z-index:43--><!--z-index:44--><!--z-index:45--><!--z-index:46--><!--z-index:47--><!--z-index:48--><!--z-index:49--><!--z-index:50--><!--z-index:51--><!--z-index:52--><!--z-index:53--><!--z-index:54--><!--z-index:55--><!--z-index:56--><!--z-index:57--><!--z-index:58--><!--z-index:59--><!--z-index:60--><!--z-index:61--><!--z-index:62--><!--z-index:63--></g><g  style="user-select: none;"></g><g ></g><g  display="none"></g></g></svg>