<svg xmlns="http://www.w3.org/2000/svg" xmlns:xlink="http://www.w3.org/1999/xlink" version="1.1" width="5210" height="2208" style="width: 5210px; height: 2208px; background: #ffffff" viewBox="0 0 5210 2208"><style id="v-3" type="text/css">        .joint-element .scalable * {            vector-effect: non-scaling-stroke;        }    </style><defs joint-selector="defs"><marker id="v-21252848929" orient="auto" overflow="visible" markerUnits="userSpaceOnUse"><path id="v-52" stroke="#444444" fill="#444444" transform="rotate(180)" d="M 20 -10 0 0 20 10 Z"></path></marker></defs><g joint-selector="layers"  transform="matrix(1,0,0,1,0,0)"><g  style="pointer-events: none;"></g><g ></g><g  style="user-select: none;"><!--z-index:0--><!--z-index:1--><!--z-index:2--><!--z-index:3--><!--z-index:4--><!--z-index:5--><!--z-index:6--><!--z-index:7--><!--z-index:8--><!--z-index:9--><!--z-index:10--><!--z-index:11--><!--z-index:12--><!--z-index:13--><!--z-index:14--><!--z-index:15--><!--z-index:16--><!--z-index:17--><!--z-index:18--><g   id="j_53"  transform="translate(20,2164)"><g id="v-627"><text  id="v-628" font-size="24px" xml:space="preserve" y="0.8em" font-weight="normal" text-anchor="start" fill="#444444" pointer-events="none" display="block" font-family="Tahoma, Verdana, Helvetica, Arial"><tspan dy="0" >mercoledì 27 maggio 2026 alle ore 15:59 Ora legale dell’Europa centrale</tspan></text></g></g><!--z-index:19--><g   id="j_52"  transform="translate(20,2130)"><g id="v-625"><text  id="v-626" font-size="24px" xml:space="preserve" y="0.8em" font-weight="normal" text-anchor="start" fill="#444444" pointer-events="none" display="block" font-family="Tahoma, Verdana, Helvetica, Arial"><tspan dy="0" >Reactive bucket management service, bucket aggregate root with dedicated with* methods per config type and specific ObjectStoreEvent subtypes, and repository port. Supports Phase F advanced bucket config (ABAC, object lock, metadata/table config).</tspan></text></g></g><!--z-index:20--><g   id="j_51"  transform="translate(20,2084)"><g id="v-623"><text  id="v-624" font-size="36px" xml:space="preserve" y="0.8em" font-weight="normal" text-anchor="start" fill="#444444" pointer-events="none" display="block" font-family="Tahoma, Verdana, Helvetica, Arial"><tspan dy="0" >C3 Component: reactive-bucket-management</tspan></text></g></g><!--z-index:21--><g   id="j_55"  transform="translate(199,142)" style="; opacity: 1;"><g id="v-645"><rect  id="v-646" width="4810" height="1808" rx="20" ry="20" stroke-width="2" pointer-events="none" stroke="#0f5eaa" fill="#ffffff" opacity="1" stroke-dasharray=""></rect><text  id="v-647" font-size="33.599999999999994px" xml:space="preserve" y="1769" font-weight="bold" text-anchor="start" pointer-events="visible" font-family="Tahoma, Verdana, Helvetica, Arial" fill="#1168bd" transform="matrix(1,0,0,1,15,0)"><tspan dy="0" >Magrathea ObjectStore</tspan></text><text  id="v-648" font-size="16.799999999999997px" xml:space="preserve" y="1793" font-weight="normal" text-anchor="start" pointer-events="visible" font-family="Tahoma, Verdana, Helvetica, Arial" fill="#1168bd" transform="matrix(1,0,0,1,15,0)"><tspan dy="0" >[Software System]</tspan></text><image  id="v-649" pointer-events="visible"></image></g></g><!--z-index:22--><g   id="j_54"  transform="translate(249,792)" style=""><g  id="v-638" style="opacity: 1;"><rect  id="v-639" rx="20" ry="20" stroke-width="2" pointer-events="visiblePainted" fill="#438dd5" stroke="#3c7fc0" stroke-dasharray="" width="450" height="300" style="fill: rgb(67, 141, 213); stroke: rgb(60, 127, 192);"></rect><text  id="v-640" font-size="33.599999999999994px" xml:space="preserve" y="33.620000000000005" font-weight="bold" text-anchor="middle" pointer-events="visible" font-family="Tahoma, Verdana, Helvetica, Arial" fill="#ffffff" dominant-baseline="hanging" transform="matrix(1,0,0,1,225,0)" style="fill: rgb(255, 255, 255);"><tspan dy="0" >s3-reactive-api-adapter</tspan></text><text  id="v-641" font-size="16.799999999999997px" xml:space="preserve" y="75.22" text-anchor="middle" font-family="Tahoma, Verdana, Helvetica, Arial" fill="#ffffff" dominant-baseline="hanging" transform="matrix(1,0,0,1,225,0)" style="display: block; fill: rgb(255, 255, 255);"><tspan dy="0" >[Container: Spring Boot 4 WebFlux, RouterFunction,</tspan><tspan dy="1.2em" x="0" >Java 21, Jackson XML]</tspan></text><text  id="v-642" font-size="24px" xml:space="preserve" y="127.17999999999999" text-anchor="middle" font-family="Tahoma, Verdana, Helvetica, Arial" fill="#ffffff" dominant-baseline="hanging" transform="matrix(1,0,0,1,225,0)" style="display: block; fill: rgb(255, 255, 255);"><tspan dy="0" >HTTP adapter that exposes the</tspan><tspan dy="1.2em" x="0" >S3-compatible REST API and</tspan><tspan dy="1.2em" x="0" >translates HTTP/XML/binary</tspan><tspan dy="1.2em" x="0" >requests into reactive application</tspan><tspan dy="1.2em" x="0" >use cases.</tspan></text><g  id="v-643" color="#ffffff" transform="matrix(1,0,0,1,210,268)" display="none" style="fill: rgb(255, 255, 255);"><g  transform="translate(5 0)"><svg xmlns="http://www.w3.org/2000/svg" width="20" height="20" fill="currentColor" viewBox="0 0 16 16"><path fill-rule="evenodd" d="M6.5 12a5.5 5.5 0 1 0 0-11 5.5 5.5 0 0 0 0 11zM13 6.5a6.5 6.5 0 1 1-13 0 6.5 6.5 0 0 1 13 0z"></path><path d="M10.344 11.742c.03.04.062.078.098.115l3.85 3.85a1 1 0 0 0 1.415-1.414l-3.85-3.85a1.007 1.007 0 0 0-.115-.1 6.538 6.538 0 0 1-1.398 1.4z"></path><path fill-rule="evenodd" d="M6.5 3a.5.5 0 0 1 .5.5V6h2.5a.5.5 0 0 1 0 1H7v2.5a.5.5 0 0 1-1 0V7H3.5a.5.5 0 0 1 0-1H6V3.5a.5.5 0 0 1 .5-.5z"></path></svg></g><g ></g><g ></g><g ></g></g><image  id="v-644"></image></g></g><!--z-index:23--><g   id="j_56"  transform="translate(2379,192)" style=""><g  id="v-659" style="opacity: 1;"><rect  id="v-660" rx="20" ry="20" stroke-width="2" pointer-events="visiblePainted" fill="#438dd5" stroke="#3c7fc0" stroke-dasharray="" width="450" height="300" style="fill: rgb(67, 141, 213); stroke: rgb(60, 127, 192);"></rect><text  id="v-661" font-size="33.599999999999994px" xml:space="preserve" y="-23.97999999999999" font-weight="bold" text-anchor="middle" pointer-events="visible" font-family="Tahoma, Verdana, Helvetica, Arial" fill="#ffffff" dominant-baseline="hanging" transform="matrix(1,0,0,1,225,0)" style="fill: rgb(255, 255, 255);"><tspan dy="0" >reactive-object-store</tspan></text><text  id="v-662" font-size="16.799999999999997px" xml:space="preserve" y="17.620000000000005" text-anchor="middle" font-family="Tahoma, Verdana, Helvetica, Arial" fill="#ffffff" dominant-baseline="hanging" transform="matrix(1,0,0,1,225,0)" style="display: block; fill: rgb(255, 255, 255);"><tspan dy="0" >[Container: Java 21 reactive application/domain</tspan><tspan dy="1.2em" x="0" >services]</tspan></text><text  id="v-663" font-size="24px" xml:space="preserve" y="69.58" text-anchor="middle" font-family="Tahoma, Verdana, Helvetica, Arial" fill="#ffffff" dominant-baseline="hanging" transform="matrix(1,0,0,1,225,0)" style="display: block; fill: rgb(255, 255, 255);"><tspan dy="0" >Reactive object storage capability:</tspan><tspan dy="1.2em" x="0" >object upload, download, metadata</tspan><tspan dy="1.2em" x="0" >lookup, deletion, multipart object</tspan><tspan dy="1.2em" x="0" >workflows, Phase F advanced</tspan><tspan dy="1.2em" x="0" >operations (legal hold, retention,</tspan><tspan dy="1.2em" x="0" >torrent, restore, select, Object</tspan><tspan dy="1.2em" x="0" >Lambda, encryption update) using</tspan><tspan dy="1.2em" x="0" >reactive services and domain</tspan><tspan dy="1.2em" x="0" >aggregates.</tspan></text><g  id="v-664" color="#ffffff" transform="matrix(1,0,0,1,210,268)" display="none" style="fill: rgb(255, 255, 255);"><g  transform="translate(5 0)"><svg xmlns="http://www.w3.org/2000/svg" width="20" height="20" fill="currentColor" viewBox="0 0 16 16"><path fill-rule="evenodd" d="M6.5 12a5.5 5.5 0 1 0 0-11 5.5 5.5 0 0 0 0 11zM13 6.5a6.5 6.5 0 1 1-13 0 6.5 6.5 0 0 1 13 0z"></path><path d="M10.344 11.742c.03.04.062.078.098.115l3.85 3.85a1 1 0 0 0 1.415-1.414l-3.85-3.85a1.007 1.007 0 0 0-.115-.1 6.538 6.538 0 0 1-1.398 1.4z"></path><path fill-rule="evenodd" d="M6.5 3a.5.5 0 0 1 .5.5V6h2.5a.5.5 0 0 1 0 1H7v2.5a.5.5 0 0 1-1 0V7H3.5a.5.5 0 0 1 0-1H6V3.5a.5.5 0 0 1 .5-.5z"></path></svg></g><g ></g><g ></g><g ></g></g><image  id="v-665"></image></g></g><!--z-index:24--><g   id="j_58"  transform="translate(1339,742)" style="; opacity: 1;"><g id="v-679"><rect  id="v-680" width="1540" height="1079" rx="20" ry="20" stroke-width="2" pointer-events="none" stroke="#3c7fc0" fill="#ffffff" opacity="1" stroke-dasharray=""></rect><text  id="v-681" font-size="33.599999999999994px" xml:space="preserve" y="1040" font-weight="bold" text-anchor="start" pointer-events="visible" font-family="Tahoma, Verdana, Helvetica, Arial" fill="#438dd5" transform="matrix(1,0,0,1,15,0)"><tspan dy="0" >reactive-bucket-management</tspan></text><text  id="v-682" font-size="16.799999999999997px" xml:space="preserve" y="1064" font-weight="normal" text-anchor="start" pointer-events="visible" font-family="Tahoma, Verdana, Helvetica, Arial" fill="#438dd5" transform="matrix(1,0,0,1,15,0)"><tspan dy="0" >[Container]</tspan></text><image  id="v-683" pointer-events="visible"></image></g></g><!--z-index:25--><g   id="j_61"  transform="translate(3519,792)" style=""><g  id="v-722" style="opacity: 1;"><rect  id="v-723" rx="20" ry="20" stroke-width="2" pointer-events="visiblePainted" fill="#438dd5" stroke="#3c7fc0" stroke-dasharray="" width="450" height="300" style="fill: rgb(67, 141, 213); stroke: rgb(60, 127, 192);"></rect><text  id="v-724" font-size="33.599999999999994px" xml:space="preserve" y="-19.659999999999968" font-weight="bold" text-anchor="middle" pointer-events="visible" font-family="Tahoma, Verdana, Helvetica, Arial" fill="#ffffff" dominant-baseline="hanging" transform="matrix(1,0,0,1,225,0)" style="fill: rgb(255, 255, 255);"><tspan dy="0" >reactive-</tspan><tspan dy="1.2em" x="0" >repository-application</tspan></text><text  id="v-725" font-size="16.799999999999997px" xml:space="preserve" y="62.26000000000002" text-anchor="middle" font-family="Tahoma, Verdana, Helvetica, Arial" fill="#ffffff" dominant-baseline="hanging" transform="matrix(1,0,0,1,225,0)" style="display: block; fill: rgb(255, 255, 255);"><tspan dy="0" >[Container: Java 21 CQS interfaces]</tspan></text><text  id="v-726" font-size="24px" xml:space="preserve" y="94.06000000000002" text-anchor="middle" font-family="Tahoma, Verdana, Helvetica, Arial" fill="#ffffff" dominant-baseline="hanging" transform="matrix(1,0,0,1,225,0)" style="display: block; fill: rgb(255, 255, 255);"><tspan dy="0" >Command/Query repository</tspan><tspan dy="1.2em" x="0" >interfaces:</tspan><tspan dy="1.2em" x="0" >BucketCommandRepository,</tspan><tspan dy="1.2em" x="0" >BucketQueryRepository,</tspan><tspan dy="1.2em" x="0" >S3ObjectCommandRepository,</tspan><tspan dy="1.2em" x="0" >S3ObjectQueryRepository, Multipart</tspan><tspan dy="1.2em" x="0" >UploadCommandRepository,</tspan><tspan dy="1.2em" x="0" >MultipartUploadQueryRepository.</tspan></text><g  id="v-727" color="#ffffff" transform="matrix(1,0,0,1,210,268)" display="none" style="fill: rgb(255, 255, 255);"><g  transform="translate(5 0)"><svg xmlns="http://www.w3.org/2000/svg" width="20" height="20" fill="currentColor" viewBox="0 0 16 16"><path fill-rule="evenodd" d="M6.5 12a5.5 5.5 0 1 0 0-11 5.5 5.5 0 0 0 0 11zM13 6.5a6.5 6.5 0 1 1-13 0 6.5 6.5 0 0 1 13 0z"></path><path d="M10.344 11.742c.03.04.062.078.098.115l3.85 3.85a1 1 0 0 0 1.415-1.414l-3.85-3.85a1.007 1.007 0 0 0-.115-.1 6.538 6.538 0 0 1-1.398 1.4z"></path><path fill-rule="evenodd" d="M6.5 3a.5.5 0 0 1 .5.5V6h2.5a.5.5 0 0 1 0 1H7v2.5a.5.5 0 0 1-1 0V7H3.5a.5.5 0 0 1 0-1H6V3.5a.5.5 0 0 1 .5-.5z"></path></svg></g><g ></g><g ></g><g ></g></g><image  id="v-728"></image></g></g><!--z-index:26--><g   id="j_62"  transform="translate(4509,792)" style=""><g  id="v-738" style="opacity: 1;"><path  d="M 0,30 a 225,30 0,0,0 450 0 a 225,30 0,0,0 -450 0 l 0,240 a 225,30 0,0,0 450 0 l 0,-240" id="v-739" stroke-width="2" pointer-events="visiblePainted" fill="#438dd5" stroke="#3c7fc0" stroke-dasharray="" style="fill: rgb(67, 141, 213); stroke: rgb(60, 127, 192);"></path><rect  id="v-740" stroke-width="0" pointer-events="visiblePainted" fill="none" stroke="none" width="450" height="270" x="0" y="30"></rect><text  id="v-741" font-size="33.599999999999994px" xml:space="preserve" y="58.70000000000002" font-weight="bold" text-anchor="middle" pointer-events="visible" font-family="Tahoma, Verdana, Helvetica, Arial" fill="#ffffff" dominant-baseline="hanging" transform="matrix(1,0,0,1,225,0)" style="fill: rgb(255, 255, 255);"><tspan dy="0" >reactive-infrastructure</tspan></text><text  id="v-742" font-size="16.799999999999997px" xml:space="preserve" y="100.30000000000001" text-anchor="middle" font-family="Tahoma, Verdana, Helvetica, Arial" fill="#ffffff" dominant-baseline="hanging" transform="matrix(1,0,0,1,225,0)" style="display: block; fill: rgb(255, 255, 255);"><tspan dy="0" >[Container: Java 21, Reactor, ConcurrentHashMap]</tspan></text><text  id="v-743" font-size="24px" xml:space="preserve" y="132.10000000000002" text-anchor="middle" font-family="Tahoma, Verdana, Helvetica, Arial" fill="#ffffff" dominant-baseline="hanging" transform="matrix(1,0,0,1,225,0)" style="display: block; fill: rgb(255, 255, 255);"><tspan dy="0" >Reactive in-memory persistence: In</tspan><tspan dy="1.2em" x="0" >MemoryReactiveBucketRepository, I</tspan><tspan dy="1.2em" x="0" >nMemoryReactiveS3ObjectReposito</tspan><tspan dy="1.2em" x="0" >ry, InMemoryReactiveMultipartUploa</tspan><tspan dy="1.2em" x="0" >dRepository.</tspan></text><g  id="v-744" font-weight="normal" text-anchor="middle" color="#ffffff" transform="matrix(1,0,0,1,210,268)" display="none" style="fill: rgb(255, 255, 255);"><g  transform="translate(5 0)"><svg xmlns="http://www.w3.org/2000/svg" width="20" height="20" fill="currentColor" viewBox="0 0 16 16"><path fill-rule="evenodd" d="M6.5 12a5.5 5.5 0 1 0 0-11 5.5 5.5 0 0 0 0 11zM13 6.5a6.5 6.5 0 1 1-13 0 6.5 6.5 0 0 1 13 0z"></path><path d="M10.344 11.742c.03.04.062.078.098.115l3.85 3.85a1 1 0 0 0 1.415-1.414l-3.85-3.85a1.007 1.007 0 0 0-.115-.1 6.538 6.538 0 0 1-1.398 1.4z"></path><path fill-rule="evenodd" d="M6.5 3a.5.5 0 0 1 .5.5V6h2.5a.5.5 0 0 1 0 1H7v2.5a.5.5 0 0 1-1 0V7H3.5a.5.5 0 0 1 0-1H6V3.5a.5.5 0 0 1 .5-.5z"></path></svg></g><g ></g><g ></g><g ></g></g><image  id="v-745"></image></g></g><!--z-index:27--><g   id="j_57"  transform="translate(1389,1092)" style=""><g  id="v-672" style="opacity: 1;"><rect  id="v-673" rx="20" ry="20" stroke-width="2" pointer-events="visiblePainted" fill="#85bbf0" stroke="#78a8d8" stroke-dasharray="" width="450" height="300" style="fill: rgb(133, 187, 240); stroke: rgb(120, 168, 216);"></rect><text  id="v-674" font-size="33.599999999999994px" xml:space="preserve" y="-85.89999999999998" font-weight="bold" text-anchor="middle" pointer-events="visible" font-family="Tahoma, Verdana, Helvetica, Arial" fill="#000000" dominant-baseline="hanging" transform="matrix(1,0,0,1,225,0)" style="fill: rgb(0, 0, 0);"><tspan dy="0" >ReactiveBucketService</tspan></text><text  id="v-675" font-size="16.799999999999997px" xml:space="preserve" y="-44.29999999999998" text-anchor="middle" font-family="Tahoma, Verdana, Helvetica, Arial" fill="#000000" dominant-baseline="hanging" transform="matrix(1,0,0,1,225,0)" style="display: block; fill: rgb(0, 0, 0);"><tspan dy="0" >[Component: Spring @Service]</tspan></text><text  id="v-676" font-size="24px" xml:space="preserve" y="-12.499999999999986" text-anchor="middle" font-family="Tahoma, Verdana, Helvetica, Arial" fill="#000000" dominant-baseline="hanging" transform="matrix(1,0,0,1,225,0)" style="display: block; fill: rgb(0, 0, 0);"><tspan dy="0" >Reactive application service for</tspan><tspan dy="1.2em" x="0" >bucket lifecycle, versioning, CORS,</tspan><tspan dy="1.2em" x="0" >lifecycle, policy, encryption, logging,</tspan><tspan dy="1.2em" x="0" >website, notification, replication,</tspan><tspan dy="1.2em" x="0" >request payment, ownership</tspan><tspan dy="1.2em" x="0" >controls, public access block,</tspan><tspan dy="1.2em" x="0" >accelerate, analytics, inventory,</tspan><tspan dy="1.2em" x="0" >metrics, intelligent-tiering, ABAC,</tspan><tspan dy="1.2em" x="0" >object lock, bucket metadata</tspan><tspan dy="1.2em" x="0" >configuration, metadata table</tspan><tspan dy="1.2em" x="0" >configuration, inventory table</tspan><tspan dy="1.2em" x="0" >configuration, journal table</tspan><tspan dy="1.2em" x="0" >configuration, and session</tspan><tspan dy="1.2em" x="0" >management.</tspan></text><g  id="v-677" color="#000000" transform="matrix(1,0,0,1,222.5,268)" display="none" style="fill: rgb(0, 0, 0);"><g ></g><g ></g><g ></g><g ></g></g><image  id="v-678"></image></g></g><!--z-index:28--><g   id="j_59"  transform="translate(2379,792)" style=""><g  id="v-690" style="opacity: 1;"><rect  id="v-691" rx="20" ry="20" stroke-width="2" pointer-events="visiblePainted" fill="#85bbf0" stroke="#78a8d8" stroke-dasharray="" width="450" height="300" style="fill: rgb(133, 187, 240); stroke: rgb(120, 168, 216);"></rect><text  id="v-692" font-size="33.599999999999994px" xml:space="preserve" y="-244.29999999999995" font-weight="bold" text-anchor="middle" pointer-events="visible" font-family="Tahoma, Verdana, Helvetica, Arial" fill="#000000" dominant-baseline="hanging" transform="matrix(1,0,0,1,225,0)" style="fill: rgb(0, 0, 0);"><tspan dy="0" >Bucket</tspan></text><text  id="v-693" font-size="16.799999999999997px" xml:space="preserve" y="-202.69999999999996" text-anchor="middle" font-family="Tahoma, Verdana, Helvetica, Arial" fill="#000000" dominant-baseline="hanging" transform="matrix(1,0,0,1,225,0)" style="display: block; fill: rgb(0, 0, 0);"><tspan dy="0" >[Component: Domain aggregate root]</tspan></text><text  id="v-694" font-size="24px" xml:space="preserve" y="-170.89999999999998" text-anchor="middle" font-family="Tahoma, Verdana, Helvetica, Arial" fill="#000000" dominant-baseline="hanging" transform="matrix(1,0,0,1,225,0)" style="display: block; fill: rgb(0, 0, 0);"><tspan dy="0" >Domain aggregate root for bucket</tspan><tspan dy="1.2em" x="0" >identity, name, region, storage class,</tspan><tspan dy="1.2em" x="0" >versioning/encryption state and</tspan><tspan dy="1.2em" x="0" >dedicated configuration fields per</tspan><tspan dy="1.2em" x="0" >config type (CorsConfiguration,</tspan><tspan dy="1.2em" x="0" >BucketLifecycleConfiguration,</tspan><tspan dy="1.2em" x="0" >BucketEncryptionConfiguration,</tspan><tspan dy="1.2em" x="0" >BucketLoggingConfiguration,</tspan><tspan dy="1.2em" x="0" >BucketWebsiteConfiguration,</tspan><tspan dy="1.2em" x="0" >BucketNotificationConfiguration,</tspan><tspan dy="1.2em" x="0" >BucketReplicationConfiguration,</tspan><tspan dy="1.2em" x="0" >BucketPolicy,</tspan><tspan dy="1.2em" x="0" >PublicAccessBlockConfiguration,</tspan><tspan dy="1.2em" x="0" >BucketOwnershipControls, BucketR</tspan><tspan dy="1.2em" x="0" >equestPaymentConfiguration,</tspan><tspan dy="1.2em" x="0" >BucketAccelerateConfiguration, plus</tspan><tspan dy="1.2em" x="0" >multi-instance maps for Analytics,</tspan><tspan dy="1.2em" x="0" >Inventory, Metrics,</tspan><tspan dy="1.2em" x="0" >Intelligent-Tiering). Each config</tspan><tspan dy="1.2em" x="0" >feature has a dedicated with*() /</tspan><tspan dy="1.2em" x="0" >without*() method. Emits specific</tspan><tspan dy="1.2em" x="0" >ObjectStoreEvent subtypes per</tspan><tspan dy="1.2em" x="0" >config change</tspan><tspan dy="1.2em" x="0" >(BucketConfigurationChanged with</tspan><tspan dy="1.2em" x="0" >full BucketConfig payload).</tspan></text><g  id="v-695" color="#000000" transform="matrix(1,0,0,1,222.5,268)" display="none" style="fill: rgb(0, 0, 0);"><g ></g><g ></g><g ></g><g ></g></g><image  id="v-696"></image></g></g><!--z-index:29--><g   id="j_60"  transform="translate(2379,1392)" style=""><g  id="v-706" style="opacity: 1;"><rect  id="v-707" rx="20" ry="20" stroke-width="2" pointer-events="visiblePainted" fill="#85bbf0" stroke="#78a8d8" stroke-dasharray="" width="450" height="300" style="fill: rgb(133, 187, 240); stroke: rgb(120, 168, 216);"></rect><text  id="v-708" font-size="33.599999999999994px" xml:space="preserve" y="58.10000000000001" font-weight="bold" text-anchor="middle" pointer-events="visible" font-family="Tahoma, Verdana, Helvetica, Arial" fill="#000000" dominant-baseline="hanging" transform="matrix(1,0,0,1,225,0)" style="fill: rgb(0, 0, 0);"><tspan dy="0" >BucketRepository port</tspan></text><text  id="v-709" font-size="16.799999999999997px" xml:space="preserve" y="99.7" text-anchor="middle" font-family="Tahoma, Verdana, Helvetica, Arial" fill="#000000" dominant-baseline="hanging" transform="matrix(1,0,0,1,225,0)" style="display: block; fill: rgb(0, 0, 0);"><tspan dy="0" >[Component: Domain repository interface]</tspan></text><text  id="v-710" font-size="24px" xml:space="preserve" y="131.5" text-anchor="middle" font-family="Tahoma, Verdana, Helvetica, Arial" fill="#000000" dominant-baseline="hanging" transform="matrix(1,0,0,1,225,0)" style="display: block; fill: rgb(0, 0, 0);"><tspan dy="0" >Domain repository port for bucket</tspan><tspan dy="1.2em" x="0" >aggregate persistence (including</tspan><tspan dy="1.2em" x="0" >ABAC, object lock, metadata/table</tspan><tspan dy="1.2em" x="0" >configuration storage).</tspan></text><g  id="v-711" color="#000000" transform="matrix(1,0,0,1,222.5,268)" display="none" style="fill: rgb(0, 0, 0);"><g ></g><g ></g><g ></g><g ></g></g><image  id="v-712"></image></g></g><!--z-index:30--><g   id="j_63"  style="opacity: 1;"><path fill="none" cursor="pointer" stroke="transparent" stroke-linecap="round" joint-selector="wrapper" id="v-763" stroke-width="10" stroke-linejoin="round" d="M 2829 457.04 L 3519 820.2"></path><path fill="none" pointer-events="none" joint-selector="line" id="v-762" stroke="#444444" stroke-width="2" stroke-linejoin="round" stroke-dasharray="8 8" d="M 2829 457.04 L 3519 820.2" marker-end="url(#v-21252848929)"></path><g id="v-752" ><g id="v-753"  label-idx="0" cursor="move" transform="matrix(1,0,0,1,3117.8251953125,595.6541137695312)" style="cursor: default;"><rect joint-selector="rect" id="v-757" fill="#ffffff" rx="3" ry="3" x="-81.90103912353516" y="-58.22222137451172" width="164.3303680419922" height="114.17778015136719" pointer-events="none"  style="display: block;"></rect><text joint-selector="text" id="v-756" font-size="24px" xml:space="preserve" fill="#444444" text-anchor="middle" pointer-events="none" font-family="Tahoma, Verdana, Helvetica, Arial" font-weight="normal"  style="display: block;"><tspan dy="-1.4999999999999998em" >CQS command</tspan><tspan dy="1.2em" x="0" >interface for</tspan><tspan dy="1.2em" x="0" >S3Object</tspan><tspan dy="1.2em" x="0" >persistence</tspan></text></g><g id="v-754"  label-idx="1" cursor="move" transform="matrix(1,0,0,1,3117.8251953125,669.254150390625)" style="cursor: default;"><rect joint-selector="rect" id="v-759" fill="#ffffff" rx="3" ry="3" x="-64.2578125" y="-8.848888397216797" width="129.4069061279297" height="16.66666603088379"  pointer-events="none" style="display: block;"></rect><text joint-selector="text" id="v-758" font-size="16.799999999999997px" xml:space="preserve" fill="#444444" text-anchor="middle" pointer-events="none" font-family="Tahoma, Verdana, Helvetica, Arial" font-weight="normal"  style="display: block;"><tspan dy="0.3em" >[Implemented by]</tspan></text></g><g id="v-755"  label-idx="2" cursor="move" transform="matrix(1,0,0,1,3164,707.219970703125)" style="cursor: default;"><rect joint-selector="rect" id="v-761" fill="#ffffff" rx="3" ry="3" x="0" y="0" width="0" height="0"  display="none"></rect><text joint-selector="text" id="v-760" fill="#000000" font-size="14" text-anchor="middle" text-vertical-anchor="middle" pointer-events="none"></text></g></g></g><!--z-index:31--><g   id="j_64"  style="opacity: 1;"><path fill="none" cursor="pointer" stroke="transparent" stroke-linecap="round" joint-selector="wrapper" id="v-781" stroke-width="10" stroke-linejoin="round" d="M 2829 1422.91 L 3519 1057.71"></path><path fill="none" pointer-events="none" joint-selector="line" id="v-780" stroke="#444444" stroke-width="2" stroke-linejoin="round" stroke-dasharray="8 8" d="M 2829 1422.91 L 3519 1057.71" marker-end="url(#v-21252848929)"></path><g id="v-770" ><g id="v-771"  label-idx="0" cursor="move" transform="matrix(1,0,0,1,3117.8251953125,1256.6419677734375)" style="cursor: default;"><rect joint-selector="rect" id="v-775" fill="#ffffff" rx="3" ry="3" x="-81.90103912353516" y="-58.22222137451172" width="164.3303680419922" height="114.17778015136719" pointer-events="none"  style="display: block;"></rect><text joint-selector="text" id="v-774" font-size="24px" xml:space="preserve" fill="#444444" text-anchor="middle" pointer-events="none" font-family="Tahoma, Verdana, Helvetica, Arial" font-weight="normal"  style="display: block;"><tspan dy="-1.4999999999999998em" >CQS command</tspan><tspan dy="1.2em" x="0" >interface for</tspan><tspan dy="1.2em" x="0" >Bucket</tspan><tspan dy="1.2em" x="0" >persistence</tspan></text></g><g id="v-772"  label-idx="1" cursor="move" transform="matrix(1,0,0,1,3117.8251953125,1330.241943359375)" style="cursor: default;"><rect joint-selector="rect" id="v-777" fill="#ffffff" rx="3" ry="3" x="-64.2578125" y="-8.848888397216797" width="129.4069061279297" height="16.66666603088379"  pointer-events="none" style="display: block;"></rect><text joint-selector="text" id="v-776" font-size="16.799999999999997px" xml:space="preserve" fill="#444444" text-anchor="middle" pointer-events="none" font-family="Tahoma, Verdana, Helvetica, Arial" font-weight="normal"  style="display: block;"><tspan dy="0.3em" >[Implemented by]</tspan></text></g><g id="v-773"  label-idx="2" cursor="move" transform="matrix(1,0,0,1,3164,1308.9100341796875)" style="cursor: default;"><rect joint-selector="rect" id="v-779" fill="#ffffff" rx="3" ry="3" x="0" y="2.2737367544323206e-13" width="0" height="0"  display="none"></rect><text joint-selector="text" id="v-778" fill="#000000" font-size="14" text-anchor="middle" text-vertical-anchor="middle" pointer-events="none"></text></g></g></g><!--z-index:32--><g   id="j_65"  style="opacity: 1;"><path fill="none" cursor="pointer" stroke="transparent" stroke-linecap="round" joint-selector="wrapper" id="v-796" stroke-width="10" stroke-linejoin="round" d="M 3969 939.39 L 4509 941.23"></path><path fill="none" pointer-events="none" joint-selector="line" id="v-795" stroke="#444444" stroke-width="2" stroke-linejoin="round" stroke-dasharray="8 8" d="M 3969 939.39 L 4509 941.23" marker-end="url(#v-21252848929)"></path><g id="v-785" ><g id="v-786"  label-idx="0" cursor="move" transform="matrix(1,0,0,1,4239,926.9099731445312)" style="cursor: default;"><rect joint-selector="rect" id="v-790" fill="#ffffff" rx="3" ry="3" x="-85.24304962158203" y="-15.022221565246582" width="172.36717224121094" height="27.77777671813965" pointer-events="none"  style="display: block;"></rect><text joint-selector="text" id="v-789" font-size="24px" xml:space="preserve" fill="#444444" text-anchor="middle" pointer-events="none" font-family="Tahoma, Verdana, Helvetica, Arial" font-weight="normal"  style="display: block;"><tspan dy="0.3em" >Implemented by</tspan></text></g><g id="v-787"  label-idx="1" cursor="move" transform="matrix(1,0,0,1,4239,957.3099975585938)" style="cursor: default;"><rect joint-selector="rect" id="v-792" fill="#ffffff" rx="3" ry="3" x="-47.96006774902344" y="-8.848888397216797" width="96.7998046875" height="16.66666603088379"  pointer-events="none" style="display: block;"></rect><text joint-selector="text" id="v-791" font-size="16.799999999999997px" xml:space="preserve" fill="#444444" text-anchor="middle" pointer-events="none" font-family="Tahoma, Verdana, Helvetica, Arial" font-weight="normal"  style="display: block;"><tspan dy="0.3em" >[Implements]</tspan></text></g><g id="v-788"  label-idx="2" cursor="move" transform="matrix(1,0,0,1,4229,965.7100219726562)" style="cursor: default;"><rect joint-selector="rect" id="v-794" fill="#ffffff" rx="3" ry="3" x="0" y="0" width="0" height="0"  display="none"></rect><text joint-selector="text" id="v-793" fill="#000000" font-size="14" text-anchor="middle" text-vertical-anchor="middle" pointer-events="none"></text></g></g></g><!--z-index:33--><g   id="j_66"  style="opacity: 1;"><path fill="none" cursor="pointer" stroke="transparent" stroke-linecap="round" joint-selector="wrapper" id="v-814" stroke-width="10" stroke-linejoin="round" d="M 699 1000.54 L 1389 1180.08"></path><path fill="none" pointer-events="none" joint-selector="line" id="v-813" stroke="#444444" stroke-width="2" stroke-linejoin="round" stroke-dasharray="8 8" d="M 699 1000.54 L 1389 1180.08" marker-end="url(#v-21252848929)"></path><g id="v-803" ><g id="v-804"  label-idx="0" cursor="move" transform="matrix(1,0,0,1,995.0982055664062,1064.1856689453125)" style="cursor: default;"><rect joint-selector="rect" id="v-808" fill="#ffffff" rx="3" ry="3" x="-85.22135162353516" y="-58.22222137451172" width="172.11099243164062" height="114.17778015136719" pointer-events="none"  style="display: block;"></rect><text joint-selector="text" id="v-807" font-size="24px" xml:space="preserve" fill="#444444" text-anchor="middle" pointer-events="none" font-family="Tahoma, Verdana, Helvetica, Arial" font-weight="normal"  style="display: block;"><tspan dy="-1.4999999999999998em" >Calls bucket</tspan><tspan dy="1.2em" x="0" >lifecycle, listing,</tspan><tspan dy="1.2em" x="0" >directory-bucket</tspan><tspan dy="1.2em" x="0" >use cases</tspan></text></g><g id="v-805"  label-idx="1" cursor="move" transform="matrix(1,0,0,1,995.0982055664062,1137.78564453125)" style="cursor: default;"><rect joint-selector="rect" id="v-810" fill="#ffffff" rx="3" ry="3" x="-70.3125" y="-8.848888397216797" width="141.48936462402344" height="16.66666603088379"  pointer-events="none" style="display: block;"></rect><text joint-selector="text" id="v-809" font-size="16.799999999999997px" xml:space="preserve" fill="#444444" text-anchor="middle" pointer-events="none" font-family="Tahoma, Verdana, Helvetica, Arial" font-weight="normal"  style="display: block;"><tspan dy="0.3em" >[Java service calls]</tspan></text></g><g id="v-806"  label-idx="2" cursor="move" transform="matrix(1,0,0,1,1034,1158.9100341796875)" style="cursor: default;"><rect joint-selector="rect" id="v-812" fill="#ffffff" rx="3" ry="3" x="0" y="0" width="0" height="0"  display="none"></rect><text joint-selector="text" id="v-811" fill="#000000" font-size="14" text-anchor="middle" text-vertical-anchor="middle" pointer-events="none"></text></g></g></g><!--z-index:34--><g   id="j_67"  style="opacity: 1;"><path fill="none" cursor="pointer" stroke="transparent" stroke-linecap="round" joint-selector="wrapper" id="v-832" stroke-width="10" stroke-linejoin="round" d="M 699 878.26 L 2379 402.36"></path><path fill="none" pointer-events="none" joint-selector="line" id="v-831" stroke="#444444" stroke-width="2" stroke-linejoin="round" stroke-dasharray="8 8" d="M 699 878.26 L 2379 402.36" marker-end="url(#v-21252848929)"></path><g id="v-821" ><g id="v-822"  label-idx="0" cursor="move" transform="matrix(1,0,0,1,1734.264404296875,571.5967407226562)" style="cursor: default;"><rect joint-selector="rect" id="v-826" fill="#ffffff" rx="3" ry="3" x="-95.8767318725586" y="-29.42222023010254" width="192.31295776367188" height="56.57777786254883" pointer-events="none"  style="display: block;"></rect><text joint-selector="text" id="v-825" font-size="24px" xml:space="preserve" fill="#444444" text-anchor="middle" pointer-events="none" font-family="Tahoma, Verdana, Helvetica, Arial" font-weight="normal"  style="display: block;"><tspan dy="-0.3em" >Calls object listing</tspan><tspan dy="1.2em" x="0" >use cases</tspan></text></g><g id="v-823"  label-idx="1" cursor="move" transform="matrix(1,0,0,1,1734.264404296875,616.396728515625)" style="cursor: default;"><rect joint-selector="rect" id="v-828" fill="#ffffff" rx="3" ry="3" x="-70.3125" y="-8.848888397216797" width="141.48936462402344" height="16.66666603088379"  pointer-events="none" style="display: block;"></rect><text joint-selector="text" id="v-827" font-size="16.799999999999997px" xml:space="preserve" fill="#444444" text-anchor="middle" pointer-events="none" font-family="Tahoma, Verdana, Helvetica, Arial" font-weight="normal"  style="display: block;"><tspan dy="0.3em" >[Java service calls]</tspan></text></g><g id="v-824"  label-idx="2" cursor="move" transform="matrix(1,0,0,1,1529,680.1099853515625)" style="cursor: default;"><rect joint-selector="rect" id="v-830" fill="#ffffff" rx="3" ry="3" x="-4.547473508864641e-13" y="0" width="0" height="0"  display="none"></rect><text joint-selector="text" id="v-829" fill="#000000" font-size="14" text-anchor="middle" text-vertical-anchor="middle" pointer-events="none"></text></g></g></g><!--z-index:35--><g   id="j_68"  style="opacity: 1;"><path fill="none" cursor="pointer" stroke="transparent" stroke-linecap="round" joint-selector="wrapper" id="v-850" stroke-width="10" stroke-linejoin="round" d="M 1839 1307.57 L 2379 1473.05"></path><path fill="none" pointer-events="none" joint-selector="line" id="v-849" stroke="#444444" stroke-width="2" stroke-linejoin="round" stroke-dasharray="8 8" d="M 1839 1307.57 L 2379 1473.05" marker-end="url(#v-21252848929)"></path><g id="v-839" ><g id="v-840"  label-idx="0" cursor="move" transform="matrix(1,0,0,1,2130.073974609375,1383.3680419921875)" style="cursor: default;"><rect joint-selector="rect" id="v-844" fill="#ffffff" rx="3" ry="3" x="-98.56770324707031" y="-58.22222137451172" width="197.13540649414062" height="114.17778015136719" pointer-events="none"  style="display: block;"></rect><text joint-selector="text" id="v-843" font-size="24px" xml:space="preserve" fill="#444444" text-anchor="middle" pointer-events="none" font-family="Tahoma, Verdana, Helvetica, Arial" font-weight="normal"  style="display: block;"><tspan dy="-1.4999999999999998em" >Persists and loads</tspan><tspan dy="1.2em" x="0" >bucket aggregates</tspan><tspan dy="1.2em" x="0" >via domain</tspan><tspan dy="1.2em" x="0" >repository port</tspan></text></g><g id="v-841"  label-idx="1" cursor="move" transform="matrix(1,0,0,1,2130.073974609375,1456.968017578125)" style="cursor: default;"><rect joint-selector="rect" id="v-846" fill="#ffffff" rx="3" ry="3" x="-83.35503387451172" y="-8.848888397216797" width="167.57667541503906" height="16.66666603088379"  pointer-events="none" style="display: block;"></rect><text joint-selector="text" id="v-845" font-size="16.799999999999997px" xml:space="preserve" fill="#444444" text-anchor="middle" pointer-events="none" font-family="Tahoma, Verdana, Helvetica, Arial" font-weight="normal"  style="display: block;"><tspan dy="0.3em" >[Repository interfaces]</tspan></text></g><g id="v-842"  label-idx="2" cursor="move" transform="matrix(1,0,0,1,2099,1458.9100341796875)" style="cursor: default;"><rect joint-selector="rect" id="v-848" fill="#ffffff" rx="3" ry="3" x="0" y="0" width="0" height="0"  display="none"></rect><text joint-selector="text" id="v-847" fill="#000000" font-size="14" text-anchor="middle" text-vertical-anchor="middle" pointer-events="none"></text></g></g></g><!--z-index:36--><g   id="j_69"  style="opacity: 1;"><path fill="none" cursor="pointer" stroke="transparent" stroke-linecap="round" joint-selector="wrapper" id="v-865" stroke-width="10" stroke-linejoin="round" d="M 1839 1170.44 L 2379 1006.8"></path><path fill="none" pointer-events="none" joint-selector="line" id="v-864" stroke="#444444" stroke-width="2" stroke-linejoin="round" stroke-dasharray="8 8" d="M 1839 1170.44 L 2379 1006.8" marker-end="url(#v-21252848929)"></path><g id="v-854" ><g id="v-855"  label-idx="0" cursor="move" transform="matrix(1,0,0,1,2130.073974609375,1068.833740234375)" style="cursor: default;"><rect joint-selector="rect" id="v-859" fill="#ffffff" rx="3" ry="3" x="-93.90190887451172" y="-115.82222747802734" width="189.44802856445312" height="229.37779235839844" pointer-events="none"  style="display: block;"></rect><text joint-selector="text" id="v-858" font-size="24px" xml:space="preserve" fill="#444444" text-anchor="middle" pointer-events="none" font-family="Tahoma, Verdana, Helvetica, Arial" font-weight="normal"  style="display: block;"><tspan dy="-3.9000000000000004em" >Creates/updates</tspan><tspan dy="1.2em" x="0" >bucket aggregate</tspan><tspan dy="1.2em" x="0" >root with</tspan><tspan dy="1.2em" x="0" >dedicated with*</tspan><tspan dy="1.2em" x="0" >config methods</tspan><tspan dy="1.2em" x="0" >(emits specific</tspan><tspan dy="1.2em" x="0" >ObjectStoreEvent</tspan><tspan dy="1.2em" x="0" >subtypes)</tspan></text></g><g id="v-856"  label-idx="1" cursor="move" transform="matrix(1,0,0,1,2130.073974609375,1200.0338134765625)" style="cursor: default;"><rect joint-selector="rect" id="v-861" fill="#ffffff" rx="3" ry="3" x="-41.449649810791016" y="-8.848888397216797" width="83.76841735839844" height="16.66666603088379"  pointer-events="none" style="display: block;"></rect><text joint-selector="text" id="v-860" font-size="16.799999999999997px" xml:space="preserve" fill="#444444" text-anchor="middle" pointer-events="none" font-family="Tahoma, Verdana, Helvetica, Arial" font-weight="normal"  style="display: block;"><tspan dy="0.3em" >[Java calls]</tspan></text></g><g id="v-857"  label-idx="2" cursor="move" transform="matrix(1,0,0,1,2099,1214.8199462890625)" style="cursor: default;"><rect joint-selector="rect" id="v-863" fill="#ffffff" rx="3" ry="3" x="0" y="0" width="0" height="0"  display="none"></rect><text joint-selector="text" id="v-862" fill="#000000" font-size="14" text-anchor="middle" text-vertical-anchor="middle" pointer-events="none"></text></g></g></g><!--z-index:37--><!--z-index:38--><!--z-index:39--><!--z-index:40--><!--z-index:41--><!--z-index:42--><!--z-index:43--><!--z-index:44--><!--z-index:45--><!--z-index:46--><!--z-index:47--><!--z-index:48--><!--z-index:49--><!--z-index:50--><!--z-index:51--><!--z-index:52--><!--z-index:53--><!--z-index:54--><!--z-index:55--><!--z-index:56--><!--z-index:57--><!--z-index:58--><!--z-index:59--><!--z-index:60--><!--z-index:61--><!--z-index:62--><!--z-index:63--><!--z-index:64--><!--z-index:65--><!--z-index:66--><!--z-index:67--><!--z-index:68--><!--z-index:69--><!--z-index:70--><!--z-index:71--><!--z-index:72--><!--z-index:73--><!--z-index:74--><!--z-index:75--></g><g  style="user-select: none;"></g><g ></g><g  display="none"></g></g></svg>