<svg xmlns="http://www.w3.org/2000/svg" xmlns:xlink="http://www.w3.org/1999/xlink" version="1.1" width="3230" height="4058" style="width: 3230px; height: 4058px; background: #ffffff" viewBox="0 0 3230 4058"><style id="v-3" type="text/css">        .joint-element .scalable * {            vector-effect: non-scaling-stroke;        }    </style><defs joint-selector="defs"><marker id="v-21252848929" orient="auto" overflow="visible" markerUnits="userSpaceOnUse"><path id="v-52" stroke="#444444" fill="#444444" transform="rotate(180)" d="M 20 -10 0 0 20 10 Z"></path></marker></defs><g joint-selector="layers"  transform="matrix(1,0,0,1,0,0)"><g  style="pointer-events: none;"></g><g ></g><g  style="user-select: none;"><!--z-index:0--><!--z-index:1--><!--z-index:2--><!--z-index:3--><!--z-index:4--><!--z-index:5--><!--z-index:6--><!--z-index:7--><!--z-index:8--><!--z-index:9--><!--z-index:10--><!--z-index:11--><!--z-index:12--><!--z-index:13--><!--z-index:14--><!--z-index:15--><!--z-index:16--><!--z-index:17--><!--z-index:18--><!--z-index:19--><!--z-index:20--><!--z-index:21--><!--z-index:22--><!--z-index:23--><!--z-index:24--><!--z-index:25--><g   id="j_116"  transform="translate(20,4014)"><g id="v-1463"><text  id="v-1464" font-size="24px" xml:space="preserve" y="0.8em" font-weight="normal" text-anchor="start" fill="#444444" pointer-events="none" display="block" font-family="Tahoma, Verdana, Helvetica, Arial"><tspan dy="0" >mercoledì 27 maggio 2026 alle ore 15:59 Ora legale dell’Europa centrale</tspan></text></g></g><!--z-index:26--><g   id="j_115"  transform="translate(20,3980)"><g id="v-1461"><text  id="v-1462" font-size="24px" xml:space="preserve" y="0.8em" font-weight="normal" text-anchor="start" fill="#444444" pointer-events="none" display="block" font-family="Tahoma, Verdana, Helvetica, Arial"><tspan dy="0" >Command/Query repository interfaces for bucket, S3Object and multipart upload aggregates.</tspan></text></g></g><!--z-index:27--><g   id="j_114"  transform="translate(20,3934)"><g id="v-1459"><text  id="v-1460" font-size="36px" xml:space="preserve" y="0.8em" font-weight="normal" text-anchor="start" fill="#444444" pointer-events="none" display="block" font-family="Tahoma, Verdana, Helvetica, Arial"><tspan dy="0" >C3 Component: reactive-repository-application</tspan></text></g></g><!--z-index:28--><g   id="j_118"  transform="translate(199,142)" style="; opacity: 1;"><g id="v-1481"><rect  id="v-1482" width="2830" height="3658" rx="20" ry="20" stroke-width="2" pointer-events="none" stroke="#0f5eaa" fill="#ffffff" opacity="1" stroke-dasharray=""></rect><text  id="v-1483" font-size="33.599999999999994px" xml:space="preserve" y="3619" font-weight="bold" text-anchor="start" pointer-events="visible" font-family="Tahoma, Verdana, Helvetica, Arial" fill="#1168bd" transform="matrix(1,0,0,1,15,0)"><tspan dy="0" >Magrathea ObjectStore</tspan></text><text  id="v-1484" font-size="16.799999999999997px" xml:space="preserve" y="3643" font-weight="normal" text-anchor="start" pointer-events="visible" font-family="Tahoma, Verdana, Helvetica, Arial" fill="#1168bd" transform="matrix(1,0,0,1,15,0)"><tspan dy="0" >[Software System]</tspan></text><image  id="v-1485" pointer-events="visible"></image></g></g><!--z-index:29--><g   id="j_117"  transform="translate(249,2342)" style=""><g  id="v-1474" style="opacity: 1;"><rect  id="v-1475" rx="20" ry="20" stroke-width="2" pointer-events="visiblePainted" fill="#438dd5" stroke="#3c7fc0" stroke-dasharray="" width="450" height="300" style="fill: rgb(67, 141, 213); stroke: rgb(60, 127, 192);"></rect><text  id="v-1476" font-size="33.599999999999994px" xml:space="preserve" y="-23.97999999999999" font-weight="bold" text-anchor="middle" pointer-events="visible" font-family="Tahoma, Verdana, Helvetica, Arial" fill="#ffffff" dominant-baseline="hanging" transform="matrix(1,0,0,1,225,0)" style="fill: rgb(255, 255, 255);"><tspan dy="0" >reactive-object-store</tspan></text><text  id="v-1477" font-size="16.799999999999997px" xml:space="preserve" y="17.620000000000005" text-anchor="middle" font-family="Tahoma, Verdana, Helvetica, Arial" fill="#ffffff" dominant-baseline="hanging" transform="matrix(1,0,0,1,225,0)" style="display: block; fill: rgb(255, 255, 255);"><tspan dy="0" >[Container: Java 21 reactive application/domain</tspan><tspan dy="1.2em" x="0" >services]</tspan></text><text  id="v-1478" font-size="24px" xml:space="preserve" y="69.58" text-anchor="middle" font-family="Tahoma, Verdana, Helvetica, Arial" fill="#ffffff" dominant-baseline="hanging" transform="matrix(1,0,0,1,225,0)" style="display: block; fill: rgb(255, 255, 255);"><tspan dy="0" >Reactive object storage capability:</tspan><tspan dy="1.2em" x="0" >object upload, download, metadata</tspan><tspan dy="1.2em" x="0" >lookup, deletion, multipart object</tspan><tspan dy="1.2em" x="0" >workflows, Phase F advanced</tspan><tspan dy="1.2em" x="0" >operations (legal hold, retention,</tspan><tspan dy="1.2em" x="0" >torrent, restore, select, Object</tspan><tspan dy="1.2em" x="0" >Lambda, encryption update) using</tspan><tspan dy="1.2em" x="0" >reactive services and domain</tspan><tspan dy="1.2em" x="0" >aggregates.</tspan></text><g  id="v-1479" color="#ffffff" transform="matrix(1,0,0,1,210,268)" display="none" style="fill: rgb(255, 255, 255);"><g  transform="translate(5 0)"><svg xmlns="http://www.w3.org/2000/svg" width="20" height="20" fill="currentColor" viewBox="0 0 16 16"><path fill-rule="evenodd" d="M6.5 12a5.5 5.5 0 1 0 0-11 5.5 5.5 0 0 0 0 11zM13 6.5a6.5 6.5 0 1 1-13 0 6.5 6.5 0 0 1 13 0z"></path><path d="M10.344 11.742c.03.04.062.078.098.115l3.85 3.85a1 1 0 0 0 1.415-1.414l-3.85-3.85a1.007 1.007 0 0 0-.115-.1 6.538 6.538 0 0 1-1.398 1.4z"></path><path fill-rule="evenodd" d="M6.5 3a.5.5 0 0 1 .5.5V6h2.5a.5.5 0 0 1 0 1H7v2.5a.5.5 0 0 1-1 0V7H3.5a.5.5 0 0 1 0-1H6V3.5a.5.5 0 0 1 .5-.5z"></path></svg></g><g ></g><g ></g><g ></g></g><image  id="v-1480"></image></g></g><!--z-index:30--><g   id="j_119"  transform="translate(249,542)" style=""><g  id="v-1495" style="opacity: 1;"><rect  id="v-1496" rx="20" ry="20" stroke-width="2" pointer-events="visiblePainted" fill="#438dd5" stroke="#3c7fc0" stroke-dasharray="" width="450" height="300" style="fill: rgb(67, 141, 213); stroke: rgb(60, 127, 192);"></rect><text  id="v-1497" font-size="33.599999999999994px" xml:space="preserve" y="-15.339999999999975" font-weight="bold" text-anchor="middle" pointer-events="visible" font-family="Tahoma, Verdana, Helvetica, Arial" fill="#ffffff" dominant-baseline="hanging" transform="matrix(1,0,0,1,225,0)" style="fill: rgb(255, 255, 255);"><tspan dy="0" >reactive-</tspan><tspan dy="1.2em" x="0" >bucket-management</tspan></text><text  id="v-1498" font-size="16.799999999999997px" xml:space="preserve" y="66.58000000000001" text-anchor="middle" font-family="Tahoma, Verdana, Helvetica, Arial" fill="#ffffff" dominant-baseline="hanging" transform="matrix(1,0,0,1,225,0)" style="display: block; fill: rgb(255, 255, 255);"><tspan dy="0" >[Container: Java 21 reactive application/domain</tspan><tspan dy="1.2em" x="0" >services]</tspan></text><text  id="v-1499" font-size="24px" xml:space="preserve" y="118.54000000000002" text-anchor="middle" font-family="Tahoma, Verdana, Helvetica, Arial" fill="#ffffff" dominant-baseline="hanging" transform="matrix(1,0,0,1,225,0)" style="display: block; fill: rgb(255, 255, 255);"><tspan dy="0" >Reactive bucket management</tspan><tspan dy="1.2em" x="0" >capability: bucket lifecycle,</tspan><tspan dy="1.2em" x="0" >metadata, configuration,</tspan><tspan dy="1.2em" x="0" >CORS/versioning, bucket-level</tspan><tspan dy="1.2em" x="0" >operations, and Phase F advanced</tspan><tspan dy="1.2em" x="0" >bucket config (ABAC, object lock,</tspan><tspan dy="1.2em" x="0" >metadata config, table config).</tspan></text><g  id="v-1500" color="#ffffff" transform="matrix(1,0,0,1,210,268)" display="none" style="fill: rgb(255, 255, 255);"><g  transform="translate(5 0)"><svg xmlns="http://www.w3.org/2000/svg" width="20" height="20" fill="currentColor" viewBox="0 0 16 16"><path fill-rule="evenodd" d="M6.5 12a5.5 5.5 0 1 0 0-11 5.5 5.5 0 0 0 0 11zM13 6.5a6.5 6.5 0 1 1-13 0 6.5 6.5 0 0 1 13 0z"></path><path d="M10.344 11.742c.03.04.062.078.098.115l3.85 3.85a1 1 0 0 0 1.415-1.414l-3.85-3.85a1.007 1.007 0 0 0-.115-.1 6.538 6.538 0 0 1-1.398 1.4z"></path><path fill-rule="evenodd" d="M6.5 3a.5.5 0 0 1 .5.5V6h2.5a.5.5 0 0 1 0 1H7v2.5a.5.5 0 0 1-1 0V7H3.5a.5.5 0 0 1 0-1H6V3.5a.5.5 0 0 1 .5-.5z"></path></svg></g><g ></g><g ></g><g ></g></g><image  id="v-1501"></image></g></g><!--z-index:31--><g   id="j_121"  transform="translate(1339,192)" style="; opacity: 1;"><g id="v-1518"><rect  id="v-1519" width="550" height="3479" rx="20" ry="20" stroke-width="2" pointer-events="none" stroke="#3c7fc0" fill="#ffffff" opacity="1" stroke-dasharray=""></rect><text  id="v-1520" font-size="33.599999999999994px" xml:space="preserve" y="3440" font-weight="bold" text-anchor="start" pointer-events="visible" font-family="Tahoma, Verdana, Helvetica, Arial" fill="#438dd5" transform="matrix(1,0,0,1,15,0)"><tspan dy="0" >reactive-repository-application</tspan></text><text  id="v-1521" font-size="16.799999999999997px" xml:space="preserve" y="3464" font-weight="normal" text-anchor="start" pointer-events="visible" font-family="Tahoma, Verdana, Helvetica, Arial" fill="#438dd5" transform="matrix(1,0,0,1,15,0)"><tspan dy="0" >[Container]</tspan></text><image  id="v-1522" pointer-events="visible"></image></g></g><!--z-index:32--><g   id="j_127"  transform="translate(2529,1742)" style=""><g  id="v-1612" style="opacity: 1;"><path  d="M 0,30 a 225,30 0,0,0 450 0 a 225,30 0,0,0 -450 0 l 0,240 a 225,30 0,0,0 450 0 l 0,-240" id="v-1613" stroke-width="2" pointer-events="visiblePainted" fill="#438dd5" stroke="#3c7fc0" stroke-dasharray="" style="fill: rgb(67, 141, 213); stroke: rgb(60, 127, 192);"></path><rect  id="v-1614" stroke-width="0" pointer-events="visiblePainted" fill="none" stroke="none" width="450" height="270" x="0" y="30"></rect><text  id="v-1615" font-size="33.599999999999994px" xml:space="preserve" y="58.70000000000002" font-weight="bold" text-anchor="middle" pointer-events="visible" font-family="Tahoma, Verdana, Helvetica, Arial" fill="#ffffff" dominant-baseline="hanging" transform="matrix(1,0,0,1,225,0)" style="fill: rgb(255, 255, 255);"><tspan dy="0" >reactive-infrastructure</tspan></text><text  id="v-1616" font-size="16.799999999999997px" xml:space="preserve" y="100.30000000000001" text-anchor="middle" font-family="Tahoma, Verdana, Helvetica, Arial" fill="#ffffff" dominant-baseline="hanging" transform="matrix(1,0,0,1,225,0)" style="display: block; fill: rgb(255, 255, 255);"><tspan dy="0" >[Container: Java 21, Reactor, ConcurrentHashMap]</tspan></text><text  id="v-1617" font-size="24px" xml:space="preserve" y="132.10000000000002" text-anchor="middle" font-family="Tahoma, Verdana, Helvetica, Arial" fill="#ffffff" dominant-baseline="hanging" transform="matrix(1,0,0,1,225,0)" style="display: block; fill: rgb(255, 255, 255);"><tspan dy="0" >Reactive in-memory persistence: In</tspan><tspan dy="1.2em" x="0" >MemoryReactiveBucketRepository, I</tspan><tspan dy="1.2em" x="0" >nMemoryReactiveS3ObjectReposito</tspan><tspan dy="1.2em" x="0" >ry, InMemoryReactiveMultipartUploa</tspan><tspan dy="1.2em" x="0" >dRepository.</tspan></text><g  id="v-1618" font-weight="normal" text-anchor="middle" color="#ffffff" transform="matrix(1,0,0,1,210,268)" display="none" style="fill: rgb(255, 255, 255);"><g  transform="translate(5 0)"><svg xmlns="http://www.w3.org/2000/svg" width="20" height="20" fill="currentColor" viewBox="0 0 16 16"><path fill-rule="evenodd" d="M6.5 12a5.5 5.5 0 1 0 0-11 5.5 5.5 0 0 0 0 11zM13 6.5a6.5 6.5 0 1 1-13 0 6.5 6.5 0 0 1 13 0z"></path><path d="M10.344 11.742c.03.04.062.078.098.115l3.85 3.85a1 1 0 0 0 1.415-1.414l-3.85-3.85a1.007 1.007 0 0 0-.115-.1 6.538 6.538 0 0 1-1.398 1.4z"></path><path fill-rule="evenodd" d="M6.5 3a.5.5 0 0 1 .5.5V6h2.5a.5.5 0 0 1 0 1H7v2.5a.5.5 0 0 1-1 0V7H3.5a.5.5 0 0 1 0-1H6V3.5a.5.5 0 0 1 .5-.5z"></path></svg></g><g ></g><g ></g><g ></g></g><image  id="v-1619"></image></g></g><!--z-index:33--><g   id="j_120"  transform="translate(1389,242)" style=""><g  id="v-1511" style="opacity: 1;"><rect  id="v-1512" rx="20" ry="20" stroke-width="2" pointer-events="visiblePainted" fill="#85bbf0" stroke="#78a8d8" stroke-dasharray="" width="450" height="300" style="fill: rgb(133, 187, 240); stroke: rgb(120, 168, 216);"></rect><text  id="v-1513" font-size="33.599999999999994px" xml:space="preserve" y="66.74000000000001" font-weight="bold" text-anchor="middle" pointer-events="visible" font-family="Tahoma, Verdana, Helvetica, Arial" fill="#000000" dominant-baseline="hanging" transform="matrix(1,0,0,1,225,0)" style="fill: rgb(0, 0, 0);"><tspan dy="0" >BucketCommandReposit</tspan><tspan dy="1.2em" x="0" >ory</tspan></text><text  id="v-1514" font-size="16.799999999999997px" xml:space="preserve" y="148.66" text-anchor="middle" font-family="Tahoma, Verdana, Helvetica, Arial" fill="#000000" dominant-baseline="hanging" transform="matrix(1,0,0,1,225,0)" style="display: block; fill: rgb(0, 0, 0);"><tspan dy="0" >[Component: CQS command interface]</tspan></text><text  id="v-1515" font-size="24px" xml:space="preserve" y="180.45999999999998" text-anchor="middle" font-family="Tahoma, Verdana, Helvetica, Arial" fill="#000000" dominant-baseline="hanging" transform="matrix(1,0,0,1,225,0)" style="display: block; fill: rgb(0, 0, 0);"><tspan dy="0" >Write-side repository interface for</tspan><tspan dy="1.2em" x="0" >bucket aggregate persistence.</tspan></text><g  id="v-1516" color="#000000" transform="matrix(1,0,0,1,222.5,268)" display="none" style="fill: rgb(0, 0, 0);"><g ></g><g ></g><g ></g><g ></g></g><image  id="v-1517"></image></g></g><!--z-index:34--><g   id="j_122"  transform="translate(1389,842)" style=""><g  id="v-1532" style="opacity: 1;"><rect  id="v-1533" rx="20" ry="20" stroke-width="2" pointer-events="visiblePainted" fill="#85bbf0" stroke="#78a8d8" stroke-dasharray="" width="450" height="300" style="fill: rgb(133, 187, 240); stroke: rgb(120, 168, 216);"></rect><text  id="v-1534" font-size="33.599999999999994px" xml:space="preserve" y="86.9" font-weight="bold" text-anchor="middle" pointer-events="visible" font-family="Tahoma, Verdana, Helvetica, Arial" fill="#000000" dominant-baseline="hanging" transform="matrix(1,0,0,1,225,0)" style="fill: rgb(0, 0, 0);"><tspan dy="0" >BucketQueryRepository</tspan></text><text  id="v-1535" font-size="16.799999999999997px" xml:space="preserve" y="128.5" text-anchor="middle" font-family="Tahoma, Verdana, Helvetica, Arial" fill="#000000" dominant-baseline="hanging" transform="matrix(1,0,0,1,225,0)" style="display: block; fill: rgb(0, 0, 0);"><tspan dy="0" >[Component: CQS query interface]</tspan></text><text  id="v-1536" font-size="24px" xml:space="preserve" y="160.3" text-anchor="middle" font-family="Tahoma, Verdana, Helvetica, Arial" fill="#000000" dominant-baseline="hanging" transform="matrix(1,0,0,1,225,0)" style="display: block; fill: rgb(0, 0, 0);"><tspan dy="0" >Read-side repository interface for</tspan><tspan dy="1.2em" x="0" >bucket aggregate queries.</tspan></text><g  id="v-1537" color="#000000" transform="matrix(1,0,0,1,222.5,268)" display="none" style="fill: rgb(0, 0, 0);"><g ></g><g ></g><g ></g><g ></g></g><image  id="v-1538"></image></g></g><!--z-index:35--><g   id="j_123"  transform="translate(1389,1442)" style=""><g  id="v-1548" style="opacity: 1;"><rect  id="v-1549" rx="20" ry="20" stroke-width="2" pointer-events="visiblePainted" fill="#85bbf0" stroke="#78a8d8" stroke-dasharray="" width="450" height="300" style="fill: rgb(133, 187, 240); stroke: rgb(120, 168, 216);"></rect><text  id="v-1550" font-size="33.599999999999994px" xml:space="preserve" y="37.94000000000001" font-weight="bold" text-anchor="middle" pointer-events="visible" font-family="Tahoma, Verdana, Helvetica, Arial" fill="#000000" dominant-baseline="hanging" transform="matrix(1,0,0,1,225,0)" style="fill: rgb(0, 0, 0);"><tspan dy="0" >S3ObjectCommandRepo</tspan><tspan dy="1.2em" x="0" >sitory</tspan></text><text  id="v-1551" font-size="16.799999999999997px" xml:space="preserve" y="119.86" text-anchor="middle" font-family="Tahoma, Verdana, Helvetica, Arial" fill="#000000" dominant-baseline="hanging" transform="matrix(1,0,0,1,225,0)" style="display: block; fill: rgb(0, 0, 0);"><tspan dy="0" >[Component: CQS command interface]</tspan></text><text  id="v-1552" font-size="24px" xml:space="preserve" y="151.66" text-anchor="middle" font-family="Tahoma, Verdana, Helvetica, Arial" fill="#000000" dominant-baseline="hanging" transform="matrix(1,0,0,1,225,0)" style="display: block; fill: rgb(0, 0, 0);"><tspan dy="0" >Write-side repository interface for</tspan><tspan dy="1.2em" x="0" >S3Object aggregate persistence</tspan><tspan dy="1.2em" x="0" >(including legal hold, retention,</tspan><tspan dy="1.2em" x="0" >restore, select data).</tspan></text><g  id="v-1553" color="#000000" transform="matrix(1,0,0,1,222.5,268)" display="none" style="fill: rgb(0, 0, 0);"><g ></g><g ></g><g ></g><g ></g></g><image  id="v-1554"></image></g></g><!--z-index:36--><g   id="j_124"  transform="translate(1389,2042)" style=""><g  id="v-1564" style="opacity: 1;"><rect  id="v-1565" rx="20" ry="20" stroke-width="2" pointer-events="visiblePainted" fill="#85bbf0" stroke="#78a8d8" stroke-dasharray="" width="450" height="300" style="fill: rgb(133, 187, 240); stroke: rgb(120, 168, 216);"></rect><text  id="v-1566" font-size="33.599999999999994px" xml:space="preserve" y="66.74000000000001" font-weight="bold" text-anchor="middle" pointer-events="visible" font-family="Tahoma, Verdana, Helvetica, Arial" fill="#000000" dominant-baseline="hanging" transform="matrix(1,0,0,1,225,0)" style="fill: rgb(0, 0, 0);"><tspan dy="0" >S3ObjectQueryRepositor</tspan><tspan dy="1.2em" x="0" >y</tspan></text><text  id="v-1567" font-size="16.799999999999997px" xml:space="preserve" y="148.66" text-anchor="middle" font-family="Tahoma, Verdana, Helvetica, Arial" fill="#000000" dominant-baseline="hanging" transform="matrix(1,0,0,1,225,0)" style="display: block; fill: rgb(0, 0, 0);"><tspan dy="0" >[Component: CQS query interface]</tspan></text><text  id="v-1568" font-size="24px" xml:space="preserve" y="180.45999999999998" text-anchor="middle" font-family="Tahoma, Verdana, Helvetica, Arial" fill="#000000" dominant-baseline="hanging" transform="matrix(1,0,0,1,225,0)" style="display: block; fill: rgb(0, 0, 0);"><tspan dy="0" >Read-side repository interface for</tspan><tspan dy="1.2em" x="0" >S3Object aggregate queries.</tspan></text><g  id="v-1569" color="#000000" transform="matrix(1,0,0,1,222.5,268)" display="none" style="fill: rgb(0, 0, 0);"><g ></g><g ></g><g ></g><g ></g></g><image  id="v-1570"></image></g></g><!--z-index:37--><g   id="j_125"  transform="translate(1389,2642)" style=""><g  id="v-1580" style="opacity: 1;"><rect  id="v-1581" rx="20" ry="20" stroke-width="2" pointer-events="visiblePainted" fill="#85bbf0" stroke="#78a8d8" stroke-dasharray="" width="450" height="300" style="fill: rgb(133, 187, 240); stroke: rgb(120, 168, 216);"></rect><text  id="v-1582" font-size="33.599999999999994px" xml:space="preserve" y="52.34" font-weight="bold" text-anchor="middle" pointer-events="visible" font-family="Tahoma, Verdana, Helvetica, Arial" fill="#000000" dominant-baseline="hanging" transform="matrix(1,0,0,1,225,0)" style="fill: rgb(0, 0, 0);"><tspan dy="0" >MultipartUploadComman</tspan><tspan dy="1.2em" x="0" >dRepository</tspan></text><text  id="v-1583" font-size="16.799999999999997px" xml:space="preserve" y="134.26" text-anchor="middle" font-family="Tahoma, Verdana, Helvetica, Arial" fill="#000000" dominant-baseline="hanging" transform="matrix(1,0,0,1,225,0)" style="display: block; fill: rgb(0, 0, 0);"><tspan dy="0" >[Component: CQS command interface]</tspan></text><text  id="v-1584" font-size="24px" xml:space="preserve" y="166.06" text-anchor="middle" font-family="Tahoma, Verdana, Helvetica, Arial" fill="#000000" dominant-baseline="hanging" transform="matrix(1,0,0,1,225,0)" style="display: block; fill: rgb(0, 0, 0);"><tspan dy="0" >Write-side repository interface for</tspan><tspan dy="1.2em" x="0" >MultipartUpload aggregate</tspan><tspan dy="1.2em" x="0" >persistence.</tspan></text><g  id="v-1585" color="#000000" transform="matrix(1,0,0,1,222.5,268)" display="none" style="fill: rgb(0, 0, 0);"><g ></g><g ></g><g ></g><g ></g></g><image  id="v-1586"></image></g></g><!--z-index:38--><g   id="j_126"  transform="translate(1389,3242)" style=""><g  id="v-1596" style="opacity: 1;"><rect  id="v-1597" rx="20" ry="20" stroke-width="2" pointer-events="visiblePainted" fill="#85bbf0" stroke="#78a8d8" stroke-dasharray="" width="450" height="300" style="fill: rgb(133, 187, 240); stroke: rgb(120, 168, 216);"></rect><text  id="v-1598" font-size="33.599999999999994px" xml:space="preserve" y="66.74000000000001" font-weight="bold" text-anchor="middle" pointer-events="visible" font-family="Tahoma, Verdana, Helvetica, Arial" fill="#000000" dominant-baseline="hanging" transform="matrix(1,0,0,1,225,0)" style="fill: rgb(0, 0, 0);"><tspan dy="0" >MultipartUploadQueryRep</tspan><tspan dy="1.2em" x="0" >ository</tspan></text><text  id="v-1599" font-size="16.799999999999997px" xml:space="preserve" y="148.66" text-anchor="middle" font-family="Tahoma, Verdana, Helvetica, Arial" fill="#000000" dominant-baseline="hanging" transform="matrix(1,0,0,1,225,0)" style="display: block; fill: rgb(0, 0, 0);"><tspan dy="0" >[Component: CQS query interface]</tspan></text><text  id="v-1600" font-size="24px" xml:space="preserve" y="180.45999999999998" text-anchor="middle" font-family="Tahoma, Verdana, Helvetica, Arial" fill="#000000" dominant-baseline="hanging" transform="matrix(1,0,0,1,225,0)" style="display: block; fill: rgb(0, 0, 0);"><tspan dy="0" >Read-side repository interface for</tspan><tspan dy="1.2em" x="0" >MultipartUpload aggregate queries.</tspan></text><g  id="v-1601" color="#000000" transform="matrix(1,0,0,1,222.5,268)" display="none" style="fill: rgb(0, 0, 0);"><g ></g><g ></g><g ></g><g ></g></g><image  id="v-1602"></image></g></g><!--z-index:39--><g   id="j_128"  style="opacity: 1;"><path fill="none" cursor="pointer" stroke="transparent" stroke-linecap="round" joint-selector="wrapper" id="v-1637" stroke-width="10" stroke-linejoin="round" d="M 698.69 2311.9 L 1423.28 1742"></path><path fill="none" pointer-events="none" joint-selector="line" id="v-1636" stroke="#444444" stroke-width="2" stroke-linejoin="round" stroke-dasharray="8 8" d="M 698.69 2311.9 L 1423.28 1742" marker-end="url(#v-21252848929)"></path><g id="v-1626" ><g id="v-1627"  label-idx="0" cursor="move" transform="matrix(1,0,0,1,1184.7698974609375,1916.1915283203125)" style="cursor: default;"><rect joint-selector="rect" id="v-1631" fill="#ffffff" rx="3" ry="3" x="-81.90103912353516" y="-58.22222137451172" width="164.3303680419922" height="114.17778015136719" pointer-events="none"  style="display: block;"></rect><text joint-selector="text" id="v-1630" font-size="24px" xml:space="preserve" fill="#444444" text-anchor="middle" pointer-events="none" font-family="Tahoma, Verdana, Helvetica, Arial" font-weight="normal"  style="display: block;"><tspan dy="-1.4999999999999998em" >CQS command</tspan><tspan dy="1.2em" x="0" >interface for</tspan><tspan dy="1.2em" x="0" >S3Object</tspan><tspan dy="1.2em" x="0" >persistence</tspan></text></g><g id="v-1628"  label-idx="1" cursor="move" transform="matrix(1,0,0,1,1184.7698974609375,1989.79150390625)" style="cursor: default;"><rect joint-selector="rect" id="v-1633" fill="#ffffff" rx="3" ry="3" x="-64.2578125" y="-8.848888397216797" width="129.4069061279297" height="16.66666603088379"  pointer-events="none" style="display: block;"></rect><text joint-selector="text" id="v-1632" font-size="16.799999999999997px" xml:space="preserve" fill="#444444" text-anchor="middle" pointer-events="none" font-family="Tahoma, Verdana, Helvetica, Arial" font-weight="normal"  style="display: block;"><tspan dy="0.3em" >[Implemented by]</tspan></text></g><g id="v-1629"  label-idx="2" cursor="move" transform="matrix(1,0,0,1,1050.9849853515625,2095.550048828125)" style="cursor: default;"><rect joint-selector="rect" id="v-1635" fill="#ffffff" rx="3" ry="3" x="0" y="0" width="0" height="0"  display="none"></rect><text joint-selector="text" id="v-1634" fill="#000000" font-size="14" text-anchor="middle" text-vertical-anchor="middle" pointer-events="none"></text></g></g></g><!--z-index:40--><g   id="j_129"  style="opacity: 1;"><path fill="none" cursor="pointer" stroke="transparent" stroke-linecap="round" joint-selector="wrapper" id="v-1655" stroke-width="10" stroke-linejoin="round" d="M 699 2430.08 L 1389 2250.54"></path><path fill="none" pointer-events="none" joint-selector="line" id="v-1654" stroke="#444444" stroke-width="2" stroke-linejoin="round" stroke-dasharray="8 8" d="M 699 2430.08 L 1389 2250.54" marker-end="url(#v-21252848929)"></path><g id="v-1644" ><g id="v-1645"  label-idx="0" cursor="move" transform="matrix(1,0,0,1,995.0982055664062,2339.63427734375)" style="cursor: default;"><rect joint-selector="rect" id="v-1649" fill="#ffffff" rx="3" ry="3" x="-82.57378387451172" y="-43.82221984863281" width="165.14756774902344" height="85.37777709960938" pointer-events="none"  style="display: block;"></rect><text joint-selector="text" id="v-1648" font-size="24px" xml:space="preserve" fill="#444444" text-anchor="middle" pointer-events="none" font-family="Tahoma, Verdana, Helvetica, Arial" font-weight="normal"  style="display: block;"><tspan dy="-0.8999999999999999em" >CQS query</tspan><tspan dy="1.2em" x="0" >interface for</tspan><tspan dy="1.2em" x="0" >S3Object reads</tspan></text></g><g id="v-1646"  label-idx="1" cursor="move" transform="matrix(1,0,0,1,995.0982055664062,2398.83447265625)" style="cursor: default;"><rect joint-selector="rect" id="v-1651" fill="#ffffff" rx="3" ry="3" x="-64.2578125" y="-8.848888397216797" width="129.4069061279297" height="16.66666603088379"  pointer-events="none" style="display: block;"></rect><text joint-selector="text" id="v-1650" font-size="16.799999999999997px" xml:space="preserve" fill="#444444" text-anchor="middle" pointer-events="none" font-family="Tahoma, Verdana, Helvetica, Arial" font-weight="normal"  style="display: block;"><tspan dy="0.3em" >[Implemented by]</tspan></text></g><g id="v-1647"  label-idx="2" cursor="move" transform="matrix(1,0,0,1,1034,2394.510009765625)" style="cursor: default;"><rect joint-selector="rect" id="v-1653" fill="#ffffff" rx="3" ry="3" x="0" y="0" width="0" height="0"  display="none"></rect><text joint-selector="text" id="v-1652" fill="#000000" font-size="14" text-anchor="middle" text-vertical-anchor="middle" pointer-events="none"></text></g></g></g><!--z-index:41--><g   id="j_130"  style="opacity: 1;"><path fill="none" cursor="pointer" stroke="transparent" stroke-linecap="round" joint-selector="wrapper" id="v-1673" stroke-width="10" stroke-linejoin="round" d="M 699 2548.5 L 1389 2732.12"></path><path fill="none" pointer-events="none" joint-selector="line" id="v-1672" stroke="#444444" stroke-width="2" stroke-linejoin="round" stroke-dasharray="8 8" d="M 699 2548.5 L 1389 2732.12" marker-end="url(#v-21252848929)"></path><g id="v-1662" ><g id="v-1663"  label-idx="0" cursor="move" transform="matrix(1,0,0,1,995.0982055664062,2613.896484375)" style="cursor: default;"><rect joint-selector="rect" id="v-1667" fill="#ffffff" rx="3" ry="3" x="-83.89756774902344" y="-58.22222137451172" width="168.3546142578125" height="114.17778015136719" pointer-events="none"  style="display: block;"></rect><text joint-selector="text" id="v-1666" font-size="24px" xml:space="preserve" fill="#444444" text-anchor="middle" pointer-events="none" font-family="Tahoma, Verdana, Helvetica, Arial" font-weight="normal"  style="display: block;"><tspan dy="-1.4999999999999998em" >CQS command</tspan><tspan dy="1.2em" x="0" >interface for</tspan><tspan dy="1.2em" x="0" >MultipartUpload</tspan><tspan dy="1.2em" x="0" >persistence</tspan></text></g><g id="v-1664"  label-idx="1" cursor="move" transform="matrix(1,0,0,1,995.0982055664062,2687.496337890625)" style="cursor: default;"><rect joint-selector="rect" id="v-1669" fill="#ffffff" rx="3" ry="3" x="-64.2578125" y="-8.848888397216797" width="129.4069061279297" height="16.66666603088379"  pointer-events="none" style="display: block;"></rect><text joint-selector="text" id="v-1668" font-size="16.799999999999997px" xml:space="preserve" fill="#444444" text-anchor="middle" pointer-events="none" font-family="Tahoma, Verdana, Helvetica, Arial" font-weight="normal"  style="display: block;"><tspan dy="0.3em" >[Implemented by]</tspan></text></g><g id="v-1665"  label-idx="2" cursor="move" transform="matrix(1,0,0,1,1034,2708.909912109375)" style="cursor: default;"><rect joint-selector="rect" id="v-1671" fill="#ffffff" rx="3" ry="3" x="0" y="0" width="0" height="0"  display="none"></rect><text joint-selector="text" id="v-1670" fill="#000000" font-size="14" text-anchor="middle" text-vertical-anchor="middle" pointer-events="none"></text></g></g></g><!--z-index:42--><g   id="j_131"  style="opacity: 1;"><path fill="none" cursor="pointer" stroke="transparent" stroke-linecap="round" joint-selector="wrapper" id="v-1691" stroke-width="10" stroke-linejoin="round" d="M 697 2665.33 L 1424.71 3242"></path><path fill="none" pointer-events="none" joint-selector="line" id="v-1690" stroke="#444444" stroke-width="2" stroke-linejoin="round" stroke-dasharray="8 8" d="M 697 2665.33 L 1424.71 3242" marker-end="url(#v-21252848929)"></path><g id="v-1680" ><g id="v-1681"  label-idx="0" cursor="move" transform="matrix(1,0,0,1,1185.1728515625,3038.780029296875)" style="cursor: default;"><rect joint-selector="rect" id="v-1685" fill="#ffffff" rx="3" ry="3" x="-83.89756774902344" y="-58.22222137451172" width="168.3546142578125" height="114.17778015136719" pointer-events="none"  style="display: block;"></rect><text joint-selector="text" id="v-1684" font-size="24px" xml:space="preserve" fill="#444444" text-anchor="middle" pointer-events="none" font-family="Tahoma, Verdana, Helvetica, Arial" font-weight="normal"  style="display: block;"><tspan dy="-1.4999999999999998em" >CQS query</tspan><tspan dy="1.2em" x="0" >interface for</tspan><tspan dy="1.2em" x="0" >MultipartUpload</tspan><tspan dy="1.2em" x="0" >reads</tspan></text></g><g id="v-1682"  label-idx="1" cursor="move" transform="matrix(1,0,0,1,1185.1728515625,3112.380126953125)" style="cursor: default;"><rect joint-selector="rect" id="v-1687" fill="#ffffff" rx="3" ry="3" x="-64.2578125" y="-8.848888397216797" width="129.4069061279297" height="16.66666603088379"  pointer-events="none" style="display: block;"></rect><text joint-selector="text" id="v-1686" font-size="16.799999999999997px" xml:space="preserve" fill="#444444" text-anchor="middle" pointer-events="none" font-family="Tahoma, Verdana, Helvetica, Arial" font-weight="normal"  style="display: block;"><tspan dy="0.3em" >[Implemented by]</tspan></text></g><g id="v-1683"  label-idx="2" cursor="move" transform="matrix(1,0,0,1,1050.85498046875,3022.264892578125)" style="cursor: default;"><rect joint-selector="rect" id="v-1689" fill="#ffffff" rx="3" ry="3" x="2.2737367544323206e-13" y="0" width="0" height="0"  display="none"></rect><text joint-selector="text" id="v-1688" fill="#000000" font-size="14" text-anchor="middle" text-vertical-anchor="middle" pointer-events="none"></text></g></g></g><!--z-index:43--><g   id="j_132"  style="opacity: 1;"><path fill="none" cursor="pointer" stroke="transparent" stroke-linecap="round" joint-selector="wrapper" id="v-1709" stroke-width="10" stroke-linejoin="round" d="M 699 630.08 L 1389 450.54"></path><path fill="none" pointer-events="none" joint-selector="line" id="v-1708" stroke="#444444" stroke-width="2" stroke-linejoin="round" stroke-dasharray="8 8" d="M 699 630.08 L 1389 450.54" marker-end="url(#v-21252848929)"></path><g id="v-1698" ><g id="v-1699"  label-idx="0" cursor="move" transform="matrix(1,0,0,1,995.0982055664062,539.6343994140625)" style="cursor: default;"><rect joint-selector="rect" id="v-1703" fill="#ffffff" rx="3" ry="3" x="-81.90103912353516" y="-58.22222137451172" width="164.3303680419922" height="114.17778015136719" pointer-events="none"  style="display: block;"></rect><text joint-selector="text" id="v-1702" font-size="24px" xml:space="preserve" fill="#444444" text-anchor="middle" pointer-events="none" font-family="Tahoma, Verdana, Helvetica, Arial" font-weight="normal"  style="display: block;"><tspan dy="-1.4999999999999998em" >CQS command</tspan><tspan dy="1.2em" x="0" >interface for</tspan><tspan dy="1.2em" x="0" >Bucket</tspan><tspan dy="1.2em" x="0" >persistence</tspan></text></g><g id="v-1700"  label-idx="1" cursor="move" transform="matrix(1,0,0,1,995.0982055664062,613.234375)" style="cursor: default;"><rect joint-selector="rect" id="v-1705" fill="#ffffff" rx="3" ry="3" x="-64.2578125" y="-8.848888397216797" width="129.4069061279297" height="16.66666603088379"  pointer-events="none" style="display: block;"></rect><text joint-selector="text" id="v-1704" font-size="16.799999999999997px" xml:space="preserve" fill="#444444" text-anchor="middle" pointer-events="none" font-family="Tahoma, Verdana, Helvetica, Arial" font-weight="normal"  style="display: block;"><tspan dy="0.3em" >[Implemented by]</tspan></text></g><g id="v-1701"  label-idx="2" cursor="move" transform="matrix(1,0,0,1,1034,608.9099731445312)" style="cursor: default;"><rect joint-selector="rect" id="v-1707" fill="#ffffff" rx="3" ry="3" x="0" y="0" width="0" height="0"  display="none"></rect><text joint-selector="text" id="v-1706" fill="#000000" font-size="14" text-anchor="middle" text-vertical-anchor="middle" pointer-events="none"></text></g></g></g><!--z-index:44--><g   id="j_133"  style="opacity: 1;"><path fill="none" cursor="pointer" stroke="transparent" stroke-linecap="round" joint-selector="wrapper" id="v-1727" stroke-width="10" stroke-linejoin="round" d="M 699 748.5 L 1389 932.12"></path><path fill="none" pointer-events="none" joint-selector="line" id="v-1726" stroke="#444444" stroke-width="2" stroke-linejoin="round" stroke-dasharray="8 8" d="M 699 748.5 L 1389 932.12" marker-end="url(#v-21252848929)"></path><g id="v-1716" ><g id="v-1717"  label-idx="0" cursor="move" transform="matrix(1,0,0,1,995.0982055664062,813.896484375)" style="cursor: default;"><rect joint-selector="rect" id="v-1721" fill="#ffffff" rx="3" ry="3" x="-69.921875" y="-43.82221984863281" width="139.84375" height="85.37777709960938" pointer-events="none"  style="display: block;"></rect><text joint-selector="text" id="v-1720" font-size="24px" xml:space="preserve" fill="#444444" text-anchor="middle" pointer-events="none" font-family="Tahoma, Verdana, Helvetica, Arial" font-weight="normal"  style="display: block;"><tspan dy="-0.8999999999999999em" >CQS query</tspan><tspan dy="1.2em" x="0" >interface for</tspan><tspan dy="1.2em" x="0" >Bucket reads</tspan></text></g><g id="v-1718"  label-idx="1" cursor="move" transform="matrix(1,0,0,1,995.0982055664062,873.096435546875)" style="cursor: default;"><rect joint-selector="rect" id="v-1723" fill="#ffffff" rx="3" ry="3" x="-64.2578125" y="-8.848888397216797" width="129.4069061279297" height="16.66666603088379"  pointer-events="none" style="display: block;"></rect><text joint-selector="text" id="v-1722" font-size="16.799999999999997px" xml:space="preserve" fill="#444444" text-anchor="middle" pointer-events="none" font-family="Tahoma, Verdana, Helvetica, Arial" font-weight="normal"  style="display: block;"><tspan dy="0.3em" >[Implemented by]</tspan></text></g><g id="v-1719"  label-idx="2" cursor="move" transform="matrix(1,0,0,1,1034,894.510009765625)" style="cursor: default;"><rect joint-selector="rect" id="v-1725" fill="#ffffff" rx="3" ry="3" x="0" y="0" width="0" height="0"  display="none"></rect><text joint-selector="text" id="v-1724" fill="#000000" font-size="14" text-anchor="middle" text-vertical-anchor="middle" pointer-events="none"></text></g></g></g><!--z-index:45--><g   id="j_134"  style="opacity: 1;"><path fill="none" cursor="pointer" stroke="transparent" stroke-linecap="round" joint-selector="wrapper" id="v-1742" stroke-width="10" stroke-linejoin="round" d="M 1728 542 L 2640 1742"></path><path fill="none" pointer-events="none" joint-selector="line" id="v-1741" stroke="#444444" stroke-width="2" stroke-linejoin="round" stroke-dasharray="8 8" d="M 1728 542 L 2640 1742" marker-end="url(#v-21252848929)"></path><g id="v-1731" ><g id="v-1732"  label-idx="0" cursor="move" transform="matrix(1,0,0,1,1935.9920654296875,802.2738037109375)" style="cursor: default;"><rect joint-selector="rect" id="v-1736" fill="#ffffff" rx="3" ry="3" x="-85.24304962158203" y="-15.022221565246582" width="172.36717224121094" height="27.77777671813965" pointer-events="none"  style="display: block;"></rect><text joint-selector="text" id="v-1735" font-size="24px" xml:space="preserve" fill="#444444" text-anchor="middle" pointer-events="none" font-family="Tahoma, Verdana, Helvetica, Arial" font-weight="normal"  style="display: block;"><tspan dy="0.3em" >Implemented by</tspan></text></g><g id="v-1733"  label-idx="1" cursor="move" transform="matrix(1,0,0,1,1935.9920654296875,832.673828125)" style="cursor: default;"><rect joint-selector="rect" id="v-1738" fill="#ffffff" rx="3" ry="3" x="-47.96006774902344" y="-8.848888397216797" width="96.7998046875" height="16.66666603088379"  pointer-events="none" style="display: block;"></rect><text joint-selector="text" id="v-1737" font-size="16.799999999999997px" xml:space="preserve" fill="#444444" text-anchor="middle" pointer-events="none" font-family="Tahoma, Verdana, Helvetica, Arial" font-weight="normal"  style="display: block;"><tspan dy="0.3em" >[Implements]</tspan></text></g><g id="v-1734"  label-idx="2" cursor="move" transform="matrix(1,0,0,1,2174,1167.4000244140625)" style="cursor: default;"><rect joint-selector="rect" id="v-1740" fill="#ffffff" rx="3" ry="3" x="-4.547473508864641e-13" y="0" width="0" height="0"  display="none"></rect><text joint-selector="text" id="v-1739" fill="#000000" font-size="14" text-anchor="middle" text-vertical-anchor="middle" pointer-events="none"></text></g></g></g><!--z-index:46--><g   id="j_135"  style="opacity: 1;"><path fill="none" cursor="pointer" stroke="transparent" stroke-linecap="round" joint-selector="wrapper" id="v-1757" stroke-width="10" stroke-linejoin="round" d="M 1804 1142 L 2564 1742"></path><path fill="none" pointer-events="none" joint-selector="line" id="v-1756" stroke="#444444" stroke-width="2" stroke-linejoin="round" stroke-dasharray="8 8" d="M 1804 1142 L 2564 1742" marker-end="url(#v-21252848929)"></path><g id="v-1746" ><g id="v-1747"  label-idx="0" cursor="move" transform="matrix(1,0,0,1,2054.165771484375,1326.099365234375)" style="cursor: default;"><rect joint-selector="rect" id="v-1751" fill="#ffffff" rx="3" ry="3" x="-85.24304962158203" y="-15.022221565246582" width="172.36717224121094" height="27.77777671813965" pointer-events="none"  style="display: block;"></rect><text joint-selector="text" id="v-1750" font-size="24px" xml:space="preserve" fill="#444444" text-anchor="middle" pointer-events="none" font-family="Tahoma, Verdana, Helvetica, Arial" font-weight="normal"  style="display: block;"><tspan dy="0.3em" >Implemented by</tspan></text></g><g id="v-1748"  label-idx="1" cursor="move" transform="matrix(1,0,0,1,2054.165771484375,1356.4993896484375)" style="cursor: default;"><rect joint-selector="rect" id="v-1753" fill="#ffffff" rx="3" ry="3" x="-47.96006774902344" y="-8.848888397216797" width="96.7998046875" height="16.66666603088379"  pointer-events="none" style="display: block;"></rect><text joint-selector="text" id="v-1752" font-size="16.799999999999997px" xml:space="preserve" fill="#444444" text-anchor="middle" pointer-events="none" font-family="Tahoma, Verdana, Helvetica, Arial" font-weight="normal"  style="display: block;"><tspan dy="0.3em" >[Implements]</tspan></text></g><g id="v-1749"  label-idx="2" cursor="move" transform="matrix(1,0,0,1,2174,1467.4000244140625)" style="cursor: default;"><rect joint-selector="rect" id="v-1755" fill="#ffffff" rx="3" ry="3" x="-4.547473508864641e-13" y="0" width="0" height="0"  display="none"></rect><text joint-selector="text" id="v-1754" fill="#000000" font-size="14" text-anchor="middle" text-vertical-anchor="middle" pointer-events="none"></text></g></g></g><!--z-index:47--><g   id="j_136"  style="opacity: 1;"><path fill="none" cursor="pointer" stroke="transparent" stroke-linecap="round" joint-selector="wrapper" id="v-1772" stroke-width="10" stroke-linejoin="round" d="M 1839 1651.21 L 2529 1832.79"></path><path fill="none" pointer-events="none" joint-selector="line" id="v-1771" stroke="#444444" stroke-width="2" stroke-linejoin="round" stroke-dasharray="8 8" d="M 1839 1651.21 L 2529 1832.79" marker-end="url(#v-21252848929)"></path><g id="v-1761" ><g id="v-1762"  label-idx="0" cursor="move" transform="matrix(1,0,0,1,2232.90185546875,1741.468994140625)" style="cursor: default;"><rect joint-selector="rect" id="v-1766" fill="#ffffff" rx="3" ry="3" x="-85.24304962158203" y="-15.022221565246582" width="172.36717224121094" height="27.77777671813965" pointer-events="none"  style="display: block;"></rect><text joint-selector="text" id="v-1765" font-size="24px" xml:space="preserve" fill="#444444" text-anchor="middle" pointer-events="none" font-family="Tahoma, Verdana, Helvetica, Arial" font-weight="normal"  style="display: block;"><tspan dy="0.3em" >Implemented by</tspan></text></g><g id="v-1763"  label-idx="1" cursor="move" transform="matrix(1,0,0,1,2232.90185546875,1771.8690185546875)" style="cursor: default;"><rect joint-selector="rect" id="v-1768" fill="#ffffff" rx="3" ry="3" x="-47.96006774902344" y="-8.848888397216797" width="96.7998046875" height="16.66666603088379"  pointer-events="none" style="display: block;"></rect><text joint-selector="text" id="v-1767" font-size="16.799999999999997px" xml:space="preserve" fill="#444444" text-anchor="middle" pointer-events="none" font-family="Tahoma, Verdana, Helvetica, Arial" font-weight="normal"  style="display: block;"><tspan dy="0.3em" >[Implements]</tspan></text></g><g id="v-1764"  label-idx="2" cursor="move" transform="matrix(1,0,0,1,2174,1767.4000244140625)" style="cursor: default;"><rect joint-selector="rect" id="v-1770" fill="#ffffff" rx="3" ry="3" x="-4.547473508864641e-13" y="0" width="0" height="0"  display="none"></rect><text joint-selector="text" id="v-1769" fill="#000000" font-size="14" text-anchor="middle" text-vertical-anchor="middle" pointer-events="none"></text></g></g></g><!--z-index:48--><g   id="j_137"  style="opacity: 1;"><path fill="none" cursor="pointer" stroke="transparent" stroke-linecap="round" joint-selector="wrapper" id="v-1787" stroke-width="10" stroke-linejoin="round" d="M 1839 2132.79 L 2529 1951.21"></path><path fill="none" pointer-events="none" joint-selector="line" id="v-1786" stroke="#444444" stroke-width="2" stroke-linejoin="round" stroke-dasharray="8 8" d="M 1839 2132.79 L 2529 1951.21" marker-end="url(#v-21252848929)"></path><g id="v-1776" ><g id="v-1777"  label-idx="0" cursor="move" transform="matrix(1,0,0,1,2232.90185546875,2015.7310791015625)" style="cursor: default;"><rect joint-selector="rect" id="v-1781" fill="#ffffff" rx="3" ry="3" x="-85.24304962158203" y="-15.022221565246582" width="172.36717224121094" height="27.77777671813965" pointer-events="none"  style="display: block;"></rect><text joint-selector="text" id="v-1780" font-size="24px" xml:space="preserve" fill="#444444" text-anchor="middle" pointer-events="none" font-family="Tahoma, Verdana, Helvetica, Arial" font-weight="normal"  style="display: block;"><tspan dy="0.3em" >Implemented by</tspan></text></g><g id="v-1778"  label-idx="1" cursor="move" transform="matrix(1,0,0,1,2232.90185546875,2046.1309814453125)" style="cursor: default;"><rect joint-selector="rect" id="v-1783" fill="#ffffff" rx="3" ry="3" x="-47.96006774902344" y="-8.848888397216797" width="96.7998046875" height="16.66666603088379"  pointer-events="none" style="display: block;"></rect><text joint-selector="text" id="v-1782" font-size="16.799999999999997px" xml:space="preserve" fill="#444444" text-anchor="middle" pointer-events="none" font-family="Tahoma, Verdana, Helvetica, Arial" font-weight="normal"  style="display: block;"><tspan dy="0.3em" >[Implements]</tspan></text></g><g id="v-1779"  label-idx="2" cursor="move" transform="matrix(1,0,0,1,2174,2067.39990234375)" style="cursor: default;"><rect joint-selector="rect" id="v-1785" fill="#ffffff" rx="3" ry="3" x="-4.547473508864641e-13" y="0" width="0" height="0"  display="none"></rect><text joint-selector="text" id="v-1784" fill="#000000" font-size="14" text-anchor="middle" text-vertical-anchor="middle" pointer-events="none"></text></g></g></g><!--z-index:49--><g   id="j_138"  style="opacity: 1;"><path fill="none" cursor="pointer" stroke="transparent" stroke-linecap="round" joint-selector="wrapper" id="v-1802" stroke-width="10" stroke-linejoin="round" d="M 1804 2642 L 2564 2042"></path><path fill="none" pointer-events="none" joint-selector="line" id="v-1801" stroke="#444444" stroke-width="2" stroke-linejoin="round" stroke-dasharray="8 8" d="M 1804 2642 L 2564 2042" marker-end="url(#v-21252848929)"></path><g id="v-1791" ><g id="v-1792"  label-idx="0" cursor="move" transform="matrix(1,0,0,1,2054.165771484375,2431.1005859375)" style="cursor: default;"><rect joint-selector="rect" id="v-1796" fill="#ffffff" rx="3" ry="3" x="-85.24304962158203" y="-15.022221565246582" width="172.36717224121094" height="27.77777671813965" pointer-events="none"  style="display: block;"></rect><text joint-selector="text" id="v-1795" font-size="24px" xml:space="preserve" fill="#444444" text-anchor="middle" pointer-events="none" font-family="Tahoma, Verdana, Helvetica, Arial" font-weight="normal"  style="display: block;"><tspan dy="0.3em" >Implemented by</tspan></text></g><g id="v-1793"  label-idx="1" cursor="move" transform="matrix(1,0,0,1,2054.165771484375,2461.500732421875)" style="cursor: default;"><rect joint-selector="rect" id="v-1798" fill="#ffffff" rx="3" ry="3" x="-47.96006774902344" y="-8.848888397216797" width="96.7998046875" height="16.66666603088379"  pointer-events="none" style="display: block;"></rect><text joint-selector="text" id="v-1797" font-size="16.799999999999997px" xml:space="preserve" fill="#444444" text-anchor="middle" pointer-events="none" font-family="Tahoma, Verdana, Helvetica, Arial" font-weight="normal"  style="display: block;"><tspan dy="0.3em" >[Implements]</tspan></text></g><g id="v-1794"  label-idx="2" cursor="move" transform="matrix(1,0,0,1,2174,2367.39990234375)" style="cursor: default;"><rect joint-selector="rect" id="v-1800" fill="#ffffff" rx="3" ry="3" x="-4.547473508864641e-13" y="0" width="0" height="0"  display="none"></rect><text joint-selector="text" id="v-1799" fill="#000000" font-size="14" text-anchor="middle" text-vertical-anchor="middle" pointer-events="none"></text></g></g></g><!--z-index:50--><g   id="j_139"  style="opacity: 1;"><path fill="none" cursor="pointer" stroke="transparent" stroke-linecap="round" joint-selector="wrapper" id="v-1817" stroke-width="10" stroke-linejoin="round" d="M 1728 3242 L 2640 2042"></path><path fill="none" pointer-events="none" joint-selector="line" id="v-1816" stroke="#444444" stroke-width="2" stroke-linejoin="round" stroke-dasharray="8 8" d="M 1728 3242 L 2640 2042" marker-end="url(#v-21252848929)"></path><g id="v-1806" ><g id="v-1807"  label-idx="0" cursor="move" transform="matrix(1,0,0,1,1935.9920654296875,2954.92626953125)" style="cursor: default;"><rect joint-selector="rect" id="v-1811" fill="#ffffff" rx="3" ry="3" x="-85.24304962158203" y="-15.022221565246582" width="172.36717224121094" height="27.77777671813965" pointer-events="none"  style="display: block;"></rect><text joint-selector="text" id="v-1810" font-size="24px" xml:space="preserve" fill="#444444" text-anchor="middle" pointer-events="none" font-family="Tahoma, Verdana, Helvetica, Arial" font-weight="normal"  style="display: block;"><tspan dy="0.3em" >Implemented by</tspan></text></g><g id="v-1808"  label-idx="1" cursor="move" transform="matrix(1,0,0,1,1935.9920654296875,2985.326171875)" style="cursor: default;"><rect joint-selector="rect" id="v-1813" fill="#ffffff" rx="3" ry="3" x="-47.96006774902344" y="-8.848888397216797" width="96.7998046875" height="16.66666603088379"  pointer-events="none" style="display: block;"></rect><text joint-selector="text" id="v-1812" font-size="16.799999999999997px" xml:space="preserve" fill="#444444" text-anchor="middle" pointer-events="none" font-family="Tahoma, Verdana, Helvetica, Arial" font-weight="normal"  style="display: block;"><tspan dy="0.3em" >[Implements]</tspan></text></g><g id="v-1809"  label-idx="2" cursor="move" transform="matrix(1,0,0,1,2174,2667.39990234375)" style="cursor: default;"><rect joint-selector="rect" id="v-1815" fill="#ffffff" rx="3" ry="3" x="-4.547473508864641e-13" y="0" width="0" height="0"  display="none"></rect><text joint-selector="text" id="v-1814" fill="#000000" font-size="14" text-anchor="middle" text-vertical-anchor="middle" pointer-events="none"></text></g></g></g><!--z-index:51--><!--z-index:52--><!--z-index:53--><!--z-index:54--><!--z-index:55--><!--z-index:56--><!--z-index:57--><!--z-index:58--><!--z-index:59--><!--z-index:60--><!--z-index:61--><!--z-index:62--><!--z-index:63--><!--z-index:64--><!--z-index:65--><!--z-index:66--><!--z-index:67--><!--z-index:68--><!--z-index:69--><!--z-index:70--><!--z-index:71--><!--z-index:72--><!--z-index:73--><!--z-index:74--><!--z-index:75--></g><g  style="user-select: none;"></g><g ></g><g  display="none"></g></g></svg>