<svg xmlns="http://www.w3.org/2000/svg" xmlns:xlink="http://www.w3.org/1999/xlink" version="1.1" width="2630" height="1758" style="width: 2630px; height: 1758px; background: #ffffff" viewBox="0 0 2630 1758"><style id="v-3" type="text/css">        .joint-element .scalable * {            vector-effect: non-scaling-stroke;        }    </style><defs joint-selector="defs"><marker id="v-21252848929" orient="auto" overflow="visible" markerUnits="userSpaceOnUse"><path id="v-52" stroke="#444444" fill="#444444" transform="rotate(180)" d="M 20 -10 0 0 20 10 Z"></path></marker></defs><g joint-selector="layers"  transform="matrix(1,0,0,1,0,0)"><g  style="pointer-events: none;"></g><g ></g><g  style="user-select: none;"><!--z-index:0--><!--z-index:1--><!--z-index:2--><!--z-index:3--><!--z-index:4--><!--z-index:5--><!--z-index:6--><!--z-index:7--><!--z-index:8--><!--z-index:9--><!--z-index:10--><!--z-index:11--><!--z-index:12--><!--z-index:13--><!--z-index:14--><!--z-index:15--><g   id="j_50"  transform="translate(20,1714)"><g id="v-569"><text  id="v-570" font-size="24px" xml:space="preserve" y="0.8em" font-weight="normal" text-anchor="start" fill="#444444" pointer-events="none" display="block" font-family="Tahoma, Verdana, Helvetica, Arial"><tspan dy="0" >lunedì 25 maggio 2026 alle ore 00:20 Ora legale dell’Europa centrale</tspan></text></g></g><!--z-index:16--><g   id="j_49"  transform="translate(20,1680)"><g id="v-567"><text  id="v-568" font-size="24px" xml:space="preserve" y="0.8em" font-weight="normal" text-anchor="start" fill="#444444" pointer-events="none" display="block" font-family="Tahoma, Verdana, Helvetica, Arial"><tspan dy="0" >Reactive repository adapters used by the application capabilities. Internal ConcurrentHashMap structures are intentionally not shown as C4 components.</tspan></text></g></g><!--z-index:17--><g   id="j_48"  transform="translate(20,1634)"><g id="v-565"><text  id="v-566" font-size="36px" xml:space="preserve" y="0.8em" font-weight="normal" text-anchor="start" fill="#444444" pointer-events="none" display="block" font-family="Tahoma, Verdana, Helvetica, Arial"><tspan dy="0" >C3 Component: reactive-infrastructure</tspan></text></g></g><!--z-index:18--><g   id="j_52"  transform="translate(199,142)" style="; opacity: 1;"><g id="v-587"><rect  id="v-588" width="2230" height="1358" rx="20" ry="20" stroke-width="2" pointer-events="none" stroke="#0f5eaa" fill="#ffffff" opacity="1" stroke-dasharray=""></rect><text  id="v-589" font-size="33.599999999999994px" xml:space="preserve" y="1319" font-weight="bold" text-anchor="start" pointer-events="visible" font-family="Tahoma, Verdana, Helvetica, Arial" fill="#1168bd" transform="matrix(1,0,0,1,15,0)"><tspan dy="0" >Magrathea ObjectStorage</tspan></text><text  id="v-590" font-size="16.799999999999997px" xml:space="preserve" y="1343" font-weight="normal" text-anchor="start" pointer-events="visible" font-family="Tahoma, Verdana, Helvetica, Arial" fill="#1168bd" transform="matrix(1,0,0,1,15,0)"><tspan dy="0" >[Software System]</tspan></text><image  id="v-591" pointer-events="visible"></image></g></g><!--z-index:19--><g   id="j_51"  transform="translate(249,217)" style=""><g  id="v-580" style="opacity: 1;"><rect  id="v-581" rx="20" ry="20" stroke-width="2" pointer-events="visiblePainted" fill="#438dd5" stroke="#3c7fc0" stroke-dasharray="" width="450" height="300" style="fill: rgb(67, 141, 213); stroke: rgb(60, 127, 192);"></rect><text  id="v-582" font-size="33.599999999999994px" xml:space="preserve" y="33.620000000000005" font-weight="bold" text-anchor="middle" pointer-events="visible" font-family="Tahoma, Verdana, Helvetica, Arial" fill="#ffffff" dominant-baseline="hanging" transform="matrix(1,0,0,1,225,0)" style="fill: rgb(255, 255, 255);"><tspan dy="0" >reactive-object-store</tspan></text><text  id="v-583" font-size="16.799999999999997px" xml:space="preserve" y="75.22" text-anchor="middle" font-family="Tahoma, Verdana, Helvetica, Arial" fill="#ffffff" dominant-baseline="hanging" transform="matrix(1,0,0,1,225,0)" style="display: block; fill: rgb(255, 255, 255);"><tspan dy="0" >[Container: Java 21 reactive application/domain</tspan><tspan dy="1.2em" x="0" >services]</tspan></text><text  id="v-584" font-size="24px" xml:space="preserve" y="127.17999999999999" text-anchor="middle" font-family="Tahoma, Verdana, Helvetica, Arial" fill="#ffffff" dominant-baseline="hanging" transform="matrix(1,0,0,1,225,0)" style="display: block; fill: rgb(255, 255, 255);"><tspan dy="0" >Reactive object storage capability:</tspan><tspan dy="1.2em" x="0" >object upload, download, metadata</tspan><tspan dy="1.2em" x="0" >lookup, deletion and multipart object</tspan><tspan dy="1.2em" x="0" >workflows using reactive services</tspan><tspan dy="1.2em" x="0" >and domain aggregates.</tspan></text><g  id="v-585" color="#ffffff" transform="matrix(1,0,0,1,210,268)" display="none" style="fill: rgb(255, 255, 255);"><g  transform="translate(5 0)"><svg xmlns="http://www.w3.org/2000/svg" width="20" height="20" fill="currentColor" viewBox="0 0 16 16"><path fill-rule="evenodd" d="M6.5 12a5.5 5.5 0 1 0 0-11 5.5 5.5 0 0 0 0 11zM13 6.5a6.5 6.5 0 1 1-13 0 6.5 6.5 0 0 1 13 0z"></path><path d="M10.344 11.742c.03.04.062.078.098.115l3.85 3.85a1 1 0 0 0 1.415-1.414l-3.85-3.85a1.007 1.007 0 0 0-.115-.1 6.538 6.538 0 0 1-1.398 1.4z"></path><path fill-rule="evenodd" d="M6.5 3a.5.5 0 0 1 .5.5V6h2.5a.5.5 0 0 1 0 1H7v2.5a.5.5 0 0 1-1 0V7H3.5a.5.5 0 0 1 0-1H6V3.5a.5.5 0 0 1 .5-.5z"></path></svg></g><g ></g><g ></g><g ></g></g><image  id="v-586"></image></g></g><!--z-index:20--><g   id="j_53"  transform="translate(249,967)" style=""><g  id="v-601" style="opacity: 1;"><rect  id="v-602" rx="20" ry="20" stroke-width="2" pointer-events="visiblePainted" fill="#438dd5" stroke="#3c7fc0" stroke-dasharray="" width="450" height="300" style="fill: rgb(67, 141, 213); stroke: rgb(60, 127, 192);"></rect><text  id="v-603" font-size="33.599999999999994px" xml:space="preserve" y="13.460000000000008" font-weight="bold" text-anchor="middle" pointer-events="visible" font-family="Tahoma, Verdana, Helvetica, Arial" fill="#ffffff" dominant-baseline="hanging" transform="matrix(1,0,0,1,225,0)" style="fill: rgb(255, 255, 255);"><tspan dy="0" >reactive-</tspan><tspan dy="1.2em" x="0" >bucket-management</tspan></text><text  id="v-604" font-size="16.799999999999997px" xml:space="preserve" y="95.38" text-anchor="middle" font-family="Tahoma, Verdana, Helvetica, Arial" fill="#ffffff" dominant-baseline="hanging" transform="matrix(1,0,0,1,225,0)" style="display: block; fill: rgb(255, 255, 255);"><tspan dy="0" >[Container: Java 21 reactive application/domain</tspan><tspan dy="1.2em" x="0" >services]</tspan></text><text  id="v-605" font-size="24px" xml:space="preserve" y="147.34" text-anchor="middle" font-family="Tahoma, Verdana, Helvetica, Arial" fill="#ffffff" dominant-baseline="hanging" transform="matrix(1,0,0,1,225,0)" style="display: block; fill: rgb(255, 255, 255);"><tspan dy="0" >Reactive bucket management</tspan><tspan dy="1.2em" x="0" >capability: bucket lifecycle,</tspan><tspan dy="1.2em" x="0" >metadata, configuration,</tspan><tspan dy="1.2em" x="0" >CORS/versioning and bucket-level</tspan><tspan dy="1.2em" x="0" >operations.</tspan></text><g  id="v-606" color="#ffffff" transform="matrix(1,0,0,1,210,268)" display="none" style="fill: rgb(255, 255, 255);"><g  transform="translate(5 0)"><svg xmlns="http://www.w3.org/2000/svg" width="20" height="20" fill="currentColor" viewBox="0 0 16 16"><path fill-rule="evenodd" d="M6.5 12a5.5 5.5 0 1 0 0-11 5.5 5.5 0 0 0 0 11zM13 6.5a6.5 6.5 0 1 1-13 0 6.5 6.5 0 0 1 13 0z"></path><path d="M10.344 11.742c.03.04.062.078.098.115l3.85 3.85a1 1 0 0 0 1.415-1.414l-3.85-3.85a1.007 1.007 0 0 0-.115-.1 6.538 6.538 0 0 1-1.398 1.4z"></path><path fill-rule="evenodd" d="M6.5 3a.5.5 0 0 1 .5.5V6h2.5a.5.5 0 0 1 0 1H7v2.5a.5.5 0 0 1-1 0V7H3.5a.5.5 0 0 1 0-1H6V3.5a.5.5 0 0 1 .5-.5z"></path></svg></g><g ></g><g ></g><g ></g></g><image  id="v-607"></image></g></g><!--z-index:21--><g   id="j_54"  transform="translate(1039,592)" style=""><g  id="v-617" style="opacity: 1;"><rect  id="v-618" rx="20" ry="20" stroke-width="2" pointer-events="visiblePainted" fill="#438dd5" stroke="#3c7fc0" stroke-dasharray="" width="450" height="300" style="fill: rgb(67, 141, 213); stroke: rgb(60, 127, 192);"></rect><text  id="v-619" font-size="33.599999999999994px" xml:space="preserve" y="-19.659999999999968" font-weight="bold" text-anchor="middle" pointer-events="visible" font-family="Tahoma, Verdana, Helvetica, Arial" fill="#ffffff" dominant-baseline="hanging" transform="matrix(1,0,0,1,225,0)" style="fill: rgb(255, 255, 255);"><tspan dy="0" >reactive-</tspan><tspan dy="1.2em" x="0" >repository-application</tspan></text><text  id="v-620" font-size="16.799999999999997px" xml:space="preserve" y="62.26000000000002" text-anchor="middle" font-family="Tahoma, Verdana, Helvetica, Arial" fill="#ffffff" dominant-baseline="hanging" transform="matrix(1,0,0,1,225,0)" style="display: block; fill: rgb(255, 255, 255);"><tspan dy="0" >[Container: Java 21 CQS interfaces]</tspan></text><text  id="v-621" font-size="24px" xml:space="preserve" y="94.06000000000002" text-anchor="middle" font-family="Tahoma, Verdana, Helvetica, Arial" fill="#ffffff" dominant-baseline="hanging" transform="matrix(1,0,0,1,225,0)" style="display: block; fill: rgb(255, 255, 255);"><tspan dy="0" >Command/Query repository</tspan><tspan dy="1.2em" x="0" >interfaces:</tspan><tspan dy="1.2em" x="0" >BucketCommandRepository,</tspan><tspan dy="1.2em" x="0" >BucketQueryRepository,</tspan><tspan dy="1.2em" x="0" >S3ObjectCommandRepository,</tspan><tspan dy="1.2em" x="0" >S3ObjectQueryRepository, Multipart</tspan><tspan dy="1.2em" x="0" >UploadCommandRepository,</tspan><tspan dy="1.2em" x="0" >MultipartUploadQueryRepository.</tspan></text><g  id="v-622" color="#ffffff" transform="matrix(1,0,0,1,210,268)" display="none" style="fill: rgb(255, 255, 255);"><g  transform="translate(5 0)"><svg xmlns="http://www.w3.org/2000/svg" width="20" height="20" fill="currentColor" viewBox="0 0 16 16"><path fill-rule="evenodd" d="M6.5 12a5.5 5.5 0 1 0 0-11 5.5 5.5 0 0 0 0 11zM13 6.5a6.5 6.5 0 1 1-13 0 6.5 6.5 0 0 1 13 0z"></path><path d="M10.344 11.742c.03.04.062.078.098.115l3.85 3.85a1 1 0 0 0 1.415-1.414l-3.85-3.85a1.007 1.007 0 0 0-.115-.1 6.538 6.538 0 0 1-1.398 1.4z"></path><path fill-rule="evenodd" d="M6.5 3a.5.5 0 0 1 .5.5V6h2.5a.5.5 0 0 1 0 1H7v2.5a.5.5 0 0 1-1 0V7H3.5a.5.5 0 0 1 0-1H6V3.5a.5.5 0 0 1 .5-.5z"></path></svg></g><g ></g><g ></g><g ></g></g><image  id="v-623"></image></g></g><!--z-index:22--><g   id="j_56"  transform="translate(1829,192)" style="; opacity: 1;"><g id="v-640"><rect  id="v-641" width="550" height="1179" rx="0" ry="0" stroke-width="2" pointer-events="none" stroke="#3c7fc0" fill="#ffffff" opacity="1" stroke-dasharray=""></rect><text  id="v-642" font-size="33.599999999999994px" xml:space="preserve" y="1140" font-weight="bold" text-anchor="start" pointer-events="visible" font-family="Tahoma, Verdana, Helvetica, Arial" fill="#438dd5" transform="matrix(1,0,0,1,15,0)"><tspan dy="0" >reactive-infrastructure</tspan></text><text  id="v-643" font-size="16.799999999999997px" xml:space="preserve" y="1164" font-weight="normal" text-anchor="start" pointer-events="visible" font-family="Tahoma, Verdana, Helvetica, Arial" fill="#438dd5" transform="matrix(1,0,0,1,15,0)"><tspan dy="0" >[Container]</tspan></text><image  id="v-644" pointer-events="visible"></image></g></g><!--z-index:23--><g   id="j_55"  transform="translate(1879,242)" style=""><g  id="v-633" style="opacity: 1;"><rect  id="v-634" rx="20" ry="20" stroke-width="2" pointer-events="visiblePainted" fill="#85bbf0" stroke="#78a8d8" stroke-dasharray="" width="450" height="300" style="fill: rgb(133, 187, 240); stroke: rgb(120, 168, 216);"></rect><text  id="v-635" font-size="33.599999999999994px" xml:space="preserve" y="23.54000000000002" font-weight="bold" text-anchor="middle" pointer-events="visible" font-family="Tahoma, Verdana, Helvetica, Arial" fill="#000000" dominant-baseline="hanging" transform="matrix(1,0,0,1,225,0)" style="fill: rgb(0, 0, 0);"><tspan dy="0" >InMemoryReactiveBucket</tspan><tspan dy="1.2em" x="0" >Repository</tspan></text><text  id="v-636" font-size="16.799999999999997px" xml:space="preserve" y="105.46000000000001" text-anchor="middle" font-family="Tahoma, Verdana, Helvetica, Arial" fill="#000000" dominant-baseline="hanging" transform="matrix(1,0,0,1,225,0)" style="display: block; fill: rgb(0, 0, 0);"><tspan dy="0" >[Component: Spring @Repository]</tspan></text><text  id="v-637" font-size="24px" xml:space="preserve" y="137.26" text-anchor="middle" font-family="Tahoma, Verdana, Helvetica, Arial" fill="#000000" dominant-baseline="hanging" transform="matrix(1,0,0,1,225,0)" style="display: block; fill: rgb(0, 0, 0);"><tspan dy="0" >In-memory reactive implementation</tspan><tspan dy="1.2em" x="0" >of BucketCommandRepository and</tspan><tspan dy="1.2em" x="0" >BucketQueryRepository. Internally</tspan><tspan dy="1.2em" x="0" >stores bucket aggregates in</tspan><tspan dy="1.2em" x="0" >ConcurrentHashMap structures.</tspan></text><g  id="v-638" color="#000000" transform="matrix(1,0,0,1,222.5,268)" display="none" style="fill: rgb(0, 0, 0);"><g ></g><g ></g><g ></g><g ></g></g><image  id="v-639"></image></g></g><!--z-index:24--><g   id="j_57"  transform="translate(1879,592)" style=""><g  id="v-654" style="opacity: 1;"><rect  id="v-655" rx="20" ry="20" stroke-width="2" pointer-events="visiblePainted" fill="#85bbf0" stroke="#78a8d8" stroke-dasharray="" width="450" height="300" style="fill: rgb(133, 187, 240); stroke: rgb(120, 168, 216);"></rect><text  id="v-656" font-size="33.599999999999994px" xml:space="preserve" y="9.140000000000015" font-weight="bold" text-anchor="middle" pointer-events="visible" font-family="Tahoma, Verdana, Helvetica, Arial" fill="#000000" dominant-baseline="hanging" transform="matrix(1,0,0,1,225,0)" style="fill: rgb(0, 0, 0);"><tspan dy="0" >InMemoryReactiveS3Obj</tspan><tspan dy="1.2em" x="0" >ectRepository</tspan></text><text  id="v-657" font-size="16.799999999999997px" xml:space="preserve" y="91.06" text-anchor="middle" font-family="Tahoma, Verdana, Helvetica, Arial" fill="#000000" dominant-baseline="hanging" transform="matrix(1,0,0,1,225,0)" style="display: block; fill: rgb(0, 0, 0);"><tspan dy="0" >[Component: Spring @Repository]</tspan></text><text  id="v-658" font-size="24px" xml:space="preserve" y="122.86" text-anchor="middle" font-family="Tahoma, Verdana, Helvetica, Arial" fill="#000000" dominant-baseline="hanging" transform="matrix(1,0,0,1,225,0)" style="display: block; fill: rgb(0, 0, 0);"><tspan dy="0" >In-memory reactive implementation</tspan><tspan dy="1.2em" x="0" >of S3ObjectCommandRepository</tspan><tspan dy="1.2em" x="0" >and S3ObjectQueryRepository.</tspan><tspan dy="1.2em" x="0" >Internally stores object metadata</tspan><tspan dy="1.2em" x="0" >and raw object bytes in</tspan><tspan dy="1.2em" x="0" >ConcurrentHashMap structures.</tspan></text><g  id="v-659" color="#000000" transform="matrix(1,0,0,1,222.5,268)" display="none" style="fill: rgb(0, 0, 0);"><g ></g><g ></g><g ></g><g ></g></g><image  id="v-660"></image></g></g><!--z-index:25--><g   id="j_58"  transform="translate(1879,942)" style=""><g  id="v-670" style="opacity: 1;"><rect  id="v-671" rx="20" ry="20" stroke-width="2" pointer-events="visiblePainted" fill="#85bbf0" stroke="#78a8d8" stroke-dasharray="" width="450" height="300" style="fill: rgb(133, 187, 240); stroke: rgb(120, 168, 216);"></rect><text  id="v-672" font-size="33.599999999999994px" xml:space="preserve" y="-5.259999999999991" font-weight="bold" text-anchor="middle" pointer-events="visible" font-family="Tahoma, Verdana, Helvetica, Arial" fill="#000000" dominant-baseline="hanging" transform="matrix(1,0,0,1,225,0)" style="fill: rgb(0, 0, 0);"><tspan dy="0" >InMemoryReactiveMultipa</tspan><tspan dy="1.2em" x="0" >rtUploadRepository</tspan></text><text  id="v-673" font-size="16.799999999999997px" xml:space="preserve" y="76.66" text-anchor="middle" font-family="Tahoma, Verdana, Helvetica, Arial" fill="#000000" dominant-baseline="hanging" transform="matrix(1,0,0,1,225,0)" style="display: block; fill: rgb(0, 0, 0);"><tspan dy="0" >[Component: Spring @Repository]</tspan></text><text  id="v-674" font-size="24px" xml:space="preserve" y="108.46" text-anchor="middle" font-family="Tahoma, Verdana, Helvetica, Arial" fill="#000000" dominant-baseline="hanging" transform="matrix(1,0,0,1,225,0)" style="display: block; fill: rgb(0, 0, 0);"><tspan dy="0" >In-memory reactive implementation</tspan><tspan dy="1.2em" x="0" >of MultipartUploadCommandReposit</tspan><tspan dy="1.2em" x="0" >ory and</tspan><tspan dy="1.2em" x="0" >MultipartUploadQueryRepository.</tspan><tspan dy="1.2em" x="0" >Internally stores multipart upload</tspan><tspan dy="1.2em" x="0" >sessions in a ConcurrentHashMap</tspan><tspan dy="1.2em" x="0" >structure.</tspan></text><g  id="v-675" color="#000000" transform="matrix(1,0,0,1,222.5,268)" display="none" style="fill: rgb(0, 0, 0);"><g ></g><g ></g><g ></g><g ></g></g><image  id="v-676"></image></g></g><!--z-index:26--><g   id="j_59"  style="opacity: 1;"><path fill="none" cursor="pointer" stroke="transparent" stroke-linecap="round" joint-selector="wrapper" id="v-691" stroke-width="10" stroke-linejoin="round" d="M 1456.69 911.01 L 1652 1085 C 1656.6666666666665 1089.6666666666665 1662.3333333333333 1092 1669 1092 L 1879 1090.33"></path><path fill="none" pointer-events="none" joint-selector="line" id="v-690" stroke="#444444" stroke-width="2" stroke-linejoin="round" stroke-dasharray="8 8" d="M 1456.69 911.01 L 1652 1085 C 1656.6666666666665 1089.6666666666665 1662.3333333333333 1092 1669 1092 L 1879 1090.33" marker-end="url(#v-21252848929)"></path><g id="v-680" ><g id="v-681"  label-idx="0" cursor="move" transform="matrix(1,0,0,1,1672.12548828125,1078.5751953125)" style="cursor: default;"><rect joint-selector="rect" id="v-685" fill="#ffffff" rx="3" ry="3" x="-85.24304962158203" y="-15.022221565246582" width="172.36717224121094" height="27.77777671813965" pointer-events="none"  style="display: block;"></rect><text joint-selector="text" id="v-684" font-size="24px" xml:space="preserve" fill="#444444" text-anchor="middle" pointer-events="none" font-family="Tahoma, Verdana, Helvetica, Arial" font-weight="normal"  style="display: block;"><tspan dy="0.3em" >Implemented by</tspan></text></g><g id="v-682"  label-idx="1" cursor="move" transform="matrix(1,0,0,1,1672.12548828125,1108.97509765625)" style="cursor: default;"><rect joint-selector="rect" id="v-687" fill="#ffffff" rx="3" ry="3" x="-47.96006774902344" y="-8.848888397216797" width="96.7998046875" height="16.66666603088379"  pointer-events="none" style="display: block;"></rect><text joint-selector="text" id="v-686" font-size="16.799999999999997px" xml:space="preserve" fill="#444444" text-anchor="middle" pointer-events="none" font-family="Tahoma, Verdana, Helvetica, Arial" font-weight="normal"  style="display: block;"><tspan dy="0.3em" >[Implements]</tspan></text></g><g id="v-683"  label-idx="2" cursor="move" transform="matrix(1,0,0,1,1629.8040771484375,1099.535400390625)" style="cursor: default;"><rect joint-selector="rect" id="v-689" fill="#ffffff" rx="3" ry="3" x="-4.547473508864641e-13" y="0" width="0" height="0"  display="none"></rect><text joint-selector="text" id="v-688" fill="#000000" font-size="14" text-anchor="middle" text-vertical-anchor="middle" pointer-events="none"></text></g></g></g><!--z-index:27--><g   id="j_60"  style="opacity: 1;"><path fill="none" cursor="pointer" stroke="transparent" stroke-linecap="round" joint-selector="wrapper" id="v-709" stroke-width="10" stroke-linejoin="round" d="M 699 367 L 859 367 C 865.6666666666665 367 871.3333333333333 369.3333333333333 876 374 L 1080.75 566.22"></path><path fill="none" pointer-events="none" joint-selector="line" id="v-708" stroke="#444444" stroke-width="2" stroke-linejoin="round" stroke-dasharray="8 8" d="M 699 367 L 859 367 C 865.6666666666665 367 871.3333333333333 369.3333333333333 876 374 L 1080.75 566.22" marker-end="url(#v-21252848929)"></path><g id="v-698" ><g id="v-699"  label-idx="0" cursor="move" transform="matrix(1,0,0,1,856.3190307617188,353.6000061035156)" style="cursor: default;"><rect joint-selector="rect" id="v-703" fill="#ffffff" rx="3" ry="3" x="-81.90103912353516" y="-58.22222137451172" width="164.3303680419922" height="114.17778015136719" pointer-events="none"  style="display: block;"></rect><text joint-selector="text" id="v-702" font-size="24px" xml:space="preserve" fill="#444444" text-anchor="middle" pointer-events="none" font-family="Tahoma, Verdana, Helvetica, Arial" font-weight="normal"  style="display: block;"><tspan dy="-1.4999999999999998em" >CQS command</tspan><tspan dy="1.2em" x="0" >interface for</tspan><tspan dy="1.2em" x="0" >S3Object</tspan><tspan dy="1.2em" x="0" >persistence</tspan></text></g><g id="v-700"  label-idx="1" cursor="move" transform="matrix(1,0,0,1,856.3190307617188,427.20001220703125)" style="cursor: default;"><rect joint-selector="rect" id="v-705" fill="#ffffff" rx="3" ry="3" x="-64.2578125" y="-8.848888397216797" width="129.4069061279297" height="16.66666603088379"  pointer-events="none" style="display: block;"></rect><text joint-selector="text" id="v-704" font-size="16.799999999999997px" xml:space="preserve" fill="#444444" text-anchor="middle" pointer-events="none" font-family="Tahoma, Verdana, Helvetica, Arial" font-weight="normal"  style="display: block;"><tspan dy="0.3em" >[Implemented by]</tspan></text></g><g id="v-701"  label-idx="2" cursor="move" transform="matrix(1,0,0,1,903.161865234375,477.4876708984375)" style="cursor: default;"><rect joint-selector="rect" id="v-707" fill="#ffffff" rx="3" ry="3" x="0" y="0" width="0" height="0"  display="none"></rect><text joint-selector="text" id="v-706" fill="#000000" font-size="14" text-anchor="middle" text-vertical-anchor="middle" pointer-events="none"></text></g></g></g><!--z-index:28--><g   id="j_61"  style="opacity: 1;"><path fill="none" cursor="pointer" stroke="transparent" stroke-linecap="round" joint-selector="wrapper" id="v-727" stroke-width="10" stroke-linejoin="round" d="M 699 1117 L 859 1117 C 865.6666666666665 1117 871.3333333333333 1114.6666666666665 876 1110 L 1084.04 911.01"></path><path fill="none" pointer-events="none" joint-selector="line" id="v-726" stroke="#444444" stroke-width="2" stroke-linejoin="round" stroke-dasharray="8 8" d="M 699 1117 L 859 1117 C 865.6666666666665 1117 871.3333333333333 1114.6666666666665 876 1110 L 1084.04 911.01" marker-end="url(#v-21252848929)"></path><g id="v-716" ><g id="v-717"  label-idx="0" cursor="move" transform="matrix(1,0,0,1,858.729736328125,1103.5999755859375)" style="cursor: default;"><rect joint-selector="rect" id="v-721" fill="#ffffff" rx="3" ry="3" x="-81.90103912353516" y="-58.22222137451172" width="164.3303680419922" height="114.17778015136719" pointer-events="none"  style="display: block;"></rect><text joint-selector="text" id="v-720" font-size="24px" xml:space="preserve" fill="#444444" text-anchor="middle" pointer-events="none" font-family="Tahoma, Verdana, Helvetica, Arial" font-weight="normal"  style="display: block;"><tspan dy="-1.4999999999999998em" >CQS command</tspan><tspan dy="1.2em" x="0" >interface for</tspan><tspan dy="1.2em" x="0" >Bucket</tspan><tspan dy="1.2em" x="0" >persistence</tspan></text></g><g id="v-718"  label-idx="1" cursor="move" transform="matrix(1,0,0,1,858.729736328125,1177.199951171875)" style="cursor: default;"><rect joint-selector="rect" id="v-723" fill="#ffffff" rx="3" ry="3" x="-64.2578125" y="-8.848888397216797" width="129.4069061279297" height="16.66666603088379"  pointer-events="none" style="display: block;"></rect><text joint-selector="text" id="v-722" font-size="16.799999999999997px" xml:space="preserve" fill="#444444" text-anchor="middle" pointer-events="none" font-family="Tahoma, Verdana, Helvetica, Arial" font-weight="normal"  style="display: block;"><tspan dy="0.3em" >[Implemented by]</tspan></text></g><g id="v-719"  label-idx="2" cursor="move" transform="matrix(1,0,0,1,905.3804321289062,1140.9326171875)" style="cursor: default;"><rect joint-selector="rect" id="v-725" fill="#ffffff" rx="3" ry="3" x="0" y="0" width="0" height="0"  display="none"></rect><text joint-selector="text" id="v-724" fill="#000000" font-size="14" text-anchor="middle" text-vertical-anchor="middle" pointer-events="none"></text></g></g></g><!--z-index:29--><g   id="j_62"  style="opacity: 1;"><path fill="none" cursor="pointer" stroke="transparent" stroke-linecap="round" joint-selector="wrapper" id="v-742" stroke-width="10" stroke-linejoin="round" d="M 1460.46 566.22 L 1651 399 C 1656.3333333333333 394.3333333333333 1662.3333333333333 392 1669 392 L 1879 392"></path><path fill="none" pointer-events="none" joint-selector="line" id="v-741" stroke="#444444" stroke-width="2" stroke-linejoin="round" stroke-dasharray="8 8" d="M 1460.46 566.22 L 1651 399 C 1656.3333333333333 394.3333333333333 1662.3333333333333 392 1669 392 L 1879 392" marker-end="url(#v-21252848929)"></path><g id="v-731" ><g id="v-732"  label-idx="0" cursor="move" transform="matrix(1,0,0,1,1675.15771484375,378.6000061035156)" style="cursor: default;"><rect joint-selector="rect" id="v-736" fill="#ffffff" rx="3" ry="3" x="-85.24304962158203" y="-15.022221565246582" width="172.36717224121094" height="27.77777671813965" pointer-events="none"  style="display: block;"></rect><text joint-selector="text" id="v-735" font-size="24px" xml:space="preserve" fill="#444444" text-anchor="middle" pointer-events="none" font-family="Tahoma, Verdana, Helvetica, Arial" font-weight="normal"  style="display: block;"><tspan dy="0.3em" >Implemented by</tspan></text></g><g id="v-733"  label-idx="1" cursor="move" transform="matrix(1,0,0,1,1675.15771484375,409)" style="cursor: default;"><rect joint-selector="rect" id="v-738" fill="#ffffff" rx="3" ry="3" x="-47.96006774902344" y="-8.848888397216797" width="96.7998046875" height="16.66666603088379"  pointer-events="none" style="display: block;"></rect><text joint-selector="text" id="v-737" font-size="16.799999999999997px" xml:space="preserve" fill="#444444" text-anchor="middle" pointer-events="none" font-family="Tahoma, Verdana, Helvetica, Arial" font-weight="normal"  style="display: block;"><tspan dy="0.3em" >[Implements]</tspan></text></g><g id="v-734"  label-idx="2" cursor="move" transform="matrix(1,0,0,1,1632.07275390625,432.2346496582031)" style="cursor: default;"><rect joint-selector="rect" id="v-740" fill="#ffffff" rx="3" ry="3" x="0" y="0" width="0" height="0"  display="none"></rect><text joint-selector="text" id="v-739" fill="#000000" font-size="14" text-anchor="middle" text-vertical-anchor="middle" pointer-events="none"></text></g></g></g><!--z-index:30--><g   id="j_63"  style="opacity: 1;"><path fill="none" cursor="pointer" stroke="transparent" stroke-linecap="round" joint-selector="wrapper" id="v-757" stroke-width="10" stroke-linejoin="round" d="M 1489 739.53 L 1879 741.09"></path><path fill="none" pointer-events="none" joint-selector="line" id="v-756" stroke="#444444" stroke-width="2" stroke-linejoin="round" stroke-dasharray="8 8" d="M 1489 739.53 L 1879 741.09" marker-end="url(#v-21252848929)"></path><g id="v-746" ><g id="v-747"  label-idx="0" cursor="move" transform="matrix(1,0,0,1,1659,726.8099975585938)" style="cursor: default;"><rect joint-selector="rect" id="v-751" fill="#ffffff" rx="3" ry="3" x="-85.24304962158203" y="-15.022221565246582" width="172.36717224121094" height="27.77777671813965" pointer-events="none"  style="display: block;"></rect><text joint-selector="text" id="v-750" font-size="24px" xml:space="preserve" fill="#444444" text-anchor="middle" pointer-events="none" font-family="Tahoma, Verdana, Helvetica, Arial" font-weight="normal"  style="display: block;"><tspan dy="0.3em" >Implemented by</tspan></text></g><g id="v-748"  label-idx="1" cursor="move" transform="matrix(1,0,0,1,1659,757.2100219726562)" style="cursor: default;"><rect joint-selector="rect" id="v-753" fill="#ffffff" rx="3" ry="3" x="-47.96006774902344" y="-8.848888397216797" width="96.7998046875" height="16.66666603088379"  pointer-events="none" style="display: block;"></rect><text joint-selector="text" id="v-752" font-size="16.799999999999997px" xml:space="preserve" fill="#444444" text-anchor="middle" pointer-events="none" font-family="Tahoma, Verdana, Helvetica, Arial" font-weight="normal"  style="display: block;"><tspan dy="0.3em" >[Implements]</tspan></text></g><g id="v-749"  label-idx="2" cursor="move" transform="matrix(1,0,0,1,1674,765.7100219726562)" style="cursor: default;"><rect joint-selector="rect" id="v-755" fill="#ffffff" rx="3" ry="3" x="-4.547473508864641e-13" y="0" width="0" height="0"  display="none"></rect><text joint-selector="text" id="v-754" fill="#000000" font-size="14" text-anchor="middle" text-vertical-anchor="middle" pointer-events="none"></text></g></g></g><!--z-index:31--><!--z-index:32--><!--z-index:33--><!--z-index:34--><!--z-index:35--><!--z-index:36--><!--z-index:37--></g><g  style="user-select: none;"></g><g ></g><g  display="none"></g></g></svg>