<svg xmlns="http://www.w3.org/2000/svg" xmlns:xlink="http://www.w3.org/1999/xlink" version="1.1" width="4210" height="1758" style="width: 4210px; height: 1758px; background: #ffffff" viewBox="0 0 4210 1758"><style id="v-3" type="text/css">        .joint-element .scalable * {            vector-effect: non-scaling-stroke;        }    </style><defs joint-selector="defs"><marker id="v-21252848929" orient="auto" overflow="visible" markerUnits="userSpaceOnUse"><path id="v-52" stroke="#444444" fill="#444444" transform="rotate(180)" d="M 20 -10 0 0 20 10 Z"></path></marker></defs><g joint-selector="layers"  transform="matrix(1,0,0,1,0,0)"><g  style="pointer-events: none;"></g><g ></g><g  style="user-select: none;"><!--z-index:0--><!--z-index:1--><!--z-index:2--><!--z-index:3--><!--z-index:4--><!--z-index:5--><!--z-index:6--><!--z-index:7--><!--z-index:8--><!--z-index:9--><!--z-index:10--><!--z-index:11--><!--z-index:12--><!--z-index:13--><!--z-index:14--><!--z-index:15--><!--z-index:16--><!--z-index:17--><!--z-index:18--><g   id="j_52"  transform="translate(20,1714)"><g id="v-604"><text  id="v-605" font-size="24px" xml:space="preserve" y="0.8em" font-weight="normal" text-anchor="start" fill="#444444" pointer-events="none" display="block" font-family="Tahoma, Verdana, Helvetica, Arial"><tspan dy="0" >lunedì 25 maggio 2026 alle ore 21:23 Ora legale dell’Europa centrale</tspan></text></g></g><!--z-index:19--><g   id="j_51"  transform="translate(20,1680)"><g id="v-602"><text  id="v-603" font-size="24px" xml:space="preserve" y="0.8em" font-weight="normal" text-anchor="start" fill="#444444" pointer-events="none" display="block" font-family="Tahoma, Verdana, Helvetica, Arial"><tspan dy="0" >Reactive bucket management service, bucket aggregate root with domain events and inline Configuration, and repository port.</tspan></text></g></g><!--z-index:20--><g   id="j_50"  transform="translate(20,1634)"><g id="v-600"><text  id="v-601" font-size="36px" xml:space="preserve" y="0.8em" font-weight="normal" text-anchor="start" fill="#444444" pointer-events="none" display="block" font-family="Tahoma, Verdana, Helvetica, Arial"><tspan dy="0" >C3 Component: reactive-bucket-management</tspan></text></g></g><!--z-index:21--><g   id="j_54"  transform="translate(200,142)" style="; opacity: 1;"><g id="v-622"><rect  id="v-623" width="3810" height="1358" rx="20" ry="20" stroke-width="2" pointer-events="none" stroke="#0f5eaa" fill="#ffffff" opacity="1" stroke-dasharray=""></rect><text  id="v-624" font-size="33.599999999999994px" xml:space="preserve" y="1319" font-weight="bold" text-anchor="start" pointer-events="visible" font-family="Tahoma, Verdana, Helvetica, Arial" fill="#1168bd" transform="matrix(1,0,0,1,15,0)"><tspan dy="0" >Magrathea ObjectStorage</tspan></text><text  id="v-625" font-size="16.799999999999997px" xml:space="preserve" y="1343" font-weight="normal" text-anchor="start" pointer-events="visible" font-family="Tahoma, Verdana, Helvetica, Arial" fill="#1168bd" transform="matrix(1,0,0,1,15,0)"><tspan dy="0" >[Software System]</tspan></text><image  id="v-626" pointer-events="visible"></image></g></g><!--z-index:22--><g   id="j_53"  transform="translate(250,567)" style=""><g  id="v-615" style="opacity: 1;"><rect  id="v-616" rx="20" ry="20" stroke-width="2" pointer-events="visiblePainted" fill="#438dd5" stroke="#3c7fc0" stroke-dasharray="" width="450" height="300" style="fill: rgb(67, 141, 213); stroke: rgb(60, 127, 192);"></rect><text  id="v-617" font-size="33.599999999999994px" xml:space="preserve" y="33.620000000000005" font-weight="bold" text-anchor="middle" pointer-events="visible" font-family="Tahoma, Verdana, Helvetica, Arial" fill="#ffffff" dominant-baseline="hanging" transform="matrix(1,0,0,1,225,0)" style="fill: rgb(255, 255, 255);"><tspan dy="0" >s3-reactive-api-adapter</tspan></text><text  id="v-618" font-size="16.799999999999997px" xml:space="preserve" y="75.22" text-anchor="middle" font-family="Tahoma, Verdana, Helvetica, Arial" fill="#ffffff" dominant-baseline="hanging" transform="matrix(1,0,0,1,225,0)" style="display: block; fill: rgb(255, 255, 255);"><tspan dy="0" >[Container: Spring Boot 4 WebFlux, RouterFunction,</tspan><tspan dy="1.2em" x="0" >Java 21, Jackson XML]</tspan></text><text  id="v-619" font-size="24px" xml:space="preserve" y="127.17999999999999" text-anchor="middle" font-family="Tahoma, Verdana, Helvetica, Arial" fill="#ffffff" dominant-baseline="hanging" transform="matrix(1,0,0,1,225,0)" style="display: block; fill: rgb(255, 255, 255);"><tspan dy="0" >HTTP adapter that exposes the</tspan><tspan dy="1.2em" x="0" >S3-compatible REST API and</tspan><tspan dy="1.2em" x="0" >translates HTTP/XML/binary</tspan><tspan dy="1.2em" x="0" >requests into reactive application</tspan><tspan dy="1.2em" x="0" >use cases.</tspan></text><g  id="v-620" color="#ffffff" transform="matrix(1,0,0,1,210,268)" display="none" style="fill: rgb(255, 255, 255);"><g  transform="translate(5 0)"><svg xmlns="http://www.w3.org/2000/svg" width="20" height="20" fill="currentColor" viewBox="0 0 16 16"><path fill-rule="evenodd" d="M6.5 12a5.5 5.5 0 1 0 0-11 5.5 5.5 0 0 0 0 11zM13 6.5a6.5 6.5 0 1 1-13 0 6.5 6.5 0 0 1 13 0z"></path><path d="M10.344 11.742c.03.04.062.078.098.115l3.85 3.85a1 1 0 0 0 1.415-1.414l-3.85-3.85a1.007 1.007 0 0 0-.115-.1 6.538 6.538 0 0 1-1.398 1.4z"></path><path fill-rule="evenodd" d="M6.5 3a.5.5 0 0 1 .5.5V6h2.5a.5.5 0 0 1 0 1H7v2.5a.5.5 0 0 1-1 0V7H3.5a.5.5 0 0 1 0-1H6V3.5a.5.5 0 0 1 .5-.5z"></path></svg></g><g ></g><g ></g><g ></g></g><image  id="v-621"></image></g></g><!--z-index:23--><g   id="j_55"  transform="translate(1880,192)" style=""><g  id="v-636" style="opacity: 1;"><rect  id="v-637" rx="20" ry="20" stroke-width="2" pointer-events="visiblePainted" fill="#438dd5" stroke="#3c7fc0" stroke-dasharray="" width="450" height="300" style="fill: rgb(67, 141, 213); stroke: rgb(60, 127, 192);"></rect><text  id="v-638" font-size="33.599999999999994px" xml:space="preserve" y="33.620000000000005" font-weight="bold" text-anchor="middle" pointer-events="visible" font-family="Tahoma, Verdana, Helvetica, Arial" fill="#ffffff" dominant-baseline="hanging" transform="matrix(1,0,0,1,225,0)" style="fill: rgb(255, 255, 255);"><tspan dy="0" >reactive-object-store</tspan></text><text  id="v-639" font-size="16.799999999999997px" xml:space="preserve" y="75.22" text-anchor="middle" font-family="Tahoma, Verdana, Helvetica, Arial" fill="#ffffff" dominant-baseline="hanging" transform="matrix(1,0,0,1,225,0)" style="display: block; fill: rgb(255, 255, 255);"><tspan dy="0" >[Container: Java 21 reactive application/domain</tspan><tspan dy="1.2em" x="0" >services]</tspan></text><text  id="v-640" font-size="24px" xml:space="preserve" y="127.17999999999999" text-anchor="middle" font-family="Tahoma, Verdana, Helvetica, Arial" fill="#ffffff" dominant-baseline="hanging" transform="matrix(1,0,0,1,225,0)" style="display: block; fill: rgb(255, 255, 255);"><tspan dy="0" >Reactive object storage capability:</tspan><tspan dy="1.2em" x="0" >object upload, download, metadata</tspan><tspan dy="1.2em" x="0" >lookup, deletion and multipart object</tspan><tspan dy="1.2em" x="0" >workflows using reactive services</tspan><tspan dy="1.2em" x="0" >and domain aggregates.</tspan></text><g  id="v-641" color="#ffffff" transform="matrix(1,0,0,1,210,268)" display="none" style="fill: rgb(255, 255, 255);"><g  transform="translate(5 0)"><svg xmlns="http://www.w3.org/2000/svg" width="20" height="20" fill="currentColor" viewBox="0 0 16 16"><path fill-rule="evenodd" d="M6.5 12a5.5 5.5 0 1 0 0-11 5.5 5.5 0 0 0 0 11zM13 6.5a6.5 6.5 0 1 1-13 0 6.5 6.5 0 0 1 13 0z"></path><path d="M10.344 11.742c.03.04.062.078.098.115l3.85 3.85a1 1 0 0 0 1.415-1.414l-3.85-3.85a1.007 1.007 0 0 0-.115-.1 6.538 6.538 0 0 1-1.398 1.4z"></path><path fill-rule="evenodd" d="M6.5 3a.5.5 0 0 1 .5.5V6h2.5a.5.5 0 0 1 0 1H7v2.5a.5.5 0 0 1-1 0V7H3.5a.5.5 0 0 1 0-1H6V3.5a.5.5 0 0 1 .5-.5z"></path></svg></g><g ></g><g ></g><g ></g></g><image  id="v-642"></image></g></g><!--z-index:24--><g   id="j_57"  transform="translate(1040,542)" style="; opacity: 1;"><g id="v-656"><rect  id="v-657" width="1340" height="829" rx="20" ry="20" stroke-width="2" pointer-events="none" stroke="#3c7fc0" fill="#ffffff" opacity="1" stroke-dasharray=""></rect><text  id="v-658" font-size="33.599999999999994px" xml:space="preserve" y="790" font-weight="bold" text-anchor="start" pointer-events="visible" font-family="Tahoma, Verdana, Helvetica, Arial" fill="#438dd5" transform="matrix(1,0,0,1,15,0)"><tspan dy="0" >reactive-bucket-management</tspan></text><text  id="v-659" font-size="16.799999999999997px" xml:space="preserve" y="814" font-weight="normal" text-anchor="start" pointer-events="visible" font-family="Tahoma, Verdana, Helvetica, Arial" fill="#438dd5" transform="matrix(1,0,0,1,15,0)"><tspan dy="0" >[Container]</tspan></text><image  id="v-660" pointer-events="visible"></image></g></g><!--z-index:25--><g   id="j_60"  transform="translate(2720,567)" style=""><g  id="v-699" style="opacity: 1;"><rect  id="v-700" rx="20" ry="20" stroke-width="2" pointer-events="visiblePainted" fill="#438dd5" stroke="#3c7fc0" stroke-dasharray="" width="450" height="300" style="fill: rgb(67, 141, 213); stroke: rgb(60, 127, 192);"></rect><text  id="v-701" font-size="33.599999999999994px" xml:space="preserve" y="-19.659999999999968" font-weight="bold" text-anchor="middle" pointer-events="visible" font-family="Tahoma, Verdana, Helvetica, Arial" fill="#ffffff" dominant-baseline="hanging" transform="matrix(1,0,0,1,225,0)" style="fill: rgb(255, 255, 255);"><tspan dy="0" >reactive-</tspan><tspan dy="1.2em" x="0" >repository-application</tspan></text><text  id="v-702" font-size="16.799999999999997px" xml:space="preserve" y="62.26000000000002" text-anchor="middle" font-family="Tahoma, Verdana, Helvetica, Arial" fill="#ffffff" dominant-baseline="hanging" transform="matrix(1,0,0,1,225,0)" style="display: block; fill: rgb(255, 255, 255);"><tspan dy="0" >[Container: Java 21 CQS interfaces]</tspan></text><text  id="v-703" font-size="24px" xml:space="preserve" y="94.06000000000002" text-anchor="middle" font-family="Tahoma, Verdana, Helvetica, Arial" fill="#ffffff" dominant-baseline="hanging" transform="matrix(1,0,0,1,225,0)" style="display: block; fill: rgb(255, 255, 255);"><tspan dy="0" >Command/Query repository</tspan><tspan dy="1.2em" x="0" >interfaces:</tspan><tspan dy="1.2em" x="0" >BucketCommandRepository,</tspan><tspan dy="1.2em" x="0" >BucketQueryRepository,</tspan><tspan dy="1.2em" x="0" >S3ObjectCommandRepository,</tspan><tspan dy="1.2em" x="0" >S3ObjectQueryRepository, Multipart</tspan><tspan dy="1.2em" x="0" >UploadCommandRepository,</tspan><tspan dy="1.2em" x="0" >MultipartUploadQueryRepository.</tspan></text><g  id="v-704" color="#ffffff" transform="matrix(1,0,0,1,210,268)" display="none" style="fill: rgb(255, 255, 255);"><g  transform="translate(5 0)"><svg xmlns="http://www.w3.org/2000/svg" width="20" height="20" fill="currentColor" viewBox="0 0 16 16"><path fill-rule="evenodd" d="M6.5 12a5.5 5.5 0 1 0 0-11 5.5 5.5 0 0 0 0 11zM13 6.5a6.5 6.5 0 1 1-13 0 6.5 6.5 0 0 1 13 0z"></path><path d="M10.344 11.742c.03.04.062.078.098.115l3.85 3.85a1 1 0 0 0 1.415-1.414l-3.85-3.85a1.007 1.007 0 0 0-.115-.1 6.538 6.538 0 0 1-1.398 1.4z"></path><path fill-rule="evenodd" d="M6.5 3a.5.5 0 0 1 .5.5V6h2.5a.5.5 0 0 1 0 1H7v2.5a.5.5 0 0 1-1 0V7H3.5a.5.5 0 0 1 0-1H6V3.5a.5.5 0 0 1 .5-.5z"></path></svg></g><g ></g><g ></g><g ></g></g><image  id="v-705"></image></g></g><!--z-index:26--><g   id="j_61"  transform="translate(3510,567)" style=""><g  id="v-715" style="opacity: 1;"><path  d="M 0,30 a 225,30 0,0,0 450 0 a 225,30 0,0,0 -450 0 l 0,240 a 225,30 0,0,0 450 0 l 0,-240" id="v-716" stroke-width="2" pointer-events="visiblePainted" fill="#438dd5" stroke="#3c7fc0" stroke-dasharray="" style="fill: rgb(67, 141, 213); stroke: rgb(60, 127, 192);"></path><rect  id="v-717" stroke-width="0" pointer-events="visiblePainted" fill="none" stroke="none" width="450" height="270" x="0" y="30"></rect><text  id="v-718" font-size="33.599999999999994px" xml:space="preserve" y="58.70000000000002" font-weight="bold" text-anchor="middle" pointer-events="visible" font-family="Tahoma, Verdana, Helvetica, Arial" fill="#ffffff" dominant-baseline="hanging" transform="matrix(1,0,0,1,225,0)" style="fill: rgb(255, 255, 255);"><tspan dy="0" >reactive-infrastructure</tspan></text><text  id="v-719" font-size="16.799999999999997px" xml:space="preserve" y="100.30000000000001" text-anchor="middle" font-family="Tahoma, Verdana, Helvetica, Arial" fill="#ffffff" dominant-baseline="hanging" transform="matrix(1,0,0,1,225,0)" style="display: block; fill: rgb(255, 255, 255);"><tspan dy="0" >[Container: Java 21, Reactor, ConcurrentHashMap]</tspan></text><text  id="v-720" font-size="24px" xml:space="preserve" y="132.10000000000002" text-anchor="middle" font-family="Tahoma, Verdana, Helvetica, Arial" fill="#ffffff" dominant-baseline="hanging" transform="matrix(1,0,0,1,225,0)" style="display: block; fill: rgb(255, 255, 255);"><tspan dy="0" >Reactive in-memory persistence: In</tspan><tspan dy="1.2em" x="0" >MemoryReactiveBucketRepository, I</tspan><tspan dy="1.2em" x="0" >nMemoryReactiveS3ObjectReposito</tspan><tspan dy="1.2em" x="0" >ry, InMemoryReactiveMultipartUploa</tspan><tspan dy="1.2em" x="0" >dRepository.</tspan></text><g  id="v-721" font-weight="normal" text-anchor="middle" color="#ffffff" transform="matrix(1,0,0,1,210,268)" display="none" style="fill: rgb(255, 255, 255);"><g  transform="translate(5 0)"><svg xmlns="http://www.w3.org/2000/svg" width="20" height="20" fill="currentColor" viewBox="0 0 16 16"><path fill-rule="evenodd" d="M6.5 12a5.5 5.5 0 1 0 0-11 5.5 5.5 0 0 0 0 11zM13 6.5a6.5 6.5 0 1 1-13 0 6.5 6.5 0 0 1 13 0z"></path><path d="M10.344 11.742c.03.04.062.078.098.115l3.85 3.85a1 1 0 0 0 1.415-1.414l-3.85-3.85a1.007 1.007 0 0 0-.115-.1 6.538 6.538 0 0 1-1.398 1.4z"></path><path fill-rule="evenodd" d="M6.5 3a.5.5 0 0 1 .5.5V6h2.5a.5.5 0 0 1 0 1H7v2.5a.5.5 0 0 1-1 0V7H3.5a.5.5 0 0 1 0-1H6V3.5a.5.5 0 0 1 .5-.5z"></path></svg></g><g ></g><g ></g><g ></g></g><image  id="v-722"></image></g></g><!--z-index:27--><g   id="j_56"  transform="translate(1090,767)" style=""><g  id="v-649" style="opacity: 1;"><rect  id="v-650" rx="20" ry="20" stroke-width="2" pointer-events="visiblePainted" fill="#85bbf0" stroke="#78a8d8" stroke-dasharray="" width="450" height="300" style="fill: rgb(133, 187, 240); stroke: rgb(120, 168, 216);"></rect><text  id="v-651" font-size="33.599999999999994px" xml:space="preserve" y="58.10000000000001" font-weight="bold" text-anchor="middle" pointer-events="visible" font-family="Tahoma, Verdana, Helvetica, Arial" fill="#000000" dominant-baseline="hanging" transform="matrix(1,0,0,1,225,0)" style="fill: rgb(0, 0, 0);"><tspan dy="0" >ReactiveBucketService</tspan></text><text  id="v-652" font-size="16.799999999999997px" xml:space="preserve" y="99.7" text-anchor="middle" font-family="Tahoma, Verdana, Helvetica, Arial" fill="#000000" dominant-baseline="hanging" transform="matrix(1,0,0,1,225,0)" style="display: block; fill: rgb(0, 0, 0);"><tspan dy="0" >[Component: Spring @Service]</tspan></text><text  id="v-653" font-size="24px" xml:space="preserve" y="131.5" text-anchor="middle" font-family="Tahoma, Verdana, Helvetica, Arial" fill="#000000" dominant-baseline="hanging" transform="matrix(1,0,0,1,225,0)" style="display: block; fill: rgb(0, 0, 0);"><tspan dy="0" >Reactive application service for</tspan><tspan dy="1.2em" x="0" >bucket lifecycle, versioning, CORS,</tspan><tspan dy="1.2em" x="0" >analytics, inventory, metrics,</tspan><tspan dy="1.2em" x="0" >intelligent-tiering configuration.</tspan></text><g  id="v-654" color="#000000" transform="matrix(1,0,0,1,222.5,268)" display="none" style="fill: rgb(0, 0, 0);"><g ></g><g ></g><g ></g><g ></g></g><image  id="v-655"></image></g></g><!--z-index:28--><g   id="j_58"  transform="translate(1880,592)" style=""><g  id="v-667" style="opacity: 1;"><rect  id="v-668" rx="20" ry="20" stroke-width="2" pointer-events="visiblePainted" fill="#85bbf0" stroke="#78a8d8" stroke-dasharray="" width="450" height="300" style="fill: rgb(133, 187, 240); stroke: rgb(120, 168, 216);"></rect><text  id="v-669" font-size="33.599999999999994px" xml:space="preserve" y="-28.299999999999983" font-weight="bold" text-anchor="middle" pointer-events="visible" font-family="Tahoma, Verdana, Helvetica, Arial" fill="#000000" dominant-baseline="hanging" transform="matrix(1,0,0,1,225,0)" style="fill: rgb(0, 0, 0);"><tspan dy="0" >Bucket</tspan></text><text  id="v-670" font-size="16.799999999999997px" xml:space="preserve" y="13.300000000000011" text-anchor="middle" font-family="Tahoma, Verdana, Helvetica, Arial" fill="#000000" dominant-baseline="hanging" transform="matrix(1,0,0,1,225,0)" style="display: block; fill: rgb(0, 0, 0);"><tspan dy="0" >[Component: Domain aggregate root]</tspan></text><text  id="v-671" font-size="24px" xml:space="preserve" y="45.10000000000001" text-anchor="middle" font-family="Tahoma, Verdana, Helvetica, Arial" fill="#000000" dominant-baseline="hanging" transform="matrix(1,0,0,1,225,0)" style="display: block; fill: rgb(0, 0, 0);"><tspan dy="0" >Domain aggregate root for bucket</tspan><tspan dy="1.2em" x="0" >identity, name, region, storage class,</tspan><tspan dy="1.2em" x="0" >versioning/encryption state and</tspan><tspan dy="1.2em" x="0" >inline Configuration. Emits</tspan><tspan dy="1.2em" x="0" >ObjectStorageEvent domain events</tspan><tspan dy="1.2em" x="0" >on state transitions</tspan><tspan dy="1.2em" x="0" >(withVersioningEnabled,</tspan><tspan dy="1.2em" x="0" >withVersioningSuspended,</tspan><tspan dy="1.2em" x="0" >withEncryptionEnabled,</tspan><tspan dy="1.2em" x="0" >withConfiguration).</tspan></text><g  id="v-672" color="#000000" transform="matrix(1,0,0,1,222.5,268)" display="none" style="fill: rgb(0, 0, 0);"><g ></g><g ></g><g ></g><g ></g></g><image  id="v-673"></image></g></g><!--z-index:29--><g   id="j_59"  transform="translate(1880,942)" style=""><g  id="v-683" style="opacity: 1;"><rect  id="v-684" rx="20" ry="20" stroke-width="2" pointer-events="visiblePainted" fill="#85bbf0" stroke="#78a8d8" stroke-dasharray="" width="450" height="300" style="fill: rgb(133, 187, 240); stroke: rgb(120, 168, 216);"></rect><text  id="v-685" font-size="33.599999999999994px" xml:space="preserve" y="86.9" font-weight="bold" text-anchor="middle" pointer-events="visible" font-family="Tahoma, Verdana, Helvetica, Arial" fill="#000000" dominant-baseline="hanging" transform="matrix(1,0,0,1,225,0)" style="fill: rgb(0, 0, 0);"><tspan dy="0" >BucketRepository port</tspan></text><text  id="v-686" font-size="16.799999999999997px" xml:space="preserve" y="128.5" text-anchor="middle" font-family="Tahoma, Verdana, Helvetica, Arial" fill="#000000" dominant-baseline="hanging" transform="matrix(1,0,0,1,225,0)" style="display: block; fill: rgb(0, 0, 0);"><tspan dy="0" >[Component: Domain repository interface]</tspan></text><text  id="v-687" font-size="24px" xml:space="preserve" y="160.3" text-anchor="middle" font-family="Tahoma, Verdana, Helvetica, Arial" fill="#000000" dominant-baseline="hanging" transform="matrix(1,0,0,1,225,0)" style="display: block; fill: rgb(0, 0, 0);"><tspan dy="0" >Domain repository port for bucket</tspan><tspan dy="1.2em" x="0" >aggregate persistence.</tspan></text><g  id="v-688" color="#000000" transform="matrix(1,0,0,1,222.5,268)" display="none" style="fill: rgb(0, 0, 0);"><g ></g><g ></g><g ></g><g ></g></g><image  id="v-689"></image></g></g><!--z-index:30--><g   id="j_62"  style="opacity: 1;"><path fill="none" cursor="pointer" stroke="transparent" stroke-linecap="round" joint-selector="wrapper" id="v-737" stroke-width="10" stroke-linejoin="round" d="M 3170 714.58 L 3510 716.04"></path><path fill="none" pointer-events="none" joint-selector="line" id="v-736" stroke="#444444" stroke-width="2" stroke-linejoin="round" stroke-dasharray="8 8" d="M 3170 714.58 L 3510 716.04" marker-end="url(#v-21252848929)"></path><g id="v-726" ><g id="v-727"  label-idx="0" cursor="move" transform="matrix(1,0,0,1,3340,701.9099731445312)" style="cursor: default;"><rect joint-selector="rect" id="v-731" fill="#ffffff" rx="3" ry="3" x="-85.24304962158203" y="-15.022221565246582" width="172.36717224121094" height="27.77777671813965" pointer-events="none"  style="display: block;"></rect><text joint-selector="text" id="v-730" font-size="24px" xml:space="preserve" fill="#444444" text-anchor="middle" pointer-events="none" font-family="Tahoma, Verdana, Helvetica, Arial" font-weight="normal"  style="display: block;"><tspan dy="0.3em" >Implemented by</tspan></text></g><g id="v-728"  label-idx="1" cursor="move" transform="matrix(1,0,0,1,3340,732.3099975585938)" style="cursor: default;"><rect joint-selector="rect" id="v-733" fill="#ffffff" rx="3" ry="3" x="-47.96006774902344" y="-8.848888397216797" width="96.7998046875" height="16.66666603088379"  pointer-events="none" style="display: block;"></rect><text joint-selector="text" id="v-732" font-size="16.799999999999997px" xml:space="preserve" fill="#444444" text-anchor="middle" pointer-events="none" font-family="Tahoma, Verdana, Helvetica, Arial" font-weight="normal"  style="display: block;"><tspan dy="0.3em" >[Implements]</tspan></text></g><g id="v-729"  label-idx="2" cursor="move" transform="matrix(1,0,0,1,3330,740.7100219726562)" style="cursor: default;"><rect joint-selector="rect" id="v-735" fill="#ffffff" rx="3" ry="3" x="0" y="0" width="0" height="0"  display="none"></rect><text joint-selector="text" id="v-734" fill="#000000" font-size="14" text-anchor="middle" text-vertical-anchor="middle" pointer-events="none"></text></g></g></g><!--z-index:31--><g   id="j_63"  style="opacity: 1;"><path fill="none" cursor="pointer" stroke="transparent" stroke-linecap="round" joint-selector="wrapper" id="v-755" stroke-width="10" stroke-linejoin="round" d="M 700 830.92 L 861 912 C 867 915.3333333333333 873.3333333333333 916.9999999999999 880 917 L 1090 917"></path><path fill="none" pointer-events="none" joint-selector="line" id="v-754" stroke="#444444" stroke-width="2" stroke-linejoin="round" stroke-dasharray="8 8" d="M 700 830.92 L 861 912 C 867 915.3333333333333 873.3333333333333 916.9999999999999 880 917 L 1090 917" marker-end="url(#v-21252848929)"></path><g id="v-744" ><g id="v-745"  label-idx="0" cursor="move" transform="matrix(1,0,0,1,870.32421875,902.3694458007812)" style="cursor: default;"><rect joint-selector="rect" id="v-749" fill="#ffffff" rx="3" ry="3" x="-87.890625" y="-43.82221984863281" width="175.78125" height="85.37777709960938" pointer-events="none"  style="display: block;"></rect><text joint-selector="text" id="v-748" font-size="24px" xml:space="preserve" fill="#444444" text-anchor="middle" pointer-events="none" font-family="Tahoma, Verdana, Helvetica, Arial" font-weight="normal"  style="display: block;"><tspan dy="-0.8999999999999999em" >Calls bucket</tspan><tspan dy="1.2em" x="0" >lifecycle and</tspan><tspan dy="1.2em" x="0" >listing use cases</tspan></text></g><g id="v-746"  label-idx="1" cursor="move" transform="matrix(1,0,0,1,870.32421875,961.5694580078125)" style="cursor: default;"><rect joint-selector="rect" id="v-751" fill="#ffffff" rx="3" ry="3" x="-70.3125" y="-8.848888397216797" width="141.48936462402344" height="16.66666603088379"  pointer-events="none" style="display: block;"></rect><text joint-selector="text" id="v-750" font-size="16.799999999999997px" xml:space="preserve" fill="#444444" text-anchor="middle" pointer-events="none" font-family="Tahoma, Verdana, Helvetica, Arial" font-weight="normal"  style="display: block;"><tspan dy="0.3em" >[Java service calls]</tspan></text></g><g id="v-747"  label-idx="2" cursor="move" transform="matrix(1,0,0,1,874.9376220703125,971.2000122070312)" style="cursor: default;"><rect joint-selector="rect" id="v-753" fill="#ffffff" rx="3" ry="3" x="0" y="0" width="0" height="0"  display="none"></rect><text joint-selector="text" id="v-752" fill="#000000" font-size="14" text-anchor="middle" text-vertical-anchor="middle" pointer-events="none"></text></g></g></g><!--z-index:32--><g   id="j_64"  style="opacity: 1;"><path fill="none" cursor="pointer" stroke="transparent" stroke-linecap="round" joint-selector="wrapper" id="v-773" stroke-width="10" stroke-linejoin="round" d="M 633 567 L 863 349 C 867.6666666666666 344.3333333333333 873.3333333333333 342 880 342 L 1880 342"></path><path fill="none" pointer-events="none" joint-selector="line" id="v-772" stroke="#444444" stroke-width="2" stroke-linejoin="round" stroke-dasharray="8 8" d="M 633 567 L 863 349 C 867.6666666666666 344.3333333333333 873.3333333333333 342 880 342 L 1880 342" marker-end="url(#v-21252848929)"></path><g id="v-762" ><g id="v-763"  label-idx="0" cursor="move" transform="matrix(1,0,0,1,1315.4227294921875,328.6000061035156)" style="cursor: default;"><rect joint-selector="rect" id="v-767" fill="#ffffff" rx="3" ry="3" x="-95.8767318725586" y="-29.42222023010254" width="192.31295776367188" height="56.57777786254883" pointer-events="none"  style="display: block;"></rect><text joint-selector="text" id="v-766" font-size="24px" xml:space="preserve" fill="#444444" text-anchor="middle" pointer-events="none" font-family="Tahoma, Verdana, Helvetica, Arial" font-weight="normal"  style="display: block;"><tspan dy="-0.3em" >Calls object listing</tspan><tspan dy="1.2em" x="0" >use cases</tspan></text></g><g id="v-764"  label-idx="1" cursor="move" transform="matrix(1,0,0,1,1315.4227294921875,373.3999938964844)" style="cursor: default;"><rect joint-selector="rect" id="v-769" fill="#ffffff" rx="3" ry="3" x="-70.3125" y="-8.848888397216797" width="141.48936462402344" height="16.66666603088379"  pointer-events="none" style="display: block;"></rect><text joint-selector="text" id="v-768" font-size="16.799999999999997px" xml:space="preserve" fill="#444444" text-anchor="middle" pointer-events="none" font-family="Tahoma, Verdana, Helvetica, Arial" font-weight="normal"  style="display: block;"><tspan dy="0.3em" >[Java service calls]</tspan></text></g><g id="v-765"  label-idx="2" cursor="move" transform="matrix(1,0,0,1,1202.1033935546875,381.79998779296875)" style="cursor: default;"><rect joint-selector="rect" id="v-771" fill="#ffffff" rx="3" ry="3" x="2.2737367544323206e-13" y="0" width="0" height="0"  display="none"></rect><text joint-selector="text" id="v-770" fill="#000000" font-size="14" text-anchor="middle" text-vertical-anchor="middle" pointer-events="none"></text></g></g></g><!--z-index:33--><g   id="j_65"  style="opacity: 1;"><path fill="none" cursor="pointer" stroke="transparent" stroke-linecap="round" joint-selector="wrapper" id="v-791" stroke-width="10" stroke-linejoin="round" d="M 1540 1016.68 L 1701 1088 C 1707 1090.6666666666665 1713.3333333333333 1092 1720 1092 L 1880 1092"></path><path fill="none" pointer-events="none" joint-selector="line" id="v-790" stroke="#444444" stroke-width="2" stroke-linejoin="round" stroke-dasharray="8 8" d="M 1540 1016.68 L 1701 1088 C 1707 1090.6666666666665 1713.3333333333333 1092 1720 1092 L 1880 1092" marker-end="url(#v-21252848929)"></path><g id="v-780" ><g id="v-781"  label-idx="0" cursor="move" transform="matrix(1,0,0,1,1710.212890625,1077.5921630859375)" style="cursor: default;"><rect joint-selector="rect" id="v-785" fill="#ffffff" rx="3" ry="3" x="-98.56770324707031" y="-58.22222137451172" width="197.13540649414062" height="114.17778015136719" pointer-events="none"  style="display: block;"></rect><text joint-selector="text" id="v-784" font-size="24px" xml:space="preserve" fill="#444444" text-anchor="middle" pointer-events="none" font-family="Tahoma, Verdana, Helvetica, Arial" font-weight="normal"  style="display: block;"><tspan dy="-1.4999999999999998em" >Persists and loads</tspan><tspan dy="1.2em" x="0" >bucket aggregates</tspan><tspan dy="1.2em" x="0" >via domain</tspan><tspan dy="1.2em" x="0" >repository port</tspan></text></g><g id="v-782"  label-idx="1" cursor="move" transform="matrix(1,0,0,1,1710.212890625,1151.192138671875)" style="cursor: default;"><rect joint-selector="rect" id="v-787" fill="#ffffff" rx="3" ry="3" x="-83.35503387451172" y="-8.848888397216797" width="167.57667541503906" height="16.66666603088379"  pointer-events="none" style="display: block;"></rect><text joint-selector="text" id="v-786" font-size="16.799999999999997px" xml:space="preserve" fill="#444444" text-anchor="middle" pointer-events="none" font-family="Tahoma, Verdana, Helvetica, Arial" font-weight="normal"  style="display: block;"><tspan dy="0.3em" >[Repository interfaces]</tspan></text></g><g id="v-783"  label-idx="2" cursor="move" transform="matrix(1,0,0,1,1692.5897216796875,1157.272216796875)" style="cursor: default;"><rect joint-selector="rect" id="v-789" fill="#ffffff" rx="3" ry="3" x="0" y="0" width="0" height="0"  display="none"></rect><text joint-selector="text" id="v-788" fill="#000000" font-size="14" text-anchor="middle" text-vertical-anchor="middle" pointer-events="none"></text></g></g></g><!--z-index:34--><g   id="j_66"  style="opacity: 1;"><path fill="none" cursor="pointer" stroke="transparent" stroke-linecap="round" joint-selector="wrapper" id="v-806" stroke-width="10" stroke-linejoin="round" d="M 1540 817.32 L 1701 746 C 1707 743.3333333333333 1713.3333333333333 742 1720 742 L 1880 740.55"></path><path fill="none" pointer-events="none" joint-selector="line" id="v-805" stroke="#444444" stroke-width="2" stroke-linejoin="round" stroke-dasharray="8 8" d="M 1540 817.32 L 1701 746 C 1707 743.3333333333333 1713.3333333333333 742 1720 742 L 1880 740.55" marker-end="url(#v-21252848929)"></path><g id="v-795" ><g id="v-796"  label-idx="0" cursor="move" transform="matrix(1,0,0,1,1710.212890625,729.6078491210938)" style="cursor: default;"><rect joint-selector="rect" id="v-800" fill="#ffffff" rx="3" ry="3" x="-94.53125" y="-72.6222152709961" width="190.73486328125" height="142.977783203125" pointer-events="none"  style="display: block;"></rect><text joint-selector="text" id="v-799" font-size="24px" xml:space="preserve" fill="#444444" text-anchor="middle" pointer-events="none" font-family="Tahoma, Verdana, Helvetica, Arial" font-weight="normal"  style="display: block;"><tspan dy="-2.1em" >Creates/updates</tspan><tspan dy="1.2em" x="0" >bucket aggregate</tspan><tspan dy="1.2em" x="0" >root (emits Object</tspan><tspan dy="1.2em" x="0" >StorageEvent on</tspan><tspan dy="1.2em" x="0" >state transitions)</tspan></text></g><g id="v-797"  label-idx="1" cursor="move" transform="matrix(1,0,0,1,1710.212890625,817.6078491210938)" style="cursor: default;"><rect joint-selector="rect" id="v-802" fill="#ffffff" rx="3" ry="3" x="-41.449649810791016" y="-8.848888397216797" width="83.76841735839844" height="16.66666603088379"  pointer-events="none" style="display: block;"></rect><text joint-selector="text" id="v-801" font-size="16.799999999999997px" xml:space="preserve" fill="#444444" text-anchor="middle" pointer-events="none" font-family="Tahoma, Verdana, Helvetica, Arial" font-weight="normal"  style="display: block;"><tspan dy="0.3em" >[Java calls]</tspan></text></g><g id="v-798"  label-idx="2" cursor="move" transform="matrix(1,0,0,1,1692.5897216796875,828.3277587890625)" style="cursor: default;"><rect joint-selector="rect" id="v-804" fill="#ffffff" rx="3" ry="3" x="0" y="0" width="0" height="0"  display="none"></rect><text joint-selector="text" id="v-803" fill="#000000" font-size="14" text-anchor="middle" text-vertical-anchor="middle" pointer-events="none"></text></g></g></g><!--z-index:35--><g   id="j_67"  style="opacity: 1;"><path fill="none" cursor="pointer" stroke="transparent" stroke-linecap="round" joint-selector="wrapper" id="v-824" stroke-width="10" stroke-linejoin="round" d="M 2330 342 L 2540 342 C 2546.6666666666665 342 2552.333333333333 344.3333333333333 2557 349 L 2761.75 541.22"></path><path fill="none" pointer-events="none" joint-selector="line" id="v-823" stroke="#444444" stroke-width="2" stroke-linejoin="round" stroke-dasharray="8 8" d="M 2330 342 L 2540 342 C 2546.6666666666665 342 2552.333333333333 344.3333333333333 2557 349 L 2761.75 541.22" marker-end="url(#v-21252848929)"></path><g id="v-813" ><g id="v-814"  label-idx="0" cursor="move" transform="matrix(1,0,0,1,2535.090087890625,328.6000061035156)" style="cursor: default;"><rect joint-selector="rect" id="v-818" fill="#ffffff" rx="3" ry="3" x="-81.90103912353516" y="-58.22222137451172" width="164.3303680419922" height="114.17778015136719" pointer-events="none"  style="display: block;"></rect><text joint-selector="text" id="v-817" font-size="24px" xml:space="preserve" fill="#444444" text-anchor="middle" pointer-events="none" font-family="Tahoma, Verdana, Helvetica, Arial" font-weight="normal"  style="display: block;"><tspan dy="-1.4999999999999998em" >CQS command</tspan><tspan dy="1.2em" x="0" >interface for</tspan><tspan dy="1.2em" x="0" >S3Object</tspan><tspan dy="1.2em" x="0" >persistence</tspan></text></g><g id="v-815"  label-idx="1" cursor="move" transform="matrix(1,0,0,1,2535.090087890625,402.20001220703125)" style="cursor: default;"><rect joint-selector="rect" id="v-820" fill="#ffffff" rx="3" ry="3" x="-64.2578125" y="-8.848888397216797" width="129.4069061279297" height="16.66666603088379"  pointer-events="none" style="display: block;"></rect><text joint-selector="text" id="v-819" font-size="16.799999999999997px" xml:space="preserve" fill="#444444" text-anchor="middle" pointer-events="none" font-family="Tahoma, Verdana, Helvetica, Arial" font-weight="normal"  style="display: block;"><tspan dy="0.3em" >[Implemented by]</tspan></text></g><g id="v-816"  label-idx="2" cursor="move" transform="matrix(1,0,0,1,2565.935302734375,435.3764953613281)" style="cursor: default;"><rect joint-selector="rect" id="v-822" fill="#ffffff" rx="3" ry="3" x="0" y="0" width="0" height="0"  display="none"></rect><text joint-selector="text" id="v-821" fill="#000000" font-size="14" text-anchor="middle" text-vertical-anchor="middle" pointer-events="none"></text></g></g></g><!--z-index:36--><g   id="j_68"  style="opacity: 1;"><path fill="none" cursor="pointer" stroke="transparent" stroke-linecap="round" joint-selector="wrapper" id="v-842" stroke-width="10" stroke-linejoin="round" d="M 2330 1092 L 2540 1092 C 2546.6666666666665 1092 2552.333333333333 1089.6666666666665 2557 1085 L 2765.04 886.01"></path><path fill="none" pointer-events="none" joint-selector="line" id="v-841" stroke="#444444" stroke-width="2" stroke-linejoin="round" stroke-dasharray="8 8" d="M 2330 1092 L 2540 1092 C 2546.6666666666665 1092 2552.333333333333 1089.6666666666665 2557 1085 L 2765.04 886.01" marker-end="url(#v-21252848929)"></path><g id="v-831" ><g id="v-832"  label-idx="0" cursor="move" transform="matrix(1,0,0,1,2537.924560546875,1078.5999755859375)" style="cursor: default;"><rect joint-selector="rect" id="v-836" fill="#ffffff" rx="3" ry="3" x="-81.90103912353516" y="-58.22222137451172" width="164.3303680419922" height="114.17778015136719" pointer-events="none"  style="display: block;"></rect><text joint-selector="text" id="v-835" font-size="24px" xml:space="preserve" fill="#444444" text-anchor="middle" pointer-events="none" font-family="Tahoma, Verdana, Helvetica, Arial" font-weight="normal"  style="display: block;"><tspan dy="-1.4999999999999998em" >CQS command</tspan><tspan dy="1.2em" x="0" >interface for</tspan><tspan dy="1.2em" x="0" >Bucket</tspan><tspan dy="1.2em" x="0" >persistence</tspan></text></g><g id="v-833"  label-idx="1" cursor="move" transform="matrix(1,0,0,1,2537.924560546875,1152.199951171875)" style="cursor: default;"><rect joint-selector="rect" id="v-838" fill="#ffffff" rx="3" ry="3" x="-64.2578125" y="-8.848888397216797" width="129.4069061279297" height="16.66666603088379"  pointer-events="none" style="display: block;"></rect><text joint-selector="text" id="v-837" font-size="16.799999999999997px" xml:space="preserve" fill="#444444" text-anchor="middle" pointer-events="none" font-family="Tahoma, Verdana, Helvetica, Arial" font-weight="normal"  style="display: block;"><tspan dy="0.3em" >[Implemented by]</tspan></text></g><g id="v-834"  label-idx="2" cursor="move" transform="matrix(1,0,0,1,2568.314208984375,1133.2130126953125)" style="cursor: default;"><rect joint-selector="rect" id="v-840" fill="#ffffff" rx="3" ry="3" x="-4.547473508864641e-13" y="0" width="0" height="0"  display="none"></rect><text joint-selector="text" id="v-839" fill="#000000" font-size="14" text-anchor="middle" text-vertical-anchor="middle" pointer-events="none"></text></g></g></g><!--z-index:37--><!--z-index:38--><!--z-index:39--><!--z-index:40--><!--z-index:41--><!--z-index:42--><!--z-index:43--><!--z-index:44--><!--z-index:45--><!--z-index:46--><!--z-index:47--><!--z-index:48--><!--z-index:49--><!--z-index:50--><!--z-index:51--><!--z-index:52--><!--z-index:53--><!--z-index:54--><!--z-index:55--><!--z-index:56--><!--z-index:57--><!--z-index:58--><!--z-index:59--><!--z-index:60--><!--z-index:61--><!--z-index:62--><!--z-index:63--><!--z-index:64--><!--z-index:65--><!--z-index:66--><!--z-index:67--><!--z-index:68--><!--z-index:69--><!--z-index:70--><!--z-index:71--><!--z-index:72--><!--z-index:73--></g><g  style="user-select: none;"></g><g ></g><g  display="none"></g></g></svg>