<svg xmlns="http://www.w3.org/2000/svg" xmlns:xlink="http://www.w3.org/1999/xlink" version="1.1" width="3859" height="1758" style="width: 3859px; height: 1758px; background: #ffffff" viewBox="0 0 3859 1758"><style id="v-3" type="text/css">        .joint-element .scalable * {            vector-effect: non-scaling-stroke;        }    </style><defs joint-selector="defs"><marker id="v-21252848929" orient="auto" overflow="visible" markerUnits="userSpaceOnUse"><path id="v-65" stroke="#444444" fill="#444444" transform="rotate(180)" d="M 20 -10 0 0 20 10 Z"></path></marker><marker id="v-2-1424592063" orient="auto" overflow="visible" markerUnits="userSpaceOnUse"><path id="v-2343" stroke="#6b7280" fill="#6b7280" transform="rotate(180)" d="M 20 -10 0 0 20 10 Z"></path></marker></defs><g joint-selector="layers"  transform="matrix(1,0,0,1,0,0)"><g  style="pointer-events: none;"></g><g ></g><g  style="user-select: none;"><!--z-index:0--><!--z-index:1--><!--z-index:2--><!--z-index:3--><!--z-index:4--><!--z-index:5--><!--z-index:6--><!--z-index:7--><!--z-index:8--><!--z-index:9--><!--z-index:10--><!--z-index:11--><!--z-index:12--><!--z-index:13--><!--z-index:14--><!--z-index:15--><g   id="j_232"  transform="translate(20,1714)"><g id="v-3264"><text  id="v-3265" font-size="24px" xml:space="preserve" y="0.8em" font-weight="normal" text-anchor="start" fill="#444444" pointer-events="none" display="block" font-family="Tahoma, Verdana, Helvetica, Arial"><tspan dy="0" >lunedì 13 luglio 2026 alle ore 23:17 Ora legale dell’Europa centrale</tspan></text></g></g><!--z-index:16--><g   id="j_231"  transform="translate(20,1680)"><g id="v-3262"><text  id="v-3263" font-size="24px" xml:space="preserve" y="0.8em" font-weight="normal" text-anchor="start" fill="#444444" pointer-events="none" display="block" font-family="Tahoma, Verdana, Helvetica, Arial"><tspan dy="0" >Reactive repository adapters used by the application capabilities. They store session, ABAC, object lock, metadata/table configuration, legal hold, retention, restore, and select data. Internal ConcurrentHashMap structures are intentionally not shown as C4 components.</tspan></text></g></g><!--z-index:17--><g   id="j_230"  transform="translate(20,1634)"><g id="v-3260"><text  id="v-3261" font-size="36px" xml:space="preserve" y="0.8em" font-weight="normal" text-anchor="start" fill="#444444" pointer-events="none" display="block" font-family="Tahoma, Verdana, Helvetica, Arial"><tspan dy="0" >C3 Component: reactive-infrastructure</tspan></text></g></g><!--z-index:18--><g   id="j_234"  transform="translate(814,143)" style="; opacity: 1;"><g id="v-3282"><rect  id="v-3283" width="2230" height="1358" rx="20" ry="20" stroke-width="2" pointer-events="none" stroke="#0f5eaa" fill="#ffffff" opacity="1" stroke-dasharray=""></rect><text  id="v-3284" font-size="33.599999999999994px" xml:space="preserve" y="1319" font-weight="bold" text-anchor="start" pointer-events="visible" font-family="Tahoma, Verdana, Helvetica, Arial" fill="#1168bd" transform="matrix(1,0,0,1,15,0)"><tspan dy="0" >Magrathea ObjectStore</tspan></text><text  id="v-3285" font-size="16.799999999999997px" xml:space="preserve" y="1343" font-weight="normal" text-anchor="start" pointer-events="visible" font-family="Tahoma, Verdana, Helvetica, Arial" fill="#1168bd" transform="matrix(1,0,0,1,15,0)"><tspan dy="0" >[Software System]</tspan></text><image  id="v-3286" pointer-events="visible"></image></g></g><!--z-index:19--><g   id="j_233"  transform="translate(864,218)" style=""><g  id="v-3275" style="opacity: 1;"><rect  id="v-3276" rx="20" ry="20" stroke-width="2" pointer-events="visiblePainted" fill="#438dd5" stroke="#3c7fc0" stroke-dasharray="" width="450" height="300" style="fill: rgb(67, 141, 213); stroke: rgb(60, 127, 192);"></rect><text  id="v-3277" font-size="33.599999999999994px" xml:space="preserve" y="-9.579999999999984" font-weight="bold" text-anchor="middle" pointer-events="visible" font-family="Tahoma, Verdana, Helvetica, Arial" fill="#ffffff" dominant-baseline="hanging" transform="matrix(1,0,0,1,225,0)" style="fill: rgb(255, 255, 255);"><tspan dy="0" >reactive-object-store</tspan></text><text  id="v-3278" font-size="16.799999999999997px" xml:space="preserve" y="32.02000000000001" text-anchor="middle" font-family="Tahoma, Verdana, Helvetica, Arial" fill="#ffffff" dominant-baseline="hanging" transform="matrix(1,0,0,1,225,0)" style="display: block; fill: rgb(255, 255, 255);"><tspan dy="0" >[Container: Java 21 reactive application/domain</tspan><tspan dy="1.2em" x="0" >services]</tspan></text><text  id="v-3279" font-size="24px" xml:space="preserve" y="83.98" text-anchor="middle" font-family="Tahoma, Verdana, Helvetica, Arial" fill="#ffffff" dominant-baseline="hanging" transform="matrix(1,0,0,1,225,0)" style="display: block; fill: rgb(255, 255, 255);"><tspan dy="0" >Reactive object storage capability</tspan><tspan dy="1.2em" x="0" >for object upload, download,</tspan><tspan dy="1.2em" x="0" >metadata lookup, deletion, multipart</tspan><tspan dy="1.2em" x="0" >workflows, legal hold, retention,</tspan><tspan dy="1.2em" x="0" >torrent, restore, select, Object</tspan><tspan dy="1.2em" x="0" >Lambda, rename, and encryption</tspan><tspan dy="1.2em" x="0" >update using reactive services and</tspan><tspan dy="1.2em" x="0" >domain aggregates.</tspan></text><g  id="v-3280" color="#ffffff" transform="matrix(1,0,0,1,210,268)" display="none" style="fill: rgb(255, 255, 255);"><g  transform="translate(5 0)"><svg xmlns="http://www.w3.org/2000/svg" width="20" height="20" fill="currentColor" viewBox="0 0 16 16"><path fill-rule="evenodd" d="M6.5 12a5.5 5.5 0 1 0 0-11 5.5 5.5 0 0 0 0 11zM13 6.5a6.5 6.5 0 1 1-13 0 6.5 6.5 0 0 1 13 0z"></path><path d="M10.344 11.742c.03.04.062.078.098.115l3.85 3.85a1 1 0 0 0 1.415-1.414l-3.85-3.85a1.007 1.007 0 0 0-.115-.1 6.538 6.538 0 0 1-1.398 1.4z"></path><path fill-rule="evenodd" d="M6.5 3a.5.5 0 0 1 .5.5V6h2.5a.5.5 0 0 1 0 1H7v2.5a.5.5 0 0 1-1 0V7H3.5a.5.5 0 0 1 0-1H6V3.5a.5.5 0 0 1 .5-.5z"></path></svg></g><g ></g><g ></g><g ></g></g><image  id="v-3281"></image></g></g><!--z-index:20--><g   id="j_235"  transform="translate(864,968)" style=""><g  id="v-3296" style="opacity: 1;"><rect  id="v-3297" rx="20" ry="20" stroke-width="2" pointer-events="visiblePainted" fill="#438dd5" stroke="#3c7fc0" stroke-dasharray="" width="450" height="300" style="fill: rgb(67, 141, 213); stroke: rgb(60, 127, 192);"></rect><text  id="v-3298" font-size="33.599999999999994px" xml:space="preserve" y="-15.339999999999975" font-weight="bold" text-anchor="middle" pointer-events="visible" font-family="Tahoma, Verdana, Helvetica, Arial" fill="#ffffff" dominant-baseline="hanging" transform="matrix(1,0,0,1,225,0)" style="fill: rgb(255, 255, 255);"><tspan dy="0" >reactive-</tspan><tspan dy="1.2em" x="0" >bucket-management</tspan></text><text  id="v-3299" font-size="16.799999999999997px" xml:space="preserve" y="66.58000000000001" text-anchor="middle" font-family="Tahoma, Verdana, Helvetica, Arial" fill="#ffffff" dominant-baseline="hanging" transform="matrix(1,0,0,1,225,0)" style="display: block; fill: rgb(255, 255, 255);"><tspan dy="0" >[Container: Java 21 reactive application/domain</tspan><tspan dy="1.2em" x="0" >services]</tspan></text><text  id="v-3300" font-size="24px" xml:space="preserve" y="118.54000000000002" text-anchor="middle" font-family="Tahoma, Verdana, Helvetica, Arial" fill="#ffffff" dominant-baseline="hanging" transform="matrix(1,0,0,1,225,0)" style="display: block; fill: rgb(255, 255, 255);"><tspan dy="0" >Reactive bucket management</tspan><tspan dy="1.2em" x="0" >capability for bucket lifecycle,</tspan><tspan dy="1.2em" x="0" >metadata, configuration,</tspan><tspan dy="1.2em" x="0" >CORS/versioning, bucket-level</tspan><tspan dy="1.2em" x="0" >operations, ABAC, object lock,</tspan><tspan dy="1.2em" x="0" >metadata configuration, and table</tspan><tspan dy="1.2em" x="0" >configuration.</tspan></text><g  id="v-3301" color="#ffffff" transform="matrix(1,0,0,1,210,268)" display="none" style="fill: rgb(255, 255, 255);"><g  transform="translate(5 0)"><svg xmlns="http://www.w3.org/2000/svg" width="20" height="20" fill="currentColor" viewBox="0 0 16 16"><path fill-rule="evenodd" d="M6.5 12a5.5 5.5 0 1 0 0-11 5.5 5.5 0 0 0 0 11zM13 6.5a6.5 6.5 0 1 1-13 0 6.5 6.5 0 0 1 13 0z"></path><path d="M10.344 11.742c.03.04.062.078.098.115l3.85 3.85a1 1 0 0 0 1.415-1.414l-3.85-3.85a1.007 1.007 0 0 0-.115-.1 6.538 6.538 0 0 1-1.398 1.4z"></path><path fill-rule="evenodd" d="M6.5 3a.5.5 0 0 1 .5.5V6h2.5a.5.5 0 0 1 0 1H7v2.5a.5.5 0 0 1-1 0V7H3.5a.5.5 0 0 1 0-1H6V3.5a.5.5 0 0 1 .5-.5z"></path></svg></g><g ></g><g ></g><g ></g></g><image  id="v-3302"></image></g></g><!--z-index:21--><g   id="j_236"  transform="translate(1654,593)" style=""><g  id="v-3312" style="opacity: 1;"><rect  id="v-3313" rx="20" ry="20" stroke-width="2" pointer-events="visiblePainted" fill="#438dd5" stroke="#3c7fc0" stroke-dasharray="" width="450" height="300" style="fill: rgb(67, 141, 213); stroke: rgb(60, 127, 192);"></rect><text  id="v-3314" font-size="33.599999999999994px" xml:space="preserve" y="-19.659999999999968" font-weight="bold" text-anchor="middle" pointer-events="visible" font-family="Tahoma, Verdana, Helvetica, Arial" fill="#ffffff" dominant-baseline="hanging" transform="matrix(1,0,0,1,225,0)" style="fill: rgb(255, 255, 255);"><tspan dy="0" >reactive-</tspan><tspan dy="1.2em" x="0" >repository-application</tspan></text><text  id="v-3315" font-size="16.799999999999997px" xml:space="preserve" y="62.26000000000002" text-anchor="middle" font-family="Tahoma, Verdana, Helvetica, Arial" fill="#ffffff" dominant-baseline="hanging" transform="matrix(1,0,0,1,225,0)" style="display: block; fill: rgb(255, 255, 255);"><tspan dy="0" >[Container: Java 21 CQS interfaces]</tspan></text><text  id="v-3316" font-size="24px" xml:space="preserve" y="94.06000000000002" text-anchor="middle" font-family="Tahoma, Verdana, Helvetica, Arial" fill="#ffffff" dominant-baseline="hanging" transform="matrix(1,0,0,1,225,0)" style="display: block; fill: rgb(255, 255, 255);"><tspan dy="0" >Command/Query repository</tspan><tspan dy="1.2em" x="0" >interfaces:</tspan><tspan dy="1.2em" x="0" >BucketCommandRepository,</tspan><tspan dy="1.2em" x="0" >BucketQueryRepository,</tspan><tspan dy="1.2em" x="0" >S3ObjectCommandRepository,</tspan><tspan dy="1.2em" x="0" >S3ObjectQueryRepository, Multipart</tspan><tspan dy="1.2em" x="0" >UploadCommandRepository,</tspan><tspan dy="1.2em" x="0" >MultipartUploadQueryRepository.</tspan></text><g  id="v-3317" color="#ffffff" transform="matrix(1,0,0,1,210,268)" display="none" style="fill: rgb(255, 255, 255);"><g  transform="translate(5 0)"><svg xmlns="http://www.w3.org/2000/svg" width="20" height="20" fill="currentColor" viewBox="0 0 16 16"><path fill-rule="evenodd" d="M6.5 12a5.5 5.5 0 1 0 0-11 5.5 5.5 0 0 0 0 11zM13 6.5a6.5 6.5 0 1 1-13 0 6.5 6.5 0 0 1 13 0z"></path><path d="M10.344 11.742c.03.04.062.078.098.115l3.85 3.85a1 1 0 0 0 1.415-1.414l-3.85-3.85a1.007 1.007 0 0 0-.115-.1 6.538 6.538 0 0 1-1.398 1.4z"></path><path fill-rule="evenodd" d="M6.5 3a.5.5 0 0 1 .5.5V6h2.5a.5.5 0 0 1 0 1H7v2.5a.5.5 0 0 1-1 0V7H3.5a.5.5 0 0 1 0-1H6V3.5a.5.5 0 0 1 .5-.5z"></path></svg></g><g ></g><g ></g><g ></g></g><image  id="v-3318"></image></g></g><!--z-index:22--><g   id="j_238"  transform="translate(2444,193)" style="; opacity: 1;"><g id="v-3335"><rect  id="v-3336" width="550" height="1179" rx="0" ry="0" stroke-width="2" pointer-events="none" stroke="#3c7fc0" fill="#ffffff" opacity="1" stroke-dasharray=""></rect><text  id="v-3337" font-size="33.599999999999994px" xml:space="preserve" y="1140" font-weight="bold" text-anchor="start" pointer-events="visible" font-family="Tahoma, Verdana, Helvetica, Arial" fill="#438dd5" transform="matrix(1,0,0,1,15,0)"><tspan dy="0" >reactive-infrastructure</tspan></text><text  id="v-3338" font-size="16.799999999999997px" xml:space="preserve" y="1164" font-weight="normal" text-anchor="start" pointer-events="visible" font-family="Tahoma, Verdana, Helvetica, Arial" fill="#438dd5" transform="matrix(1,0,0,1,15,0)"><tspan dy="0" >[Container]</tspan></text><image  id="v-3339" pointer-events="visible"></image></g></g><!--z-index:23--><g   id="j_237"  transform="translate(2494,243)" style=""><g  id="v-3328" style="opacity: 1;"><rect  id="v-3329" rx="20" ry="20" stroke-width="2" pointer-events="visiblePainted" fill="#85bbf0" stroke="#78a8d8" stroke-dasharray="" width="450" height="300" style="fill: rgb(133, 187, 240); stroke: rgb(120, 168, 216);"></rect><text  id="v-3330" font-size="33.599999999999994px" xml:space="preserve" y="-19.659999999999968" font-weight="bold" text-anchor="middle" pointer-events="visible" font-family="Tahoma, Verdana, Helvetica, Arial" fill="#000000" dominant-baseline="hanging" transform="matrix(1,0,0,1,225,0)" style="fill: rgb(0, 0, 0);"><tspan dy="0" >InMemoryReactiveBucket</tspan><tspan dy="1.2em" x="0" >Repository</tspan></text><text  id="v-3331" font-size="16.799999999999997px" xml:space="preserve" y="62.26000000000002" text-anchor="middle" font-family="Tahoma, Verdana, Helvetica, Arial" fill="#000000" dominant-baseline="hanging" transform="matrix(1,0,0,1,225,0)" style="display: block; fill: rgb(0, 0, 0);"><tspan dy="0" >[Component: Spring @Repository]</tspan></text><text  id="v-3332" font-size="24px" xml:space="preserve" y="94.06000000000002" text-anchor="middle" font-family="Tahoma, Verdana, Helvetica, Arial" fill="#000000" dominant-baseline="hanging" transform="matrix(1,0,0,1,225,0)" style="display: block; fill: rgb(0, 0, 0);"><tspan dy="0" >In-memory reactive implementation</tspan><tspan dy="1.2em" x="0" >of BucketCommandRepository and</tspan><tspan dy="1.2em" x="0" >BucketQueryRepository. Stores</tspan><tspan dy="1.2em" x="0" >bucket aggregates in</tspan><tspan dy="1.2em" x="0" >ConcurrentHashMap structures,</tspan><tspan dy="1.2em" x="0" >including session, ABAC, object</tspan><tspan dy="1.2em" x="0" >lock, and metadata/table</tspan><tspan dy="1.2em" x="0" >configuration state.</tspan></text><g  id="v-3333" color="#000000" transform="matrix(1,0,0,1,222.5,268)" display="none" style="fill: rgb(0, 0, 0);"><g ></g><g ></g><g ></g><g ></g></g><image  id="v-3334"></image></g></g><!--z-index:24--><g   id="j_239"  transform="translate(2494,593)" style=""><g  id="v-3349" style="opacity: 1;"><rect  id="v-3350" rx="20" ry="20" stroke-width="2" pointer-events="visiblePainted" fill="#85bbf0" stroke="#78a8d8" stroke-dasharray="" width="450" height="300" style="fill: rgb(133, 187, 240); stroke: rgb(120, 168, 216);"></rect><text  id="v-3351" font-size="33.599999999999994px" xml:space="preserve" y="-19.659999999999968" font-weight="bold" text-anchor="middle" pointer-events="visible" font-family="Tahoma, Verdana, Helvetica, Arial" fill="#000000" dominant-baseline="hanging" transform="matrix(1,0,0,1,225,0)" style="fill: rgb(0, 0, 0);"><tspan dy="0" >InMemoryReactiveS3Obj</tspan><tspan dy="1.2em" x="0" >ectRepository</tspan></text><text  id="v-3352" font-size="16.799999999999997px" xml:space="preserve" y="62.26000000000002" text-anchor="middle" font-family="Tahoma, Verdana, Helvetica, Arial" fill="#000000" dominant-baseline="hanging" transform="matrix(1,0,0,1,225,0)" style="display: block; fill: rgb(0, 0, 0);"><tspan dy="0" >[Component: Spring @Repository]</tspan></text><text  id="v-3353" font-size="24px" xml:space="preserve" y="94.06000000000002" text-anchor="middle" font-family="Tahoma, Verdana, Helvetica, Arial" fill="#000000" dominant-baseline="hanging" transform="matrix(1,0,0,1,225,0)" style="display: block; fill: rgb(0, 0, 0);"><tspan dy="0" >In-memory reactive implementation</tspan><tspan dy="1.2em" x="0" >of S3ObjectCommandRepository</tspan><tspan dy="1.2em" x="0" >and S3ObjectQueryRepository.</tspan><tspan dy="1.2em" x="0" >Stores object metadata and raw</tspan><tspan dy="1.2em" x="0" >object bytes in ConcurrentHashMap</tspan><tspan dy="1.2em" x="0" >structures, including legal hold,</tspan><tspan dy="1.2em" x="0" >retention, restore, and select</tspan><tspan dy="1.2em" x="0" >request/response state.</tspan></text><g  id="v-3354" color="#000000" transform="matrix(1,0,0,1,222.5,268)" display="none" style="fill: rgb(0, 0, 0);"><g ></g><g ></g><g ></g><g ></g></g><image  id="v-3355"></image></g></g><!--z-index:25--><g   id="j_240"  transform="translate(2494,943)" style=""><g  id="v-3365" style="opacity: 1;"><rect  id="v-3366" rx="20" ry="20" stroke-width="2" pointer-events="visiblePainted" fill="#85bbf0" stroke="#78a8d8" stroke-dasharray="" width="450" height="300" style="fill: rgb(133, 187, 240); stroke: rgb(120, 168, 216);"></rect><text  id="v-3367" font-size="33.599999999999994px" xml:space="preserve" y="-5.259999999999991" font-weight="bold" text-anchor="middle" pointer-events="visible" font-family="Tahoma, Verdana, Helvetica, Arial" fill="#000000" dominant-baseline="hanging" transform="matrix(1,0,0,1,225,0)" style="fill: rgb(0, 0, 0);"><tspan dy="0" >InMemoryReactiveMultipa</tspan><tspan dy="1.2em" x="0" >rtUploadRepository</tspan></text><text  id="v-3368" font-size="16.799999999999997px" xml:space="preserve" y="76.66" text-anchor="middle" font-family="Tahoma, Verdana, Helvetica, Arial" fill="#000000" dominant-baseline="hanging" transform="matrix(1,0,0,1,225,0)" style="display: block; fill: rgb(0, 0, 0);"><tspan dy="0" >[Component: Spring @Repository]</tspan></text><text  id="v-3369" font-size="24px" xml:space="preserve" y="108.46" text-anchor="middle" font-family="Tahoma, Verdana, Helvetica, Arial" fill="#000000" dominant-baseline="hanging" transform="matrix(1,0,0,1,225,0)" style="display: block; fill: rgb(0, 0, 0);"><tspan dy="0" >In-memory reactive implementation</tspan><tspan dy="1.2em" x="0" >of MultipartUploadCommandReposit</tspan><tspan dy="1.2em" x="0" >ory and</tspan><tspan dy="1.2em" x="0" >MultipartUploadQueryRepository.</tspan><tspan dy="1.2em" x="0" >Internally stores multipart upload</tspan><tspan dy="1.2em" x="0" >sessions in a ConcurrentHashMap</tspan><tspan dy="1.2em" x="0" >structure.</tspan></text><g  id="v-3370" color="#000000" transform="matrix(1,0,0,1,222.5,268)" display="none" style="fill: rgb(0, 0, 0);"><g ></g><g ></g><g ></g><g ></g></g><image  id="v-3371"></image></g></g><!--z-index:26--><g   id="j_241"  style="opacity: 1;"><path fill="none" cursor="pointer" stroke="transparent" stroke-linecap="round" joint-selector="wrapper" id="v-3389" stroke-width="10" stroke-linejoin="round" d="M 1314 366.55 L 1474 368 C 1480.6666666666665 368 1486.3333333333333 370.3333333333333 1491 375 L 1695.75 567.22"></path><path fill="none" pointer-events="none" joint-selector="line" id="v-3388" stroke="#444444" stroke-width="2" stroke-linejoin="round" stroke-dasharray="8 8" d="M 1314 366.55 L 1474 368 C 1480.6666666666665 368 1486.3333333333333 370.3333333333333 1491 375 L 1695.75 567.22" marker-end="url(#v-21252848929)"></path><g id="v-3378" ><g id="v-3379"  label-idx="0" cursor="move" transform="matrix(1,0,0,1,1471.3148193359375,354.5756530761719)" style="cursor: default;"><rect joint-selector="rect" id="v-3383" fill="#ffffff" rx="3" ry="3" x="-81.90103912353516" y="-58.22222137451172" width="164.3303680419922" height="114.17778015136719" pointer-events="none"  style="display: block;"></rect><text joint-selector="text" id="v-3382" font-size="24px" xml:space="preserve" fill="#444444" text-anchor="middle" pointer-events="none" font-family="Tahoma, Verdana, Helvetica, Arial" font-weight="normal"  style="display: block;"><tspan dy="-1.4999999999999998em" >CQS command</tspan><tspan dy="1.2em" x="0" >interface for</tspan><tspan dy="1.2em" x="0" >S3Object</tspan><tspan dy="1.2em" x="0" >persistence</tspan></text></g><g id="v-3380"  label-idx="1" cursor="move" transform="matrix(1,0,0,1,1471.3148193359375,428.1756591796875)" style="cursor: default;"><rect joint-selector="rect" id="v-3385" fill="#ffffff" rx="3" ry="3" x="-64.2578125" y="-8.848888397216797" width="129.4069061279297" height="16.66666603088379"  pointer-events="none" style="display: block;"></rect><text joint-selector="text" id="v-3384" font-size="16.799999999999997px" xml:space="preserve" fill="#444444" text-anchor="middle" pointer-events="none" font-family="Tahoma, Verdana, Helvetica, Arial" font-weight="normal"  style="display: block;"><tspan dy="0.3em" >[Implemented by]</tspan></text></g><g id="v-3381"  label-idx="2" cursor="move" transform="matrix(1,0,0,1,1518.159423828125,478.48541259765625)" style="cursor: default;"><rect joint-selector="rect" id="v-3387" fill="#ffffff" rx="3" ry="3" x="0" y="0" width="0" height="0"  display="none"></rect><text joint-selector="text" id="v-3386" fill="#000000" font-size="14" text-anchor="middle" text-vertical-anchor="middle" pointer-events="none"></text></g></g></g><!--z-index:27--><g   id="j_242"  style="opacity: 1;"><path fill="none" cursor="pointer" stroke="transparent" stroke-linecap="round" joint-selector="wrapper" id="v-3407" stroke-width="10" stroke-linejoin="round" d="M 1314 1116.55 L 1474 1118 C 1480.6666666666665 1118 1486.3333333333333 1115.6666666666665 1491 1111 L 1699.04 912.01"></path><path fill="none" pointer-events="none" joint-selector="line" id="v-3406" stroke="#444444" stroke-width="2" stroke-linejoin="round" stroke-dasharray="8 8" d="M 1314 1116.55 L 1474 1118 C 1480.6666666666665 1118 1486.3333333333333 1115.6666666666665 1491 1111 L 1699.04 912.01" marker-end="url(#v-21252848929)"></path><g id="v-3396" ><g id="v-3397"  label-idx="0" cursor="move" transform="matrix(1,0,0,1,1473.7254638671875,1104.5975341796875)" style="cursor: default;"><rect joint-selector="rect" id="v-3401" fill="#ffffff" rx="3" ry="3" x="-81.90103912353516" y="-58.22222137451172" width="164.3303680419922" height="114.17778015136719" pointer-events="none"  style="display: block;"></rect><text joint-selector="text" id="v-3400" font-size="24px" xml:space="preserve" fill="#444444" text-anchor="middle" pointer-events="none" font-family="Tahoma, Verdana, Helvetica, Arial" font-weight="normal"  style="display: block;"><tspan dy="-1.4999999999999998em" >CQS command</tspan><tspan dy="1.2em" x="0" >interface for</tspan><tspan dy="1.2em" x="0" >Bucket</tspan><tspan dy="1.2em" x="0" >persistence</tspan></text></g><g id="v-3398"  label-idx="1" cursor="move" transform="matrix(1,0,0,1,1473.7254638671875,1178.197509765625)" style="cursor: default;"><rect joint-selector="rect" id="v-3403" fill="#ffffff" rx="3" ry="3" x="-64.2578125" y="-8.848888397216797" width="129.4069061279297" height="16.66666603088379"  pointer-events="none" style="display: block;"></rect><text joint-selector="text" id="v-3402" font-size="16.799999999999997px" xml:space="preserve" fill="#444444" text-anchor="middle" pointer-events="none" font-family="Tahoma, Verdana, Helvetica, Arial" font-weight="normal"  style="display: block;"><tspan dy="0.3em" >[Implemented by]</tspan></text></g><g id="v-3399"  label-idx="2" cursor="move" transform="matrix(1,0,0,1,1520.3780517578125,1141.9349365234375)" style="cursor: default;"><rect joint-selector="rect" id="v-3405" fill="#ffffff" rx="3" ry="3" x="0" y="0" width="0" height="0"  display="none"></rect><text joint-selector="text" id="v-3404" fill="#000000" font-size="14" text-anchor="middle" text-vertical-anchor="middle" pointer-events="none"></text></g></g></g><!--z-index:28--><g   id="j_243"  style="opacity: 1;"><path fill="none" cursor="pointer" stroke="transparent" stroke-linecap="round" joint-selector="wrapper" id="v-3422" stroke-width="10" stroke-linejoin="round" d="M 2075.46 567.22 L 2266 400 C 2271.333333333333 395.3333333333333 2277.333333333333 393 2284 393 L 2494 391.33"></path><path fill="none" pointer-events="none" joint-selector="line" id="v-3421" stroke="#444444" stroke-width="2" stroke-linejoin="round" stroke-dasharray="8 8" d="M 2075.46 567.22 L 2266 400 C 2271.333333333333 395.3333333333333 2277.333333333333 393 2284 393 L 2494 391.33" marker-end="url(#v-21252848929)"></path><g id="v-3411" ><g id="v-3412"  label-idx="0" cursor="move" transform="matrix(1,0,0,1,2290.161376953125,379.5509948730469)" style="cursor: default;"><rect joint-selector="rect" id="v-3416" fill="#ffffff" rx="3" ry="3" x="-85.24304962158203" y="-15.022221565246582" width="172.36717224121094" height="27.77777671813965" pointer-events="none"  style="display: block;"></rect><text joint-selector="text" id="v-3415" font-size="24px" xml:space="preserve" fill="#444444" text-anchor="middle" pointer-events="none" font-family="Tahoma, Verdana, Helvetica, Arial" font-weight="normal"  style="display: block;"><tspan dy="0.3em" >Implemented by</tspan></text></g><g id="v-3413"  label-idx="1" cursor="move" transform="matrix(1,0,0,1,2290.161376953125,409.95098876953125)" style="cursor: default;"><rect joint-selector="rect" id="v-3418" fill="#ffffff" rx="3" ry="3" x="-47.96006774902344" y="-8.848888397216797" width="96.7998046875" height="16.66666603088379"  pointer-events="none" style="display: block;"></rect><text joint-selector="text" id="v-3417" font-size="16.799999999999997px" xml:space="preserve" fill="#444444" text-anchor="middle" pointer-events="none" font-family="Tahoma, Verdana, Helvetica, Arial" font-weight="normal"  style="display: block;"><tspan dy="0.3em" >[Implements]</tspan></text></g><g id="v-3414"  label-idx="2" cursor="move" transform="matrix(1,0,0,1,2247.0751953125,433.2324523925781)" style="cursor: default;"><rect joint-selector="rect" id="v-3420" fill="#ffffff" rx="3" ry="3" x="0" y="0" width="0" height="0"  display="none"></rect><text joint-selector="text" id="v-3419" fill="#000000" font-size="14" text-anchor="middle" text-vertical-anchor="middle" pointer-events="none"></text></g></g></g><!--z-index:29--><g   id="j_244"  style="opacity: 1;"><path fill="none" cursor="pointer" stroke="transparent" stroke-linecap="round" joint-selector="wrapper" id="v-3437" stroke-width="10" stroke-linejoin="round" d="M 2104 739.62 L 2494 739.62"></path><path fill="none" pointer-events="none" joint-selector="line" id="v-3436" stroke="#444444" stroke-width="2" stroke-linejoin="round" stroke-dasharray="8 8" d="M 2104 739.62 L 2494 739.62" marker-end="url(#v-21252848929)"></path><g id="v-3426" ><g id="v-3427"  label-idx="0" cursor="move" transform="matrix(1,0,0,1,2274,726.219970703125)" style="cursor: default;"><rect joint-selector="rect" id="v-3431" fill="#ffffff" rx="3" ry="3" x="-85.24304962158203" y="-15.022221565246582" width="172.36717224121094" height="27.77777671813965" pointer-events="none"  style="display: block;"></rect><text joint-selector="text" id="v-3430" font-size="24px" xml:space="preserve" fill="#444444" text-anchor="middle" pointer-events="none" font-family="Tahoma, Verdana, Helvetica, Arial" font-weight="normal"  style="display: block;"><tspan dy="0.3em" >Implemented by</tspan></text></g><g id="v-3428"  label-idx="1" cursor="move" transform="matrix(1,0,0,1,2274,756.6199951171875)" style="cursor: default;"><rect joint-selector="rect" id="v-3433" fill="#ffffff" rx="3" ry="3" x="-47.96006774902344" y="-8.848888397216797" width="96.7998046875" height="16.66666603088379"  pointer-events="none" style="display: block;"></rect><text joint-selector="text" id="v-3432" font-size="16.799999999999997px" xml:space="preserve" fill="#444444" text-anchor="middle" pointer-events="none" font-family="Tahoma, Verdana, Helvetica, Arial" font-weight="normal"  style="display: block;"><tspan dy="0.3em" >[Implements]</tspan></text></g><g id="v-3429"  label-idx="2" cursor="move" transform="matrix(1,0,0,1,2289,765.02001953125)" style="cursor: default;"><rect joint-selector="rect" id="v-3435" fill="#ffffff" rx="3" ry="3" x="-4.547473508864641e-13" y="0" width="0" height="0"  display="none"></rect><text joint-selector="text" id="v-3434" fill="#000000" font-size="14" text-anchor="middle" text-vertical-anchor="middle" pointer-events="none"></text></g></g></g><!--z-index:30--><g   id="j_245"  style="opacity: 1;"><path fill="none" cursor="pointer" stroke="transparent" stroke-linecap="round" joint-selector="wrapper" id="v-3452" stroke-width="10" stroke-linejoin="round" d="M 2071.69 912.01 L 2267 1086 C 2271.6666666666665 1090.6666666666665 2277.333333333333 1093 2284 1093 L 2494 1091.33"></path><path fill="none" pointer-events="none" joint-selector="line" id="v-3451" stroke="#444444" stroke-width="2" stroke-linejoin="round" stroke-dasharray="8 8" d="M 2071.69 912.01 L 2267 1086 C 2271.6666666666665 1090.6666666666665 2277.333333333333 1093 2284 1093 L 2494 1091.33" marker-end="url(#v-21252848929)"></path><g id="v-3441" ><g id="v-3442"  label-idx="0" cursor="move" transform="matrix(1,0,0,1,2287.12548828125,1079.5751953125)" style="cursor: default;"><rect joint-selector="rect" id="v-3446" fill="#ffffff" rx="3" ry="3" x="-85.24304962158203" y="-15.022221565246582" width="172.36717224121094" height="27.77777671813965" pointer-events="none"  style="display: block;"></rect><text joint-selector="text" id="v-3445" font-size="24px" xml:space="preserve" fill="#444444" text-anchor="middle" pointer-events="none" font-family="Tahoma, Verdana, Helvetica, Arial" font-weight="normal"  style="display: block;"><tspan dy="0.3em" >Implemented by</tspan></text></g><g id="v-3443"  label-idx="1" cursor="move" transform="matrix(1,0,0,1,2287.12548828125,1109.97509765625)" style="cursor: default;"><rect joint-selector="rect" id="v-3448" fill="#ffffff" rx="3" ry="3" x="-47.96006774902344" y="-8.848888397216797" width="96.7998046875" height="16.66666603088379"  pointer-events="none" style="display: block;"></rect><text joint-selector="text" id="v-3447" font-size="16.799999999999997px" xml:space="preserve" fill="#444444" text-anchor="middle" pointer-events="none" font-family="Tahoma, Verdana, Helvetica, Arial" font-weight="normal"  style="display: block;"><tspan dy="0.3em" >[Implements]</tspan></text></g><g id="v-3444"  label-idx="2" cursor="move" transform="matrix(1,0,0,1,2244.803955078125,1100.535400390625)" style="cursor: default;"><rect joint-selector="rect" id="v-3450" fill="#ffffff" rx="3" ry="3" x="-4.547473508864641e-13" y="0" width="0" height="0"  display="none"></rect><text joint-selector="text" id="v-3449" fill="#000000" font-size="14" text-anchor="middle" text-vertical-anchor="middle" pointer-events="none"></text></g></g></g><!--z-index:31--><!--z-index:32--><!--z-index:33--><!--z-index:34--><!--z-index:35--><!--z-index:36--><!--z-index:37--><!--z-index:38--><!--z-index:39--><!--z-index:40--><!--z-index:41--><!--z-index:42--><!--z-index:43--><!--z-index:44--><!--z-index:45--><!--z-index:46--><!--z-index:47--><!--z-index:48--><!--z-index:49--><!--z-index:50--><!--z-index:51--><!--z-index:52--><!--z-index:53--><!--z-index:54--><!--z-index:55--><!--z-index:56--><!--z-index:57--><!--z-index:58--><!--z-index:59--><!--z-index:60--><!--z-index:61--><!--z-index:62--><!--z-index:63--><!--z-index:64--><!--z-index:65--><!--z-index:66--><!--z-index:67--><!--z-index:68--><!--z-index:69--><!--z-index:70--><!--z-index:71--><!--z-index:72--><!--z-index:73--><!--z-index:74--><!--z-index:75--><!--z-index:76--><!--z-index:77--><!--z-index:78--><!--z-index:79--><!--z-index:80--><!--z-index:81--></g><g  style="user-select: none;"></g><g ></g><g  display="none"></g></g></svg>