<svg xmlns="http://www.w3.org/2000/svg" xmlns:xlink="http://www.w3.org/1999/xlink" version="1.1" width="4210" height="1758" style="width: 4210px; height: 1758px; background: #ffffff" viewBox="0 0 4210 1758"><style id="v-3" type="text/css">        .joint-element .scalable * {            vector-effect: non-scaling-stroke;        }    </style><defs joint-selector="defs"><marker id="v-21252848929" orient="auto" overflow="visible" markerUnits="userSpaceOnUse"><path id="v-52" stroke="#444444" fill="#444444" transform="rotate(180)" d="M 20 -10 0 0 20 10 Z"></path></marker></defs><g joint-selector="layers"  transform="matrix(1,0,0,1,0,0)"><g  style="pointer-events: none;"></g><g ></g><g  style="user-select: none;"><!--z-index:0--><!--z-index:1--><!--z-index:2--><!--z-index:3--><!--z-index:4--><!--z-index:5--><!--z-index:6--><!--z-index:7--><!--z-index:8--><!--z-index:9--><!--z-index:10--><!--z-index:11--><!--z-index:12--><!--z-index:13--><!--z-index:14--><!--z-index:15--><!--z-index:16--><!--z-index:17--><!--z-index:18--><g   id="j_31"  transform="translate(20,1714)"><g id="v-317"><text  id="v-318" font-size="24px" xml:space="preserve" y="0.8em" font-weight="normal" text-anchor="start" fill="#444444" pointer-events="none" display="block" font-family="Tahoma, Verdana, Helvetica, Arial"><tspan dy="0" >lunedì 25 maggio 2026 alle ore 00:20 Ora legale dell’Europa centrale</tspan></text></g></g><!--z-index:19--><g   id="j_30"  transform="translate(20,1680)"><g id="v-315"><text  id="v-316" font-size="24px" xml:space="preserve" y="0.8em" font-weight="normal" text-anchor="start" fill="#444444" pointer-events="none" display="block" font-family="Tahoma, Verdana, Helvetica, Arial"><tspan dy="0" >Reactive bucket management service, bucket aggregate root with domain events and inline Configuration, and repository port.</tspan></text></g></g><!--z-index:20--><g   id="j_29"  transform="translate(20,1634)"><g id="v-313"><text  id="v-314" font-size="36px" xml:space="preserve" y="0.8em" font-weight="normal" text-anchor="start" fill="#444444" pointer-events="none" display="block" font-family="Tahoma, Verdana, Helvetica, Arial"><tspan dy="0" >C3 Component: reactive-bucket-management</tspan></text></g></g><!--z-index:21--><g   id="j_33"  transform="translate(200,142)" style="; opacity: 1;"><g id="v-335"><rect  id="v-336" width="3810" height="1358" rx="20" ry="20" stroke-width="2" pointer-events="none" stroke="#0f5eaa" fill="#ffffff" opacity="1" stroke-dasharray=""></rect><text  id="v-337" font-size="33.599999999999994px" xml:space="preserve" y="1319" font-weight="bold" text-anchor="start" pointer-events="visible" font-family="Tahoma, Verdana, Helvetica, Arial" fill="#1168bd" transform="matrix(1,0,0,1,15,0)"><tspan dy="0" >Magrathea ObjectStorage</tspan></text><text  id="v-338" font-size="16.799999999999997px" xml:space="preserve" y="1343" font-weight="normal" text-anchor="start" pointer-events="visible" font-family="Tahoma, Verdana, Helvetica, Arial" fill="#1168bd" transform="matrix(1,0,0,1,15,0)"><tspan dy="0" >[Software System]</tspan></text><image  id="v-339" pointer-events="visible"></image></g></g><!--z-index:22--><g   id="j_32"  transform="translate(250,567)" style=""><g  id="v-328" style="opacity: 1;"><rect  id="v-329" rx="20" ry="20" stroke-width="2" pointer-events="visiblePainted" fill="#438dd5" stroke="#3c7fc0" stroke-dasharray="" width="450" height="300" style="fill: rgb(67, 141, 213); stroke: rgb(60, 127, 192);"></rect><text  id="v-330" font-size="33.599999999999994px" xml:space="preserve" y="33.620000000000005" font-weight="bold" text-anchor="middle" pointer-events="visible" font-family="Tahoma, Verdana, Helvetica, Arial" fill="#ffffff" dominant-baseline="hanging" transform="matrix(1,0,0,1,225,0)" style="fill: rgb(255, 255, 255);"><tspan dy="0" >s3-reactive-api-adapter</tspan></text><text  id="v-331" font-size="16.799999999999997px" xml:space="preserve" y="75.22" text-anchor="middle" font-family="Tahoma, Verdana, Helvetica, Arial" fill="#ffffff" dominant-baseline="hanging" transform="matrix(1,0,0,1,225,0)" style="display: block; fill: rgb(255, 255, 255);"><tspan dy="0" >[Container: Spring Boot 4 WebFlux, RouterFunction,</tspan><tspan dy="1.2em" x="0" >Java 21, Jackson XML]</tspan></text><text  id="v-332" font-size="24px" xml:space="preserve" y="127.17999999999999" text-anchor="middle" font-family="Tahoma, Verdana, Helvetica, Arial" fill="#ffffff" dominant-baseline="hanging" transform="matrix(1,0,0,1,225,0)" style="display: block; fill: rgb(255, 255, 255);"><tspan dy="0" >HTTP adapter that exposes the</tspan><tspan dy="1.2em" x="0" >S3-compatible REST API and</tspan><tspan dy="1.2em" x="0" >translates HTTP/XML/binary</tspan><tspan dy="1.2em" x="0" >requests into reactive application</tspan><tspan dy="1.2em" x="0" >use cases.</tspan></text><g  id="v-333" color="#ffffff" transform="matrix(1,0,0,1,210,268)" display="none" style="fill: rgb(255, 255, 255);"><g  transform="translate(5 0)"><svg xmlns="http://www.w3.org/2000/svg" width="20" height="20" fill="currentColor" viewBox="0 0 16 16"><path fill-rule="evenodd" d="M6.5 12a5.5 5.5 0 1 0 0-11 5.5 5.5 0 0 0 0 11zM13 6.5a6.5 6.5 0 1 1-13 0 6.5 6.5 0 0 1 13 0z"></path><path d="M10.344 11.742c.03.04.062.078.098.115l3.85 3.85a1 1 0 0 0 1.415-1.414l-3.85-3.85a1.007 1.007 0 0 0-.115-.1 6.538 6.538 0 0 1-1.398 1.4z"></path><path fill-rule="evenodd" d="M6.5 3a.5.5 0 0 1 .5.5V6h2.5a.5.5 0 0 1 0 1H7v2.5a.5.5 0 0 1-1 0V7H3.5a.5.5 0 0 1 0-1H6V3.5a.5.5 0 0 1 .5-.5z"></path></svg></g><g ></g><g ></g><g ></g></g><image  id="v-334"></image></g></g><!--z-index:23--><g   id="j_34"  transform="translate(1880,192)" style=""><g  id="v-349" style="opacity: 1;"><rect  id="v-350" rx="20" ry="20" stroke-width="2" pointer-events="visiblePainted" fill="#438dd5" stroke="#3c7fc0" stroke-dasharray="" width="450" height="300" style="fill: rgb(67, 141, 213); stroke: rgb(60, 127, 192);"></rect><text  id="v-351" font-size="33.599999999999994px" xml:space="preserve" y="33.620000000000005" font-weight="bold" text-anchor="middle" pointer-events="visible" font-family="Tahoma, Verdana, Helvetica, Arial" fill="#ffffff" dominant-baseline="hanging" transform="matrix(1,0,0,1,225,0)" style="fill: rgb(255, 255, 255);"><tspan dy="0" >reactive-object-store</tspan></text><text  id="v-352" font-size="16.799999999999997px" xml:space="preserve" y="75.22" text-anchor="middle" font-family="Tahoma, Verdana, Helvetica, Arial" fill="#ffffff" dominant-baseline="hanging" transform="matrix(1,0,0,1,225,0)" style="display: block; fill: rgb(255, 255, 255);"><tspan dy="0" >[Container: Java 21 reactive application/domain</tspan><tspan dy="1.2em" x="0" >services]</tspan></text><text  id="v-353" font-size="24px" xml:space="preserve" y="127.17999999999999" text-anchor="middle" font-family="Tahoma, Verdana, Helvetica, Arial" fill="#ffffff" dominant-baseline="hanging" transform="matrix(1,0,0,1,225,0)" style="display: block; fill: rgb(255, 255, 255);"><tspan dy="0" >Reactive object storage capability:</tspan><tspan dy="1.2em" x="0" >object upload, download, metadata</tspan><tspan dy="1.2em" x="0" >lookup, deletion and multipart object</tspan><tspan dy="1.2em" x="0" >workflows using reactive services</tspan><tspan dy="1.2em" x="0" >and domain aggregates.</tspan></text><g  id="v-354" color="#ffffff" transform="matrix(1,0,0,1,210,268)" display="none" style="fill: rgb(255, 255, 255);"><g  transform="translate(5 0)"><svg xmlns="http://www.w3.org/2000/svg" width="20" height="20" fill="currentColor" viewBox="0 0 16 16"><path fill-rule="evenodd" d="M6.5 12a5.5 5.5 0 1 0 0-11 5.5 5.5 0 0 0 0 11zM13 6.5a6.5 6.5 0 1 1-13 0 6.5 6.5 0 0 1 13 0z"></path><path d="M10.344 11.742c.03.04.062.078.098.115l3.85 3.85a1 1 0 0 0 1.415-1.414l-3.85-3.85a1.007 1.007 0 0 0-.115-.1 6.538 6.538 0 0 1-1.398 1.4z"></path><path fill-rule="evenodd" d="M6.5 3a.5.5 0 0 1 .5.5V6h2.5a.5.5 0 0 1 0 1H7v2.5a.5.5 0 0 1-1 0V7H3.5a.5.5 0 0 1 0-1H6V3.5a.5.5 0 0 1 .5-.5z"></path></svg></g><g ></g><g ></g><g ></g></g><image  id="v-355"></image></g></g><!--z-index:24--><g   id="j_36"  transform="translate(1040,542)" style="; opacity: 1;"><g id="v-369"><rect  id="v-370" width="1340" height="829" rx="20" ry="20" stroke-width="2" pointer-events="none" stroke="#3c7fc0" fill="#ffffff" opacity="1" stroke-dasharray=""></rect><text  id="v-371" font-size="33.599999999999994px" xml:space="preserve" y="790" font-weight="bold" text-anchor="start" pointer-events="visible" font-family="Tahoma, Verdana, Helvetica, Arial" fill="#438dd5" transform="matrix(1,0,0,1,15,0)"><tspan dy="0" >reactive-bucket-management</tspan></text><text  id="v-372" font-size="16.799999999999997px" xml:space="preserve" y="814" font-weight="normal" text-anchor="start" pointer-events="visible" font-family="Tahoma, Verdana, Helvetica, Arial" fill="#438dd5" transform="matrix(1,0,0,1,15,0)"><tspan dy="0" >[Container]</tspan></text><image  id="v-373" pointer-events="visible"></image></g></g><!--z-index:25--><g   id="j_39"  transform="translate(2720,567)" style=""><g  id="v-412" style="opacity: 1;"><rect  id="v-413" rx="20" ry="20" stroke-width="2" pointer-events="visiblePainted" fill="#438dd5" stroke="#3c7fc0" stroke-dasharray="" width="450" height="300" style="fill: rgb(67, 141, 213); stroke: rgb(60, 127, 192);"></rect><text  id="v-414" font-size="33.599999999999994px" xml:space="preserve" y="-19.659999999999968" font-weight="bold" text-anchor="middle" pointer-events="visible" font-family="Tahoma, Verdana, Helvetica, Arial" fill="#ffffff" dominant-baseline="hanging" transform="matrix(1,0,0,1,225,0)" style="fill: rgb(255, 255, 255);"><tspan dy="0" >reactive-</tspan><tspan dy="1.2em" x="0" >repository-application</tspan></text><text  id="v-415" font-size="16.799999999999997px" xml:space="preserve" y="62.26000000000002" text-anchor="middle" font-family="Tahoma, Verdana, Helvetica, Arial" fill="#ffffff" dominant-baseline="hanging" transform="matrix(1,0,0,1,225,0)" style="display: block; fill: rgb(255, 255, 255);"><tspan dy="0" >[Container: Java 21 CQS interfaces]</tspan></text><text  id="v-416" font-size="24px" xml:space="preserve" y="94.06000000000002" text-anchor="middle" font-family="Tahoma, Verdana, Helvetica, Arial" fill="#ffffff" dominant-baseline="hanging" transform="matrix(1,0,0,1,225,0)" style="display: block; fill: rgb(255, 255, 255);"><tspan dy="0" >Command/Query repository</tspan><tspan dy="1.2em" x="0" >interfaces:</tspan><tspan dy="1.2em" x="0" >BucketCommandRepository,</tspan><tspan dy="1.2em" x="0" >BucketQueryRepository,</tspan><tspan dy="1.2em" x="0" >S3ObjectCommandRepository,</tspan><tspan dy="1.2em" x="0" >S3ObjectQueryRepository, Multipart</tspan><tspan dy="1.2em" x="0" >UploadCommandRepository,</tspan><tspan dy="1.2em" x="0" >MultipartUploadQueryRepository.</tspan></text><g  id="v-417" color="#ffffff" transform="matrix(1,0,0,1,210,268)" display="none" style="fill: rgb(255, 255, 255);"><g  transform="translate(5 0)"><svg xmlns="http://www.w3.org/2000/svg" width="20" height="20" fill="currentColor" viewBox="0 0 16 16"><path fill-rule="evenodd" d="M6.5 12a5.5 5.5 0 1 0 0-11 5.5 5.5 0 0 0 0 11zM13 6.5a6.5 6.5 0 1 1-13 0 6.5 6.5 0 0 1 13 0z"></path><path d="M10.344 11.742c.03.04.062.078.098.115l3.85 3.85a1 1 0 0 0 1.415-1.414l-3.85-3.85a1.007 1.007 0 0 0-.115-.1 6.538 6.538 0 0 1-1.398 1.4z"></path><path fill-rule="evenodd" d="M6.5 3a.5.5 0 0 1 .5.5V6h2.5a.5.5 0 0 1 0 1H7v2.5a.5.5 0 0 1-1 0V7H3.5a.5.5 0 0 1 0-1H6V3.5a.5.5 0 0 1 .5-.5z"></path></svg></g><g ></g><g ></g><g ></g></g><image  id="v-418"></image></g></g><!--z-index:26--><g   id="j_40"  transform="translate(3510,567)" style=""><g  id="v-428" style="opacity: 1;"><path  d="M 0,30 a 225,30 0,0,0 450 0 a 225,30 0,0,0 -450 0 l 0,240 a 225,30 0,0,0 450 0 l 0,-240" id="v-429" stroke-width="2" pointer-events="visiblePainted" fill="#438dd5" stroke="#3c7fc0" stroke-dasharray="" style="fill: rgb(67, 141, 213); stroke: rgb(60, 127, 192);"></path><rect  id="v-430" stroke-width="0" pointer-events="visiblePainted" fill="none" stroke="none" width="450" height="270" x="0" y="30"></rect><text  id="v-431" font-size="33.599999999999994px" xml:space="preserve" y="58.70000000000002" font-weight="bold" text-anchor="middle" pointer-events="visible" font-family="Tahoma, Verdana, Helvetica, Arial" fill="#ffffff" dominant-baseline="hanging" transform="matrix(1,0,0,1,225,0)" style="fill: rgb(255, 255, 255);"><tspan dy="0" >reactive-infrastructure</tspan></text><text  id="v-432" font-size="16.799999999999997px" xml:space="preserve" y="100.30000000000001" text-anchor="middle" font-family="Tahoma, Verdana, Helvetica, Arial" fill="#ffffff" dominant-baseline="hanging" transform="matrix(1,0,0,1,225,0)" style="display: block; fill: rgb(255, 255, 255);"><tspan dy="0" >[Container: Java 21, Reactor, ConcurrentHashMap]</tspan></text><text  id="v-433" font-size="24px" xml:space="preserve" y="132.10000000000002" text-anchor="middle" font-family="Tahoma, Verdana, Helvetica, Arial" fill="#ffffff" dominant-baseline="hanging" transform="matrix(1,0,0,1,225,0)" style="display: block; fill: rgb(255, 255, 255);"><tspan dy="0" >Reactive in-memory persistence: In</tspan><tspan dy="1.2em" x="0" >MemoryReactiveBucketRepository, I</tspan><tspan dy="1.2em" x="0" >nMemoryReactiveS3ObjectReposito</tspan><tspan dy="1.2em" x="0" >ry, InMemoryReactiveMultipartUploa</tspan><tspan dy="1.2em" x="0" >dRepository.</tspan></text><g  id="v-434" font-weight="normal" text-anchor="middle" color="#ffffff" transform="matrix(1,0,0,1,210,268)" display="none" style="fill: rgb(255, 255, 255);"><g  transform="translate(5 0)"><svg xmlns="http://www.w3.org/2000/svg" width="20" height="20" fill="currentColor" viewBox="0 0 16 16"><path fill-rule="evenodd" d="M6.5 12a5.5 5.5 0 1 0 0-11 5.5 5.5 0 0 0 0 11zM13 6.5a6.5 6.5 0 1 1-13 0 6.5 6.5 0 0 1 13 0z"></path><path d="M10.344 11.742c.03.04.062.078.098.115l3.85 3.85a1 1 0 0 0 1.415-1.414l-3.85-3.85a1.007 1.007 0 0 0-.115-.1 6.538 6.538 0 0 1-1.398 1.4z"></path><path fill-rule="evenodd" d="M6.5 3a.5.5 0 0 1 .5.5V6h2.5a.5.5 0 0 1 0 1H7v2.5a.5.5 0 0 1-1 0V7H3.5a.5.5 0 0 1 0-1H6V3.5a.5.5 0 0 1 .5-.5z"></path></svg></g><g ></g><g ></g><g ></g></g><image  id="v-435"></image></g></g><!--z-index:27--><g   id="j_35"  transform="translate(1090,767)" style=""><g  id="v-362" style="opacity: 1;"><rect  id="v-363" rx="20" ry="20" stroke-width="2" pointer-events="visiblePainted" fill="#85bbf0" stroke="#78a8d8" stroke-dasharray="" width="450" height="300" style="fill: rgb(133, 187, 240); stroke: rgb(120, 168, 216);"></rect><text  id="v-364" font-size="33.599999999999994px" xml:space="preserve" y="58.10000000000001" font-weight="bold" text-anchor="middle" pointer-events="visible" font-family="Tahoma, Verdana, Helvetica, Arial" fill="#000000" dominant-baseline="hanging" transform="matrix(1,0,0,1,225,0)" style="fill: rgb(0, 0, 0);"><tspan dy="0" >ReactiveBucketService</tspan></text><text  id="v-365" font-size="16.799999999999997px" xml:space="preserve" y="99.7" text-anchor="middle" font-family="Tahoma, Verdana, Helvetica, Arial" fill="#000000" dominant-baseline="hanging" transform="matrix(1,0,0,1,225,0)" style="display: block; fill: rgb(0, 0, 0);"><tspan dy="0" >[Component: Spring @Service]</tspan></text><text  id="v-366" font-size="24px" xml:space="preserve" y="131.5" text-anchor="middle" font-family="Tahoma, Verdana, Helvetica, Arial" fill="#000000" dominant-baseline="hanging" transform="matrix(1,0,0,1,225,0)" style="display: block; fill: rgb(0, 0, 0);"><tspan dy="0" >Reactive application service for</tspan><tspan dy="1.2em" x="0" >bucket lifecycle, versioning, CORS,</tspan><tspan dy="1.2em" x="0" >analytics, inventory, metrics,</tspan><tspan dy="1.2em" x="0" >intelligent-tiering configuration.</tspan></text><g  id="v-367" color="#000000" transform="matrix(1,0,0,1,222.5,268)" display="none" style="fill: rgb(0, 0, 0);"><g ></g><g ></g><g ></g><g ></g></g><image  id="v-368"></image></g></g><!--z-index:28--><g   id="j_37"  transform="translate(1880,592)" style=""><g  id="v-380" style="opacity: 1;"><rect  id="v-381" rx="20" ry="20" stroke-width="2" pointer-events="visiblePainted" fill="#85bbf0" stroke="#78a8d8" stroke-dasharray="" width="450" height="300" style="fill: rgb(133, 187, 240); stroke: rgb(120, 168, 216);"></rect><text  id="v-382" font-size="33.599999999999994px" xml:space="preserve" y="-28.299999999999983" font-weight="bold" text-anchor="middle" pointer-events="visible" font-family="Tahoma, Verdana, Helvetica, Arial" fill="#000000" dominant-baseline="hanging" transform="matrix(1,0,0,1,225,0)" style="fill: rgb(0, 0, 0);"><tspan dy="0" >Bucket</tspan></text><text  id="v-383" font-size="16.799999999999997px" xml:space="preserve" y="13.300000000000011" text-anchor="middle" font-family="Tahoma, Verdana, Helvetica, Arial" fill="#000000" dominant-baseline="hanging" transform="matrix(1,0,0,1,225,0)" style="display: block; fill: rgb(0, 0, 0);"><tspan dy="0" >[Component: Domain aggregate root]</tspan></text><text  id="v-384" font-size="24px" xml:space="preserve" y="45.10000000000001" text-anchor="middle" font-family="Tahoma, Verdana, Helvetica, Arial" fill="#000000" dominant-baseline="hanging" transform="matrix(1,0,0,1,225,0)" style="display: block; fill: rgb(0, 0, 0);"><tspan dy="0" >Domain aggregate root for bucket</tspan><tspan dy="1.2em" x="0" >identity, name, region, storage class,</tspan><tspan dy="1.2em" x="0" >versioning/encryption state and</tspan><tspan dy="1.2em" x="0" >inline Configuration. Emits</tspan><tspan dy="1.2em" x="0" >ObjectStorageEvent domain events</tspan><tspan dy="1.2em" x="0" >on state transitions</tspan><tspan dy="1.2em" x="0" >(withVersioningEnabled,</tspan><tspan dy="1.2em" x="0" >withVersioningSuspended,</tspan><tspan dy="1.2em" x="0" >withEncryptionEnabled,</tspan><tspan dy="1.2em" x="0" >withConfiguration).</tspan></text><g  id="v-385" color="#000000" transform="matrix(1,0,0,1,222.5,268)" display="none" style="fill: rgb(0, 0, 0);"><g ></g><g ></g><g ></g><g ></g></g><image  id="v-386"></image></g></g><!--z-index:29--><g   id="j_38"  transform="translate(1880,942)" style=""><g  id="v-396" style="opacity: 1;"><rect  id="v-397" rx="20" ry="20" stroke-width="2" pointer-events="visiblePainted" fill="#85bbf0" stroke="#78a8d8" stroke-dasharray="" width="450" height="300" style="fill: rgb(133, 187, 240); stroke: rgb(120, 168, 216);"></rect><text  id="v-398" font-size="33.599999999999994px" xml:space="preserve" y="86.9" font-weight="bold" text-anchor="middle" pointer-events="visible" font-family="Tahoma, Verdana, Helvetica, Arial" fill="#000000" dominant-baseline="hanging" transform="matrix(1,0,0,1,225,0)" style="fill: rgb(0, 0, 0);"><tspan dy="0" >BucketRepository port</tspan></text><text  id="v-399" font-size="16.799999999999997px" xml:space="preserve" y="128.5" text-anchor="middle" font-family="Tahoma, Verdana, Helvetica, Arial" fill="#000000" dominant-baseline="hanging" transform="matrix(1,0,0,1,225,0)" style="display: block; fill: rgb(0, 0, 0);"><tspan dy="0" >[Component: Domain repository interface]</tspan></text><text  id="v-400" font-size="24px" xml:space="preserve" y="160.3" text-anchor="middle" font-family="Tahoma, Verdana, Helvetica, Arial" fill="#000000" dominant-baseline="hanging" transform="matrix(1,0,0,1,225,0)" style="display: block; fill: rgb(0, 0, 0);"><tspan dy="0" >Domain repository port for bucket</tspan><tspan dy="1.2em" x="0" >aggregate persistence.</tspan></text><g  id="v-401" color="#000000" transform="matrix(1,0,0,1,222.5,268)" display="none" style="fill: rgb(0, 0, 0);"><g ></g><g ></g><g ></g><g ></g></g><image  id="v-402"></image></g></g><!--z-index:30--><g   id="j_41"  style="opacity: 1;"><path fill="none" cursor="pointer" stroke="transparent" stroke-linecap="round" joint-selector="wrapper" id="v-453" stroke-width="10" stroke-linejoin="round" d="M 700 830.92 L 861 912 C 867 915.3333333333333 873.3333333333333 916.9999999999999 880 917 L 1090 917"></path><path fill="none" pointer-events="none" joint-selector="line" id="v-452" stroke="#444444" stroke-width="2" stroke-linejoin="round" stroke-dasharray="8 8" d="M 700 830.92 L 861 912 C 867 915.3333333333333 873.3333333333333 916.9999999999999 880 917 L 1090 917" marker-end="url(#v-21252848929)"></path><g id="v-442" ><g id="v-443"  label-idx="0" cursor="move" transform="matrix(1,0,0,1,870.32421875,902.3694458007812)" style="cursor: default;"><rect joint-selector="rect" id="v-447" fill="#ffffff" rx="3" ry="3" x="-87.890625" y="-43.82221984863281" width="175.78125" height="85.37777709960938" pointer-events="none"  style="display: block;"></rect><text joint-selector="text" id="v-446" font-size="24px" xml:space="preserve" fill="#444444" text-anchor="middle" pointer-events="none" font-family="Tahoma, Verdana, Helvetica, Arial" font-weight="normal"  style="display: block;"><tspan dy="-0.8999999999999999em" >Calls bucket</tspan><tspan dy="1.2em" x="0" >lifecycle and</tspan><tspan dy="1.2em" x="0" >listing use cases</tspan></text></g><g id="v-444"  label-idx="1" cursor="move" transform="matrix(1,0,0,1,870.32421875,961.5694580078125)" style="cursor: default;"><rect joint-selector="rect" id="v-449" fill="#ffffff" rx="3" ry="3" x="-70.3125" y="-8.848888397216797" width="141.48936462402344" height="16.66666603088379"  pointer-events="none" style="display: block;"></rect><text joint-selector="text" id="v-448" font-size="16.799999999999997px" xml:space="preserve" fill="#444444" text-anchor="middle" pointer-events="none" font-family="Tahoma, Verdana, Helvetica, Arial" font-weight="normal"  style="display: block;"><tspan dy="0.3em" >[Java service calls]</tspan></text></g><g id="v-445"  label-idx="2" cursor="move" transform="matrix(1,0,0,1,874.9376220703125,971.2000122070312)" style="cursor: default;"><rect joint-selector="rect" id="v-451" fill="#ffffff" rx="3" ry="3" x="0" y="0" width="0" height="0"  display="none"></rect><text joint-selector="text" id="v-450" fill="#000000" font-size="14" text-anchor="middle" text-vertical-anchor="middle" pointer-events="none"></text></g></g></g><!--z-index:31--><g   id="j_42"  style="opacity: 1;"><path fill="none" cursor="pointer" stroke="transparent" stroke-linecap="round" joint-selector="wrapper" id="v-471" stroke-width="10" stroke-linejoin="round" d="M 633 567 L 863 349 C 867.6666666666666 344.3333333333333 873.3333333333333 342 880 342 L 1880 342"></path><path fill="none" pointer-events="none" joint-selector="line" id="v-470" stroke="#444444" stroke-width="2" stroke-linejoin="round" stroke-dasharray="8 8" d="M 633 567 L 863 349 C 867.6666666666666 344.3333333333333 873.3333333333333 342 880 342 L 1880 342" marker-end="url(#v-21252848929)"></path><g id="v-460" ><g id="v-461"  label-idx="0" cursor="move" transform="matrix(1,0,0,1,1315.4227294921875,328.6000061035156)" style="cursor: default;"><rect joint-selector="rect" id="v-465" fill="#ffffff" rx="3" ry="3" x="-95.8767318725586" y="-29.42222023010254" width="192.31295776367188" height="56.57777786254883" pointer-events="none"  style="display: block;"></rect><text joint-selector="text" id="v-464" font-size="24px" xml:space="preserve" fill="#444444" text-anchor="middle" pointer-events="none" font-family="Tahoma, Verdana, Helvetica, Arial" font-weight="normal"  style="display: block;"><tspan dy="-0.3em" >Calls object listing</tspan><tspan dy="1.2em" x="0" >use cases</tspan></text></g><g id="v-462"  label-idx="1" cursor="move" transform="matrix(1,0,0,1,1315.4227294921875,373.3999938964844)" style="cursor: default;"><rect joint-selector="rect" id="v-467" fill="#ffffff" rx="3" ry="3" x="-70.3125" y="-8.848888397216797" width="141.48936462402344" height="16.66666603088379"  pointer-events="none" style="display: block;"></rect><text joint-selector="text" id="v-466" font-size="16.799999999999997px" xml:space="preserve" fill="#444444" text-anchor="middle" pointer-events="none" font-family="Tahoma, Verdana, Helvetica, Arial" font-weight="normal"  style="display: block;"><tspan dy="0.3em" >[Java service calls]</tspan></text></g><g id="v-463"  label-idx="2" cursor="move" transform="matrix(1,0,0,1,1202.1033935546875,381.79998779296875)" style="cursor: default;"><rect joint-selector="rect" id="v-469" fill="#ffffff" rx="3" ry="3" x="2.2737367544323206e-13" y="0" width="0" height="0"  display="none"></rect><text joint-selector="text" id="v-468" fill="#000000" font-size="14" text-anchor="middle" text-vertical-anchor="middle" pointer-events="none"></text></g></g></g><!--z-index:32--><g   id="j_43"  style="opacity: 1;"><path fill="none" cursor="pointer" stroke="transparent" stroke-linecap="round" joint-selector="wrapper" id="v-489" stroke-width="10" stroke-linejoin="round" d="M 1540 1016.68 L 1701 1088 C 1707 1090.6666666666665 1713.3333333333333 1092 1720 1092 L 1880 1092"></path><path fill="none" pointer-events="none" joint-selector="line" id="v-488" stroke="#444444" stroke-width="2" stroke-linejoin="round" stroke-dasharray="8 8" d="M 1540 1016.68 L 1701 1088 C 1707 1090.6666666666665 1713.3333333333333 1092 1720 1092 L 1880 1092" marker-end="url(#v-21252848929)"></path><g id="v-478" ><g id="v-479"  label-idx="0" cursor="move" transform="matrix(1,0,0,1,1710.212890625,1077.5921630859375)" style="cursor: default;"><rect joint-selector="rect" id="v-483" fill="#ffffff" rx="3" ry="3" x="-98.56770324707031" y="-58.22222137451172" width="197.13540649414062" height="114.17778015136719" pointer-events="none"  style="display: block;"></rect><text joint-selector="text" id="v-482" font-size="24px" xml:space="preserve" fill="#444444" text-anchor="middle" pointer-events="none" font-family="Tahoma, Verdana, Helvetica, Arial" font-weight="normal"  style="display: block;"><tspan dy="-1.4999999999999998em" >Persists and loads</tspan><tspan dy="1.2em" x="0" >bucket aggregates</tspan><tspan dy="1.2em" x="0" >via domain</tspan><tspan dy="1.2em" x="0" >repository port</tspan></text></g><g id="v-480"  label-idx="1" cursor="move" transform="matrix(1,0,0,1,1710.212890625,1151.192138671875)" style="cursor: default;"><rect joint-selector="rect" id="v-485" fill="#ffffff" rx="3" ry="3" x="-83.35503387451172" y="-8.848888397216797" width="167.57667541503906" height="16.66666603088379"  pointer-events="none" style="display: block;"></rect><text joint-selector="text" id="v-484" font-size="16.799999999999997px" xml:space="preserve" fill="#444444" text-anchor="middle" pointer-events="none" font-family="Tahoma, Verdana, Helvetica, Arial" font-weight="normal"  style="display: block;"><tspan dy="0.3em" >[Repository interfaces]</tspan></text></g><g id="v-481"  label-idx="2" cursor="move" transform="matrix(1,0,0,1,1692.5897216796875,1157.272216796875)" style="cursor: default;"><rect joint-selector="rect" id="v-487" fill="#ffffff" rx="3" ry="3" x="0" y="0" width="0" height="0"  display="none"></rect><text joint-selector="text" id="v-486" fill="#000000" font-size="14" text-anchor="middle" text-vertical-anchor="middle" pointer-events="none"></text></g></g></g><!--z-index:33--><g   id="j_44"  style="opacity: 1;"><path fill="none" cursor="pointer" stroke="transparent" stroke-linecap="round" joint-selector="wrapper" id="v-504" stroke-width="10" stroke-linejoin="round" d="M 1540 817.32 L 1701 746 C 1707 743.3333333333333 1713.3333333333333 742 1720 742 L 1880 740.55"></path><path fill="none" pointer-events="none" joint-selector="line" id="v-503" stroke="#444444" stroke-width="2" stroke-linejoin="round" stroke-dasharray="8 8" d="M 1540 817.32 L 1701 746 C 1707 743.3333333333333 1713.3333333333333 742 1720 742 L 1880 740.55" marker-end="url(#v-21252848929)"></path><g id="v-493" ><g id="v-494"  label-idx="0" cursor="move" transform="matrix(1,0,0,1,1710.212890625,729.6078491210938)" style="cursor: default;"><rect joint-selector="rect" id="v-498" fill="#ffffff" rx="3" ry="3" x="-94.53125" y="-72.6222152709961" width="190.73486328125" height="142.977783203125" pointer-events="none"  style="display: block;"></rect><text joint-selector="text" id="v-497" font-size="24px" xml:space="preserve" fill="#444444" text-anchor="middle" pointer-events="none" font-family="Tahoma, Verdana, Helvetica, Arial" font-weight="normal"  style="display: block;"><tspan dy="-2.1em" >Creates/updates</tspan><tspan dy="1.2em" x="0" >bucket aggregate</tspan><tspan dy="1.2em" x="0" >root (emits Object</tspan><tspan dy="1.2em" x="0" >StorageEvent on</tspan><tspan dy="1.2em" x="0" >state transitions)</tspan></text></g><g id="v-495"  label-idx="1" cursor="move" transform="matrix(1,0,0,1,1710.212890625,817.6078491210938)" style="cursor: default;"><rect joint-selector="rect" id="v-500" fill="#ffffff" rx="3" ry="3" x="-41.449649810791016" y="-8.848888397216797" width="83.76841735839844" height="16.66666603088379"  pointer-events="none" style="display: block;"></rect><text joint-selector="text" id="v-499" font-size="16.799999999999997px" xml:space="preserve" fill="#444444" text-anchor="middle" pointer-events="none" font-family="Tahoma, Verdana, Helvetica, Arial" font-weight="normal"  style="display: block;"><tspan dy="0.3em" >[Java calls]</tspan></text></g><g id="v-496"  label-idx="2" cursor="move" transform="matrix(1,0,0,1,1692.5897216796875,828.3277587890625)" style="cursor: default;"><rect joint-selector="rect" id="v-502" fill="#ffffff" rx="3" ry="3" x="0" y="0" width="0" height="0"  display="none"></rect><text joint-selector="text" id="v-501" fill="#000000" font-size="14" text-anchor="middle" text-vertical-anchor="middle" pointer-events="none"></text></g></g></g><!--z-index:34--><g   id="j_45"  style="opacity: 1;"><path fill="none" cursor="pointer" stroke="transparent" stroke-linecap="round" joint-selector="wrapper" id="v-522" stroke-width="10" stroke-linejoin="round" d="M 2330 342 L 2540 342 C 2546.6666666666665 342 2552.333333333333 344.3333333333333 2557 349 L 2761.75 541.22"></path><path fill="none" pointer-events="none" joint-selector="line" id="v-521" stroke="#444444" stroke-width="2" stroke-linejoin="round" stroke-dasharray="8 8" d="M 2330 342 L 2540 342 C 2546.6666666666665 342 2552.333333333333 344.3333333333333 2557 349 L 2761.75 541.22" marker-end="url(#v-21252848929)"></path><g id="v-511" ><g id="v-512"  label-idx="0" cursor="move" transform="matrix(1,0,0,1,2535.090087890625,328.6000061035156)" style="cursor: default;"><rect joint-selector="rect" id="v-516" fill="#ffffff" rx="3" ry="3" x="-81.90103912353516" y="-58.22222137451172" width="164.3303680419922" height="114.17778015136719" pointer-events="none"  style="display: block;"></rect><text joint-selector="text" id="v-515" font-size="24px" xml:space="preserve" fill="#444444" text-anchor="middle" pointer-events="none" font-family="Tahoma, Verdana, Helvetica, Arial" font-weight="normal"  style="display: block;"><tspan dy="-1.4999999999999998em" >CQS command</tspan><tspan dy="1.2em" x="0" >interface for</tspan><tspan dy="1.2em" x="0" >S3Object</tspan><tspan dy="1.2em" x="0" >persistence</tspan></text></g><g id="v-513"  label-idx="1" cursor="move" transform="matrix(1,0,0,1,2535.090087890625,402.20001220703125)" style="cursor: default;"><rect joint-selector="rect" id="v-518" fill="#ffffff" rx="3" ry="3" x="-64.2578125" y="-8.848888397216797" width="129.4069061279297" height="16.66666603088379"  pointer-events="none" style="display: block;"></rect><text joint-selector="text" id="v-517" font-size="16.799999999999997px" xml:space="preserve" fill="#444444" text-anchor="middle" pointer-events="none" font-family="Tahoma, Verdana, Helvetica, Arial" font-weight="normal"  style="display: block;"><tspan dy="0.3em" >[Implemented by]</tspan></text></g><g id="v-514"  label-idx="2" cursor="move" transform="matrix(1,0,0,1,2565.935302734375,435.3764953613281)" style="cursor: default;"><rect joint-selector="rect" id="v-520" fill="#ffffff" rx="3" ry="3" x="0" y="0" width="0" height="0"  display="none"></rect><text joint-selector="text" id="v-519" fill="#000000" font-size="14" text-anchor="middle" text-vertical-anchor="middle" pointer-events="none"></text></g></g></g><!--z-index:35--><g   id="j_46"  style="opacity: 1;"><path fill="none" cursor="pointer" stroke="transparent" stroke-linecap="round" joint-selector="wrapper" id="v-540" stroke-width="10" stroke-linejoin="round" d="M 2330 1092 L 2540 1092 C 2546.6666666666665 1092 2552.333333333333 1089.6666666666665 2557 1085 L 2765.04 886.01"></path><path fill="none" pointer-events="none" joint-selector="line" id="v-539" stroke="#444444" stroke-width="2" stroke-linejoin="round" stroke-dasharray="8 8" d="M 2330 1092 L 2540 1092 C 2546.6666666666665 1092 2552.333333333333 1089.6666666666665 2557 1085 L 2765.04 886.01" marker-end="url(#v-21252848929)"></path><g id="v-529" ><g id="v-530"  label-idx="0" cursor="move" transform="matrix(1,0,0,1,2537.924560546875,1078.5999755859375)" style="cursor: default;"><rect joint-selector="rect" id="v-534" fill="#ffffff" rx="3" ry="3" x="-81.90103912353516" y="-58.22222137451172" width="164.3303680419922" height="114.17778015136719" pointer-events="none"  style="display: block;"></rect><text joint-selector="text" id="v-533" font-size="24px" xml:space="preserve" fill="#444444" text-anchor="middle" pointer-events="none" font-family="Tahoma, Verdana, Helvetica, Arial" font-weight="normal"  style="display: block;"><tspan dy="-1.4999999999999998em" >CQS command</tspan><tspan dy="1.2em" x="0" >interface for</tspan><tspan dy="1.2em" x="0" >Bucket</tspan><tspan dy="1.2em" x="0" >persistence</tspan></text></g><g id="v-531"  label-idx="1" cursor="move" transform="matrix(1,0,0,1,2537.924560546875,1152.199951171875)" style="cursor: default;"><rect joint-selector="rect" id="v-536" fill="#ffffff" rx="3" ry="3" x="-64.2578125" y="-8.848888397216797" width="129.4069061279297" height="16.66666603088379"  pointer-events="none" style="display: block;"></rect><text joint-selector="text" id="v-535" font-size="16.799999999999997px" xml:space="preserve" fill="#444444" text-anchor="middle" pointer-events="none" font-family="Tahoma, Verdana, Helvetica, Arial" font-weight="normal"  style="display: block;"><tspan dy="0.3em" >[Implemented by]</tspan></text></g><g id="v-532"  label-idx="2" cursor="move" transform="matrix(1,0,0,1,2568.314208984375,1133.2130126953125)" style="cursor: default;"><rect joint-selector="rect" id="v-538" fill="#ffffff" rx="3" ry="3" x="-4.547473508864641e-13" y="0" width="0" height="0"  display="none"></rect><text joint-selector="text" id="v-537" fill="#000000" font-size="14" text-anchor="middle" text-vertical-anchor="middle" pointer-events="none"></text></g></g></g><!--z-index:36--><g   id="j_47"  style="opacity: 1;"><path fill="none" cursor="pointer" stroke="transparent" stroke-linecap="round" joint-selector="wrapper" id="v-555" stroke-width="10" stroke-linejoin="round" d="M 3170 714.58 L 3510 716.04"></path><path fill="none" pointer-events="none" joint-selector="line" id="v-554" stroke="#444444" stroke-width="2" stroke-linejoin="round" stroke-dasharray="8 8" d="M 3170 714.58 L 3510 716.04" marker-end="url(#v-21252848929)"></path><g id="v-544" ><g id="v-545"  label-idx="0" cursor="move" transform="matrix(1,0,0,1,3340,701.9099731445312)" style="cursor: default;"><rect joint-selector="rect" id="v-549" fill="#ffffff" rx="3" ry="3" x="-85.24304962158203" y="-15.022221565246582" width="172.36717224121094" height="27.77777671813965" pointer-events="none"  style="display: block;"></rect><text joint-selector="text" id="v-548" font-size="24px" xml:space="preserve" fill="#444444" text-anchor="middle" pointer-events="none" font-family="Tahoma, Verdana, Helvetica, Arial" font-weight="normal"  style="display: block;"><tspan dy="0.3em" >Implemented by</tspan></text></g><g id="v-546"  label-idx="1" cursor="move" transform="matrix(1,0,0,1,3340,732.3099975585938)" style="cursor: default;"><rect joint-selector="rect" id="v-551" fill="#ffffff" rx="3" ry="3" x="-47.96006774902344" y="-8.848888397216797" width="96.7998046875" height="16.66666603088379"  pointer-events="none" style="display: block;"></rect><text joint-selector="text" id="v-550" font-size="16.799999999999997px" xml:space="preserve" fill="#444444" text-anchor="middle" pointer-events="none" font-family="Tahoma, Verdana, Helvetica, Arial" font-weight="normal"  style="display: block;"><tspan dy="0.3em" >[Implements]</tspan></text></g><g id="v-547"  label-idx="2" cursor="move" transform="matrix(1,0,0,1,3330,740.7100219726562)" style="cursor: default;"><rect joint-selector="rect" id="v-553" fill="#ffffff" rx="3" ry="3" x="0" y="0" width="0" height="0"  display="none"></rect><text joint-selector="text" id="v-552" fill="#000000" font-size="14" text-anchor="middle" text-vertical-anchor="middle" pointer-events="none"></text></g></g></g><!--z-index:37--></g><g  style="user-select: none;"></g><g ></g><g  display="none"></g></g></svg>