<svg xmlns="http://www.w3.org/2000/svg" xmlns:xlink="http://www.w3.org/1999/xlink" version="1.1" width="3989" height="1758" style="width: 3989px; height: 1758px; background: #ffffff" viewBox="0 0 3989 1758"><style id="v-3" type="text/css">        .joint-element .scalable * {            vector-effect: non-scaling-stroke;        }    </style><defs joint-selector="defs"><marker id="v-21252848929" orient="auto" overflow="visible" markerUnits="userSpaceOnUse"><path id="v-65" stroke="#444444" fill="#444444" transform="rotate(180)" d="M 20 -10 0 0 20 10 Z"></path></marker><marker id="v-2-1424592063" orient="auto" overflow="visible" markerUnits="userSpaceOnUse"><path id="v-533" stroke="#6b7280" fill="#6b7280" transform="rotate(180)" d="M 20 -10 0 0 20 10 Z"></path></marker></defs><g joint-selector="layers"  transform="matrix(1,0,0,1,0,0)"><g  style="pointer-events: none;"></g><g ></g><g  style="user-select: none;"><!--z-index:0--><!--z-index:1--><!--z-index:2--><!--z-index:3--><!--z-index:4--><!--z-index:5--><!--z-index:6--><!--z-index:7--><!--z-index:8--><!--z-index:9--><!--z-index:10--><!--z-index:11--><!--z-index:12--><!--z-index:13--><!--z-index:14--><!--z-index:15--><g   id="j_173"  transform="translate(20,1714)"><g id="v-2399"><text  id="v-2400" font-size="24px" xml:space="preserve" y="0.8em" font-weight="normal" text-anchor="start" fill="#444444" pointer-events="none" display="block" font-family="Tahoma, Verdana, Helvetica, Arial"><tspan dy="0" >lunedì 13 luglio 2026 alle ore 00:51 Ora legale dell’Europa centrale</tspan></text></g></g><!--z-index:16--><g   id="j_172"  transform="translate(20,1680)"><g id="v-2397"><text  id="v-2398" font-size="24px" xml:space="preserve" y="0.8em" font-weight="normal" text-anchor="start" fill="#444444" pointer-events="none" display="block" font-family="Tahoma, Verdana, Helvetica, Arial"><tspan dy="0" >Reactive repository adapters used by the application capabilities. Extended to support session, ABAC, object lock, metadata/table configuration, legal hold, retention, restore, and select data. Internal ConcurrentHashMap structures are intentionally not shown as C4 components.</tspan></text></g></g><!--z-index:17--><g   id="j_171"  transform="translate(20,1634)"><g id="v-2395"><text  id="v-2396" font-size="36px" xml:space="preserve" y="0.8em" font-weight="normal" text-anchor="start" fill="#444444" pointer-events="none" display="block" font-family="Tahoma, Verdana, Helvetica, Arial"><tspan dy="0" >C3 Component: reactive-infrastructure</tspan></text></g></g><!--z-index:18--><g   id="j_175"  transform="translate(879,142)" style="; opacity: 1;"><g id="v-2417"><rect  id="v-2418" width="2230" height="1358" rx="20" ry="20" stroke-width="2" pointer-events="none" stroke="#0f5eaa" fill="#ffffff" opacity="1" stroke-dasharray=""></rect><text  id="v-2419" font-size="33.599999999999994px" xml:space="preserve" y="1319" font-weight="bold" text-anchor="start" pointer-events="visible" font-family="Tahoma, Verdana, Helvetica, Arial" fill="#1168bd" transform="matrix(1,0,0,1,15,0)"><tspan dy="0" >Magrathea ObjectStore</tspan></text><text  id="v-2420" font-size="16.799999999999997px" xml:space="preserve" y="1343" font-weight="normal" text-anchor="start" pointer-events="visible" font-family="Tahoma, Verdana, Helvetica, Arial" fill="#1168bd" transform="matrix(1,0,0,1,15,0)"><tspan dy="0" >[Software System]</tspan></text><image  id="v-2421" pointer-events="visible"></image></g></g><!--z-index:19--><g   id="j_174"  transform="translate(929,217)" style=""><g  id="v-2410" style="opacity: 1;"><rect  id="v-2411" rx="20" ry="20" stroke-width="2" pointer-events="visiblePainted" fill="#438dd5" stroke="#3c7fc0" stroke-dasharray="" width="450" height="300" style="fill: rgb(67, 141, 213); stroke: rgb(60, 127, 192);"></rect><text  id="v-2412" font-size="33.599999999999994px" xml:space="preserve" y="-23.97999999999999" font-weight="bold" text-anchor="middle" pointer-events="visible" font-family="Tahoma, Verdana, Helvetica, Arial" fill="#ffffff" dominant-baseline="hanging" transform="matrix(1,0,0,1,225,0)" style="fill: rgb(255, 255, 255);"><tspan dy="0" >reactive-object-store</tspan></text><text  id="v-2413" font-size="16.799999999999997px" xml:space="preserve" y="17.620000000000005" text-anchor="middle" font-family="Tahoma, Verdana, Helvetica, Arial" fill="#ffffff" dominant-baseline="hanging" transform="matrix(1,0,0,1,225,0)" style="display: block; fill: rgb(255, 255, 255);"><tspan dy="0" >[Container: Java 21 reactive application/domain</tspan><tspan dy="1.2em" x="0" >services]</tspan></text><text  id="v-2414" font-size="24px" xml:space="preserve" y="69.58" text-anchor="middle" font-family="Tahoma, Verdana, Helvetica, Arial" fill="#ffffff" dominant-baseline="hanging" transform="matrix(1,0,0,1,225,0)" style="display: block; fill: rgb(255, 255, 255);"><tspan dy="0" >Reactive object storage capability:</tspan><tspan dy="1.2em" x="0" >object upload, download, metadata</tspan><tspan dy="1.2em" x="0" >lookup, deletion, multipart object</tspan><tspan dy="1.2em" x="0" >workflows, Phase F advanced</tspan><tspan dy="1.2em" x="0" >operations (legal hold, retention,</tspan><tspan dy="1.2em" x="0" >torrent, restore, select, Object</tspan><tspan dy="1.2em" x="0" >Lambda, encryption update) using</tspan><tspan dy="1.2em" x="0" >reactive services and domain</tspan><tspan dy="1.2em" x="0" >aggregates.</tspan></text><g  id="v-2415" color="#ffffff" transform="matrix(1,0,0,1,210,268)" display="none" style="fill: rgb(255, 255, 255);"><g  transform="translate(5 0)"><svg xmlns="http://www.w3.org/2000/svg" width="20" height="20" fill="currentColor" viewBox="0 0 16 16"><path fill-rule="evenodd" d="M6.5 12a5.5 5.5 0 1 0 0-11 5.5 5.5 0 0 0 0 11zM13 6.5a6.5 6.5 0 1 1-13 0 6.5 6.5 0 0 1 13 0z"></path><path d="M10.344 11.742c.03.04.062.078.098.115l3.85 3.85a1 1 0 0 0 1.415-1.414l-3.85-3.85a1.007 1.007 0 0 0-.115-.1 6.538 6.538 0 0 1-1.398 1.4z"></path><path fill-rule="evenodd" d="M6.5 3a.5.5 0 0 1 .5.5V6h2.5a.5.5 0 0 1 0 1H7v2.5a.5.5 0 0 1-1 0V7H3.5a.5.5 0 0 1 0-1H6V3.5a.5.5 0 0 1 .5-.5z"></path></svg></g><g ></g><g ></g><g ></g></g><image  id="v-2416"></image></g></g><!--z-index:20--><g   id="j_176"  transform="translate(929,967)" style=""><g  id="v-2431" style="opacity: 1;"><rect  id="v-2432" rx="20" ry="20" stroke-width="2" pointer-events="visiblePainted" fill="#438dd5" stroke="#3c7fc0" stroke-dasharray="" width="450" height="300" style="fill: rgb(67, 141, 213); stroke: rgb(60, 127, 192);"></rect><text  id="v-2433" font-size="33.599999999999994px" xml:space="preserve" y="-15.339999999999975" font-weight="bold" text-anchor="middle" pointer-events="visible" font-family="Tahoma, Verdana, Helvetica, Arial" fill="#ffffff" dominant-baseline="hanging" transform="matrix(1,0,0,1,225,0)" style="fill: rgb(255, 255, 255);"><tspan dy="0" >reactive-</tspan><tspan dy="1.2em" x="0" >bucket-management</tspan></text><text  id="v-2434" font-size="16.799999999999997px" xml:space="preserve" y="66.58000000000001" text-anchor="middle" font-family="Tahoma, Verdana, Helvetica, Arial" fill="#ffffff" dominant-baseline="hanging" transform="matrix(1,0,0,1,225,0)" style="display: block; fill: rgb(255, 255, 255);"><tspan dy="0" >[Container: Java 21 reactive application/domain</tspan><tspan dy="1.2em" x="0" >services]</tspan></text><text  id="v-2435" font-size="24px" xml:space="preserve" y="118.54000000000002" text-anchor="middle" font-family="Tahoma, Verdana, Helvetica, Arial" fill="#ffffff" dominant-baseline="hanging" transform="matrix(1,0,0,1,225,0)" style="display: block; fill: rgb(255, 255, 255);"><tspan dy="0" >Reactive bucket management</tspan><tspan dy="1.2em" x="0" >capability: bucket lifecycle,</tspan><tspan dy="1.2em" x="0" >metadata, configuration,</tspan><tspan dy="1.2em" x="0" >CORS/versioning, bucket-level</tspan><tspan dy="1.2em" x="0" >operations, and Phase F advanced</tspan><tspan dy="1.2em" x="0" >bucket config (ABAC, object lock,</tspan><tspan dy="1.2em" x="0" >metadata config, table config).</tspan></text><g  id="v-2436" color="#ffffff" transform="matrix(1,0,0,1,210,268)" display="none" style="fill: rgb(255, 255, 255);"><g  transform="translate(5 0)"><svg xmlns="http://www.w3.org/2000/svg" width="20" height="20" fill="currentColor" viewBox="0 0 16 16"><path fill-rule="evenodd" d="M6.5 12a5.5 5.5 0 1 0 0-11 5.5 5.5 0 0 0 0 11zM13 6.5a6.5 6.5 0 1 1-13 0 6.5 6.5 0 0 1 13 0z"></path><path d="M10.344 11.742c.03.04.062.078.098.115l3.85 3.85a1 1 0 0 0 1.415-1.414l-3.85-3.85a1.007 1.007 0 0 0-.115-.1 6.538 6.538 0 0 1-1.398 1.4z"></path><path fill-rule="evenodd" d="M6.5 3a.5.5 0 0 1 .5.5V6h2.5a.5.5 0 0 1 0 1H7v2.5a.5.5 0 0 1-1 0V7H3.5a.5.5 0 0 1 0-1H6V3.5a.5.5 0 0 1 .5-.5z"></path></svg></g><g ></g><g ></g><g ></g></g><image  id="v-2437"></image></g></g><!--z-index:21--><g   id="j_177"  transform="translate(1719,592)" style=""><g  id="v-2447" style="opacity: 1;"><rect  id="v-2448" rx="20" ry="20" stroke-width="2" pointer-events="visiblePainted" fill="#438dd5" stroke="#3c7fc0" stroke-dasharray="" width="450" height="300" style="fill: rgb(67, 141, 213); stroke: rgb(60, 127, 192);"></rect><text  id="v-2449" font-size="33.599999999999994px" xml:space="preserve" y="-19.659999999999968" font-weight="bold" text-anchor="middle" pointer-events="visible" font-family="Tahoma, Verdana, Helvetica, Arial" fill="#ffffff" dominant-baseline="hanging" transform="matrix(1,0,0,1,225,0)" style="fill: rgb(255, 255, 255);"><tspan dy="0" >reactive-</tspan><tspan dy="1.2em" x="0" >repository-application</tspan></text><text  id="v-2450" font-size="16.799999999999997px" xml:space="preserve" y="62.26000000000002" text-anchor="middle" font-family="Tahoma, Verdana, Helvetica, Arial" fill="#ffffff" dominant-baseline="hanging" transform="matrix(1,0,0,1,225,0)" style="display: block; fill: rgb(255, 255, 255);"><tspan dy="0" >[Container: Java 21 CQS interfaces]</tspan></text><text  id="v-2451" font-size="24px" xml:space="preserve" y="94.06000000000002" text-anchor="middle" font-family="Tahoma, Verdana, Helvetica, Arial" fill="#ffffff" dominant-baseline="hanging" transform="matrix(1,0,0,1,225,0)" style="display: block; fill: rgb(255, 255, 255);"><tspan dy="0" >Command/Query repository</tspan><tspan dy="1.2em" x="0" >interfaces:</tspan><tspan dy="1.2em" x="0" >BucketCommandRepository,</tspan><tspan dy="1.2em" x="0" >BucketQueryRepository,</tspan><tspan dy="1.2em" x="0" >S3ObjectCommandRepository,</tspan><tspan dy="1.2em" x="0" >S3ObjectQueryRepository, Multipart</tspan><tspan dy="1.2em" x="0" >UploadCommandRepository,</tspan><tspan dy="1.2em" x="0" >MultipartUploadQueryRepository.</tspan></text><g  id="v-2452" color="#ffffff" transform="matrix(1,0,0,1,210,268)" display="none" style="fill: rgb(255, 255, 255);"><g  transform="translate(5 0)"><svg xmlns="http://www.w3.org/2000/svg" width="20" height="20" fill="currentColor" viewBox="0 0 16 16"><path fill-rule="evenodd" d="M6.5 12a5.5 5.5 0 1 0 0-11 5.5 5.5 0 0 0 0 11zM13 6.5a6.5 6.5 0 1 1-13 0 6.5 6.5 0 0 1 13 0z"></path><path d="M10.344 11.742c.03.04.062.078.098.115l3.85 3.85a1 1 0 0 0 1.415-1.414l-3.85-3.85a1.007 1.007 0 0 0-.115-.1 6.538 6.538 0 0 1-1.398 1.4z"></path><path fill-rule="evenodd" d="M6.5 3a.5.5 0 0 1 .5.5V6h2.5a.5.5 0 0 1 0 1H7v2.5a.5.5 0 0 1-1 0V7H3.5a.5.5 0 0 1 0-1H6V3.5a.5.5 0 0 1 .5-.5z"></path></svg></g><g ></g><g ></g><g ></g></g><image  id="v-2453"></image></g></g><!--z-index:22--><g   id="j_179"  transform="translate(2509,192)" style="; opacity: 1;"><g id="v-2470"><rect  id="v-2471" width="550" height="1179" rx="0" ry="0" stroke-width="2" pointer-events="none" stroke="#3c7fc0" fill="#ffffff" opacity="1" stroke-dasharray=""></rect><text  id="v-2472" font-size="33.599999999999994px" xml:space="preserve" y="1140" font-weight="bold" text-anchor="start" pointer-events="visible" font-family="Tahoma, Verdana, Helvetica, Arial" fill="#438dd5" transform="matrix(1,0,0,1,15,0)"><tspan dy="0" >reactive-infrastructure</tspan></text><text  id="v-2473" font-size="16.799999999999997px" xml:space="preserve" y="1164" font-weight="normal" text-anchor="start" pointer-events="visible" font-family="Tahoma, Verdana, Helvetica, Arial" fill="#438dd5" transform="matrix(1,0,0,1,15,0)"><tspan dy="0" >[Container]</tspan></text><image  id="v-2474" pointer-events="visible"></image></g></g><!--z-index:23--><g   id="j_178"  transform="translate(2559,242)" style=""><g  id="v-2463" style="opacity: 1;"><rect  id="v-2464" rx="20" ry="20" stroke-width="2" pointer-events="visiblePainted" fill="#85bbf0" stroke="#78a8d8" stroke-dasharray="" width="450" height="300" style="fill: rgb(133, 187, 240); stroke: rgb(120, 168, 216);"></rect><text  id="v-2465" font-size="33.599999999999994px" xml:space="preserve" y="-19.659999999999968" font-weight="bold" text-anchor="middle" pointer-events="visible" font-family="Tahoma, Verdana, Helvetica, Arial" fill="#000000" dominant-baseline="hanging" transform="matrix(1,0,0,1,225,0)" style="fill: rgb(0, 0, 0);"><tspan dy="0" >InMemoryReactiveBucket</tspan><tspan dy="1.2em" x="0" >Repository</tspan></text><text  id="v-2466" font-size="16.799999999999997px" xml:space="preserve" y="62.26000000000002" text-anchor="middle" font-family="Tahoma, Verdana, Helvetica, Arial" fill="#000000" dominant-baseline="hanging" transform="matrix(1,0,0,1,225,0)" style="display: block; fill: rgb(0, 0, 0);"><tspan dy="0" >[Component: Spring @Repository]</tspan></text><text  id="v-2467" font-size="24px" xml:space="preserve" y="94.06000000000002" text-anchor="middle" font-family="Tahoma, Verdana, Helvetica, Arial" fill="#000000" dominant-baseline="hanging" transform="matrix(1,0,0,1,225,0)" style="display: block; fill: rgb(0, 0, 0);"><tspan dy="0" >In-memory reactive implementation</tspan><tspan dy="1.2em" x="0" >of BucketCommandRepository and</tspan><tspan dy="1.2em" x="0" >BucketQueryRepository. Internally</tspan><tspan dy="1.2em" x="0" >stores bucket aggregates in</tspan><tspan dy="1.2em" x="0" >ConcurrentHashMap structures.</tspan><tspan dy="1.2em" x="0" >Extended to support session, ABAC,</tspan><tspan dy="1.2em" x="0" >object lock, and metadata/table</tspan><tspan dy="1.2em" x="0" >configuration storage.</tspan></text><g  id="v-2468" color="#000000" transform="matrix(1,0,0,1,222.5,268)" display="none" style="fill: rgb(0, 0, 0);"><g ></g><g ></g><g ></g><g ></g></g><image  id="v-2469"></image></g></g><!--z-index:24--><g   id="j_180"  transform="translate(2559,592)" style=""><g  id="v-2484" style="opacity: 1;"><rect  id="v-2485" rx="20" ry="20" stroke-width="2" pointer-events="visiblePainted" fill="#85bbf0" stroke="#78a8d8" stroke-dasharray="" width="450" height="300" style="fill: rgb(133, 187, 240); stroke: rgb(120, 168, 216);"></rect><text  id="v-2486" font-size="33.599999999999994px" xml:space="preserve" y="-34.059999999999974" font-weight="bold" text-anchor="middle" pointer-events="visible" font-family="Tahoma, Verdana, Helvetica, Arial" fill="#000000" dominant-baseline="hanging" transform="matrix(1,0,0,1,225,0)" style="fill: rgb(0, 0, 0);"><tspan dy="0" >InMemoryReactiveS3Obj</tspan><tspan dy="1.2em" x="0" >ectRepository</tspan></text><text  id="v-2487" font-size="16.799999999999997px" xml:space="preserve" y="47.860000000000014" text-anchor="middle" font-family="Tahoma, Verdana, Helvetica, Arial" fill="#000000" dominant-baseline="hanging" transform="matrix(1,0,0,1,225,0)" style="display: block; fill: rgb(0, 0, 0);"><tspan dy="0" >[Component: Spring @Repository]</tspan></text><text  id="v-2488" font-size="24px" xml:space="preserve" y="79.66000000000001" text-anchor="middle" font-family="Tahoma, Verdana, Helvetica, Arial" fill="#000000" dominant-baseline="hanging" transform="matrix(1,0,0,1,225,0)" style="display: block; fill: rgb(0, 0, 0);"><tspan dy="0" >In-memory reactive implementation</tspan><tspan dy="1.2em" x="0" >of S3ObjectCommandRepository</tspan><tspan dy="1.2em" x="0" >and S3ObjectQueryRepository.</tspan><tspan dy="1.2em" x="0" >Internally stores object metadata</tspan><tspan dy="1.2em" x="0" >and raw object bytes in</tspan><tspan dy="1.2em" x="0" >ConcurrentHashMap structures.</tspan><tspan dy="1.2em" x="0" >Extended to support legal hold,</tspan><tspan dy="1.2em" x="0" >retention, restore, and select</tspan><tspan dy="1.2em" x="0" >request/response storage.</tspan></text><g  id="v-2489" color="#000000" transform="matrix(1,0,0,1,222.5,268)" display="none" style="fill: rgb(0, 0, 0);"><g ></g><g ></g><g ></g><g ></g></g><image  id="v-2490"></image></g></g><!--z-index:25--><g   id="j_181"  transform="translate(2559,942)" style=""><g  id="v-2500" style="opacity: 1;"><rect  id="v-2501" rx="20" ry="20" stroke-width="2" pointer-events="visiblePainted" fill="#85bbf0" stroke="#78a8d8" stroke-dasharray="" width="450" height="300" style="fill: rgb(133, 187, 240); stroke: rgb(120, 168, 216);"></rect><text  id="v-2502" font-size="33.599999999999994px" xml:space="preserve" y="-5.259999999999991" font-weight="bold" text-anchor="middle" pointer-events="visible" font-family="Tahoma, Verdana, Helvetica, Arial" fill="#000000" dominant-baseline="hanging" transform="matrix(1,0,0,1,225,0)" style="fill: rgb(0, 0, 0);"><tspan dy="0" >InMemoryReactiveMultipa</tspan><tspan dy="1.2em" x="0" >rtUploadRepository</tspan></text><text  id="v-2503" font-size="16.799999999999997px" xml:space="preserve" y="76.66" text-anchor="middle" font-family="Tahoma, Verdana, Helvetica, Arial" fill="#000000" dominant-baseline="hanging" transform="matrix(1,0,0,1,225,0)" style="display: block; fill: rgb(0, 0, 0);"><tspan dy="0" >[Component: Spring @Repository]</tspan></text><text  id="v-2504" font-size="24px" xml:space="preserve" y="108.46" text-anchor="middle" font-family="Tahoma, Verdana, Helvetica, Arial" fill="#000000" dominant-baseline="hanging" transform="matrix(1,0,0,1,225,0)" style="display: block; fill: rgb(0, 0, 0);"><tspan dy="0" >In-memory reactive implementation</tspan><tspan dy="1.2em" x="0" >of MultipartUploadCommandReposit</tspan><tspan dy="1.2em" x="0" >ory and</tspan><tspan dy="1.2em" x="0" >MultipartUploadQueryRepository.</tspan><tspan dy="1.2em" x="0" >Internally stores multipart upload</tspan><tspan dy="1.2em" x="0" >sessions in a ConcurrentHashMap</tspan><tspan dy="1.2em" x="0" >structure.</tspan></text><g  id="v-2505" color="#000000" transform="matrix(1,0,0,1,222.5,268)" display="none" style="fill: rgb(0, 0, 0);"><g ></g><g ></g><g ></g><g ></g></g><image  id="v-2506"></image></g></g><!--z-index:26--><g   id="j_182"  style="opacity: 1;"><path fill="none" cursor="pointer" stroke="transparent" stroke-linecap="round" joint-selector="wrapper" id="v-2524" stroke-width="10" stroke-linejoin="round" d="M 1379 365.55 L 1539 367 C 1545.6666666666665 367 1551.333333333333 369.3333333333333 1556 374 L 1760.75 566.22"></path><path fill="none" pointer-events="none" joint-selector="line" id="v-2523" stroke="#444444" stroke-width="2" stroke-linejoin="round" stroke-dasharray="8 8" d="M 1379 365.55 L 1539 367 C 1545.6666666666665 367 1551.333333333333 369.3333333333333 1556 374 L 1760.75 566.22" marker-end="url(#v-21252848929)"></path><g id="v-2513" ><g id="v-2514"  label-idx="0" cursor="move" transform="matrix(1,0,0,1,1536.3148193359375,353.5756530761719)" style="cursor: default;"><rect joint-selector="rect" id="v-2518" fill="#ffffff" rx="3" ry="3" x="-81.90103912353516" y="-58.22222137451172" width="164.3303680419922" height="114.17778015136719" pointer-events="none"  style="display: block;"></rect><text joint-selector="text" id="v-2517" font-size="24px" xml:space="preserve" fill="#444444" text-anchor="middle" pointer-events="none" font-family="Tahoma, Verdana, Helvetica, Arial" font-weight="normal"  style="display: block;"><tspan dy="-1.4999999999999998em" >CQS command</tspan><tspan dy="1.2em" x="0" >interface for</tspan><tspan dy="1.2em" x="0" >S3Object</tspan><tspan dy="1.2em" x="0" >persistence</tspan></text></g><g id="v-2515"  label-idx="1" cursor="move" transform="matrix(1,0,0,1,1536.3148193359375,427.1756591796875)" style="cursor: default;"><rect joint-selector="rect" id="v-2520" fill="#ffffff" rx="3" ry="3" x="-64.2578125" y="-8.848888397216797" width="129.4069061279297" height="16.66666603088379"  pointer-events="none" style="display: block;"></rect><text joint-selector="text" id="v-2519" font-size="16.799999999999997px" xml:space="preserve" fill="#444444" text-anchor="middle" pointer-events="none" font-family="Tahoma, Verdana, Helvetica, Arial" font-weight="normal"  style="display: block;"><tspan dy="0.3em" >[Implemented by]</tspan></text></g><g id="v-2516"  label-idx="2" cursor="move" transform="matrix(1,0,0,1,1583.159423828125,477.48541259765625)" style="cursor: default;"><rect joint-selector="rect" id="v-2522" fill="#ffffff" rx="3" ry="3" x="0" y="0" width="0" height="0"  display="none"></rect><text joint-selector="text" id="v-2521" fill="#000000" font-size="14" text-anchor="middle" text-vertical-anchor="middle" pointer-events="none"></text></g></g></g><!--z-index:27--><g   id="j_183"  style="opacity: 1;"><path fill="none" cursor="pointer" stroke="transparent" stroke-linecap="round" joint-selector="wrapper" id="v-2542" stroke-width="10" stroke-linejoin="round" d="M 1379 1115.55 L 1539 1117 C 1545.6666666666665 1117 1551.333333333333 1114.6666666666665 1556 1110 L 1764.04 911.01"></path><path fill="none" pointer-events="none" joint-selector="line" id="v-2541" stroke="#444444" stroke-width="2" stroke-linejoin="round" stroke-dasharray="8 8" d="M 1379 1115.55 L 1539 1117 C 1545.6666666666665 1117 1551.333333333333 1114.6666666666665 1556 1110 L 1764.04 911.01" marker-end="url(#v-21252848929)"></path><g id="v-2531" ><g id="v-2532"  label-idx="0" cursor="move" transform="matrix(1,0,0,1,1538.7254638671875,1103.5975341796875)" style="cursor: default;"><rect joint-selector="rect" id="v-2536" fill="#ffffff" rx="3" ry="3" x="-81.90103912353516" y="-58.22222137451172" width="164.3303680419922" height="114.17778015136719" pointer-events="none"  style="display: block;"></rect><text joint-selector="text" id="v-2535" font-size="24px" xml:space="preserve" fill="#444444" text-anchor="middle" pointer-events="none" font-family="Tahoma, Verdana, Helvetica, Arial" font-weight="normal"  style="display: block;"><tspan dy="-1.4999999999999998em" >CQS command</tspan><tspan dy="1.2em" x="0" >interface for</tspan><tspan dy="1.2em" x="0" >Bucket</tspan><tspan dy="1.2em" x="0" >persistence</tspan></text></g><g id="v-2533"  label-idx="1" cursor="move" transform="matrix(1,0,0,1,1538.7254638671875,1177.197509765625)" style="cursor: default;"><rect joint-selector="rect" id="v-2538" fill="#ffffff" rx="3" ry="3" x="-64.2578125" y="-8.848888397216797" width="129.4069061279297" height="16.66666603088379"  pointer-events="none" style="display: block;"></rect><text joint-selector="text" id="v-2537" font-size="16.799999999999997px" xml:space="preserve" fill="#444444" text-anchor="middle" pointer-events="none" font-family="Tahoma, Verdana, Helvetica, Arial" font-weight="normal"  style="display: block;"><tspan dy="0.3em" >[Implemented by]</tspan></text></g><g id="v-2534"  label-idx="2" cursor="move" transform="matrix(1,0,0,1,1585.3780517578125,1140.9349365234375)" style="cursor: default;"><rect joint-selector="rect" id="v-2540" fill="#ffffff" rx="3" ry="3" x="0" y="0" width="0" height="0"  display="none"></rect><text joint-selector="text" id="v-2539" fill="#000000" font-size="14" text-anchor="middle" text-vertical-anchor="middle" pointer-events="none"></text></g></g></g><!--z-index:28--><g   id="j_184"  style="opacity: 1;"><path fill="none" cursor="pointer" stroke="transparent" stroke-linecap="round" joint-selector="wrapper" id="v-2557" stroke-width="10" stroke-linejoin="round" d="M 2140.46 566.22 L 2331 399 C 2336.333333333333 394.3333333333333 2342.333333333333 392 2349 392 L 2559 390.33"></path><path fill="none" pointer-events="none" joint-selector="line" id="v-2556" stroke="#444444" stroke-width="2" stroke-linejoin="round" stroke-dasharray="8 8" d="M 2140.46 566.22 L 2331 399 C 2336.333333333333 394.3333333333333 2342.333333333333 392 2349 392 L 2559 390.33" marker-end="url(#v-21252848929)"></path><g id="v-2546" ><g id="v-2547"  label-idx="0" cursor="move" transform="matrix(1,0,0,1,2355.161376953125,378.5509948730469)" style="cursor: default;"><rect joint-selector="rect" id="v-2551" fill="#ffffff" rx="3" ry="3" x="-85.24304962158203" y="-15.022221565246582" width="172.36717224121094" height="27.77777671813965" pointer-events="none"  style="display: block;"></rect><text joint-selector="text" id="v-2550" font-size="24px" xml:space="preserve" fill="#444444" text-anchor="middle" pointer-events="none" font-family="Tahoma, Verdana, Helvetica, Arial" font-weight="normal"  style="display: block;"><tspan dy="0.3em" >Implemented by</tspan></text></g><g id="v-2548"  label-idx="1" cursor="move" transform="matrix(1,0,0,1,2355.161376953125,408.95098876953125)" style="cursor: default;"><rect joint-selector="rect" id="v-2553" fill="#ffffff" rx="3" ry="3" x="-47.96006774902344" y="-8.848888397216797" width="96.7998046875" height="16.66666603088379"  pointer-events="none" style="display: block;"></rect><text joint-selector="text" id="v-2552" font-size="16.799999999999997px" xml:space="preserve" fill="#444444" text-anchor="middle" pointer-events="none" font-family="Tahoma, Verdana, Helvetica, Arial" font-weight="normal"  style="display: block;"><tspan dy="0.3em" >[Implements]</tspan></text></g><g id="v-2549"  label-idx="2" cursor="move" transform="matrix(1,0,0,1,2312.0751953125,432.2324523925781)" style="cursor: default;"><rect joint-selector="rect" id="v-2555" fill="#ffffff" rx="3" ry="3" x="0" y="0" width="0" height="0"  display="none"></rect><text joint-selector="text" id="v-2554" fill="#000000" font-size="14" text-anchor="middle" text-vertical-anchor="middle" pointer-events="none"></text></g></g></g><!--z-index:29--><g   id="j_185"  style="opacity: 1;"><path fill="none" cursor="pointer" stroke="transparent" stroke-linecap="round" joint-selector="wrapper" id="v-2572" stroke-width="10" stroke-linejoin="round" d="M 2169 738.62 L 2559 738.62"></path><path fill="none" pointer-events="none" joint-selector="line" id="v-2571" stroke="#444444" stroke-width="2" stroke-linejoin="round" stroke-dasharray="8 8" d="M 2169 738.62 L 2559 738.62" marker-end="url(#v-21252848929)"></path><g id="v-2561" ><g id="v-2562"  label-idx="0" cursor="move" transform="matrix(1,0,0,1,2339,725.219970703125)" style="cursor: default;"><rect joint-selector="rect" id="v-2566" fill="#ffffff" rx="3" ry="3" x="-85.24304962158203" y="-15.022221565246582" width="172.36717224121094" height="27.77777671813965" pointer-events="none"  style="display: block;"></rect><text joint-selector="text" id="v-2565" font-size="24px" xml:space="preserve" fill="#444444" text-anchor="middle" pointer-events="none" font-family="Tahoma, Verdana, Helvetica, Arial" font-weight="normal"  style="display: block;"><tspan dy="0.3em" >Implemented by</tspan></text></g><g id="v-2563"  label-idx="1" cursor="move" transform="matrix(1,0,0,1,2339,755.6199951171875)" style="cursor: default;"><rect joint-selector="rect" id="v-2568" fill="#ffffff" rx="3" ry="3" x="-47.96006774902344" y="-8.848888397216797" width="96.7998046875" height="16.66666603088379"  pointer-events="none" style="display: block;"></rect><text joint-selector="text" id="v-2567" font-size="16.799999999999997px" xml:space="preserve" fill="#444444" text-anchor="middle" pointer-events="none" font-family="Tahoma, Verdana, Helvetica, Arial" font-weight="normal"  style="display: block;"><tspan dy="0.3em" >[Implements]</tspan></text></g><g id="v-2564"  label-idx="2" cursor="move" transform="matrix(1,0,0,1,2354,764.02001953125)" style="cursor: default;"><rect joint-selector="rect" id="v-2570" fill="#ffffff" rx="3" ry="3" x="-4.547473508864641e-13" y="0" width="0" height="0"  display="none"></rect><text joint-selector="text" id="v-2569" fill="#000000" font-size="14" text-anchor="middle" text-vertical-anchor="middle" pointer-events="none"></text></g></g></g><!--z-index:30--><g   id="j_186"  style="opacity: 1;"><path fill="none" cursor="pointer" stroke="transparent" stroke-linecap="round" joint-selector="wrapper" id="v-2587" stroke-width="10" stroke-linejoin="round" d="M 2136.69 911.01 L 2332 1085 C 2336.6666666666665 1089.6666666666665 2342.333333333333 1092 2349 1092 L 2559 1090.33"></path><path fill="none" pointer-events="none" joint-selector="line" id="v-2586" stroke="#444444" stroke-width="2" stroke-linejoin="round" stroke-dasharray="8 8" d="M 2136.69 911.01 L 2332 1085 C 2336.6666666666665 1089.6666666666665 2342.333333333333 1092 2349 1092 L 2559 1090.33" marker-end="url(#v-21252848929)"></path><g id="v-2576" ><g id="v-2577"  label-idx="0" cursor="move" transform="matrix(1,0,0,1,2352.12548828125,1078.5751953125)" style="cursor: default;"><rect joint-selector="rect" id="v-2581" fill="#ffffff" rx="3" ry="3" x="-85.24304962158203" y="-15.022221565246582" width="172.36717224121094" height="27.77777671813965" pointer-events="none"  style="display: block;"></rect><text joint-selector="text" id="v-2580" font-size="24px" xml:space="preserve" fill="#444444" text-anchor="middle" pointer-events="none" font-family="Tahoma, Verdana, Helvetica, Arial" font-weight="normal"  style="display: block;"><tspan dy="0.3em" >Implemented by</tspan></text></g><g id="v-2578"  label-idx="1" cursor="move" transform="matrix(1,0,0,1,2352.12548828125,1108.97509765625)" style="cursor: default;"><rect joint-selector="rect" id="v-2583" fill="#ffffff" rx="3" ry="3" x="-47.96006774902344" y="-8.848888397216797" width="96.7998046875" height="16.66666603088379"  pointer-events="none" style="display: block;"></rect><text joint-selector="text" id="v-2582" font-size="16.799999999999997px" xml:space="preserve" fill="#444444" text-anchor="middle" pointer-events="none" font-family="Tahoma, Verdana, Helvetica, Arial" font-weight="normal"  style="display: block;"><tspan dy="0.3em" >[Implements]</tspan></text></g><g id="v-2579"  label-idx="2" cursor="move" transform="matrix(1,0,0,1,2309.803955078125,1099.535400390625)" style="cursor: default;"><rect joint-selector="rect" id="v-2585" fill="#ffffff" rx="3" ry="3" x="-4.547473508864641e-13" y="0" width="0" height="0"  display="none"></rect><text joint-selector="text" id="v-2584" fill="#000000" font-size="14" text-anchor="middle" text-vertical-anchor="middle" pointer-events="none"></text></g></g></g><!--z-index:31--><!--z-index:32--><!--z-index:33--><!--z-index:34--><!--z-index:35--><!--z-index:36--><!--z-index:37--><!--z-index:38--><!--z-index:39--><!--z-index:40--><!--z-index:41--><!--z-index:42--><!--z-index:43--><!--z-index:44--><!--z-index:45--><!--z-index:46--><!--z-index:47--><!--z-index:48--><!--z-index:49--><!--z-index:50--><!--z-index:51--><!--z-index:52--><!--z-index:53--><!--z-index:54--><!--z-index:55--><!--z-index:56--><!--z-index:57--><!--z-index:58--><!--z-index:59--><!--z-index:60--><!--z-index:61--><!--z-index:62--><!--z-index:63--><!--z-index:64--><!--z-index:65--><!--z-index:66--><!--z-index:67--><!--z-index:68--><!--z-index:69--><!--z-index:70--><!--z-index:71--><!--z-index:72--><!--z-index:73--><!--z-index:74--><!--z-index:75--><!--z-index:76--><!--z-index:77--><!--z-index:78--><!--z-index:79--><!--z-index:80--><!--z-index:81--><!--z-index:82--><!--z-index:83--><!--z-index:84--><!--z-index:85--><!--z-index:86--><!--z-index:87--></g><g  style="user-select: none;"></g><g ></g><g  display="none"></g></g></svg>