<svg xmlns="http://www.w3.org/2000/svg" xmlns:xlink="http://www.w3.org/1999/xlink" version="1.1" width="5990" height="2137" style="width: 5990px; height: 2137px; background: #ffffff" viewBox="0 0 5990 2137"><style id="v-3" type="text/css">        .joint-element .scalable * {            vector-effect: non-scaling-stroke;        }    </style><defs joint-selector="defs"><marker id="v-21252848929" orient="auto" overflow="visible" markerUnits="userSpaceOnUse"><path id="v-65" stroke="#444444" fill="#444444" transform="rotate(180)" d="M 20 -10 0 0 20 10 Z"></path></marker></defs><g joint-selector="layers"  transform="matrix(1,0,0,1,0,0)"><g  style="pointer-events: none;"></g><g ></g><g  style="user-select: none;"><!--z-index:0--><!--z-index:1--><!--z-index:2--><!--z-index:3--><!--z-index:4--><!--z-index:5--><!--z-index:6--><!--z-index:7--><!--z-index:8--><!--z-index:9--><!--z-index:10--><!--z-index:11--><!--z-index:12--><!--z-index:13--><!--z-index:14--><!--z-index:15--><!--z-index:16--><!--z-index:17--><!--z-index:18--><!--z-index:19--><!--z-index:20--><!--z-index:21--><g   id="j_294"  transform="translate(20,2093)"><g id="v-4087"><text  id="v-4088" font-size="24px" xml:space="preserve" y="0.8em" font-weight="normal" text-anchor="start" fill="#444444" pointer-events="none" display="block" font-family="Tahoma, Verdana, Helvetica, Arial"><tspan dy="0" >domenica 12 luglio 2026 alle ore 20:08 Ora legale dell’Europa centrale</tspan></text></g></g><!--z-index:22--><g   id="j_293"  transform="translate(20,2059)"><g id="v-4085"><text  id="v-4086" font-size="24px" xml:space="preserve" y="0.8em" font-weight="normal" text-anchor="start" fill="#444444" pointer-events="none" display="block" font-family="Tahoma, Verdana, Helvetica, Arial"><tspan dy="0" >Storage Engine bounded context: domain model, reactive repository/application ports, reactive orchestration layer, filesystem/YAML adapters, and Anti-Corruption Layer adapter that implements Object Store repository interfaces using the Storage Engine backend. MINIO_STANDARD semantics are STANDARD with dedup disabled and EC enabled (4 data / 2 parity); this view does not claim verified physical EC shard placement.</tspan></text></g></g><!--z-index:23--><g   id="j_292"  transform="translate(20,2013)"><g id="v-4083"><text  id="v-4084" font-size="36px" xml:space="preserve" y="0.8em" font-weight="normal" text-anchor="start" fill="#444444" pointer-events="none" display="block" font-family="Tahoma, Verdana, Helvetica, Arial"><tspan dy="0" >C3 Component: storage-engine</tspan></text></g></g><!--z-index:24--><g   id="j_296"  transform="translate(1089,142)" style="; opacity: 1;"><g id="v-4105"><rect  id="v-4106" width="3810" height="1737" rx="20" ry="20" stroke-width="2" pointer-events="none" stroke="#0f5eaa" fill="#ffffff" opacity="1" stroke-dasharray=""></rect><text  id="v-4107" font-size="33.599999999999994px" xml:space="preserve" y="1698" font-weight="bold" text-anchor="start" pointer-events="visible" font-family="Tahoma, Verdana, Helvetica, Arial" fill="#1168bd" transform="matrix(1,0,0,1,15,0)"><tspan dy="0" >Magrathea ObjectStore</tspan></text><text  id="v-4108" font-size="16.799999999999997px" xml:space="preserve" y="1722" font-weight="normal" text-anchor="start" pointer-events="visible" font-family="Tahoma, Verdana, Helvetica, Arial" fill="#1168bd" transform="matrix(1,0,0,1,15,0)"><tspan dy="0" >[Software System]</tspan></text><image  id="v-4109" pointer-events="visible"></image></g></g><!--z-index:25--><g   id="j_295"  transform="translate(1139,1325)" style=""><g  id="v-4098" style="opacity: 1;"><rect  id="v-4099" rx="20" ry="20" stroke-width="2" pointer-events="visiblePainted" fill="#438dd5" stroke="#3c7fc0" stroke-dasharray="" width="450" height="300" style="fill: rgb(67, 141, 213); stroke: rgb(60, 127, 192);"></rect><text  id="v-4100" font-size="33.599999999999994px" xml:space="preserve" y="-95.97999999999999" font-weight="bold" text-anchor="middle" pointer-events="visible" font-family="Tahoma, Verdana, Helvetica, Arial" fill="#ffffff" dominant-baseline="hanging" transform="matrix(1,0,0,1,225,0)" style="fill: rgb(255, 255, 255);"><tspan dy="0" >bootstrap-application</tspan></text><text  id="v-4101" font-size="16.799999999999997px" xml:space="preserve" y="-54.379999999999995" text-anchor="middle" font-family="Tahoma, Verdana, Helvetica, Arial" fill="#ffffff" dominant-baseline="hanging" transform="matrix(1,0,0,1,225,0)" style="display: block; fill: rgb(255, 255, 255);"><tspan dy="0" >[Container: Spring Boot 4 WebFlux, Reactor Netty,</tspan><tspan dy="1.2em" x="0" >Maven resources/exec/antrun, Node.js/Vite]</tspan></text><text  id="v-4102" font-size="24px" xml:space="preserve" y="-2.4200000000000017" text-anchor="middle" font-family="Tahoma, Verdana, Helvetica, Arial" fill="#ffffff" dominant-baseline="hanging" transform="matrix(1,0,0,1,225,0)" style="display: block; fill: rgb(255, 255, 255);"><tspan dy="0" >Executable Spring Boot</tspan><tspan dy="1.2em" x="0" >application/fat JAR that composes</tspan><tspan dy="1.2em" x="0" >the S3 API, admin API, object-store</tspan><tspan dy="1.2em" x="0" >capabilities, and selectable</tspan><tspan dy="1.2em" x="0" >persistence backends. It owns the</tspan><tspan dy="1.2em" x="0" >static asset handoff: during</tspan><tspan dy="1.2em" x="0" >generate-resources it builds/copies</tspan><tspan dy="1.2em" x="0" >magrathea-ui dist assets plus</tspan><tspan dy="1.2em" x="0" >generated docs/reports/C4 and</tspan><tspan dy="1.2em" x="0" >arc42 images into</tspan><tspan dy="1.2em" x="0" >bootstrap-application classpath</tspan><tspan dy="1.2em" x="0" >static resources, while</tspan><tspan dy="1.2em" x="0" >admin-api-adapter supplies only</tspan><tspan dy="1.2em" x="0" >admin API routes.</tspan></text><g  id="v-4103" color="#ffffff" transform="matrix(1,0,0,1,210,268)" display="none" style="fill: rgb(255, 255, 255);"><g  transform="translate(5 0)"><svg xmlns="http://www.w3.org/2000/svg" width="20" height="20" fill="currentColor" viewBox="0 0 16 16"><path fill-rule="evenodd" d="M6.5 12a5.5 5.5 0 1 0 0-11 5.5 5.5 0 0 0 0 11zM13 6.5a6.5 6.5 0 1 1-13 0 6.5 6.5 0 0 1 13 0z"></path><path d="M10.344 11.742c.03.04.062.078.098.115l3.85 3.85a1 1 0 0 0 1.415-1.414l-3.85-3.85a1.007 1.007 0 0 0-.115-.1 6.538 6.538 0 0 1-1.398 1.4z"></path><path fill-rule="evenodd" d="M6.5 3a.5.5 0 0 1 .5.5V6h2.5a.5.5 0 0 1 0 1H7v2.5a.5.5 0 0 1-1 0V7H3.5a.5.5 0 0 1 0-1H6V3.5a.5.5 0 0 1 .5-.5z"></path></svg></g><g ></g><g ></g><g ></g></g><image  id="v-4104"></image></g></g><!--z-index:26--><g   id="j_297"  transform="translate(2769,1450)" style=""><g  id="v-4119" style="opacity: 1;"><rect  id="v-4120" rx="20" ry="20" stroke-width="2" pointer-events="visiblePainted" fill="#438dd5" stroke="#3c7fc0" stroke-dasharray="" width="450" height="300" style="fill: rgb(67, 141, 213); stroke: rgb(60, 127, 192);"></rect><text  id="v-4121" font-size="33.599999999999994px" xml:space="preserve" y="-42.69999999999999" font-weight="bold" text-anchor="middle" pointer-events="visible" font-family="Tahoma, Verdana, Helvetica, Arial" fill="#ffffff" dominant-baseline="hanging" transform="matrix(1,0,0,1,225,0)" style="fill: rgb(255, 255, 255);"><tspan dy="0" >admin-api-adapter</tspan></text><text  id="v-4122" font-size="16.799999999999997px" xml:space="preserve" y="-1.0999999999999943" text-anchor="middle" font-family="Tahoma, Verdana, Helvetica, Arial" fill="#ffffff" dominant-baseline="hanging" transform="matrix(1,0,0,1,225,0)" style="display: block; fill: rgb(255, 255, 255);"><tspan dy="0" >[Container: Spring Boot 4 WebFlux, RouterFunction]</tspan></text><text  id="v-4123" font-size="24px" xml:space="preserve" y="30.700000000000003" text-anchor="middle" font-family="Tahoma, Verdana, Helvetica, Arial" fill="#ffffff" dominant-baseline="hanging" transform="matrix(1,0,0,1,225,0)" style="display: block; fill: rgb(255, 255, 255);"><tspan dy="0" >Management HTTP adapter that</tspan><tspan dy="1.2em" x="0" >exposes the implemented JSON</tspan><tspan dy="1.2em" x="0" >Admin Control Plane for</tspan><tspan dy="1.2em" x="0" >health/readiness, backend status,</tspan><tspan dy="1.2em" x="0" >read-only catalogs, non-persistent</tspan><tspan dy="1.2em" x="0" >policy validation, capacity/quota,</tspan><tspan dy="1.2em" x="0" >and operational-report availability.</tspan><tspan dy="1.2em" x="0" >Frontend/static documentation</tspan><tspan dy="1.2em" x="0" >assets are handed off to</tspan><tspan dy="1.2em" x="0" >bootstrap-application and served</tspan><tspan dy="1.2em" x="0" >from its classpath static resources.</tspan></text><g  id="v-4124" color="#ffffff" transform="matrix(1,0,0,1,210,268)" display="none" style="fill: rgb(255, 255, 255);"><g  transform="translate(5 0)"><svg xmlns="http://www.w3.org/2000/svg" width="20" height="20" fill="currentColor" viewBox="0 0 16 16"><path fill-rule="evenodd" d="M6.5 12a5.5 5.5 0 1 0 0-11 5.5 5.5 0 0 0 0 11zM13 6.5a6.5 6.5 0 1 1-13 0 6.5 6.5 0 0 1 13 0z"></path><path d="M10.344 11.742c.03.04.062.078.098.115l3.85 3.85a1 1 0 0 0 1.415-1.414l-3.85-3.85a1.007 1.007 0 0 0-.115-.1 6.538 6.538 0 0 1-1.398 1.4z"></path><path fill-rule="evenodd" d="M6.5 3a.5.5 0 0 1 .5.5V6h2.5a.5.5 0 0 1 0 1H7v2.5a.5.5 0 0 1-1 0V7H3.5a.5.5 0 0 1 0-1H6V3.5a.5.5 0 0 1 .5-.5z"></path></svg></g><g ></g><g ></g><g ></g></g><image  id="v-4125"></image></g></g><!--z-index:27--><g   id="j_298"  transform="translate(1139,192)" style=""><g  id="v-4135" style="opacity: 1;"><rect  id="v-4136" rx="20" ry="20" stroke-width="2" pointer-events="visiblePainted" fill="#438dd5" stroke="#3c7fc0" stroke-dasharray="" width="450" height="300" style="fill: rgb(67, 141, 213); stroke: rgb(60, 127, 192);"></rect><text  id="v-4137" font-size="33.599999999999994px" xml:space="preserve" y="-19.659999999999968" font-weight="bold" text-anchor="middle" pointer-events="visible" font-family="Tahoma, Verdana, Helvetica, Arial" fill="#ffffff" dominant-baseline="hanging" transform="matrix(1,0,0,1,225,0)" style="fill: rgb(255, 255, 255);"><tspan dy="0" >reactive-</tspan><tspan dy="1.2em" x="0" >repository-application</tspan></text><text  id="v-4138" font-size="16.799999999999997px" xml:space="preserve" y="62.26000000000002" text-anchor="middle" font-family="Tahoma, Verdana, Helvetica, Arial" fill="#ffffff" dominant-baseline="hanging" transform="matrix(1,0,0,1,225,0)" style="display: block; fill: rgb(255, 255, 255);"><tspan dy="0" >[Container: Java 21 CQS interfaces]</tspan></text><text  id="v-4139" font-size="24px" xml:space="preserve" y="94.06000000000002" text-anchor="middle" font-family="Tahoma, Verdana, Helvetica, Arial" fill="#ffffff" dominant-baseline="hanging" transform="matrix(1,0,0,1,225,0)" style="display: block; fill: rgb(255, 255, 255);"><tspan dy="0" >Command/Query repository</tspan><tspan dy="1.2em" x="0" >interfaces:</tspan><tspan dy="1.2em" x="0" >BucketCommandRepository,</tspan><tspan dy="1.2em" x="0" >BucketQueryRepository,</tspan><tspan dy="1.2em" x="0" >S3ObjectCommandRepository,</tspan><tspan dy="1.2em" x="0" >S3ObjectQueryRepository, Multipart</tspan><tspan dy="1.2em" x="0" >UploadCommandRepository,</tspan><tspan dy="1.2em" x="0" >MultipartUploadQueryRepository.</tspan></text><g  id="v-4140" color="#ffffff" transform="matrix(1,0,0,1,210,268)" display="none" style="fill: rgb(255, 255, 255);"><g  transform="translate(5 0)"><svg xmlns="http://www.w3.org/2000/svg" width="20" height="20" fill="currentColor" viewBox="0 0 16 16"><path fill-rule="evenodd" d="M6.5 12a5.5 5.5 0 1 0 0-11 5.5 5.5 0 0 0 0 11zM13 6.5a6.5 6.5 0 1 1-13 0 6.5 6.5 0 0 1 13 0z"></path><path d="M10.344 11.742c.03.04.062.078.098.115l3.85 3.85a1 1 0 0 0 1.415-1.414l-3.85-3.85a1.007 1.007 0 0 0-.115-.1 6.538 6.538 0 0 1-1.398 1.4z"></path><path fill-rule="evenodd" d="M6.5 3a.5.5 0 0 1 .5.5V6h2.5a.5.5 0 0 1 0 1H7v2.5a.5.5 0 0 1-1 0V7H3.5a.5.5 0 0 1 0-1H6V3.5a.5.5 0 0 1 .5-.5z"></path></svg></g><g ></g><g ></g><g ></g></g><image  id="v-4141"></image></g></g><!--z-index:28--><g   id="j_300"  transform="translate(1929,263)" style="; opacity: 1;"><g id="v-4155"><rect  id="v-4156" width="2920" height="1055" rx="20" ry="20" stroke-width="2" pointer-events="none" stroke="#3c7fc0" fill="#ffffff" opacity="1" stroke-dasharray=""></rect><text  id="v-4157" font-size="33.599999999999994px" xml:space="preserve" y="1016" font-weight="bold" text-anchor="start" pointer-events="visible" font-family="Tahoma, Verdana, Helvetica, Arial" fill="#438dd5" transform="matrix(1,0,0,1,15,0)"><tspan dy="0" >storage-engine</tspan></text><text  id="v-4158" font-size="16.799999999999997px" xml:space="preserve" y="1040" font-weight="normal" text-anchor="start" pointer-events="visible" font-family="Tahoma, Verdana, Helvetica, Arial" fill="#438dd5" transform="matrix(1,0,0,1,15,0)"><tspan dy="0" >[Container]</tspan></text><image  id="v-4159" pointer-events="visible"></image></g></g><!--z-index:29--><g   id="j_299"  transform="translate(3559,313)" style=""><g  id="v-4148" style="opacity: 1;"><rect  id="v-4149" rx="20" ry="20" stroke-width="2" pointer-events="visiblePainted" fill="#85bbf0" stroke="#78a8d8" stroke-dasharray="" width="450" height="300" style="fill: rgb(133, 187, 240); stroke: rgb(120, 168, 216);"></rect><text  id="v-4150" font-size="33.599999999999994px" xml:space="preserve" y="-114.69999999999999" font-weight="bold" text-anchor="middle" pointer-events="visible" font-family="Tahoma, Verdana, Helvetica, Arial" fill="#000000" dominant-baseline="hanging" transform="matrix(1,0,0,1,225,0)" style="fill: rgb(0, 0, 0);"><tspan dy="0" >storage-engine-domain</tspan></text><text  id="v-4151" font-size="16.799999999999997px" xml:space="preserve" y="-73.1" text-anchor="middle" font-family="Tahoma, Verdana, Helvetica, Arial" fill="#000000" dominant-baseline="hanging" transform="matrix(1,0,0,1,225,0)" style="display: block; fill: rgb(0, 0, 0);"><tspan dy="0" >[Component: Java 21 domain]</tspan></text><text  id="v-4152" font-size="24px" xml:space="preserve" y="-41.3" text-anchor="middle" font-family="Tahoma, Verdana, Helvetica, Arial" fill="#000000" dominant-baseline="hanging" transform="matrix(1,0,0,1,225,0)" style="display: block; fill: rgb(0, 0, 0);"><tspan dy="0" >Pure domain model: StoragePolicy,</tspan><tspan dy="1.2em" x="0" >EffectiveStoragePolicy,</tspan><tspan dy="1.2em" x="0" >VirtualDevice, DedupNamespace,</tspan><tspan dy="1.2em" x="0" >WorkflowCompatibilityKey,</tspan><tspan dy="1.2em" x="0" >DeviceConfigurationHash, StepPlan,</tspan><tspan dy="1.2em" x="0" >StepExecutionTrace,</tspan><tspan dy="1.2em" x="0" >ChunkPersistenceTrace,</tspan><tspan dy="1.2em" x="0" >ObjectManifest, StorageDevice,</tspan><tspan dy="1.2em" x="0" >DiskSet, and StoredObject</tspan><tspan dy="1.2em" x="0" >aggregate. Zero framework</tspan><tspan dy="1.2em" x="0" >dependencies. MINIO_STANDARD</tspan><tspan dy="1.2em" x="0" >semantics are STANDARD with</tspan><tspan dy="1.2em" x="0" >dedup disabled, EC enabled (4 data</tspan><tspan dy="1.2em" x="0" >/ 2 parity), replication factor 1,</tspan><tspan dy="1.2em" x="0" >compression disabled, and</tspan><tspan dy="1.2em" x="0" >encryption disabled by default.</tspan></text><g  id="v-4153" color="#000000" transform="matrix(1,0,0,1,222.5,268)" display="none" style="fill: rgb(0, 0, 0);"><g ></g><g ></g><g ></g><g ></g></g><image  id="v-4154"></image></g></g><!--z-index:30--><g   id="j_301"  transform="translate(3559,889)" style=""><g  id="v-4169" style="opacity: 1;"><rect  id="v-4170" rx="20" ry="20" stroke-width="2" pointer-events="visiblePainted" fill="#85bbf0" stroke="#78a8d8" stroke-dasharray="" width="450" height="300" style="fill: rgb(133, 187, 240); stroke: rgb(120, 168, 216);"></rect><text  id="v-4171" font-size="33.599999999999994px" xml:space="preserve" y="-160.77999999999997" font-weight="bold" text-anchor="middle" pointer-events="visible" font-family="Tahoma, Verdana, Helvetica, Arial" fill="#000000" dominant-baseline="hanging" transform="matrix(1,0,0,1,225,0)" style="fill: rgb(0, 0, 0);"><tspan dy="0" >storage-</tspan><tspan dy="1.2em" x="0" >engine-</tspan><tspan dy="1.2em" x="0" >reactive-</tspan><tspan dy="1.2em" x="0" >repository-application</tspan></text><text  id="v-4172" font-size="16.799999999999997px" xml:space="preserve" y="1.7800000000000011" text-anchor="middle" font-family="Tahoma, Verdana, Helvetica, Arial" fill="#000000" dominant-baseline="hanging" transform="matrix(1,0,0,1,225,0)" style="display: block; fill: rgb(0, 0, 0);"><tspan dy="0" >[Component: Java 21 CQS/port interfaces]</tspan></text><text  id="v-4173" font-size="24px" xml:space="preserve" y="33.579999999999984" text-anchor="middle" font-family="Tahoma, Verdana, Helvetica, Arial" fill="#000000" dominant-baseline="hanging" transform="matrix(1,0,0,1,225,0)" style="display: block; fill: rgb(0, 0, 0);"><tspan dy="0" >Reactive ports, catalogs, and</tspan><tspan dy="1.2em" x="0" >repository interfaces used by the</tspan><tspan dy="1.2em" x="0" >Storage Engine application:</tspan><tspan dy="1.2em" x="0" >StoragePolicyCatalog,</tspan><tspan dy="1.2em" x="0" >StorageDeviceCatalog,</tspan><tspan dy="1.2em" x="0" >DiskSetCatalog,</tspan><tspan dy="1.2em" x="0" >StoredObjectRepository,</tspan><tspan dy="1.2em" x="0" >ObjectManifestRepository,</tspan><tspan dy="1.2em" x="0" >ContentAddressIndex,</tspan><tspan dy="1.2em" x="0" >DataTransformPort, AlterationPort,</tspan><tspan dy="1.2em" x="0" >ChunkStorePort, and ECOutcome.</tspan><tspan dy="1.2em" x="0" >SHA-256 checksums are computed</tspan><tspan dy="1.2em" x="0" >directly inside pipeline/filesystem</tspan><tspan dy="1.2em" x="0" >components without a dedicated</tspan><tspan dy="1.2em" x="0" >checksum abstraction.</tspan></text><g  id="v-4174" color="#000000" transform="matrix(1,0,0,1,222.5,268)" display="none" style="fill: rgb(0, 0, 0);"><g ></g><g ></g><g ></g><g ></g></g><image  id="v-4175"></image></g></g><!--z-index:31--><g   id="j_302"  transform="translate(2769,457)" style=""><g  id="v-4185" style="opacity: 1;"><rect  id="v-4186" rx="20" ry="20" stroke-width="2" pointer-events="visiblePainted" fill="#85bbf0" stroke="#78a8d8" stroke-dasharray="" width="450" height="300" style="fill: rgb(133, 187, 240); stroke: rgb(120, 168, 216);"></rect><text  id="v-4187" font-size="33.599999999999994px" xml:space="preserve" y="-25.41999999999996" font-weight="bold" text-anchor="middle" pointer-events="visible" font-family="Tahoma, Verdana, Helvetica, Arial" fill="#000000" dominant-baseline="hanging" transform="matrix(1,0,0,1,225,0)" style="fill: rgb(0, 0, 0);"><tspan dy="0" >storage-</tspan><tspan dy="1.2em" x="0" >engine-</tspan><tspan dy="1.2em" x="0" >reactive-application</tspan></text><text  id="v-4188" font-size="16.799999999999997px" xml:space="preserve" y="96.82000000000002" text-anchor="middle" font-family="Tahoma, Verdana, Helvetica, Arial" fill="#000000" dominant-baseline="hanging" transform="matrix(1,0,0,1,225,0)" style="display: block; fill: rgb(0, 0, 0);"><tspan dy="0" >[Component: Spring @Service, Reactor]</tspan></text><text  id="v-4189" font-size="24px" xml:space="preserve" y="128.62" text-anchor="middle" font-family="Tahoma, Verdana, Helvetica, Arial" fill="#000000" dominant-baseline="hanging" transform="matrix(1,0,0,1,225,0)" style="display: block; fill: rgb(0, 0, 0);"><tspan dy="0" >Reactive orchestration and use</tspan><tspan dy="1.2em" x="0" >cases:</tspan><tspan dy="1.2em" x="0" >ReactiveStorageOrchestrator,</tspan><tspan dy="1.2em" x="0" >Chunker, and</tspan><tspan dy="1.2em" x="0" >ApplicationChunkPayload</tspan><tspan dy="1.2em" x="0" >coordinate domain planning with</tspan><tspan dy="1.2em" x="0" >repository/catalog/adapter ports.</tspan></text><g  id="v-4190" color="#000000" transform="matrix(1,0,0,1,222.5,268)" display="none" style="fill: rgb(0, 0, 0);"><g ></g><g ></g><g ></g><g ></g></g><image  id="v-4191"></image></g></g><!--z-index:32--><g   id="j_303"  transform="translate(4349,889)" style=""><g  id="v-4201" style="opacity: 1;"><rect  id="v-4202" rx="20" ry="20" stroke-width="2" pointer-events="visiblePainted" fill="#85bbf0" stroke="#78a8d8" stroke-dasharray="" width="450" height="300" style="fill: rgb(133, 187, 240); stroke: rgb(120, 168, 216);"></rect><text  id="v-4203" font-size="33.599999999999994px" xml:space="preserve" y="-198.21999999999997" font-weight="bold" text-anchor="middle" pointer-events="visible" font-family="Tahoma, Verdana, Helvetica, Arial" fill="#000000" dominant-baseline="hanging" transform="matrix(1,0,0,1,225,0)" style="fill: rgb(0, 0, 0);"><tspan dy="0" >storage-</tspan><tspan dy="1.2em" x="0" >engine-</tspan><tspan dy="1.2em" x="0" >reactive-infrastructure</tspan></text><text  id="v-4204" font-size="16.799999999999997px" xml:space="preserve" y="-75.97999999999999" text-anchor="middle" font-family="Tahoma, Verdana, Helvetica, Arial" fill="#000000" dominant-baseline="hanging" transform="matrix(1,0,0,1,225,0)" style="display: block; fill: rgb(0, 0, 0);"><tspan dy="0" >[Component: Java 21, Reactor, YAML]</tspan></text><text  id="v-4205" font-size="24px" xml:space="preserve" y="-44.18000000000001" text-anchor="middle" font-family="Tahoma, Verdana, Helvetica, Arial" fill="#000000" dominant-baseline="hanging" transform="matrix(1,0,0,1,225,0)" style="display: block; fill: rgb(0, 0, 0);"><tspan dy="0" >Filesystem and YAML</tspan><tspan dy="1.2em" x="0" >adapters/configuration:</tspan><tspan dy="1.2em" x="0" >FileSystemStorageCluster,</tspan><tspan dy="1.2em" x="0" >FileSystemStorageNode,</tspan><tspan dy="1.2em" x="0" >FileSystemVirtualDeviceMapper,</tspan><tspan dy="1.2em" x="0" >FileSystemContentAddressIndex,</tspan><tspan dy="1.2em" x="0" >FileSystemManifestRepository,</tspan><tspan dy="1.2em" x="0" >FileSystemStoredObjectRepository,</tspan><tspan dy="1.2em" x="0" >YAML policy/device/disk-set</tspan><tspan dy="1.2em" x="0" >catalogs, compression/</tspan><tspan dy="1.2em" x="0" >encryption/EC/replication adapters,</tspan><tspan dy="1.2em" x="0" >direct SHA-256 calculation in</tspan><tspan dy="1.2em" x="0" >filesystem/pipeline components, and</tspan><tspan dy="1.2em" x="0" >FaultInjectingStorageCluster chaos</tspan><tspan dy="1.2em" x="0" >decorator. MINIO_STANDARD</tspan><tspan dy="1.2em" x="0" >YAML enables EC (4 data / 2 parity)</tspan><tspan dy="1.2em" x="0" >and disables dedup; current C4</tspan><tspan dy="1.2em" x="0" >docs do not claim verified physical</tspan><tspan dy="1.2em" x="0" >EC shard placement.</tspan></text><g  id="v-4206" color="#000000" transform="matrix(1,0,0,1,222.5,268)" display="none" style="fill: rgb(0, 0, 0);"><g ></g><g ></g><g ></g><g ></g></g><image  id="v-4207"></image></g></g><!--z-index:33--><g   id="j_304"  transform="translate(1979,457)" style=""><g  id="v-4217" style="opacity: 1;"><rect  id="v-4218" rx="20" ry="20" stroke-width="2" pointer-events="visiblePainted" fill="#85bbf0" stroke="#78a8d8" stroke-dasharray="" width="450" height="300" style="fill: rgb(133, 187, 240); stroke: rgb(120, 168, 216);"></rect><text  id="v-4219" font-size="33.599999999999994px" xml:space="preserve" y="-114.69999999999993" font-weight="bold" text-anchor="middle" pointer-events="visible" font-family="Tahoma, Verdana, Helvetica, Arial" fill="#000000" dominant-baseline="hanging" transform="matrix(1,0,0,1,225,0)" style="fill: rgb(0, 0, 0);"><tspan dy="0" >object-</tspan><tspan dy="1.2em" x="0" >store-</tspan><tspan dy="1.2em" x="0" >reactive-</tspan><tspan dy="1.2em" x="0" >repository-</tspan><tspan dy="1.2em" x="0" >storage-</tspan><tspan dy="1.2em" x="0" >engine-infrastructure</tspan></text><text  id="v-4220" font-size="16.799999999999997px" xml:space="preserve" y="128.50000000000003" text-anchor="middle" font-family="Tahoma, Verdana, Helvetica, Arial" fill="#000000" dominant-baseline="hanging" transform="matrix(1,0,0,1,225,0)" style="display: block; fill: rgb(0, 0, 0);"><tspan dy="0" >[Component: Spring @Repository, Reactor]</tspan></text><text  id="v-4221" font-size="24px" xml:space="preserve" y="160.3" text-anchor="middle" font-family="Tahoma, Verdana, Helvetica, Arial" fill="#000000" dominant-baseline="hanging" transform="matrix(1,0,0,1,225,0)" style="display: block; fill: rgb(0, 0, 0);"><tspan dy="0" >Anti-Corruption Layer + adapter:</tspan><tspan dy="1.2em" x="0" >implements Object Store repository</tspan><tspan dy="1.2em" x="0" >interfaces using the Storage Engine</tspan><tspan dy="1.2em" x="0" >backend. Contains ObjectStoreToSt</tspan><tspan dy="1.2em" x="0" >orageEngineTranslator, StorageEngi</tspan><tspan dy="1.2em" x="0" >neReactiveS3ObjectRepository, Stor</tspan><tspan dy="1.2em" x="0" >ageEngineReactiveBucketRepositor</tspan><tspan dy="1.2em" x="0" >y, StorageEngineReactiveMultipartU</tspan><tspan dy="1.2em" x="0" >ploadRepository.</tspan></text><g  id="v-4222" color="#000000" transform="matrix(1,0,0,1,222.5,268)" display="none" style="fill: rgb(0, 0, 0);"><g ></g><g ></g><g ></g><g ></g></g><image  id="v-4223"></image></g></g><!--z-index:34--><g   id="j_305"  style="opacity: 1;"><path fill="none" cursor="pointer" stroke="transparent" stroke-linecap="round" joint-selector="wrapper" id="v-4238" stroke-width="10" stroke-linejoin="round" d="M 1589 339.97 L 1919 342 C 1925.6666666666665 342 1931.3333333333333 344.3333333333333 1936 349 L 1979 389.57"></path><path fill="none" pointer-events="none" joint-selector="line" id="v-4237" stroke="#444444" stroke-width="2" stroke-linejoin="round" stroke-dasharray="8 8" d="M 1589 339.97 L 1919 342 C 1925.6666666666665 342 1931.3333333333333 344.3333333333333 1936 349 L 1979 389.57" marker-end="url(#v-21252848929)"></path><g id="v-4227" ><g id="v-4228"  label-idx="0" cursor="move" transform="matrix(1,0,0,1,1726.1217041015625,327.41351318359375)" style="cursor: default;"><rect joint-selector="rect" id="v-4232" fill="#ffffff" rx="3" ry="3" x="-85.24304962158203" y="-43.82221984863281" width="172.36717224121094" height="85.37777709960938" pointer-events="none"  style="display: block;"></rect><text joint-selector="text" id="v-4231" font-size="24px" xml:space="preserve" fill="#444444" text-anchor="middle" pointer-events="none" font-family="Tahoma, Verdana, Helvetica, Arial" font-weight="normal"  style="display: block;"><tspan dy="-0.8999999999999999em" >Implemented by</tspan><tspan dy="1.2em" x="0" >(storage-engine</tspan><tspan dy="1.2em" x="0" >profile)</tspan></text></g><g id="v-4229"  label-idx="1" cursor="move" transform="matrix(1,0,0,1,1726.1217041015625,386.6134948730469)" style="cursor: default;"><rect joint-selector="rect" id="v-4234" fill="#ffffff" rx="3" ry="3" x="-47.96006774902344" y="-8.848888397216797" width="96.7998046875" height="16.66666603088379"  pointer-events="none" style="display: block;"></rect><text joint-selector="text" id="v-4233" font-size="16.799999999999997px" xml:space="preserve" fill="#444444" text-anchor="middle" pointer-events="none" font-family="Tahoma, Verdana, Helvetica, Arial" font-weight="normal"  style="display: block;"><tspan dy="0.3em" >[Implements]</tspan></text></g><g id="v-4230"  label-idx="2" cursor="move" transform="matrix(1,0,0,1,1783.006103515625,395.4249572753906)" style="cursor: default;"><rect joint-selector="rect" id="v-4236" fill="#ffffff" rx="3" ry="3" x="0" y="0" width="0" height="0"  display="none"></rect><text joint-selector="text" id="v-4235" fill="#000000" font-size="14" text-anchor="middle" text-vertical-anchor="middle" pointer-events="none"></text></g></g></g><!--z-index:35--><g   id="j_306"  style="opacity: 1;"><path fill="none" cursor="pointer" stroke="transparent" stroke-linecap="round" joint-selector="wrapper" id="v-4253" stroke-width="10" stroke-linejoin="round" d="M 2429 603.62 L 2769 603.62"></path><path fill="none" pointer-events="none" joint-selector="line" id="v-4252" stroke="#444444" stroke-width="2" stroke-linejoin="round" stroke-dasharray="8 8" d="M 2429 603.62 L 2769 603.62" marker-end="url(#v-21252848929)"></path><g id="v-4242" ><g id="v-4243"  label-idx="0" cursor="move" transform="matrix(1,0,0,1,2599,590.219970703125)" style="cursor: default;"><rect joint-selector="rect" id="v-4247" fill="#ffffff" rx="3" ry="3" x="-82.5954818725586" y="-58.22222137451172" width="165.7341766357422" height="114.17778015136719" pointer-events="none"  style="display: block;"></rect><text joint-selector="text" id="v-4246" font-size="24px" xml:space="preserve" fill="#444444" text-anchor="middle" pointer-events="none" font-family="Tahoma, Verdana, Helvetica, Arial" font-weight="normal"  style="display: block;"><tspan dy="-1.4999999999999998em" >Delegates</tspan><tspan dy="1.2em" x="0" >persistence to</tspan><tspan dy="1.2em" x="0" >Storage Engine</tspan><tspan dy="1.2em" x="0" >orchestrator</tspan></text></g><g id="v-4244"  label-idx="1" cursor="move" transform="matrix(1,0,0,1,2599,663.8200073242188)" style="cursor: default;"><rect joint-selector="rect" id="v-4249" fill="#ffffff" rx="3" ry="3" x="-41.449649810791016" y="-8.848888397216797" width="83.76841735839844" height="16.66666603088379"  pointer-events="none" style="display: block;"></rect><text joint-selector="text" id="v-4248" font-size="16.799999999999997px" xml:space="preserve" fill="#444444" text-anchor="middle" pointer-events="none" font-family="Tahoma, Verdana, Helvetica, Arial" font-weight="normal"  style="display: block;"><tspan dy="0.3em" >[Java calls]</tspan></text></g><g id="v-4245"  label-idx="2" cursor="move" transform="matrix(1,0,0,1,2589,672.219970703125)" style="cursor: default;"><rect joint-selector="rect" id="v-4251" fill="#ffffff" rx="3" ry="3" x="0" y="0" width="0" height="0"  display="none"></rect><text joint-selector="text" id="v-4250" fill="#000000" font-size="14" text-anchor="middle" text-vertical-anchor="middle" pointer-events="none"></text></g></g></g><!--z-index:36--><g   id="j_307"  style="opacity: 1;"><path fill="none" cursor="pointer" stroke="transparent" stroke-linecap="round" joint-selector="wrapper" id="v-4268" stroke-width="10" stroke-linejoin="round" d="M 3219 457.96 L 3381 353 C 3386.333333333333 349.5999999999999 3392.333333333333 348.9333333333332 3399 351 L 3559 395.98"></path><path fill="none" pointer-events="none" joint-selector="line" id="v-4267" stroke="#444444" stroke-width="2" stroke-linejoin="round" stroke-dasharray="8 8" d="M 3219 457.96 L 3381 353 C 3386.333333333333 349.5999999999999 3392.333333333333 348.9333333333332 3399 351 L 3559 395.98" marker-end="url(#v-21252848929)"></path><g id="v-4257" ><g id="v-4258"  label-idx="0" cursor="move" transform="matrix(1,0,0,1,3389.39453125,336.56201171875)" style="cursor: default;"><rect joint-selector="rect" id="v-4262" fill="#ffffff" rx="3" ry="3" x="-99.67447662353516" y="-101.4222183227539" width="199.57054138183594" height="200.57778930664062" pointer-events="none"  style="display: block;"></rect><text joint-selector="text" id="v-4261" font-size="24px" xml:space="preserve" fill="#444444" text-anchor="middle" pointer-events="none" font-family="Tahoma, Verdana, Helvetica, Arial" font-weight="normal"  style="display: block;"><tspan dy="-3.3em" >Uses domain</tspan><tspan dy="1.2em" x="0" >services (Persiste</tspan><tspan dy="1.2em" x="0" >ncePlanner, Effecti</tspan><tspan dy="1.2em" x="0" >vePolicyResolver,</tspan><tspan dy="1.2em" x="0" >VirtualDeviceReso</tspan><tspan dy="1.2em" x="0" >lver, CompleteUpl</tspan><tspan dy="1.2em" x="0" >oadService)</tspan></text></g><g id="v-4259"  label-idx="1" cursor="move" transform="matrix(1,0,0,1,3389.39453125,453.36199951171875)" style="cursor: default;"><rect joint-selector="rect" id="v-4264" fill="#ffffff" rx="3" ry="3" x="-41.449649810791016" y="-8.848888397216797" width="83.76841735839844" height="16.66666603088379"  pointer-events="none" style="display: block;"></rect><text joint-selector="text" id="v-4263" font-size="16.799999999999997px" xml:space="preserve" fill="#444444" text-anchor="middle" pointer-events="none" font-family="Tahoma, Verdana, Helvetica, Arial" font-weight="normal"  style="display: block;"><tspan dy="0.3em" >[Java calls]</tspan></text></g><g id="v-4260"  label-idx="2" cursor="move" transform="matrix(1,0,0,1,3367.604248046875,467.00018310546875)" style="cursor: default;"><rect joint-selector="rect" id="v-4266" fill="#ffffff" rx="3" ry="3" x="0" y="0" width="0" height="0"  display="none"></rect><text joint-selector="text" id="v-4265" fill="#000000" font-size="14" text-anchor="middle" text-vertical-anchor="middle" pointer-events="none"></text></g></g></g><!--z-index:37--><g   id="j_308"  style="opacity: 1;"><path fill="none" cursor="pointer" stroke="transparent" stroke-linecap="round" joint-selector="wrapper" id="v-4286" stroke-width="10" stroke-linejoin="round" d="M 3219 753.25 L 3381 861 C 3386.333333333333 864.5333333333333 3391.9999999999995 867.5333333333333 3398 870 L 3559 939.17"></path><path fill="none" pointer-events="none" joint-selector="line" id="v-4285" stroke="#444444" stroke-width="2" stroke-linejoin="round" stroke-dasharray="8 8" d="M 3219 753.25 L 3381 861 C 3386.333333333333 864.5333333333333 3391.9999999999995 867.5333333333333 3398 870 L 3559 939.17" marker-end="url(#v-21252848929)"></path><g id="v-4275" ><g id="v-4276"  label-idx="0" cursor="move" transform="matrix(1,0,0,1,3388.58740234375,852.14599609375)" style="cursor: default;"><rect joint-selector="rect" id="v-4280" fill="#ffffff" rx="3" ry="3" x="-99.21875" y="-159.02220153808594" width="198.78335571289062" height="315.77777099609375" pointer-events="none"  style="display: block;"></rect><text joint-selector="text" id="v-4279" font-size="24px" xml:space="preserve" fill="#444444" text-anchor="middle" pointer-events="none" font-family="Tahoma, Verdana, Helvetica, Arial" font-weight="normal"  style="display: block;"><tspan dy="-5.7em" >Uses ports and</tspan><tspan dy="1.2em" x="0" >catalogs</tspan><tspan dy="1.2em" x="0" >(ChunkStorePort,</tspan><tspan dy="1.2em" x="0" >ContentAddressIn</tspan><tspan dy="1.2em" x="0" >dex, ObjectManife</tspan><tspan dy="1.2em" x="0" >stRepository, Stor</tspan><tspan dy="1.2em" x="0" >edObjectRepositor</tspan><tspan dy="1.2em" x="0" >y, StoragePolicyC</tspan><tspan dy="1.2em" x="0" >atalog, StorageDe</tspan><tspan dy="1.2em" x="0" >viceCatalog,</tspan><tspan dy="1.2em" x="0" >DiskSetCatalog)</tspan></text></g><g id="v-4277"  label-idx="1" cursor="move" transform="matrix(1,0,0,1,3388.58740234375,1026.5460205078125)" style="cursor: default;"><rect joint-selector="rect" id="v-4282" fill="#ffffff" rx="3" ry="3" x="-83.35503387451172" y="-8.848888397216797" width="167.57667541503906" height="16.66666603088379"  pointer-events="none" style="display: block;"></rect><text joint-selector="text" id="v-4281" font-size="16.799999999999997px" xml:space="preserve" fill="#444444" text-anchor="middle" pointer-events="none" font-family="Tahoma, Verdana, Helvetica, Arial" font-weight="normal"  style="display: block;"><tspan dy="0.3em" >[Repository interfaces]</tspan></text></g><g id="v-4278"  label-idx="2" cursor="move" transform="matrix(1,0,0,1,3370.971923828125,1030.38134765625)" style="cursor: default;"><rect joint-selector="rect" id="v-4284" fill="#ffffff" rx="3" ry="3" x="-4.547473508864641e-13" y="0" width="0" height="0"  display="none"></rect><text joint-selector="text" id="v-4283" fill="#000000" font-size="14" text-anchor="middle" text-vertical-anchor="middle" pointer-events="none"></text></g></g></g><!--z-index:38--><g   id="j_309"  style="opacity: 1;"><path fill="none" cursor="pointer" stroke="transparent" stroke-linecap="round" joint-selector="wrapper" id="v-4301" stroke-width="10" stroke-linejoin="round" d="M 4009 1035.62 L 4349 1035.62"></path><path fill="none" pointer-events="none" joint-selector="line" id="v-4300" stroke="#444444" stroke-width="2" stroke-linejoin="round" stroke-dasharray="8 8" d="M 4009 1035.62 L 4349 1035.62" marker-end="url(#v-21252848929)"></path><g id="v-4290" ><g id="v-4291"  label-idx="0" cursor="move" transform="matrix(1,0,0,1,4179,1022.219970703125)" style="cursor: default;"><rect joint-selector="rect" id="v-4295" fill="#ffffff" rx="3" ry="3" x="-85.24304962158203" y="-43.82221984863281" width="172.36717224121094" height="85.37777709960938" pointer-events="none"  style="display: block;"></rect><text joint-selector="text" id="v-4294" font-size="24px" xml:space="preserve" fill="#444444" text-anchor="middle" pointer-events="none" font-family="Tahoma, Verdana, Helvetica, Arial" font-weight="normal"  style="display: block;"><tspan dy="-0.8999999999999999em" >Implemented by</tspan><tspan dy="1.2em" x="0" >filesystem and</tspan><tspan dy="1.2em" x="0" >YAML adapters</tspan></text></g><g id="v-4292"  label-idx="1" cursor="move" transform="matrix(1,0,0,1,4179,1081.4200439453125)" style="cursor: default;"><rect joint-selector="rect" id="v-4297" fill="#ffffff" rx="3" ry="3" x="-47.96006774902344" y="-8.848888397216797" width="96.7998046875" height="16.66666603088379"  pointer-events="none" style="display: block;"></rect><text joint-selector="text" id="v-4296" font-size="16.799999999999997px" xml:space="preserve" fill="#444444" text-anchor="middle" pointer-events="none" font-family="Tahoma, Verdana, Helvetica, Arial" font-weight="normal"  style="display: block;"><tspan dy="0.3em" >[Implements]</tspan></text></g><g id="v-4293"  label-idx="2" cursor="move" transform="matrix(1,0,0,1,4169,1089.8199462890625)" style="cursor: default;"><rect joint-selector="rect" id="v-4299" fill="#ffffff" rx="3" ry="3" x="0" y="0" width="0" height="0"  display="none"></rect><text joint-selector="text" id="v-4298" fill="#000000" font-size="14" text-anchor="middle" text-vertical-anchor="middle" pointer-events="none"></text></g></g></g><!--z-index:39--><g   id="j_310"  style="opacity: 1;"><path fill="none" cursor="pointer" stroke="transparent" stroke-linecap="round" joint-selector="wrapper" id="v-4319" stroke-width="10" stroke-linejoin="round" d="M 1589 1544.75 L 1749 1597 C 1755.6666666666665 1598.9999999999998 1762.333333333333 1599.9999999999998 1769 1600 L 2769 1597.24"></path><path fill="none" pointer-events="none" joint-selector="line" id="v-4318" stroke="#444444" stroke-width="2" stroke-linejoin="round" stroke-dasharray="8 8" d="M 1589 1544.75 L 1749 1597 C 1755.6666666666665 1598.9999999999998 1762.333333333333 1599.9999999999998 1769 1600 L 2769 1597.24" marker-end="url(#v-21252848929)"></path><g id="v-4308" ><g id="v-4309"  label-idx="0" cursor="move" transform="matrix(1,0,0,1,2203.85888671875,1585.3997802734375)" style="cursor: default;"><rect joint-selector="rect" id="v-4313" fill="#ffffff" rx="3" ry="3" x="-97.89495849609375" y="-43.82221984863281" width="195.7899169921875" height="85.37777709960938" pointer-events="none"  style="display: block;"></rect><text joint-selector="text" id="v-4312" font-size="24px" xml:space="preserve" fill="#444444" text-anchor="middle" pointer-events="none" font-family="Tahoma, Verdana, Helvetica, Arial" font-weight="normal"  style="display: block;"><tspan dy="-0.8999999999999999em" >Mounts admin API</tspan><tspan dy="1.2em" x="0" >routes on the</tspan><tspan dy="1.2em" x="0" >admin server</tspan></text></g><g id="v-4310"  label-idx="1" cursor="move" transform="matrix(1,0,0,1,2203.85888671875,1644.5997314453125)" style="cursor: default;"><rect joint-selector="rect" id="v-4315" fill="#ffffff" rx="3" ry="3" x="-61.935760498046875" y="-8.848888397216797" width="124.75225067138672" height="16.66666603088379"  pointer-events="none" style="display: block;"></rect><text joint-selector="text" id="v-4314" font-size="16.799999999999997px" xml:space="preserve" fill="#444444" text-anchor="middle" pointer-events="none" font-family="Tahoma, Verdana, Helvetica, Arial" font-weight="normal"  style="display: block;"><tspan dy="0.3em" >[RouterFunction]</tspan></text></g><g id="v-4311"  label-idx="2" cursor="move" transform="matrix(1,0,0,1,2164.69677734375,1653.080322265625)" style="cursor: default;"><rect joint-selector="rect" id="v-4317" fill="#ffffff" rx="3" ry="3" x="0" y="0" width="0" height="0"  display="none"></rect><text joint-selector="text" id="v-4316" fill="#000000" font-size="14" text-anchor="middle" text-vertical-anchor="middle" pointer-events="none"></text></g></g></g><!--z-index:40--><g   id="j_311"  style="opacity: 1;"><path fill="none" cursor="pointer" stroke="transparent" stroke-linecap="round" joint-selector="wrapper" id="v-4337" stroke-width="10" stroke-linejoin="round" d="M 1589 1261.19 L 1752 1109 C 1756.6666666666665 1104.4666666666667 1762.333333333333 1102.1333333333332 1769 1102 L 1919 1102 C 1925.6666666666665 1102.1333333333332 1930.6666666666665 1099.1333333333332 1934 1093 L 2056.49 871.05"></path><path fill="none" pointer-events="none" joint-selector="line" id="v-4336" stroke="#444444" stroke-width="2" stroke-linejoin="round" stroke-dasharray="8 8" d="M 1589 1261.19 L 1752 1109 C 1756.6666666666665 1104.4666666666667 1762.333333333333 1102.1333333333332 1769 1102 L 1919 1102 C 1925.6666666666665 1102.1333333333332 1930.6666666666665 1099.1333333333332 1934 1093 L 2056.49 871.05" marker-end="url(#v-21252848929)"></path><g id="v-4326" ><g id="v-4327"  label-idx="0" cursor="move" transform="matrix(1,0,0,1,1769.450439453125,1088.5999755859375)" style="cursor: default;"><rect joint-selector="rect" id="v-4331" fill="#ffffff" rx="3" ry="3" x="-99.21875" y="-72.6222152709961" width="198.98104858398438" height="142.977783203125" pointer-events="none"  style="display: block;"></rect><text joint-selector="text" id="v-4330" font-size="24px" xml:space="preserve" fill="#444444" text-anchor="middle" pointer-events="none" font-family="Tahoma, Verdana, Helvetica, Arial" font-weight="normal"  style="display: block;"><tspan dy="-2.1em" >Selects Storage</tspan><tspan dy="1.2em" x="0" >Engine-backed</tspan><tspan dy="1.2em" x="0" >repositories for the</tspan><tspan dy="1.2em" x="0" >storage-engine</tspan><tspan dy="1.2em" x="0" >profile</tspan></text></g><g id="v-4328"  label-idx="1" cursor="move" transform="matrix(1,0,0,1,1769.450439453125,1176.5999755859375)" style="cursor: default;"><rect joint-selector="rect" id="v-4333" fill="#ffffff" rx="3" ry="3" x="-97.78645324707031" y="-8.848888397216797" width="196.45350646972656" height="16.66666603088379"  pointer-events="none" style="display: block;"></rect><text joint-selector="text" id="v-4332" font-size="16.799999999999997px" xml:space="preserve" fill="#444444" text-anchor="middle" pointer-events="none" font-family="Tahoma, Verdana, Helvetica, Arial" font-weight="normal"  style="display: block;"><tspan dy="0.3em" >[Spring profiles/properties]</tspan></text></g><g id="v-4329"  label-idx="2" cursor="move" transform="matrix(1,0,0,1,1849.083984375,1185)" style="cursor: default;"><rect joint-selector="rect" id="v-4335" fill="#ffffff" rx="3" ry="3" x="2.2737367544323206e-13" y="0" width="0" height="0"  display="none"></rect><text joint-selector="text" id="v-4334" fill="#000000" font-size="14" text-anchor="middle" text-vertical-anchor="middle" pointer-events="none"></text></g></g></g><!--z-index:41--><g   id="j_312"  style="opacity: 1;"><path fill="none" cursor="pointer" stroke="transparent" stroke-linecap="round" joint-selector="wrapper" id="v-4352" stroke-width="10" stroke-linejoin="round" d="M 3069.81 1401.18 L 3385 588 C 3387.666666666666 581.5333333333333 3392.333333333333 577.1999999999999 3399 575 L 3559 527.22"></path><path fill="none" pointer-events="none" joint-selector="line" id="v-4351" stroke="#444444" stroke-width="2" stroke-linejoin="round" stroke-dasharray="8 8" d="M 3069.81 1401.18 L 3385 588 C 3387.666666666666 581.5333333333333 3392.333333333333 577.1999999999999 3399 575 L 3559 527.22" marker-end="url(#v-21252848929)"></path><g id="v-4341" ><g id="v-4342"  label-idx="0" cursor="move" transform="matrix(1,0,0,1,3397.399658203125,562.1844482421875)" style="cursor: default;"><rect joint-selector="rect" id="v-4346" fill="#ffffff" rx="3" ry="3" x="-91.23263549804688" y="-58.22222137451172" width="183.0010223388672" height="114.17778015136719" pointer-events="none"  style="display: block;"></rect><text joint-selector="text" id="v-4345" font-size="24px" xml:space="preserve" fill="#444444" text-anchor="middle" pointer-events="none" font-family="Tahoma, Verdana, Helvetica, Arial" font-weight="normal"  style="display: block;"><tspan dy="-1.4999999999999998em" >Uses storage</tspan><tspan dy="1.2em" x="0" >policy value</tspan><tspan dy="1.2em" x="0" >objects for admin</tspan><tspan dy="1.2em" x="0" >request mapping</tspan></text></g><g id="v-4343"  label-idx="1" cursor="move" transform="matrix(1,0,0,1,3397.399658203125,635.7844848632812)" style="cursor: default;"><rect joint-selector="rect" id="v-4348" fill="#ffffff" rx="3" ry="3" x="-41.449649810791016" y="-8.848888397216797" width="83.76841735839844" height="16.66666603088379"  pointer-events="none" style="display: block;"></rect><text joint-selector="text" id="v-4347" font-size="16.799999999999997px" xml:space="preserve" fill="#444444" text-anchor="middle" pointer-events="none" font-family="Tahoma, Verdana, Helvetica, Arial" font-weight="normal"  style="display: block;"><tspan dy="0.3em" >[Java calls]</tspan></text></g><g id="v-4344"  label-idx="2" cursor="move" transform="matrix(1,0,0,1,3251.1484375,976.1328125)" style="cursor: default;"><rect joint-selector="rect" id="v-4350" fill="#ffffff" rx="3" ry="3" x="0" y="-1.1368683772161603e-13" width="0" height="0"  display="none"></rect><text joint-selector="text" id="v-4349" fill="#000000" font-size="14" text-anchor="middle" text-vertical-anchor="middle" pointer-events="none"></text></g></g></g><!--z-index:42--><g   id="j_313"  style="opacity: 1;"><path fill="none" cursor="pointer" stroke="transparent" stroke-linecap="round" joint-selector="wrapper" id="v-4370" stroke-width="10" stroke-linejoin="round" d="M 3194.66 1401.18 L 3382 1219 C 3386.666666666666 1214.2666666666667 3391.9999999999995 1210.6 3398 1208 L 3559 1136.03"></path><path fill="none" pointer-events="none" joint-selector="line" id="v-4369" stroke="#444444" stroke-width="2" stroke-linejoin="round" stroke-dasharray="8 8" d="M 3194.66 1401.18 L 3382 1219 C 3386.666666666666 1214.2666666666667 3391.9999999999995 1210.6 3398 1208 L 3559 1136.03" marker-end="url(#v-21252848929)"></path><g id="v-4359" ><g id="v-4360"  label-idx="0" cursor="move" transform="matrix(1,0,0,1,3411.554931640625,1188.5406494140625)" style="cursor: default;"><rect joint-selector="rect" id="v-4364" fill="#ffffff" rx="3" ry="3" x="-94.55294799804688" y="-115.82222747802734" width="189.6691131591797" height="229.37779235839844" pointer-events="none"  style="display: block;"></rect><text joint-selector="text" id="v-4363" font-size="24px" xml:space="preserve" fill="#444444" text-anchor="middle" pointer-events="none" font-family="Tahoma, Verdana, Helvetica, Arial" font-weight="normal"  style="display: block;"><tspan dy="-3.9000000000000004em" >Reads configured</tspan><tspan dy="1.2em" x="0" >policy, device,</tspan><tspan dy="1.2em" x="0" >disk-set, and</tspan><tspan dy="1.2em" x="0" >bucket-capacity</tspan><tspan dy="1.2em" x="0" >ports; reports</tspan><tspan dy="1.2em" x="0" >unavailable when</tspan><tspan dy="1.2em" x="0" >required ports are</tspan><tspan dy="1.2em" x="0" >absent</tspan></text></g><g id="v-4361"  label-idx="1" cursor="move" transform="matrix(1,0,0,1,3411.554931640625,1319.7406005859375)" style="cursor: default;"><rect joint-selector="rect" id="v-4366" fill="#ffffff" rx="3" ry="3" x="-92.66492462158203" y="-8.848888397216797" width="186.20346069335938" height="16.66666603088379"  pointer-events="none" style="display: block;"></rect><text joint-selector="text" id="v-4365" font-size="16.799999999999997px" xml:space="preserve" fill="#444444" text-anchor="middle" pointer-events="none" font-family="Tahoma, Verdana, Helvetica, Arial" font-weight="normal"  style="display: block;"><tspan dy="0.3em" >[Reactive port interfaces]</tspan></text></g><g id="v-4362"  label-idx="2" cursor="move" transform="matrix(1,0,0,1,3348.5478515625,1368.0062255859375)" style="cursor: default;"><rect joint-selector="rect" id="v-4368" fill="#ffffff" rx="3" ry="3" x="0" y="0" width="0" height="0"  display="none"></rect><text joint-selector="text" id="v-4367" fill="#000000" font-size="14" text-anchor="middle" text-vertical-anchor="middle" pointer-events="none"></text></g></g></g><!--z-index:43--><!--z-index:44--><!--z-index:45--><!--z-index:46--><!--z-index:47--><!--z-index:48--><!--z-index:49--><!--z-index:50--><!--z-index:51--><!--z-index:52--><!--z-index:53--><!--z-index:54--><!--z-index:55--><!--z-index:56--><!--z-index:57--><!--z-index:58--><!--z-index:59--><!--z-index:60--><!--z-index:61--><!--z-index:62--><!--z-index:63--><!--z-index:64--><!--z-index:65--><!--z-index:66--><!--z-index:67--><!--z-index:68--><!--z-index:69--><!--z-index:70--><!--z-index:71--><!--z-index:72--><!--z-index:73--><!--z-index:74--><!--z-index:75--><!--z-index:76--><!--z-index:77--><!--z-index:78--><!--z-index:79--><!--z-index:80--><!--z-index:81--><!--z-index:82--><!--z-index:83--><!--z-index:84--><!--z-index:85--><!--z-index:86--><!--z-index:87--><!--z-index:88--><!--z-index:89--><!--z-index:90--><!--z-index:91--><!--z-index:92--><!--z-index:93--><!--z-index:94--><!--z-index:95--></g><g  style="user-select: none;"></g><g ></g><g  display="none"></g></g></svg>