<svg xmlns="http://www.w3.org/2000/svg" xmlns:xlink="http://www.w3.org/1999/xlink" version="1.1" width="1590" height="1250" style="width: 1590px; height: 1250px; background: #ffffff" viewBox="0 0 1590 1250"><style id="v-3" type="text/css">        .joint-element .scalable * {            vector-effect: non-scaling-stroke;        }    </style><defs joint-selector="defs"><marker id="v-21252848929" orient="auto" overflow="visible" markerUnits="userSpaceOnUse"><path id="v-65" stroke="#444444" fill="#444444" transform="rotate(180)" d="M 20 -10 0 0 20 10 Z"></path></marker></defs><g joint-selector="layers"  transform="matrix(1,0,0,1,0,0)"><g  style="pointer-events: none;"></g><g ></g><g  style="user-select: none;"><!--z-index:0--><!--z-index:1--><!--z-index:2--><!--z-index:3--><!--z-index:4--><!--z-index:5--><!--z-index:6--><!--z-index:7--><g   id="j_11"  transform="translate(20,1206)"><g id="v-85"><text  id="v-86" font-size="24px" xml:space="preserve" y="0.8em" font-weight="normal" text-anchor="start" fill="#444444" pointer-events="none" display="block" font-family="Tahoma, Verdana, Helvetica, Arial"><tspan dy="0" >lunedì 13 luglio 2026 alle ore 23:17 Ora legale dell’Europa centrale</tspan></text></g></g><!--z-index:8--><g   id="j_10"  transform="translate(20,1172)"><g id="v-83"><text  id="v-84" font-size="24px" xml:space="preserve" y="0.8em" font-weight="normal" text-anchor="start" fill="#444444" pointer-events="none" display="block" font-family="Tahoma, Verdana, Helvetica, Arial"><tspan dy="0" >External S3-compatible clients interact with Magrathea ObjectStore as a single software system.</tspan></text></g></g><!--z-index:9--><g   id="j_9"  transform="translate(20,1126)"><g id="v-81"><text  id="v-82" font-size="36px" xml:space="preserve" y="0.8em" font-weight="normal" text-anchor="start" fill="#444444" pointer-events="none" display="block" font-family="Tahoma, Verdana, Helvetica, Arial"><tspan dy="0" >C1 System Context: Magrathea ObjectStore</tspan></text></g></g><!--z-index:10--><g   id="j_12"  transform="translate(199,592)" style=""><g  id="v-90" style="opacity: 1;"><rect  x="0" y="160" width="400" height="240" rx="70" id="v-92" stroke-width="2" pointer-events="visiblePainted" fill="#ffffff" stroke="#e6e6e6" stroke-dasharray="" style="fill: rgb(255, 255, 255); stroke: rgb(230, 230, 230);"></rect><circle  cx="200" cy="88.88888888888889" r="88.88888888888889" id="v-91" stroke-width="2" pointer-events="visiblePainted" fill="#ffffff" stroke="#e6e6e6" stroke-dasharray="" style="fill: rgb(255, 255, 255); stroke: rgb(230, 230, 230);"></circle><line  x1="80" y1="266.6666666666667" x2="80" y2="400" id="v-98" stroke="#e6e6e6" stroke-width="1" stroke-dasharray="" style="stroke: rgb(230, 230, 230);"></line><line  x1="320" y1="266.6666666666667" x2="320" y2="400" id="v-99" stroke="#e6e6e6" stroke-width="1" stroke-dasharray="" style="stroke: rgb(230, 230, 230);"></line><text  id="v-93" font-size="33.599999999999994px" xml:space="preserve" y="188.10000000000002" font-weight="bold" text-anchor="middle" pointer-events="visible" font-family="Tahoma, Verdana, Helvetica, Arial" fill="#444444" dominant-baseline="hanging" transform="matrix(1,0,0,1,200,0)" style="fill: rgb(68, 68, 68);"><tspan dy="0" >User</tspan></text><text  id="v-94" font-size="16.799999999999997px" xml:space="preserve" y="229.70000000000002" text-anchor="middle" font-family="Tahoma, Verdana, Helvetica, Arial" fill="#444444" dominant-baseline="hanging" transform="matrix(1,0,0,1,200,0)" style="display: block; fill: rgb(68, 68, 68);"><tspan dy="0" >[Person]</tspan></text><text  id="v-95" font-size="24px" xml:space="preserve" y="261.5" text-anchor="middle" font-family="Tahoma, Verdana, Helvetica, Arial" fill="#444444" dominant-baseline="hanging" transform="matrix(1,0,0,1,200,0)" style="display: block; fill: rgb(68, 68, 68);"><tspan dy="0" >End user or automated client</tspan><tspan dy="1.2em" x="0" >using AWS CLI, SDK, curl, or</tspan><tspan dy="1.2em" x="0" >another S3-compatible HTTP</tspan><tspan dy="1.2em" x="0" >client.</tspan></text><g  id="v-96" font-weight="normal" text-anchor="middle" color="#444444" transform="matrix(1,0,0,1,197.5,368)" display="none" style="fill: rgb(68, 68, 68);"><g ></g><g ></g><g ></g><g ></g></g><image  id="v-97"></image></g></g><!--z-index:11--><g   id="j_13"  transform="translate(199,142)" style=""><g  id="v-103" style="opacity: 1;"><rect  x="0" y="160" width="400" height="240" rx="70" id="v-105" stroke-width="2" pointer-events="visiblePainted" fill="#ffffff" stroke="#e6e6e6" stroke-dasharray="" style="fill: rgb(255, 255, 255); stroke: rgb(230, 230, 230);"></rect><circle  cx="200" cy="88.88888888888889" r="88.88888888888889" id="v-104" stroke-width="2" pointer-events="visiblePainted" fill="#ffffff" stroke="#e6e6e6" stroke-dasharray="" style="fill: rgb(255, 255, 255); stroke: rgb(230, 230, 230);"></circle><line  x1="80" y1="266.6666666666667" x2="80" y2="400" id="v-111" stroke="#e6e6e6" stroke-width="1" stroke-dasharray="" style="stroke: rgb(230, 230, 230);"></line><line  x1="320" y1="266.6666666666667" x2="320" y2="400" id="v-112" stroke="#e6e6e6" stroke-width="1" stroke-dasharray="" style="stroke: rgb(230, 230, 230);"></line><text  id="v-106" font-size="33.599999999999994px" xml:space="preserve" y="188.10000000000002" font-weight="bold" text-anchor="middle" pointer-events="visible" font-family="Tahoma, Verdana, Helvetica, Arial" fill="#444444" dominant-baseline="hanging" transform="matrix(1,0,0,1,200,0)" style="fill: rgb(68, 68, 68);"><tspan dy="0" >Administrator</tspan></text><text  id="v-107" font-size="16.799999999999997px" xml:space="preserve" y="229.70000000000002" text-anchor="middle" font-family="Tahoma, Verdana, Helvetica, Arial" fill="#444444" dominant-baseline="hanging" transform="matrix(1,0,0,1,200,0)" style="display: block; fill: rgb(68, 68, 68);"><tspan dy="0" >[Person]</tspan></text><text  id="v-108" font-size="24px" xml:space="preserve" y="261.5" text-anchor="middle" font-family="Tahoma, Verdana, Helvetica, Arial" fill="#444444" dominant-baseline="hanging" transform="matrix(1,0,0,1,200,0)" style="display: block; fill: rgb(68, 68, 68);"><tspan dy="0" >Operator using the bundled</tspan><tspan dy="1.2em" x="0" >Magrathea admin UI, generated</tspan><tspan dy="1.2em" x="0" >documentation, and JSON</tspan><tspan dy="1.2em" x="0" >management API.</tspan></text><g  id="v-109" font-weight="normal" text-anchor="middle" color="#444444" transform="matrix(1,0,0,1,197.5,368)" display="none" style="fill: rgb(68, 68, 68);"><g ></g><g ></g><g ></g><g ></g></g><image  id="v-110"></image></g></g><!--z-index:12--><g   id="j_14"  transform="translate(939,417)" style=""><g  id="v-119" style="opacity: 1;"><rect  id="v-120" rx="20" ry="20" stroke-width="2" pointer-events="visiblePainted" fill="#1168bd" stroke="#0f5eaa" stroke-dasharray="" width="450" height="300" style="fill: rgb(17, 104, 189); stroke: rgb(15, 94, 170);"></rect><text  id="v-121" font-size="33.599999999999994px" xml:space="preserve" y="58.10000000000001" font-weight="bold" text-anchor="middle" pointer-events="visible" font-family="Tahoma, Verdana, Helvetica, Arial" fill="#ffffff" dominant-baseline="hanging" transform="matrix(1,0,0,1,225,0)" style="fill: rgb(255, 255, 255);"><tspan dy="0" >Magrathea ObjectStore</tspan></text><text  id="v-122" font-size="16.799999999999997px" xml:space="preserve" y="99.7" text-anchor="middle" font-family="Tahoma, Verdana, Helvetica, Arial" fill="#ffffff" dominant-baseline="hanging" transform="matrix(1,0,0,1,225,0)" style="display: block; fill: rgb(255, 255, 255);"><tspan dy="0" >[Software System]</tspan></text><text  id="v-123" font-size="24px" xml:space="preserve" y="131.5" text-anchor="middle" font-family="Tahoma, Verdana, Helvetica, Arial" fill="#ffffff" dominant-baseline="hanging" transform="matrix(1,0,0,1,225,0)" style="display: block; fill: rgb(255, 255, 255);"><tspan dy="0" >AWS S3-compatible object storage</tspan><tspan dy="1.2em" x="0" >and bundled admin/documentation</tspan><tspan dy="1.2em" x="0" >UI built with Spring Boot 4 WebFlux</tspan><tspan dy="1.2em" x="0" >and Java 21.</tspan></text><g  id="v-124" color="#ffffff" transform="matrix(1,0,0,1,210,268)" display="none" style="fill: rgb(255, 255, 255);"><g  transform="translate(5 0)"><svg xmlns="http://www.w3.org/2000/svg" width="20" height="20" fill="currentColor" viewBox="0 0 16 16"><path fill-rule="evenodd" d="M6.5 12a5.5 5.5 0 1 0 0-11 5.5 5.5 0 0 0 0 11zM13 6.5a6.5 6.5 0 1 1-13 0 6.5 6.5 0 0 1 13 0z"></path><path d="M10.344 11.742c.03.04.062.078.098.115l3.85 3.85a1 1 0 0 0 1.415-1.414l-3.85-3.85a1.007 1.007 0 0 0-.115-.1 6.538 6.538 0 0 1-1.398 1.4z"></path><path fill-rule="evenodd" d="M6.5 3a.5.5 0 0 1 .5.5V6h2.5a.5.5 0 0 1 0 1H7v2.5a.5.5 0 0 1-1 0V7H3.5a.5.5 0 0 1 0-1H6V3.5a.5.5 0 0 1 .5-.5z"></path></svg></g><g ></g><g ></g><g ></g></g><image  id="v-125"></image></g></g><!--z-index:13--><g   id="j_15"  style="opacity: 1;"><path fill="none" cursor="pointer" stroke="transparent" stroke-linecap="round" joint-selector="wrapper" id="v-140" stroke-width="10" stroke-linejoin="round" d="M 599 342 L 759 342 C 765.6666666666666 342 772 343.66666666666663 778 347 L 939 438.84"></path><path fill="none" pointer-events="none" joint-selector="line" id="v-139" stroke="#444444" stroke-width="2" stroke-linejoin="round" stroke-dasharray="8 8" d="M 599 342 L 759 342 C 765.6666666666666 342 772 343.66666666666663 778 347 L 939 438.84" marker-end="url(#v-21252848929)"></path><g id="v-129" ><g id="v-130"  label-idx="0" cursor="move" transform="matrix(1,0,0,1,768.712890625,329.8402404785156)" style="cursor: default;"><rect joint-selector="rect" id="v-134" fill="#ffffff" rx="3" ry="3" x="-93.32953643798828" y="-72.96943664550781" width="186.9235076904297" height="142.977783203125" pointer-events="none"  style="display: block;"></rect><text joint-selector="text" id="v-133" font-size="24px" xml:space="preserve" fill="#444444" text-anchor="middle" pointer-events="none" font-family="Tahoma, Verdana, Helvetica, Arial" font-weight="normal"  style="display: block;"><tspan dy="-2.1em" >Uses admin UI,</tspan><tspan dy="1.2em" x="0" >generated</tspan><tspan dy="1.2em" x="0" >documentation,</tspan><tspan dy="1.2em" x="0" >and management</tspan><tspan dy="1.2em" x="0" >API</tspan></text></g><g id="v-131"  label-idx="1" cursor="move" transform="matrix(1,0,0,1,768.712890625,417.8402404785156)" style="cursor: default;"><rect joint-selector="rect" id="v-136" fill="#ffffff" rx="3" ry="3" x="-51.228843688964844" y="-10.585000038146973" width="102.45768737792969" height="19.09722328186035"  pointer-events="none" style="display: block;"></rect><text joint-selector="text" id="v-135" font-size="16.799999999999997px" xml:space="preserve" fill="#444444" text-anchor="middle" pointer-events="none" font-family="Tahoma, Verdana, Helvetica, Arial" font-weight="normal"  style="display: block;"><tspan dy="0.3em" >[HTTP/JSON]</tspan></text></g><g id="v-132"  label-idx="2" cursor="move" transform="matrix(1,0,0,1,770.3849487304688,431.3604736328125)" style="cursor: default;"><rect joint-selector="rect" id="v-138" fill="#ffffff" rx="3" ry="3" x="0" y="0" width="0" height="0"  display="none"></rect><text joint-selector="text" id="v-137" fill="#000000" font-size="14" text-anchor="middle" text-vertical-anchor="middle" pointer-events="none"></text></g></g></g><!--z-index:14--><g   id="j_16"  style="opacity: 1;"><path fill="none" cursor="pointer" stroke="transparent" stroke-linecap="round" joint-selector="wrapper" id="v-155" stroke-width="10" stroke-linejoin="round" d="M 599 792 L 759 792 C 765.6666666666666 792 772 790.3333333333333 778 787 L 939 695.16"></path><path fill="none" pointer-events="none" joint-selector="line" id="v-154" stroke="#444444" stroke-width="2" stroke-linejoin="round" stroke-dasharray="8 8" d="M 599 792 L 759 792 C 765.6666666666666 792 772 790.3333333333333 778 787 L 939 695.16" marker-end="url(#v-21252848929)"></path><g id="v-144" ><g id="v-145"  label-idx="0" cursor="move" transform="matrix(1,0,0,1,768.712890625,777.3597412109375)" style="cursor: default;"><rect joint-selector="rect" id="v-149" fill="#ffffff" rx="3" ry="3" x="-90.65755462646484" y="-44.1694450378418" width="181.58419799804688" height="85.3777847290039" pointer-events="none"  style="display: block;"></rect><text joint-selector="text" id="v-148" font-size="24px" xml:space="preserve" fill="#444444" text-anchor="middle" pointer-events="none" font-family="Tahoma, Verdana, Helvetica, Arial" font-weight="normal"  style="display: block;"><tspan dy="-0.8999999999999999em" >Sends S3 bucket</tspan><tspan dy="1.2em" x="0" >operations</tspan><tspan dy="1.2em" x="0" >requests</tspan></text></g><g id="v-146"  label-idx="1" cursor="move" transform="matrix(1,0,0,1,768.712890625,836.5597534179688)" style="cursor: default;"><rect joint-selector="rect" id="v-151" fill="#ffffff" rx="3" ry="3" x="-26.54351234436035" y="-10.585000038146973" width="53.0870246887207" height="19.09722328186035"  pointer-events="none" style="display: block;"></rect><text joint-selector="text" id="v-150" font-size="16.799999999999997px" xml:space="preserve" fill="#444444" text-anchor="middle" pointer-events="none" font-family="Tahoma, Verdana, Helvetica, Arial" font-weight="normal"  style="display: block;"><tspan dy="0.3em" >[HTTP]</tspan></text></g><g id="v-147"  label-idx="2" cursor="move" transform="matrix(1,0,0,1,770.3849487304688,839.8395385742188)" style="cursor: default;"><rect joint-selector="rect" id="v-153" fill="#ffffff" rx="3" ry="3" x="0" y="-1.1368683772161603e-13" width="0" height="0"  display="none"></rect><text joint-selector="text" id="v-152" fill="#000000" font-size="14" text-anchor="middle" text-vertical-anchor="middle" pointer-events="none"></text></g></g></g><!--z-index:15--></g><g  style="user-select: none;"></g><g ></g><g  display="none"></g></g></svg>