<svg xmlns="http://www.w3.org/2000/svg" xmlns:xlink="http://www.w3.org/1999/xlink" version="1.1" width="1590" height="800" style="width: 1590px; height: 800px; background: #ffffff" viewBox="0 0 1590 800"><style id="v-3" type="text/css">        .joint-element .scalable * {            vector-effect: non-scaling-stroke;        }    </style><defs joint-selector="defs"><marker id="v-21252848929" orient="auto" overflow="visible" markerUnits="userSpaceOnUse"><path id="v-52" stroke="#444444" fill="#444444" transform="rotate(180)" d="M 20 -10 0 0 20 10 Z"></path></marker></defs><g joint-selector="layers"  transform="matrix(1,0,0,1,0,0)"><g  style="pointer-events: none;"></g><g ></g><g  style="user-select: none;"><!--z-index:0--><!--z-index:1--><!--z-index:2--><!--z-index:3--><!--z-index:4--><!--z-index:5--><g   id="j_9"  transform="translate(20,756)"><g id="v-57"><text  id="v-58" font-size="24px" xml:space="preserve" y="0.8em" font-weight="normal" text-anchor="start" fill="#444444" pointer-events="none" display="block" font-family="Tahoma, Verdana, Helvetica, Arial"><tspan dy="0" >lunedì 25 maggio 2026 alle ore 21:23 Ora legale dell’Europa centrale</tspan></text></g></g><!--z-index:6--><g   id="j_8"  transform="translate(20,722)"><g id="v-55"><text  id="v-56" font-size="24px" xml:space="preserve" y="0.8em" font-weight="normal" text-anchor="start" fill="#444444" pointer-events="none" display="block" font-family="Tahoma, Verdana, Helvetica, Arial"><tspan dy="0" >External S3-compatible clients interact with Magrathea ObjectStorage as a single software system.</tspan></text></g></g><!--z-index:7--><g   id="j_7"  transform="translate(20,676)"><g id="v-53"><text  id="v-54" font-size="36px" xml:space="preserve" y="0.8em" font-weight="normal" text-anchor="start" fill="#444444" pointer-events="none" display="block" font-family="Tahoma, Verdana, Helvetica, Arial"><tspan dy="0" >C1 System Context: Magrathea ObjectStorage</tspan></text></g></g><!--z-index:8--><g   id="j_10"  transform="translate(199,142)" style=""><g  id="v-62" style="opacity: 1;"><rect  x="0" y="160" width="400" height="240" rx="70" id="v-64" stroke-width="2" pointer-events="visiblePainted" fill="#ffffff" stroke="#e6e6e6" stroke-dasharray="" style="fill: rgb(255, 255, 255); stroke: rgb(230, 230, 230);"></rect><circle  cx="200" cy="88.88888888888889" r="88.88888888888889" id="v-63" stroke-width="2" pointer-events="visiblePainted" fill="#ffffff" stroke="#e6e6e6" stroke-dasharray="" style="fill: rgb(255, 255, 255); stroke: rgb(230, 230, 230);"></circle><line  x1="80" y1="266.6666666666667" x2="80" y2="400" id="v-70" stroke="#e6e6e6" stroke-width="1" stroke-dasharray="" style="stroke: rgb(230, 230, 230);"></line><line  x1="320" y1="266.6666666666667" x2="320" y2="400" id="v-71" stroke="#e6e6e6" stroke-width="1" stroke-dasharray="" style="stroke: rgb(230, 230, 230);"></line><text  id="v-65" font-size="33.599999999999994px" xml:space="preserve" y="188.10000000000002" font-weight="bold" text-anchor="middle" pointer-events="visible" font-family="Tahoma, Verdana, Helvetica, Arial" fill="#444444" dominant-baseline="hanging" transform="matrix(1,0,0,1,200,0)" style="fill: rgb(68, 68, 68);"><tspan dy="0" >User</tspan></text><text  id="v-66" font-size="16.799999999999997px" xml:space="preserve" y="229.70000000000002" text-anchor="middle" font-family="Tahoma, Verdana, Helvetica, Arial" fill="#444444" dominant-baseline="hanging" transform="matrix(1,0,0,1,200,0)" style="display: block; fill: rgb(68, 68, 68);"><tspan dy="0" >[Person]</tspan></text><text  id="v-67" font-size="24px" xml:space="preserve" y="261.5" text-anchor="middle" font-family="Tahoma, Verdana, Helvetica, Arial" fill="#444444" dominant-baseline="hanging" transform="matrix(1,0,0,1,200,0)" style="display: block; fill: rgb(68, 68, 68);"><tspan dy="0" >End user or automated client</tspan><tspan dy="1.2em" x="0" >using AWS CLI, SDK, curl, or</tspan><tspan dy="1.2em" x="0" >another S3-compatible HTTP</tspan><tspan dy="1.2em" x="0" >client.</tspan></text><g  id="v-68" font-weight="normal" text-anchor="middle" color="#444444" transform="matrix(1,0,0,1,197.5,368)" display="none" style="fill: rgb(68, 68, 68);"><g ></g><g ></g><g ></g><g ></g></g><image  id="v-69"></image></g></g><!--z-index:9--><g   id="j_11"  transform="translate(939,192)" style=""><g  id="v-78" style="opacity: 1;"><rect  id="v-79" rx="20" ry="20" stroke-width="2" pointer-events="visiblePainted" fill="#1168bd" stroke="#0f5eaa" stroke-dasharray="" width="450" height="300" style="fill: rgb(17, 104, 189); stroke: rgb(15, 94, 170);"></rect><text  id="v-80" font-size="33.599999999999994px" xml:space="preserve" y="72.5" font-weight="bold" text-anchor="middle" pointer-events="visible" font-family="Tahoma, Verdana, Helvetica, Arial" fill="#ffffff" dominant-baseline="hanging" transform="matrix(1,0,0,1,225,0)" style="fill: rgb(255, 255, 255);"><tspan dy="0" >Magrathea ObjectStorage</tspan></text><text  id="v-81" font-size="16.799999999999997px" xml:space="preserve" y="114.1" text-anchor="middle" font-family="Tahoma, Verdana, Helvetica, Arial" fill="#ffffff" dominant-baseline="hanging" transform="matrix(1,0,0,1,225,0)" style="display: block; fill: rgb(255, 255, 255);"><tspan dy="0" >[Software System]</tspan></text><text  id="v-82" font-size="24px" xml:space="preserve" y="145.89999999999998" text-anchor="middle" font-family="Tahoma, Verdana, Helvetica, Arial" fill="#ffffff" dominant-baseline="hanging" transform="matrix(1,0,0,1,225,0)" style="display: block; fill: rgb(255, 255, 255);"><tspan dy="0" >AWS S3-compatible object storage</tspan><tspan dy="1.2em" x="0" >built with Spring Boot 4 WebFlux</tspan><tspan dy="1.2em" x="0" >and Java 21.</tspan></text><g  id="v-83" color="#ffffff" transform="matrix(1,0,0,1,210,268)" display="none" style="fill: rgb(255, 255, 255);"><g  transform="translate(5 0)"><svg xmlns="http://www.w3.org/2000/svg" width="20" height="20" fill="currentColor" viewBox="0 0 16 16"><path fill-rule="evenodd" d="M6.5 12a5.5 5.5 0 1 0 0-11 5.5 5.5 0 0 0 0 11zM13 6.5a6.5 6.5 0 1 1-13 0 6.5 6.5 0 0 1 13 0z"></path><path d="M10.344 11.742c.03.04.062.078.098.115l3.85 3.85a1 1 0 0 0 1.415-1.414l-3.85-3.85a1.007 1.007 0 0 0-.115-.1 6.538 6.538 0 0 1-1.398 1.4z"></path><path fill-rule="evenodd" d="M6.5 3a.5.5 0 0 1 .5.5V6h2.5a.5.5 0 0 1 0 1H7v2.5a.5.5 0 0 1-1 0V7H3.5a.5.5 0 0 1 0-1H6V3.5a.5.5 0 0 1 .5-.5z"></path></svg></g><g ></g><g ></g><g ></g></g><image  id="v-84"></image></g></g><!--z-index:10--><g   id="j_12"  style="opacity: 1;"><path fill="none" cursor="pointer" stroke="transparent" stroke-linecap="round" joint-selector="wrapper" id="v-99" stroke-width="10" stroke-linejoin="round" d="M 599 342 L 939 342"></path><path fill="none" pointer-events="none" joint-selector="line" id="v-98" stroke="#444444" stroke-width="2" stroke-linejoin="round" stroke-dasharray="8 8" d="M 599 342 L 939 342" marker-end="url(#v-21252848929)"></path><g id="v-88" ><g id="v-89"  label-idx="0" cursor="move" transform="matrix(1,0,0,1,769,328.6000061035156)" style="cursor: default;"><rect joint-selector="rect" id="v-93" fill="#ffffff" rx="3" ry="3" x="-90.68939208984375" y="-42.717185974121094" width="182.16360473632812" height="83.68594360351562" pointer-events="none"  style="display: block;"></rect><text joint-selector="text" id="v-92" font-size="24px" xml:space="preserve" fill="#444444" text-anchor="middle" pointer-events="none" font-family="Tahoma, Verdana, Helvetica, Arial" font-weight="normal"  style="display: block;"><tspan dy="-0.8999999999999999em" >Sends S3 bucket</tspan><tspan dy="1.2em" x="0" >operations</tspan><tspan dy="1.2em" x="0" >requests</tspan></text></g><g id="v-90"  label-idx="1" cursor="move" transform="matrix(1,0,0,1,769,387.79998779296875)" style="cursor: default;"><rect joint-selector="rect" id="v-95" fill="#ffffff" rx="3" ry="3" x="-26.590576171875" y="-9.866250038146973" width="53.18115234375" height="18.6328125"  pointer-events="none" style="display: block;"></rect><text joint-selector="text" id="v-94" font-size="16.799999999999997px" xml:space="preserve" fill="#444444" text-anchor="middle" pointer-events="none" font-family="Tahoma, Verdana, Helvetica, Arial" font-weight="normal"  style="display: block;"><tspan dy="0.3em" >[HTTP]</tspan></text></g><g id="v-91"  label-idx="2" cursor="move" transform="matrix(1,0,0,1,759,396.20001220703125)" style="cursor: default;"><rect joint-selector="rect" id="v-97" fill="#ffffff" rx="3" ry="3" x="0" y="0" width="0" height="0"  display="none"></rect><text joint-selector="text" id="v-96" fill="#000000" font-size="14" text-anchor="middle" text-vertical-anchor="middle" pointer-events="none"></text></g></g></g><!--z-index:11--></g><g  style="user-select: none;"></g><g ></g><g  display="none"></g></g></svg>